<svg width="160" height="98" viewBox="0 0 160 98" fill="none" xmlns="http://www.w3.org/2000/svg">
<rect x="0.5" y="34.5" width="159" height="63" rx="4.5" stroke="#9747FF" stroke-dasharray="10 5"/>
<path d="M136 59C136 58.4477 135.552 58 135 58C134.448 58 134 58.4477 134 59V73C134 73.5523 134.448 74 135 74C135.552 74 136 73.5523 136 73L136 59Z" fill="#BABDCC"/>
<path d="M128 58C128.552 58 129 58.4477 129 59L129 73C129 73.5523 128.552 74 128 74C127.448 74 127 73.5523 127 73L127 59C127 58.4477 127.448 58 128 58Z" fill="#BABDCC"/>
<path d="M121 58C121.552 58 122 58.4477 122 59L122 73C122 73.5523 121.552 74 121 74C120.448 74 120 73.5523 120 73L120 59C120 58.4477 120.448 58 121 58Z" fill="#BABDCC"/>
<path d="M132 63C132 64.6569 133.343 66 135 66C136.657 66 138 64.6569 138 63C138 61.3431 136.657 60 135 60C133.343 60 132 61.3431 132 63Z" fill="#12131A"/>
<path d="M128 72C126.343 72 125 70.6569 125 69C125 67.3431 126.343 66 128 66C129.657 66 131 67.3431 131 69C131 70.6569 129.657 72 128 72Z" fill="#12131A"/>
<path d="M121 68C119.343 68 118 66.6569 118 65C118 63.3431 119.343 62 121 62C122.657 62 124 63.3431 124 65C124 66.6569 122.657 68 121 68Z" fill="#12131A"/>
<path d="M87 58C87.5523 58 88 58.4477 88 59V61C88 61.5523 87.5523 62 87 62C86.4477 62 86 61.5523 86 61V59C86 58.4477 86.4477 58 87 58Z" fill="#12131A"/>
<path d="M81 71C81 70.4477 80.5523 70 80 70C79.4477 70 79 70.4477 79 71V73C79 73.5523 79.4477 74 80 74C80.5523 74 81 73.5523 81 73L81 71Z" fill="#12131A"/>
<path d="M80 58C80.5523 58 81 58.4477 81 59L81 63C81 63.5523 80.5523 64 80 64C79.4477 64 79 63.5523 79 63V59C79 58.4477 79.4477 58 80 58Z" fill="#12131A"/>
<path d="M74 59C74 58.4477 73.5523 58 73 58C72.4477 58 72 58.4477 72 59L72 63C72 63.5523 72.4477 64 73 64C73.5523 64 74 63.5523 74 63L74 59Z" fill="#12131A"/>
<path d="M74 71C74 70.4477 73.5523 70 73 70C72.4477 70 72 70.4477 72 71L72 73C72 73.5523 72.4477 74 73 74C73.5523 74 74 73.5523 74 73L74 71Z" fill="#12131A"/>
<path d="M88 69C88 68.4477 87.5523 68 87 68C86.4477 68 86 68.4477 86 69L86 73C86 73.5523 86.4477 74 87 74C87.5523 74 88 73.5523 88 73V69Z" fill="#12131A"/>
<path d="M84 63C84 64.6569 85.3431 66 87 66C88.6569 66 90 64.6569 90 63C90 61.3431 88.6569 60 87 60C85.3431 60 84 61.3431 84 63Z" fill="#12131A"/>
<path d="M80 72C78.3431 72 77 70.6569 77 69C77 67.3431 78.3431 66 80 66C81.6569 66 83 67.3431 83 69C83 70.6569 81.6569 72 80 72Z" fill="#12131A"/>
<path d="M73 68C71.3431 68 70 66.6569 70 65C70 63.3431 71.3431 62 73 62C74.6569 62 76 63.3431 76 65C76 66.6569 74.6569 68 73 68Z" fill="#12131A"/>
<path d="M39 58C39.5523 58 40 58.4477 40 59V61C40 61.5523 39.5523 62 39 62C38.4477 62 38 61.5523 38 61V59C38 58.4477 38.4477 58 39 58Z" fill="#12131A"/>
<path d="M33 71C33 70.4477 32.5523 70 32 70C31.4477 70 31 70.4477 31 71V73C31 73.5523 31.4477 74 32 74C32.5523 74 33 73.5523 33 73L33 71Z" fill="#12131A"/>
<path d="M32 58C32.5523 58 33 58.4477 33 59V67C33 67.5523 32.5523 68 32 68C31.4477 68 31 67.5523 31 67V59C31 58.4477 31.4477 58 32 58Z" fill="#12131A"/>
<path d="M26 59C26 58.4477 25.5523 58 25 58C24.4477 58 24 58.4477 24 59L24 63C24 63.5523 24.4477 64 25 64C25.5523 64 26 63.5523 26 63L26 59Z" fill="#12131A"/>
<path d="M26 67C26 66.4477 25.5523 66 25 66C24.4477 66 24 66.4477 24 67L24 73C24 73.5523 24.4477 74 25 74C25.5523 74 26 73.5523 26 73L26 67Z" fill="#12131A"/>
<path d="M40 65C40 64.4477 39.5523 64 39 64C38.4477 64 38 64.4477 38 65L38 73C38 73.5523 38.4477 74 39 74C39.5523 74 40 73.5523 40 73V65Z" fill="#12131A"/>
<path fill-rule="evenodd" clip-rule="evenodd" d="M39 66C37.3431 66 36 64.6569 36 63C36 61.3431 37.3431 60 39 60C40.6569 60 42 61.3431 42 63C42 64.6569 40.6569 66 39 66ZM39 64C38.4477 64 38 63.5523 38 63C38 62.4477 38.4477 62 39 62C39.5523 62 40 62.4477 40 63C40 63.5523 39.5523 64 39 64Z" fill="#12131A"/>
<path fill-rule="evenodd" clip-rule="evenodd" d="M29 69C29 70.6569 30.3431 72 32 72C33.6569 72 35 70.6569 35 69C35 67.3431 33.6569 66 32 66C30.3431 66 29 67.3431 29 69ZM31 69C31 69.5523 31.4477 70 32 70C32.5523 70 33 69.5523 33 69C33 68.4477 32.5523 68 32 68C31.4477 68 31 68.4477 31 69Z" fill="#12131A"/>
<path fill-rule="evenodd" clip-rule="evenodd" d="M22 65C22 66.6569 23.3431 68 25 68C26.6569 68 28 66.6569 28 65C28 63.3431 26.6569 62 25 62C23.3431 62 22 63.3431 22 65ZM24 65C24 65.5523 24.4477 66 25 66C25.5523 66 26 65.5523 26 65C26 64.4477 25.5523 64 25 64C24.4477 64 24 64.4477 24 65Z" fill="#12131A"/>
<path d="M5.51611 11.6069H2.43115L1.68848 14H0.51416L3.49756 4.75781H4.48145L7.41406 14H6.24609L5.51611 11.6069ZM2.74854 10.585H5.20508L3.98633 6.57324L2.74854 10.585ZM8.68994 10.5088C8.68994 9.99674 8.75342 9.52702 8.88037 9.09961C9.01156 8.66797 9.19775 8.29769 9.43896 7.98877C9.67594 7.67985 9.9637 7.43864 10.3022 7.26514C10.6408 7.09163 11.0195 7.00488 11.4385 7.00488C11.849 7.00488 12.2065 7.07471 12.5112 7.21436C12.8201 7.34977 13.0868 7.54867 13.311 7.81104V4.25H14.4854V14H13.4062L13.3555 13.2764C13.127 13.5557 12.854 13.7673 12.5366 13.9111C12.2192 14.055 11.849 14.127 11.4258 14.127C11.0111 14.127 10.6344 14.0381 10.2959 13.8604C9.96159 13.6826 9.67594 13.4372 9.43896 13.124C9.20199 12.8109 9.0179 12.4427 8.88672 12.0195C8.75553 11.5921 8.68994 11.133 8.68994 10.6421V10.5088ZM9.86426 10.6421C9.86426 10.9764 9.90023 11.2938 9.97217 11.5942C10.0441 11.8947 10.1562 12.1592 10.3086 12.3877C10.4567 12.6162 10.6471 12.7982 10.8799 12.9336C11.1126 13.0648 11.3919 13.1304 11.7178 13.1304C12.1113 13.1304 12.4372 13.0415 12.6953 12.8638C12.9535 12.686 13.1587 12.4469 13.311 12.1465V8.95996C13.1587 8.68066 12.9535 8.45215 12.6953 8.27441C12.4372 8.09245 12.1156 8.00146 11.7305 8.00146C11.4004 8.00146 11.1169 8.06917 10.8799 8.20459C10.6471 8.34001 10.4567 8.52197 10.3086 8.75049C10.1562 8.98324 10.0441 9.25195 9.97217 9.55664C9.90023 9.8571 9.86426 10.1745 9.86426 10.5088V10.6421ZM17.5132 7.13184H20.979V14.0444C20.979 14.4845 20.9176 14.8739 20.7949 15.2124C20.6764 15.5509 20.5029 15.8345 20.2744 16.063C20.0417 16.2957 19.7581 16.4714 19.4238 16.5898C19.0938 16.7126 18.7171 16.7739 18.2939 16.7739C18.1628 16.7739 18.0358 16.7718 17.9131 16.7676C17.7904 16.7633 17.6698 16.757 17.5513 16.7485C17.4539 16.7401 17.3566 16.7274 17.2593 16.7104C17.1619 16.6978 17.0604 16.6829 16.9546 16.666L17.0371 15.7012C17.109 15.7139 17.2 15.7244 17.3101 15.7329C17.4201 15.7456 17.5322 15.7541 17.6465 15.7583C17.7565 15.7668 17.8623 15.771 17.9639 15.771C18.0697 15.7752 18.1522 15.7773 18.2114 15.7773C18.4315 15.7773 18.6388 15.7477 18.8335 15.6885C19.0282 15.6335 19.1974 15.5382 19.3413 15.4028C19.4852 15.2674 19.5973 15.0876 19.6777 14.8633C19.7624 14.6432 19.8047 14.3703 19.8047 14.0444V8.15381H17.5132V7.13184ZM19.6396 5.32275C19.6396 5.13232 19.6968 4.97152 19.811 4.84033C19.9253 4.70492 20.1009 4.63721 20.3379 4.63721C20.5749 4.63721 20.7526 4.70492 20.8711 4.84033C20.9896 4.97152 21.0488 5.13232 21.0488 5.32275C21.0488 5.51318 20.9896 5.67399 20.8711 5.80518C20.7526 5.93213 20.5749 5.99561 20.3379 5.99561C20.1009 5.99561 19.9253 5.93213 19.811 5.80518C19.6968 5.67399 19.6396 5.51318 19.6396 5.32275ZM29.0532 14L28.9834 13.0542C28.7549 13.3927 28.4692 13.6572 28.1265 13.8477C27.7837 14.0339 27.388 14.127 26.9395 14.127C26.5798 14.127 26.2539 14.0719 25.9619 13.9619C25.6699 13.8477 25.4202 13.672 25.2129 13.4351C25.0055 13.1981 24.8447 12.8976 24.7305 12.5337C24.6204 12.1655 24.5654 11.7254 24.5654 11.2134V7.13184H25.7397V11.2261C25.7397 11.5985 25.7694 11.9074 25.8286 12.1528C25.8879 12.3983 25.9767 12.5929 26.0952 12.7368C26.2137 12.8849 26.3576 12.9886 26.5269 13.0479C26.7004 13.1071 26.8993 13.1367 27.1235 13.1367C27.3859 13.1367 27.6208 13.1071 27.8281 13.0479C28.0355 12.9844 28.2153 12.8976 28.3677 12.7876C28.4946 12.6987 28.6047 12.5929 28.6978 12.4702C28.7951 12.3433 28.8755 12.2057 28.939 12.0576V7.13184H30.1196V14H29.0532ZM36.8989 12.1782C36.8989 12.0386 36.8714 11.9137 36.8164 11.8037C36.7614 11.6895 36.6683 11.5858 36.5371 11.4927C36.4059 11.3996 36.2324 11.3149 36.0166 11.2388C35.8008 11.1584 35.5321 11.0864 35.2104 11.0229C34.8169 10.9425 34.4572 10.8452 34.1313 10.731C33.8097 10.6167 33.5347 10.4792 33.3062 10.3184C33.0734 10.1618 32.8936 9.9777 32.7666 9.76611C32.6396 9.55029 32.5762 9.30062 32.5762 9.01709C32.5762 8.73779 32.6418 8.47754 32.7729 8.23633C32.9041 7.99089 33.0882 7.77718 33.3252 7.59521C33.5622 7.41325 33.8436 7.26937 34.1694 7.16357C34.4995 7.05778 34.8613 7.00488 35.2549 7.00488C35.6781 7.00488 36.0589 7.0599 36.3975 7.16992C36.736 7.27995 37.0238 7.43229 37.2607 7.62695C37.4977 7.82161 37.6797 8.05013 37.8066 8.3125C37.9378 8.57064 38.0034 8.84993 38.0034 9.15039H36.8291C36.8291 9.00228 36.791 8.8584 36.7148 8.71875C36.6387 8.57487 36.5329 8.44792 36.3975 8.33789C36.262 8.22786 36.097 8.139 35.9023 8.07129C35.7119 8.00358 35.4961 7.96973 35.2549 7.96973C35.0052 7.96973 34.7852 7.99723 34.5947 8.05225C34.4085 8.10726 34.2541 8.18132 34.1313 8.27441C34.0044 8.36751 33.9092 8.47542 33.8457 8.59814C33.7822 8.72087 33.7505 8.84782 33.7505 8.979C33.7505 9.11442 33.7759 9.23503 33.8267 9.34082C33.8774 9.44661 33.9663 9.54183 34.0933 9.62646C34.216 9.7111 34.381 9.78727 34.5884 9.85498C34.8 9.92269 35.0666 9.98828 35.3882 10.0518C35.8114 10.1406 36.1901 10.2443 36.5244 10.3628C36.8587 10.4771 37.1401 10.6146 37.3687 10.7754C37.5972 10.9404 37.7707 11.1309 37.8892 11.3467C38.0119 11.5625 38.0732 11.8122 38.0732 12.0957C38.0732 12.4004 38.0034 12.6776 37.8638 12.9272C37.7284 13.1769 37.5379 13.3906 37.2925 13.5684C37.047 13.7461 36.7529 13.8836 36.4102 13.981C36.0674 14.0783 35.6929 14.127 35.2866 14.127C34.8211 14.127 34.4064 14.0656 34.0425 13.9429C33.6785 13.8159 33.3717 13.6488 33.1221 13.4414C32.8682 13.2383 32.6735 13.0013 32.5381 12.7305C32.4069 12.4596 32.3413 12.1782 32.3413 11.8862H33.5156C33.5326 12.1274 33.596 12.3306 33.7061 12.4956C33.8203 12.6606 33.9621 12.7939 34.1313 12.8955C34.2964 12.9971 34.4805 13.069 34.6836 13.1113C34.8867 13.1536 35.0877 13.1748 35.2866 13.1748C35.5998 13.1748 35.8727 13.1388 36.1055 13.0669C36.3382 12.9907 36.5202 12.887 36.6514 12.7559C36.7318 12.6755 36.7931 12.5866 36.8354 12.4893C36.8778 12.3919 36.8989 12.2882 36.8989 12.1782ZM42.9229 5.46875V7.13184H45.5381V8.03955H42.9229V11.772C42.9229 12.0386 42.9567 12.2586 43.0244 12.4321C43.0921 12.6056 43.1852 12.7432 43.3037 12.8447C43.4222 12.9505 43.5576 13.0246 43.71 13.0669C43.8665 13.1092 44.0316 13.1304 44.2051 13.1304C44.332 13.1304 44.4632 13.124 44.5986 13.1113C44.734 13.0944 44.8674 13.0754 44.9985 13.0542C45.1255 13.033 45.244 13.0119 45.354 12.9907C45.4683 12.9653 45.5614 12.9442 45.6333 12.9272L45.7983 13.7588C45.701 13.818 45.5825 13.8709 45.4429 13.9175C45.3032 13.9598 45.1509 13.9958 44.9858 14.0254C44.8208 14.0592 44.6452 14.0846 44.459 14.1016C44.277 14.1185 44.0951 14.127 43.9131 14.127C43.6084 14.127 43.3228 14.0846 43.0562 14C42.7938 13.9111 42.5653 13.7715 42.3706 13.5811C42.1759 13.3949 42.0215 13.1536 41.9072 12.8574C41.7972 12.557 41.7422 12.1951 41.7422 11.772V8.03955H39.9395V7.13184H41.7422V5.46875H42.9229Z" fill="#696C80"/>
</svg>
