<svg width="160" height="98" viewBox="0 0 160 98" fill="none" xmlns="http://www.w3.org/2000/svg">
<rect x="0.5" y="34.5" width="159" height="63" rx="4.5" stroke="#9747FF" stroke-dasharray="10 5"/>
<path d="M128 58C123.029 58 119 62.0294 119 67C119 71.9706 123.029 76 128 76C132.971 76 137 71.9706 137 67C137 62.0294 132.971 58 128 58Z" fill="#BABDCC"/>
<path fill-rule="evenodd" clip-rule="evenodd" d="M128 62C128.552 62 129 62.4477 129 63V66.5858L130.707 68.2929C131.098 68.6834 131.098 69.3166 130.707 69.7071C130.317 70.0976 129.683 70.0976 129.293 69.7071L127.293 67.7071C127.105 67.5196 127 67.2652 127 67V63C127 62.4477 127.448 62 128 62Z" fill="#12131A"/>
<path d="M120.6 59.3001C120.158 59.6314 119.531 59.5419 119.2 59.1001C118.869 58.6582 118.958 58.0314 119.4 57.7001L121.4 56.2001C121.842 55.8687 122.469 55.9582 122.8 56.4001C123.131 56.8419 123.042 57.4687 122.6 57.8001L120.6 59.3001Z" fill="#12131A"/>
<path d="M134.6 56.2002C134.158 55.8688 133.531 55.9583 133.2 56.4002C132.869 56.842 132.958 57.4688 133.4 57.8002L135.4 59.3002C135.842 59.6315 136.469 59.542 136.8 59.1002C137.131 58.6583 137.042 58.0315 136.6 57.7002L134.6 56.2002Z" fill="#12131A"/>
<path fill-rule="evenodd" clip-rule="evenodd" d="M71 67C71 62.0294 75.0294 58 80 58C84.9706 58 89 62.0294 89 67C89 71.9706 84.9706 76 80 76C75.0294 76 71 71.9706 71 67ZM81 63C81 62.4477 80.5523 62 80 62C79.4477 62 79 62.4477 79 63V67C79 67.2652 79.1054 67.5196 79.2929 67.7071L81.2929 69.7071C81.6834 70.0976 82.3166 70.0976 82.7071 69.7071C83.0976 69.3166 83.0976 68.6834 82.7071 68.2929L81 66.5858V63Z" fill="#12131A"/>
<path d="M72.6001 59.3001C72.1582 59.6314 71.5314 59.5419 71.2001 59.1001C70.8687 58.6582 70.9582 58.0314 71.4001 57.7001L73.4001 56.2001C73.8419 55.8687 74.4687 55.9582 74.8001 56.4001C75.1314 56.8419 75.0419 57.4687 74.6001 57.8001L72.6001 59.3001Z" fill="#12131A"/>
<path d="M86.6001 56.2002C86.1582 55.8688 85.5314 55.9583 85.2001 56.4002C84.8687 56.842 84.9582 57.4688 85.4001 57.8002L87.4001 59.3002C87.8419 59.6315 88.4687 59.542 88.8001 59.1002C89.1314 58.6583 89.0419 58.0315 88.6001 57.7002L86.6001 56.2002Z" fill="#12131A"/>
<path fill-rule="evenodd" clip-rule="evenodd" d="M32 60C28.134 60 25 63.134 25 67C25 70.866 28.134 74 32 74C35.866 74 39 70.866 39 67C39 63.134 35.866 60 32 60ZM23 67C23 62.0294 27.0294 58 32 58C36.9706 58 41 62.0294 41 67C41 71.9706 36.9706 76 32 76C27.0294 76 23 71.9706 23 67Z" fill="#12131A"/>
<path fill-rule="evenodd" clip-rule="evenodd" d="M32 62C32.5523 62 33 62.4477 33 63V66.5858L34.7071 68.2929C35.0976 68.6834 35.0976 69.3166 34.7071 69.7071C34.3166 70.0976 33.6834 70.0976 33.2929 69.7071L31.2929 67.7071C31.1054 67.5196 31 67.2652 31 67V63C31 62.4477 31.4477 62 32 62Z" fill="#12131A"/>
<path d="M24.6001 59.3001C24.1582 59.6314 23.5314 59.5419 23.2001 59.1001C22.8687 58.6582 22.9582 58.0314 23.4001 57.7001L25.4001 56.2001C25.8419 55.8687 26.4687 55.9582 26.8001 56.4001C27.1314 56.8419 27.0419 57.4687 26.6001 57.8001L24.6001 59.3001Z" fill="#12131A"/>
<path d="M38.6001 56.2002C38.1582 55.8688 37.5314 55.9583 37.2001 56.4002C36.8687 56.842 36.9582 57.4688 37.4001 57.8002L39.4001 59.3002C39.8419 59.6315 40.4687 59.542 40.8001 59.1002C41.1314 58.6583 41.0419 58.0315 40.6001 57.7002L38.6001 56.2002Z" fill="#12131A"/>
<path d="M5.51611 11.6069H2.43115L1.68848 14H0.51416L3.49756 4.75781H4.48145L7.41406 14H6.24609L5.51611 11.6069ZM2.74854 10.585H5.20508L3.98633 6.57324L2.74854 10.585ZM9.09619 4.25H12.6064V12.9844H14.8472V14H9.09619V12.9844H11.4321V5.27197H9.09619V4.25ZM21.2329 14C21.1864 13.9111 21.1483 13.8011 21.1187 13.6699C21.0933 13.5345 21.0742 13.3949 21.0615 13.251C20.943 13.3695 20.8097 13.4816 20.6616 13.5874C20.5177 13.6932 20.359 13.7863 20.1855 13.8667C20.0078 13.9471 19.8195 14.0106 19.6206 14.0571C19.4217 14.1037 19.2101 14.127 18.9858 14.127C18.6219 14.127 18.2918 14.0741 17.9956 13.9683C17.7036 13.8625 17.4561 13.7186 17.2529 13.5366C17.0456 13.3589 16.8848 13.1473 16.7705 12.9019C16.6605 12.6522 16.6055 12.3835 16.6055 12.0957C16.6055 11.7191 16.6795 11.389 16.8276 11.1055C16.98 10.8219 17.1937 10.585 17.4688 10.3945C17.7438 10.2083 18.0739 10.0687 18.459 9.97559C18.8483 9.88249 19.2821 9.83594 19.7603 9.83594H21.0425V9.29639C21.0425 9.08903 21.0044 8.90283 20.9282 8.73779C20.8521 8.57275 20.7441 8.43099 20.6045 8.3125C20.4648 8.19824 20.2935 8.10938 20.0903 8.0459C19.8914 7.98242 19.6672 7.95068 19.4175 7.95068C19.1847 7.95068 18.9753 7.98031 18.7891 8.03955C18.6071 8.0988 18.4526 8.17708 18.3257 8.27441C18.1987 8.37174 18.0993 8.48812 18.0273 8.62354C17.9596 8.75472 17.9258 8.89225 17.9258 9.03613H16.7451C16.7493 8.78646 16.8128 8.54102 16.9355 8.2998C17.0625 8.05859 17.2445 7.84066 17.4814 7.646C17.7142 7.45557 17.9977 7.30111 18.332 7.18262C18.6706 7.06413 19.0535 7.00488 19.481 7.00488C19.8703 7.00488 20.2321 7.05355 20.5664 7.15088C20.9007 7.24398 21.1906 7.38574 21.436 7.57617C21.6772 7.77083 21.8677 8.01204 22.0073 8.2998C22.147 8.58757 22.2168 8.92399 22.2168 9.30908V12.502C22.2168 12.7305 22.238 12.9738 22.2803 13.2319C22.3226 13.4858 22.3818 13.708 22.458 13.8984V14H21.2329ZM19.1572 13.105C19.3857 13.105 19.5994 13.0754 19.7983 13.0161C19.9972 12.9569 20.1792 12.8786 20.3442 12.7812C20.505 12.6839 20.6447 12.5739 20.7632 12.4512C20.8817 12.3242 20.9748 12.193 21.0425 12.0576V10.6675H19.9507C19.5444 10.6675 19.189 10.7035 18.8843 10.7754C18.5838 10.8431 18.3447 10.9489 18.167 11.0928C18.04 11.1943 17.9427 11.3149 17.875 11.4546C17.8115 11.5942 17.7798 11.7529 17.7798 11.9307C17.7798 12.0999 17.8073 12.2565 17.8623 12.4004C17.9215 12.5443 18.0083 12.667 18.1226 12.7686C18.2368 12.8743 18.3807 12.9569 18.5542 13.0161C18.7277 13.0754 18.9287 13.105 19.1572 13.105ZM29.0278 7.00488C29.2437 7.00488 29.4679 7.01969 29.7007 7.04932C29.9377 7.07894 30.1154 7.11914 30.2339 7.16992L30.0752 8.31885C29.8467 8.26807 29.6287 8.2321 29.4214 8.21094C29.2183 8.18555 29.0046 8.17285 28.7803 8.17285C28.4925 8.17285 28.2323 8.20882 27.9995 8.28076C27.7668 8.34847 27.5636 8.45003 27.3901 8.58545C27.2336 8.70394 27.096 8.84993 26.9775 9.02344C26.8633 9.19271 26.7681 9.38314 26.6919 9.59473V14H25.5112V7.13184H26.6284L26.6792 8.05225L26.6855 8.22363C26.9648 7.84701 27.2992 7.55078 27.6885 7.33496C28.082 7.11491 28.5285 7.00488 29.0278 7.00488ZM32.8745 7.13184L32.9062 7.7793C33.0459 7.53809 33.2279 7.34977 33.4521 7.21436C33.6807 7.07894 33.9557 7.00911 34.2773 7.00488C34.4593 7.00488 34.6222 7.02604 34.7661 7.06836C34.9142 7.10645 35.0433 7.16357 35.1533 7.23975C35.2337 7.29899 35.3057 7.37093 35.3691 7.45557C35.4368 7.5402 35.494 7.63542 35.5405 7.74121C35.5998 7.64388 35.6696 7.5529 35.75 7.46826C35.8304 7.38363 35.9172 7.30957 36.0103 7.24609C36.1287 7.17415 36.2599 7.11702 36.4038 7.07471C36.5519 7.03239 36.7127 7.00911 36.8862 7.00488C37.1232 7.00488 37.3369 7.04085 37.5273 7.11279C37.7178 7.1805 37.8786 7.28206 38.0098 7.41748C38.1536 7.56982 38.2637 7.76872 38.3398 8.01416C38.416 8.25537 38.4541 8.54102 38.4541 8.87109V14H37.3369V8.8584C37.3369 8.71452 37.32 8.58757 37.2861 8.47754C37.2523 8.36751 37.2036 8.27653 37.1401 8.20459C37.0724 8.13688 36.9878 8.0861 36.8862 8.05225C36.7889 8.01839 36.6746 8.00146 36.5435 8.00146C36.4038 8.00146 36.2832 8.02051 36.1816 8.05859C36.0801 8.09668 35.9954 8.14746 35.9277 8.21094C35.86 8.27865 35.8071 8.35693 35.769 8.4458C35.731 8.53044 35.7056 8.62565 35.6929 8.73145C35.6929 8.7526 35.6929 8.77376 35.6929 8.79492C35.6929 8.81185 35.6929 8.83301 35.6929 8.8584V14H34.5757V8.85205C34.5757 8.70817 34.5588 8.58122 34.5249 8.47119C34.4953 8.36117 34.4466 8.27018 34.3789 8.19824C34.3154 8.13053 34.235 8.08187 34.1377 8.05225C34.0446 8.01839 33.9346 8.00146 33.8076 8.00146C33.668 8.00146 33.5452 8.01839 33.4395 8.05225C33.3379 8.08187 33.2511 8.1263 33.1792 8.18555C33.1242 8.2321 33.0755 8.28499 33.0332 8.34424C32.9951 8.40348 32.9634 8.46696 32.938 8.53467V14H31.8208V7.13184H32.8745Z" fill="#696C80"/>
</svg>
