<svg width="160" height="98" viewBox="0 0 160 98" fill="none" xmlns="http://www.w3.org/2000/svg">
<rect x="0.5" y="34.5" width="159" height="63" rx="4.5" stroke="#9747FF" stroke-dasharray="10 5"/>
<path fill-rule="evenodd" clip-rule="evenodd" d="M137 66C137 66.5523 136.552 67 136 67L120 67C119.448 67 119 66.5523 119 66C119 65.4477 119.448 65 120 65L136 65C136.552 65 137 65.4477 137 66Z" fill="#BABDCC"/>
<path d="M134 63C134 61.8954 133.105 61 132 61C130.895 61 130 61.8954 130 63V69C130 70.1046 130.895 71 132 71C133.105 71 134 70.1046 134 69V63Z" fill="#12131A"/>
<path d="M126 59C126 57.8954 125.105 57 124 57C122.895 57 122 57.8954 122 59L122 73C122 74.1046 122.895 75 124 75C125.105 75 126 74.1046 126 73L126 59Z" fill="#12131A"/>
<path fill-rule="evenodd" clip-rule="evenodd" d="M71 66C71 65.4477 71.4477 65 72 65L88 65C88.5523 65 89 65.4477 89 66C89 66.5523 88.5523 67 88 67L72 67C71.4477 67 71 66.5523 71 66Z" fill="#12131A"/>
<path d="M78 59C78 57.8954 77.1046 57 76 57C74.8954 57 74 57.8954 74 59V73C74 74.1046 74.8954 75 76 75C77.1046 75 78 74.1046 78 73L78 59Z" fill="#12131A"/>
<path d="M86 63C86 61.8954 85.1046 61 84 61C82.8954 61 82 61.8954 82 63V69C82 70.1046 82.8954 71 84 71C85.1046 71 86 70.1046 86 69V63Z" fill="#12131A"/>
<path fill-rule="evenodd" clip-rule="evenodd" d="M41 66C41 66.5523 40.5523 67 40 67L37 67V65L40 65C40.5523 65 41 65.4477 41 66ZM35 67L29 67V65L35 65V67ZM24 67L27 67V65L24 65C23.4477 65 23 65.4477 23 66C23 66.5523 23.4477 67 24 67Z" fill="#12131A"/>
<path fill-rule="evenodd" clip-rule="evenodd" d="M39 64C39 62.3431 37.6569 61 36 61C34.3431 61 33 62.3431 33 64V68C33 69.6569 34.3431 71 36 71C37.6569 71 39 69.6569 39 68V64ZM36 63C36.5523 63 37 63.4477 37 64V68C37 68.5523 36.5523 69 36 69C35.4477 69 35 68.5523 35 68V64C35 63.4477 35.4477 63 36 63ZM31 60C31 58.3431 29.6569 57 28 57C26.3431 57 25 58.3431 25 60L25 72C25 73.6569 26.3431 75 28 75C29.6569 75 31 73.6569 31 72L31 60ZM28 59C28.5523 59 29 59.4477 29 60L29 72C29 72.5523 28.5523 73 28 73C27.4477 73 27 72.5523 27 72L27 60C27 59.4477 27.4477 59 28 59Z" fill="#12131A"/>
<path d="M5.51611 11.6069H2.43115L1.68848 14H0.51416L3.49756 4.75781H4.48145L7.41406 14H6.24609L5.51611 11.6069ZM2.74854 10.585H5.20508L3.98633 6.57324L2.74854 10.585ZM9.09619 4.25H12.6064V12.9844H14.8472V14H9.09619V12.9844H11.4321V5.27197H9.09619V4.25ZM16.9038 7.13184H20.4141V12.9844H22.6548V14H16.9038V12.9844H19.2397V8.15381H16.9038V7.13184ZM19.0874 5.3291C19.0874 5.22754 19.1022 5.13232 19.1318 5.04346C19.1657 4.95459 19.2165 4.87842 19.2842 4.81494C19.3392 4.75993 19.409 4.71761 19.4937 4.68799C19.5825 4.65413 19.682 4.63721 19.792 4.63721C19.902 4.63721 19.9993 4.65413 20.084 4.68799C20.1686 4.71761 20.2384 4.75993 20.2935 4.81494C20.3612 4.87419 20.4119 4.94824 20.4458 5.03711C20.4797 5.12598 20.4966 5.22331 20.4966 5.3291C20.4966 5.51953 20.4373 5.67822 20.3188 5.80518C20.2004 5.93213 20.0247 5.99561 19.792 5.99561C19.555 5.99561 19.3773 5.93213 19.2588 5.80518C19.1445 5.67822 19.0874 5.51953 19.0874 5.3291ZM24.3115 10.5088C24.3115 9.99674 24.3729 9.52702 24.4956 9.09961C24.6226 8.66797 24.8045 8.29769 25.0415 7.98877C25.2785 7.67985 25.5662 7.43864 25.9048 7.26514C26.2433 7.09163 26.6263 7.00488 27.0537 7.00488C27.3288 7.00488 27.5806 7.03662 27.8091 7.1001C28.0418 7.16357 28.2513 7.25667 28.4375 7.37939C28.5391 7.44287 28.6343 7.51693 28.7231 7.60156C28.8162 7.6862 28.903 7.7793 28.9834 7.88086L29.0405 7.13184H30.1069V13.854C30.1069 14.3068 30.035 14.7088 29.8911 15.0601C29.7515 15.4113 29.5547 15.7096 29.3008 15.9551C29.0426 16.2005 28.7358 16.3867 28.3804 16.5137C28.0249 16.6406 27.6313 16.7041 27.1997 16.7041C27.022 16.7041 26.8188 16.6829 26.5903 16.6406C26.3618 16.6025 26.1312 16.5369 25.8984 16.4438C25.6615 16.355 25.4329 16.2344 25.2129 16.082C24.9971 15.9297 24.8109 15.7414 24.6543 15.5171L25.2637 14.8125C25.4076 14.986 25.5557 15.132 25.708 15.2505C25.8604 15.3732 26.0148 15.4705 26.1714 15.5425C26.328 15.6144 26.4845 15.6652 26.6411 15.6948C26.7977 15.7287 26.9543 15.7456 27.1108 15.7456C27.3901 15.7456 27.6419 15.7054 27.8662 15.625C28.0905 15.5446 28.283 15.4261 28.4438 15.2695C28.6004 15.1172 28.721 14.9268 28.8057 14.6982C28.8903 14.4697 28.9326 14.2074 28.9326 13.9111V13.3208C28.8438 13.4224 28.7485 13.5155 28.647 13.6001C28.5496 13.6847 28.4438 13.7588 28.3296 13.8223C28.1519 13.9196 27.9551 13.9937 27.7393 14.0444C27.5234 14.0994 27.2907 14.127 27.041 14.127C26.6221 14.127 26.2433 14.0381 25.9048 13.8604C25.5662 13.6826 25.2806 13.4372 25.0479 13.124C24.8109 12.8109 24.6289 12.4427 24.502 12.0195C24.375 11.5921 24.3115 11.133 24.3115 10.6421V10.5088ZM25.4858 10.6421C25.4858 10.9764 25.5197 11.2938 25.5874 11.5942C25.6593 11.8947 25.7715 12.1592 25.9238 12.3877C26.0719 12.6162 26.2624 12.7982 26.4951 12.9336C26.7279 13.0648 27.0072 13.1304 27.333 13.1304C27.5361 13.1304 27.7181 13.1071 27.8789 13.0605C28.0439 13.0098 28.1921 12.9399 28.3232 12.8511C28.4502 12.7622 28.5645 12.6564 28.666 12.5337C28.7676 12.411 28.8564 12.2756 28.9326 12.1274V8.979C28.8564 8.83512 28.7676 8.70394 28.666 8.58545C28.5645 8.46696 28.4481 8.36328 28.3169 8.27441C28.1857 8.18978 28.0397 8.12419 27.8789 8.07764C27.7181 8.02686 27.5404 8.00146 27.3457 8.00146C27.0156 8.00146 26.7321 8.06917 26.4951 8.20459C26.2624 8.34001 26.0719 8.52197 25.9238 8.75049C25.7715 8.98324 25.6593 9.25195 25.5874 9.55664C25.5197 9.8571 25.4858 10.1745 25.4858 10.5088V10.6421ZM32.335 14V7.13184H33.3887L33.4712 8.14746C33.5728 8.00358 33.6828 7.8724 33.8013 7.75391C33.924 7.63118 34.0531 7.52539 34.1885 7.43652C34.3916 7.30111 34.6117 7.19743 34.8486 7.12549C35.0898 7.04932 35.3438 7.00911 35.6104 7.00488C35.9701 7.00488 36.2959 7.05566 36.5879 7.15723C36.8841 7.25879 37.1359 7.41748 37.3433 7.6333C37.5506 7.84912 37.7093 8.12419 37.8193 8.4585C37.9336 8.78857 37.9907 9.18213 37.9907 9.63916V14H36.8164V9.66455C36.8164 9.35986 36.7826 9.10173 36.7148 8.89014C36.6471 8.67855 36.5477 8.50716 36.4165 8.37598C36.2811 8.24479 36.116 8.14958 35.9214 8.09033C35.731 8.03109 35.5109 8.00146 35.2612 8.00146C35.0454 8.00146 34.8444 8.0332 34.6582 8.09668C34.472 8.15592 34.3006 8.23844 34.144 8.34424C34.0171 8.43734 33.8986 8.54525 33.7886 8.66797C33.6828 8.79069 33.5897 8.92611 33.5093 9.07422V14H32.335ZM50.2163 14L47.2964 4.75781H48.5532L50.5845 11.6577L50.7178 12.1084L50.8574 11.645L52.9014 4.75781H54.1519L51.2383 14H50.2163ZM58.792 14.127C58.3096 14.127 57.8652 14.0444 57.459 13.8794C57.057 13.7144 56.7121 13.4837 56.4243 13.1875C56.1366 12.8913 55.9123 12.54 55.7515 12.1338C55.5907 11.7275 55.5103 11.2853 55.5103 10.8071V10.5405C55.5103 9.98617 55.5991 9.49105 55.7769 9.05518C55.9546 8.61507 56.1916 8.24268 56.4878 7.93799C56.7798 7.63753 57.112 7.4069 57.4844 7.24609C57.861 7.08529 58.2461 7.00488 58.6396 7.00488C59.1348 7.00488 59.5664 7.09163 59.9346 7.26514C60.307 7.43441 60.6159 7.66927 60.8613 7.96973C61.1068 8.27441 61.2887 8.632 61.4072 9.04248C61.5299 9.45296 61.5913 9.8973 61.5913 10.3755V10.9023H56.6846V10.9468C56.7142 11.2811 56.7798 11.5752 56.8813 11.8291C56.9871 12.083 57.131 12.3073 57.313 12.502C57.4992 12.7093 57.7235 12.8722 57.9858 12.9907C58.2482 13.1092 58.5381 13.1685 58.8555 13.1685C59.2744 13.1685 59.6468 13.0838 59.9727 12.9146C60.2985 12.7453 60.5693 12.521 60.7852 12.2417L61.5024 12.8003C61.2739 13.1473 60.9312 13.4562 60.4741 13.7271C60.0213 13.9937 59.4606 14.127 58.792 14.127ZM58.6396 7.96973C58.4027 7.96973 58.1784 8.01416 57.9668 8.10303C57.7552 8.18766 57.5648 8.3125 57.3955 8.47754C57.2262 8.64681 57.0824 8.85417 56.9639 9.09961C56.8496 9.34082 56.7692 9.62012 56.7227 9.9375H60.417V9.88037C60.417 9.66878 60.3768 9.44238 60.2964 9.20117C60.216 8.95573 60.1038 8.74414 59.96 8.56641C59.8161 8.38867 59.6341 8.24479 59.4141 8.13477C59.1982 8.02474 58.9401 7.96973 58.6396 7.96973ZM68.0659 7.00488C68.2817 7.00488 68.506 7.01969 68.7388 7.04932C68.9757 7.07894 69.1535 7.11914 69.272 7.16992L69.1133 8.31885C68.8848 8.26807 68.6668 8.2321 68.4595 8.21094C68.2563 8.18555 68.0426 8.17285 67.8184 8.17285C67.5306 8.17285 67.2703 8.20882 67.0376 8.28076C66.8049 8.34847 66.6017 8.45003 66.4282 8.58545C66.2716 8.70394 66.1341 8.84993 66.0156 9.02344C65.9014 9.19271 65.8062 9.38314 65.73 9.59473V14H64.5493V7.13184H65.6665L65.7173 8.05225L65.7236 8.22363C66.0029 7.84701 66.3372 7.55078 66.7266 7.33496C67.1201 7.11491 67.5666 7.00488 68.0659 7.00488ZM74.1533 5.46875V7.13184H76.7686V8.03955H74.1533V11.772C74.1533 12.0386 74.1872 12.2586 74.2549 12.4321C74.3226 12.6056 74.4157 12.7432 74.5342 12.8447C74.6527 12.9505 74.7881 13.0246 74.9404 13.0669C75.097 13.1092 75.262 13.1304 75.4355 13.1304C75.5625 13.1304 75.6937 13.124 75.8291 13.1113C75.9645 13.0944 76.0978 13.0754 76.229 13.0542C76.356 13.033 76.4744 13.0119 76.5845 12.9907C76.6987 12.9653 76.7918 12.9442 76.8638 12.9272L77.0288 13.7588C76.9315 13.818 76.813 13.8709 76.6733 13.9175C76.5337 13.9598 76.3813 13.9958 76.2163 14.0254C76.0513 14.0592 75.8757 14.0846 75.6895 14.1016C75.5075 14.1185 75.3255 14.127 75.1436 14.127C74.8389 14.127 74.5532 14.0846 74.2866 14C74.0243 13.9111 73.7957 13.7715 73.6011 13.5811C73.4064 13.3949 73.252 13.1536 73.1377 12.8574C73.0277 12.557 72.9727 12.1951 72.9727 11.772V8.03955H71.1699V7.13184H72.9727V5.46875H74.1533ZM79.3647 7.13184H82.875V12.9844H85.1157V14H79.3647V12.9844H81.7007V8.15381H79.3647V7.13184ZM81.5483 5.3291C81.5483 5.22754 81.5632 5.13232 81.5928 5.04346C81.6266 4.95459 81.6774 4.87842 81.7451 4.81494C81.8001 4.75993 81.87 4.71761 81.9546 4.68799C82.0435 4.65413 82.1429 4.63721 82.2529 4.63721C82.363 4.63721 82.4603 4.65413 82.5449 4.68799C82.6296 4.71761 82.6994 4.75993 82.7544 4.81494C82.8221 4.87419 82.8729 4.94824 82.9067 5.03711C82.9406 5.12598 82.9575 5.22331 82.9575 5.3291C82.9575 5.51953 82.8983 5.67822 82.7798 5.80518C82.6613 5.93213 82.4857 5.99561 82.2529 5.99561C82.016 5.99561 81.8382 5.93213 81.7197 5.80518C81.6055 5.67822 81.5483 5.51953 81.5483 5.3291ZM89.9146 13.1748C90.1261 13.1748 90.3314 13.141 90.5303 13.0732C90.7334 13.0055 90.9132 12.9103 91.0698 12.7876C91.2264 12.6691 91.3512 12.5295 91.4443 12.3687C91.5417 12.2036 91.5924 12.0259 91.5967 11.8354H92.7075C92.7033 12.1401 92.6229 12.4321 92.4663 12.7114C92.314 12.9865 92.1087 13.2277 91.8506 13.4351C91.5924 13.6466 91.2962 13.8159 90.9619 13.9429C90.6276 14.0656 90.2785 14.127 89.9146 14.127C89.394 14.127 88.9391 14.0339 88.5498 13.8477C88.1605 13.6615 87.8368 13.4097 87.5786 13.0923C87.3162 12.7791 87.1195 12.4173 86.9883 12.0068C86.8571 11.5921 86.7915 11.1562 86.7915 10.6992V10.4326C86.7915 9.97982 86.8571 9.54606 86.9883 9.13135C87.1195 8.71663 87.3162 8.35059 87.5786 8.0332C87.8368 7.72005 88.1605 7.47038 88.5498 7.28418C88.9391 7.09798 89.394 7.00488 89.9146 7.00488C90.3208 7.00488 90.6932 7.07048 91.0317 7.20166C91.3745 7.32861 91.6707 7.50212 91.9204 7.72217C92.1659 7.94645 92.3584 8.21094 92.498 8.51562C92.6377 8.82031 92.7075 9.14616 92.7075 9.49316H91.5967C91.5924 9.28581 91.5459 9.09115 91.457 8.90918C91.3724 8.72298 91.256 8.56006 91.1079 8.42041C90.9598 8.28076 90.7821 8.17074 90.5747 8.09033C90.3716 8.00993 90.1515 7.96973 89.9146 7.96973C89.5506 7.96973 89.2438 8.04378 88.9941 8.19189C88.7487 8.33577 88.5498 8.52409 88.3975 8.75684C88.2451 8.99382 88.1351 9.2583 88.0674 9.55029C88.0039 9.84229 87.9722 10.1364 87.9722 10.4326V10.6992C87.9722 10.9997 88.0039 11.298 88.0674 11.5942C88.1351 11.8862 88.2451 12.1486 88.3975 12.3813C88.5456 12.6183 88.7424 12.8109 88.9878 12.959C89.2375 13.1029 89.5464 13.1748 89.9146 13.1748ZM99.3091 14C99.2625 13.9111 99.2244 13.8011 99.1948 13.6699C99.1694 13.5345 99.1504 13.3949 99.1377 13.251C99.0192 13.3695 98.8859 13.4816 98.7378 13.5874C98.5939 13.6932 98.4352 13.7863 98.2617 13.8667C98.084 13.9471 97.8957 14.0106 97.6968 14.0571C97.4979 14.1037 97.2863 14.127 97.062 14.127C96.6981 14.127 96.368 14.0741 96.0718 13.9683C95.7798 13.8625 95.5322 13.7186 95.3291 13.5366C95.1217 13.3589 94.9609 13.1473 94.8467 12.9019C94.7367 12.6522 94.6816 12.3835 94.6816 12.0957C94.6816 11.7191 94.7557 11.389 94.9038 11.1055C95.0562 10.8219 95.2699 10.585 95.5449 10.3945C95.82 10.2083 96.1501 10.0687 96.5352 9.97559C96.9245 9.88249 97.3582 9.83594 97.8364 9.83594H99.1187V9.29639C99.1187 9.08903 99.0806 8.90283 99.0044 8.73779C98.9282 8.57275 98.8203 8.43099 98.6807 8.3125C98.541 8.19824 98.3696 8.10938 98.1665 8.0459C97.9676 7.98242 97.7433 7.95068 97.4937 7.95068C97.2609 7.95068 97.0514 7.98031 96.8652 8.03955C96.6833 8.0988 96.5288 8.17708 96.4019 8.27441C96.2749 8.37174 96.1755 8.48812 96.1035 8.62354C96.0358 8.75472 96.002 8.89225 96.002 9.03613H94.8213C94.8255 8.78646 94.889 8.54102 95.0117 8.2998C95.1387 8.05859 95.3206 7.84066 95.5576 7.646C95.7904 7.45557 96.0739 7.30111 96.4082 7.18262C96.7467 7.06413 97.1297 7.00488 97.5571 7.00488C97.9465 7.00488 98.3083 7.05355 98.6426 7.15088C98.9769 7.24398 99.2668 7.38574 99.5122 7.57617C99.7534 7.77083 99.9438 8.01204 100.083 8.2998C100.223 8.58757 100.293 8.92399 100.293 9.30908V12.502C100.293 12.7305 100.314 12.9738 100.356 13.2319C100.399 13.4858 100.458 13.708 100.534 13.8984V14H99.3091ZM97.2334 13.105C97.4619 13.105 97.6756 13.0754 97.8745 13.0161C98.0734 12.9569 98.2554 12.8786 98.4204 12.7812C98.5812 12.6839 98.7209 12.5739 98.8394 12.4512C98.9578 12.3242 99.0509 12.193 99.1187 12.0576V10.6675H98.0269C97.6206 10.6675 97.2651 10.7035 96.9604 10.7754C96.66 10.8431 96.4209 10.9489 96.2432 11.0928C96.1162 11.1943 96.0189 11.3149 95.9512 11.4546C95.8877 11.5942 95.856 11.7529 95.856 11.9307C95.856 12.0999 95.8835 12.2565 95.9385 12.4004C95.9977 12.5443 96.0845 12.667 96.1987 12.7686C96.313 12.8743 96.4569 12.9569 96.6304 13.0161C96.8039 13.0754 97.0049 13.105 97.2334 13.105ZM102.788 4.25H106.298V12.9844H108.539V14H102.788V12.9844H105.124V5.27197H102.788V4.25ZM7.09033 28.2197C7.03532 28.6471 6.92529 29.0407 6.76025 29.4004C6.59521 29.7559 6.38151 30.0605 6.11914 30.3145C5.85254 30.5726 5.53727 30.7736 5.17334 30.9175C4.81364 31.0571 4.41162 31.127 3.96729 31.127C3.58643 31.127 3.23942 31.0741 2.92627 30.9683C2.61735 30.8582 2.34229 30.708 2.10107 30.5176C1.85563 30.3271 1.64404 30.1029 1.46631 29.8447C1.29281 29.5866 1.14893 29.3052 1.03467 29.0005C0.916178 28.6958 0.827311 28.3763 0.768066 28.042C0.713053 27.7077 0.683431 27.3691 0.679199 27.0264V25.7378C0.683431 25.395 0.713053 25.0565 0.768066 24.7222C0.827311 24.3879 0.916178 24.0684 1.03467 23.7637C1.14893 23.459 1.29281 23.1776 1.46631 22.9194C1.64404 22.6571 1.85563 22.4307 2.10107 22.2402C2.34229 22.0498 2.61735 21.9017 2.92627 21.7959C3.23519 21.6859 3.58219 21.6309 3.96729 21.6309C4.42855 21.6309 4.84115 21.7028 5.20508 21.8467C5.56901 21.9863 5.88216 22.1852 6.14453 22.4434C6.4069 22.7057 6.61637 23.0189 6.77295 23.3828C6.93376 23.7467 7.03955 24.1488 7.09033 24.5889H5.91602C5.87793 24.3096 5.81234 24.0493 5.71924 23.8081C5.62614 23.5669 5.5013 23.3553 5.34473 23.1733C5.18815 22.9914 4.99561 22.8496 4.76709 22.748C4.54281 22.6423 4.2762 22.5894 3.96729 22.5894C3.68799 22.5894 3.44043 22.6359 3.22461 22.729C3.01302 22.8179 2.83105 22.9406 2.67871 23.0972C2.52214 23.2537 2.39095 23.4357 2.28516 23.6431C2.18359 23.8504 2.10107 24.0705 2.0376 24.3032C1.97412 24.536 1.92757 24.7751 1.89795 25.0205C1.87256 25.2617 1.85986 25.4966 1.85986 25.7251V27.0264C1.85986 27.2549 1.87256 27.4919 1.89795 27.7373C1.92757 27.9785 1.97412 28.2155 2.0376 28.4482C2.10107 28.6852 2.18359 28.9074 2.28516 29.1147C2.38672 29.3221 2.51579 29.5041 2.67236 29.6606C2.82894 29.8215 3.01302 29.9484 3.22461 30.0415C3.4362 30.1304 3.68376 30.1748 3.96729 30.1748C4.2762 30.1748 4.54281 30.1261 4.76709 30.0288C4.99561 29.9315 5.18815 29.7939 5.34473 29.6162C5.5013 29.4427 5.62614 29.2375 5.71924 29.0005C5.81234 28.7593 5.87793 28.499 5.91602 28.2197H7.09033ZM11.9463 31.127C11.4639 31.127 11.0195 31.0444 10.6133 30.8794C10.2113 30.7144 9.86637 30.4837 9.57861 30.1875C9.29085 29.8913 9.06657 29.54 8.90576 29.1338C8.74495 28.7275 8.66455 28.2853 8.66455 27.8071V27.5405C8.66455 26.9862 8.75342 26.491 8.93115 26.0552C9.10889 25.6151 9.34587 25.2427 9.64209 24.938C9.93408 24.6375 10.2663 24.4069 10.6387 24.2461C11.0153 24.0853 11.4004 24.0049 11.7939 24.0049C12.2891 24.0049 12.7207 24.0916 13.0889 24.2651C13.4613 24.4344 13.7702 24.6693 14.0156 24.9697C14.2611 25.2744 14.443 25.632 14.5615 26.0425C14.6842 26.453 14.7456 26.8973 14.7456 27.3755V27.9023H9.83887V27.9468C9.86849 28.2811 9.93408 28.5752 10.0356 28.8291C10.1414 29.083 10.2853 29.3073 10.4673 29.502C10.6535 29.7093 10.8778 29.8722 11.1401 29.9907C11.4025 30.1092 11.6924 30.1685 12.0098 30.1685C12.4287 30.1685 12.8011 30.0838 13.127 29.9146C13.4528 29.7453 13.7236 29.521 13.9395 29.2417L14.6567 29.8003C14.4282 30.1473 14.0854 30.4562 13.6284 30.7271C13.1756 30.9937 12.6149 31.127 11.9463 31.127ZM11.7939 24.9697C11.557 24.9697 11.3327 25.0142 11.1211 25.103C10.9095 25.1877 10.7191 25.3125 10.5498 25.4775C10.3805 25.6468 10.2367 25.8542 10.1182 26.0996C10.0039 26.3408 9.9235 26.6201 9.87695 26.9375H13.5713V26.8804C13.5713 26.6688 13.5311 26.4424 13.4507 26.2012C13.3703 25.9557 13.2581 25.7441 13.1143 25.5664C12.9704 25.3887 12.7884 25.2448 12.5684 25.1348C12.3525 25.0247 12.0944 24.9697 11.7939 24.9697ZM16.7197 31V24.1318H17.7734L17.856 25.1475C17.9575 25.0036 18.0675 24.8724 18.186 24.7539C18.3088 24.6312 18.4378 24.5254 18.5732 24.4365C18.7764 24.3011 18.9964 24.1974 19.2334 24.1255C19.4746 24.0493 19.7285 24.0091 19.9951 24.0049C20.3548 24.0049 20.6807 24.0557 20.9727 24.1572C21.2689 24.2588 21.5207 24.4175 21.728 24.6333C21.9354 24.8491 22.0941 25.1242 22.2041 25.4585C22.3184 25.7886 22.3755 26.1821 22.3755 26.6392V31H21.2012V26.6646C21.2012 26.3599 21.1673 26.1017 21.0996 25.8901C21.0319 25.6785 20.9325 25.5072 20.8013 25.376C20.6659 25.2448 20.5008 25.1496 20.3062 25.0903C20.1157 25.0311 19.8957 25.0015 19.646 25.0015C19.4302 25.0015 19.2292 25.0332 19.043 25.0967C18.8568 25.1559 18.6854 25.2384 18.5288 25.3442C18.4019 25.4373 18.2834 25.5452 18.1733 25.668C18.0675 25.7907 17.9744 25.9261 17.894 26.0742V31H16.7197ZM27.3076 22.4688V24.1318H29.9229V25.0396H27.3076V28.772C27.3076 29.0386 27.3415 29.2586 27.4092 29.4321C27.4769 29.6056 27.57 29.7432 27.6885 29.8447C27.807 29.9505 27.9424 30.0246 28.0947 30.0669C28.2513 30.1092 28.4163 30.1304 28.5898 30.1304C28.7168 30.1304 28.848 30.124 28.9834 30.1113C29.1188 30.0944 29.2521 30.0754 29.3833 30.0542C29.5103 30.033 29.6287 30.0119 29.7388 29.9907C29.853 29.9653 29.9461 29.9442 30.0181 29.9272L30.1831 30.7588C30.0858 30.818 29.9673 30.8709 29.8276 30.9175C29.688 30.9598 29.5356 30.9958 29.3706 31.0254C29.2056 31.0592 29.0299 31.0846 28.8438 31.1016C28.6618 31.1185 28.4798 31.127 28.2979 31.127C27.9932 31.127 27.7075 31.0846 27.4409 31C27.1785 30.9111 26.95 30.7715 26.7554 30.5811C26.5607 30.3949 26.4062 30.1536 26.292 29.8574C26.182 29.557 26.127 29.1951 26.127 28.772V25.0396H24.3242V24.1318H26.127V22.4688H27.3076ZM35.3691 31.127C34.8867 31.127 34.4424 31.0444 34.0361 30.8794C33.6341 30.7144 33.2892 30.4837 33.0015 30.1875C32.7137 29.8913 32.4894 29.54 32.3286 29.1338C32.1678 28.7275 32.0874 28.2853 32.0874 27.8071V27.5405C32.0874 26.9862 32.1763 26.491 32.354 26.0552C32.5317 25.6151 32.7687 25.2427 33.0649 24.938C33.3569 24.6375 33.6891 24.4069 34.0615 24.2461C34.4382 24.0853 34.8232 24.0049 35.2168 24.0049C35.7119 24.0049 36.1436 24.0916 36.5117 24.2651C36.8841 24.4344 37.193 24.6693 37.4385 24.9697C37.6839 25.2744 37.8659 25.632 37.9844 26.0425C38.1071 26.453 38.1685 26.8973 38.1685 27.3755V27.9023H33.2617V27.9468C33.2913 28.2811 33.3569 28.5752 33.4585 28.8291C33.5643 29.083 33.7082 29.3073 33.8901 29.502C34.0763 29.7093 34.3006 29.8722 34.563 29.9907C34.8254 30.1092 35.1152 30.1685 35.4326 30.1685C35.8516 30.1685 36.224 30.0838 36.5498 29.9146C36.8757 29.7453 37.1465 29.521 37.3623 29.2417L38.0796 29.8003C37.8511 30.1473 37.5083 30.4562 37.0513 30.7271C36.5985 30.9937 36.0378 31.127 35.3691 31.127ZM35.2168 24.9697C34.9798 24.9697 34.7555 25.0142 34.5439 25.103C34.3324 25.1877 34.1419 25.3125 33.9727 25.4775C33.8034 25.6468 33.6595 25.8542 33.541 26.0996C33.4268 26.3408 33.3464 26.6201 33.2998 26.9375H36.9941V26.8804C36.9941 26.6688 36.9539 26.4424 36.8735 26.2012C36.7931 25.9557 36.681 25.7441 36.5371 25.5664C36.3932 25.3887 36.2113 25.2448 35.9912 25.1348C35.7754 25.0247 35.5173 24.9697 35.2168 24.9697ZM44.6431 24.0049C44.8589 24.0049 45.0832 24.0197 45.3159 24.0493C45.5529 24.0789 45.7306 24.1191 45.8491 24.1699L45.6904 25.3188C45.4619 25.2681 45.244 25.2321 45.0366 25.2109C44.8335 25.1855 44.6198 25.1729 44.3955 25.1729C44.1077 25.1729 43.8475 25.2088 43.6147 25.2808C43.382 25.3485 43.1789 25.45 43.0054 25.5854C42.8488 25.7039 42.7113 25.8499 42.5928 26.0234C42.4785 26.1927 42.3833 26.3831 42.3071 26.5947V31H41.1265V24.1318H42.2437L42.2944 25.0522L42.3008 25.2236C42.5801 24.847 42.9144 24.5508 43.3037 24.335C43.6973 24.1149 44.1437 24.0049 44.6431 24.0049Z" fill="#696C80"/>
</svg>
