<svg width="160" height="98" viewBox="0 0 160 98" fill="none" xmlns="http://www.w3.org/2000/svg">
<rect x="0.5" y="34.5" width="159" height="63" rx="4.5" stroke="#9747FF" stroke-dasharray="10 5"/>
<path fill-rule="evenodd" clip-rule="evenodd" d="M125 60C123.895 60 123 60.8954 123 62C123 63.1046 123.895 64 125 64H135C136.105 64 137 63.1046 137 62C137 60.8954 136.105 60 135 60H125ZM125 68C123.895 68 123 68.8954 123 70C123 71.1046 123.895 72 125 72H131C132.105 72 133 71.1046 133 70C133 68.8954 132.105 68 131 68H125Z" fill="#12131A"/>
<path fill-rule="evenodd" clip-rule="evenodd" d="M120 57C120.552 57 121 57.4477 121 58V74C121 74.5523 120.552 75 120 75C119.448 75 119 74.5523 119 74V58C119 57.4477 119.448 57 120 57Z" fill="#BABDCC"/>
<path fill-rule="evenodd" clip-rule="evenodd" d="M77 60C75.8954 60 75 60.8954 75 62C75 63.1046 75.8954 64 77 64H87C88.1046 64 89 63.1046 89 62C89 60.8954 88.1046 60 87 60H77ZM77 68C75.8954 68 75 68.8954 75 70C75 71.1046 75.8954 72 77 72H83C84.1046 72 85 71.1046 85 70C85 68.8954 84.1046 68 83 68H77Z" fill="#12131A"/>
<path fill-rule="evenodd" clip-rule="evenodd" d="M72 57C72.5523 57 73 57.4477 73 58V74C73 74.5523 72.5523 75 72 75C71.4477 75 71 74.5523 71 74V58C71 57.4477 71.4477 57 72 57Z" fill="#12131A"/>
<path fill-rule="evenodd" clip-rule="evenodd" d="M30 59C28.3431 59 27 60.3431 27 62C27 63.6569 28.3431 65 30 65H38C39.6569 65 41 63.6569 41 62C41 60.3431 39.6569 59 38 59H30ZM29 62C29 61.4477 29.4477 61 30 61H38C38.5523 61 39 61.4477 39 62C39 62.5523 38.5523 63 38 63H30C29.4477 63 29 62.5523 29 62ZM30 67C28.3431 67 27 68.3431 27 70C27 71.6569 28.3431 73 30 73H34C35.6569 73 37 71.6569 37 70C37 68.3431 35.6569 67 34 67H30ZM29 70C29 69.4477 29.4477 69 30 69H34C34.5523 69 35 69.4477 35 70C35 70.5523 34.5523 71 34 71H30C29.4477 71 29 70.5523 29 70Z" fill="#12131A"/>
<path fill-rule="evenodd" clip-rule="evenodd" d="M24 57C24.5523 57 25 57.4477 25 58V74C25 74.5523 24.5523 75 24 75C23.4477 75 23 74.5523 23 74V58C23 57.4477 23.4477 57 24 57Z" fill="#12131A"/>
<path d="M5.51611 11.6069H2.43115L1.68848 14H0.51416L3.49756 4.75781H4.48145L7.41406 14H6.24609L5.51611 11.6069ZM2.74854 10.585H5.20508L3.98633 6.57324L2.74854 10.585ZM9.09619 4.25H12.6064V12.9844H14.8472V14H9.09619V12.9844H11.4321V5.27197H9.09619V4.25ZM16.9038 7.13184H20.4141V12.9844H22.6548V14H16.9038V12.9844H19.2397V8.15381H16.9038V7.13184ZM19.0874 5.3291C19.0874 5.22754 19.1022 5.13232 19.1318 5.04346C19.1657 4.95459 19.2165 4.87842 19.2842 4.81494C19.3392 4.75993 19.409 4.71761 19.4937 4.68799C19.5825 4.65413 19.682 4.63721 19.792 4.63721C19.902 4.63721 19.9993 4.65413 20.084 4.68799C20.1686 4.71761 20.2384 4.75993 20.2935 4.81494C20.3612 4.87419 20.4119 4.94824 20.4458 5.03711C20.4797 5.12598 20.4966 5.22331 20.4966 5.3291C20.4966 5.51953 20.4373 5.67822 20.3188 5.80518C20.2004 5.93213 20.0247 5.99561 19.792 5.99561C19.555 5.99561 19.3773 5.93213 19.2588 5.80518C19.1445 5.67822 19.0874 5.51953 19.0874 5.3291ZM24.3115 10.5088C24.3115 9.99674 24.3729 9.52702 24.4956 9.09961C24.6226 8.66797 24.8045 8.29769 25.0415 7.98877C25.2785 7.67985 25.5662 7.43864 25.9048 7.26514C26.2433 7.09163 26.6263 7.00488 27.0537 7.00488C27.3288 7.00488 27.5806 7.03662 27.8091 7.1001C28.0418 7.16357 28.2513 7.25667 28.4375 7.37939C28.5391 7.44287 28.6343 7.51693 28.7231 7.60156C28.8162 7.6862 28.903 7.7793 28.9834 7.88086L29.0405 7.13184H30.1069V13.854C30.1069 14.3068 30.035 14.7088 29.8911 15.0601C29.7515 15.4113 29.5547 15.7096 29.3008 15.9551C29.0426 16.2005 28.7358 16.3867 28.3804 16.5137C28.0249 16.6406 27.6313 16.7041 27.1997 16.7041C27.022 16.7041 26.8188 16.6829 26.5903 16.6406C26.3618 16.6025 26.1312 16.5369 25.8984 16.4438C25.6615 16.355 25.4329 16.2344 25.2129 16.082C24.9971 15.9297 24.8109 15.7414 24.6543 15.5171L25.2637 14.8125C25.4076 14.986 25.5557 15.132 25.708 15.2505C25.8604 15.3732 26.0148 15.4705 26.1714 15.5425C26.328 15.6144 26.4845 15.6652 26.6411 15.6948C26.7977 15.7287 26.9543 15.7456 27.1108 15.7456C27.3901 15.7456 27.6419 15.7054 27.8662 15.625C28.0905 15.5446 28.283 15.4261 28.4438 15.2695C28.6004 15.1172 28.721 14.9268 28.8057 14.6982C28.8903 14.4697 28.9326 14.2074 28.9326 13.9111V13.3208C28.8438 13.4224 28.7485 13.5155 28.647 13.6001C28.5496 13.6847 28.4438 13.7588 28.3296 13.8223C28.1519 13.9196 27.9551 13.9937 27.7393 14.0444C27.5234 14.0994 27.2907 14.127 27.041 14.127C26.6221 14.127 26.2433 14.0381 25.9048 13.8604C25.5662 13.6826 25.2806 13.4372 25.0479 13.124C24.8109 12.8109 24.6289 12.4427 24.502 12.0195C24.375 11.5921 24.3115 11.133 24.3115 10.6421V10.5088ZM25.4858 10.6421C25.4858 10.9764 25.5197 11.2938 25.5874 11.5942C25.6593 11.8947 25.7715 12.1592 25.9238 12.3877C26.0719 12.6162 26.2624 12.7982 26.4951 12.9336C26.7279 13.0648 27.0072 13.1304 27.333 13.1304C27.5361 13.1304 27.7181 13.1071 27.8789 13.0605C28.0439 13.0098 28.1921 12.9399 28.3232 12.8511C28.4502 12.7622 28.5645 12.6564 28.666 12.5337C28.7676 12.411 28.8564 12.2756 28.9326 12.1274V8.979C28.8564 8.83512 28.7676 8.70394 28.666 8.58545C28.5645 8.46696 28.4481 8.36328 28.3169 8.27441C28.1857 8.18978 28.0397 8.12419 27.8789 8.07764C27.7181 8.02686 27.5404 8.00146 27.3457 8.00146C27.0156 8.00146 26.7321 8.06917 26.4951 8.20459C26.2624 8.34001 26.0719 8.52197 25.9238 8.75049C25.7715 8.98324 25.6593 9.25195 25.5874 9.55664C25.5197 9.8571 25.4858 10.1745 25.4858 10.5088V10.6421ZM32.335 14V7.13184H33.3887L33.4712 8.14746C33.5728 8.00358 33.6828 7.8724 33.8013 7.75391C33.924 7.63118 34.0531 7.52539 34.1885 7.43652C34.3916 7.30111 34.6117 7.19743 34.8486 7.12549C35.0898 7.04932 35.3438 7.00911 35.6104 7.00488C35.9701 7.00488 36.2959 7.05566 36.5879 7.15723C36.8841 7.25879 37.1359 7.41748 37.3433 7.6333C37.5506 7.84912 37.7093 8.12419 37.8193 8.4585C37.9336 8.78857 37.9907 9.18213 37.9907 9.63916V14H36.8164V9.66455C36.8164 9.35986 36.7826 9.10173 36.7148 8.89014C36.6471 8.67855 36.5477 8.50716 36.4165 8.37598C36.2811 8.24479 36.116 8.14958 35.9214 8.09033C35.731 8.03109 35.5109 8.00146 35.2612 8.00146C35.0454 8.00146 34.8444 8.0332 34.6582 8.09668C34.472 8.15592 34.3006 8.23844 34.144 8.34424C34.0171 8.43734 33.8986 8.54525 33.7886 8.66797C33.6828 8.79069 33.5897 8.92611 33.5093 9.07422V14H32.335ZM53.7456 14H52.6348V9.72803H48.8452V14H47.7407V4.75781H48.8452V8.73145H52.6348V4.75781H53.7456V14ZM55.4277 10.5024C55.4277 10.0073 55.4997 9.54818 55.6436 9.125C55.7874 8.69759 55.9948 8.32731 56.2656 8.01416C56.5322 7.70101 56.8581 7.45557 57.2432 7.27783C57.6283 7.09587 58.062 7.00488 58.5444 7.00488C59.0311 7.00488 59.467 7.09587 59.8521 7.27783C60.2414 7.45557 60.5715 7.70101 60.8423 8.01416C61.1089 8.32731 61.3141 8.69759 61.458 9.125C61.6019 9.54818 61.6738 10.0073 61.6738 10.5024V10.6421C61.6738 11.1372 61.6019 11.5964 61.458 12.0195C61.3141 12.4427 61.1089 12.8109 60.8423 13.124C60.5715 13.4372 60.2435 13.6826 59.8584 13.8604C59.4733 14.0381 59.0396 14.127 58.5571 14.127C58.0705 14.127 57.6325 14.0381 57.2432 13.8604C56.8581 13.6826 56.5322 13.4372 56.2656 13.124C55.9948 12.8109 55.7874 12.4427 55.6436 12.0195C55.4997 11.5964 55.4277 11.1372 55.4277 10.6421V10.5024ZM56.6021 10.6421C56.6021 10.9806 56.6423 11.3044 56.7227 11.6133C56.8031 11.918 56.9258 12.1867 57.0908 12.4194C57.2516 12.6522 57.4548 12.8363 57.7002 12.9717C57.9456 13.1071 58.2313 13.1748 58.5571 13.1748C58.8787 13.1748 59.1602 13.1071 59.4014 12.9717C59.6468 12.8363 59.8521 12.6522 60.0171 12.4194C60.1779 12.1867 60.2985 11.918 60.3789 11.6133C60.4593 11.3044 60.4995 10.9806 60.4995 10.6421V10.5024C60.4995 10.1681 60.4572 9.84863 60.3726 9.54395C60.2922 9.23503 60.1715 8.96419 60.0107 8.73145C59.8457 8.4987 59.6405 8.31462 59.395 8.1792C59.1538 8.03955 58.8703 7.96973 58.5444 7.96973C58.2186 7.96973 57.9351 8.03955 57.6938 8.1792C57.4526 8.31462 57.2516 8.4987 57.0908 8.73145C56.9258 8.96419 56.8031 9.23503 56.7227 9.54395C56.6423 9.84863 56.6021 10.1681 56.6021 10.5024V10.6421ZM68.0659 7.00488C68.2817 7.00488 68.506 7.01969 68.7388 7.04932C68.9757 7.07894 69.1535 7.11914 69.272 7.16992L69.1133 8.31885C68.8848 8.26807 68.6668 8.2321 68.4595 8.21094C68.2563 8.18555 68.0426 8.17285 67.8184 8.17285C67.5306 8.17285 67.2703 8.20882 67.0376 8.28076C66.8049 8.34847 66.6017 8.45003 66.4282 8.58545C66.2716 8.70394 66.1341 8.84993 66.0156 9.02344C65.9014 9.19271 65.8062 9.38314 65.73 9.59473V14H64.5493V7.13184H65.6665L65.7173 8.05225L65.7236 8.22363C66.0029 7.84701 66.3372 7.55078 66.7266 7.33496C67.1201 7.11491 67.5666 7.00488 68.0659 7.00488ZM71.5571 7.13184H75.0674V12.9844H77.3081V14H71.5571V12.9844H73.8931V8.15381H71.5571V7.13184ZM73.7407 5.3291C73.7407 5.22754 73.7555 5.13232 73.7852 5.04346C73.819 4.95459 73.8698 4.87842 73.9375 4.81494C73.9925 4.75993 74.0623 4.71761 74.147 4.68799C74.2358 4.65413 74.3353 4.63721 74.4453 4.63721C74.5553 4.63721 74.6527 4.65413 74.7373 4.68799C74.8219 4.71761 74.8918 4.75993 74.9468 4.81494C75.0145 4.87419 75.0653 4.94824 75.0991 5.03711C75.133 5.12598 75.1499 5.22331 75.1499 5.3291C75.1499 5.51953 75.0907 5.67822 74.9722 5.80518C74.8537 5.93213 74.6781 5.99561 74.4453 5.99561C74.2083 5.99561 74.0306 5.93213 73.9121 5.80518C73.7979 5.67822 73.7407 5.51953 73.7407 5.3291ZM80.5898 13.0415H84.9634V14H79.0918V13.1367L83.1924 8.10303H79.1489V7.13184H84.7349V7.96338L80.5898 13.0415ZM86.6582 10.5024C86.6582 10.0073 86.7301 9.54818 86.874 9.125C87.0179 8.69759 87.2253 8.32731 87.4961 8.01416C87.7627 7.70101 88.0885 7.45557 88.4736 7.27783C88.8587 7.09587 89.2925 7.00488 89.7749 7.00488C90.2616 7.00488 90.6974 7.09587 91.0825 7.27783C91.4718 7.45557 91.8019 7.70101 92.0728 8.01416C92.3394 8.32731 92.5446 8.69759 92.6885 9.125C92.8324 9.54818 92.9043 10.0073 92.9043 10.5024V10.6421C92.9043 11.1372 92.8324 11.5964 92.6885 12.0195C92.5446 12.4427 92.3394 12.8109 92.0728 13.124C91.8019 13.4372 91.474 13.6826 91.0889 13.8604C90.7038 14.0381 90.27 14.127 89.7876 14.127C89.3009 14.127 88.863 14.0381 88.4736 13.8604C88.0885 13.6826 87.7627 13.4372 87.4961 13.124C87.2253 12.8109 87.0179 12.4427 86.874 12.0195C86.7301 11.5964 86.6582 11.1372 86.6582 10.6421V10.5024ZM87.8325 10.6421C87.8325 10.9806 87.8727 11.3044 87.9531 11.6133C88.0335 11.918 88.1562 12.1867 88.3213 12.4194C88.4821 12.6522 88.6852 12.8363 88.9307 12.9717C89.1761 13.1071 89.4618 13.1748 89.7876 13.1748C90.1092 13.1748 90.3906 13.1071 90.6318 12.9717C90.8773 12.8363 91.0825 12.6522 91.2476 12.4194C91.4084 12.1867 91.529 11.918 91.6094 11.6133C91.6898 11.3044 91.73 10.9806 91.73 10.6421V10.5024C91.73 10.1681 91.6877 9.84863 91.603 9.54395C91.5226 9.23503 91.402 8.96419 91.2412 8.73145C91.0762 8.4987 90.8709 8.31462 90.6255 8.1792C90.3843 8.03955 90.1007 7.96973 89.7749 7.96973C89.4491 7.96973 89.1655 8.03955 88.9243 8.1792C88.6831 8.31462 88.4821 8.4987 88.3213 8.73145C88.1562 8.96419 88.0335 9.23503 87.9531 9.54395C87.8727 9.84863 87.8325 10.1681 87.8325 10.5024V10.6421ZM94.7959 14V7.13184H95.8496L95.9321 8.14746C96.0337 8.00358 96.1437 7.8724 96.2622 7.75391C96.3849 7.63118 96.514 7.52539 96.6494 7.43652C96.8525 7.30111 97.0726 7.19743 97.3096 7.12549C97.5508 7.04932 97.8047 7.00911 98.0713 7.00488C98.431 7.00488 98.7568 7.05566 99.0488 7.15723C99.3451 7.25879 99.5968 7.41748 99.8042 7.6333C100.012 7.84912 100.17 8.12419 100.28 8.4585C100.395 8.78857 100.452 9.18213 100.452 9.63916V14H99.2773V9.66455C99.2773 9.35986 99.2435 9.10173 99.1758 8.89014C99.1081 8.67855 99.0086 8.50716 98.8774 8.37598C98.742 8.24479 98.577 8.14958 98.3823 8.09033C98.1919 8.03109 97.9718 8.00146 97.7222 8.00146C97.5063 8.00146 97.3053 8.0332 97.1191 8.09668C96.9329 8.15592 96.7616 8.23844 96.605 8.34424C96.478 8.43734 96.3595 8.54525 96.2495 8.66797C96.1437 8.79069 96.0506 8.92611 95.9702 9.07422V14H94.7959ZM105.384 5.46875V7.13184H107.999V8.03955H105.384V11.772C105.384 12.0386 105.418 12.2586 105.485 12.4321C105.553 12.6056 105.646 12.7432 105.765 12.8447C105.883 12.9505 106.019 13.0246 106.171 13.0669C106.327 13.1092 106.493 13.1304 106.666 13.1304C106.793 13.1304 106.924 13.124 107.06 13.1113C107.195 13.0944 107.328 13.0754 107.459 13.0542C107.586 13.033 107.705 13.0119 107.815 12.9907C107.929 12.9653 108.022 12.9442 108.094 12.9272L108.259 13.7588C108.162 13.818 108.043 13.8709 107.904 13.9175C107.764 13.9598 107.612 13.9958 107.447 14.0254C107.282 14.0592 107.106 14.0846 106.92 14.1016C106.738 14.1185 106.556 14.127 106.374 14.127C106.069 14.127 105.784 14.0846 105.517 14C105.255 13.9111 105.026 13.7715 104.832 13.5811C104.637 13.3949 104.482 13.1536 104.368 12.8574C104.258 12.557 104.203 12.1951 104.203 11.772V8.03955H102.4V7.13184H104.203V5.46875H105.384ZM114.924 14C114.878 13.9111 114.84 13.8011 114.81 13.6699C114.785 13.5345 114.766 13.3949 114.753 13.251C114.634 13.3695 114.501 13.4816 114.353 13.5874C114.209 13.6932 114.05 13.7863 113.877 13.8667C113.699 13.9471 113.511 14.0106 113.312 14.0571C113.113 14.1037 112.902 14.127 112.677 14.127C112.313 14.127 111.983 14.0741 111.687 13.9683C111.395 13.8625 111.147 13.7186 110.944 13.5366C110.737 13.3589 110.576 13.1473 110.462 12.9019C110.352 12.6522 110.297 12.3835 110.297 12.0957C110.297 11.7191 110.371 11.389 110.519 11.1055C110.671 10.8219 110.885 10.585 111.16 10.3945C111.435 10.2083 111.765 10.0687 112.15 9.97559C112.54 9.88249 112.973 9.83594 113.452 9.83594H114.734V9.29639C114.734 9.08903 114.696 8.90283 114.62 8.73779C114.543 8.57275 114.436 8.43099 114.296 8.3125C114.156 8.19824 113.985 8.10938 113.782 8.0459C113.583 7.98242 113.359 7.95068 113.109 7.95068C112.876 7.95068 112.667 7.98031 112.48 8.03955C112.299 8.0988 112.144 8.17708 112.017 8.27441C111.89 8.37174 111.791 8.48812 111.719 8.62354C111.651 8.75472 111.617 8.89225 111.617 9.03613H110.437C110.441 8.78646 110.504 8.54102 110.627 8.2998C110.754 8.05859 110.936 7.84066 111.173 7.646C111.406 7.45557 111.689 7.30111 112.023 7.18262C112.362 7.06413 112.745 7.00488 113.172 7.00488C113.562 7.00488 113.924 7.05355 114.258 7.15088C114.592 7.24398 114.882 7.38574 115.127 7.57617C115.369 7.77083 115.559 8.01204 115.699 8.2998C115.838 8.58757 115.908 8.92399 115.908 9.30908V12.502C115.908 12.7305 115.929 12.9738 115.972 13.2319C116.014 13.4858 116.073 13.708 116.149 13.8984V14H114.924ZM112.849 13.105C113.077 13.105 113.291 13.0754 113.49 13.0161C113.689 12.9569 113.871 12.8786 114.036 12.7812C114.196 12.6839 114.336 12.5739 114.455 12.4512C114.573 12.3242 114.666 12.193 114.734 12.0576V10.6675H113.642C113.236 10.6675 112.88 10.7035 112.576 10.7754C112.275 10.8431 112.036 10.9489 111.858 11.0928C111.731 11.1943 111.634 11.3149 111.566 11.4546C111.503 11.5942 111.471 11.7529 111.471 11.9307C111.471 12.0999 111.499 12.2565 111.554 12.4004C111.613 12.5443 111.7 12.667 111.814 12.7686C111.928 12.8743 112.072 12.9569 112.246 13.0161C112.419 13.0754 112.62 13.105 112.849 13.105ZM118.403 4.25H121.913V12.9844H124.154V14H118.403V12.9844H120.739V5.27197H118.403V4.25ZM2.43115 30.0034H6.95068V31H1.25684V21.7578H2.43115V30.0034ZM11.9463 31.127C11.4639 31.127 11.0195 31.0444 10.6133 30.8794C10.2113 30.7144 9.86637 30.4837 9.57861 30.1875C9.29085 29.8913 9.06657 29.54 8.90576 29.1338C8.74495 28.7275 8.66455 28.2853 8.66455 27.8071V27.5405C8.66455 26.9862 8.75342 26.491 8.93115 26.0552C9.10889 25.6151 9.34587 25.2427 9.64209 24.938C9.93408 24.6375 10.2663 24.4069 10.6387 24.2461C11.0153 24.0853 11.4004 24.0049 11.7939 24.0049C12.2891 24.0049 12.7207 24.0916 13.0889 24.2651C13.4613 24.4344 13.7702 24.6693 14.0156 24.9697C14.2611 25.2744 14.443 25.632 14.5615 26.0425C14.6842 26.453 14.7456 26.8973 14.7456 27.3755V27.9023H9.83887V27.9468C9.86849 28.2811 9.93408 28.5752 10.0356 28.8291C10.1414 29.083 10.2853 29.3073 10.4673 29.502C10.6535 29.7093 10.8778 29.8722 11.1401 29.9907C11.4025 30.1092 11.6924 30.1685 12.0098 30.1685C12.4287 30.1685 12.8011 30.0838 13.127 29.9146C13.4528 29.7453 13.7236 29.521 13.9395 29.2417L14.6567 29.8003C14.4282 30.1473 14.0854 30.4562 13.6284 30.7271C13.1756 30.9937 12.6149 31.127 11.9463 31.127ZM11.7939 24.9697C11.557 24.9697 11.3327 25.0142 11.1211 25.103C10.9095 25.1877 10.7191 25.3125 10.5498 25.4775C10.3805 25.6468 10.2367 25.8542 10.1182 26.0996C10.0039 26.3408 9.9235 26.6201 9.87695 26.9375H13.5713V26.8804C13.5713 26.6688 13.5311 26.4424 13.4507 26.2012C13.3703 25.9557 13.2581 25.7441 13.1143 25.5664C12.9704 25.3887 12.7884 25.2448 12.5684 25.1348C12.3525 25.0247 12.0944 24.9697 11.7939 24.9697ZM18.4717 31V25.0396H16.5801V24.1318H18.4717V23.6494C18.4717 23.2093 18.5352 22.8242 18.6621 22.4941C18.7933 22.1598 18.9774 21.8805 19.2144 21.6562C19.4471 21.432 19.7285 21.2627 20.0586 21.1484C20.3887 21.0342 20.7568 20.9771 21.1631 20.9771C21.3324 20.9771 21.4995 20.9876 21.6646 21.0088C21.8296 21.0257 21.9925 21.049 22.1533 21.0786C22.2591 21.0998 22.3649 21.123 22.4707 21.1484C22.5765 21.1696 22.6844 21.195 22.7944 21.2246L22.6548 22.1958C22.4813 22.1366 22.2782 22.0858 22.0454 22.0435C21.8169 21.9969 21.5715 21.9736 21.3091 21.9736C21.0425 21.9736 20.8055 22.0075 20.5981 22.0752C20.395 22.1387 20.2257 22.236 20.0903 22.3672C19.9465 22.5026 19.8364 22.6782 19.7603 22.894C19.6883 23.1099 19.6523 23.3617 19.6523 23.6494V24.1318H22.2993V25.0396H19.6523V31H18.4717ZM27.3076 22.4688V24.1318H29.9229V25.0396H27.3076V28.772C27.3076 29.0386 27.3415 29.2586 27.4092 29.4321C27.4769 29.6056 27.57 29.7432 27.6885 29.8447C27.807 29.9505 27.9424 30.0246 28.0947 30.0669C28.2513 30.1092 28.4163 30.1304 28.5898 30.1304C28.7168 30.1304 28.848 30.124 28.9834 30.1113C29.1188 30.0944 29.2521 30.0754 29.3833 30.0542C29.5103 30.033 29.6287 30.0119 29.7388 29.9907C29.853 29.9653 29.9461 29.9442 30.0181 29.9272L30.1831 30.7588C30.0858 30.818 29.9673 30.8709 29.8276 30.9175C29.688 30.9598 29.5356 30.9958 29.3706 31.0254C29.2056 31.0592 29.0299 31.0846 28.8438 31.1016C28.6618 31.1185 28.4798 31.127 28.2979 31.127C27.9932 31.127 27.7075 31.0846 27.4409 31C27.1785 30.9111 26.95 30.7715 26.7554 30.5811C26.5607 30.3949 26.4062 30.1536 26.292 29.8574C26.182 29.557 26.127 29.1951 26.127 28.772V25.0396H24.3242V24.1318H26.127V22.4688H27.3076Z" fill="#696C80"/>
</svg>
