<svg width="160" height="98" viewBox="0 0 160 98" fill="none" xmlns="http://www.w3.org/2000/svg">
<path d="M5.51611 11.6069H2.43115L1.68848 14H0.51416L3.49756 4.75781H4.48145L7.41406 14H6.24609L5.51611 11.6069ZM2.74854 10.585H5.20508L3.98633 6.57324L2.74854 10.585ZM13.4126 7.00488C13.6284 7.00488 13.8527 7.01969 14.0854 7.04932C14.3224 7.07894 14.5002 7.11914 14.6187 7.16992L14.46 8.31885C14.2314 8.26807 14.0135 8.2321 13.8062 8.21094C13.603 8.18555 13.3893 8.17285 13.165 8.17285C12.8773 8.17285 12.617 8.20882 12.3843 8.28076C12.1515 8.34847 11.9484 8.45003 11.7749 8.58545C11.6183 8.70394 11.4808 8.84993 11.3623 9.02344C11.248 9.19271 11.1528 9.38314 11.0767 9.59473V14H9.896V7.13184H11.0132L11.064 8.05225L11.0703 8.22363C11.3496 7.84701 11.6839 7.55078 12.0732 7.33496C12.4668 7.11491 12.9132 7.00488 13.4126 7.00488ZM21.2202 7.00488C21.436 7.00488 21.6603 7.01969 21.8931 7.04932C22.13 7.07894 22.3078 7.11914 22.4263 7.16992L22.2676 8.31885C22.0391 8.26807 21.8211 8.2321 21.6138 8.21094C21.4106 8.18555 21.1969 8.17285 20.9727 8.17285C20.6849 8.17285 20.4246 8.20882 20.1919 8.28076C19.9591 8.34847 19.756 8.45003 19.5825 8.58545C19.4259 8.70394 19.2884 8.84993 19.1699 9.02344C19.0557 9.19271 18.9604 9.38314 18.8843 9.59473V14H17.7036V7.13184H18.8208L18.8716 8.05225L18.8779 8.22363C19.1572 7.84701 19.4915 7.55078 19.8809 7.33496C20.2744 7.11491 20.7209 7.00488 21.2202 7.00488ZM24.1973 10.5024C24.1973 10.0073 24.2692 9.54818 24.4131 9.125C24.557 8.69759 24.7643 8.32731 25.0352 8.01416C25.3018 7.70101 25.6276 7.45557 26.0127 7.27783C26.3978 7.09587 26.8315 7.00488 27.314 7.00488C27.8006 7.00488 28.2365 7.09587 28.6216 7.27783C29.0109 7.45557 29.341 7.70101 29.6118 8.01416C29.8784 8.32731 30.0837 8.69759 30.2275 9.125C30.3714 9.54818 30.4434 10.0073 30.4434 10.5024V10.6421C30.4434 11.1372 30.3714 11.5964 30.2275 12.0195C30.0837 12.4427 29.8784 12.8109 29.6118 13.124C29.341 13.4372 29.013 13.6826 28.6279 13.8604C28.2428 14.0381 27.8091 14.127 27.3267 14.127C26.84 14.127 26.402 14.0381 26.0127 13.8604C25.6276 13.6826 25.3018 13.4372 25.0352 13.124C24.7643 12.8109 24.557 12.4427 24.4131 12.0195C24.2692 11.5964 24.1973 11.1372 24.1973 10.6421V10.5024ZM25.3716 10.6421C25.3716 10.9806 25.4118 11.3044 25.4922 11.6133C25.5726 11.918 25.6953 12.1867 25.8604 12.4194C26.0212 12.6522 26.2243 12.8363 26.4697 12.9717C26.7152 13.1071 27.0008 13.1748 27.3267 13.1748C27.6483 13.1748 27.9297 13.1071 28.1709 12.9717C28.4163 12.8363 28.6216 12.6522 28.7866 12.4194C28.9474 12.1867 29.068 11.918 29.1484 11.6133C29.2288 11.3044 29.269 10.9806 29.269 10.6421V10.5024C29.269 10.1681 29.2267 9.84863 29.1421 9.54395C29.0617 9.23503 28.9411 8.96419 28.7803 8.73145C28.6152 8.4987 28.41 8.31462 28.1646 8.1792C27.9233 8.03955 27.6398 7.96973 27.314 7.96973C26.9881 7.96973 26.7046 8.03955 26.4634 8.1792C26.2222 8.31462 26.0212 8.4987 25.8604 8.73145C25.6953 8.96419 25.5726 9.23503 25.4922 9.54395C25.4118 9.84863 25.3716 10.1681 25.3716 10.5024V10.6421ZM32.9951 14L31.5352 7.13184H32.5762L33.376 11.5117L33.5156 12.4956L33.687 11.5117L34.7852 7.13184H35.5405L36.6323 11.5117L36.8164 12.5908L36.9878 11.5117L37.7495 7.13184H38.7905L37.3306 14H36.4038L35.3311 9.7915L35.1533 8.7251L34.9819 9.7915L33.9219 14H32.9951ZM47.9375 14V4.75781H50.686C51.0669 4.76204 51.4393 4.81283 51.8032 4.91016C52.1672 5.00326 52.4909 5.14925 52.7744 5.34814C53.0579 5.54704 53.2843 5.80094 53.4536 6.10986C53.6229 6.41878 53.7054 6.78906 53.7012 7.2207C53.6969 7.46191 53.6567 7.68197 53.5806 7.88086C53.5086 8.07975 53.4092 8.25749 53.2822 8.41406C53.151 8.57487 53.005 8.71029 52.8442 8.82031C52.6877 8.93034 52.4972 9.03402 52.2729 9.13135V9.15039C52.5057 9.2054 52.73 9.30485 52.9458 9.44873C53.1616 9.59261 53.3394 9.7513 53.479 9.9248C53.6271 10.1152 53.7414 10.3289 53.8218 10.5659C53.9064 10.8029 53.9487 11.0589 53.9487 11.334C53.953 11.7656 53.8704 12.1465 53.7012 12.4766C53.5319 12.8066 53.3055 13.0817 53.022 13.3018C52.7384 13.526 52.4105 13.6974 52.0381 13.8159C51.6699 13.9344 51.2891 13.9958 50.8955 14H47.9375ZM49.1182 9.67725V13.0034H50.9272C51.1727 12.9992 51.4054 12.959 51.6255 12.8828C51.8455 12.8024 52.0402 12.6924 52.2095 12.5527C52.3787 12.4131 52.512 12.2417 52.6094 12.0386C52.7109 11.8354 52.7617 11.6048 52.7617 11.3467C52.766 11.0843 52.7215 10.8516 52.6284 10.6484C52.5396 10.4453 52.4147 10.2718 52.2539 10.1279C52.0931 9.98828 51.9048 9.88037 51.689 9.8042C51.4731 9.72803 51.2404 9.68571 50.9907 9.67725H49.1182ZM49.1182 8.69971H50.7559C50.9759 8.69548 51.1917 8.66162 51.4033 8.59814C51.6149 8.53044 51.8032 8.43311 51.9683 8.30615C52.1333 8.18343 52.2666 8.03109 52.3682 7.84912C52.4697 7.66715 52.5205 7.45557 52.5205 7.21436C52.5205 6.95622 52.4697 6.73617 52.3682 6.5542C52.2708 6.37223 52.1396 6.22201 51.9746 6.10352C51.8053 5.98926 51.6107 5.90462 51.3906 5.84961C51.1748 5.7946 50.9526 5.76497 50.7241 5.76074H49.1182V8.69971ZM55.9419 7.13184H59.4521V12.9844H61.6929V14H55.9419V12.9844H58.2778V8.15381H55.9419V7.13184ZM58.1255 5.3291C58.1255 5.22754 58.1403 5.13232 58.1699 5.04346C58.2038 4.95459 58.2546 4.87842 58.3223 4.81494C58.3773 4.75993 58.4471 4.71761 58.5317 4.68799C58.6206 4.65413 58.7201 4.63721 58.8301 4.63721C58.9401 4.63721 59.0374 4.65413 59.1221 4.68799C59.2067 4.71761 59.2765 4.75993 59.3315 4.81494C59.3993 4.87419 59.45 4.94824 59.4839 5.03711C59.5177 5.12598 59.5347 5.22331 59.5347 5.3291C59.5347 5.51953 59.4754 5.67822 59.3569 5.80518C59.2384 5.93213 59.0628 5.99561 58.8301 5.99561C58.5931 5.99561 58.4154 5.93213 58.2969 5.80518C58.1826 5.67822 58.1255 5.51953 58.1255 5.3291ZM63.3496 10.5088C63.3496 9.99674 63.411 9.52702 63.5337 9.09961C63.6606 8.66797 63.8426 8.29769 64.0796 7.98877C64.3166 7.67985 64.6043 7.43864 64.9429 7.26514C65.2814 7.09163 65.6644 7.00488 66.0918 7.00488C66.3669 7.00488 66.6187 7.03662 66.8472 7.1001C67.0799 7.16357 67.2894 7.25667 67.4756 7.37939C67.5771 7.44287 67.6724 7.51693 67.7612 7.60156C67.8543 7.6862 67.9411 7.7793 68.0215 7.88086L68.0786 7.13184H69.145V13.854C69.145 14.3068 69.0731 14.7088 68.9292 15.0601C68.7896 15.4113 68.5928 15.7096 68.3389 15.9551C68.0807 16.2005 67.7739 16.3867 67.4185 16.5137C67.063 16.6406 66.6694 16.7041 66.2378 16.7041C66.0601 16.7041 65.8569 16.6829 65.6284 16.6406C65.3999 16.6025 65.1693 16.5369 64.9365 16.4438C64.6995 16.355 64.471 16.2344 64.251 16.082C64.0352 15.9297 63.849 15.7414 63.6924 15.5171L64.3018 14.8125C64.4456 14.986 64.5938 15.132 64.7461 15.2505C64.8984 15.3732 65.0529 15.4705 65.2095 15.5425C65.366 15.6144 65.5226 15.6652 65.6792 15.6948C65.8358 15.7287 65.9924 15.7456 66.1489 15.7456C66.4282 15.7456 66.68 15.7054 66.9043 15.625C67.1286 15.5446 67.3211 15.4261 67.4819 15.2695C67.6385 15.1172 67.7591 14.9268 67.8438 14.6982C67.9284 14.4697 67.9707 14.2074 67.9707 13.9111V13.3208C67.8818 13.4224 67.7866 13.5155 67.6851 13.6001C67.5877 13.6847 67.4819 13.7588 67.3677 13.8223C67.1899 13.9196 66.9932 13.9937 66.7773 14.0444C66.5615 14.0994 66.3288 14.127 66.0791 14.127C65.6602 14.127 65.2814 14.0381 64.9429 13.8604C64.6043 13.6826 64.3187 13.4372 64.0859 13.124C63.849 12.8109 63.667 12.4427 63.54 12.0195C63.4131 11.5921 63.3496 11.133 63.3496 10.6421V10.5088ZM64.5239 10.6421C64.5239 10.9764 64.5578 11.2938 64.6255 11.5942C64.6974 11.8947 64.8096 12.1592 64.9619 12.3877C65.11 12.6162 65.3005 12.7982 65.5332 12.9336C65.766 13.0648 66.0452 13.1304 66.3711 13.1304C66.5742 13.1304 66.7562 13.1071 66.917 13.0605C67.082 13.0098 67.2301 12.9399 67.3613 12.8511C67.4883 12.7622 67.6025 12.6564 67.7041 12.5337C67.8057 12.411 67.8945 12.2756 67.9707 12.1274V8.979C67.8945 8.83512 67.8057 8.70394 67.7041 8.58545C67.6025 8.46696 67.4862 8.36328 67.355 8.27441C67.2238 8.18978 67.0778 8.12419 66.917 8.07764C66.7562 8.02686 66.5785 8.00146 66.3838 8.00146C66.0537 8.00146 65.7702 8.06917 65.5332 8.20459C65.3005 8.34001 65.11 8.52197 64.9619 8.75049C64.8096 8.98324 64.6974 9.25195 64.6255 9.55664C64.5578 9.8571 64.5239 10.1745 64.5239 10.5088V10.6421ZM82.2402 10.2295H80.3931V14H79.2251V4.75781H81.9355C82.3672 4.76628 82.7734 4.82764 83.1543 4.94189C83.5352 5.05615 83.8695 5.22754 84.1572 5.45605C84.4408 5.68457 84.6629 5.97233 84.8237 6.31934C84.9888 6.66211 85.0713 7.06624 85.0713 7.53174C85.0713 7.83219 85.0269 8.10726 84.938 8.35693C84.8534 8.60661 84.7349 8.83301 84.5825 9.03613C84.4302 9.23926 84.2482 9.41911 84.0366 9.57568C83.825 9.73226 83.5923 9.86556 83.3384 9.97559L85.2998 13.9238L85.2935 14H84.0557L82.2402 10.2295ZM80.3931 9.26465H81.9673C82.2297 9.26042 82.4772 9.22021 82.71 9.14404C82.9427 9.06364 83.1479 8.94938 83.3257 8.80127C83.4992 8.65316 83.6367 8.47331 83.7383 8.26172C83.8398 8.0459 83.8906 7.79834 83.8906 7.51904C83.8906 7.22282 83.842 6.96468 83.7446 6.74463C83.6473 6.52035 83.5119 6.33203 83.3384 6.17969C83.1649 6.03158 82.9575 5.91943 82.7163 5.84326C82.4793 5.76709 82.2191 5.72689 81.9355 5.72266H80.3931V9.26465ZM87.1724 7.13184H90.6826V12.9844H92.9233V14H87.1724V12.9844H89.5083V8.15381H87.1724V7.13184ZM89.356 5.3291C89.356 5.22754 89.3708 5.13232 89.4004 5.04346C89.4342 4.95459 89.485 4.87842 89.5527 4.81494C89.6077 4.75993 89.6776 4.71761 89.7622 4.68799C89.8511 4.65413 89.9505 4.63721 90.0605 4.63721C90.1706 4.63721 90.2679 4.65413 90.3525 4.68799C90.4372 4.71761 90.507 4.75993 90.562 4.81494C90.6297 4.87419 90.6805 4.94824 90.7144 5.03711C90.7482 5.12598 90.7651 5.22331 90.7651 5.3291C90.7651 5.51953 90.7059 5.67822 90.5874 5.80518C90.4689 5.93213 90.2933 5.99561 90.0605 5.99561C89.8236 5.99561 89.6458 5.93213 89.5273 5.80518C89.4131 5.67822 89.356 5.51953 89.356 5.3291ZM94.5801 10.5088C94.5801 9.99674 94.6414 9.52702 94.7642 9.09961C94.8911 8.66797 95.0731 8.29769 95.3101 7.98877C95.547 7.67985 95.8348 7.43864 96.1733 7.26514C96.5119 7.09163 96.8949 7.00488 97.3223 7.00488C97.5973 7.00488 97.8491 7.03662 98.0776 7.1001C98.3104 7.16357 98.5199 7.25667 98.7061 7.37939C98.8076 7.44287 98.9028 7.51693 98.9917 7.60156C99.0848 7.6862 99.1715 7.7793 99.252 7.88086L99.3091 7.13184H100.375V13.854C100.375 14.3068 100.304 14.7088 100.16 15.0601C100.02 15.4113 99.8232 15.7096 99.5693 15.9551C99.3112 16.2005 99.0044 16.3867 98.6489 16.5137C98.2935 16.6406 97.8999 16.7041 97.4683 16.7041C97.2905 16.7041 97.0874 16.6829 96.8589 16.6406C96.6304 16.6025 96.3997 16.5369 96.167 16.4438C95.93 16.355 95.7015 16.2344 95.4814 16.082C95.2656 15.9297 95.0794 15.7414 94.9229 15.5171L95.5322 14.8125C95.6761 14.986 95.8242 15.132 95.9766 15.2505C96.1289 15.3732 96.2834 15.4705 96.4399 15.5425C96.5965 15.6144 96.7531 15.6652 96.9097 15.6948C97.0662 15.7287 97.2228 15.7456 97.3794 15.7456C97.6587 15.7456 97.9105 15.7054 98.1348 15.625C98.359 15.5446 98.5516 15.4261 98.7124 15.2695C98.869 15.1172 98.9896 14.9268 99.0742 14.6982C99.1589 14.4697 99.2012 14.2074 99.2012 13.9111V13.3208C99.1123 13.4224 99.0171 13.5155 98.9155 13.6001C98.8182 13.6847 98.7124 13.7588 98.5981 13.8223C98.4204 13.9196 98.2236 13.9937 98.0078 14.0444C97.792 14.0994 97.5592 14.127 97.3096 14.127C96.8906 14.127 96.5119 14.0381 96.1733 13.8604C95.8348 13.6826 95.5492 13.4372 95.3164 13.124C95.0794 12.8109 94.8975 12.4427 94.7705 12.0195C94.6436 11.5921 94.5801 11.133 94.5801 10.6421V10.5088ZM95.7544 10.6421C95.7544 10.9764 95.7882 11.2938 95.856 11.5942C95.9279 11.8947 96.04 12.1592 96.1924 12.3877C96.3405 12.6162 96.5309 12.7982 96.7637 12.9336C96.9964 13.0648 97.2757 13.1304 97.6016 13.1304C97.8047 13.1304 97.9867 13.1071 98.1475 13.0605C98.3125 13.0098 98.4606 12.9399 98.5918 12.8511C98.7188 12.7622 98.833 12.6564 98.9346 12.5337C99.0361 12.411 99.125 12.2756 99.2012 12.1274V8.979C99.125 8.83512 99.0361 8.70394 98.9346 8.58545C98.833 8.46696 98.7166 8.36328 98.5854 8.27441C98.4543 8.18978 98.3083 8.12419 98.1475 8.07764C97.9867 8.02686 97.8089 8.00146 97.6143 8.00146C97.2842 8.00146 97.0007 8.06917 96.7637 8.20459C96.5309 8.34001 96.3405 8.52197 96.1924 8.75049C96.04 8.98324 95.9279 9.25195 95.856 9.55664C95.7882 9.8571 95.7544 10.1745 95.7544 10.5088V10.6421ZM103.778 8.15381C103.871 8.01416 103.975 7.88721 104.089 7.77295C104.203 7.65446 104.324 7.55078 104.451 7.46191C104.654 7.3138 104.876 7.20166 105.117 7.12549C105.363 7.04932 105.623 7.00911 105.898 7.00488C106.258 7.00488 106.583 7.05778 106.875 7.16357C107.172 7.26514 107.424 7.42594 107.631 7.646C107.838 7.86605 107.997 8.14535 108.107 8.48389C108.221 8.8182 108.278 9.21598 108.278 9.67725V14H107.104V9.66455C107.104 9.39372 107.072 9.15674 107.009 8.95361C106.945 8.74626 106.852 8.57487 106.729 8.43945C106.598 8.29134 106.433 8.18132 106.234 8.10938C106.035 8.0332 105.807 7.99723 105.549 8.00146C105.337 8.00146 105.136 8.03109 104.946 8.09033C104.755 8.14958 104.58 8.23421 104.419 8.34424C104.292 8.42887 104.174 8.52832 104.063 8.64258C103.958 8.7526 103.862 8.87533 103.778 9.01074V14H102.604V4.25H103.778V8.15381ZM113.191 5.46875V7.13184H115.807V8.03955H113.191V11.772C113.191 12.0386 113.225 12.2586 113.293 12.4321C113.361 12.6056 113.454 12.7432 113.572 12.8447C113.691 12.9505 113.826 13.0246 113.979 13.0669C114.135 13.1092 114.3 13.1304 114.474 13.1304C114.601 13.1304 114.732 13.124 114.867 13.1113C115.003 13.0944 115.136 13.0754 115.267 13.0542C115.394 13.033 115.513 13.0119 115.623 12.9907C115.737 12.9653 115.83 12.9442 115.902 12.9272L116.067 13.7588C115.97 13.818 115.851 13.8709 115.711 13.9175C115.572 13.9598 115.419 13.9958 115.254 14.0254C115.089 14.0592 114.914 14.0846 114.728 14.1016C114.546 14.1185 114.364 14.127 114.182 14.127C113.877 14.127 113.591 14.0846 113.325 14C113.062 13.9111 112.834 13.7715 112.639 13.5811C112.444 13.3949 112.29 13.1536 112.176 12.8574C112.066 12.557 112.011 12.1951 112.011 11.772V8.03955H110.208V7.13184H112.011V5.46875H113.191Z" fill="#696C80"/>
<rect x="0.5" y="34.5" width="159" height="63" rx="4.5" stroke="#9747FF" stroke-dasharray="10 5"/>
<path fill-rule="evenodd" clip-rule="evenodd" d="M138 66C138 66.5523 137.552 67 137 67L119 67C118.448 67 118 66.5523 118 66C118 65.4477 118.448 65 119 65L137 65C137.552 65 138 65.4477 138 66Z" fill="#BABDCC"/>
<path fill-rule="evenodd" clip-rule="evenodd" d="M137.707 65.2929C138.098 65.6834 138.098 66.3166 137.707 66.7071L130.707 73.7071C130.317 74.0976 129.683 74.0976 129.293 73.7071C128.902 73.3166 128.902 72.6834 129.293 72.2929L135.586 66L129.293 59.7071C128.902 59.3166 128.902 58.6834 129.293 58.2929C129.683 57.9024 130.317 57.9024 130.707 58.2929L137.707 65.2929Z" fill="#12131A"/>
<path fill-rule="evenodd" clip-rule="evenodd" d="M79 66C79 66.5523 78.5523 67 78 67L71 67C70.4477 67 70 66.5523 70 66C70 65.4477 70.4477 65 71 65L78 65C78.5523 65 79 65.4477 79 66Z" fill="#12131A"/>
<path d="M89.7071 66.7071C90.0976 66.3166 90.0976 65.6834 89.7071 65.2929L82.7071 58.2929C82.4211 58.0069 81.991 57.9214 81.6173 58.0761C81.2436 58.2309 81 58.5956 81 59V73C81 73.4045 81.2436 73.7691 81.6173 73.9239C81.991 74.0787 82.4211 73.9931 82.7071 73.7071L89.7071 66.7071Z" fill="#12131A"/>
<path fill-rule="evenodd" clip-rule="evenodd" d="M42 66C42 66.5523 41.5523 67 41 67L23 67C22.4477 67 22 66.5523 22 66C22 65.4477 22.4477 65 23 65L41 65C41.5523 65 42 65.4477 42 66Z" fill="#12131A"/>
<path fill-rule="evenodd" clip-rule="evenodd" d="M41.7071 65.2929C42.0976 65.6834 42.0976 66.3166 41.7071 66.7071L34.7071 73.7071C34.3166 74.0976 33.6834 74.0976 33.2929 73.7071C32.9024 73.3166 32.9024 72.6834 33.2929 72.2929L39.5858 66L33.2929 59.7071C32.9024 59.3166 32.9024 58.6834 33.2929 58.2929C33.6834 57.9024 34.3166 57.9024 34.7071 58.2929L41.7071 65.2929Z" fill="#12131A"/>
</svg>
