<svg width="160" height="98" viewBox="0 0 160 98" fill="none" xmlns="http://www.w3.org/2000/svg">
<path d="M5.51611 11.6069H2.43115L1.68848 14H0.51416L3.49756 4.75781H4.48145L7.41406 14H6.24609L5.51611 11.6069ZM2.74854 10.585H5.20508L3.98633 6.57324L2.74854 10.585ZM13.4126 7.00488C13.6284 7.00488 13.8527 7.01969 14.0854 7.04932C14.3224 7.07894 14.5002 7.11914 14.6187 7.16992L14.46 8.31885C14.2314 8.26807 14.0135 8.2321 13.8062 8.21094C13.603 8.18555 13.3893 8.17285 13.165 8.17285C12.8773 8.17285 12.617 8.20882 12.3843 8.28076C12.1515 8.34847 11.9484 8.45003 11.7749 8.58545C11.6183 8.70394 11.4808 8.84993 11.3623 9.02344C11.248 9.19271 11.1528 9.38314 11.0767 9.59473V14H9.896V7.13184H11.0132L11.064 8.05225L11.0703 8.22363C11.3496 7.84701 11.6839 7.55078 12.0732 7.33496C12.4668 7.11491 12.9132 7.00488 13.4126 7.00488ZM21.2202 7.00488C21.436 7.00488 21.6603 7.01969 21.8931 7.04932C22.13 7.07894 22.3078 7.11914 22.4263 7.16992L22.2676 8.31885C22.0391 8.26807 21.8211 8.2321 21.6138 8.21094C21.4106 8.18555 21.1969 8.17285 20.9727 8.17285C20.6849 8.17285 20.4246 8.20882 20.1919 8.28076C19.9591 8.34847 19.756 8.45003 19.5825 8.58545C19.4259 8.70394 19.2884 8.84993 19.1699 9.02344C19.0557 9.19271 18.9604 9.38314 18.8843 9.59473V14H17.7036V7.13184H18.8208L18.8716 8.05225L18.8779 8.22363C19.1572 7.84701 19.4915 7.55078 19.8809 7.33496C20.2744 7.11491 20.7209 7.00488 21.2202 7.00488ZM24.1973 10.5024C24.1973 10.0073 24.2692 9.54818 24.4131 9.125C24.557 8.69759 24.7643 8.32731 25.0352 8.01416C25.3018 7.70101 25.6276 7.45557 26.0127 7.27783C26.3978 7.09587 26.8315 7.00488 27.314 7.00488C27.8006 7.00488 28.2365 7.09587 28.6216 7.27783C29.0109 7.45557 29.341 7.70101 29.6118 8.01416C29.8784 8.32731 30.0837 8.69759 30.2275 9.125C30.3714 9.54818 30.4434 10.0073 30.4434 10.5024V10.6421C30.4434 11.1372 30.3714 11.5964 30.2275 12.0195C30.0837 12.4427 29.8784 12.8109 29.6118 13.124C29.341 13.4372 29.013 13.6826 28.6279 13.8604C28.2428 14.0381 27.8091 14.127 27.3267 14.127C26.84 14.127 26.402 14.0381 26.0127 13.8604C25.6276 13.6826 25.3018 13.4372 25.0352 13.124C24.7643 12.8109 24.557 12.4427 24.4131 12.0195C24.2692 11.5964 24.1973 11.1372 24.1973 10.6421V10.5024ZM25.3716 10.6421C25.3716 10.9806 25.4118 11.3044 25.4922 11.6133C25.5726 11.918 25.6953 12.1867 25.8604 12.4194C26.0212 12.6522 26.2243 12.8363 26.4697 12.9717C26.7152 13.1071 27.0008 13.1748 27.3267 13.1748C27.6483 13.1748 27.9297 13.1071 28.1709 12.9717C28.4163 12.8363 28.6216 12.6522 28.7866 12.4194C28.9474 12.1867 29.068 11.918 29.1484 11.6133C29.2288 11.3044 29.269 10.9806 29.269 10.6421V10.5024C29.269 10.1681 29.2267 9.84863 29.1421 9.54395C29.0617 9.23503 28.9411 8.96419 28.7803 8.73145C28.6152 8.4987 28.41 8.31462 28.1646 8.1792C27.9233 8.03955 27.6398 7.96973 27.314 7.96973C26.9881 7.96973 26.7046 8.03955 26.4634 8.1792C26.2222 8.31462 26.0212 8.4987 25.8604 8.73145C25.6953 8.96419 25.5726 9.23503 25.4922 9.54395C25.4118 9.84863 25.3716 10.1681 25.3716 10.5024V10.6421ZM32.9951 14L31.5352 7.13184H32.5762L33.376 11.5117L33.5156 12.4956L33.687 11.5117L34.7852 7.13184H35.5405L36.6323 11.5117L36.8164 12.5908L36.9878 11.5117L37.7495 7.13184H38.7905L37.3306 14H36.4038L35.3311 9.7915L35.1533 8.7251L34.9819 9.7915L33.9219 14H32.9951ZM47.9375 14V4.75781H50.686C51.0669 4.76204 51.4393 4.81283 51.8032 4.91016C52.1672 5.00326 52.4909 5.14925 52.7744 5.34814C53.0579 5.54704 53.2843 5.80094 53.4536 6.10986C53.6229 6.41878 53.7054 6.78906 53.7012 7.2207C53.6969 7.46191 53.6567 7.68197 53.5806 7.88086C53.5086 8.07975 53.4092 8.25749 53.2822 8.41406C53.151 8.57487 53.005 8.71029 52.8442 8.82031C52.6877 8.93034 52.4972 9.03402 52.2729 9.13135V9.15039C52.5057 9.2054 52.73 9.30485 52.9458 9.44873C53.1616 9.59261 53.3394 9.7513 53.479 9.9248C53.6271 10.1152 53.7414 10.3289 53.8218 10.5659C53.9064 10.8029 53.9487 11.0589 53.9487 11.334C53.953 11.7656 53.8704 12.1465 53.7012 12.4766C53.5319 12.8066 53.3055 13.0817 53.022 13.3018C52.7384 13.526 52.4105 13.6974 52.0381 13.8159C51.6699 13.9344 51.2891 13.9958 50.8955 14H47.9375ZM49.1182 9.67725V13.0034H50.9272C51.1727 12.9992 51.4054 12.959 51.6255 12.8828C51.8455 12.8024 52.0402 12.6924 52.2095 12.5527C52.3787 12.4131 52.512 12.2417 52.6094 12.0386C52.7109 11.8354 52.7617 11.6048 52.7617 11.3467C52.766 11.0843 52.7215 10.8516 52.6284 10.6484C52.5396 10.4453 52.4147 10.2718 52.2539 10.1279C52.0931 9.98828 51.9048 9.88037 51.689 9.8042C51.4731 9.72803 51.2404 9.68571 50.9907 9.67725H49.1182ZM49.1182 8.69971H50.7559C50.9759 8.69548 51.1917 8.66162 51.4033 8.59814C51.6149 8.53044 51.8032 8.43311 51.9683 8.30615C52.1333 8.18343 52.2666 8.03109 52.3682 7.84912C52.4697 7.66715 52.5205 7.45557 52.5205 7.21436C52.5205 6.95622 52.4697 6.73617 52.3682 6.5542C52.2708 6.37223 52.1396 6.22201 51.9746 6.10352C51.8053 5.98926 51.6107 5.90462 51.3906 5.84961C51.1748 5.7946 50.9526 5.76497 50.7241 5.76074H49.1182V8.69971ZM55.9419 7.13184H59.4521V12.9844H61.6929V14H55.9419V12.9844H58.2778V8.15381H55.9419V7.13184ZM58.1255 5.3291C58.1255 5.22754 58.1403 5.13232 58.1699 5.04346C58.2038 4.95459 58.2546 4.87842 58.3223 4.81494C58.3773 4.75993 58.4471 4.71761 58.5317 4.68799C58.6206 4.65413 58.7201 4.63721 58.8301 4.63721C58.9401 4.63721 59.0374 4.65413 59.1221 4.68799C59.2067 4.71761 59.2765 4.75993 59.3315 4.81494C59.3993 4.87419 59.45 4.94824 59.4839 5.03711C59.5177 5.12598 59.5347 5.22331 59.5347 5.3291C59.5347 5.51953 59.4754 5.67822 59.3569 5.80518C59.2384 5.93213 59.0628 5.99561 58.8301 5.99561C58.5931 5.99561 58.4154 5.93213 58.2969 5.80518C58.1826 5.67822 58.1255 5.51953 58.1255 5.3291ZM63.3496 10.5088C63.3496 9.99674 63.411 9.52702 63.5337 9.09961C63.6606 8.66797 63.8426 8.29769 64.0796 7.98877C64.3166 7.67985 64.6043 7.43864 64.9429 7.26514C65.2814 7.09163 65.6644 7.00488 66.0918 7.00488C66.3669 7.00488 66.6187 7.03662 66.8472 7.1001C67.0799 7.16357 67.2894 7.25667 67.4756 7.37939C67.5771 7.44287 67.6724 7.51693 67.7612 7.60156C67.8543 7.6862 67.9411 7.7793 68.0215 7.88086L68.0786 7.13184H69.145V13.854C69.145 14.3068 69.0731 14.7088 68.9292 15.0601C68.7896 15.4113 68.5928 15.7096 68.3389 15.9551C68.0807 16.2005 67.7739 16.3867 67.4185 16.5137C67.063 16.6406 66.6694 16.7041 66.2378 16.7041C66.0601 16.7041 65.8569 16.6829 65.6284 16.6406C65.3999 16.6025 65.1693 16.5369 64.9365 16.4438C64.6995 16.355 64.471 16.2344 64.251 16.082C64.0352 15.9297 63.849 15.7414 63.6924 15.5171L64.3018 14.8125C64.4456 14.986 64.5938 15.132 64.7461 15.2505C64.8984 15.3732 65.0529 15.4705 65.2095 15.5425C65.366 15.6144 65.5226 15.6652 65.6792 15.6948C65.8358 15.7287 65.9924 15.7456 66.1489 15.7456C66.4282 15.7456 66.68 15.7054 66.9043 15.625C67.1286 15.5446 67.3211 15.4261 67.4819 15.2695C67.6385 15.1172 67.7591 14.9268 67.8438 14.6982C67.9284 14.4697 67.9707 14.2074 67.9707 13.9111V13.3208C67.8818 13.4224 67.7866 13.5155 67.6851 13.6001C67.5877 13.6847 67.4819 13.7588 67.3677 13.8223C67.1899 13.9196 66.9932 13.9937 66.7773 14.0444C66.5615 14.0994 66.3288 14.127 66.0791 14.127C65.6602 14.127 65.2814 14.0381 64.9429 13.8604C64.6043 13.6826 64.3187 13.4372 64.0859 13.124C63.849 12.8109 63.667 12.4427 63.54 12.0195C63.4131 11.5921 63.3496 11.133 63.3496 10.6421V10.5088ZM64.5239 10.6421C64.5239 10.9764 64.5578 11.2938 64.6255 11.5942C64.6974 11.8947 64.8096 12.1592 64.9619 12.3877C65.11 12.6162 65.3005 12.7982 65.5332 12.9336C65.766 13.0648 66.0452 13.1304 66.3711 13.1304C66.5742 13.1304 66.7562 13.1071 66.917 13.0605C67.082 13.0098 67.2301 12.9399 67.3613 12.8511C67.4883 12.7622 67.6025 12.6564 67.7041 12.5337C67.8057 12.411 67.8945 12.2756 67.9707 12.1274V8.979C67.8945 8.83512 67.8057 8.70394 67.7041 8.58545C67.6025 8.46696 67.4862 8.36328 67.355 8.27441C67.2238 8.18978 67.0778 8.12419 66.917 8.07764C66.7562 8.02686 66.5785 8.00146 66.3838 8.00146C66.0537 8.00146 65.7702 8.06917 65.5332 8.20459C65.3005 8.34001 65.11 8.52197 64.9619 8.75049C64.8096 8.98324 64.6974 9.25195 64.6255 9.55664C64.5578 9.8571 64.5239 10.1745 64.5239 10.5088V10.6421ZM80.5073 13.0034H85.0269V14H79.333V4.75781H80.5073V13.0034ZM90.0225 14.127C89.54 14.127 89.0957 14.0444 88.6895 13.8794C88.2874 13.7144 87.9425 13.4837 87.6548 13.1875C87.367 12.8913 87.1427 12.54 86.9819 12.1338C86.8211 11.7275 86.7407 11.2853 86.7407 10.8071V10.5405C86.7407 9.98617 86.8296 9.49105 87.0073 9.05518C87.1851 8.61507 87.422 8.24268 87.7183 7.93799C88.0103 7.63753 88.3424 7.4069 88.7148 7.24609C89.0915 7.08529 89.4766 7.00488 89.8701 7.00488C90.3652 7.00488 90.7969 7.09163 91.165 7.26514C91.5374 7.43441 91.8464 7.66927 92.0918 7.96973C92.3372 8.27441 92.5192 8.632 92.6377 9.04248C92.7604 9.45296 92.8218 9.8973 92.8218 10.3755V10.9023H87.915V10.9468C87.9447 11.2811 88.0103 11.5752 88.1118 11.8291C88.2176 12.083 88.3615 12.3073 88.5435 12.502C88.7297 12.7093 88.9539 12.8722 89.2163 12.9907C89.4787 13.1092 89.7686 13.1685 90.0859 13.1685C90.5049 13.1685 90.8773 13.0838 91.2031 12.9146C91.529 12.7453 91.7998 12.521 92.0156 12.2417L92.7329 12.8003C92.5044 13.1473 92.1616 13.4562 91.7046 13.7271C91.2518 13.9937 90.6911 14.127 90.0225 14.127ZM89.8701 7.96973C89.6331 7.96973 89.4089 8.01416 89.1973 8.10303C88.9857 8.18766 88.7952 8.3125 88.626 8.47754C88.4567 8.64681 88.3128 8.85417 88.1943 9.09961C88.0801 9.34082 87.9997 9.62012 87.9531 9.9375H91.6475V9.88037C91.6475 9.66878 91.6073 9.44238 91.5269 9.20117C91.4465 8.95573 91.3343 8.74414 91.1904 8.56641C91.0465 8.38867 90.8646 8.24479 90.6445 8.13477C90.4287 8.02474 90.1706 7.96973 89.8701 7.96973ZM96.5479 14V8.03955H94.6562V7.13184H96.5479V6.64941C96.5479 6.20931 96.6113 5.82422 96.7383 5.49414C96.8695 5.15983 97.0535 4.88053 97.2905 4.65625C97.5233 4.43197 97.8047 4.2627 98.1348 4.14844C98.4648 4.03418 98.833 3.97705 99.2393 3.97705C99.4085 3.97705 99.5757 3.98763 99.7407 4.00879C99.9058 4.02572 100.069 4.04899 100.229 4.07861C100.335 4.09977 100.441 4.12305 100.547 4.14844C100.653 4.1696 100.761 4.19499 100.871 4.22461L100.731 5.1958C100.557 5.13656 100.354 5.08577 100.122 5.04346C99.8931 4.99691 99.6476 4.97363 99.3853 4.97363C99.1187 4.97363 98.8817 5.00749 98.6743 5.0752C98.4712 5.13867 98.3019 5.236 98.1665 5.36719C98.0226 5.5026 97.9126 5.67822 97.8364 5.89404C97.7645 6.10986 97.7285 6.36165 97.7285 6.64941V7.13184H100.375V8.03955H97.7285V14H96.5479ZM105.384 5.46875V7.13184H107.999V8.03955H105.384V11.772C105.384 12.0386 105.418 12.2586 105.485 12.4321C105.553 12.6056 105.646 12.7432 105.765 12.8447C105.883 12.9505 106.019 13.0246 106.171 13.0669C106.327 13.1092 106.493 13.1304 106.666 13.1304C106.793 13.1304 106.924 13.124 107.06 13.1113C107.195 13.0944 107.328 13.0754 107.459 13.0542C107.586 13.033 107.705 13.0119 107.815 12.9907C107.929 12.9653 108.022 12.9442 108.094 12.9272L108.259 13.7588C108.162 13.818 108.043 13.8709 107.904 13.9175C107.764 13.9598 107.612 13.9958 107.447 14.0254C107.282 14.0592 107.106 14.0846 106.92 14.1016C106.738 14.1185 106.556 14.127 106.374 14.127C106.069 14.127 105.784 14.0846 105.517 14C105.255 13.9111 105.026 13.7715 104.832 13.5811C104.637 13.3949 104.482 13.1536 104.368 12.8574C104.258 12.557 104.203 12.1951 104.203 11.772V8.03955H102.4V7.13184H104.203V5.46875H105.384Z" fill="#696C80"/>
<rect x="0.5" y="34.5" width="159" height="63" rx="4.5" stroke="#9747FF" stroke-dasharray="10 5"/>
<path fill-rule="evenodd" clip-rule="evenodd" d="M118 66C118 66.5523 118.448 67 119 67L137 67C137.552 67 138 66.5523 138 66C138 65.4477 137.552 65 137 65L119 65C118.448 65 118 65.4477 118 66Z" fill="#BABDCC"/>
<path fill-rule="evenodd" clip-rule="evenodd" d="M118.293 65.2929C117.902 65.6834 117.902 66.3166 118.293 66.7071L125.293 73.7071C125.683 74.0976 126.317 74.0976 126.707 73.7071C127.098 73.3166 127.098 72.6834 126.707 72.2929L120.414 66L126.707 59.7071C127.098 59.3166 127.098 58.6834 126.707 58.2929C126.317 57.9024 125.683 57.9024 125.293 58.2929L118.293 65.2929Z" fill="#12131A"/>
<path fill-rule="evenodd" clip-rule="evenodd" d="M81 66C81 66.5523 81.4477 67 82 67L89 67C89.5523 67 90 66.5523 90 66C90 65.4477 89.5523 65 89 65L82 65C81.4477 65 81 65.4477 81 66Z" fill="#12131A"/>
<path d="M70.2929 66.7071C69.9024 66.3166 69.9024 65.6834 70.2929 65.2929L77.2929 58.2929C77.5789 58.0069 78.009 57.9214 78.3827 58.0761C78.7564 58.2309 79 58.5956 79 59V73C79 73.4045 78.7564 73.7691 78.3827 73.9239C78.009 74.0787 77.5789 73.9931 77.2929 73.7071L70.2929 66.7071Z" fill="#12131A"/>
<path fill-rule="evenodd" clip-rule="evenodd" d="M22 66C22 66.5523 22.4477 67 23 67L41 67C41.5523 67 42 66.5523 42 66C42 65.4477 41.5523 65 41 65L23 65C22.4477 65 22 65.4477 22 66Z" fill="#12131A"/>
<path fill-rule="evenodd" clip-rule="evenodd" d="M22.2929 65.2929C21.9024 65.6834 21.9024 66.3166 22.2929 66.7071L29.2929 73.7071C29.6834 74.0976 30.3166 74.0976 30.7071 73.7071C31.0976 73.3166 31.0976 72.6834 30.7071 72.2929L24.4142 66L30.7071 59.7071C31.0976 59.3166 31.0976 58.6834 30.7071 58.2929C30.3166 57.9024 29.6834 57.9024 29.2929 58.2929L22.2929 65.2929Z" fill="#12131A"/>
</svg>
