<svg width="160" height="98" viewBox="0 0 160 98" fill="none" xmlns="http://www.w3.org/2000/svg">
<path d="M5.51611 11.6069H2.43115L1.68848 14H0.51416L3.49756 4.75781H4.48145L7.41406 14H6.24609L5.51611 11.6069ZM2.74854 10.585H5.20508L3.98633 6.57324L2.74854 10.585ZM13.4126 7.00488C13.6284 7.00488 13.8527 7.01969 14.0854 7.04932C14.3224 7.07894 14.5002 7.11914 14.6187 7.16992L14.46 8.31885C14.2314 8.26807 14.0135 8.2321 13.8062 8.21094C13.603 8.18555 13.3893 8.17285 13.165 8.17285C12.8773 8.17285 12.617 8.20882 12.3843 8.28076C12.1515 8.34847 11.9484 8.45003 11.7749 8.58545C11.6183 8.70394 11.4808 8.84993 11.3623 9.02344C11.248 9.19271 11.1528 9.38314 11.0767 9.59473V14H9.896V7.13184H11.0132L11.064 8.05225L11.0703 8.22363C11.3496 7.84701 11.6839 7.55078 12.0732 7.33496C12.4668 7.11491 12.9132 7.00488 13.4126 7.00488ZM21.2202 7.00488C21.436 7.00488 21.6603 7.01969 21.8931 7.04932C22.13 7.07894 22.3078 7.11914 22.4263 7.16992L22.2676 8.31885C22.0391 8.26807 21.8211 8.2321 21.6138 8.21094C21.4106 8.18555 21.1969 8.17285 20.9727 8.17285C20.6849 8.17285 20.4246 8.20882 20.1919 8.28076C19.9591 8.34847 19.756 8.45003 19.5825 8.58545C19.4259 8.70394 19.2884 8.84993 19.1699 9.02344C19.0557 9.19271 18.9604 9.38314 18.8843 9.59473V14H17.7036V7.13184H18.8208L18.8716 8.05225L18.8779 8.22363C19.1572 7.84701 19.4915 7.55078 19.8809 7.33496C20.2744 7.11491 20.7209 7.00488 21.2202 7.00488ZM24.1973 10.5024C24.1973 10.0073 24.2692 9.54818 24.4131 9.125C24.557 8.69759 24.7643 8.32731 25.0352 8.01416C25.3018 7.70101 25.6276 7.45557 26.0127 7.27783C26.3978 7.09587 26.8315 7.00488 27.314 7.00488C27.8006 7.00488 28.2365 7.09587 28.6216 7.27783C29.0109 7.45557 29.341 7.70101 29.6118 8.01416C29.8784 8.32731 30.0837 8.69759 30.2275 9.125C30.3714 9.54818 30.4434 10.0073 30.4434 10.5024V10.6421C30.4434 11.1372 30.3714 11.5964 30.2275 12.0195C30.0837 12.4427 29.8784 12.8109 29.6118 13.124C29.341 13.4372 29.013 13.6826 28.6279 13.8604C28.2428 14.0381 27.8091 14.127 27.3267 14.127C26.84 14.127 26.402 14.0381 26.0127 13.8604C25.6276 13.6826 25.3018 13.4372 25.0352 13.124C24.7643 12.8109 24.557 12.4427 24.4131 12.0195C24.2692 11.5964 24.1973 11.1372 24.1973 10.6421V10.5024ZM25.3716 10.6421C25.3716 10.9806 25.4118 11.3044 25.4922 11.6133C25.5726 11.918 25.6953 12.1867 25.8604 12.4194C26.0212 12.6522 26.2243 12.8363 26.4697 12.9717C26.7152 13.1071 27.0008 13.1748 27.3267 13.1748C27.6483 13.1748 27.9297 13.1071 28.1709 12.9717C28.4163 12.8363 28.6216 12.6522 28.7866 12.4194C28.9474 12.1867 29.068 11.918 29.1484 11.6133C29.2288 11.3044 29.269 10.9806 29.269 10.6421V10.5024C29.269 10.1681 29.2267 9.84863 29.1421 9.54395C29.0617 9.23503 28.9411 8.96419 28.7803 8.73145C28.6152 8.4987 28.41 8.31462 28.1646 8.1792C27.9233 8.03955 27.6398 7.96973 27.314 7.96973C26.9881 7.96973 26.7046 8.03955 26.4634 8.1792C26.2222 8.31462 26.0212 8.4987 25.8604 8.73145C25.6953 8.96419 25.5726 9.23503 25.4922 9.54395C25.4118 9.84863 25.3716 10.1681 25.3716 10.5024V10.6421ZM32.9951 14L31.5352 7.13184H32.5762L33.376 11.5117L33.5156 12.4956L33.687 11.5117L34.7852 7.13184H35.5405L36.6323 11.5117L36.8164 12.5908L36.9878 11.5117L37.7495 7.13184H38.7905L37.3306 14H36.4038L35.3311 9.7915L35.1533 8.7251L34.9819 9.7915L33.9219 14H32.9951ZM47.9375 14V4.75781H50.686C51.0669 4.76204 51.4393 4.81283 51.8032 4.91016C52.1672 5.00326 52.4909 5.14925 52.7744 5.34814C53.0579 5.54704 53.2843 5.80094 53.4536 6.10986C53.6229 6.41878 53.7054 6.78906 53.7012 7.2207C53.6969 7.46191 53.6567 7.68197 53.5806 7.88086C53.5086 8.07975 53.4092 8.25749 53.2822 8.41406C53.151 8.57487 53.005 8.71029 52.8442 8.82031C52.6877 8.93034 52.4972 9.03402 52.2729 9.13135V9.15039C52.5057 9.2054 52.73 9.30485 52.9458 9.44873C53.1616 9.59261 53.3394 9.7513 53.479 9.9248C53.6271 10.1152 53.7414 10.3289 53.8218 10.5659C53.9064 10.8029 53.9487 11.0589 53.9487 11.334C53.953 11.7656 53.8704 12.1465 53.7012 12.4766C53.5319 12.8066 53.3055 13.0817 53.022 13.3018C52.7384 13.526 52.4105 13.6974 52.0381 13.8159C51.6699 13.9344 51.2891 13.9958 50.8955 14H47.9375ZM49.1182 9.67725V13.0034H50.9272C51.1727 12.9992 51.4054 12.959 51.6255 12.8828C51.8455 12.8024 52.0402 12.6924 52.2095 12.5527C52.3787 12.4131 52.512 12.2417 52.6094 12.0386C52.7109 11.8354 52.7617 11.6048 52.7617 11.3467C52.766 11.0843 52.7215 10.8516 52.6284 10.6484C52.5396 10.4453 52.4147 10.2718 52.2539 10.1279C52.0931 9.98828 51.9048 9.88037 51.689 9.8042C51.4731 9.72803 51.2404 9.68571 50.9907 9.67725H49.1182ZM49.1182 8.69971H50.7559C50.9759 8.69548 51.1917 8.66162 51.4033 8.59814C51.6149 8.53044 51.8032 8.43311 51.9683 8.30615C52.1333 8.18343 52.2666 8.03109 52.3682 7.84912C52.4697 7.66715 52.5205 7.45557 52.5205 7.21436C52.5205 6.95622 52.4697 6.73617 52.3682 6.5542C52.2708 6.37223 52.1396 6.22201 51.9746 6.10352C51.8053 5.98926 51.6107 5.90462 51.3906 5.84961C51.1748 5.7946 50.9526 5.76497 50.7241 5.76074H49.1182V8.69971ZM55.9419 7.13184H59.4521V12.9844H61.6929V14H55.9419V12.9844H58.2778V8.15381H55.9419V7.13184ZM58.1255 5.3291C58.1255 5.22754 58.1403 5.13232 58.1699 5.04346C58.2038 4.95459 58.2546 4.87842 58.3223 4.81494C58.3773 4.75993 58.4471 4.71761 58.5317 4.68799C58.6206 4.65413 58.7201 4.63721 58.8301 4.63721C58.9401 4.63721 59.0374 4.65413 59.1221 4.68799C59.2067 4.71761 59.2765 4.75993 59.3315 4.81494C59.3993 4.87419 59.45 4.94824 59.4839 5.03711C59.5177 5.12598 59.5347 5.22331 59.5347 5.3291C59.5347 5.51953 59.4754 5.67822 59.3569 5.80518C59.2384 5.93213 59.0628 5.99561 58.8301 5.99561C58.5931 5.99561 58.4154 5.93213 58.2969 5.80518C58.1826 5.67822 58.1255 5.51953 58.1255 5.3291ZM63.3496 10.5088C63.3496 9.99674 63.411 9.52702 63.5337 9.09961C63.6606 8.66797 63.8426 8.29769 64.0796 7.98877C64.3166 7.67985 64.6043 7.43864 64.9429 7.26514C65.2814 7.09163 65.6644 7.00488 66.0918 7.00488C66.3669 7.00488 66.6187 7.03662 66.8472 7.1001C67.0799 7.16357 67.2894 7.25667 67.4756 7.37939C67.5771 7.44287 67.6724 7.51693 67.7612 7.60156C67.8543 7.6862 67.9411 7.7793 68.0215 7.88086L68.0786 7.13184H69.145V13.854C69.145 14.3068 69.0731 14.7088 68.9292 15.0601C68.7896 15.4113 68.5928 15.7096 68.3389 15.9551C68.0807 16.2005 67.7739 16.3867 67.4185 16.5137C67.063 16.6406 66.6694 16.7041 66.2378 16.7041C66.0601 16.7041 65.8569 16.6829 65.6284 16.6406C65.3999 16.6025 65.1693 16.5369 64.9365 16.4438C64.6995 16.355 64.471 16.2344 64.251 16.082C64.0352 15.9297 63.849 15.7414 63.6924 15.5171L64.3018 14.8125C64.4456 14.986 64.5938 15.132 64.7461 15.2505C64.8984 15.3732 65.0529 15.4705 65.2095 15.5425C65.366 15.6144 65.5226 15.6652 65.6792 15.6948C65.8358 15.7287 65.9924 15.7456 66.1489 15.7456C66.4282 15.7456 66.68 15.7054 66.9043 15.625C67.1286 15.5446 67.3211 15.4261 67.4819 15.2695C67.6385 15.1172 67.7591 14.9268 67.8438 14.6982C67.9284 14.4697 67.9707 14.2074 67.9707 13.9111V13.3208C67.8818 13.4224 67.7866 13.5155 67.6851 13.6001C67.5877 13.6847 67.4819 13.7588 67.3677 13.8223C67.1899 13.9196 66.9932 13.9937 66.7773 14.0444C66.5615 14.0994 66.3288 14.127 66.0791 14.127C65.6602 14.127 65.2814 14.0381 64.9429 13.8604C64.6043 13.6826 64.3187 13.4372 64.0859 13.124C63.849 12.8109 63.667 12.4427 63.54 12.0195C63.4131 11.5921 63.3496 11.133 63.3496 10.6421V10.5088ZM64.5239 10.6421C64.5239 10.9764 64.5578 11.2938 64.6255 11.5942C64.6974 11.8947 64.8096 12.1592 64.9619 12.3877C65.11 12.6162 65.3005 12.7982 65.5332 12.9336C65.766 13.0648 66.0452 13.1304 66.3711 13.1304C66.5742 13.1304 66.7562 13.1071 66.917 13.0605C67.082 13.0098 67.2301 12.9399 67.3613 12.8511C67.4883 12.7622 67.6025 12.6564 67.7041 12.5337C67.8057 12.411 67.8945 12.2756 67.9707 12.1274V8.979C67.8945 8.83512 67.8057 8.70394 67.7041 8.58545C67.6025 8.46696 67.4862 8.36328 67.355 8.27441C67.2238 8.18978 67.0778 8.12419 66.917 8.07764C66.7562 8.02686 66.5785 8.00146 66.3838 8.00146C66.0537 8.00146 65.7702 8.06917 65.5332 8.20459C65.3005 8.34001 65.11 8.52197 64.9619 8.75049C64.8096 8.98324 64.6974 9.25195 64.6255 9.55664C64.5578 9.8571 64.5239 10.1745 64.5239 10.5088V10.6421ZM79.0601 14V4.75781H81.1992C81.5589 4.76204 81.8975 4.80013 82.2148 4.87207C82.5365 4.93978 82.8327 5.03711 83.1035 5.16406C83.4801 5.33757 83.8123 5.56608 84.1001 5.84961C84.3921 6.12891 84.6248 6.45264 84.7983 6.8208C84.9549 7.13395 85.0734 7.47673 85.1538 7.84912C85.2384 8.22152 85.2829 8.6193 85.2871 9.04248V9.72168C85.2871 10.1279 85.2469 10.513 85.1665 10.877C85.0903 11.2409 84.9782 11.5752 84.8301 11.8799C84.6777 12.1973 84.4852 12.485 84.2524 12.7432C84.0197 13.0013 83.7594 13.2214 83.4717 13.4033C83.167 13.5938 82.8221 13.7397 82.437 13.8413C82.0562 13.9429 81.6436 13.9958 81.1992 14H79.0601ZM80.2534 5.72266V13.0415H81.1992C81.5378 13.0373 81.8446 12.995 82.1196 12.9146C82.3989 12.8341 82.6465 12.7199 82.8623 12.5718C83.0908 12.4194 83.2876 12.2332 83.4526 12.0132C83.6219 11.7889 83.7552 11.5392 83.8525 11.2642C83.9372 11.0399 84.0007 10.7987 84.043 10.5405C84.0853 10.2782 84.1086 10.0052 84.1128 9.72168V9.02979C84.1086 8.74202 84.0832 8.46696 84.0366 8.20459C83.9943 7.93799 83.9287 7.69043 83.8398 7.46191C83.7256 7.16569 83.5711 6.89909 83.3765 6.66211C83.186 6.4209 82.9512 6.22624 82.6719 6.07812C82.473 5.9681 82.2508 5.88346 82.0054 5.82422C81.7599 5.76074 81.4912 5.72689 81.1992 5.72266H80.2534ZM86.6582 10.5024C86.6582 10.0073 86.7301 9.54818 86.874 9.125C87.0179 8.69759 87.2253 8.32731 87.4961 8.01416C87.7627 7.70101 88.0885 7.45557 88.4736 7.27783C88.8587 7.09587 89.2925 7.00488 89.7749 7.00488C90.2616 7.00488 90.6974 7.09587 91.0825 7.27783C91.4718 7.45557 91.8019 7.70101 92.0728 8.01416C92.3394 8.32731 92.5446 8.69759 92.6885 9.125C92.8324 9.54818 92.9043 10.0073 92.9043 10.5024V10.6421C92.9043 11.1372 92.8324 11.5964 92.6885 12.0195C92.5446 12.4427 92.3394 12.8109 92.0728 13.124C91.8019 13.4372 91.474 13.6826 91.0889 13.8604C90.7038 14.0381 90.27 14.127 89.7876 14.127C89.3009 14.127 88.863 14.0381 88.4736 13.8604C88.0885 13.6826 87.7627 13.4372 87.4961 13.124C87.2253 12.8109 87.0179 12.4427 86.874 12.0195C86.7301 11.5964 86.6582 11.1372 86.6582 10.6421V10.5024ZM87.8325 10.6421C87.8325 10.9806 87.8727 11.3044 87.9531 11.6133C88.0335 11.918 88.1562 12.1867 88.3213 12.4194C88.4821 12.6522 88.6852 12.8363 88.9307 12.9717C89.1761 13.1071 89.4618 13.1748 89.7876 13.1748C90.1092 13.1748 90.3906 13.1071 90.6318 12.9717C90.8773 12.8363 91.0825 12.6522 91.2476 12.4194C91.4084 12.1867 91.529 11.918 91.6094 11.6133C91.6898 11.3044 91.73 10.9806 91.73 10.6421V10.5024C91.73 10.1681 91.6877 9.84863 91.603 9.54395C91.5226 9.23503 91.402 8.96419 91.2412 8.73145C91.0762 8.4987 90.8709 8.31462 90.6255 8.1792C90.3843 8.03955 90.1007 7.96973 89.7749 7.96973C89.4491 7.96973 89.1655 8.03955 88.9243 8.1792C88.6831 8.31462 88.4821 8.4987 88.3213 8.73145C88.1562 8.96419 88.0335 9.23503 87.9531 9.54395C87.8727 9.84863 87.8325 10.1681 87.8325 10.5024V10.6421ZM95.4561 14L93.9961 7.13184H95.0371L95.8369 11.5117L95.9766 12.4956L96.1479 11.5117L97.2461 7.13184H98.0015L99.0933 11.5117L99.2773 12.5908L99.4487 11.5117L100.21 7.13184H101.251L99.7915 14H98.8647L97.792 9.7915L97.6143 8.7251L97.4429 9.7915L96.3828 14H95.4561ZM102.604 14V7.13184H103.657L103.74 8.14746C103.841 8.00358 103.951 7.8724 104.07 7.75391C104.193 7.63118 104.322 7.52539 104.457 7.43652C104.66 7.30111 104.88 7.19743 105.117 7.12549C105.358 7.04932 105.612 7.00911 105.879 7.00488C106.239 7.00488 106.564 7.05566 106.856 7.15723C107.153 7.25879 107.404 7.41748 107.612 7.6333C107.819 7.84912 107.978 8.12419 108.088 8.4585C108.202 8.78857 108.259 9.18213 108.259 9.63916V14H107.085V9.66455C107.085 9.35986 107.051 9.10173 106.983 8.89014C106.916 8.67855 106.816 8.50716 106.685 8.37598C106.55 8.24479 106.385 8.14958 106.19 8.09033C106 8.03109 105.779 8.00146 105.53 8.00146C105.314 8.00146 105.113 8.0332 104.927 8.09668C104.741 8.15592 104.569 8.23844 104.413 8.34424C104.286 8.43734 104.167 8.54525 104.057 8.66797C103.951 8.79069 103.858 8.92611 103.778 9.07422V14H102.604Z" fill="#696C80"/>
<rect x="0.5" y="34.5" width="159" height="63" rx="4.5" stroke="#9747FF" stroke-dasharray="10 5"/>
<path fill-rule="evenodd" clip-rule="evenodd" d="M128 76C128.552 76 129 75.5523 129 75L129 57C129 56.4477 128.552 56 128 56C127.448 56 127 56.4477 127 57L127 75C127 75.5523 127.448 76 128 76Z" fill="#BABDCC"/>
<path fill-rule="evenodd" clip-rule="evenodd" d="M127.293 75.7071C127.683 76.0976 128.317 76.0976 128.707 75.7071L135.707 68.7071C136.098 68.3166 136.098 67.6834 135.707 67.2929C135.317 66.9024 134.683 66.9024 134.293 67.2929L128 73.5858L121.707 67.2929C121.317 66.9024 120.683 66.9024 120.293 67.2929C119.902 67.6834 119.902 68.3166 120.293 68.7071L127.293 75.7071Z" fill="#12131A"/>
<path fill-rule="evenodd" clip-rule="evenodd" d="M80 65C79.4477 65 79 64.5523 79 64L79 57C79 56.4477 79.4477 56 80 56C80.5523 56 81 56.4477 81 57V64C81 64.5523 80.5523 65 80 65Z" fill="#12131A"/>
<path d="M79.2929 75.7071C79.6834 76.0977 80.3166 76.0977 80.7071 75.7071L87.7071 68.7071C87.9931 68.4211 88.0786 67.991 87.9238 67.6173C87.7691 67.2437 87.4044 67 87 67H73C72.5955 67 72.2309 67.2437 72.0761 67.6173C71.9213 67.991 72.0069 68.4211 72.2929 68.7071L79.2929 75.7071Z" fill="#12131A"/>
<path fill-rule="evenodd" clip-rule="evenodd" d="M32 76C32.5523 76 33 75.5523 33 75L33 57C33 56.4477 32.5523 56 32 56C31.4477 56 31 56.4477 31 57L31 75C31 75.5523 31.4477 76 32 76Z" fill="#12131A"/>
<path fill-rule="evenodd" clip-rule="evenodd" d="M31.2929 75.7071C31.6834 76.0976 32.3166 76.0976 32.7071 75.7071L39.7071 68.7071C40.0976 68.3166 40.0976 67.6834 39.7071 67.2929C39.3166 66.9024 38.6834 66.9024 38.2929 67.2929L32 73.5858L25.7071 67.2929C25.3166 66.9024 24.6834 66.9024 24.2929 67.2929C23.9024 67.6834 23.9024 68.3166 24.2929 68.7071L31.2929 75.7071Z" fill="#12131A"/>
</svg>
