<svg width="160" height="98" viewBox="0 0 160 98" fill="none" xmlns="http://www.w3.org/2000/svg">
<path d="M5.51611 11.6069H2.43115L1.68848 14H0.51416L3.49756 4.75781H4.48145L7.41406 14H6.24609L5.51611 11.6069ZM2.74854 10.585H5.20508L3.98633 6.57324L2.74854 10.585ZM13.4126 7.00488C13.6284 7.00488 13.8527 7.01969 14.0854 7.04932C14.3224 7.07894 14.5002 7.11914 14.6187 7.16992L14.46 8.31885C14.2314 8.26807 14.0135 8.2321 13.8062 8.21094C13.603 8.18555 13.3893 8.17285 13.165 8.17285C12.8773 8.17285 12.617 8.20882 12.3843 8.28076C12.1515 8.34847 11.9484 8.45003 11.7749 8.58545C11.6183 8.70394 11.4808 8.84993 11.3623 9.02344C11.248 9.19271 11.1528 9.38314 11.0767 9.59473V14H9.896V7.13184H11.0132L11.064 8.05225L11.0703 8.22363C11.3496 7.84701 11.6839 7.55078 12.0732 7.33496C12.4668 7.11491 12.9132 7.00488 13.4126 7.00488ZM21.2202 7.00488C21.436 7.00488 21.6603 7.01969 21.8931 7.04932C22.13 7.07894 22.3078 7.11914 22.4263 7.16992L22.2676 8.31885C22.0391 8.26807 21.8211 8.2321 21.6138 8.21094C21.4106 8.18555 21.1969 8.17285 20.9727 8.17285C20.6849 8.17285 20.4246 8.20882 20.1919 8.28076C19.9591 8.34847 19.756 8.45003 19.5825 8.58545C19.4259 8.70394 19.2884 8.84993 19.1699 9.02344C19.0557 9.19271 18.9604 9.38314 18.8843 9.59473V14H17.7036V7.13184H18.8208L18.8716 8.05225L18.8779 8.22363C19.1572 7.84701 19.4915 7.55078 19.8809 7.33496C20.2744 7.11491 20.7209 7.00488 21.2202 7.00488ZM24.1973 10.5024C24.1973 10.0073 24.2692 9.54818 24.4131 9.125C24.557 8.69759 24.7643 8.32731 25.0352 8.01416C25.3018 7.70101 25.6276 7.45557 26.0127 7.27783C26.3978 7.09587 26.8315 7.00488 27.314 7.00488C27.8006 7.00488 28.2365 7.09587 28.6216 7.27783C29.0109 7.45557 29.341 7.70101 29.6118 8.01416C29.8784 8.32731 30.0837 8.69759 30.2275 9.125C30.3714 9.54818 30.4434 10.0073 30.4434 10.5024V10.6421C30.4434 11.1372 30.3714 11.5964 30.2275 12.0195C30.0837 12.4427 29.8784 12.8109 29.6118 13.124C29.341 13.4372 29.013 13.6826 28.6279 13.8604C28.2428 14.0381 27.8091 14.127 27.3267 14.127C26.84 14.127 26.402 14.0381 26.0127 13.8604C25.6276 13.6826 25.3018 13.4372 25.0352 13.124C24.7643 12.8109 24.557 12.4427 24.4131 12.0195C24.2692 11.5964 24.1973 11.1372 24.1973 10.6421V10.5024ZM25.3716 10.6421C25.3716 10.9806 25.4118 11.3044 25.4922 11.6133C25.5726 11.918 25.6953 12.1867 25.8604 12.4194C26.0212 12.6522 26.2243 12.8363 26.4697 12.9717C26.7152 13.1071 27.0008 13.1748 27.3267 13.1748C27.6483 13.1748 27.9297 13.1071 28.1709 12.9717C28.4163 12.8363 28.6216 12.6522 28.7866 12.4194C28.9474 12.1867 29.068 11.918 29.1484 11.6133C29.2288 11.3044 29.269 10.9806 29.269 10.6421V10.5024C29.269 10.1681 29.2267 9.84863 29.1421 9.54395C29.0617 9.23503 28.9411 8.96419 28.7803 8.73145C28.6152 8.4987 28.41 8.31462 28.1646 8.1792C27.9233 8.03955 27.6398 7.96973 27.314 7.96973C26.9881 7.96973 26.7046 8.03955 26.4634 8.1792C26.2222 8.31462 26.0212 8.4987 25.8604 8.73145C25.6953 8.96419 25.5726 9.23503 25.4922 9.54395C25.4118 9.84863 25.3716 10.1681 25.3716 10.5024V10.6421ZM32.9951 14L31.5352 7.13184H32.5762L33.376 11.5117L33.5156 12.4956L33.687 11.5117L34.7852 7.13184H35.5405L36.6323 11.5117L36.8164 12.5908L36.9878 11.5117L37.7495 7.13184H38.7905L37.3306 14H36.4038L35.3311 9.7915L35.1533 8.7251L34.9819 9.7915L33.9219 14H32.9951ZM47.9375 14V4.75781H50.686C51.0669 4.76204 51.4393 4.81283 51.8032 4.91016C52.1672 5.00326 52.4909 5.14925 52.7744 5.34814C53.0579 5.54704 53.2843 5.80094 53.4536 6.10986C53.6229 6.41878 53.7054 6.78906 53.7012 7.2207C53.6969 7.46191 53.6567 7.68197 53.5806 7.88086C53.5086 8.07975 53.4092 8.25749 53.2822 8.41406C53.151 8.57487 53.005 8.71029 52.8442 8.82031C52.6877 8.93034 52.4972 9.03402 52.2729 9.13135V9.15039C52.5057 9.2054 52.73 9.30485 52.9458 9.44873C53.1616 9.59261 53.3394 9.7513 53.479 9.9248C53.6271 10.1152 53.7414 10.3289 53.8218 10.5659C53.9064 10.8029 53.9487 11.0589 53.9487 11.334C53.953 11.7656 53.8704 12.1465 53.7012 12.4766C53.5319 12.8066 53.3055 13.0817 53.022 13.3018C52.7384 13.526 52.4105 13.6974 52.0381 13.8159C51.6699 13.9344 51.2891 13.9958 50.8955 14H47.9375ZM49.1182 9.67725V13.0034H50.9272C51.1727 12.9992 51.4054 12.959 51.6255 12.8828C51.8455 12.8024 52.0402 12.6924 52.2095 12.5527C52.3787 12.4131 52.512 12.2417 52.6094 12.0386C52.7109 11.8354 52.7617 11.6048 52.7617 11.3467C52.766 11.0843 52.7215 10.8516 52.6284 10.6484C52.5396 10.4453 52.4147 10.2718 52.2539 10.1279C52.0931 9.98828 51.9048 9.88037 51.689 9.8042C51.4731 9.72803 51.2404 9.68571 50.9907 9.67725H49.1182ZM49.1182 8.69971H50.7559C50.9759 8.69548 51.1917 8.66162 51.4033 8.59814C51.6149 8.53044 51.8032 8.43311 51.9683 8.30615C52.1333 8.18343 52.2666 8.03109 52.3682 7.84912C52.4697 7.66715 52.5205 7.45557 52.5205 7.21436C52.5205 6.95622 52.4697 6.73617 52.3682 6.5542C52.2708 6.37223 52.1396 6.22201 51.9746 6.10352C51.8053 5.98926 51.6107 5.90462 51.3906 5.84961C51.1748 5.7946 50.9526 5.76497 50.7241 5.76074H49.1182V8.69971ZM55.9419 7.13184H59.4521V12.9844H61.6929V14H55.9419V12.9844H58.2778V8.15381H55.9419V7.13184ZM58.1255 5.3291C58.1255 5.22754 58.1403 5.13232 58.1699 5.04346C58.2038 4.95459 58.2546 4.87842 58.3223 4.81494C58.3773 4.75993 58.4471 4.71761 58.5317 4.68799C58.6206 4.65413 58.7201 4.63721 58.8301 4.63721C58.9401 4.63721 59.0374 4.65413 59.1221 4.68799C59.2067 4.71761 59.2765 4.75993 59.3315 4.81494C59.3993 4.87419 59.45 4.94824 59.4839 5.03711C59.5177 5.12598 59.5347 5.22331 59.5347 5.3291C59.5347 5.51953 59.4754 5.67822 59.3569 5.80518C59.2384 5.93213 59.0628 5.99561 58.8301 5.99561C58.5931 5.99561 58.4154 5.93213 58.2969 5.80518C58.1826 5.67822 58.1255 5.51953 58.1255 5.3291ZM63.3496 10.5088C63.3496 9.99674 63.411 9.52702 63.5337 9.09961C63.6606 8.66797 63.8426 8.29769 64.0796 7.98877C64.3166 7.67985 64.6043 7.43864 64.9429 7.26514C65.2814 7.09163 65.6644 7.00488 66.0918 7.00488C66.3669 7.00488 66.6187 7.03662 66.8472 7.1001C67.0799 7.16357 67.2894 7.25667 67.4756 7.37939C67.5771 7.44287 67.6724 7.51693 67.7612 7.60156C67.8543 7.6862 67.9411 7.7793 68.0215 7.88086L68.0786 7.13184H69.145V13.854C69.145 14.3068 69.0731 14.7088 68.9292 15.0601C68.7896 15.4113 68.5928 15.7096 68.3389 15.9551C68.0807 16.2005 67.7739 16.3867 67.4185 16.5137C67.063 16.6406 66.6694 16.7041 66.2378 16.7041C66.0601 16.7041 65.8569 16.6829 65.6284 16.6406C65.3999 16.6025 65.1693 16.5369 64.9365 16.4438C64.6995 16.355 64.471 16.2344 64.251 16.082C64.0352 15.9297 63.849 15.7414 63.6924 15.5171L64.3018 14.8125C64.4456 14.986 64.5938 15.132 64.7461 15.2505C64.8984 15.3732 65.0529 15.4705 65.2095 15.5425C65.366 15.6144 65.5226 15.6652 65.6792 15.6948C65.8358 15.7287 65.9924 15.7456 66.1489 15.7456C66.4282 15.7456 66.68 15.7054 66.9043 15.625C67.1286 15.5446 67.3211 15.4261 67.4819 15.2695C67.6385 15.1172 67.7591 14.9268 67.8438 14.6982C67.9284 14.4697 67.9707 14.2074 67.9707 13.9111V13.3208C67.8818 13.4224 67.7866 13.5155 67.6851 13.6001C67.5877 13.6847 67.4819 13.7588 67.3677 13.8223C67.1899 13.9196 66.9932 13.9937 66.7773 14.0444C66.5615 14.0994 66.3288 14.127 66.0791 14.127C65.6602 14.127 65.2814 14.0381 64.9429 13.8604C64.6043 13.6826 64.3187 13.4372 64.0859 13.124C63.849 12.8109 63.667 12.4427 63.54 12.0195C63.4131 11.5921 63.3496 11.133 63.3496 10.6421V10.5088ZM64.5239 10.6421C64.5239 10.9764 64.5578 11.2938 64.6255 11.5942C64.6974 11.8947 64.8096 12.1592 64.9619 12.3877C65.11 12.6162 65.3005 12.7982 65.5332 12.9336C65.766 13.0648 66.0452 13.1304 66.3711 13.1304C66.5742 13.1304 66.7562 13.1071 66.917 13.0605C67.082 13.0098 67.2301 12.9399 67.3613 12.8511C67.4883 12.7622 67.6025 12.6564 67.7041 12.5337C67.8057 12.411 67.8945 12.2756 67.9707 12.1274V8.979C67.8945 8.83512 67.8057 8.70394 67.7041 8.58545C67.6025 8.46696 67.4862 8.36328 67.355 8.27441C67.2238 8.18978 67.0778 8.12419 66.917 8.07764C66.7562 8.02686 66.5785 8.00146 66.3838 8.00146C66.0537 8.00146 65.7702 8.06917 65.5332 8.20459C65.3005 8.34001 65.11 8.52197 64.9619 8.75049C64.8096 8.98324 64.6974 9.25195 64.6255 9.55664C64.5578 9.8571 64.5239 10.1745 64.5239 10.5088V10.6421ZM84.9824 4.75781L84.9951 11.0166C84.9951 11.4482 84.9189 11.8524 84.7666 12.229C84.6143 12.6056 84.4048 12.9336 84.1382 13.2129C83.8716 13.4964 83.5542 13.7207 83.186 13.8857C82.8179 14.0465 82.4137 14.127 81.9736 14.127C81.5251 14.127 81.1167 14.0465 80.7485 13.8857C80.3804 13.7249 80.0651 13.5028 79.8027 13.2192C79.5404 12.9399 79.3351 12.612 79.187 12.2354C79.0389 11.8545 78.9627 11.4482 78.9585 11.0166L78.9712 4.75781H80.0884L80.1138 11.0166C80.118 11.2917 80.1603 11.5562 80.2407 11.8101C80.3254 12.064 80.446 12.2882 80.6025 12.4829C80.7549 12.6776 80.9453 12.8341 81.1738 12.9526C81.4066 13.0711 81.6732 13.1304 81.9736 13.1304C82.2741 13.1304 82.5386 13.0732 82.7671 12.959C82.9956 12.8405 83.1882 12.6818 83.3447 12.4829C83.4971 12.2882 83.6134 12.064 83.6938 11.8101C83.7743 11.5562 83.8187 11.2917 83.8271 11.0166L83.8462 4.75781H84.9824ZM86.9819 16.6406V7.13184H88.0547L88.1118 7.88086C88.2049 7.76237 88.3065 7.65658 88.4165 7.56348C88.5265 7.46615 88.645 7.38363 88.772 7.31592C88.9497 7.21436 89.1465 7.13818 89.3623 7.0874C89.5824 7.03239 89.8172 7.00488 90.0669 7.00488C90.507 7.00488 90.8963 7.09163 91.2349 7.26514C91.5734 7.43864 91.8569 7.67985 92.0854 7.98877C92.314 8.29769 92.4875 8.66797 92.606 9.09961C92.7244 9.52702 92.7837 9.99674 92.7837 10.5088V10.6421C92.7837 11.133 92.7244 11.5921 92.606 12.0195C92.4875 12.4427 92.314 12.8109 92.0854 13.124C91.8569 13.4372 91.5734 13.6826 91.2349 13.8604C90.9006 14.0381 90.5176 14.127 90.0859 14.127C89.8236 14.127 89.5781 14.0994 89.3496 14.0444C89.1253 13.9894 88.9222 13.9111 88.7402 13.8096C88.6302 13.7461 88.5265 13.6763 88.4292 13.6001C88.3319 13.5197 88.2409 13.4329 88.1562 13.3398V16.6406H86.9819ZM91.6094 10.5088C91.6094 10.1745 91.5713 9.8571 91.4951 9.55664C91.4232 9.25195 91.311 8.98324 91.1587 8.75049C91.0021 8.52197 90.8053 8.34001 90.5684 8.20459C90.3314 8.06917 90.0479 8.00146 89.7178 8.00146C89.5358 8.00146 89.3665 8.02262 89.21 8.06494C89.0576 8.10726 88.9201 8.16862 88.7974 8.24902C88.6619 8.32943 88.5413 8.42887 88.4355 8.54736C88.3298 8.66585 88.2367 8.79704 88.1562 8.94092V12.248C88.2282 12.375 88.3107 12.4935 88.4038 12.6035C88.4969 12.7135 88.6027 12.8066 88.7212 12.8828C88.8566 12.9717 89.0068 13.0415 89.1719 13.0923C89.3411 13.1431 89.5273 13.1685 89.7305 13.1685C90.0563 13.1685 90.3377 13.1007 90.5747 12.9653C90.8117 12.8257 91.0063 12.6395 91.1587 12.4067C91.311 12.174 91.4232 11.9053 91.4951 11.6006C91.5713 11.2959 91.6094 10.9764 91.6094 10.6421V10.5088Z" fill="#696C80"/>
<rect x="0.5" y="34.5" width="159" height="63" rx="4.5" stroke="#9747FF" stroke-dasharray="10 5"/>
<path fill-rule="evenodd" clip-rule="evenodd" d="M128 56C128.552 56 129 56.4477 129 57L129 75C129 75.5523 128.552 76 128 76C127.448 76 127 75.5523 127 75L127 57C127 56.4477 127.448 56 128 56Z" fill="#BABDCC"/>
<path fill-rule="evenodd" clip-rule="evenodd" d="M127.293 56.2929C127.683 55.9024 128.317 55.9024 128.707 56.2929L135.707 63.2929C136.098 63.6834 136.098 64.3166 135.707 64.7071C135.317 65.0976 134.683 65.0976 134.293 64.7071L128 58.4142L121.707 64.7071C121.317 65.0976 120.683 65.0976 120.293 64.7071C119.902 64.3166 119.902 63.6834 120.293 63.2929L127.293 56.2929Z" fill="#12131A"/>
<path fill-rule="evenodd" clip-rule="evenodd" d="M80 67C80.5523 67 81 67.4477 81 68L81 75C81 75.5523 80.5523 76 80 76C79.4477 76 79 75.5523 79 75L79 68C79 67.4477 79.4477 67 80 67Z" fill="#12131A"/>
<path d="M80.7071 56.2929C80.3166 55.9024 79.6834 55.9024 79.2929 56.2929L72.2929 63.2929C72.0069 63.5789 71.9214 64.009 72.0761 64.3827C72.2309 64.7564 72.5956 65 73 65H87C87.4045 65 87.7691 64.7564 87.9239 64.3827C88.0787 64.009 87.9931 63.5789 87.7071 63.2929L80.7071 56.2929Z" fill="#12131A"/>
<path fill-rule="evenodd" clip-rule="evenodd" d="M32 56C32.5523 56 33 56.4477 33 57L33 75C33 75.5523 32.5523 76 32 76C31.4477 76 31 75.5523 31 75L31 57C31 56.4477 31.4477 56 32 56Z" fill="#12131A"/>
<path fill-rule="evenodd" clip-rule="evenodd" d="M31.2929 56.2929C31.6834 55.9024 32.3166 55.9024 32.7071 56.2929L39.7071 63.2929C40.0976 63.6834 40.0976 64.3166 39.7071 64.7071C39.3166 65.0976 38.6834 65.0976 38.2929 64.7071L32 58.4142L25.7071 64.7071C25.3166 65.0976 24.6834 65.0976 24.2929 64.7071C23.9024 64.3166 23.9024 63.6834 24.2929 63.2929L31.2929 56.2929Z" fill="#12131A"/>
</svg>
