<svg width="160" height="98" viewBox="0 0 160 98" fill="none" xmlns="http://www.w3.org/2000/svg">
<rect x="0.5" y="34.5" width="159" height="63" rx="4.5" stroke="#9747FF" stroke-dasharray="10 5"/>
<path d="M118 62.8C118 61.1198 118 60.2798 118.327 59.638C118.615 59.0735 119.074 58.6146 119.638 58.327C120.28 58 121.12 58 122.8 58H133.2C134.88 58 135.72 58 136.362 58.327C136.926 58.6146 137.385 59.0735 137.673 59.638C138 60.2798 138 61.1198 138 62.8V69.2C138 70.8802 138 71.7202 137.673 72.362C137.385 72.9265 136.926 73.3854 136.362 73.673C135.72 74 134.88 74 133.2 74H122.8C121.12 74 120.28 74 119.638 73.673C119.074 73.3854 118.615 72.9265 118.327 72.362C118 71.7202 118 70.8802 118 69.2V62.8Z" fill="#BABDCC"/>
<path d="M122 69C122 68.4477 122.448 68 123 68H127C127.552 68 128 68.4477 128 69C128 69.5523 127.552 70 127 70H123C122.448 70 122 69.5523 122 69Z" fill="#12131A"/>
<path d="M118 62H138V64H118V62Z" fill="#12131A"/>
<path fill-rule="evenodd" clip-rule="evenodd" d="M70.8073 62C70.5241 62 70.3826 62 70.2733 61.9425C70.1794 61.8932 70.0992 61.8094 70.0539 61.7135C70.0012 61.6018 70.007 61.466 70.0187 61.1944C70.0486 60.5015 70.1261 60.0323 70.327 59.638C70.6146 59.0735 71.0735 58.6146 71.638 58.327C72.2798 58 73.1198 58 74.8 58H85.2C86.8802 58 87.7202 58 88.362 58.327C88.9265 58.6146 89.3854 59.0735 89.673 59.638C89.8739 60.0323 89.9514 60.5015 89.9813 61.1944C89.993 61.466 89.9988 61.6018 89.9461 61.7135C89.9008 61.8094 89.8206 61.8932 89.7267 61.9425C89.6174 62 89.4759 62 89.1927 62H70.8073ZM70 64.8C70 64.52 70 64.38 70.0545 64.273C70.1024 64.1789 70.1789 64.1024 70.273 64.0545C70.38 64 70.52 64 70.8 64H89.2C89.48 64 89.62 64 89.727 64.0545C89.8211 64.1024 89.8976 64.1789 89.9455 64.273C90 64.38 90 64.52 90 64.8V69.2C90 70.8802 90 71.7202 89.673 72.362C89.3854 72.9265 88.9265 73.3854 88.362 73.673C87.7202 74 86.8802 74 85.2 74H74.8C73.1198 74 72.2798 74 71.638 73.673C71.0735 73.3854 70.6146 72.9265 70.327 72.362C70 71.7202 70 70.8802 70 69.2V64.8ZM75 68C74.4477 68 74 68.4477 74 69C74 69.5523 74.4477 70 75 70H79C79.5523 70 80 69.5523 80 69C80 68.4477 79.5523 68 79 68H75Z" fill="#12131A"/>
<path d="M26 69C26 68.4477 26.4477 68 27 68H31C31.5523 68 32 68.4477 32 69C32 69.5523 31.5523 70 31 70H27C26.4477 70 26 69.5523 26 69Z" fill="#12131A"/>
<path d="M22 63H42V65H22V63Z" fill="#12131A"/>
<path fill-rule="evenodd" clip-rule="evenodd" d="M27.7587 58H36.2413C37.0463 58 37.7106 58 38.2518 58.0442C38.8139 58.0901 39.3306 58.1887 39.816 58.436C40.5686 58.8195 41.1805 59.4314 41.564 60.184C41.8113 60.6694 41.9099 61.1861 41.9558 61.7482C42 62.2894 42 62.9537 42 63.7587V68.2413C42 69.0463 42 69.7106 41.9558 70.2518C41.9099 70.8139 41.8113 71.3306 41.564 71.816C41.1805 72.5686 40.5686 73.1805 39.816 73.564C39.3306 73.8113 38.8139 73.9099 38.2518 73.9558C37.7106 74 37.0463 74 36.2413 74H27.7587C26.9537 74 26.2894 74 25.7482 73.9558C25.1861 73.9099 24.6694 73.8113 24.184 73.564C23.4314 73.1805 22.8195 72.5686 22.436 71.816C22.1887 71.3306 22.0901 70.8139 22.0442 70.2518C22 69.7106 22 69.0463 22 68.2413V63.7587C22 62.9537 22 62.2894 22.0442 61.7482C22.0901 61.1861 22.1887 60.6694 22.436 60.184C22.8195 59.4314 23.4314 58.8195 24.184 58.436C24.6694 58.1887 25.1861 58.0901 25.7482 58.0442C26.2894 58 26.9537 58 27.7587 58ZM25.911 60.0376C25.4726 60.0734 25.2484 60.1383 25.092 60.218C24.7157 60.4097 24.4097 60.7157 24.218 61.092C24.1383 61.2484 24.0734 61.4726 24.0376 61.911C24.0008 62.3611 24 62.9434 24 63.8V68.2C24 69.0566 24.0008 69.6389 24.0376 70.089C24.0734 70.5274 24.1383 70.7516 24.218 70.908C24.4097 71.2843 24.7157 71.5903 25.092 71.782C25.2484 71.8617 25.4726 71.9266 25.911 71.9624C26.3611 71.9992 26.9434 72 27.8 72H36.2C37.0566 72 37.6389 71.9992 38.089 71.9624C38.5274 71.9266 38.7516 71.8617 38.908 71.782C39.2843 71.5903 39.5903 71.2843 39.782 70.908C39.8617 70.7516 39.9266 70.5274 39.9624 70.089C39.9992 69.6389 40 69.0566 40 68.2V63.8C40 62.9434 39.9992 62.3611 39.9624 61.911C39.9266 61.4726 39.8617 61.2484 39.782 61.092C39.5903 60.7157 39.2843 60.4097 38.908 60.218C38.7516 60.1383 38.5274 60.0734 38.089 60.0376C37.6389 60.0008 37.0566 60 36.2 60H27.8C26.9434 60 26.3611 60.0008 25.911 60.0376Z" fill="#12131A"/>
<path d="M1.0918 14V4.75781H3.84033C4.22119 4.76204 4.59359 4.81283 4.95752 4.91016C5.32145 5.00326 5.64518 5.14925 5.92871 5.34814C6.21224 5.54704 6.43864 5.80094 6.60791 6.10986C6.77718 6.41878 6.8597 6.78906 6.85547 7.2207C6.85124 7.46191 6.81104 7.68197 6.73486 7.88086C6.66292 8.07975 6.56348 8.25749 6.43652 8.41406C6.30534 8.57487 6.15934 8.71029 5.99854 8.82031C5.84196 8.93034 5.65153 9.03402 5.42725 9.13135V9.15039C5.65999 9.2054 5.88428 9.30485 6.1001 9.44873C6.31592 9.59261 6.49365 9.7513 6.6333 9.9248C6.78141 10.1152 6.89567 10.3289 6.97607 10.5659C7.06071 10.8029 7.10303 11.0589 7.10303 11.334C7.10726 11.7656 7.02474 12.1465 6.85547 12.4766C6.6862 12.8066 6.4598 13.0817 6.17627 13.3018C5.89274 13.526 5.56478 13.6974 5.19238 13.8159C4.82422 13.9344 4.44336 13.9958 4.0498 14H1.0918ZM2.27246 9.67725V13.0034H4.08154C4.32699 12.9992 4.55973 12.959 4.77979 12.8828C4.99984 12.8024 5.1945 12.6924 5.36377 12.5527C5.53304 12.4131 5.66634 12.2417 5.76367 12.0386C5.86523 11.8354 5.91602 11.6048 5.91602 11.3467C5.92025 11.0843 5.87581 10.8516 5.78271 10.6484C5.69385 10.4453 5.56901 10.2718 5.4082 10.1279C5.2474 9.98828 5.05908 9.88037 4.84326 9.8042C4.62744 9.72803 4.39469 9.68571 4.14502 9.67725H2.27246ZM2.27246 8.69971H3.91016C4.13021 8.69548 4.34603 8.66162 4.55762 8.59814C4.76921 8.53044 4.95752 8.43311 5.12256 8.30615C5.2876 8.18343 5.4209 8.03109 5.52246 7.84912C5.62402 7.66715 5.6748 7.45557 5.6748 7.21436C5.6748 6.95622 5.62402 6.73617 5.52246 6.5542C5.42513 6.37223 5.29395 6.22201 5.12891 6.10352C4.95964 5.98926 4.76497 5.90462 4.54492 5.84961C4.3291 5.7946 4.10693 5.76497 3.87842 5.76074H2.27246V8.69971ZM13.4253 14C13.3787 13.9111 13.3407 13.8011 13.311 13.6699C13.2856 13.5345 13.2666 13.3949 13.2539 13.251C13.1354 13.3695 13.0021 13.4816 12.854 13.5874C12.7101 13.6932 12.5514 13.7863 12.3779 13.8667C12.2002 13.9471 12.0119 14.0106 11.813 14.0571C11.6141 14.1037 11.4025 14.127 11.1782 14.127C10.8143 14.127 10.4842 14.0741 10.188 13.9683C9.896 13.8625 9.64844 13.7186 9.44531 13.5366C9.23796 13.3589 9.07715 13.1473 8.96289 12.9019C8.85286 12.6522 8.79785 12.3835 8.79785 12.0957C8.79785 11.7191 8.87191 11.389 9.02002 11.1055C9.17236 10.8219 9.38607 10.585 9.66113 10.3945C9.9362 10.2083 10.2663 10.0687 10.6514 9.97559C11.0407 9.88249 11.4744 9.83594 11.9526 9.83594H13.2349V9.29639C13.2349 9.08903 13.1968 8.90283 13.1206 8.73779C13.0444 8.57275 12.9365 8.43099 12.7969 8.3125C12.6572 8.19824 12.4858 8.10938 12.2827 8.0459C12.0838 7.98242 11.8595 7.95068 11.6099 7.95068C11.3771 7.95068 11.1676 7.98031 10.9814 8.03955C10.7995 8.0988 10.645 8.17708 10.5181 8.27441C10.3911 8.37174 10.2917 8.48812 10.2197 8.62354C10.152 8.75472 10.1182 8.89225 10.1182 9.03613H8.9375C8.94173 8.78646 9.00521 8.54102 9.12793 8.2998C9.25488 8.05859 9.43685 7.84066 9.67383 7.646C9.90658 7.45557 10.1901 7.30111 10.5244 7.18262C10.863 7.06413 11.2459 7.00488 11.6733 7.00488C12.0627 7.00488 12.4245 7.05355 12.7588 7.15088C13.0931 7.24398 13.383 7.38574 13.6284 7.57617C13.8696 7.77083 14.0601 8.01204 14.1997 8.2998C14.3394 8.58757 14.4092 8.92399 14.4092 9.30908V12.502C14.4092 12.7305 14.4303 12.9738 14.4727 13.2319C14.515 13.4858 14.5742 13.708 14.6504 13.8984V14H13.4253ZM11.3496 13.105C11.5781 13.105 11.7918 13.0754 11.9907 13.0161C12.1896 12.9569 12.3716 12.8786 12.5366 12.7812C12.6974 12.6839 12.8371 12.5739 12.9556 12.4512C13.0741 12.3242 13.1672 12.193 13.2349 12.0576V10.6675H12.1431C11.7368 10.6675 11.3813 10.7035 11.0767 10.7754C10.7762 10.8431 10.5371 10.9489 10.3594 11.0928C10.2324 11.1943 10.1351 11.3149 10.0674 11.4546C10.0039 11.5942 9.97217 11.7529 9.97217 11.9307C9.97217 12.0999 9.99967 12.2565 10.0547 12.4004C10.1139 12.5443 10.2007 12.667 10.3149 12.7686C10.4292 12.8743 10.5731 12.9569 10.7466 13.0161C10.9201 13.0754 11.1211 13.105 11.3496 13.105ZM16.7197 14V7.13184H17.7734L17.856 8.14746C17.9575 8.00358 18.0675 7.8724 18.186 7.75391C18.3088 7.63118 18.4378 7.52539 18.5732 7.43652C18.7764 7.30111 18.9964 7.19743 19.2334 7.12549C19.4746 7.04932 19.7285 7.00911 19.9951 7.00488C20.3548 7.00488 20.6807 7.05566 20.9727 7.15723C21.2689 7.25879 21.5207 7.41748 21.728 7.6333C21.9354 7.84912 22.0941 8.12419 22.2041 8.4585C22.3184 8.78857 22.3755 9.18213 22.3755 9.63916V14H21.2012V9.66455C21.2012 9.35986 21.1673 9.10173 21.0996 8.89014C21.0319 8.67855 20.9325 8.50716 20.8013 8.37598C20.6659 8.24479 20.5008 8.14958 20.3062 8.09033C20.1157 8.03109 19.8957 8.00146 19.646 8.00146C19.4302 8.00146 19.2292 8.0332 19.043 8.09668C18.8568 8.15592 18.6854 8.23844 18.5288 8.34424C18.4019 8.43734 18.2834 8.54525 18.1733 8.66797C18.0675 8.79069 17.9744 8.92611 17.894 9.07422V14H16.7197ZM26.584 10.7944L25.7207 11.626V14H24.54V4.25H25.7207V10.2168L26.4888 9.3916L28.7422 7.13184H30.1704L27.3901 9.99463L30.5957 14H29.104L26.584 10.7944ZM46.1284 11.2197C46.0734 11.6471 45.9634 12.0407 45.7983 12.4004C45.6333 12.7559 45.4196 13.0605 45.1572 13.3145C44.8906 13.5726 44.5754 13.7736 44.2114 13.9175C43.8517 14.0571 43.4497 14.127 43.0054 14.127C42.6245 14.127 42.2775 14.0741 41.9644 13.9683C41.6554 13.8582 41.3804 13.708 41.1392 13.5176C40.8937 13.3271 40.6821 13.1029 40.5044 12.8447C40.3309 12.5866 40.187 12.3052 40.0728 12.0005C39.9543 11.6958 39.8654 11.3763 39.8062 11.042C39.7511 10.7077 39.7215 10.3691 39.7173 10.0264V8.73779C39.7215 8.39502 39.7511 8.05648 39.8062 7.72217C39.8654 7.38786 39.9543 7.06836 40.0728 6.76367C40.187 6.45898 40.3309 6.17757 40.5044 5.91943C40.6821 5.65706 40.8937 5.43066 41.1392 5.24023C41.3804 5.0498 41.6554 4.90169 41.9644 4.7959C42.2733 4.68587 42.6203 4.63086 43.0054 4.63086C43.4666 4.63086 43.8792 4.7028 44.2432 4.84668C44.6071 4.98633 44.9202 5.18522 45.1826 5.44336C45.445 5.70573 45.6545 6.01888 45.811 6.38281C45.9718 6.74674 46.0776 7.14876 46.1284 7.58887H44.9541C44.916 7.30957 44.8504 7.04932 44.7573 6.80811C44.6642 6.56689 44.5394 6.35531 44.3828 6.17334C44.2262 5.99137 44.0337 5.84961 43.8052 5.74805C43.5809 5.64225 43.3143 5.58936 43.0054 5.58936C42.7261 5.58936 42.4785 5.6359 42.2627 5.729C42.0511 5.81787 41.8691 5.94059 41.7168 6.09717C41.5602 6.25374 41.429 6.43571 41.3232 6.64307C41.2217 6.85042 41.1392 7.07048 41.0757 7.30322C41.0122 7.53597 40.9657 7.77507 40.936 8.02051C40.9106 8.26172 40.8979 8.49658 40.8979 8.7251V10.0264C40.8979 10.2549 40.9106 10.4919 40.936 10.7373C40.9657 10.9785 41.0122 11.2155 41.0757 11.4482C41.1392 11.6852 41.2217 11.9074 41.3232 12.1147C41.4248 12.3221 41.5539 12.5041 41.7104 12.6606C41.867 12.8215 42.0511 12.9484 42.2627 13.0415C42.4743 13.1304 42.7218 13.1748 43.0054 13.1748C43.3143 13.1748 43.5809 13.1261 43.8052 13.0288C44.0337 12.9315 44.2262 12.7939 44.3828 12.6162C44.5394 12.4427 44.6642 12.2375 44.7573 12.0005C44.8504 11.7593 44.916 11.499 44.9541 11.2197H46.1284ZM52.4634 14C52.4168 13.9111 52.3787 13.8011 52.3491 13.6699C52.3237 13.5345 52.3047 13.3949 52.292 13.251C52.1735 13.3695 52.0402 13.4816 51.8921 13.5874C51.7482 13.6932 51.5895 13.7863 51.416 13.8667C51.2383 13.9471 51.05 14.0106 50.8511 14.0571C50.6522 14.1037 50.4406 14.127 50.2163 14.127C49.8524 14.127 49.5223 14.0741 49.2261 13.9683C48.9341 13.8625 48.6865 13.7186 48.4834 13.5366C48.276 13.3589 48.1152 13.1473 48.001 12.9019C47.891 12.6522 47.8359 12.3835 47.8359 12.0957C47.8359 11.7191 47.91 11.389 48.0581 11.1055C48.2104 10.8219 48.4242 10.585 48.6992 10.3945C48.9743 10.2083 49.3044 10.0687 49.6895 9.97559C50.0788 9.88249 50.5125 9.83594 50.9907 9.83594H52.2729V9.29639C52.2729 9.08903 52.2349 8.90283 52.1587 8.73779C52.0825 8.57275 51.9746 8.43099 51.835 8.3125C51.6953 8.19824 51.5239 8.10938 51.3208 8.0459C51.1219 7.98242 50.8976 7.95068 50.6479 7.95068C50.4152 7.95068 50.2057 7.98031 50.0195 8.03955C49.8376 8.0988 49.6831 8.17708 49.5562 8.27441C49.4292 8.37174 49.3298 8.48812 49.2578 8.62354C49.1901 8.75472 49.1562 8.89225 49.1562 9.03613H47.9756C47.9798 8.78646 48.0433 8.54102 48.166 8.2998C48.293 8.05859 48.4749 7.84066 48.7119 7.646C48.9447 7.45557 49.2282 7.30111 49.5625 7.18262C49.901 7.06413 50.284 7.00488 50.7114 7.00488C51.1007 7.00488 51.4626 7.05355 51.7969 7.15088C52.1312 7.24398 52.4211 7.38574 52.6665 7.57617C52.9077 7.77083 53.0981 8.01204 53.2378 8.2998C53.3774 8.58757 53.4473 8.92399 53.4473 9.30908V12.502C53.4473 12.7305 53.4684 12.9738 53.5107 13.2319C53.5531 13.4858 53.6123 13.708 53.6885 13.8984V14H52.4634ZM50.3877 13.105C50.6162 13.105 50.8299 13.0754 51.0288 13.0161C51.2277 12.9569 51.4097 12.8786 51.5747 12.7812C51.7355 12.6839 51.8752 12.5739 51.9937 12.4512C52.1121 12.3242 52.2052 12.193 52.2729 12.0576V10.6675H51.1812C50.7749 10.6675 50.4194 10.7035 50.1147 10.7754C49.8143 10.8431 49.5752 10.9489 49.3975 11.0928C49.2705 11.1943 49.1732 11.3149 49.1055 11.4546C49.042 11.5942 49.0103 11.7529 49.0103 11.9307C49.0103 12.0999 49.0378 12.2565 49.0928 12.4004C49.152 12.5443 49.2388 12.667 49.353 12.7686C49.4673 12.8743 49.6112 12.9569 49.7847 13.0161C49.9582 13.0754 50.1592 13.105 50.3877 13.105ZM60.2583 7.00488C60.4741 7.00488 60.6984 7.01969 60.9312 7.04932C61.1681 7.07894 61.3459 7.11914 61.4644 7.16992L61.3057 8.31885C61.0771 8.26807 60.8592 8.2321 60.6519 8.21094C60.4487 8.18555 60.235 8.17285 60.0107 8.17285C59.723 8.17285 59.4627 8.20882 59.23 8.28076C58.9972 8.34847 58.7941 8.45003 58.6206 8.58545C58.464 8.70394 58.3265 8.84993 58.208 9.02344C58.0938 9.19271 57.9985 9.38314 57.9224 9.59473V14H56.7417V7.13184H57.8589L57.9097 8.05225L57.916 8.22363C58.1953 7.84701 58.5296 7.55078 58.9189 7.33496C59.3125 7.11491 59.759 7.00488 60.2583 7.00488ZM63.3433 10.5088C63.3433 9.99674 63.4067 9.52702 63.5337 9.09961C63.6649 8.66797 63.8511 8.29769 64.0923 7.98877C64.3293 7.67985 64.617 7.43864 64.9556 7.26514C65.2941 7.09163 65.6729 7.00488 66.0918 7.00488C66.5023 7.00488 66.8599 7.07471 67.1646 7.21436C67.4735 7.34977 67.7401 7.54867 67.9644 7.81104V4.25H69.1387V14H68.0596L68.0088 13.2764C67.7803 13.5557 67.5073 13.7673 67.1899 13.9111C66.8726 14.055 66.5023 14.127 66.0791 14.127C65.6644 14.127 65.2878 14.0381 64.9492 13.8604C64.6149 13.6826 64.3293 13.4372 64.0923 13.124C63.8553 12.8109 63.6712 12.4427 63.54 12.0195C63.4089 11.5921 63.3433 11.133 63.3433 10.6421V10.5088ZM64.5176 10.6421C64.5176 10.9764 64.5535 11.2938 64.6255 11.5942C64.6974 11.8947 64.8096 12.1592 64.9619 12.3877C65.11 12.6162 65.3005 12.7982 65.5332 12.9336C65.766 13.0648 66.0452 13.1304 66.3711 13.1304C66.7646 13.1304 67.0905 13.0415 67.3486 12.8638C67.6068 12.686 67.812 12.4469 67.9644 12.1465V8.95996C67.812 8.68066 67.6068 8.45215 67.3486 8.27441C67.0905 8.09245 66.7689 8.00146 66.3838 8.00146C66.0537 8.00146 65.7702 8.06917 65.5332 8.20459C65.3005 8.34001 65.11 8.52197 64.9619 8.75049C64.8096 8.98324 64.6974 9.25195 64.6255 9.55664C64.5535 9.8571 64.5176 10.1745 64.5176 10.5088V10.6421Z" fill="#696C80"/>
</svg>
