<svg width="160" height="98" viewBox="0 0 160 98" fill="none" xmlns="http://www.w3.org/2000/svg">
<path d="M1.0918 14V4.75781H3.84033C4.22119 4.76204 4.59359 4.81283 4.95752 4.91016C5.32145 5.00326 5.64518 5.14925 5.92871 5.34814C6.21224 5.54704 6.43864 5.80094 6.60791 6.10986C6.77718 6.41878 6.8597 6.78906 6.85547 7.2207C6.85124 7.46191 6.81104 7.68197 6.73486 7.88086C6.66292 8.07975 6.56348 8.25749 6.43652 8.41406C6.30534 8.57487 6.15934 8.71029 5.99854 8.82031C5.84196 8.93034 5.65153 9.03402 5.42725 9.13135V9.15039C5.65999 9.2054 5.88428 9.30485 6.1001 9.44873C6.31592 9.59261 6.49365 9.7513 6.6333 9.9248C6.78141 10.1152 6.89567 10.3289 6.97607 10.5659C7.06071 10.8029 7.10303 11.0589 7.10303 11.334C7.10726 11.7656 7.02474 12.1465 6.85547 12.4766C6.6862 12.8066 6.4598 13.0817 6.17627 13.3018C5.89274 13.526 5.56478 13.6974 5.19238 13.8159C4.82422 13.9344 4.44336 13.9958 4.0498 14H1.0918ZM2.27246 9.67725V13.0034H4.08154C4.32699 12.9992 4.55973 12.959 4.77979 12.8828C4.99984 12.8024 5.1945 12.6924 5.36377 12.5527C5.53304 12.4131 5.66634 12.2417 5.76367 12.0386C5.86523 11.8354 5.91602 11.6048 5.91602 11.3467C5.92025 11.0843 5.87581 10.8516 5.78271 10.6484C5.69385 10.4453 5.56901 10.2718 5.4082 10.1279C5.2474 9.98828 5.05908 9.88037 4.84326 9.8042C4.62744 9.72803 4.39469 9.68571 4.14502 9.67725H2.27246ZM2.27246 8.69971H3.91016C4.13021 8.69548 4.34603 8.66162 4.55762 8.59814C4.76921 8.53044 4.95752 8.43311 5.12256 8.30615C5.2876 8.18343 5.4209 8.03109 5.52246 7.84912C5.62402 7.66715 5.6748 7.45557 5.6748 7.21436C5.6748 6.95622 5.62402 6.73617 5.52246 6.5542C5.42513 6.37223 5.29395 6.22201 5.12891 6.10352C4.95964 5.98926 4.76497 5.90462 4.54492 5.84961C4.3291 5.7946 4.10693 5.76497 3.87842 5.76074H2.27246V8.69971ZM13.4253 14C13.3787 13.9111 13.3407 13.8011 13.311 13.6699C13.2856 13.5345 13.2666 13.3949 13.2539 13.251C13.1354 13.3695 13.0021 13.4816 12.854 13.5874C12.7101 13.6932 12.5514 13.7863 12.3779 13.8667C12.2002 13.9471 12.0119 14.0106 11.813 14.0571C11.6141 14.1037 11.4025 14.127 11.1782 14.127C10.8143 14.127 10.4842 14.0741 10.188 13.9683C9.896 13.8625 9.64844 13.7186 9.44531 13.5366C9.23796 13.3589 9.07715 13.1473 8.96289 12.9019C8.85286 12.6522 8.79785 12.3835 8.79785 12.0957C8.79785 11.7191 8.87191 11.389 9.02002 11.1055C9.17236 10.8219 9.38607 10.585 9.66113 10.3945C9.9362 10.2083 10.2663 10.0687 10.6514 9.97559C11.0407 9.88249 11.4744 9.83594 11.9526 9.83594H13.2349V9.29639C13.2349 9.08903 13.1968 8.90283 13.1206 8.73779C13.0444 8.57275 12.9365 8.43099 12.7969 8.3125C12.6572 8.19824 12.4858 8.10938 12.2827 8.0459C12.0838 7.98242 11.8595 7.95068 11.6099 7.95068C11.3771 7.95068 11.1676 7.98031 10.9814 8.03955C10.7995 8.0988 10.645 8.17708 10.5181 8.27441C10.3911 8.37174 10.2917 8.48812 10.2197 8.62354C10.152 8.75472 10.1182 8.89225 10.1182 9.03613H8.9375C8.94173 8.78646 9.00521 8.54102 9.12793 8.2998C9.25488 8.05859 9.43685 7.84066 9.67383 7.646C9.90658 7.45557 10.1901 7.30111 10.5244 7.18262C10.863 7.06413 11.2459 7.00488 11.6733 7.00488C12.0627 7.00488 12.4245 7.05355 12.7588 7.15088C13.0931 7.24398 13.383 7.38574 13.6284 7.57617C13.8696 7.77083 14.0601 8.01204 14.1997 8.2998C14.3394 8.58757 14.4092 8.92399 14.4092 9.30908V12.502C14.4092 12.7305 14.4303 12.9738 14.4727 13.2319C14.515 13.4858 14.5742 13.708 14.6504 13.8984V14H13.4253ZM11.3496 13.105C11.5781 13.105 11.7918 13.0754 11.9907 13.0161C12.1896 12.9569 12.3716 12.8786 12.5366 12.7812C12.6974 12.6839 12.8371 12.5739 12.9556 12.4512C13.0741 12.3242 13.1672 12.193 13.2349 12.0576V10.6675H12.1431C11.7368 10.6675 11.3813 10.7035 11.0767 10.7754C10.7762 10.8431 10.5371 10.9489 10.3594 11.0928C10.2324 11.1943 10.1351 11.3149 10.0674 11.4546C10.0039 11.5942 9.97217 11.7529 9.97217 11.9307C9.97217 12.0999 9.99967 12.2565 10.0547 12.4004C10.1139 12.5443 10.2007 12.667 10.3149 12.7686C10.4292 12.8743 10.5731 12.9569 10.7466 13.0161C10.9201 13.0754 11.1211 13.105 11.3496 13.105ZM21.2837 12.1782C21.2837 12.0386 21.2562 11.9137 21.2012 11.8037C21.1462 11.6895 21.0531 11.5858 20.9219 11.4927C20.7907 11.3996 20.6172 11.3149 20.4014 11.2388C20.1855 11.1584 19.9168 11.0864 19.5952 11.0229C19.2017 10.9425 18.842 10.8452 18.5161 10.731C18.1945 10.6167 17.9194 10.4792 17.6909 10.3184C17.4582 10.1618 17.2783 9.9777 17.1514 9.76611C17.0244 9.55029 16.9609 9.30062 16.9609 9.01709C16.9609 8.73779 17.0265 8.47754 17.1577 8.23633C17.2889 7.99089 17.473 7.77718 17.71 7.59521C17.9469 7.41325 18.2284 7.26937 18.5542 7.16357C18.8843 7.05778 19.2461 7.00488 19.6396 7.00488C20.0628 7.00488 20.4437 7.0599 20.7822 7.16992C21.1208 7.27995 21.4085 7.43229 21.6455 7.62695C21.8825 7.82161 22.0645 8.05013 22.1914 8.3125C22.3226 8.57064 22.3882 8.84993 22.3882 9.15039H21.2139C21.2139 9.00228 21.1758 8.8584 21.0996 8.71875C21.0234 8.57487 20.9176 8.44792 20.7822 8.33789C20.6468 8.22786 20.4818 8.139 20.2871 8.07129C20.0967 8.00358 19.8809 7.96973 19.6396 7.96973C19.39 7.96973 19.1699 7.99723 18.9795 8.05225C18.7933 8.10726 18.6388 8.18132 18.5161 8.27441C18.3892 8.36751 18.2939 8.47542 18.2305 8.59814C18.167 8.72087 18.1353 8.84782 18.1353 8.979C18.1353 9.11442 18.1606 9.23503 18.2114 9.34082C18.2622 9.44661 18.3511 9.54183 18.478 9.62646C18.6007 9.7111 18.7658 9.78727 18.9731 9.85498C19.1847 9.92269 19.4513 9.98828 19.7729 10.0518C20.1961 10.1406 20.5749 10.2443 20.9092 10.3628C21.2435 10.4771 21.5249 10.6146 21.7534 10.7754C21.9819 10.9404 22.1554 11.1309 22.2739 11.3467C22.3966 11.5625 22.458 11.8122 22.458 12.0957C22.458 12.4004 22.3882 12.6776 22.2485 12.9272C22.1131 13.1769 21.9227 13.3906 21.6772 13.5684C21.4318 13.7461 21.1377 13.8836 20.7949 13.981C20.4521 14.0783 20.0776 14.127 19.6714 14.127C19.2059 14.127 18.7912 14.0656 18.4272 13.9429C18.0633 13.8159 17.7565 13.6488 17.5068 13.4414C17.2529 13.2383 17.0583 13.0013 16.9229 12.7305C16.7917 12.4596 16.7261 12.1782 16.7261 11.8862H17.9004C17.9173 12.1274 17.9808 12.3306 18.0908 12.4956C18.2051 12.6606 18.3468 12.7939 18.5161 12.8955C18.6812 12.9971 18.8652 13.069 19.0684 13.1113C19.2715 13.1536 19.4725 13.1748 19.6714 13.1748C19.9845 13.1748 20.2575 13.1388 20.4902 13.0669C20.723 12.9907 20.9049 12.887 21.0361 12.7559C21.1165 12.6755 21.1779 12.5866 21.2202 12.4893C21.2625 12.3919 21.2837 12.2882 21.2837 12.1782ZM26.584 10.7944L25.7207 11.626V14H24.54V4.25H25.7207V10.2168L26.4888 9.3916L28.7422 7.13184H30.1704L27.3901 9.99463L30.5957 14H29.104L26.584 10.7944ZM35.3691 14.127C34.8867 14.127 34.4424 14.0444 34.0361 13.8794C33.6341 13.7144 33.2892 13.4837 33.0015 13.1875C32.7137 12.8913 32.4894 12.54 32.3286 12.1338C32.1678 11.7275 32.0874 11.2853 32.0874 10.8071V10.5405C32.0874 9.98617 32.1763 9.49105 32.354 9.05518C32.5317 8.61507 32.7687 8.24268 33.0649 7.93799C33.3569 7.63753 33.6891 7.4069 34.0615 7.24609C34.4382 7.08529 34.8232 7.00488 35.2168 7.00488C35.7119 7.00488 36.1436 7.09163 36.5117 7.26514C36.8841 7.43441 37.193 7.66927 37.4385 7.96973C37.6839 8.27441 37.8659 8.632 37.9844 9.04248C38.1071 9.45296 38.1685 9.8973 38.1685 10.3755V10.9023H33.2617V10.9468C33.2913 11.2811 33.3569 11.5752 33.4585 11.8291C33.5643 12.083 33.7082 12.3073 33.8901 12.502C34.0763 12.7093 34.3006 12.8722 34.563 12.9907C34.8254 13.1092 35.1152 13.1685 35.4326 13.1685C35.8516 13.1685 36.224 13.0838 36.5498 12.9146C36.8757 12.7453 37.1465 12.521 37.3623 12.2417L38.0796 12.8003C37.8511 13.1473 37.5083 13.4562 37.0513 13.7271C36.5985 13.9937 36.0378 14.127 35.3691 14.127ZM35.2168 7.96973C34.9798 7.96973 34.7555 8.01416 34.5439 8.10303C34.3324 8.18766 34.1419 8.3125 33.9727 8.47754C33.8034 8.64681 33.6595 8.85417 33.541 9.09961C33.4268 9.34082 33.3464 9.62012 33.2998 9.9375H36.9941V9.88037C36.9941 9.66878 36.9539 9.44238 36.8735 9.20117C36.7931 8.95573 36.681 8.74414 36.5371 8.56641C36.3932 8.38867 36.2113 8.24479 35.9912 8.13477C35.7754 8.02474 35.5173 7.96973 35.2168 7.96973ZM42.9229 5.46875V7.13184H45.5381V8.03955H42.9229V11.772C42.9229 12.0386 42.9567 12.2586 43.0244 12.4321C43.0921 12.6056 43.1852 12.7432 43.3037 12.8447C43.4222 12.9505 43.5576 13.0246 43.71 13.0669C43.8665 13.1092 44.0316 13.1304 44.2051 13.1304C44.332 13.1304 44.4632 13.124 44.5986 13.1113C44.734 13.0944 44.8674 13.0754 44.9985 13.0542C45.1255 13.033 45.244 13.0119 45.354 12.9907C45.4683 12.9653 45.5614 12.9442 45.6333 12.9272L45.7983 13.7588C45.701 13.818 45.5825 13.8709 45.4429 13.9175C45.3032 13.9598 45.1509 13.9958 44.9858 14.0254C44.8208 14.0592 44.6452 14.0846 44.459 14.1016C44.277 14.1185 44.0951 14.127 43.9131 14.127C43.6084 14.127 43.3228 14.0846 43.0562 14C42.7938 13.9111 42.5653 13.7715 42.3706 13.5811C42.1759 13.3949 42.0215 13.1536 41.9072 12.8574C41.7972 12.557 41.7422 12.1951 41.7422 11.772V8.03955H39.9395V7.13184H41.7422V5.46875H42.9229ZM53.771 10.6421C53.771 10.9425 53.7477 11.2324 53.7012 11.5117C53.6589 11.7868 53.5954 12.0449 53.5107 12.2861C53.3965 12.6035 53.2463 12.8892 53.0601 13.1431C52.8781 13.3927 52.658 13.6001 52.3999 13.7651C52.2137 13.8794 52.0085 13.9683 51.7842 14.0317C51.5641 14.0952 51.325 14.127 51.0669 14.127C50.7707 14.127 50.4998 14.091 50.2544 14.019C50.0132 13.9471 49.7952 13.8434 49.6006 13.708C49.5075 13.6403 49.4186 13.5662 49.334 13.4858C49.2493 13.4054 49.1689 13.3166 49.0928 13.2192L49.0356 14H47.9565V4.25H49.1309V7.86816C49.2282 7.74544 49.3361 7.63542 49.4546 7.53809C49.5731 7.43652 49.7 7.34977 49.8354 7.27783C50.0047 7.18896 50.1909 7.12126 50.394 7.07471C50.5972 7.02816 50.8172 7.00488 51.0542 7.00488C51.3504 7.00488 51.6234 7.04508 51.873 7.12549C52.1227 7.20589 52.3491 7.31803 52.5522 7.46191C52.7342 7.59733 52.8971 7.76237 53.041 7.95703C53.1849 8.14746 53.3118 8.36117 53.4219 8.59814C53.5361 8.86475 53.6229 9.16097 53.6821 9.48682C53.7414 9.80843 53.771 10.1491 53.771 10.5088V10.6421ZM52.5967 10.5088C52.5967 10.293 52.5819 10.0835 52.5522 9.88037C52.5269 9.67301 52.4867 9.47835 52.4316 9.29639C52.3555 9.0721 52.256 8.86686 52.1333 8.68066C52.0106 8.49447 51.8604 8.34847 51.6826 8.24268C51.5599 8.1665 51.4224 8.10726 51.27 8.06494C51.1177 8.02262 50.9484 8.00146 50.7622 8.00146C50.5591 8.00146 50.3729 8.02897 50.2036 8.08398C50.0343 8.13477 49.8841 8.20671 49.7529 8.2998C49.6175 8.39714 49.4969 8.51139 49.3911 8.64258C49.2896 8.76953 49.2028 8.90918 49.1309 9.06152V12.064C49.207 12.2163 49.2959 12.3581 49.3975 12.4893C49.5033 12.6162 49.6239 12.7284 49.7593 12.8257C49.8947 12.923 50.047 12.9992 50.2163 13.0542C50.3856 13.105 50.5718 13.1304 50.7749 13.1304C50.9696 13.1304 51.1473 13.1071 51.3081 13.0605C51.4689 13.0098 51.6128 12.9378 51.7397 12.8447C51.909 12.7262 52.0508 12.576 52.165 12.394C52.2793 12.2121 52.3703 12.009 52.438 11.7847C52.493 11.6154 52.5332 11.4334 52.5586 11.2388C52.584 11.0441 52.5967 10.8452 52.5967 10.6421V10.5088ZM60.271 14C60.2244 13.9111 60.1864 13.8011 60.1567 13.6699C60.1313 13.5345 60.1123 13.3949 60.0996 13.251C59.9811 13.3695 59.8478 13.4816 59.6997 13.5874C59.5558 13.6932 59.3971 13.7863 59.2236 13.8667C59.0459 13.9471 58.8576 14.0106 58.6587 14.0571C58.4598 14.1037 58.2482 14.127 58.0239 14.127C57.66 14.127 57.3299 14.0741 57.0337 13.9683C56.7417 13.8625 56.4941 13.7186 56.291 13.5366C56.0837 13.3589 55.9229 13.1473 55.8086 12.9019C55.6986 12.6522 55.6436 12.3835 55.6436 12.0957C55.6436 11.7191 55.7176 11.389 55.8657 11.1055C56.0181 10.8219 56.2318 10.585 56.5068 10.3945C56.7819 10.2083 57.112 10.0687 57.4971 9.97559C57.8864 9.88249 58.3201 9.83594 58.7983 9.83594H60.0806V9.29639C60.0806 9.08903 60.0425 8.90283 59.9663 8.73779C59.8901 8.57275 59.7822 8.43099 59.6426 8.3125C59.5029 8.19824 59.3315 8.10938 59.1284 8.0459C58.9295 7.98242 58.7052 7.95068 58.4556 7.95068C58.2228 7.95068 58.0133 7.98031 57.8271 8.03955C57.6452 8.0988 57.4907 8.17708 57.3638 8.27441C57.2368 8.37174 57.1374 8.48812 57.0654 8.62354C56.9977 8.75472 56.9639 8.89225 56.9639 9.03613H55.7832C55.7874 8.78646 55.8509 8.54102 55.9736 8.2998C56.1006 8.05859 56.2826 7.84066 56.5195 7.646C56.7523 7.45557 57.0358 7.30111 57.3701 7.18262C57.7087 7.06413 58.0916 7.00488 58.519 7.00488C58.9084 7.00488 59.2702 7.05355 59.6045 7.15088C59.9388 7.24398 60.2287 7.38574 60.4741 7.57617C60.7153 7.77083 60.9058 8.01204 61.0454 8.2998C61.1851 8.58757 61.2549 8.92399 61.2549 9.30908V12.502C61.2549 12.7305 61.276 12.9738 61.3184 13.2319C61.3607 13.4858 61.4199 13.708 61.4961 13.8984V14H60.271ZM58.1953 13.105C58.4238 13.105 58.6375 13.0754 58.8364 13.0161C59.0353 12.9569 59.2173 12.8786 59.3823 12.7812C59.5431 12.6839 59.6828 12.5739 59.8013 12.4512C59.9198 12.3242 60.0129 12.193 60.0806 12.0576V10.6675H58.9888C58.5825 10.6675 58.2271 10.7035 57.9224 10.7754C57.6219 10.8431 57.3828 10.9489 57.2051 11.0928C57.0781 11.1943 56.9808 11.3149 56.9131 11.4546C56.8496 11.5942 56.8179 11.7529 56.8179 11.9307C56.8179 12.0999 56.8454 12.2565 56.9004 12.4004C56.9596 12.5443 57.0464 12.667 57.1606 12.7686C57.2749 12.8743 57.4188 12.9569 57.5923 13.0161C57.7658 13.0754 57.9668 13.105 58.1953 13.105ZM63.7495 4.25H67.2598V12.9844H69.5005V14H63.7495V12.9844H66.0854V5.27197H63.7495V4.25ZM71.5571 4.25H75.0674V12.9844H77.3081V14H71.5571V12.9844H73.8931V5.27197H71.5571V4.25ZM86.9756 14V4.75781H89.7241C90.105 4.76204 90.4774 4.81283 90.8413 4.91016C91.2052 5.00326 91.529 5.14925 91.8125 5.34814C92.096 5.54704 92.3224 5.80094 92.4917 6.10986C92.661 6.41878 92.7435 6.78906 92.7393 7.2207C92.735 7.46191 92.6948 7.68197 92.6187 7.88086C92.5467 8.07975 92.4473 8.25749 92.3203 8.41406C92.1891 8.57487 92.0431 8.71029 91.8823 8.82031C91.7257 8.93034 91.5353 9.03402 91.311 9.13135V9.15039C91.5438 9.2054 91.7681 9.30485 91.9839 9.44873C92.1997 9.59261 92.3774 9.7513 92.5171 9.9248C92.6652 10.1152 92.7795 10.3289 92.8599 10.5659C92.9445 10.8029 92.9868 11.0589 92.9868 11.334C92.991 11.7656 92.9085 12.1465 92.7393 12.4766C92.57 12.8066 92.3436 13.0817 92.0601 13.3018C91.7765 13.526 91.4486 13.6974 91.0762 13.8159C90.708 13.9344 90.3271 13.9958 89.9336 14H86.9756ZM88.1562 9.67725V13.0034H89.9653C90.2108 12.9992 90.4435 12.959 90.6636 12.8828C90.8836 12.8024 91.0783 12.6924 91.2476 12.5527C91.4168 12.4131 91.5501 12.2417 91.6475 12.0386C91.749 11.8354 91.7998 11.6048 91.7998 11.3467C91.804 11.0843 91.7596 10.8516 91.6665 10.6484C91.5776 10.4453 91.4528 10.2718 91.292 10.1279C91.1312 9.98828 90.9429 9.88037 90.7271 9.8042C90.5112 9.72803 90.2785 9.68571 90.0288 9.67725H88.1562ZM88.1562 8.69971H89.7939C90.014 8.69548 90.2298 8.66162 90.4414 8.59814C90.653 8.53044 90.8413 8.43311 91.0063 8.30615C91.1714 8.18343 91.3047 8.03109 91.4062 7.84912C91.5078 7.66715 91.5586 7.45557 91.5586 7.21436C91.5586 6.95622 91.5078 6.73617 91.4062 6.5542C91.3089 6.37223 91.1777 6.22201 91.0127 6.10352C90.8434 5.98926 90.6488 5.90462 90.4287 5.84961C90.2129 5.7946 89.9907 5.76497 89.7622 5.76074H88.1562V8.69971ZM99.3091 14C99.2625 13.9111 99.2244 13.8011 99.1948 13.6699C99.1694 13.5345 99.1504 13.3949 99.1377 13.251C99.0192 13.3695 98.8859 13.4816 98.7378 13.5874C98.5939 13.6932 98.4352 13.7863 98.2617 13.8667C98.084 13.9471 97.8957 14.0106 97.6968 14.0571C97.4979 14.1037 97.2863 14.127 97.062 14.127C96.6981 14.127 96.368 14.0741 96.0718 13.9683C95.7798 13.8625 95.5322 13.7186 95.3291 13.5366C95.1217 13.3589 94.9609 13.1473 94.8467 12.9019C94.7367 12.6522 94.6816 12.3835 94.6816 12.0957C94.6816 11.7191 94.7557 11.389 94.9038 11.1055C95.0562 10.8219 95.2699 10.585 95.5449 10.3945C95.82 10.2083 96.1501 10.0687 96.5352 9.97559C96.9245 9.88249 97.3582 9.83594 97.8364 9.83594H99.1187V9.29639C99.1187 9.08903 99.0806 8.90283 99.0044 8.73779C98.9282 8.57275 98.8203 8.43099 98.6807 8.3125C98.541 8.19824 98.3696 8.10938 98.1665 8.0459C97.9676 7.98242 97.7433 7.95068 97.4937 7.95068C97.2609 7.95068 97.0514 7.98031 96.8652 8.03955C96.6833 8.0988 96.5288 8.17708 96.4019 8.27441C96.2749 8.37174 96.1755 8.48812 96.1035 8.62354C96.0358 8.75472 96.002 8.89225 96.002 9.03613H94.8213C94.8255 8.78646 94.889 8.54102 95.0117 8.2998C95.1387 8.05859 95.3206 7.84066 95.5576 7.646C95.7904 7.45557 96.0739 7.30111 96.4082 7.18262C96.7467 7.06413 97.1297 7.00488 97.5571 7.00488C97.9465 7.00488 98.3083 7.05355 98.6426 7.15088C98.9769 7.24398 99.2668 7.38574 99.5122 7.57617C99.7534 7.77083 99.9438 8.01204 100.083 8.2998C100.223 8.58757 100.293 8.92399 100.293 9.30908V12.502C100.293 12.7305 100.314 12.9738 100.356 13.2319C100.399 13.4858 100.458 13.708 100.534 13.8984V14H99.3091ZM97.2334 13.105C97.4619 13.105 97.6756 13.0754 97.8745 13.0161C98.0734 12.9569 98.2554 12.8786 98.4204 12.7812C98.5812 12.6839 98.7209 12.5739 98.8394 12.4512C98.9578 12.3242 99.0509 12.193 99.1187 12.0576V10.6675H98.0269C97.6206 10.6675 97.2651 10.7035 96.9604 10.7754C96.66 10.8431 96.4209 10.9489 96.2432 11.0928C96.1162 11.1943 96.0189 11.3149 95.9512 11.4546C95.8877 11.5942 95.856 11.7529 95.856 11.9307C95.856 12.0999 95.8835 12.2565 95.9385 12.4004C95.9977 12.5443 96.0845 12.667 96.1987 12.7686C96.313 12.8743 96.4569 12.9569 96.6304 13.0161C96.8039 13.0754 97.0049 13.105 97.2334 13.105ZM102.788 4.25H106.298V12.9844H108.539V14H102.788V12.9844H105.124V5.27197H102.788V4.25ZM110.595 4.25H114.105V12.9844H116.346V14H110.595V12.9844H112.931V5.27197H110.595V4.25Z" fill="#696C80"/>
<rect x="0.5" y="34.5" width="159" height="63" rx="4.5" stroke="#9747FF" stroke-dasharray="10 5"/>
<path d="M138 66C138 71.5228 133.523 76 128 76C122.477 76 118 71.5228 118 66C118 60.4772 122.477 56 128 56C133.523 56 138 60.4772 138 66Z" fill="#BABDCC"/>
<path d="M121.5 58.4004C123.405 60.031 124.689 62.365 124.951 65H127V56.0494C127.329 56.0167 127.663 56 128 56C128.337 56 128.671 56.0167 129 56.0494V65H131.049C131.311 62.365 132.595 60.031 134.5 58.4004C135.008 58.8356 135.473 59.3209 135.885 59.8487C134.363 61.1152 133.319 62.9355 133.062 65H137.951C137.983 65.3289 138 65.6625 138 66C138 66.3375 137.983 66.6711 137.951 67H133.062C133.319 69.0645 134.363 70.8848 135.885 72.1513C135.473 72.6791 135.008 73.1644 134.5 73.5996C132.595 71.969 131.311 69.635 131.049 67H129V75.9506C128.671 75.9833 128.337 76 128 76C127.663 76 127.329 75.9833 127 75.9506V67H124.951C124.689 69.635 123.405 71.969 121.5 73.5996C120.992 73.1644 120.527 72.6791 120.115 72.1513C121.637 70.8848 122.681 69.0645 122.938 67H118.049C118.017 66.6711 118 66.3375 118 66C118 65.6625 118.017 65.3289 118.049 65H122.938C122.681 62.9355 121.637 61.1152 120.115 59.8487C120.527 59.3209 120.992 58.8356 121.5 58.4004Z" fill="#12131A"/>
<path fill-rule="evenodd" clip-rule="evenodd" d="M78.9999 56.0498C76.9105 56.2573 75.0102 57.1079 73.4999 58.4008C75.4045 60.0314 76.689 62.3655 76.9506 65.0004H78.9999V56.0498ZM73.4999 73.6C75.0102 74.893 76.9105 75.7436 78.9999 75.9511V67.0004H76.9506C76.689 69.6354 75.4045 71.9695 73.4999 73.6ZM80.9999 75.9511C83.0894 75.7436 84.9897 74.893 86.4999 73.6C84.5954 71.9695 83.3109 69.6354 83.0493 67.0004H80.9999V75.9511ZM86.4999 58.4008C84.9897 57.1079 83.0894 56.2573 80.9999 56.0498V65.0004H83.0493C83.3109 62.3655 84.5954 60.0314 86.4999 58.4008ZM87.8848 59.8491C89.0173 61.2988 89.7588 63.0688 89.9506 65.0004H85.0618C85.3193 62.9359 86.3634 61.1156 87.8848 59.8491ZM89.9506 67.0004C89.7588 68.9321 89.0173 70.7021 87.8848 72.1517C86.3634 70.8852 85.3193 69.065 85.0618 67.0004H89.9506ZM72.1151 72.1517C70.9826 70.7021 70.2411 68.9321 70.0493 67.0004H74.938C74.6806 69.065 73.6365 70.8852 72.1151 72.1517ZM70.0493 65.0004C70.2411 63.0687 70.9826 61.2988 72.1151 59.8491C73.6365 61.1156 74.6806 62.9359 74.938 65.0004H70.0493Z" fill="#12131A"/>
<path d="M25.5 58.4004C27.4046 60.031 28.689 62.365 28.9506 65H31V56.0494C31.3289 56.0167 31.6625 56 32 56C32.3375 56 32.6711 56.0167 33 56.0494V65H35.0494C35.311 62.365 36.5954 60.031 38.5 58.4004C39.0083 58.8356 39.4725 59.3209 39.8848 59.8487C38.3635 61.1152 37.3193 62.9355 37.0619 65H41.9506C41.9833 65.3289 42 65.6625 42 66C42 66.3375 41.9833 66.6711 41.9506 67H37.0619C37.3193 69.0645 38.3635 70.8848 39.8848 72.1513C39.4725 72.6791 39.0083 73.1644 38.5 73.5996C36.5954 71.969 35.311 69.635 35.0494 67H33V75.9506C32.6711 75.9833 32.3375 76 32 76C31.6625 76 31.3289 75.9833 31 75.9506V67H28.9506C28.689 69.635 27.4046 71.969 25.5 73.5996C24.9917 73.1644 24.5275 72.6791 24.1152 72.1513C25.6365 70.8848 26.6807 69.0645 26.9381 67H22.0494C22.0167 66.6711 22 66.3375 22 66C22 65.6625 22.0167 65.3289 22.0494 65H26.9381C26.6807 62.9355 25.6365 61.1152 24.1152 59.8487C24.5275 59.3209 24.9917 58.8356 25.5 58.4004Z" fill="#12131A"/>
<path fill-rule="evenodd" clip-rule="evenodd" d="M32 74C36.4183 74 40 70.4183 40 66C40 61.5817 36.4183 58 32 58C27.5817 58 24 61.5817 24 66C24 70.4183 27.5817 74 32 74ZM32 76C37.5228 76 42 71.5228 42 66C42 60.4772 37.5228 56 32 56C26.4772 56 22 60.4772 22 66C22 71.5228 26.4772 76 32 76Z" fill="#12131A"/>
</svg>
