<svg width="160" height="98" viewBox="0 0 160 98" fill="none" xmlns="http://www.w3.org/2000/svg">
<rect x="0.5" y="34.5" width="159" height="63" rx="4.5" stroke="#9747FF" stroke-dasharray="10 5"/>
<path fill-rule="evenodd" clip-rule="evenodd" d="M132.839 59H123.161H123.161C122.634 59 122.18 59 121.805 59.0306C121.41 59.0629 121.016 59.1342 120.638 59.327C120.074 59.6146 119.615 60.0735 119.327 60.638C119.134 61.0164 119.063 61.4096 119.031 61.805C119 62.1795 119 62.6343 119 63.1614V63.1615V70.8385V70.8386C119 71.3657 119 71.8205 119.031 72.195C119.063 72.5904 119.134 72.9836 119.327 73.362C119.615 73.9265 120.074 74.3854 120.638 74.673C121.016 74.8658 121.41 74.9371 121.805 74.9694C122.18 75 122.634 75 123.161 75H123.161H132.839H132.839C133.366 75 133.82 75 134.195 74.9694C134.59 74.9371 134.984 74.8658 135.362 74.673C135.926 74.3854 136.385 73.9265 136.673 73.362C136.866 72.9836 136.937 72.5904 136.969 72.195C137 71.8205 137 71.3657 137 70.8386V63.1614C137 62.6343 137 62.1795 136.969 61.805C136.937 61.4096 136.866 61.0164 136.673 60.638C136.385 60.0735 135.926 59.6146 135.362 59.327C134.984 59.1342 134.59 59.0629 134.195 59.0306C133.82 59 133.366 59 132.839 59H132.839Z" fill="#BABDCC"/>
<path fill-rule="evenodd" clip-rule="evenodd" d="M119 63H137V65H119V63Z" fill="#12131A"/>
<path d="M125 58C125 57.4477 124.552 57 124 57C123.448 57 123 57.4477 123 58V60C123 60.5523 123.448 61 124 61C124.552 61 125 60.5523 125 60V58Z" fill="#12131A"/>
<path d="M133 58C133 57.4477 132.552 57 132 57C131.448 57 131 57.4477 131 58V60C131 60.5523 131.448 61 132 61C132.552 61 133 60.5523 133 60V58Z" fill="#12131A"/>
<path fill-rule="evenodd" clip-rule="evenodd" d="M77 58C77 57.4477 76.5523 57 76 57C75.4477 57 75 57.4477 75 58V59C74.541 59.0003 74.1408 59.0031 73.805 59.0306C73.4096 59.0629 73.0164 59.1342 72.638 59.327C72.0735 59.6146 71.6146 60.0735 71.327 60.638C71.1342 61.0164 71.0629 61.4096 71.0306 61.805C71.0136 62.0124 71.0061 62.2444 71.0027 62.4997C70.9991 62.7759 71.2241 63 71.5003 63H88.4997C88.7759 63 89.0009 62.7759 88.9973 62.4997C88.9939 62.2444 88.9864 62.0124 88.9694 61.805C88.9371 61.4096 88.8658 61.0164 88.673 60.638C88.3854 60.0735 87.9265 59.6146 87.362 59.327C86.9836 59.1342 86.5904 59.0629 86.195 59.0306C85.8593 59.0031 85.459 59.0003 85 59V58C85 57.4477 84.5523 57 84 57C83.4477 57 83 57.4477 83 58V59H77V58ZM89 65.5C89 65.2239 88.7761 65 88.5 65H71.5C71.2239 65 71 65.2239 71 65.5V70.8386C71 71.3657 71 71.8205 71.0306 72.195C71.0629 72.5904 71.1342 72.9836 71.327 73.362C71.6146 73.9265 72.0735 74.3854 72.638 74.673C73.0164 74.8658 73.4096 74.9371 73.805 74.9694C74.1795 75 74.6344 75 75.1615 75H84.8387C85.3658 75 85.8205 75 86.195 74.9694C86.5904 74.9371 86.9836 74.8658 87.362 74.673C87.9265 74.3854 88.3854 73.9265 88.673 73.362C88.8658 72.9836 88.9371 72.5904 88.9694 72.195C89 71.8205 89 71.3657 89 70.8386L89 65.5Z" fill="#12131A"/>
<path d="M24 63H40V65H24V63Z" fill="#12131A"/>
<path fill-rule="evenodd" clip-rule="evenodd" d="M28.7587 59H35.2413C36.0463 59 36.7106 59 37.2518 59.0442C37.8139 59.0901 38.3306 59.1887 38.816 59.436C39.5686 59.8195 40.1805 60.4314 40.564 61.184C40.8113 61.6694 40.9099 62.1861 40.9558 62.7482C41 63.2894 41 63.9537 41 64.7587V69.2413C41 70.0463 41 70.7106 40.9558 71.2518C40.9099 71.8139 40.8113 72.3306 40.564 72.816C40.1805 73.5686 39.5686 74.1805 38.816 74.564C38.3306 74.8113 37.8139 74.9099 37.2518 74.9558C36.7106 75 36.0463 75 35.2413 75H28.7587C27.9537 75 27.2894 75 26.7482 74.9558C26.1861 74.9099 25.6694 74.8113 25.184 74.564C24.4314 74.1805 23.8195 73.5686 23.436 72.816C23.1887 72.3306 23.0901 71.8139 23.0442 71.2518C23 70.7106 23 70.0463 23 69.2413V64.7587C23 63.9537 23 63.2894 23.0442 62.7482C23.0901 62.1861 23.1887 61.6694 23.436 61.184C23.8195 60.4314 24.4314 59.8195 25.184 59.436C25.6694 59.1887 26.1861 59.0901 26.7482 59.0442C27.2894 59 27.9537 59 28.7587 59ZM26.911 61.0376C26.4726 61.0734 26.2484 61.1383 26.092 61.218C25.7157 61.4097 25.4097 61.7157 25.218 62.092C25.1383 62.2484 25.0734 62.4726 25.0376 62.911C25.0008 63.3611 25 63.9434 25 64.8V69.2C25 70.0566 25.0008 70.6389 25.0376 71.089C25.0734 71.5274 25.1383 71.7516 25.218 71.908C25.4097 72.2843 25.7157 72.5903 26.092 72.782C26.2484 72.8617 26.4726 72.9266 26.911 72.9624C27.3611 72.9992 27.9434 73 28.8 73H35.2C36.0566 73 36.6389 72.9992 37.089 72.9624C37.5274 72.9266 37.7516 72.8617 37.908 72.782C38.2843 72.5903 38.5903 72.2843 38.782 71.908C38.8617 71.7516 38.9266 71.5274 38.9624 71.089C38.9992 70.6389 39 70.0566 39 69.2V64.8C39 63.9434 38.9992 63.3611 38.9624 62.911C38.9266 62.4726 38.8617 62.2484 38.782 62.092C38.5903 61.7157 38.2843 61.4097 37.908 61.218C37.7516 61.1383 37.5274 61.0734 37.089 61.0376C36.6389 61.0008 36.0566 61 35.2 61H28.8C27.9434 61 27.3611 61.0008 26.911 61.0376Z" fill="#12131A"/>
<path d="M29 58C29 57.4477 28.5523 57 28 57C27.4477 57 27 57.4477 27 58V60C27 60.5523 27.4477 61 28 61C28.5523 61 29 60.5523 29 60V58Z" fill="#12131A"/>
<path d="M37 58C37 57.4477 36.5523 57 36 57C35.4477 57 35 57.4477 35 58V60C35 60.5523 35.4477 61 36 61C36.5523 61 37 60.5523 37 60V58Z" fill="#12131A"/>
<path d="M7.09033 11.2197C7.03532 11.6471 6.92529 12.0407 6.76025 12.4004C6.59521 12.7559 6.38151 13.0605 6.11914 13.3145C5.85254 13.5726 5.53727 13.7736 5.17334 13.9175C4.81364 14.0571 4.41162 14.127 3.96729 14.127C3.58643 14.127 3.23942 14.0741 2.92627 13.9683C2.61735 13.8582 2.34229 13.708 2.10107 13.5176C1.85563 13.3271 1.64404 13.1029 1.46631 12.8447C1.29281 12.5866 1.14893 12.3052 1.03467 12.0005C0.916178 11.6958 0.827311 11.3763 0.768066 11.042C0.713053 10.7077 0.683431 10.3691 0.679199 10.0264V8.73779C0.683431 8.39502 0.713053 8.05648 0.768066 7.72217C0.827311 7.38786 0.916178 7.06836 1.03467 6.76367C1.14893 6.45898 1.29281 6.17757 1.46631 5.91943C1.64404 5.65706 1.85563 5.43066 2.10107 5.24023C2.34229 5.0498 2.61735 4.90169 2.92627 4.7959C3.23519 4.68587 3.58219 4.63086 3.96729 4.63086C4.42855 4.63086 4.84115 4.7028 5.20508 4.84668C5.56901 4.98633 5.88216 5.18522 6.14453 5.44336C6.4069 5.70573 6.61637 6.01888 6.77295 6.38281C6.93376 6.74674 7.03955 7.14876 7.09033 7.58887H5.91602C5.87793 7.30957 5.81234 7.04932 5.71924 6.80811C5.62614 6.56689 5.5013 6.35531 5.34473 6.17334C5.18815 5.99137 4.99561 5.84961 4.76709 5.74805C4.54281 5.64225 4.2762 5.58936 3.96729 5.58936C3.68799 5.58936 3.44043 5.6359 3.22461 5.729C3.01302 5.81787 2.83105 5.94059 2.67871 6.09717C2.52214 6.25374 2.39095 6.43571 2.28516 6.64307C2.18359 6.85042 2.10107 7.07048 2.0376 7.30322C1.97412 7.53597 1.92757 7.77507 1.89795 8.02051C1.87256 8.26172 1.85986 8.49658 1.85986 8.7251V10.0264C1.85986 10.2549 1.87256 10.4919 1.89795 10.7373C1.92757 10.9785 1.97412 11.2155 2.0376 11.4482C2.10107 11.6852 2.18359 11.9074 2.28516 12.1147C2.38672 12.3221 2.51579 12.5041 2.67236 12.6606C2.82894 12.8215 3.01302 12.9484 3.22461 13.0415C3.4362 13.1304 3.68376 13.1748 3.96729 13.1748C4.2762 13.1748 4.54281 13.1261 4.76709 13.0288C4.99561 12.9315 5.18815 12.7939 5.34473 12.6162C5.5013 12.4427 5.62614 12.2375 5.71924 12.0005C5.81234 11.7593 5.87793 11.499 5.91602 11.2197H7.09033ZM13.4253 14C13.3787 13.9111 13.3407 13.8011 13.311 13.6699C13.2856 13.5345 13.2666 13.3949 13.2539 13.251C13.1354 13.3695 13.0021 13.4816 12.854 13.5874C12.7101 13.6932 12.5514 13.7863 12.3779 13.8667C12.2002 13.9471 12.0119 14.0106 11.813 14.0571C11.6141 14.1037 11.4025 14.127 11.1782 14.127C10.8143 14.127 10.4842 14.0741 10.188 13.9683C9.896 13.8625 9.64844 13.7186 9.44531 13.5366C9.23796 13.3589 9.07715 13.1473 8.96289 12.9019C8.85286 12.6522 8.79785 12.3835 8.79785 12.0957C8.79785 11.7191 8.87191 11.389 9.02002 11.1055C9.17236 10.8219 9.38607 10.585 9.66113 10.3945C9.9362 10.2083 10.2663 10.0687 10.6514 9.97559C11.0407 9.88249 11.4744 9.83594 11.9526 9.83594H13.2349V9.29639C13.2349 9.08903 13.1968 8.90283 13.1206 8.73779C13.0444 8.57275 12.9365 8.43099 12.7969 8.3125C12.6572 8.19824 12.4858 8.10938 12.2827 8.0459C12.0838 7.98242 11.8595 7.95068 11.6099 7.95068C11.3771 7.95068 11.1676 7.98031 10.9814 8.03955C10.7995 8.0988 10.645 8.17708 10.5181 8.27441C10.3911 8.37174 10.2917 8.48812 10.2197 8.62354C10.152 8.75472 10.1182 8.89225 10.1182 9.03613H8.9375C8.94173 8.78646 9.00521 8.54102 9.12793 8.2998C9.25488 8.05859 9.43685 7.84066 9.67383 7.646C9.90658 7.45557 10.1901 7.30111 10.5244 7.18262C10.863 7.06413 11.2459 7.00488 11.6733 7.00488C12.0627 7.00488 12.4245 7.05355 12.7588 7.15088C13.0931 7.24398 13.383 7.38574 13.6284 7.57617C13.8696 7.77083 14.0601 8.01204 14.1997 8.2998C14.3394 8.58757 14.4092 8.92399 14.4092 9.30908V12.502C14.4092 12.7305 14.4303 12.9738 14.4727 13.2319C14.515 13.4858 14.5742 13.708 14.6504 13.8984V14H13.4253ZM11.3496 13.105C11.5781 13.105 11.7918 13.0754 11.9907 13.0161C12.1896 12.9569 12.3716 12.8786 12.5366 12.7812C12.6974 12.6839 12.8371 12.5739 12.9556 12.4512C13.0741 12.3242 13.1672 12.193 13.2349 12.0576V10.6675H12.1431C11.7368 10.6675 11.3813 10.7035 11.0767 10.7754C10.7762 10.8431 10.5371 10.9489 10.3594 11.0928C10.2324 11.1943 10.1351 11.3149 10.0674 11.4546C10.0039 11.5942 9.97217 11.7529 9.97217 11.9307C9.97217 12.0999 9.99967 12.2565 10.0547 12.4004C10.1139 12.5443 10.2007 12.667 10.3149 12.7686C10.4292 12.8743 10.5731 12.9569 10.7466 13.0161C10.9201 13.0754 11.1211 13.105 11.3496 13.105ZM16.9038 4.25H20.4141V12.9844H22.6548V14H16.9038V12.9844H19.2397V5.27197H16.9038V4.25ZM27.5615 14.127C27.0791 14.127 26.6348 14.0444 26.2285 13.8794C25.8265 13.7144 25.4816 13.4837 25.1938 13.1875C24.9061 12.8913 24.6818 12.54 24.521 12.1338C24.3602 11.7275 24.2798 11.2853 24.2798 10.8071V10.5405C24.2798 9.98617 24.3687 9.49105 24.5464 9.05518C24.7241 8.61507 24.9611 8.24268 25.2573 7.93799C25.5493 7.63753 25.8815 7.4069 26.2539 7.24609C26.6305 7.08529 27.0156 7.00488 27.4092 7.00488C27.9043 7.00488 28.3359 7.09163 28.7041 7.26514C29.0765 7.43441 29.3854 7.66927 29.6309 7.96973C29.8763 8.27441 30.0583 8.632 30.1768 9.04248C30.2995 9.45296 30.3608 9.8973 30.3608 10.3755V10.9023H25.4541V10.9468C25.4837 11.2811 25.5493 11.5752 25.6509 11.8291C25.7567 12.083 25.9006 12.3073 26.0825 12.502C26.2687 12.7093 26.493 12.8722 26.7554 12.9907C27.0177 13.1092 27.3076 13.1685 27.625 13.1685C28.0439 13.1685 28.4163 13.0838 28.7422 12.9146C29.068 12.7453 29.3389 12.521 29.5547 12.2417L30.272 12.8003C30.0435 13.1473 29.7007 13.4562 29.2437 13.7271C28.7909 13.9937 28.2301 14.127 27.5615 14.127ZM27.4092 7.96973C27.1722 7.96973 26.9479 8.01416 26.7363 8.10303C26.5247 8.18766 26.3343 8.3125 26.165 8.47754C25.9958 8.64681 25.8519 8.85417 25.7334 9.09961C25.6191 9.34082 25.5387 9.62012 25.4922 9.9375H29.1865V9.88037C29.1865 9.66878 29.1463 9.44238 29.0659 9.20117C28.9855 8.95573 28.8734 8.74414 28.7295 8.56641C28.5856 8.38867 28.4036 8.24479 28.1836 8.13477C27.9678 8.02474 27.7096 7.96973 27.4092 7.96973ZM32.335 14V7.13184H33.3887L33.4712 8.14746C33.5728 8.00358 33.6828 7.8724 33.8013 7.75391C33.924 7.63118 34.0531 7.52539 34.1885 7.43652C34.3916 7.30111 34.6117 7.19743 34.8486 7.12549C35.0898 7.04932 35.3438 7.00911 35.6104 7.00488C35.9701 7.00488 36.2959 7.05566 36.5879 7.15723C36.8841 7.25879 37.1359 7.41748 37.3433 7.6333C37.5506 7.84912 37.7093 8.12419 37.8193 8.4585C37.9336 8.78857 37.9907 9.18213 37.9907 9.63916V14H36.8164V9.66455C36.8164 9.35986 36.7826 9.10173 36.7148 8.89014C36.6471 8.67855 36.5477 8.50716 36.4165 8.37598C36.2811 8.24479 36.116 8.14958 35.9214 8.09033C35.731 8.03109 35.5109 8.00146 35.2612 8.00146C35.0454 8.00146 34.8444 8.0332 34.6582 8.09668C34.472 8.15592 34.3006 8.23844 34.144 8.34424C34.0171 8.43734 33.8986 8.54525 33.7886 8.66797C33.6828 8.79069 33.5897 8.92611 33.5093 9.07422V14H32.335ZM39.9204 10.5088C39.9204 9.99674 39.9839 9.52702 40.1108 9.09961C40.242 8.66797 40.4282 8.29769 40.6694 7.98877C40.9064 7.67985 41.1942 7.43864 41.5327 7.26514C41.8713 7.09163 42.25 7.00488 42.6689 7.00488C43.0794 7.00488 43.437 7.07471 43.7417 7.21436C44.0506 7.34977 44.3172 7.54867 44.5415 7.81104V4.25H45.7158V14H44.6367L44.5859 13.2764C44.3574 13.5557 44.0845 13.7673 43.7671 13.9111C43.4497 14.055 43.0794 14.127 42.6562 14.127C42.2415 14.127 41.8649 14.0381 41.5264 13.8604C41.1921 13.6826 40.9064 13.4372 40.6694 13.124C40.4325 12.8109 40.2484 12.4427 40.1172 12.0195C39.986 11.5921 39.9204 11.133 39.9204 10.6421V10.5088ZM41.0947 10.6421C41.0947 10.9764 41.1307 11.2938 41.2026 11.5942C41.2746 11.8947 41.3867 12.1592 41.5391 12.3877C41.6872 12.6162 41.8776 12.7982 42.1104 12.9336C42.3431 13.0648 42.6224 13.1304 42.9482 13.1304C43.3418 13.1304 43.6676 13.0415 43.9258 12.8638C44.1839 12.686 44.3892 12.4469 44.5415 12.1465V8.95996C44.3892 8.68066 44.1839 8.45215 43.9258 8.27441C43.6676 8.09245 43.346 8.00146 42.9609 8.00146C42.6309 8.00146 42.3473 8.06917 42.1104 8.20459C41.8776 8.34001 41.6872 8.52197 41.5391 8.75049C41.3867 8.98324 41.2746 9.25195 41.2026 9.55664C41.1307 9.8571 41.0947 10.1745 41.0947 10.5088V10.6421ZM52.4634 14C52.4168 13.9111 52.3787 13.8011 52.3491 13.6699C52.3237 13.5345 52.3047 13.3949 52.292 13.251C52.1735 13.3695 52.0402 13.4816 51.8921 13.5874C51.7482 13.6932 51.5895 13.7863 51.416 13.8667C51.2383 13.9471 51.05 14.0106 50.8511 14.0571C50.6522 14.1037 50.4406 14.127 50.2163 14.127C49.8524 14.127 49.5223 14.0741 49.2261 13.9683C48.9341 13.8625 48.6865 13.7186 48.4834 13.5366C48.276 13.3589 48.1152 13.1473 48.001 12.9019C47.891 12.6522 47.8359 12.3835 47.8359 12.0957C47.8359 11.7191 47.91 11.389 48.0581 11.1055C48.2104 10.8219 48.4242 10.585 48.6992 10.3945C48.9743 10.2083 49.3044 10.0687 49.6895 9.97559C50.0788 9.88249 50.5125 9.83594 50.9907 9.83594H52.2729V9.29639C52.2729 9.08903 52.2349 8.90283 52.1587 8.73779C52.0825 8.57275 51.9746 8.43099 51.835 8.3125C51.6953 8.19824 51.5239 8.10938 51.3208 8.0459C51.1219 7.98242 50.8976 7.95068 50.6479 7.95068C50.4152 7.95068 50.2057 7.98031 50.0195 8.03955C49.8376 8.0988 49.6831 8.17708 49.5562 8.27441C49.4292 8.37174 49.3298 8.48812 49.2578 8.62354C49.1901 8.75472 49.1562 8.89225 49.1562 9.03613H47.9756C47.9798 8.78646 48.0433 8.54102 48.166 8.2998C48.293 8.05859 48.4749 7.84066 48.7119 7.646C48.9447 7.45557 49.2282 7.30111 49.5625 7.18262C49.901 7.06413 50.284 7.00488 50.7114 7.00488C51.1007 7.00488 51.4626 7.05355 51.7969 7.15088C52.1312 7.24398 52.4211 7.38574 52.6665 7.57617C52.9077 7.77083 53.0981 8.01204 53.2378 8.2998C53.3774 8.58757 53.4473 8.92399 53.4473 9.30908V12.502C53.4473 12.7305 53.4684 12.9738 53.5107 13.2319C53.5531 13.4858 53.6123 13.708 53.6885 13.8984V14H52.4634ZM50.3877 13.105C50.6162 13.105 50.8299 13.0754 51.0288 13.0161C51.2277 12.9569 51.4097 12.8786 51.5747 12.7812C51.7355 12.6839 51.8752 12.5739 51.9937 12.4512C52.1121 12.3242 52.2052 12.193 52.2729 12.0576V10.6675H51.1812C50.7749 10.6675 50.4194 10.7035 50.1147 10.7754C49.8143 10.8431 49.5752 10.9489 49.3975 11.0928C49.2705 11.1943 49.1732 11.3149 49.1055 11.4546C49.042 11.5942 49.0103 11.7529 49.0103 11.9307C49.0103 12.0999 49.0378 12.2565 49.0928 12.4004C49.152 12.5443 49.2388 12.667 49.353 12.7686C49.4673 12.8743 49.6112 12.9569 49.7847 13.0161C49.9582 13.0754 50.1592 13.105 50.3877 13.105ZM60.2583 7.00488C60.4741 7.00488 60.6984 7.01969 60.9312 7.04932C61.1681 7.07894 61.3459 7.11914 61.4644 7.16992L61.3057 8.31885C61.0771 8.26807 60.8592 8.2321 60.6519 8.21094C60.4487 8.18555 60.235 8.17285 60.0107 8.17285C59.723 8.17285 59.4627 8.20882 59.23 8.28076C58.9972 8.34847 58.7941 8.45003 58.6206 8.58545C58.464 8.70394 58.3265 8.84993 58.208 9.02344C58.0938 9.19271 57.9985 9.38314 57.9224 9.59473V14H56.7417V7.13184H57.8589L57.9097 8.05225L57.916 8.22363C58.1953 7.84701 58.5296 7.55078 58.9189 7.33496C59.3125 7.11491 59.759 7.00488 60.2583 7.00488ZM77.1748 10.4644C77.1748 11.0526 77.1071 11.5752 76.9717 12.0322C76.8363 12.485 76.6416 12.8659 76.3877 13.1748C76.1338 13.488 75.8228 13.7249 75.4546 13.8857C75.0864 14.0465 74.6654 14.127 74.1914 14.127C73.7217 14.127 73.3006 14.0487 72.9282 13.8921C72.5558 13.7313 72.2406 13.4922 71.9824 13.1748C71.7243 12.8659 71.5275 12.485 71.3921 12.0322C71.2567 11.5752 71.189 11.0526 71.189 10.4644V8.2998C71.189 7.71159 71.2567 7.19108 71.3921 6.73828C71.5275 6.28125 71.7243 5.89616 71.9824 5.58301C72.2363 5.26986 72.5474 5.03288 72.9155 4.87207C73.2879 4.70703 73.709 4.62451 74.1787 4.62451C74.6527 4.62451 75.0737 4.70703 75.4419 4.87207C75.8143 5.03288 76.1296 5.26986 76.3877 5.58301C76.6416 5.89616 76.8363 6.28125 76.9717 6.73828C77.1071 7.19108 77.1748 7.71159 77.1748 8.2998V10.4644ZM72.3696 10.2295L75.9688 7.46826C75.9349 7.16357 75.8735 6.89486 75.7847 6.66211C75.7 6.42513 75.5837 6.22835 75.4355 6.07178C75.2917 5.91097 75.1139 5.79036 74.9023 5.70996C74.695 5.62956 74.4538 5.58936 74.1787 5.58936C73.8994 5.58936 73.6519 5.63379 73.436 5.72266C73.2244 5.80729 73.0446 5.93213 72.8965 6.09717C72.7188 6.30452 72.5854 6.57324 72.4966 6.90332C72.4119 7.22917 72.3696 7.60791 72.3696 8.03955V9.58838C72.3696 9.69417 72.3696 9.79997 72.3696 9.90576C72.3696 10.0116 72.3696 10.1195 72.3696 10.2295ZM75.9941 10.7119V9.4043C75.9941 9.34082 75.9941 9.22021 75.9941 9.04248C75.9941 8.86051 75.9941 8.71029 75.9941 8.5918L72.4014 11.3403C72.4395 11.6493 72.5072 11.9222 72.6045 12.1592C72.7018 12.3919 72.8288 12.5845 72.9854 12.7368C73.1292 12.8807 73.3027 12.9907 73.5059 13.0669C73.709 13.1388 73.9375 13.1748 74.1914 13.1748C74.458 13.1748 74.695 13.1346 74.9023 13.0542C75.1097 12.9738 75.2853 12.8574 75.4292 12.7051C75.6239 12.4977 75.7656 12.2269 75.8545 11.8926C75.9476 11.5583 75.9941 11.1647 75.9941 10.7119ZM84.8491 14H78.7935V13.1558L81.8213 9.7915C82.0921 9.49105 82.3185 9.22445 82.5005 8.9917C82.6825 8.75895 82.8285 8.54313 82.9385 8.34424C83.0485 8.14958 83.1268 7.96549 83.1733 7.79199C83.2199 7.61426 83.2432 7.43229 83.2432 7.24609C83.2432 7.01758 83.2051 6.80387 83.1289 6.60498C83.057 6.40186 82.9512 6.22624 82.8115 6.07812C82.6676 5.93001 82.4941 5.81364 82.291 5.729C82.0921 5.64014 81.8657 5.5957 81.6118 5.5957C81.3029 5.5957 81.0342 5.64014 80.8057 5.729C80.5814 5.81787 80.3952 5.94271 80.2471 6.10352C80.0947 6.26855 79.9805 6.46745 79.9043 6.7002C79.8324 6.93294 79.7964 7.1932 79.7964 7.48096H78.6157C78.6157 7.09163 78.6834 6.72559 78.8188 6.38281C78.9543 6.03581 79.151 5.73324 79.4092 5.4751C79.6631 5.21696 79.9741 5.01172 80.3423 4.85938C80.7147 4.70703 81.1379 4.63086 81.6118 4.63086C82.0477 4.63086 82.4391 4.69645 82.7861 4.82764C83.1374 4.95459 83.4336 5.13232 83.6748 5.36084C83.916 5.58936 84.1001 5.86019 84.2271 6.17334C84.3582 6.48649 84.4238 6.82715 84.4238 7.19531C84.4238 7.47038 84.3773 7.74333 84.2842 8.01416C84.1911 8.28076 84.0662 8.54525 83.9097 8.80762C83.7489 9.06999 83.5627 9.33024 83.3511 9.58838C83.1437 9.84229 82.9237 10.0962 82.6909 10.3501L80.209 13.0415H84.8491V14Z" fill="#696C80"/>
</svg>
