<svg width="160" height="98" viewBox="0 0 160 98" fill="none" xmlns="http://www.w3.org/2000/svg">
<path d="M7.09033 11.2197C7.03532 11.6471 6.92529 12.0407 6.76025 12.4004C6.59521 12.7559 6.38151 13.0605 6.11914 13.3145C5.85254 13.5726 5.53727 13.7736 5.17334 13.9175C4.81364 14.0571 4.41162 14.127 3.96729 14.127C3.58643 14.127 3.23942 14.0741 2.92627 13.9683C2.61735 13.8582 2.34229 13.708 2.10107 13.5176C1.85563 13.3271 1.64404 13.1029 1.46631 12.8447C1.29281 12.5866 1.14893 12.3052 1.03467 12.0005C0.916178 11.6958 0.827311 11.3763 0.768066 11.042C0.713053 10.7077 0.683431 10.3691 0.679199 10.0264V8.73779C0.683431 8.39502 0.713053 8.05648 0.768066 7.72217C0.827311 7.38786 0.916178 7.06836 1.03467 6.76367C1.14893 6.45898 1.29281 6.17757 1.46631 5.91943C1.64404 5.65706 1.85563 5.43066 2.10107 5.24023C2.34229 5.0498 2.61735 4.90169 2.92627 4.7959C3.23519 4.68587 3.58219 4.63086 3.96729 4.63086C4.42855 4.63086 4.84115 4.7028 5.20508 4.84668C5.56901 4.98633 5.88216 5.18522 6.14453 5.44336C6.4069 5.70573 6.61637 6.01888 6.77295 6.38281C6.93376 6.74674 7.03955 7.14876 7.09033 7.58887H5.91602C5.87793 7.30957 5.81234 7.04932 5.71924 6.80811C5.62614 6.56689 5.5013 6.35531 5.34473 6.17334C5.18815 5.99137 4.99561 5.84961 4.76709 5.74805C4.54281 5.64225 4.2762 5.58936 3.96729 5.58936C3.68799 5.58936 3.44043 5.6359 3.22461 5.729C3.01302 5.81787 2.83105 5.94059 2.67871 6.09717C2.52214 6.25374 2.39095 6.43571 2.28516 6.64307C2.18359 6.85042 2.10107 7.07048 2.0376 7.30322C1.97412 7.53597 1.92757 7.77507 1.89795 8.02051C1.87256 8.26172 1.85986 8.49658 1.85986 8.7251V10.0264C1.85986 10.2549 1.87256 10.4919 1.89795 10.7373C1.92757 10.9785 1.97412 11.2155 2.0376 11.4482C2.10107 11.6852 2.18359 11.9074 2.28516 12.1147C2.38672 12.3221 2.51579 12.5041 2.67236 12.6606C2.82894 12.8215 3.01302 12.9484 3.22461 13.0415C3.4362 13.1304 3.68376 13.1748 3.96729 13.1748C4.2762 13.1748 4.54281 13.1261 4.76709 13.0288C4.99561 12.9315 5.18815 12.7939 5.34473 12.6162C5.5013 12.4427 5.62614 12.2375 5.71924 12.0005C5.81234 11.7593 5.87793 11.499 5.91602 11.2197H7.09033ZM13.4253 14C13.3787 13.9111 13.3407 13.8011 13.311 13.6699C13.2856 13.5345 13.2666 13.3949 13.2539 13.251C13.1354 13.3695 13.0021 13.4816 12.854 13.5874C12.7101 13.6932 12.5514 13.7863 12.3779 13.8667C12.2002 13.9471 12.0119 14.0106 11.813 14.0571C11.6141 14.1037 11.4025 14.127 11.1782 14.127C10.8143 14.127 10.4842 14.0741 10.188 13.9683C9.896 13.8625 9.64844 13.7186 9.44531 13.5366C9.23796 13.3589 9.07715 13.1473 8.96289 12.9019C8.85286 12.6522 8.79785 12.3835 8.79785 12.0957C8.79785 11.7191 8.87191 11.389 9.02002 11.1055C9.17236 10.8219 9.38607 10.585 9.66113 10.3945C9.9362 10.2083 10.2663 10.0687 10.6514 9.97559C11.0407 9.88249 11.4744 9.83594 11.9526 9.83594H13.2349V9.29639C13.2349 9.08903 13.1968 8.90283 13.1206 8.73779C13.0444 8.57275 12.9365 8.43099 12.7969 8.3125C12.6572 8.19824 12.4858 8.10938 12.2827 8.0459C12.0838 7.98242 11.8595 7.95068 11.6099 7.95068C11.3771 7.95068 11.1676 7.98031 10.9814 8.03955C10.7995 8.0988 10.645 8.17708 10.5181 8.27441C10.3911 8.37174 10.2917 8.48812 10.2197 8.62354C10.152 8.75472 10.1182 8.89225 10.1182 9.03613H8.9375C8.94173 8.78646 9.00521 8.54102 9.12793 8.2998C9.25488 8.05859 9.43685 7.84066 9.67383 7.646C9.90658 7.45557 10.1901 7.30111 10.5244 7.18262C10.863 7.06413 11.2459 7.00488 11.6733 7.00488C12.0627 7.00488 12.4245 7.05355 12.7588 7.15088C13.0931 7.24398 13.383 7.38574 13.6284 7.57617C13.8696 7.77083 14.0601 8.01204 14.1997 8.2998C14.3394 8.58757 14.4092 8.92399 14.4092 9.30908V12.502C14.4092 12.7305 14.4303 12.9738 14.4727 13.2319C14.515 13.4858 14.5742 13.708 14.6504 13.8984V14H13.4253ZM11.3496 13.105C11.5781 13.105 11.7918 13.0754 11.9907 13.0161C12.1896 12.9569 12.3716 12.8786 12.5366 12.7812C12.6974 12.6839 12.8371 12.5739 12.9556 12.4512C13.0741 12.3242 13.1672 12.193 13.2349 12.0576V10.6675H12.1431C11.7368 10.6675 11.3813 10.7035 11.0767 10.7754C10.7762 10.8431 10.5371 10.9489 10.3594 11.0928C10.2324 11.1943 10.1351 11.3149 10.0674 11.4546C10.0039 11.5942 9.97217 11.7529 9.97217 11.9307C9.97217 12.0999 9.99967 12.2565 10.0547 12.4004C10.1139 12.5443 10.2007 12.667 10.3149 12.7686C10.4292 12.8743 10.5731 12.9569 10.7466 13.0161C10.9201 13.0754 11.1211 13.105 11.3496 13.105ZM16.7197 14V7.13184H17.7734L17.856 8.14746C17.9575 8.00358 18.0675 7.8724 18.186 7.75391C18.3088 7.63118 18.4378 7.52539 18.5732 7.43652C18.7764 7.30111 18.9964 7.19743 19.2334 7.12549C19.4746 7.04932 19.7285 7.00911 19.9951 7.00488C20.3548 7.00488 20.6807 7.05566 20.9727 7.15723C21.2689 7.25879 21.5207 7.41748 21.728 7.6333C21.9354 7.84912 22.0941 8.12419 22.2041 8.4585C22.3184 8.78857 22.3755 9.18213 22.3755 9.63916V14H21.2012V9.66455C21.2012 9.35986 21.1673 9.10173 21.0996 8.89014C21.0319 8.67855 20.9325 8.50716 20.8013 8.37598C20.6659 8.24479 20.5008 8.14958 20.3062 8.09033C20.1157 8.03109 19.8957 8.00146 19.646 8.00146C19.4302 8.00146 19.2292 8.0332 19.043 8.09668C18.8568 8.15592 18.6854 8.23844 18.5288 8.34424C18.4019 8.43734 18.2834 8.54525 18.1733 8.66797C18.0675 8.79069 17.9744 8.92611 17.894 9.07422V14H16.7197ZM27.4536 13.1748C27.6652 13.1748 27.8704 13.141 28.0693 13.0732C28.2725 13.0055 28.4523 12.9103 28.6089 12.7876C28.7655 12.6691 28.8903 12.5295 28.9834 12.3687C29.0807 12.2036 29.1315 12.0259 29.1357 11.8354H30.2466C30.2424 12.1401 30.1619 12.4321 30.0054 12.7114C29.853 12.9865 29.6478 13.2277 29.3896 13.4351C29.1315 13.6466 28.8353 13.8159 28.501 13.9429C28.1667 14.0656 27.8175 14.127 27.4536 14.127C26.9331 14.127 26.4782 14.0339 26.0889 13.8477C25.6995 13.6615 25.3758 13.4097 25.1177 13.0923C24.8553 12.7791 24.6585 12.4173 24.5273 12.0068C24.3962 11.5921 24.3306 11.1562 24.3306 10.6992V10.4326C24.3306 9.97982 24.3962 9.54606 24.5273 9.13135C24.6585 8.71663 24.8553 8.35059 25.1177 8.0332C25.3758 7.72005 25.6995 7.47038 26.0889 7.28418C26.4782 7.09798 26.9331 7.00488 27.4536 7.00488C27.8599 7.00488 28.2323 7.07048 28.5708 7.20166C28.9136 7.32861 29.2098 7.50212 29.4595 7.72217C29.7049 7.94645 29.8975 8.21094 30.0371 8.51562C30.1768 8.82031 30.2466 9.14616 30.2466 9.49316H29.1357C29.1315 9.28581 29.085 9.09115 28.9961 8.90918C28.9115 8.72298 28.7951 8.56006 28.647 8.42041C28.4989 8.28076 28.3211 8.17074 28.1138 8.09033C27.9106 8.00993 27.6906 7.96973 27.4536 7.96973C27.0897 7.96973 26.7829 8.04378 26.5332 8.19189C26.2878 8.33577 26.0889 8.52409 25.9365 8.75684C25.7842 8.99382 25.6742 9.2583 25.6064 9.55029C25.543 9.84229 25.5112 10.1364 25.5112 10.4326V10.6992C25.5112 10.9997 25.543 11.298 25.6064 11.5942C25.6742 11.8862 25.7842 12.1486 25.9365 12.3813C26.0846 12.6183 26.2814 12.8109 26.5269 12.959C26.7765 13.1029 27.0854 13.1748 27.4536 13.1748ZM35.3691 14.127C34.8867 14.127 34.4424 14.0444 34.0361 13.8794C33.6341 13.7144 33.2892 13.4837 33.0015 13.1875C32.7137 12.8913 32.4894 12.54 32.3286 12.1338C32.1678 11.7275 32.0874 11.2853 32.0874 10.8071V10.5405C32.0874 9.98617 32.1763 9.49105 32.354 9.05518C32.5317 8.61507 32.7687 8.24268 33.0649 7.93799C33.3569 7.63753 33.6891 7.4069 34.0615 7.24609C34.4382 7.08529 34.8232 7.00488 35.2168 7.00488C35.7119 7.00488 36.1436 7.09163 36.5117 7.26514C36.8841 7.43441 37.193 7.66927 37.4385 7.96973C37.6839 8.27441 37.8659 8.632 37.9844 9.04248C38.1071 9.45296 38.1685 9.8973 38.1685 10.3755V10.9023H33.2617V10.9468C33.2913 11.2811 33.3569 11.5752 33.4585 11.8291C33.5643 12.083 33.7082 12.3073 33.8901 12.502C34.0763 12.7093 34.3006 12.8722 34.563 12.9907C34.8254 13.1092 35.1152 13.1685 35.4326 13.1685C35.8516 13.1685 36.224 13.0838 36.5498 12.9146C36.8757 12.7453 37.1465 12.521 37.3623 12.2417L38.0796 12.8003C37.8511 13.1473 37.5083 13.4562 37.0513 13.7271C36.5985 13.9937 36.0378 14.127 35.3691 14.127ZM35.2168 7.96973C34.9798 7.96973 34.7555 8.01416 34.5439 8.10303C34.3324 8.18766 34.1419 8.3125 33.9727 8.47754C33.8034 8.64681 33.6595 8.85417 33.541 9.09961C33.4268 9.34082 33.3464 9.62012 33.2998 9.9375H36.9941V9.88037C36.9941 9.66878 36.9539 9.44238 36.8735 9.20117C36.7931 8.95573 36.681 8.74414 36.5371 8.56641C36.3932 8.38867 36.2113 8.24479 35.9912 8.13477C35.7754 8.02474 35.5173 7.96973 35.2168 7.96973ZM44.6431 7.00488C44.8589 7.00488 45.0832 7.01969 45.3159 7.04932C45.5529 7.07894 45.7306 7.11914 45.8491 7.16992L45.6904 8.31885C45.4619 8.26807 45.244 8.2321 45.0366 8.21094C44.8335 8.18555 44.6198 8.17285 44.3955 8.17285C44.1077 8.17285 43.8475 8.20882 43.6147 8.28076C43.382 8.34847 43.1789 8.45003 43.0054 8.58545C42.8488 8.70394 42.7113 8.84993 42.5928 9.02344C42.4785 9.19271 42.3833 9.38314 42.3071 9.59473V14H41.1265V7.13184H42.2437L42.2944 8.05225L42.3008 8.22363C42.5801 7.84701 42.9144 7.55078 43.3037 7.33496C43.6973 7.11491 44.1437 7.00488 44.6431 7.00488Z" fill="#696C80"/>
<rect x="0.5" y="34.5" width="159" height="63" rx="4.5" stroke="#9747FF" stroke-dasharray="10 5"/>
<path d="M119 63.4C119 61.1598 119 60.0397 119.436 59.184C119.819 58.4314 120.431 57.8195 121.184 57.436C122.04 57 123.16 57 125.4 57H130.6C132.84 57 133.96 57 134.816 57.436C135.569 57.8195 136.181 58.4314 136.564 59.184C137 60.0397 137 61.1598 137 63.4V68.6C137 70.8402 137 71.9603 136.564 72.816C136.181 73.5686 135.569 74.1805 134.816 74.564C133.96 75 132.84 75 130.6 75H125.4C123.16 75 122.04 75 121.184 74.564C120.431 74.1805 119.819 73.5686 119.436 72.816C119 71.9603 119 70.8402 119 68.6V63.4Z" fill="#BABDCC"/>
<path fill-rule="evenodd" clip-rule="evenodd" d="M121 68C121 70.8 123.733 73 128 73C130.553 73 132.509 72.2436 133.714 71.0133C134.101 70.6188 134.094 69.9856 133.7 69.5991C133.305 69.2126 132.672 69.2191 132.286 69.6136C131.559 70.3557 130.181 71 128 71C126.963 71 126.117 70.8612 125.435 70.6351C126.367 70.1262 127 69.137 127 68C127 66.3431 125.657 65 124 65C122.343 65 121 66.3431 121 68ZM123 68C123 67.4477 123.448 67 124 67C124.552 67 125 67.4477 125 68C125 68.5523 124.552 69 124 69C123.448 69 123 68.5523 123 68Z" fill="#12131A"/>
<path fill-rule="evenodd" clip-rule="evenodd" d="M130.565 61.3649C129.633 61.8738 129 62.863 129 64C129 65.6569 130.343 67 132 67C133.657 67 135 65.6569 135 64C135 61.2 132.267 59 128 59C125.447 59 123.491 59.7564 122.286 60.9867C121.899 61.3812 121.906 62.0144 122.3 62.4009C122.695 62.7874 123.328 62.7809 123.714 62.3864C124.441 61.6443 125.819 61 128 61C129.037 61 129.883 61.1388 130.565 61.3649ZM133 64C133 64.5523 132.552 65 132 65C131.448 65 131 64.5523 131 64C131 63.4477 131.448 63 132 63C132.552 63 133 63.4477 133 64Z" fill="#12131A"/>
<path d="M76 67C75.4477 67 75 67.4477 75 68C75 68.5523 75.4477 69 76 69C76.5523 69 77 68.5523 77 68C77 67.4477 76.5523 67 76 67Z" fill="#12131A"/>
<path d="M84 65C84.5523 65 85 64.5523 85 64C85 63.4477 84.5523 63 84 63C83.4477 63 83 63.4477 83 64C83 64.5523 83.4477 65 84 65Z" fill="#12131A"/>
<path fill-rule="evenodd" clip-rule="evenodd" d="M71 63.4C71 61.1598 71 60.0397 71.436 59.184C71.8195 58.4314 72.4314 57.8195 73.184 57.436C74.0397 57 75.1598 57 77.4 57H82.6C84.8402 57 85.9603 57 86.816 57.436C87.5686 57.8195 88.1805 58.4314 88.564 59.184C89 60.0397 89 61.1598 89 63.4V68.6C89 70.8402 89 71.9603 88.564 72.816C88.1805 73.5686 87.5686 74.1805 86.816 74.564C85.9603 75 84.8402 75 82.6 75H77.4C75.1598 75 74.0397 75 73.184 74.564C72.4314 74.1805 71.8195 73.5686 71.436 72.816C71 71.9603 71 70.8402 71 68.6V63.4ZM76 65C74.3431 65 73 66.3431 73 68C73 70.8 75.7333 73 80 73C82.5527 73 84.5088 72.2436 85.7143 71.0133C86.1008 70.6188 86.0943 69.9856 85.6999 69.5991C85.3054 69.2126 84.6722 69.2191 84.2857 69.6136C83.5586 70.3557 82.1813 71 80 71C78.9635 71 78.1171 70.8612 77.4351 70.6351C78.3675 70.1262 79 69.137 79 68C79 66.3431 77.6569 65 76 65ZM84 67C82.3431 67 81 65.6569 81 64C81 62.863 81.6325 61.8738 82.5649 61.3649C81.8829 61.1388 81.0365 61 80 61C77.8187 61 76.4414 61.6443 75.7143 62.3864C75.3278 62.7809 74.6946 62.7874 74.3001 62.4009C73.9057 62.0144 73.8992 61.3812 74.2857 60.9867C75.4912 59.7564 77.4473 59 80 59C84.2667 59 87 61.2 87 64C87 65.6569 85.6569 67 84 67Z" fill="#12131A"/>
<path fill-rule="evenodd" clip-rule="evenodd" d="M23 69C23 70.9975 24.3351 72.5198 25.9961 73.4888C27.671 74.4658 29.8502 75 32 75C34.1033 75 37.439 74.4843 39.7186 72.1291C40.1027 71.7322 40.0923 71.0991 39.6955 70.715C39.2986 70.3309 38.6655 70.3413 38.2814 70.7381C36.561 72.5157 33.8967 73 32 73C30.9086 73 29.8274 72.8379 28.8521 72.5463C30.1288 71.8782 31 70.5408 31 69C31 66.7909 29.2091 65 27 65C24.7909 65 23 66.7909 23 69ZM25 69C25 67.8954 25.8954 67 27 67C28.1046 67 29 67.8954 29 69C29 70.1046 28.1046 71 27 71C25.8954 71 25 70.1046 25 69Z" fill="#12131A"/>
<path fill-rule="evenodd" clip-rule="evenodd" d="M32 59C33.0914 59 34.1726 59.1621 35.1479 59.4537C33.8712 60.1218 33 61.4592 33 63C33 65.2091 34.7909 67 37 67C39.2091 67 41 65.2091 41 63C41 61.0025 39.6649 59.4802 38.0039 58.5112C36.329 57.5342 34.1498 57 32 57C29.8967 57 26.561 57.5157 24.2814 59.8709C23.8973 60.2678 23.9077 60.9009 24.3045 61.285C24.7014 61.6691 25.3345 61.6587 25.7186 61.2619C27.439 59.4843 30.1033 59 32 59ZM39 63C39 64.1046 38.1046 65 37 65C35.8954 65 35 64.1046 35 63C35 61.8954 35.8954 61 37 61C38.1046 61 39 61.8954 39 63Z" fill="#12131A"/>
</svg>
