<svg width="160" height="98" viewBox="0 0 160 98" fill="none" xmlns="http://www.w3.org/2000/svg">
<rect x="0.5" y="34.5" width="159" height="63" rx="4.5" stroke="#9747FF" stroke-dasharray="10 5"/>
<path d="M128 56C122.477 56 118 60.4772 118 66C118 71.5228 122.477 76 128 76C133.523 76 138 71.5228 138 66C138 60.4772 133.523 56 128 56Z" fill="#BABDCC"/>
<path fill-rule="evenodd" clip-rule="evenodd" d="M131.707 63.2929C132.098 63.6834 132.098 64.3166 131.707 64.7071L127.707 68.7071C127.317 69.0976 126.683 69.0976 126.293 68.7071L124.293 66.7071C123.902 66.3166 123.902 65.6834 124.293 65.2929C124.683 64.9024 125.317 64.9024 125.707 65.2929L127 66.5858L130.293 63.2929C130.683 62.9024 131.317 62.9024 131.707 63.2929Z" fill="#12131A"/>
<path fill-rule="evenodd" clip-rule="evenodd" d="M70 66C70 60.4772 74.4772 56 80 56C85.5228 56 90 60.4772 90 66C90 71.5228 85.5228 76 80 76C74.4772 76 70 71.5228 70 66ZM83.7071 64.7071C84.0976 64.3166 84.0976 63.6834 83.7071 63.2929C83.3166 62.9024 82.6834 62.9024 82.2929 63.2929L79 66.5858L77.7071 65.2929C77.3166 64.9024 76.6834 64.9024 76.2929 65.2929C75.9024 65.6834 75.9024 66.3166 76.2929 66.7071L78.2929 68.7071C78.6834 69.0976 79.3166 69.0976 79.7071 68.7071L83.7071 64.7071Z" fill="#12131A"/>
<path fill-rule="evenodd" clip-rule="evenodd" d="M32 58C27.5817 58 24 61.5817 24 66C24 70.4183 27.5817 74 32 74C36.4183 74 40 70.4183 40 66C40 61.5817 36.4183 58 32 58ZM22 66C22 60.4772 26.4772 56 32 56C37.5228 56 42 60.4772 42 66C42 71.5228 37.5228 76 32 76C26.4772 76 22 71.5228 22 66Z" fill="#12131A"/>
<path fill-rule="evenodd" clip-rule="evenodd" d="M35.7071 63.2929C36.0976 63.6834 36.0976 64.3166 35.7071 64.7071L31.7071 68.7071C31.3166 69.0976 30.6834 69.0976 30.2929 68.7071L28.2929 66.7071C27.9024 66.3166 27.9024 65.6834 28.2929 65.2929C28.6834 64.9024 29.3166 64.9024 29.7071 65.2929L31 66.5858L34.2929 63.2929C34.6834 62.9024 35.3166 62.9024 35.7071 63.2929Z" fill="#12131A"/>
<path d="M7.09033 11.2197C7.03532 11.6471 6.92529 12.0407 6.76025 12.4004C6.59521 12.7559 6.38151 13.0605 6.11914 13.3145C5.85254 13.5726 5.53727 13.7736 5.17334 13.9175C4.81364 14.0571 4.41162 14.127 3.96729 14.127C3.58643 14.127 3.23942 14.0741 2.92627 13.9683C2.61735 13.8582 2.34229 13.708 2.10107 13.5176C1.85563 13.3271 1.64404 13.1029 1.46631 12.8447C1.29281 12.5866 1.14893 12.3052 1.03467 12.0005C0.916178 11.6958 0.827311 11.3763 0.768066 11.042C0.713053 10.7077 0.683431 10.3691 0.679199 10.0264V8.73779C0.683431 8.39502 0.713053 8.05648 0.768066 7.72217C0.827311 7.38786 0.916178 7.06836 1.03467 6.76367C1.14893 6.45898 1.29281 6.17757 1.46631 5.91943C1.64404 5.65706 1.85563 5.43066 2.10107 5.24023C2.34229 5.0498 2.61735 4.90169 2.92627 4.7959C3.23519 4.68587 3.58219 4.63086 3.96729 4.63086C4.42855 4.63086 4.84115 4.7028 5.20508 4.84668C5.56901 4.98633 5.88216 5.18522 6.14453 5.44336C6.4069 5.70573 6.61637 6.01888 6.77295 6.38281C6.93376 6.74674 7.03955 7.14876 7.09033 7.58887H5.91602C5.87793 7.30957 5.81234 7.04932 5.71924 6.80811C5.62614 6.56689 5.5013 6.35531 5.34473 6.17334C5.18815 5.99137 4.99561 5.84961 4.76709 5.74805C4.54281 5.64225 4.2762 5.58936 3.96729 5.58936C3.68799 5.58936 3.44043 5.6359 3.22461 5.729C3.01302 5.81787 2.83105 5.94059 2.67871 6.09717C2.52214 6.25374 2.39095 6.43571 2.28516 6.64307C2.18359 6.85042 2.10107 7.07048 2.0376 7.30322C1.97412 7.53597 1.92757 7.77507 1.89795 8.02051C1.87256 8.26172 1.85986 8.49658 1.85986 8.7251V10.0264C1.85986 10.2549 1.87256 10.4919 1.89795 10.7373C1.92757 10.9785 1.97412 11.2155 2.0376 11.4482C2.10107 11.6852 2.18359 11.9074 2.28516 12.1147C2.38672 12.3221 2.51579 12.5041 2.67236 12.6606C2.82894 12.8215 3.01302 12.9484 3.22461 13.0415C3.4362 13.1304 3.68376 13.1748 3.96729 13.1748C4.2762 13.1748 4.54281 13.1261 4.76709 13.0288C4.99561 12.9315 5.18815 12.7939 5.34473 12.6162C5.5013 12.4427 5.62614 12.2375 5.71924 12.0005C5.81234 11.7593 5.87793 11.499 5.91602 11.2197H7.09033ZM10.0864 8.15381C10.1795 8.01416 10.2832 7.88721 10.3975 7.77295C10.5117 7.65446 10.6323 7.55078 10.7593 7.46191C10.9624 7.3138 11.1846 7.20166 11.4258 7.12549C11.6712 7.04932 11.9315 7.00911 12.2065 7.00488C12.5662 7.00488 12.8921 7.05778 13.1841 7.16357C13.4803 7.26514 13.7321 7.42594 13.9395 7.646C14.1468 7.86605 14.3055 8.14535 14.4155 8.48389C14.5298 8.8182 14.5869 9.21598 14.5869 9.67725V14H13.4126V9.66455C13.4126 9.39372 13.3809 9.15674 13.3174 8.95361C13.2539 8.74626 13.1608 8.57487 13.0381 8.43945C12.9069 8.29134 12.7419 8.18132 12.543 8.10938C12.3441 8.0332 12.1156 7.99723 11.8574 8.00146C11.6458 8.00146 11.4448 8.03109 11.2544 8.09033C11.064 8.14958 10.8883 8.23421 10.7275 8.34424C10.6006 8.42887 10.4821 8.52832 10.3721 8.64258C10.2663 8.7526 10.1711 8.87533 10.0864 9.01074V14H8.91211V4.25H10.0864V8.15381ZM19.7539 14.127C19.2715 14.127 18.8271 14.0444 18.4209 13.8794C18.0189 13.7144 17.674 13.4837 17.3862 13.1875C17.0985 12.8913 16.8742 12.54 16.7134 12.1338C16.5526 11.7275 16.4722 11.2853 16.4722 10.8071V10.5405C16.4722 9.98617 16.561 9.49105 16.7388 9.05518C16.9165 8.61507 17.1535 8.24268 17.4497 7.93799C17.7417 7.63753 18.0739 7.4069 18.4463 7.24609C18.8229 7.08529 19.208 7.00488 19.6016 7.00488C20.0967 7.00488 20.5283 7.09163 20.8965 7.26514C21.2689 7.43441 21.5778 7.66927 21.8232 7.96973C22.0687 8.27441 22.2507 8.632 22.3691 9.04248C22.4919 9.45296 22.5532 9.8973 22.5532 10.3755V10.9023H17.6465V10.9468C17.6761 11.2811 17.7417 11.5752 17.8433 11.8291C17.9491 12.083 18.0929 12.3073 18.2749 12.502C18.4611 12.7093 18.6854 12.8722 18.9478 12.9907C19.2101 13.1092 19.5 13.1685 19.8174 13.1685C20.2363 13.1685 20.6087 13.0838 20.9346 12.9146C21.2604 12.7453 21.5312 12.521 21.7471 12.2417L22.4644 12.8003C22.2358 13.1473 21.8931 13.4562 21.436 13.7271C20.9832 13.9937 20.4225 14.127 19.7539 14.127ZM19.6016 7.96973C19.3646 7.96973 19.1403 8.01416 18.9287 8.10303C18.7171 8.18766 18.5267 8.3125 18.3574 8.47754C18.1882 8.64681 18.0443 8.85417 17.9258 9.09961C17.8115 9.34082 17.7311 9.62012 17.6846 9.9375H21.3789V9.88037C21.3789 9.66878 21.3387 9.44238 21.2583 9.20117C21.1779 8.95573 21.0658 8.74414 20.9219 8.56641C20.778 8.38867 20.596 8.24479 20.376 8.13477C20.1602 8.02474 19.902 7.96973 19.6016 7.96973ZM27.4536 13.1748C27.6652 13.1748 27.8704 13.141 28.0693 13.0732C28.2725 13.0055 28.4523 12.9103 28.6089 12.7876C28.7655 12.6691 28.8903 12.5295 28.9834 12.3687C29.0807 12.2036 29.1315 12.0259 29.1357 11.8354H30.2466C30.2424 12.1401 30.1619 12.4321 30.0054 12.7114C29.853 12.9865 29.6478 13.2277 29.3896 13.4351C29.1315 13.6466 28.8353 13.8159 28.501 13.9429C28.1667 14.0656 27.8175 14.127 27.4536 14.127C26.9331 14.127 26.4782 14.0339 26.0889 13.8477C25.6995 13.6615 25.3758 13.4097 25.1177 13.0923C24.8553 12.7791 24.6585 12.4173 24.5273 12.0068C24.3962 11.5921 24.3306 11.1562 24.3306 10.6992V10.4326C24.3306 9.97982 24.3962 9.54606 24.5273 9.13135C24.6585 8.71663 24.8553 8.35059 25.1177 8.0332C25.3758 7.72005 25.6995 7.47038 26.0889 7.28418C26.4782 7.09798 26.9331 7.00488 27.4536 7.00488C27.8599 7.00488 28.2323 7.07048 28.5708 7.20166C28.9136 7.32861 29.2098 7.50212 29.4595 7.72217C29.7049 7.94645 29.8975 8.21094 30.0371 8.51562C30.1768 8.82031 30.2466 9.14616 30.2466 9.49316H29.1357C29.1315 9.28581 29.085 9.09115 28.9961 8.90918C28.9115 8.72298 28.7951 8.56006 28.647 8.42041C28.4989 8.28076 28.3211 8.17074 28.1138 8.09033C27.9106 8.00993 27.6906 7.96973 27.4536 7.96973C27.0897 7.96973 26.7829 8.04378 26.5332 8.19189C26.2878 8.33577 26.0889 8.52409 25.9365 8.75684C25.7842 8.99382 25.6742 9.2583 25.6064 9.55029C25.543 9.84229 25.5112 10.1364 25.5112 10.4326V10.6992C25.5112 10.9997 25.543 11.298 25.6064 11.5942C25.6742 11.8862 25.7842 12.1486 25.9365 12.3813C26.0846 12.6183 26.2814 12.8109 26.5269 12.959C26.7765 13.1029 27.0854 13.1748 27.4536 13.1748ZM34.3916 10.7944L33.5283 11.626V14H32.3477V4.25H33.5283V10.2168L34.2964 9.3916L36.5498 7.13184H37.978L35.1978 9.99463L38.4033 14H36.9116L34.3916 10.7944ZM50.8765 13.1748C51.0881 13.1748 51.2933 13.141 51.4922 13.0732C51.6953 13.0055 51.8752 12.9103 52.0317 12.7876C52.1883 12.6691 52.3132 12.5295 52.4062 12.3687C52.5036 12.2036 52.5544 12.0259 52.5586 11.8354H53.6694C53.6652 12.1401 53.5848 12.4321 53.4282 12.7114C53.2759 12.9865 53.0706 13.2277 52.8125 13.4351C52.5544 13.6466 52.2581 13.8159 51.9238 13.9429C51.5895 14.0656 51.2404 14.127 50.8765 14.127C50.356 14.127 49.901 14.0339 49.5117 13.8477C49.1224 13.6615 48.7987 13.4097 48.5405 13.0923C48.2782 12.7791 48.0814 12.4173 47.9502 12.0068C47.819 11.5921 47.7534 11.1562 47.7534 10.6992V10.4326C47.7534 9.97982 47.819 9.54606 47.9502 9.13135C48.0814 8.71663 48.2782 8.35059 48.5405 8.0332C48.7987 7.72005 49.1224 7.47038 49.5117 7.28418C49.901 7.09798 50.356 7.00488 50.8765 7.00488C51.2827 7.00488 51.6551 7.07048 51.9937 7.20166C52.3364 7.32861 52.6326 7.50212 52.8823 7.72217C53.1278 7.94645 53.3203 8.21094 53.46 8.51562C53.5996 8.82031 53.6694 9.14616 53.6694 9.49316H52.5586C52.5544 9.28581 52.5078 9.09115 52.4189 8.90918C52.3343 8.72298 52.2179 8.56006 52.0698 8.42041C51.9217 8.28076 51.744 8.17074 51.5366 8.09033C51.3335 8.00993 51.1134 7.96973 50.8765 7.96973C50.5125 7.96973 50.2057 8.04378 49.9561 8.19189C49.7106 8.33577 49.5117 8.52409 49.3594 8.75684C49.207 8.99382 49.097 9.2583 49.0293 9.55029C48.9658 9.84229 48.9341 10.1364 48.9341 10.4326V10.6992C48.9341 10.9997 48.9658 11.298 49.0293 11.5942C49.097 11.8862 49.207 12.1486 49.3594 12.3813C49.5075 12.6183 49.7043 12.8109 49.9497 12.959C50.1994 13.1029 50.5083 13.1748 50.8765 13.1748ZM60.2583 7.00488C60.4741 7.00488 60.6984 7.01969 60.9312 7.04932C61.1681 7.07894 61.3459 7.11914 61.4644 7.16992L61.3057 8.31885C61.0771 8.26807 60.8592 8.2321 60.6519 8.21094C60.4487 8.18555 60.235 8.17285 60.0107 8.17285C59.723 8.17285 59.4627 8.20882 59.23 8.28076C58.9972 8.34847 58.7941 8.45003 58.6206 8.58545C58.464 8.70394 58.3265 8.84993 58.208 9.02344C58.0938 9.19271 57.9985 9.38314 57.9224 9.59473V14H56.7417V7.13184H57.8589L57.9097 8.05225L57.916 8.22363C58.1953 7.84701 58.5296 7.55078 58.9189 7.33496C59.3125 7.11491 59.759 7.00488 60.2583 7.00488ZM68.7007 10.439H63.8447V9.47412H68.7007V10.439ZM73.125 14V8.03955H71.2334V7.13184H73.125V6.64941C73.125 6.20931 73.1885 5.82422 73.3154 5.49414C73.4466 5.15983 73.6307 4.88053 73.8677 4.65625C74.1004 4.43197 74.3818 4.2627 74.7119 4.14844C75.042 4.03418 75.4102 3.97705 75.8164 3.97705C75.9857 3.97705 76.1528 3.98763 76.3179 4.00879C76.4829 4.02572 76.6458 4.04899 76.8066 4.07861C76.9124 4.09977 77.0182 4.12305 77.124 4.14844C77.2298 4.1696 77.3377 4.19499 77.4478 4.22461L77.3081 5.1958C77.1346 5.13656 76.9315 5.08577 76.6987 5.04346C76.4702 4.99691 76.2248 4.97363 75.9624 4.97363C75.6958 4.97363 75.4588 5.00749 75.2515 5.0752C75.0483 5.13867 74.8791 5.236 74.7437 5.36719C74.5998 5.5026 74.4897 5.67822 74.4136 5.89404C74.3416 6.10986 74.3057 6.36165 74.3057 6.64941V7.13184H76.9526V8.03955H74.3057V14H73.125ZM83.6812 7.00488C83.897 7.00488 84.1213 7.01969 84.354 7.04932C84.591 7.07894 84.7687 7.11914 84.8872 7.16992L84.7285 8.31885C84.5 8.26807 84.2821 8.2321 84.0747 8.21094C83.8716 8.18555 83.6579 8.17285 83.4336 8.17285C83.1458 8.17285 82.8856 8.20882 82.6528 8.28076C82.4201 8.34847 82.217 8.45003 82.0435 8.58545C81.8869 8.70394 81.7493 8.84993 81.6309 9.02344C81.5166 9.19271 81.4214 9.38314 81.3452 9.59473V14H80.1646V7.13184H81.2817L81.3325 8.05225L81.3389 8.22363C81.6182 7.84701 81.9525 7.55078 82.3418 7.33496C82.7354 7.11491 83.1818 7.00488 83.6812 7.00488Z" fill="#696C80"/>
</svg>
