<svg width="160" height="98" viewBox="0 0 160 98" fill="none" xmlns="http://www.w3.org/2000/svg">
<rect x="0.5" y="34.5" width="159" height="63" rx="4.5" stroke="#9747FF" stroke-dasharray="10 5"/>
<path d="M119 63.4C119 61.1598 119 60.0397 119.436 59.184C119.819 58.4314 120.431 57.8195 121.184 57.436C122.04 57 123.16 57 125.4 57H130.6C132.84 57 133.96 57 134.816 57.436C135.569 57.8195 136.181 58.4314 136.564 59.184C137 60.0397 137 61.1598 137 63.4V68.6C137 70.8402 137 71.9603 136.564 72.816C136.181 73.5686 135.569 74.1805 134.816 74.564C133.96 75 132.84 75 130.6 75H125.4C123.16 75 122.04 75 121.184 74.564C120.431 74.1805 119.819 73.5686 119.436 72.816C119 71.9603 119 70.8402 119 68.6V63.4Z" fill="#BABDCC"/>
<path fill-rule="evenodd" clip-rule="evenodd" d="M129.707 62.2929C130.098 62.6834 130.098 63.3166 129.707 63.7071L127.414 66L129.707 68.2929C130.098 68.6834 130.098 69.3166 129.707 69.7071C129.317 70.0976 128.683 70.0976 128.293 69.7071L125.293 66.7071C124.902 66.3166 124.902 65.6834 125.293 65.2929L128.293 62.2929C128.683 61.9024 129.317 61.9024 129.707 62.2929Z" fill="#12131A"/>
<path fill-rule="evenodd" clip-rule="evenodd" d="M71.436 59.184C71 60.0397 71 61.1598 71 63.4V68.6C71 70.8402 71 71.9603 71.436 72.816C71.8195 73.5686 72.4314 74.1805 73.184 74.564C74.0397 75 75.1598 75 77.4 75H82.6C84.8402 75 85.9603 75 86.816 74.564C87.5686 74.1805 88.1805 73.5686 88.564 72.816C89 71.9603 89 70.8402 89 68.6V63.4C89 61.1598 89 60.0397 88.564 59.184C88.1805 58.4314 87.5686 57.8195 86.816 57.436C85.9603 57 84.8402 57 82.6 57H77.4C75.1598 57 74.0397 57 73.184 57.436C72.4314 57.8195 71.8195 58.4314 71.436 59.184ZM81.7071 63.7071C82.0976 63.3166 82.0976 62.6834 81.7071 62.2929C81.3166 61.9024 80.6834 61.9024 80.2929 62.2929L77.2929 65.2929C76.9024 65.6834 76.9024 66.3166 77.2929 66.7071L80.2929 69.7071C80.6834 70.0976 81.3166 70.0976 81.7071 69.7071C82.0976 69.3166 82.0976 68.6834 81.7071 68.2929L79.4142 66L81.7071 63.7071Z" fill="#12131A"/>
<path fill-rule="evenodd" clip-rule="evenodd" d="M33.7071 62.2929C34.0976 62.6834 34.0976 63.3166 33.7071 63.7071L31.4142 66L33.7071 68.2929C34.0976 68.6834 34.0976 69.3166 33.7071 69.7071C33.3166 70.0976 32.6834 70.0976 32.2929 69.7071L29.2929 66.7071C28.9024 66.3166 28.9024 65.6834 29.2929 65.2929L32.2929 62.2929C32.6834 61.9024 33.3166 61.9024 33.7071 62.2929Z" fill="#12131A"/>
<path fill-rule="evenodd" clip-rule="evenodd" d="M30.3572 57H33.6428C34.7266 57 35.6007 57 36.3086 57.0578C37.0375 57.1174 37.6777 57.2432 38.27 57.545C39.2108 58.0243 39.9757 58.7892 40.455 59.73C40.7568 60.3223 40.8826 60.9625 40.9422 61.6914C41 62.3993 41 63.2734 41 64.3572V67.6428C41 68.7266 41 69.6008 40.9422 70.3086C40.8826 71.0375 40.7568 71.6777 40.455 72.27C39.9757 73.2108 39.2108 73.9757 38.27 74.455C37.6777 74.7568 37.0375 74.8826 36.3086 74.9422C35.6008 75 34.7266 75 33.6428 75H30.3572C29.2734 75 28.3993 75 27.6914 74.9422C26.9625 74.8826 26.3223 74.7568 25.73 74.455C24.7892 73.9757 24.0243 73.2108 23.545 72.27C23.2432 71.6777 23.1174 71.0375 23.0578 70.3086C23 69.6007 23 68.7266 23 67.6428V64.3572C23 63.2734 23 62.3993 23.0578 61.6914C23.1174 60.9625 23.2432 60.3223 23.545 59.73C24.0243 58.7892 24.7892 58.0243 25.73 57.545C26.3223 57.2432 26.9625 57.1174 27.6914 57.0578C28.3993 57 29.2734 57 30.3572 57ZM27.8542 59.0512C27.2491 59.1006 26.9014 59.1928 26.638 59.327C26.0735 59.6146 25.6146 60.0735 25.327 60.638C25.1928 60.9014 25.1006 61.2491 25.0512 61.8542C25.0008 62.4711 25 63.2634 25 64.4V67.6C25 68.7366 25.0008 69.5289 25.0512 70.1458C25.1006 70.7509 25.1928 71.0986 25.327 71.362C25.6146 71.9265 26.0735 72.3854 26.638 72.673C26.9014 72.8072 27.2491 72.8994 27.8542 72.9488C28.4711 72.9992 29.2634 73 30.4 73H33.6C34.7366 73 35.5289 72.9992 36.1458 72.9488C36.7509 72.8994 37.0986 72.8072 37.362 72.673C37.9265 72.3854 38.3854 71.9265 38.673 71.362C38.8072 71.0986 38.8994 70.7509 38.9488 70.1458C38.9992 69.5289 39 68.7366 39 67.6V64.4C39 63.2634 38.9992 62.4711 38.9488 61.8542C38.8994 61.2491 38.8072 60.9014 38.673 60.638C38.3854 60.0735 37.9265 59.6146 37.362 59.327C37.0986 59.1928 36.7509 59.1006 36.1458 59.0512C35.5289 59.0008 34.7366 59 33.6 59H30.4C29.2634 59 28.4711 59.0008 27.8542 59.0512Z" fill="#12131A"/>
<path d="M7.09033 11.2197C7.03532 11.6471 6.92529 12.0407 6.76025 12.4004C6.59521 12.7559 6.38151 13.0605 6.11914 13.3145C5.85254 13.5726 5.53727 13.7736 5.17334 13.9175C4.81364 14.0571 4.41162 14.127 3.96729 14.127C3.58643 14.127 3.23942 14.0741 2.92627 13.9683C2.61735 13.8582 2.34229 13.708 2.10107 13.5176C1.85563 13.3271 1.64404 13.1029 1.46631 12.8447C1.29281 12.5866 1.14893 12.3052 1.03467 12.0005C0.916178 11.6958 0.827311 11.3763 0.768066 11.042C0.713053 10.7077 0.683431 10.3691 0.679199 10.0264V8.73779C0.683431 8.39502 0.713053 8.05648 0.768066 7.72217C0.827311 7.38786 0.916178 7.06836 1.03467 6.76367C1.14893 6.45898 1.29281 6.17757 1.46631 5.91943C1.64404 5.65706 1.85563 5.43066 2.10107 5.24023C2.34229 5.0498 2.61735 4.90169 2.92627 4.7959C3.23519 4.68587 3.58219 4.63086 3.96729 4.63086C4.42855 4.63086 4.84115 4.7028 5.20508 4.84668C5.56901 4.98633 5.88216 5.18522 6.14453 5.44336C6.4069 5.70573 6.61637 6.01888 6.77295 6.38281C6.93376 6.74674 7.03955 7.14876 7.09033 7.58887H5.91602C5.87793 7.30957 5.81234 7.04932 5.71924 6.80811C5.62614 6.56689 5.5013 6.35531 5.34473 6.17334C5.18815 5.99137 4.99561 5.84961 4.76709 5.74805C4.54281 5.64225 4.2762 5.58936 3.96729 5.58936C3.68799 5.58936 3.44043 5.6359 3.22461 5.729C3.01302 5.81787 2.83105 5.94059 2.67871 6.09717C2.52214 6.25374 2.39095 6.43571 2.28516 6.64307C2.18359 6.85042 2.10107 7.07048 2.0376 7.30322C1.97412 7.53597 1.92757 7.77507 1.89795 8.02051C1.87256 8.26172 1.85986 8.49658 1.85986 8.7251V10.0264C1.85986 10.2549 1.87256 10.4919 1.89795 10.7373C1.92757 10.9785 1.97412 11.2155 2.0376 11.4482C2.10107 11.6852 2.18359 11.9074 2.28516 12.1147C2.38672 12.3221 2.51579 12.5041 2.67236 12.6606C2.82894 12.8215 3.01302 12.9484 3.22461 13.0415C3.4362 13.1304 3.68376 13.1748 3.96729 13.1748C4.2762 13.1748 4.54281 13.1261 4.76709 13.0288C4.99561 12.9315 5.18815 12.7939 5.34473 12.6162C5.5013 12.4427 5.62614 12.2375 5.71924 12.0005C5.81234 11.7593 5.87793 11.499 5.91602 11.2197H7.09033ZM10.0864 8.15381C10.1795 8.01416 10.2832 7.88721 10.3975 7.77295C10.5117 7.65446 10.6323 7.55078 10.7593 7.46191C10.9624 7.3138 11.1846 7.20166 11.4258 7.12549C11.6712 7.04932 11.9315 7.00911 12.2065 7.00488C12.5662 7.00488 12.8921 7.05778 13.1841 7.16357C13.4803 7.26514 13.7321 7.42594 13.9395 7.646C14.1468 7.86605 14.3055 8.14535 14.4155 8.48389C14.5298 8.8182 14.5869 9.21598 14.5869 9.67725V14H13.4126V9.66455C13.4126 9.39372 13.3809 9.15674 13.3174 8.95361C13.2539 8.74626 13.1608 8.57487 13.0381 8.43945C12.9069 8.29134 12.7419 8.18132 12.543 8.10938C12.3441 8.0332 12.1156 7.99723 11.8574 8.00146C11.6458 8.00146 11.4448 8.03109 11.2544 8.09033C11.064 8.14958 10.8883 8.23421 10.7275 8.34424C10.6006 8.42887 10.4821 8.52832 10.3721 8.64258C10.2663 8.7526 10.1711 8.87533 10.0864 9.01074V14H8.91211V4.25H10.0864V8.15381ZM19.7539 14.127C19.2715 14.127 18.8271 14.0444 18.4209 13.8794C18.0189 13.7144 17.674 13.4837 17.3862 13.1875C17.0985 12.8913 16.8742 12.54 16.7134 12.1338C16.5526 11.7275 16.4722 11.2853 16.4722 10.8071V10.5405C16.4722 9.98617 16.561 9.49105 16.7388 9.05518C16.9165 8.61507 17.1535 8.24268 17.4497 7.93799C17.7417 7.63753 18.0739 7.4069 18.4463 7.24609C18.8229 7.08529 19.208 7.00488 19.6016 7.00488C20.0967 7.00488 20.5283 7.09163 20.8965 7.26514C21.2689 7.43441 21.5778 7.66927 21.8232 7.96973C22.0687 8.27441 22.2507 8.632 22.3691 9.04248C22.4919 9.45296 22.5532 9.8973 22.5532 10.3755V10.9023H17.6465V10.9468C17.6761 11.2811 17.7417 11.5752 17.8433 11.8291C17.9491 12.083 18.0929 12.3073 18.2749 12.502C18.4611 12.7093 18.6854 12.8722 18.9478 12.9907C19.2101 13.1092 19.5 13.1685 19.8174 13.1685C20.2363 13.1685 20.6087 13.0838 20.9346 12.9146C21.2604 12.7453 21.5312 12.521 21.7471 12.2417L22.4644 12.8003C22.2358 13.1473 21.8931 13.4562 21.436 13.7271C20.9832 13.9937 20.4225 14.127 19.7539 14.127ZM19.6016 7.96973C19.3646 7.96973 19.1403 8.01416 18.9287 8.10303C18.7171 8.18766 18.5267 8.3125 18.3574 8.47754C18.1882 8.64681 18.0443 8.85417 17.9258 9.09961C17.8115 9.34082 17.7311 9.62012 17.6846 9.9375H21.3789V9.88037C21.3789 9.66878 21.3387 9.44238 21.2583 9.20117C21.1779 8.95573 21.0658 8.74414 20.9219 8.56641C20.778 8.38867 20.596 8.24479 20.376 8.13477C20.1602 8.02474 19.902 7.96973 19.6016 7.96973ZM26.8696 14L24.0449 7.13184H25.251L27.2188 12.3115L27.3267 12.7368L27.4409 12.3115L29.3643 7.13184H30.564L27.7646 14H26.8696ZM36.8354 7.00488C37.0513 7.00488 37.2756 7.01969 37.5083 7.04932C37.7453 7.07894 37.923 7.11914 38.0415 7.16992L37.8828 8.31885C37.6543 8.26807 37.4364 8.2321 37.229 8.21094C37.0259 8.18555 36.8122 8.17285 36.5879 8.17285C36.3001 8.17285 36.0399 8.20882 35.8071 8.28076C35.5744 8.34847 35.3713 8.45003 35.1978 8.58545C35.0412 8.70394 34.9036 8.84993 34.7852 9.02344C34.6709 9.19271 34.5757 9.38314 34.4995 9.59473V14H33.3188V7.13184H34.436L34.4868 8.05225L34.4932 8.22363C34.7725 7.84701 35.1068 7.55078 35.4961 7.33496C35.8896 7.11491 36.3361 7.00488 36.8354 7.00488ZM39.8125 10.5024C39.8125 10.0073 39.8844 9.54818 40.0283 9.125C40.1722 8.69759 40.3796 8.32731 40.6504 8.01416C40.917 7.70101 41.2428 7.45557 41.6279 7.27783C42.013 7.09587 42.4468 7.00488 42.9292 7.00488C43.4159 7.00488 43.8517 7.09587 44.2368 7.27783C44.6261 7.45557 44.9562 7.70101 45.2271 8.01416C45.4937 8.32731 45.6989 8.69759 45.8428 9.125C45.9867 9.54818 46.0586 10.0073 46.0586 10.5024V10.6421C46.0586 11.1372 45.9867 11.5964 45.8428 12.0195C45.6989 12.4427 45.4937 12.8109 45.2271 13.124C44.9562 13.4372 44.6283 13.6826 44.2432 13.8604C43.8581 14.0381 43.4243 14.127 42.9419 14.127C42.4552 14.127 42.0173 14.0381 41.6279 13.8604C41.2428 13.6826 40.917 13.4372 40.6504 13.124C40.3796 12.8109 40.1722 12.4427 40.0283 12.0195C39.8844 11.5964 39.8125 11.1372 39.8125 10.6421V10.5024ZM40.9868 10.6421C40.9868 10.9806 41.027 11.3044 41.1074 11.6133C41.1878 11.918 41.3105 12.1867 41.4756 12.4194C41.6364 12.6522 41.8395 12.8363 42.085 12.9717C42.3304 13.1071 42.616 13.1748 42.9419 13.1748C43.2635 13.1748 43.5449 13.1071 43.7861 12.9717C44.0316 12.8363 44.2368 12.6522 44.4019 12.4194C44.5627 12.1867 44.6833 11.918 44.7637 11.6133C44.8441 11.3044 44.8843 10.9806 44.8843 10.6421V10.5024C44.8843 10.1681 44.842 9.84863 44.7573 9.54395C44.6769 9.23503 44.5563 8.96419 44.3955 8.73145C44.2305 8.4987 44.0252 8.31462 43.7798 8.1792C43.5386 8.03955 43.255 7.96973 42.9292 7.96973C42.6034 7.96973 42.3198 8.03955 42.0786 8.1792C41.8374 8.31462 41.6364 8.4987 41.4756 8.73145C41.3105 8.96419 41.1878 9.23503 41.1074 9.54395C41.027 9.84863 40.9868 10.1681 40.9868 10.5024V10.6421ZM47.9502 14V7.13184H49.0039L49.0864 8.14746C49.188 8.00358 49.298 7.8724 49.4165 7.75391C49.5392 7.63118 49.6683 7.52539 49.8037 7.43652C50.0068 7.30111 50.2269 7.19743 50.4639 7.12549C50.7051 7.04932 50.959 7.00911 51.2256 7.00488C51.5853 7.00488 51.9111 7.05566 52.2031 7.15723C52.4993 7.25879 52.7511 7.41748 52.9585 7.6333C53.1659 7.84912 53.3245 8.12419 53.4346 8.4585C53.5488 8.78857 53.606 9.18213 53.606 9.63916V14H52.4316V9.66455C52.4316 9.35986 52.3978 9.10173 52.3301 8.89014C52.2624 8.67855 52.1629 8.50716 52.0317 8.37598C51.8963 8.24479 51.7313 8.14958 51.5366 8.09033C51.3462 8.03109 51.1261 8.00146 50.8765 8.00146C50.6606 8.00146 50.4596 8.0332 50.2734 8.09668C50.0872 8.15592 49.9159 8.23844 49.7593 8.34424C49.6323 8.43734 49.5138 8.54525 49.4038 8.66797C49.298 8.79069 49.2049 8.92611 49.1245 9.07422V14H47.9502ZM64.8921 13.0034H69.4116V14H63.7178V4.75781H64.8921V13.0034ZM74.4072 14.127C73.9248 14.127 73.4805 14.0444 73.0742 13.8794C72.6722 13.7144 72.3273 13.4837 72.0396 13.1875C71.7518 12.8913 71.5275 12.54 71.3667 12.1338C71.2059 11.7275 71.1255 11.2853 71.1255 10.8071V10.5405C71.1255 9.98617 71.2144 9.49105 71.3921 9.05518C71.5698 8.61507 71.8068 8.24268 72.103 7.93799C72.395 7.63753 72.7272 7.4069 73.0996 7.24609C73.4762 7.08529 73.8613 7.00488 74.2549 7.00488C74.75 7.00488 75.1816 7.09163 75.5498 7.26514C75.9222 7.43441 76.2311 7.66927 76.4766 7.96973C76.722 8.27441 76.904 8.632 77.0225 9.04248C77.1452 9.45296 77.2065 9.8973 77.2065 10.3755V10.9023H72.2998V10.9468C72.3294 11.2811 72.395 11.5752 72.4966 11.8291C72.6024 12.083 72.7463 12.3073 72.9282 12.502C73.1144 12.7093 73.3387 12.8722 73.6011 12.9907C73.8634 13.1092 74.1533 13.1685 74.4707 13.1685C74.8896 13.1685 75.262 13.0838 75.5879 12.9146C75.9137 12.7453 76.1846 12.521 76.4004 12.2417L77.1177 12.8003C76.8892 13.1473 76.5464 13.4562 76.0894 13.7271C75.6366 13.9937 75.0758 14.127 74.4072 14.127ZM74.2549 7.96973C74.0179 7.96973 73.7936 8.01416 73.582 8.10303C73.3704 8.18766 73.18 8.3125 73.0107 8.47754C72.8415 8.64681 72.6976 8.85417 72.5791 9.09961C72.4648 9.34082 72.3844 9.62012 72.3379 9.9375H76.0322V9.88037C76.0322 9.66878 75.992 9.44238 75.9116 9.20117C75.8312 8.95573 75.7191 8.74414 75.5752 8.56641C75.4313 8.38867 75.2493 8.24479 75.0293 8.13477C74.8135 8.02474 74.5553 7.96973 74.2549 7.96973ZM80.9326 14V8.03955H79.041V7.13184H80.9326V6.64941C80.9326 6.20931 80.9961 5.82422 81.123 5.49414C81.2542 5.15983 81.4383 4.88053 81.6753 4.65625C81.908 4.43197 82.1895 4.2627 82.5195 4.14844C82.8496 4.03418 83.2178 3.97705 83.624 3.97705C83.7933 3.97705 83.9604 3.98763 84.1255 4.00879C84.2905 4.02572 84.4535 4.04899 84.6143 4.07861C84.7201 4.09977 84.8258 4.12305 84.9316 4.14844C85.0374 4.1696 85.1453 4.19499 85.2554 4.22461L85.1157 5.1958C84.9422 5.13656 84.7391 5.08577 84.5063 5.04346C84.2778 4.99691 84.0324 4.97363 83.77 4.97363C83.5034 4.97363 83.2664 5.00749 83.0591 5.0752C82.856 5.13867 82.6867 5.236 82.5513 5.36719C82.4074 5.5026 82.2974 5.67822 82.2212 5.89404C82.1493 6.10986 82.1133 6.36165 82.1133 6.64941V7.13184H84.7603V8.03955H82.1133V14H80.9326ZM89.7686 5.46875V7.13184H92.3838V8.03955H89.7686V11.772C89.7686 12.0386 89.8024 12.2586 89.8701 12.4321C89.9378 12.6056 90.0309 12.7432 90.1494 12.8447C90.2679 12.9505 90.4033 13.0246 90.5557 13.0669C90.7122 13.1092 90.8773 13.1304 91.0508 13.1304C91.1777 13.1304 91.3089 13.124 91.4443 13.1113C91.5798 13.0944 91.7131 13.0754 91.8442 13.0542C91.9712 13.033 92.0897 13.0119 92.1997 12.9907C92.314 12.9653 92.4071 12.9442 92.479 12.9272L92.644 13.7588C92.5467 13.818 92.4282 13.8709 92.2886 13.9175C92.1489 13.9598 91.9966 13.9958 91.8315 14.0254C91.6665 14.0592 91.4909 14.0846 91.3047 14.1016C91.1227 14.1185 90.9408 14.127 90.7588 14.127C90.4541 14.127 90.1685 14.0846 89.9019 14C89.6395 13.9111 89.411 13.7715 89.2163 13.5811C89.0216 13.3949 88.8672 13.1536 88.7529 12.8574C88.6429 12.557 88.5879 12.1951 88.5879 11.772V8.03955H86.7852V7.13184H88.5879V5.46875H89.7686ZM107.167 12.1782C107.167 12.0386 107.14 11.9137 107.085 11.8037C107.03 11.6895 106.937 11.5858 106.806 11.4927C106.674 11.3996 106.501 11.3149 106.285 11.2388C106.069 11.1584 105.801 11.0864 105.479 11.0229C105.085 10.9425 104.726 10.8452 104.4 10.731C104.078 10.6167 103.803 10.4792 103.575 10.3184C103.342 10.1618 103.162 9.9777 103.035 9.76611C102.908 9.55029 102.845 9.30062 102.845 9.01709C102.845 8.73779 102.91 8.47754 103.042 8.23633C103.173 7.99089 103.357 7.77718 103.594 7.59521C103.831 7.41325 104.112 7.26937 104.438 7.16357C104.768 7.05778 105.13 7.00488 105.523 7.00488C105.947 7.00488 106.327 7.0599 106.666 7.16992C107.005 7.27995 107.292 7.43229 107.529 7.62695C107.766 7.82161 107.948 8.05013 108.075 8.3125C108.206 8.57064 108.272 8.84993 108.272 9.15039H107.098C107.098 9.00228 107.06 8.8584 106.983 8.71875C106.907 8.57487 106.801 8.44792 106.666 8.33789C106.531 8.22786 106.366 8.139 106.171 8.07129C105.98 8.00358 105.765 7.96973 105.523 7.96973C105.274 7.96973 105.054 7.99723 104.863 8.05225C104.677 8.10726 104.523 8.18132 104.4 8.27441C104.273 8.36751 104.178 8.47542 104.114 8.59814C104.051 8.72087 104.019 8.84782 104.019 8.979C104.019 9.11442 104.044 9.23503 104.095 9.34082C104.146 9.44661 104.235 9.54183 104.362 9.62646C104.485 9.7111 104.65 9.78727 104.857 9.85498C105.069 9.92269 105.335 9.98828 105.657 10.0518C106.08 10.1406 106.459 10.2443 106.793 10.3628C107.127 10.4771 107.409 10.6146 107.637 10.7754C107.866 10.9404 108.039 11.1309 108.158 11.3467C108.28 11.5625 108.342 11.8122 108.342 12.0957C108.342 12.4004 108.272 12.6776 108.132 12.9272C107.997 13.1769 107.806 13.3906 107.561 13.5684C107.316 13.7461 107.021 13.8836 106.679 13.981C106.336 14.0783 105.961 14.127 105.555 14.127C105.09 14.127 104.675 14.0656 104.311 13.9429C103.947 13.8159 103.64 13.6488 103.391 13.4414C103.137 13.2383 102.942 13.0013 102.807 12.7305C102.675 12.4596 102.61 12.1782 102.61 11.8862H103.784C103.801 12.1274 103.865 12.3306 103.975 12.4956C104.089 12.6606 104.231 12.7939 104.4 12.8955C104.565 12.9971 104.749 13.069 104.952 13.1113C105.155 13.1536 105.356 13.1748 105.555 13.1748C105.868 13.1748 106.141 13.1388 106.374 13.0669C106.607 12.9907 106.789 12.887 106.92 12.7559C107 12.6755 107.062 12.5866 107.104 12.4893C107.146 12.3919 107.167 12.2882 107.167 12.1782ZM110.195 10.5088C110.195 9.99674 110.257 9.52702 110.379 9.09961C110.502 8.66797 110.682 8.29769 110.919 7.98877C111.156 7.67985 111.446 7.43864 111.789 7.26514C112.136 7.09163 112.529 7.00488 112.969 7.00488C113.215 7.00488 113.443 7.03027 113.655 7.08105C113.871 7.13184 114.067 7.20801 114.245 7.30957C114.359 7.37305 114.467 7.4471 114.569 7.53174C114.67 7.61637 114.766 7.70947 114.854 7.81104L114.905 7.13184H115.984V16.6406H114.81V13.3779C114.708 13.4837 114.601 13.5789 114.486 13.6636C114.376 13.7482 114.256 13.8201 114.125 13.8794C113.959 13.9598 113.78 14.0212 113.585 14.0635C113.39 14.1058 113.181 14.127 112.957 14.127C112.521 14.127 112.131 14.0381 111.789 13.8604C111.45 13.6826 111.162 13.4372 110.925 13.124C110.688 12.8109 110.506 12.4427 110.379 12.0195C110.257 11.5921 110.195 11.133 110.195 10.6421V10.5088ZM111.37 10.6421C111.37 10.9764 111.406 11.2959 111.478 11.6006C111.554 11.9053 111.668 12.174 111.82 12.4067C111.973 12.6395 112.165 12.8257 112.398 12.9653C112.635 13.1007 112.916 13.1685 113.242 13.1685C113.424 13.1685 113.591 13.1473 113.744 13.105C113.896 13.0627 114.036 13.0055 114.163 12.9336C114.298 12.8532 114.419 12.7559 114.524 12.6416C114.63 12.5231 114.725 12.394 114.81 12.2544V8.86475C114.73 8.73356 114.637 8.61507 114.531 8.50928C114.429 8.39925 114.315 8.30404 114.188 8.22363C114.057 8.14323 113.913 8.08187 113.756 8.03955C113.604 7.993 113.437 7.96973 113.255 7.96973C112.929 7.96973 112.648 8.03955 112.411 8.1792C112.174 8.31885 111.979 8.50505 111.827 8.73779C111.67 8.97477 111.554 9.24561 111.478 9.55029C111.406 9.85498 111.37 10.1745 111.37 10.5088V10.6421ZM123.354 10.439H118.498V9.47412H123.354V10.439ZM127.778 14V8.03955H125.887V7.13184H127.778V6.64941C127.778 6.20931 127.842 5.82422 127.969 5.49414C128.1 5.15983 128.284 4.88053 128.521 4.65625C128.754 4.43197 129.035 4.2627 129.365 4.14844C129.695 4.03418 130.063 3.97705 130.47 3.97705C130.639 3.97705 130.806 3.98763 130.971 4.00879C131.136 4.02572 131.299 4.04899 131.46 4.07861C131.566 4.09977 131.672 4.12305 131.777 4.14844C131.883 4.1696 131.991 4.19499 132.101 4.22461L131.961 5.1958C131.788 5.13656 131.585 5.08577 131.352 5.04346C131.124 4.99691 130.878 4.97363 130.616 4.97363C130.349 4.97363 130.112 5.00749 129.905 5.0752C129.702 5.13867 129.532 5.236 129.397 5.36719C129.253 5.5026 129.143 5.67822 129.067 5.89404C128.995 6.10986 128.959 6.36165 128.959 6.64941V7.13184H131.606V8.03955H128.959V14H127.778ZM138.334 7.00488C138.55 7.00488 138.775 7.01969 139.007 7.04932C139.244 7.07894 139.422 7.11914 139.541 7.16992L139.382 8.31885C139.153 8.26807 138.935 8.2321 138.728 8.21094C138.525 8.18555 138.311 8.17285 138.087 8.17285C137.799 8.17285 137.539 8.20882 137.306 8.28076C137.073 8.34847 136.87 8.45003 136.697 8.58545C136.54 8.70394 136.403 8.84993 136.284 9.02344C136.17 9.19271 136.075 9.38314 135.999 9.59473V14H134.818V7.13184H135.935L135.986 8.05225L135.992 8.22363C136.271 7.84701 136.606 7.55078 136.995 7.33496C137.389 7.11491 137.835 7.00488 138.334 7.00488Z" fill="#696C80"/>
</svg>
