<svg width="160" height="98" viewBox="0 0 160 98" fill="none" xmlns="http://www.w3.org/2000/svg">
<rect x="0.5" y="34.5" width="159" height="63" rx="4.5" stroke="#9747FF" stroke-dasharray="10 5"/>
<path d="M119 63.4C119 61.1598 119 60.0397 119.436 59.184C119.819 58.4314 120.431 57.8195 121.184 57.436C122.04 57 123.16 57 125.4 57H130.6C132.84 57 133.96 57 134.816 57.436C135.569 57.8195 136.181 58.4314 136.564 59.184C137 60.0397 137 61.1598 137 63.4V68.6C137 70.8402 137 71.9603 136.564 72.816C136.181 73.5686 135.569 74.1805 134.816 74.564C133.96 75 132.84 75 130.6 75H125.4C123.16 75 122.04 75 121.184 74.564C120.431 74.1805 119.819 73.5686 119.436 72.816C119 71.9603 119 70.8402 119 68.6V63.4Z" fill="#BABDCC"/>
<path fill-rule="evenodd" clip-rule="evenodd" d="M126.293 62.2929C126.683 61.9024 127.317 61.9024 127.707 62.2929L130.707 65.2929C131.098 65.6834 131.098 66.3166 130.707 66.7071L127.707 69.7071C127.317 70.0976 126.683 70.0976 126.293 69.7071C125.902 69.3166 125.902 68.6834 126.293 68.2929L128.586 66L126.293 63.7071C125.902 63.3166 125.902 62.6834 126.293 62.2929Z" fill="#12131A"/>
<path fill-rule="evenodd" clip-rule="evenodd" d="M71.436 59.184C71 60.0397 71 61.1598 71 63.4V68.6C71 70.8402 71 71.9603 71.436 72.816C71.8195 73.5686 72.4314 74.1805 73.184 74.564C74.0397 75 75.1598 75 77.4 75H82.6C84.8402 75 85.9603 75 86.816 74.564C87.5686 74.1805 88.1805 73.5686 88.564 72.816C89 71.9603 89 70.8402 89 68.6V63.4C89 61.1598 89 60.0397 88.564 59.184C88.1805 58.4314 87.5686 57.8195 86.816 57.436C85.9603 57 84.8402 57 82.6 57H77.4C75.1598 57 74.0397 57 73.184 57.436C72.4314 57.8195 71.8195 58.4314 71.436 59.184ZM79.7071 62.2929C79.3166 61.9024 78.6834 61.9024 78.2929 62.2929C77.9024 62.6834 77.9024 63.3166 78.2929 63.7071L80.5858 66L78.2929 68.2929C77.9024 68.6834 77.9024 69.3166 78.2929 69.7071C78.6834 70.0976 79.3166 70.0976 79.7071 69.7071L82.7071 66.7071C83.0976 66.3166 83.0976 65.6834 82.7071 65.2929L79.7071 62.2929Z" fill="#12131A"/>
<path fill-rule="evenodd" clip-rule="evenodd" d="M30.2929 62.2929C30.6834 61.9024 31.3166 61.9024 31.7071 62.2929L34.7071 65.2929C35.0976 65.6834 35.0976 66.3166 34.7071 66.7071L31.7071 69.7071C31.3166 70.0976 30.6834 70.0976 30.2929 69.7071C29.9024 69.3166 29.9024 68.6834 30.2929 68.2929L32.5858 66L30.2929 63.7071C29.9024 63.3166 29.9024 62.6834 30.2929 62.2929Z" fill="#12131A"/>
<path fill-rule="evenodd" clip-rule="evenodd" d="M30.3572 57H33.6428C34.7266 57 35.6007 57 36.3086 57.0578C37.0375 57.1174 37.6777 57.2432 38.27 57.545C39.2108 58.0243 39.9757 58.7892 40.455 59.73C40.7568 60.3223 40.8826 60.9625 40.9422 61.6914C41 62.3993 41 63.2734 41 64.3572V67.6428C41 68.7266 41 69.6008 40.9422 70.3086C40.8826 71.0375 40.7568 71.6777 40.455 72.27C39.9757 73.2108 39.2108 73.9757 38.27 74.455C37.6777 74.7568 37.0375 74.8826 36.3086 74.9422C35.6008 75 34.7266 75 33.6428 75H30.3572C29.2734 75 28.3993 75 27.6914 74.9422C26.9625 74.8826 26.3223 74.7568 25.73 74.455C24.7892 73.9757 24.0243 73.2108 23.545 72.27C23.2432 71.6777 23.1174 71.0375 23.0578 70.3086C23 69.6007 23 68.7266 23 67.6428V64.3572C23 63.2734 23 62.3993 23.0578 61.6914C23.1174 60.9625 23.2432 60.3223 23.545 59.73C24.0243 58.7892 24.7892 58.0243 25.73 57.545C26.3223 57.2432 26.9625 57.1174 27.6914 57.0578C28.3993 57 29.2734 57 30.3572 57ZM27.8542 59.0512C27.2491 59.1006 26.9014 59.1928 26.638 59.327C26.0735 59.6146 25.6146 60.0735 25.327 60.638C25.1928 60.9014 25.1006 61.2491 25.0512 61.8542C25.0008 62.4711 25 63.2634 25 64.4V67.6C25 68.7366 25.0008 69.5289 25.0512 70.1458C25.1006 70.7509 25.1928 71.0986 25.327 71.362C25.6146 71.9265 26.0735 72.3854 26.638 72.673C26.9014 72.8072 27.2491 72.8994 27.8542 72.9488C28.4711 72.9992 29.2634 73 30.4 73H33.6C34.7366 73 35.5289 72.9992 36.1458 72.9488C36.7509 72.8994 37.0986 72.8072 37.362 72.673C37.9265 72.3854 38.3854 71.9265 38.673 71.362C38.8072 71.0986 38.8994 70.7509 38.9488 70.1458C38.9992 69.5289 39 68.7366 39 67.6V64.4C39 63.2634 38.9992 62.4711 38.9488 61.8542C38.8994 61.2491 38.8072 60.9014 38.673 60.638C38.3854 60.0735 37.9265 59.6146 37.362 59.327C37.0986 59.1928 36.7509 59.1006 36.1458 59.0512C35.5289 59.0008 34.7366 59 33.6 59H30.4C29.2634 59 28.4711 59.0008 27.8542 59.0512Z" fill="#12131A"/>
<path d="M7.09033 11.2197C7.03532 11.6471 6.92529 12.0407 6.76025 12.4004C6.59521 12.7559 6.38151 13.0605 6.11914 13.3145C5.85254 13.5726 5.53727 13.7736 5.17334 13.9175C4.81364 14.0571 4.41162 14.127 3.96729 14.127C3.58643 14.127 3.23942 14.0741 2.92627 13.9683C2.61735 13.8582 2.34229 13.708 2.10107 13.5176C1.85563 13.3271 1.64404 13.1029 1.46631 12.8447C1.29281 12.5866 1.14893 12.3052 1.03467 12.0005C0.916178 11.6958 0.827311 11.3763 0.768066 11.042C0.713053 10.7077 0.683431 10.3691 0.679199 10.0264V8.73779C0.683431 8.39502 0.713053 8.05648 0.768066 7.72217C0.827311 7.38786 0.916178 7.06836 1.03467 6.76367C1.14893 6.45898 1.29281 6.17757 1.46631 5.91943C1.64404 5.65706 1.85563 5.43066 2.10107 5.24023C2.34229 5.0498 2.61735 4.90169 2.92627 4.7959C3.23519 4.68587 3.58219 4.63086 3.96729 4.63086C4.42855 4.63086 4.84115 4.7028 5.20508 4.84668C5.56901 4.98633 5.88216 5.18522 6.14453 5.44336C6.4069 5.70573 6.61637 6.01888 6.77295 6.38281C6.93376 6.74674 7.03955 7.14876 7.09033 7.58887H5.91602C5.87793 7.30957 5.81234 7.04932 5.71924 6.80811C5.62614 6.56689 5.5013 6.35531 5.34473 6.17334C5.18815 5.99137 4.99561 5.84961 4.76709 5.74805C4.54281 5.64225 4.2762 5.58936 3.96729 5.58936C3.68799 5.58936 3.44043 5.6359 3.22461 5.729C3.01302 5.81787 2.83105 5.94059 2.67871 6.09717C2.52214 6.25374 2.39095 6.43571 2.28516 6.64307C2.18359 6.85042 2.10107 7.07048 2.0376 7.30322C1.97412 7.53597 1.92757 7.77507 1.89795 8.02051C1.87256 8.26172 1.85986 8.49658 1.85986 8.7251V10.0264C1.85986 10.2549 1.87256 10.4919 1.89795 10.7373C1.92757 10.9785 1.97412 11.2155 2.0376 11.4482C2.10107 11.6852 2.18359 11.9074 2.28516 12.1147C2.38672 12.3221 2.51579 12.5041 2.67236 12.6606C2.82894 12.8215 3.01302 12.9484 3.22461 13.0415C3.4362 13.1304 3.68376 13.1748 3.96729 13.1748C4.2762 13.1748 4.54281 13.1261 4.76709 13.0288C4.99561 12.9315 5.18815 12.7939 5.34473 12.6162C5.5013 12.4427 5.62614 12.2375 5.71924 12.0005C5.81234 11.7593 5.87793 11.499 5.91602 11.2197H7.09033ZM10.0864 8.15381C10.1795 8.01416 10.2832 7.88721 10.3975 7.77295C10.5117 7.65446 10.6323 7.55078 10.7593 7.46191C10.9624 7.3138 11.1846 7.20166 11.4258 7.12549C11.6712 7.04932 11.9315 7.00911 12.2065 7.00488C12.5662 7.00488 12.8921 7.05778 13.1841 7.16357C13.4803 7.26514 13.7321 7.42594 13.9395 7.646C14.1468 7.86605 14.3055 8.14535 14.4155 8.48389C14.5298 8.8182 14.5869 9.21598 14.5869 9.67725V14H13.4126V9.66455C13.4126 9.39372 13.3809 9.15674 13.3174 8.95361C13.2539 8.74626 13.1608 8.57487 13.0381 8.43945C12.9069 8.29134 12.7419 8.18132 12.543 8.10938C12.3441 8.0332 12.1156 7.99723 11.8574 8.00146C11.6458 8.00146 11.4448 8.03109 11.2544 8.09033C11.064 8.14958 10.8883 8.23421 10.7275 8.34424C10.6006 8.42887 10.4821 8.52832 10.3721 8.64258C10.2663 8.7526 10.1711 8.87533 10.0864 9.01074V14H8.91211V4.25H10.0864V8.15381ZM19.7539 14.127C19.2715 14.127 18.8271 14.0444 18.4209 13.8794C18.0189 13.7144 17.674 13.4837 17.3862 13.1875C17.0985 12.8913 16.8742 12.54 16.7134 12.1338C16.5526 11.7275 16.4722 11.2853 16.4722 10.8071V10.5405C16.4722 9.98617 16.561 9.49105 16.7388 9.05518C16.9165 8.61507 17.1535 8.24268 17.4497 7.93799C17.7417 7.63753 18.0739 7.4069 18.4463 7.24609C18.8229 7.08529 19.208 7.00488 19.6016 7.00488C20.0967 7.00488 20.5283 7.09163 20.8965 7.26514C21.2689 7.43441 21.5778 7.66927 21.8232 7.96973C22.0687 8.27441 22.2507 8.632 22.3691 9.04248C22.4919 9.45296 22.5532 9.8973 22.5532 10.3755V10.9023H17.6465V10.9468C17.6761 11.2811 17.7417 11.5752 17.8433 11.8291C17.9491 12.083 18.0929 12.3073 18.2749 12.502C18.4611 12.7093 18.6854 12.8722 18.9478 12.9907C19.2101 13.1092 19.5 13.1685 19.8174 13.1685C20.2363 13.1685 20.6087 13.0838 20.9346 12.9146C21.2604 12.7453 21.5312 12.521 21.7471 12.2417L22.4644 12.8003C22.2358 13.1473 21.8931 13.4562 21.436 13.7271C20.9832 13.9937 20.4225 14.127 19.7539 14.127ZM19.6016 7.96973C19.3646 7.96973 19.1403 8.01416 18.9287 8.10303C18.7171 8.18766 18.5267 8.3125 18.3574 8.47754C18.1882 8.64681 18.0443 8.85417 17.9258 9.09961C17.8115 9.34082 17.7311 9.62012 17.6846 9.9375H21.3789V9.88037C21.3789 9.66878 21.3387 9.44238 21.2583 9.20117C21.1779 8.95573 21.0658 8.74414 20.9219 8.56641C20.778 8.38867 20.596 8.24479 20.376 8.13477C20.1602 8.02474 19.902 7.96973 19.6016 7.96973ZM26.8696 14L24.0449 7.13184H25.251L27.2188 12.3115L27.3267 12.7368L27.4409 12.3115L29.3643 7.13184H30.564L27.7646 14H26.8696ZM36.8354 7.00488C37.0513 7.00488 37.2756 7.01969 37.5083 7.04932C37.7453 7.07894 37.923 7.11914 38.0415 7.16992L37.8828 8.31885C37.6543 8.26807 37.4364 8.2321 37.229 8.21094C37.0259 8.18555 36.8122 8.17285 36.5879 8.17285C36.3001 8.17285 36.0399 8.20882 35.8071 8.28076C35.5744 8.34847 35.3713 8.45003 35.1978 8.58545C35.0412 8.70394 34.9036 8.84993 34.7852 9.02344C34.6709 9.19271 34.5757 9.38314 34.4995 9.59473V14H33.3188V7.13184H34.436L34.4868 8.05225L34.4932 8.22363C34.7725 7.84701 35.1068 7.55078 35.4961 7.33496C35.8896 7.11491 36.3361 7.00488 36.8354 7.00488ZM39.8125 10.5024C39.8125 10.0073 39.8844 9.54818 40.0283 9.125C40.1722 8.69759 40.3796 8.32731 40.6504 8.01416C40.917 7.70101 41.2428 7.45557 41.6279 7.27783C42.013 7.09587 42.4468 7.00488 42.9292 7.00488C43.4159 7.00488 43.8517 7.09587 44.2368 7.27783C44.6261 7.45557 44.9562 7.70101 45.2271 8.01416C45.4937 8.32731 45.6989 8.69759 45.8428 9.125C45.9867 9.54818 46.0586 10.0073 46.0586 10.5024V10.6421C46.0586 11.1372 45.9867 11.5964 45.8428 12.0195C45.6989 12.4427 45.4937 12.8109 45.2271 13.124C44.9562 13.4372 44.6283 13.6826 44.2432 13.8604C43.8581 14.0381 43.4243 14.127 42.9419 14.127C42.4552 14.127 42.0173 14.0381 41.6279 13.8604C41.2428 13.6826 40.917 13.4372 40.6504 13.124C40.3796 12.8109 40.1722 12.4427 40.0283 12.0195C39.8844 11.5964 39.8125 11.1372 39.8125 10.6421V10.5024ZM40.9868 10.6421C40.9868 10.9806 41.027 11.3044 41.1074 11.6133C41.1878 11.918 41.3105 12.1867 41.4756 12.4194C41.6364 12.6522 41.8395 12.8363 42.085 12.9717C42.3304 13.1071 42.616 13.1748 42.9419 13.1748C43.2635 13.1748 43.5449 13.1071 43.7861 12.9717C44.0316 12.8363 44.2368 12.6522 44.4019 12.4194C44.5627 12.1867 44.6833 11.918 44.7637 11.6133C44.8441 11.3044 44.8843 10.9806 44.8843 10.6421V10.5024C44.8843 10.1681 44.842 9.84863 44.7573 9.54395C44.6769 9.23503 44.5563 8.96419 44.3955 8.73145C44.2305 8.4987 44.0252 8.31462 43.7798 8.1792C43.5386 8.03955 43.255 7.96973 42.9292 7.96973C42.6034 7.96973 42.3198 8.03955 42.0786 8.1792C41.8374 8.31462 41.6364 8.4987 41.4756 8.73145C41.3105 8.96419 41.1878 9.23503 41.1074 9.54395C41.027 9.84863 40.9868 10.1681 40.9868 10.5024V10.6421ZM47.9502 14V7.13184H49.0039L49.0864 8.14746C49.188 8.00358 49.298 7.8724 49.4165 7.75391C49.5392 7.63118 49.6683 7.52539 49.8037 7.43652C50.0068 7.30111 50.2269 7.19743 50.4639 7.12549C50.7051 7.04932 50.959 7.00911 51.2256 7.00488C51.5853 7.00488 51.9111 7.05566 52.2031 7.15723C52.4993 7.25879 52.7511 7.41748 52.9585 7.6333C53.1659 7.84912 53.3245 8.12419 53.4346 8.4585C53.5488 8.78857 53.606 9.18213 53.606 9.63916V14H52.4316V9.66455C52.4316 9.35986 52.3978 9.10173 52.3301 8.89014C52.2624 8.67855 52.1629 8.50716 52.0317 8.37598C51.8963 8.24479 51.7313 8.14958 51.5366 8.09033C51.3462 8.03109 51.1261 8.00146 50.8765 8.00146C50.6606 8.00146 50.4596 8.0332 50.2734 8.09668C50.0872 8.15592 49.9159 8.23844 49.7593 8.34424C49.6323 8.43734 49.5138 8.54525 49.4038 8.66797C49.298 8.79069 49.2049 8.92611 49.1245 9.07422V14H47.9502ZM66.625 10.2295H64.7778V14H63.6099V4.75781H66.3203C66.752 4.76628 67.1582 4.82764 67.5391 4.94189C67.9199 5.05615 68.2542 5.22754 68.542 5.45605C68.8255 5.68457 69.0477 5.97233 69.2085 6.31934C69.3735 6.66211 69.4561 7.06624 69.4561 7.53174C69.4561 7.83219 69.4116 8.10726 69.3228 8.35693C69.2381 8.60661 69.1196 8.83301 68.9673 9.03613C68.8149 9.23926 68.633 9.41911 68.4214 9.57568C68.2098 9.73226 67.9771 9.86556 67.7231 9.97559L69.6846 13.9238L69.6782 14H68.4404L66.625 10.2295ZM64.7778 9.26465H66.3521C66.6144 9.26042 66.862 9.22021 67.0947 9.14404C67.3275 9.06364 67.5327 8.94938 67.7104 8.80127C67.884 8.65316 68.0215 8.47331 68.123 8.26172C68.2246 8.0459 68.2754 7.79834 68.2754 7.51904C68.2754 7.22282 68.2267 6.96468 68.1294 6.74463C68.0321 6.52035 67.8966 6.33203 67.7231 6.17969C67.5496 6.03158 67.3423 5.91943 67.1011 5.84326C66.8641 5.76709 66.6038 5.72689 66.3203 5.72266H64.7778V9.26465ZM71.5571 7.13184H75.0674V12.9844H77.3081V14H71.5571V12.9844H73.8931V8.15381H71.5571V7.13184ZM73.7407 5.3291C73.7407 5.22754 73.7555 5.13232 73.7852 5.04346C73.819 4.95459 73.8698 4.87842 73.9375 4.81494C73.9925 4.75993 74.0623 4.71761 74.147 4.68799C74.2358 4.65413 74.3353 4.63721 74.4453 4.63721C74.5553 4.63721 74.6527 4.65413 74.7373 4.68799C74.8219 4.71761 74.8918 4.75993 74.9468 4.81494C75.0145 4.87419 75.0653 4.94824 75.0991 5.03711C75.133 5.12598 75.1499 5.22331 75.1499 5.3291C75.1499 5.51953 75.0907 5.67822 74.9722 5.80518C74.8537 5.93213 74.6781 5.99561 74.4453 5.99561C74.2083 5.99561 74.0306 5.93213 73.9121 5.80518C73.7979 5.67822 73.7407 5.51953 73.7407 5.3291ZM78.9648 10.5088C78.9648 9.99674 79.0262 9.52702 79.1489 9.09961C79.2759 8.66797 79.4578 8.29769 79.6948 7.98877C79.9318 7.67985 80.2196 7.43864 80.5581 7.26514C80.8966 7.09163 81.2796 7.00488 81.707 7.00488C81.9821 7.00488 82.2339 7.03662 82.4624 7.1001C82.6951 7.16357 82.9046 7.25667 83.0908 7.37939C83.1924 7.44287 83.2876 7.51693 83.3765 7.60156C83.4696 7.6862 83.5563 7.7793 83.6367 7.88086L83.6938 7.13184H84.7603V13.854C84.7603 14.3068 84.6883 14.7088 84.5444 15.0601C84.4048 15.4113 84.208 15.7096 83.9541 15.9551C83.696 16.2005 83.3892 16.3867 83.0337 16.5137C82.6782 16.6406 82.2847 16.7041 81.853 16.7041C81.6753 16.7041 81.4722 16.6829 81.2437 16.6406C81.0151 16.6025 80.7845 16.5369 80.5518 16.4438C80.3148 16.355 80.0863 16.2344 79.8662 16.082C79.6504 15.9297 79.4642 15.7414 79.3076 15.5171L79.917 14.8125C80.0609 14.986 80.209 15.132 80.3613 15.2505C80.5137 15.3732 80.6681 15.4705 80.8247 15.5425C80.9813 15.6144 81.1379 15.6652 81.2944 15.6948C81.451 15.7287 81.6076 15.7456 81.7642 15.7456C82.0435 15.7456 82.2952 15.7054 82.5195 15.625C82.7438 15.5446 82.9364 15.4261 83.0972 15.2695C83.2537 15.1172 83.3743 14.9268 83.459 14.6982C83.5436 14.4697 83.5859 14.2074 83.5859 13.9111V13.3208C83.4971 13.4224 83.4019 13.5155 83.3003 13.6001C83.203 13.6847 83.0972 13.7588 82.9829 13.8223C82.8052 13.9196 82.6084 13.9937 82.3926 14.0444C82.1768 14.0994 81.944 14.127 81.6943 14.127C81.2754 14.127 80.8966 14.0381 80.5581 13.8604C80.2196 13.6826 79.9339 13.4372 79.7012 13.124C79.4642 12.8109 79.2822 12.4427 79.1553 12.0195C79.0283 11.5921 78.9648 11.133 78.9648 10.6421V10.5088ZM80.1392 10.6421C80.1392 10.9764 80.173 11.2938 80.2407 11.5942C80.3127 11.8947 80.4248 12.1592 80.5771 12.3877C80.7253 12.6162 80.9157 12.7982 81.1484 12.9336C81.3812 13.0648 81.6605 13.1304 81.9863 13.1304C82.1895 13.1304 82.3714 13.1071 82.5322 13.0605C82.6973 13.0098 82.8454 12.9399 82.9766 12.8511C83.1035 12.7622 83.2178 12.6564 83.3193 12.5337C83.4209 12.411 83.5098 12.2756 83.5859 12.1274V8.979C83.5098 8.83512 83.4209 8.70394 83.3193 8.58545C83.2178 8.46696 83.1014 8.36328 82.9702 8.27441C82.839 8.18978 82.693 8.12419 82.5322 8.07764C82.3714 8.02686 82.1937 8.00146 81.999 8.00146C81.6689 8.00146 81.3854 8.06917 81.1484 8.20459C80.9157 8.34001 80.7253 8.52197 80.5771 8.75049C80.4248 8.98324 80.3127 9.25195 80.2407 9.55664C80.173 9.8571 80.1392 10.1745 80.1392 10.5088V10.6421ZM88.1626 8.15381C88.2557 8.01416 88.3594 7.88721 88.4736 7.77295C88.5879 7.65446 88.7085 7.55078 88.8354 7.46191C89.0386 7.3138 89.2607 7.20166 89.502 7.12549C89.7474 7.04932 90.0076 7.00911 90.2827 7.00488C90.6424 7.00488 90.9683 7.05778 91.2603 7.16357C91.5565 7.26514 91.8083 7.42594 92.0156 7.646C92.223 7.86605 92.3817 8.14535 92.4917 8.48389C92.606 8.8182 92.6631 9.21598 92.6631 9.67725V14H91.4888V9.66455C91.4888 9.39372 91.457 9.15674 91.3936 8.95361C91.3301 8.74626 91.237 8.57487 91.1143 8.43945C90.9831 8.29134 90.818 8.18132 90.6191 8.10938C90.4202 8.0332 90.1917 7.99723 89.9336 8.00146C89.722 8.00146 89.521 8.03109 89.3306 8.09033C89.1401 8.14958 88.9645 8.23421 88.8037 8.34424C88.6768 8.42887 88.5583 8.52832 88.4482 8.64258C88.3424 8.7526 88.2472 8.87533 88.1626 9.01074V14H86.9883V4.25H88.1626V8.15381ZM97.5762 5.46875V7.13184H100.191V8.03955H97.5762V11.772C97.5762 12.0386 97.61 12.2586 97.6777 12.4321C97.7454 12.6056 97.8385 12.7432 97.957 12.8447C98.0755 12.9505 98.2109 13.0246 98.3633 13.0669C98.5199 13.1092 98.6849 13.1304 98.8584 13.1304C98.9854 13.1304 99.1165 13.124 99.252 13.1113C99.3874 13.0944 99.5207 13.0754 99.6519 13.0542C99.7788 13.033 99.8973 13.0119 100.007 12.9907C100.122 12.9653 100.215 12.9442 100.287 12.9272L100.452 13.7588C100.354 13.818 100.236 13.8709 100.096 13.9175C99.9565 13.9598 99.8042 13.9958 99.6392 14.0254C99.4741 14.0592 99.2985 14.0846 99.1123 14.1016C98.9303 14.1185 98.7484 14.127 98.5664 14.127C98.2617 14.127 97.9761 14.0846 97.7095 14C97.4471 13.9111 97.2186 13.7715 97.0239 13.5811C96.8293 13.3949 96.6748 13.1536 96.5605 12.8574C96.4505 12.557 96.3955 12.1951 96.3955 11.772V8.03955H94.5928V7.13184H96.3955V5.46875H97.5762ZM114.975 12.1782C114.975 12.0386 114.948 11.9137 114.893 11.8037C114.838 11.6895 114.744 11.5858 114.613 11.4927C114.482 11.3996 114.309 11.3149 114.093 11.2388C113.877 11.1584 113.608 11.0864 113.287 11.0229C112.893 10.9425 112.533 10.8452 112.208 10.731C111.886 10.6167 111.611 10.4792 111.382 10.3184C111.15 10.1618 110.97 9.9777 110.843 9.76611C110.716 9.55029 110.652 9.30062 110.652 9.01709C110.652 8.73779 110.718 8.47754 110.849 8.23633C110.98 7.99089 111.164 7.77718 111.401 7.59521C111.638 7.41325 111.92 7.26937 112.246 7.16357C112.576 7.05778 112.938 7.00488 113.331 7.00488C113.754 7.00488 114.135 7.0599 114.474 7.16992C114.812 7.27995 115.1 7.43229 115.337 7.62695C115.574 7.82161 115.756 8.05013 115.883 8.3125C116.014 8.57064 116.08 8.84993 116.08 9.15039H114.905C114.905 9.00228 114.867 8.8584 114.791 8.71875C114.715 8.57487 114.609 8.44792 114.474 8.33789C114.338 8.22786 114.173 8.139 113.979 8.07129C113.788 8.00358 113.572 7.96973 113.331 7.96973C113.081 7.96973 112.861 7.99723 112.671 8.05225C112.485 8.10726 112.33 8.18132 112.208 8.27441C112.081 8.36751 111.985 8.47542 111.922 8.59814C111.858 8.72087 111.827 8.84782 111.827 8.979C111.827 9.11442 111.852 9.23503 111.903 9.34082C111.954 9.44661 112.042 9.54183 112.169 9.62646C112.292 9.7111 112.457 9.78727 112.665 9.85498C112.876 9.92269 113.143 9.98828 113.464 10.0518C113.888 10.1406 114.266 10.2443 114.601 10.3628C114.935 10.4771 115.216 10.6146 115.445 10.7754C115.673 10.9404 115.847 11.1309 115.965 11.3467C116.088 11.5625 116.149 11.8122 116.149 12.0957C116.149 12.4004 116.08 12.6776 115.94 12.9272C115.805 13.1769 115.614 13.3906 115.369 13.5684C115.123 13.7461 114.829 13.8836 114.486 13.981C114.144 14.0783 113.769 14.127 113.363 14.127C112.897 14.127 112.483 14.0656 112.119 13.9429C111.755 13.8159 111.448 13.6488 111.198 13.4414C110.944 13.2383 110.75 13.0013 110.614 12.7305C110.483 12.4596 110.417 12.1782 110.417 11.8862H111.592C111.609 12.1274 111.672 12.3306 111.782 12.4956C111.896 12.6606 112.038 12.7939 112.208 12.8955C112.373 12.9971 112.557 13.069 112.76 13.1113C112.963 13.1536 113.164 13.1748 113.363 13.1748C113.676 13.1748 113.949 13.1388 114.182 13.0669C114.414 12.9907 114.596 12.887 114.728 12.7559C114.808 12.6755 114.869 12.5866 114.912 12.4893C114.954 12.3919 114.975 12.2882 114.975 12.1782ZM118.003 10.5088C118.003 9.99674 118.064 9.52702 118.187 9.09961C118.31 8.66797 118.49 8.29769 118.727 7.98877C118.964 7.67985 119.253 7.43864 119.596 7.26514C119.943 7.09163 120.337 7.00488 120.777 7.00488C121.022 7.00488 121.251 7.03027 121.462 7.08105C121.678 7.13184 121.875 7.20801 122.053 7.30957C122.167 7.37305 122.275 7.4471 122.376 7.53174C122.478 7.61637 122.573 7.70947 122.662 7.81104L122.713 7.13184H123.792V16.6406H122.618V13.3779C122.516 13.4837 122.408 13.5789 122.294 13.6636C122.184 13.7482 122.063 13.8201 121.932 13.8794C121.767 13.9598 121.587 14.0212 121.393 14.0635C121.198 14.1058 120.988 14.127 120.764 14.127C120.328 14.127 119.939 14.0381 119.596 13.8604C119.258 13.6826 118.97 13.4372 118.733 13.124C118.496 12.8109 118.314 12.4427 118.187 12.0195C118.064 11.5921 118.003 11.133 118.003 10.6421V10.5088ZM119.177 10.6421C119.177 10.9764 119.213 11.2959 119.285 11.6006C119.361 11.9053 119.476 12.174 119.628 12.4067C119.78 12.6395 119.973 12.8257 120.206 12.9653C120.443 13.1007 120.724 13.1685 121.05 13.1685C121.232 13.1685 121.399 13.1473 121.551 13.105C121.704 13.0627 121.843 13.0055 121.97 12.9336C122.106 12.8532 122.226 12.7559 122.332 12.6416C122.438 12.5231 122.533 12.394 122.618 12.2544V8.86475C122.537 8.73356 122.444 8.61507 122.338 8.50928C122.237 8.39925 122.123 8.30404 121.996 8.22363C121.864 8.14323 121.721 8.08187 121.564 8.03955C121.412 7.993 121.244 7.96973 121.062 7.96973C120.737 7.96973 120.455 8.03955 120.218 8.1792C119.981 8.31885 119.787 8.50505 119.634 8.73779C119.478 8.97477 119.361 9.24561 119.285 9.55029C119.213 9.85498 119.177 10.1745 119.177 10.5088V10.6421ZM131.162 10.439H126.306V9.47412H131.162V10.439ZM135.586 14V8.03955H133.694V7.13184H135.586V6.64941C135.586 6.20931 135.649 5.82422 135.776 5.49414C135.908 5.15983 136.092 4.88053 136.329 4.65625C136.561 4.43197 136.843 4.2627 137.173 4.14844C137.503 4.03418 137.871 3.97705 138.277 3.97705C138.447 3.97705 138.614 3.98763 138.779 4.00879C138.944 4.02572 139.107 4.04899 139.268 4.07861C139.373 4.09977 139.479 4.12305 139.585 4.14844C139.691 4.1696 139.799 4.19499 139.909 4.22461L139.769 5.1958C139.596 5.13656 139.392 5.08577 139.16 5.04346C138.931 4.99691 138.686 4.97363 138.423 4.97363C138.157 4.97363 137.92 5.00749 137.712 5.0752C137.509 5.13867 137.34 5.236 137.205 5.36719C137.061 5.5026 136.951 5.67822 136.875 5.89404C136.803 6.10986 136.767 6.36165 136.767 6.64941V7.13184H139.414V8.03955H136.767V14H135.586ZM146.142 7.00488C146.358 7.00488 146.582 7.01969 146.815 7.04932C147.052 7.07894 147.23 7.11914 147.348 7.16992L147.189 8.31885C146.961 8.26807 146.743 8.2321 146.536 8.21094C146.333 8.18555 146.119 8.17285 145.895 8.17285C145.607 8.17285 145.347 8.20882 145.114 8.28076C144.881 8.34847 144.678 8.45003 144.504 8.58545C144.348 8.70394 144.21 8.84993 144.092 9.02344C143.978 9.19271 143.882 9.38314 143.806 9.59473V14H142.625V7.13184H143.743L143.793 8.05225L143.8 8.22363C144.079 7.84701 144.413 7.55078 144.803 7.33496C145.196 7.11491 145.643 7.00488 146.142 7.00488Z" fill="#696C80"/>
</svg>
