<svg width="160" height="98" viewBox="0 0 160 98" fill="none" xmlns="http://www.w3.org/2000/svg">
<rect x="0.5" y="34.5" width="159" height="63" rx="4.5" stroke="#9747FF" stroke-dasharray="10 5"/>
<path fill-rule="evenodd" clip-rule="evenodd" d="M138 66C138 70.4183 134.418 74 130 74H124C120.686 74 118 71.3137 118 68C118 65.0182 120.175 62.5444 123.025 62.0788C124.397 59.6442 127.006 58 130 58C134.418 58 138 61.5817 138 66Z" fill="#BABDCC"/>
<path fill-rule="evenodd" clip-rule="evenodd" d="M90 66C90 70.4183 86.4183 74 82 74H76C72.6863 74 70 71.3137 70 68C70 65.0182 72.1751 62.5444 75.0253 62.0788C76.397 59.6442 79.0065 58 82 58C86.4183 58 90 61.5817 90 66Z" fill="#12131A"/>
<path fill-rule="evenodd" clip-rule="evenodd" d="M28.2961 63.8977L27.3477 64.0526C25.4492 64.3628 24 66.0141 24 68C24 70.2091 25.7909 72 28 72H34C37.3137 72 40 69.3137 40 66C40 62.6863 37.3137 60 34 60C31.7575 60 29.7994 61.2294 28.7678 63.0605L28.2961 63.8977ZM27.0253 62.0788C24.1751 62.5444 22 65.0182 22 68C22 71.3137 24.6863 74 28 74H34C38.4183 74 42 70.4183 42 66C42 61.5817 38.4183 58 34 58C31.0065 58 28.397 59.6442 27.0253 62.0788Z" fill="#12131A"/>
<path d="M7.09033 11.2197C7.03532 11.6471 6.92529 12.0407 6.76025 12.4004C6.59521 12.7559 6.38151 13.0605 6.11914 13.3145C5.85254 13.5726 5.53727 13.7736 5.17334 13.9175C4.81364 14.0571 4.41162 14.127 3.96729 14.127C3.58643 14.127 3.23942 14.0741 2.92627 13.9683C2.61735 13.8582 2.34229 13.708 2.10107 13.5176C1.85563 13.3271 1.64404 13.1029 1.46631 12.8447C1.29281 12.5866 1.14893 12.3052 1.03467 12.0005C0.916178 11.6958 0.827311 11.3763 0.768066 11.042C0.713053 10.7077 0.683431 10.3691 0.679199 10.0264V8.73779C0.683431 8.39502 0.713053 8.05648 0.768066 7.72217C0.827311 7.38786 0.916178 7.06836 1.03467 6.76367C1.14893 6.45898 1.29281 6.17757 1.46631 5.91943C1.64404 5.65706 1.85563 5.43066 2.10107 5.24023C2.34229 5.0498 2.61735 4.90169 2.92627 4.7959C3.23519 4.68587 3.58219 4.63086 3.96729 4.63086C4.42855 4.63086 4.84115 4.7028 5.20508 4.84668C5.56901 4.98633 5.88216 5.18522 6.14453 5.44336C6.4069 5.70573 6.61637 6.01888 6.77295 6.38281C6.93376 6.74674 7.03955 7.14876 7.09033 7.58887H5.91602C5.87793 7.30957 5.81234 7.04932 5.71924 6.80811C5.62614 6.56689 5.5013 6.35531 5.34473 6.17334C5.18815 5.99137 4.99561 5.84961 4.76709 5.74805C4.54281 5.64225 4.2762 5.58936 3.96729 5.58936C3.68799 5.58936 3.44043 5.6359 3.22461 5.729C3.01302 5.81787 2.83105 5.94059 2.67871 6.09717C2.52214 6.25374 2.39095 6.43571 2.28516 6.64307C2.18359 6.85042 2.10107 7.07048 2.0376 7.30322C1.97412 7.53597 1.92757 7.77507 1.89795 8.02051C1.87256 8.26172 1.85986 8.49658 1.85986 8.7251V10.0264C1.85986 10.2549 1.87256 10.4919 1.89795 10.7373C1.92757 10.9785 1.97412 11.2155 2.0376 11.4482C2.10107 11.6852 2.18359 11.9074 2.28516 12.1147C2.38672 12.3221 2.51579 12.5041 2.67236 12.6606C2.82894 12.8215 3.01302 12.9484 3.22461 13.0415C3.4362 13.1304 3.68376 13.1748 3.96729 13.1748C4.2762 13.1748 4.54281 13.1261 4.76709 13.0288C4.99561 12.9315 5.18815 12.7939 5.34473 12.6162C5.5013 12.4427 5.62614 12.2375 5.71924 12.0005C5.81234 11.7593 5.87793 11.499 5.91602 11.2197H7.09033ZM9.09619 4.25H12.6064V12.9844H14.8472V14H9.09619V12.9844H11.4321V5.27197H9.09619V4.25ZM16.3896 10.5024C16.3896 10.0073 16.4616 9.54818 16.6055 9.125C16.7493 8.69759 16.9567 8.32731 17.2275 8.01416C17.4941 7.70101 17.82 7.45557 18.2051 7.27783C18.5902 7.09587 19.0239 7.00488 19.5063 7.00488C19.993 7.00488 20.4289 7.09587 20.814 7.27783C21.2033 7.45557 21.5334 7.70101 21.8042 8.01416C22.0708 8.32731 22.276 8.69759 22.4199 9.125C22.5638 9.54818 22.6357 10.0073 22.6357 10.5024V10.6421C22.6357 11.1372 22.5638 11.5964 22.4199 12.0195C22.276 12.4427 22.0708 12.8109 21.8042 13.124C21.5334 13.4372 21.2054 13.6826 20.8203 13.8604C20.4352 14.0381 20.0015 14.127 19.519 14.127C19.0324 14.127 18.5944 14.0381 18.2051 13.8604C17.82 13.6826 17.4941 13.4372 17.2275 13.124C16.9567 12.8109 16.7493 12.4427 16.6055 12.0195C16.4616 11.5964 16.3896 11.1372 16.3896 10.6421V10.5024ZM17.564 10.6421C17.564 10.9806 17.6042 11.3044 17.6846 11.6133C17.765 11.918 17.8877 12.1867 18.0527 12.4194C18.2135 12.6522 18.4167 12.8363 18.6621 12.9717C18.9076 13.1071 19.1932 13.1748 19.519 13.1748C19.8407 13.1748 20.1221 13.1071 20.3633 12.9717C20.6087 12.8363 20.814 12.6522 20.979 12.4194C21.1398 12.1867 21.2604 11.918 21.3408 11.6133C21.4212 11.3044 21.4614 10.9806 21.4614 10.6421V10.5024C21.4614 10.1681 21.4191 9.84863 21.3345 9.54395C21.2541 9.23503 21.1335 8.96419 20.9727 8.73145C20.8076 8.4987 20.6024 8.31462 20.3569 8.1792C20.1157 8.03955 19.8322 7.96973 19.5063 7.96973C19.1805 7.96973 18.897 8.03955 18.6558 8.1792C18.4146 8.31462 18.2135 8.4987 18.0527 8.73145C17.8877 8.96419 17.765 9.23503 17.6846 9.54395C17.6042 9.84863 17.564 10.1681 17.564 10.5024V10.6421ZM29.0532 14L28.9834 13.0542C28.7549 13.3927 28.4692 13.6572 28.1265 13.8477C27.7837 14.0339 27.388 14.127 26.9395 14.127C26.5798 14.127 26.2539 14.0719 25.9619 13.9619C25.6699 13.8477 25.4202 13.672 25.2129 13.4351C25.0055 13.1981 24.8447 12.8976 24.7305 12.5337C24.6204 12.1655 24.5654 11.7254 24.5654 11.2134V7.13184H25.7397V11.2261C25.7397 11.5985 25.7694 11.9074 25.8286 12.1528C25.8879 12.3983 25.9767 12.5929 26.0952 12.7368C26.2137 12.8849 26.3576 12.9886 26.5269 13.0479C26.7004 13.1071 26.8993 13.1367 27.1235 13.1367C27.3859 13.1367 27.6208 13.1071 27.8281 13.0479C28.0355 12.9844 28.2153 12.8976 28.3677 12.7876C28.4946 12.6987 28.6047 12.5929 28.6978 12.4702C28.7951 12.3433 28.8755 12.2057 28.939 12.0576V7.13184H30.1196V14H29.0532ZM32.1128 10.5088C32.1128 9.99674 32.1763 9.52702 32.3032 9.09961C32.4344 8.66797 32.6206 8.29769 32.8618 7.98877C33.0988 7.67985 33.3866 7.43864 33.7251 7.26514C34.0636 7.09163 34.4424 7.00488 34.8613 7.00488C35.2718 7.00488 35.6294 7.07471 35.9341 7.21436C36.243 7.34977 36.5096 7.54867 36.7339 7.81104V4.25H37.9082V14H36.8291L36.7783 13.2764C36.5498 13.5557 36.2769 13.7673 35.9595 13.9111C35.6421 14.055 35.2718 14.127 34.8486 14.127C34.4339 14.127 34.0573 14.0381 33.7188 13.8604C33.3844 13.6826 33.0988 13.4372 32.8618 13.124C32.6248 12.8109 32.4408 12.4427 32.3096 12.0195C32.1784 11.5921 32.1128 11.133 32.1128 10.6421V10.5088ZM33.2871 10.6421C33.2871 10.9764 33.3231 11.2938 33.395 11.5942C33.467 11.8947 33.5791 12.1592 33.7314 12.3877C33.8796 12.6162 34.07 12.7982 34.3027 12.9336C34.5355 13.0648 34.8148 13.1304 35.1406 13.1304C35.5342 13.1304 35.86 13.0415 36.1182 12.8638C36.3763 12.686 36.5815 12.4469 36.7339 12.1465V8.95996C36.5815 8.68066 36.3763 8.45215 36.1182 8.27441C35.86 8.09245 35.5384 8.00146 35.1533 8.00146C34.8232 8.00146 34.5397 8.06917 34.3027 8.20459C34.07 8.34001 33.8796 8.52197 33.7314 8.75049C33.5791 8.98324 33.467 9.25195 33.395 9.55664C33.3231 9.8571 33.2871 10.1745 33.2871 10.5088V10.6421ZM40.6948 16.7739C40.5848 16.7739 40.4557 16.7612 40.3076 16.7358C40.1595 16.7104 40.0474 16.6893 39.9712 16.6724L40.1616 15.7139C40.2674 15.7223 40.3711 15.7287 40.4727 15.7329C40.5785 15.7414 40.661 15.7456 40.7202 15.7456C40.881 15.7456 41.027 15.7012 41.1582 15.6123C41.2936 15.5234 41.4142 15.4176 41.52 15.2949C41.6216 15.1722 41.7083 15.0452 41.7803 14.9141C41.8564 14.7829 41.9157 14.675 41.958 14.5903L42.4277 13.6763L39.4697 7.13184H40.7837L42.6689 11.5625L42.9736 12.394L43.2974 11.5879L45.0684 7.13184H46.3823L42.8975 15.0601C42.8171 15.2378 42.7134 15.4261 42.5864 15.625C42.4637 15.8239 42.3135 16.008 42.1357 16.1772C41.958 16.3465 41.7507 16.4883 41.5137 16.6025C41.2767 16.7168 41.0037 16.7739 40.6948 16.7739ZM61.5596 10.4644C61.5596 11.0526 61.4919 11.5752 61.3564 12.0322C61.221 12.485 61.0264 12.8659 60.7725 13.1748C60.5186 13.488 60.2075 13.7249 59.8394 13.8857C59.4712 14.0465 59.0501 14.127 58.5762 14.127C58.1064 14.127 57.6854 14.0487 57.313 13.8921C56.9406 13.7313 56.6253 13.4922 56.3672 13.1748C56.109 12.8659 55.9123 12.485 55.7769 12.0322C55.6414 11.5752 55.5737 11.0526 55.5737 10.4644V8.2998C55.5737 7.71159 55.6414 7.19108 55.7769 6.73828C55.9123 6.28125 56.109 5.89616 56.3672 5.58301C56.6211 5.26986 56.9321 5.03288 57.3003 4.87207C57.6727 4.70703 58.0938 4.62451 58.5635 4.62451C59.0374 4.62451 59.4585 4.70703 59.8267 4.87207C60.1991 5.03288 60.5143 5.26986 60.7725 5.58301C61.0264 5.89616 61.221 6.28125 61.3564 6.73828C61.4919 7.19108 61.5596 7.71159 61.5596 8.2998V10.4644ZM56.7544 10.2295L60.3535 7.46826C60.3197 7.16357 60.2583 6.89486 60.1694 6.66211C60.0848 6.42513 59.9684 6.22835 59.8203 6.07178C59.6764 5.91097 59.4987 5.79036 59.2871 5.70996C59.0798 5.62956 58.8385 5.58936 58.5635 5.58936C58.2842 5.58936 58.0366 5.63379 57.8208 5.72266C57.6092 5.80729 57.4294 5.93213 57.2812 6.09717C57.1035 6.30452 56.9702 6.57324 56.8813 6.90332C56.7967 7.22917 56.7544 7.60791 56.7544 8.03955V9.58838C56.7544 9.69417 56.7544 9.79997 56.7544 9.90576C56.7544 10.0116 56.7544 10.1195 56.7544 10.2295ZM60.3789 10.7119V9.4043C60.3789 9.34082 60.3789 9.22021 60.3789 9.04248C60.3789 8.86051 60.3789 8.71029 60.3789 8.5918L56.7861 11.3403C56.8242 11.6493 56.8919 11.9222 56.9893 12.1592C57.0866 12.3919 57.2135 12.5845 57.3701 12.7368C57.514 12.8807 57.6875 12.9907 57.8906 13.0669C58.0938 13.1388 58.3223 13.1748 58.5762 13.1748C58.8428 13.1748 59.0798 13.1346 59.2871 13.0542C59.4945 12.9738 59.6701 12.8574 59.814 12.7051C60.0086 12.4977 60.1504 12.2269 60.2393 11.8926C60.3324 11.5583 60.3789 11.1647 60.3789 10.7119ZM69.2339 14H63.1782V13.1558L66.2061 9.7915C66.4769 9.49105 66.7033 9.22445 66.8853 8.9917C67.0672 8.75895 67.2132 8.54313 67.3232 8.34424C67.4333 8.14958 67.5116 7.96549 67.5581 7.79199C67.6047 7.61426 67.6279 7.43229 67.6279 7.24609C67.6279 7.01758 67.5898 6.80387 67.5137 6.60498C67.4417 6.40186 67.3359 6.22624 67.1963 6.07812C67.0524 5.93001 66.8789 5.81364 66.6758 5.729C66.4769 5.64014 66.2505 5.5957 65.9966 5.5957C65.6877 5.5957 65.4189 5.64014 65.1904 5.729C64.9661 5.81787 64.7799 5.94271 64.6318 6.10352C64.4795 6.26855 64.3652 6.46745 64.2891 6.7002C64.2171 6.93294 64.1812 7.1932 64.1812 7.48096H63.0005C63.0005 7.09163 63.0682 6.72559 63.2036 6.38281C63.339 6.03581 63.5358 5.73324 63.7939 5.4751C64.0479 5.21696 64.3589 5.01172 64.7271 4.85938C65.0994 4.70703 65.5226 4.63086 65.9966 4.63086C66.4325 4.63086 66.8239 4.69645 67.1709 4.82764C67.5221 4.95459 67.8184 5.13232 68.0596 5.36084C68.3008 5.58936 68.4849 5.86019 68.6118 6.17334C68.743 6.48649 68.8086 6.82715 68.8086 7.19531C68.8086 7.47038 68.762 7.74333 68.6689 8.01416C68.5758 8.28076 68.451 8.54525 68.2944 8.80762C68.1336 9.06999 67.9474 9.33024 67.7358 9.58838C67.5285 9.84229 67.3084 10.0962 67.0757 10.3501L64.5938 13.0415H69.2339V14Z" fill="#696C80"/>
</svg>
