<svg width="160" height="98" viewBox="0 0 160 98" fill="none" xmlns="http://www.w3.org/2000/svg">
<rect x="0.5" y="34.5" width="159" height="63" rx="4.5" stroke="#9747FF" stroke-dasharray="10 5"/>
<path d="M138 66C138 71.5228 133.523 76 128 76C122.477 76 118 71.5228 118 66C118 60.4772 122.477 56 128 56C133.523 56 138 60.4772 138 66Z" fill="#BABDCC"/>
<path fill-rule="evenodd" clip-rule="evenodd" d="M127 59C127 58.4477 127.448 58 128 58C128.552 58 129 58.4477 129 59V60C130.657 60 132 61.3431 132 63C132 63.5523 131.552 64 131 64C130.448 64 130 63.5523 130 63C130 62.4477 129.552 62 129 62H127C126.448 62 126 62.4477 126 63V63.5585C126 63.9889 126.275 64.3711 126.684 64.5072L129.949 65.5955C131.174 66.0038 132 67.1502 132 68.4415V69C132 70.6569 130.657 72 129 72V73C129 73.5523 128.552 74 128 74C127.448 74 127 73.5523 127 73V72C125.343 72 124 70.6569 124 69C124 68.4477 124.448 68 125 68C125.552 68 126 68.4477 126 69C126 69.5523 126.448 70 127 70H129C129.552 70 130 69.5523 130 69V68.4415C130 68.0111 129.725 67.6289 129.316 67.4928L126.051 66.4045C124.826 65.9962 124 64.8498 124 63.5585V63C124 61.3431 125.343 60 127 60V59Z" fill="#12131A"/>
<path fill-rule="evenodd" clip-rule="evenodd" d="M80 76C85.5228 76 90 71.5228 90 66C90 60.4772 85.5228 56 80 56C74.4772 56 70 60.4772 70 66C70 71.5228 74.4772 76 80 76ZM78 63C78 62.4477 78.4477 62 79 62H81C81.5523 62 82 62.4477 82 63C82 63.5523 82.4477 64 83 64C83.5523 64 84 63.5523 84 63C84 61.3431 82.6569 60 81 60V59C81 58.4477 80.5523 58 80 58C79.4477 58 79 58.4477 79 59V60C77.3431 60 76 61.3431 76 63V63.5585C76 64.8498 76.8263 65.9962 78.0513 66.4045L81.3162 67.4928C81.7246 67.6289 82 68.0111 82 68.4415V69C82 69.5523 81.5523 70 81 70H79C78.4477 70 78 69.5523 78 69C78 68.4477 77.5523 68 77 68C76.4477 68 76 68.4477 76 69C76 70.6569 77.3431 72 79 72V73C79 73.5523 79.4477 74 80 74C80.5523 74 81 73.5523 81 73V72C82.6569 72 84 70.6569 84 69V68.4415C84 67.1502 83.1737 66.0038 81.9487 65.5955L78.6838 64.5072C78.2754 64.3711 78 63.9889 78 63.5585V63Z" fill="#12131A"/>
<path fill-rule="evenodd" clip-rule="evenodd" d="M32 74C36.4183 74 40 70.4183 40 66C40 61.5817 36.4183 58 32 58C27.5817 58 24 61.5817 24 66C24 70.4183 27.5817 74 32 74ZM32 76C37.5228 76 42 71.5228 42 66C42 60.4772 37.5228 56 32 56C26.4772 56 22 60.4772 22 66C22 71.5228 26.4772 76 32 76Z" fill="#12131A"/>
<path fill-rule="evenodd" clip-rule="evenodd" d="M31 61C31 60.4477 31.4477 60 32 60C32.5523 60 33 60.4477 33 61C34.6569 61 36 62.3431 36 64C36 64.5523 35.5523 65 35 65C34.4477 65 34 64.5523 34 64C34 63.4477 33.5523 63 33 63H32H30.7434C30.3328 63 30 63.3328 30 63.7434C30 64.0634 30.2048 64.3475 30.5083 64.4487L34.1241 65.6539C35.2444 66.0274 36 67.0757 36 68.2566C36 69.7717 34.7717 71 33.2566 71H33C33 71.5523 32.5523 72 32 72C31.4477 72 31 71.5523 31 71C29.3431 71 28 69.6569 28 68C28 67.4477 28.4477 67 29 67C29.5523 67 30 67.4477 30 68C30 68.5523 30.4477 69 31 69H32H33.2566C33.6672 69 34 68.6672 34 68.2566C34 67.9366 33.7952 67.6525 33.4917 67.5513L29.8759 66.346C28.7556 65.9726 28 64.9243 28 63.7434C28 62.2283 29.2283 61 30.7434 61L31 61Z" fill="#12131A"/>
<path d="M7.09033 11.2197C7.03532 11.6471 6.92529 12.0407 6.76025 12.4004C6.59521 12.7559 6.38151 13.0605 6.11914 13.3145C5.85254 13.5726 5.53727 13.7736 5.17334 13.9175C4.81364 14.0571 4.41162 14.127 3.96729 14.127C3.58643 14.127 3.23942 14.0741 2.92627 13.9683C2.61735 13.8582 2.34229 13.708 2.10107 13.5176C1.85563 13.3271 1.64404 13.1029 1.46631 12.8447C1.29281 12.5866 1.14893 12.3052 1.03467 12.0005C0.916178 11.6958 0.827311 11.3763 0.768066 11.042C0.713053 10.7077 0.683431 10.3691 0.679199 10.0264V8.73779C0.683431 8.39502 0.713053 8.05648 0.768066 7.72217C0.827311 7.38786 0.916178 7.06836 1.03467 6.76367C1.14893 6.45898 1.29281 6.17757 1.46631 5.91943C1.64404 5.65706 1.85563 5.43066 2.10107 5.24023C2.34229 5.0498 2.61735 4.90169 2.92627 4.7959C3.23519 4.68587 3.58219 4.63086 3.96729 4.63086C4.42855 4.63086 4.84115 4.7028 5.20508 4.84668C5.56901 4.98633 5.88216 5.18522 6.14453 5.44336C6.4069 5.70573 6.61637 6.01888 6.77295 6.38281C6.93376 6.74674 7.03955 7.14876 7.09033 7.58887H5.91602C5.87793 7.30957 5.81234 7.04932 5.71924 6.80811C5.62614 6.56689 5.5013 6.35531 5.34473 6.17334C5.18815 5.99137 4.99561 5.84961 4.76709 5.74805C4.54281 5.64225 4.2762 5.58936 3.96729 5.58936C3.68799 5.58936 3.44043 5.6359 3.22461 5.729C3.01302 5.81787 2.83105 5.94059 2.67871 6.09717C2.52214 6.25374 2.39095 6.43571 2.28516 6.64307C2.18359 6.85042 2.10107 7.07048 2.0376 7.30322C1.97412 7.53597 1.92757 7.77507 1.89795 8.02051C1.87256 8.26172 1.85986 8.49658 1.85986 8.7251V10.0264C1.85986 10.2549 1.87256 10.4919 1.89795 10.7373C1.92757 10.9785 1.97412 11.2155 2.0376 11.4482C2.10107 11.6852 2.18359 11.9074 2.28516 12.1147C2.38672 12.3221 2.51579 12.5041 2.67236 12.6606C2.82894 12.8215 3.01302 12.9484 3.22461 13.0415C3.4362 13.1304 3.68376 13.1748 3.96729 13.1748C4.2762 13.1748 4.54281 13.1261 4.76709 13.0288C4.99561 12.9315 5.18815 12.7939 5.34473 12.6162C5.5013 12.4427 5.62614 12.2375 5.71924 12.0005C5.81234 11.7593 5.87793 11.499 5.91602 11.2197H7.09033ZM8.58203 10.5024C8.58203 10.0073 8.65397 9.54818 8.79785 9.125C8.94173 8.69759 9.14909 8.32731 9.41992 8.01416C9.68652 7.70101 10.0124 7.45557 10.3975 7.27783C10.7826 7.09587 11.2163 7.00488 11.6987 7.00488C12.1854 7.00488 12.6213 7.09587 13.0063 7.27783C13.3957 7.45557 13.7257 7.70101 13.9966 8.01416C14.2632 8.32731 14.4684 8.69759 14.6123 9.125C14.7562 9.54818 14.8281 10.0073 14.8281 10.5024V10.6421C14.8281 11.1372 14.7562 11.5964 14.6123 12.0195C14.4684 12.4427 14.2632 12.8109 13.9966 13.124C13.7257 13.4372 13.3978 13.6826 13.0127 13.8604C12.6276 14.0381 12.1938 14.127 11.7114 14.127C11.2248 14.127 10.7868 14.0381 10.3975 13.8604C10.0124 13.6826 9.68652 13.4372 9.41992 13.124C9.14909 12.8109 8.94173 12.4427 8.79785 12.0195C8.65397 11.5964 8.58203 11.1372 8.58203 10.6421V10.5024ZM9.75635 10.6421C9.75635 10.9806 9.79655 11.3044 9.87695 11.6133C9.95736 11.918 10.0801 12.1867 10.2451 12.4194C10.4059 12.6522 10.609 12.8363 10.8545 12.9717C11.0999 13.1071 11.3856 13.1748 11.7114 13.1748C12.033 13.1748 12.3145 13.1071 12.5557 12.9717C12.8011 12.8363 13.0063 12.6522 13.1714 12.4194C13.3322 12.1867 13.4528 11.918 13.5332 11.6133C13.6136 11.3044 13.6538 10.9806 13.6538 10.6421V10.5024C13.6538 10.1681 13.6115 9.84863 13.5269 9.54395C13.4465 9.23503 13.3258 8.96419 13.165 8.73145C13 8.4987 12.7948 8.31462 12.5493 8.1792C12.3081 8.03955 12.0246 7.96973 11.6987 7.96973C11.3729 7.96973 11.0894 8.03955 10.8481 8.1792C10.6069 8.31462 10.4059 8.4987 10.2451 8.73145C10.0801 8.96419 9.95736 9.23503 9.87695 9.54395C9.79655 9.84863 9.75635 10.1681 9.75635 10.5024V10.6421ZM16.9038 7.13184H20.4141V12.9844H22.6548V14H16.9038V12.9844H19.2397V8.15381H16.9038V7.13184ZM19.0874 5.3291C19.0874 5.22754 19.1022 5.13232 19.1318 5.04346C19.1657 4.95459 19.2165 4.87842 19.2842 4.81494C19.3392 4.75993 19.409 4.71761 19.4937 4.68799C19.5825 4.65413 19.682 4.63721 19.792 4.63721C19.902 4.63721 19.9993 4.65413 20.084 4.68799C20.1686 4.71761 20.2384 4.75993 20.2935 4.81494C20.3612 4.87419 20.4119 4.94824 20.4458 5.03711C20.4797 5.12598 20.4966 5.22331 20.4966 5.3291C20.4966 5.51953 20.4373 5.67822 20.3188 5.80518C20.2004 5.93213 20.0247 5.99561 19.792 5.99561C19.555 5.99561 19.3773 5.93213 19.2588 5.80518C19.1445 5.67822 19.0874 5.51953 19.0874 5.3291ZM24.5273 14V7.13184H25.5811L25.6636 8.14746C25.7651 8.00358 25.8752 7.8724 25.9937 7.75391C26.1164 7.63118 26.2454 7.52539 26.3809 7.43652C26.584 7.30111 26.804 7.19743 27.041 7.12549C27.2822 7.04932 27.5361 7.00911 27.8027 7.00488C28.1624 7.00488 28.4883 7.05566 28.7803 7.15723C29.0765 7.25879 29.3283 7.41748 29.5356 7.6333C29.743 7.84912 29.9017 8.12419 30.0117 8.4585C30.126 8.78857 30.1831 9.18213 30.1831 9.63916V14H29.0088V9.66455C29.0088 9.35986 28.9749 9.10173 28.9072 8.89014C28.8395 8.67855 28.7401 8.50716 28.6089 8.37598C28.4735 8.24479 28.3084 8.14958 28.1138 8.09033C27.9233 8.03109 27.7033 8.00146 27.4536 8.00146C27.2378 8.00146 27.0368 8.0332 26.8506 8.09668C26.6644 8.15592 26.493 8.23844 26.3364 8.34424C26.2095 8.43734 26.091 8.54525 25.981 8.66797C25.8752 8.79069 25.7821 8.92611 25.7017 9.07422V14H24.5273ZM40.022 14V4.75781H42.1611C42.5208 4.76204 42.8594 4.80013 43.1768 4.87207C43.4984 4.93978 43.7946 5.03711 44.0654 5.16406C44.4421 5.33757 44.7743 5.56608 45.062 5.84961C45.354 6.12891 45.5868 6.45264 45.7603 6.8208C45.9168 7.13395 46.0353 7.47673 46.1157 7.84912C46.2004 8.22152 46.2448 8.6193 46.249 9.04248V9.72168C46.249 10.1279 46.2088 10.513 46.1284 10.877C46.0522 11.2409 45.9401 11.5752 45.792 11.8799C45.6396 12.1973 45.4471 12.485 45.2144 12.7432C44.9816 13.0013 44.7214 13.2214 44.4336 13.4033C44.1289 13.5938 43.784 13.7397 43.3989 13.8413C43.0181 13.9429 42.6055 13.9958 42.1611 14H40.022ZM41.2153 5.72266V13.0415H42.1611C42.4997 13.0373 42.8065 12.995 43.0815 12.9146C43.3608 12.8341 43.6084 12.7199 43.8242 12.5718C44.0527 12.4194 44.2495 12.2332 44.4146 12.0132C44.5838 11.7889 44.7171 11.5392 44.8145 11.2642C44.8991 11.0399 44.9626 10.7987 45.0049 10.5405C45.0472 10.2782 45.0705 10.0052 45.0747 9.72168V9.02979C45.0705 8.74202 45.0451 8.46696 44.9985 8.20459C44.9562 7.93799 44.8906 7.69043 44.8018 7.46191C44.6875 7.16569 44.533 6.89909 44.3384 6.66211C44.1479 6.4209 43.9131 6.22624 43.6338 6.07812C43.4349 5.9681 43.2127 5.88346 42.9673 5.82422C42.7218 5.76074 42.4531 5.72689 42.1611 5.72266H41.2153ZM47.6201 10.5024C47.6201 10.0073 47.6921 9.54818 47.8359 9.125C47.9798 8.69759 48.1872 8.32731 48.458 8.01416C48.7246 7.70101 49.0505 7.45557 49.4355 7.27783C49.8206 7.09587 50.2544 7.00488 50.7368 7.00488C51.2235 7.00488 51.6593 7.09587 52.0444 7.27783C52.4338 7.45557 52.7638 7.70101 53.0347 8.01416C53.3013 8.32731 53.5065 8.69759 53.6504 9.125C53.7943 9.54818 53.8662 10.0073 53.8662 10.5024V10.6421C53.8662 11.1372 53.7943 11.5964 53.6504 12.0195C53.5065 12.4427 53.3013 12.8109 53.0347 13.124C52.7638 13.4372 52.4359 13.6826 52.0508 13.8604C51.6657 14.0381 51.2319 14.127 50.7495 14.127C50.2629 14.127 49.8249 14.0381 49.4355 13.8604C49.0505 13.6826 48.7246 13.4372 48.458 13.124C48.1872 12.8109 47.9798 12.4427 47.8359 12.0195C47.6921 11.5964 47.6201 11.1372 47.6201 10.6421V10.5024ZM48.7944 10.6421C48.7944 10.9806 48.8346 11.3044 48.915 11.6133C48.9954 11.918 49.1182 12.1867 49.2832 12.4194C49.444 12.6522 49.6471 12.8363 49.8926 12.9717C50.138 13.1071 50.4237 13.1748 50.7495 13.1748C51.0711 13.1748 51.3525 13.1071 51.5938 12.9717C51.8392 12.8363 52.0444 12.6522 52.2095 12.4194C52.3703 12.1867 52.4909 11.918 52.5713 11.6133C52.6517 11.3044 52.6919 10.9806 52.6919 10.6421V10.5024C52.6919 10.1681 52.6496 9.84863 52.5649 9.54395C52.4845 9.23503 52.3639 8.96419 52.2031 8.73145C52.0381 8.4987 51.8328 8.31462 51.5874 8.1792C51.3462 8.03955 51.0627 7.96973 50.7368 7.96973C50.411 7.96973 50.1274 8.03955 49.8862 8.1792C49.645 8.31462 49.444 8.4987 49.2832 8.73145C49.1182 8.96419 48.9954 9.23503 48.915 9.54395C48.8346 9.84863 48.7944 10.1681 48.7944 10.5024V10.6421ZM55.9419 4.25H59.4521V12.9844H61.6929V14H55.9419V12.9844H58.2778V5.27197H55.9419V4.25ZM63.7495 4.25H67.2598V12.9844H69.5005V14H63.7495V12.9844H66.0854V5.27197H63.7495V4.25ZM75.8862 14C75.8397 13.9111 75.8016 13.8011 75.772 13.6699C75.7466 13.5345 75.7275 13.3949 75.7148 13.251C75.5964 13.3695 75.4631 13.4816 75.3149 13.5874C75.1711 13.6932 75.0124 13.7863 74.8389 13.8667C74.6611 13.9471 74.4728 14.0106 74.2739 14.0571C74.075 14.1037 73.8634 14.127 73.6392 14.127C73.2752 14.127 72.9451 14.0741 72.6489 13.9683C72.3569 13.8625 72.1094 13.7186 71.9062 13.5366C71.6989 13.3589 71.5381 13.1473 71.4238 12.9019C71.3138 12.6522 71.2588 12.3835 71.2588 12.0957C71.2588 11.7191 71.3328 11.389 71.481 11.1055C71.6333 10.8219 71.847 10.585 72.1221 10.3945C72.3971 10.2083 72.7272 10.0687 73.1123 9.97559C73.5016 9.88249 73.9354 9.83594 74.4136 9.83594H75.6958V9.29639C75.6958 9.08903 75.6577 8.90283 75.5815 8.73779C75.5054 8.57275 75.3975 8.43099 75.2578 8.3125C75.1182 8.19824 74.9468 8.10938 74.7437 8.0459C74.5448 7.98242 74.3205 7.95068 74.0708 7.95068C73.8381 7.95068 73.6286 7.98031 73.4424 8.03955C73.2604 8.0988 73.106 8.17708 72.979 8.27441C72.8521 8.37174 72.7526 8.48812 72.6807 8.62354C72.613 8.75472 72.5791 8.89225 72.5791 9.03613H71.3984C71.4027 8.78646 71.4661 8.54102 71.5889 8.2998C71.7158 8.05859 71.8978 7.84066 72.1348 7.646C72.3675 7.45557 72.651 7.30111 72.9854 7.18262C73.3239 7.06413 73.7069 7.00488 74.1343 7.00488C74.5236 7.00488 74.8854 7.05355 75.2197 7.15088C75.554 7.24398 75.8439 7.38574 76.0894 7.57617C76.3306 7.77083 76.521 8.01204 76.6606 8.2998C76.8003 8.58757 76.8701 8.92399 76.8701 9.30908V12.502C76.8701 12.7305 76.8913 12.9738 76.9336 13.2319C76.9759 13.4858 77.0352 13.708 77.1113 13.8984V14H75.8862ZM73.8105 13.105C74.0391 13.105 74.2528 13.0754 74.4517 13.0161C74.6506 12.9569 74.8325 12.8786 74.9976 12.7812C75.1584 12.6839 75.298 12.5739 75.4165 12.4512C75.535 12.3242 75.6281 12.193 75.6958 12.0576V10.6675H74.604C74.1978 10.6675 73.8423 10.7035 73.5376 10.7754C73.2371 10.8431 72.998 10.9489 72.8203 11.0928C72.6934 11.1943 72.596 11.3149 72.5283 11.4546C72.4648 11.5942 72.4331 11.7529 72.4331 11.9307C72.4331 12.0999 72.4606 12.2565 72.5156 12.4004C72.5749 12.5443 72.6616 12.667 72.7759 12.7686C72.8901 12.8743 73.034 12.9569 73.2075 13.0161C73.381 13.0754 73.582 13.105 73.8105 13.105ZM83.6812 7.00488C83.897 7.00488 84.1213 7.01969 84.354 7.04932C84.591 7.07894 84.7687 7.11914 84.8872 7.16992L84.7285 8.31885C84.5 8.26807 84.2821 8.2321 84.0747 8.21094C83.8716 8.18555 83.6579 8.17285 83.4336 8.17285C83.1458 8.17285 82.8856 8.20882 82.6528 8.28076C82.4201 8.34847 82.217 8.45003 82.0435 8.58545C81.8869 8.70394 81.7493 8.84993 81.6309 9.02344C81.5166 9.19271 81.4214 9.38314 81.3452 9.59473V14H80.1646V7.13184H81.2817L81.3325 8.05225L81.3389 8.22363C81.6182 7.84701 81.9525 7.55078 82.3418 7.33496C82.7354 7.11491 83.1818 7.00488 83.6812 7.00488Z" fill="#696C80"/>
</svg>
