<svg width="160" height="98" viewBox="0 0 160 98" fill="none" xmlns="http://www.w3.org/2000/svg">
<rect x="0.5" y="34.5" width="159" height="63" rx="4.5" stroke="#9747FF" stroke-dasharray="10 5"/>
<path fill-rule="evenodd" clip-rule="evenodd" d="M119 74C119 73.4477 119.448 73 120 73H136C136.552 73 137 73.4477 137 74C137 74.5523 136.552 75 136 75H120C119.448 75 119 74.5523 119 74Z" fill="#12131A"/>
<path d="M130 59C130 57.8954 130.895 57 132 57C133.105 57 134 57.8954 134 59V69C134 70.1046 133.105 71 132 71C130.895 71 130 70.1046 130 69V59Z" fill="#12131A"/>
<path d="M122 65C122 63.8954 122.895 63 124 63C125.105 63 126 63.8954 126 65V69C126 70.1046 125.105 71 124 71C122.895 71 122 70.1046 122 69V65Z" fill="#BABDCC"/>
<path fill-rule="evenodd" clip-rule="evenodd" d="M71 74C71 73.4477 71.4477 73 72 73H88C88.5523 73 89 73.4477 89 74C89 74.5523 88.5523 75 88 75H72C71.4477 75 71 74.5523 71 74Z" fill="#12131A"/>
<path fill-rule="evenodd" clip-rule="evenodd" d="M84 57C82.8954 57 82 57.8954 82 59V69C82 70.1046 82.8954 71 84 71C85.1046 71 86 70.1046 86 69V59C86 57.8954 85.1046 57 84 57Z" fill="#12131A"/>
<path fill-rule="evenodd" clip-rule="evenodd" d="M76 63C74.8954 63 74 63.8954 74 65V69C74 70.1046 74.8954 71 76 71C77.1046 71 78 70.1046 78 69V65C78 63.8954 77.1046 63 76 63Z" fill="#12131A"/>
<path fill-rule="evenodd" clip-rule="evenodd" d="M23 74C23 73.4477 23.4477 73 24 73H40C40.5523 73 41 73.4477 41 74C41 74.5523 40.5523 75 40 75H24C23.4477 75 23 74.5523 23 74Z" fill="#12131A"/>
<path fill-rule="evenodd" clip-rule="evenodd" d="M36 57C34.3431 57 33 58.3431 33 60V70C33 70.5523 33.4477 71 34 71C34.5523 71 35 70.5523 35 70V60C35 59.4477 35.4477 59 36 59C36.5523 59 37 59.4477 37 60V70C37 70.5523 37.4477 71 38 71C38.5523 71 39 70.5523 39 70V60C39 58.3431 37.6569 57 36 57Z" fill="#12131A"/>
<path fill-rule="evenodd" clip-rule="evenodd" d="M28 63C26.3431 63 25 64.3431 25 66V70C25 70.5523 25.4477 71 26 71C26.5523 71 27 70.5523 27 70V66C27 65.4477 27.4477 65 28 65C28.5523 65 29 65.4477 29 66V70C29 70.5523 29.4477 71 30 71C30.5523 71 31 70.5523 31 70V66C31 64.3431 29.6569 63 28 63Z" fill="#12131A"/>
<path d="M7.09033 11.2197C7.03532 11.6471 6.92529 12.0407 6.76025 12.4004C6.59521 12.7559 6.38151 13.0605 6.11914 13.3145C5.85254 13.5726 5.53727 13.7736 5.17334 13.9175C4.81364 14.0571 4.41162 14.127 3.96729 14.127C3.58643 14.127 3.23942 14.0741 2.92627 13.9683C2.61735 13.8582 2.34229 13.708 2.10107 13.5176C1.85563 13.3271 1.64404 13.1029 1.46631 12.8447C1.29281 12.5866 1.14893 12.3052 1.03467 12.0005C0.916178 11.6958 0.827311 11.3763 0.768066 11.042C0.713053 10.7077 0.683431 10.3691 0.679199 10.0264V8.73779C0.683431 8.39502 0.713053 8.05648 0.768066 7.72217C0.827311 7.38786 0.916178 7.06836 1.03467 6.76367C1.14893 6.45898 1.29281 6.17757 1.46631 5.91943C1.64404 5.65706 1.85563 5.43066 2.10107 5.24023C2.34229 5.0498 2.61735 4.90169 2.92627 4.7959C3.23519 4.68587 3.58219 4.63086 3.96729 4.63086C4.42855 4.63086 4.84115 4.7028 5.20508 4.84668C5.56901 4.98633 5.88216 5.18522 6.14453 5.44336C6.4069 5.70573 6.61637 6.01888 6.77295 6.38281C6.93376 6.74674 7.03955 7.14876 7.09033 7.58887H5.91602C5.87793 7.30957 5.81234 7.04932 5.71924 6.80811C5.62614 6.56689 5.5013 6.35531 5.34473 6.17334C5.18815 5.99137 4.99561 5.84961 4.76709 5.74805C4.54281 5.64225 4.2762 5.58936 3.96729 5.58936C3.68799 5.58936 3.44043 5.6359 3.22461 5.729C3.01302 5.81787 2.83105 5.94059 2.67871 6.09717C2.52214 6.25374 2.39095 6.43571 2.28516 6.64307C2.18359 6.85042 2.10107 7.07048 2.0376 7.30322C1.97412 7.53597 1.92757 7.77507 1.89795 8.02051C1.87256 8.26172 1.85986 8.49658 1.85986 8.7251V10.0264C1.85986 10.2549 1.87256 10.4919 1.89795 10.7373C1.92757 10.9785 1.97412 11.2155 2.0376 11.4482C2.10107 11.6852 2.18359 11.9074 2.28516 12.1147C2.38672 12.3221 2.51579 12.5041 2.67236 12.6606C2.82894 12.8215 3.01302 12.9484 3.22461 13.0415C3.4362 13.1304 3.68376 13.1748 3.96729 13.1748C4.2762 13.1748 4.54281 13.1261 4.76709 13.0288C4.99561 12.9315 5.18815 12.7939 5.34473 12.6162C5.5013 12.4427 5.62614 12.2375 5.71924 12.0005C5.81234 11.7593 5.87793 11.499 5.91602 11.2197H7.09033ZM8.58203 10.5024C8.58203 10.0073 8.65397 9.54818 8.79785 9.125C8.94173 8.69759 9.14909 8.32731 9.41992 8.01416C9.68652 7.70101 10.0124 7.45557 10.3975 7.27783C10.7826 7.09587 11.2163 7.00488 11.6987 7.00488C12.1854 7.00488 12.6213 7.09587 13.0063 7.27783C13.3957 7.45557 13.7257 7.70101 13.9966 8.01416C14.2632 8.32731 14.4684 8.69759 14.6123 9.125C14.7562 9.54818 14.8281 10.0073 14.8281 10.5024V10.6421C14.8281 11.1372 14.7562 11.5964 14.6123 12.0195C14.4684 12.4427 14.2632 12.8109 13.9966 13.124C13.7257 13.4372 13.3978 13.6826 13.0127 13.8604C12.6276 14.0381 12.1938 14.127 11.7114 14.127C11.2248 14.127 10.7868 14.0381 10.3975 13.8604C10.0124 13.6826 9.68652 13.4372 9.41992 13.124C9.14909 12.8109 8.94173 12.4427 8.79785 12.0195C8.65397 11.5964 8.58203 11.1372 8.58203 10.6421V10.5024ZM9.75635 10.6421C9.75635 10.9806 9.79655 11.3044 9.87695 11.6133C9.95736 11.918 10.0801 12.1867 10.2451 12.4194C10.4059 12.6522 10.609 12.8363 10.8545 12.9717C11.0999 13.1071 11.3856 13.1748 11.7114 13.1748C12.033 13.1748 12.3145 13.1071 12.5557 12.9717C12.8011 12.8363 13.0063 12.6522 13.1714 12.4194C13.3322 12.1867 13.4528 11.918 13.5332 11.6133C13.6136 11.3044 13.6538 10.9806 13.6538 10.6421V10.5024C13.6538 10.1681 13.6115 9.84863 13.5269 9.54395C13.4465 9.23503 13.3258 8.96419 13.165 8.73145C13 8.4987 12.7948 8.31462 12.5493 8.1792C12.3081 8.03955 12.0246 7.96973 11.6987 7.96973C11.3729 7.96973 11.0894 8.03955 10.8481 8.1792C10.6069 8.31462 10.4059 8.4987 10.2451 8.73145C10.0801 8.96419 9.95736 9.23503 9.87695 9.54395C9.79655 9.84863 9.75635 10.1681 9.75635 10.5024V10.6421ZM16.9038 4.25H20.4141V12.9844H22.6548V14H16.9038V12.9844H19.2397V5.27197H16.9038V4.25ZM29.0532 14L28.9834 13.0542C28.7549 13.3927 28.4692 13.6572 28.1265 13.8477C27.7837 14.0339 27.388 14.127 26.9395 14.127C26.5798 14.127 26.2539 14.0719 25.9619 13.9619C25.6699 13.8477 25.4202 13.672 25.2129 13.4351C25.0055 13.1981 24.8447 12.8976 24.7305 12.5337C24.6204 12.1655 24.5654 11.7254 24.5654 11.2134V7.13184H25.7397V11.2261C25.7397 11.5985 25.7694 11.9074 25.8286 12.1528C25.8879 12.3983 25.9767 12.5929 26.0952 12.7368C26.2137 12.8849 26.3576 12.9886 26.5269 13.0479C26.7004 13.1071 26.8993 13.1367 27.1235 13.1367C27.3859 13.1367 27.6208 13.1071 27.8281 13.0479C28.0355 12.9844 28.2153 12.8976 28.3677 12.7876C28.4946 12.6987 28.6047 12.5929 28.6978 12.4702C28.7951 12.3433 28.8755 12.2057 28.939 12.0576V7.13184H30.1196V14H29.0532ZM32.8745 7.13184L32.9062 7.7793C33.0459 7.53809 33.2279 7.34977 33.4521 7.21436C33.6807 7.07894 33.9557 7.00911 34.2773 7.00488C34.4593 7.00488 34.6222 7.02604 34.7661 7.06836C34.9142 7.10645 35.0433 7.16357 35.1533 7.23975C35.2337 7.29899 35.3057 7.37093 35.3691 7.45557C35.4368 7.5402 35.494 7.63542 35.5405 7.74121C35.5998 7.64388 35.6696 7.5529 35.75 7.46826C35.8304 7.38363 35.9172 7.30957 36.0103 7.24609C36.1287 7.17415 36.2599 7.11702 36.4038 7.07471C36.5519 7.03239 36.7127 7.00911 36.8862 7.00488C37.1232 7.00488 37.3369 7.04085 37.5273 7.11279C37.7178 7.1805 37.8786 7.28206 38.0098 7.41748C38.1536 7.56982 38.2637 7.76872 38.3398 8.01416C38.416 8.25537 38.4541 8.54102 38.4541 8.87109V14H37.3369V8.8584C37.3369 8.71452 37.32 8.58757 37.2861 8.47754C37.2523 8.36751 37.2036 8.27653 37.1401 8.20459C37.0724 8.13688 36.9878 8.0861 36.8862 8.05225C36.7889 8.01839 36.6746 8.00146 36.5435 8.00146C36.4038 8.00146 36.2832 8.02051 36.1816 8.05859C36.0801 8.09668 35.9954 8.14746 35.9277 8.21094C35.86 8.27865 35.8071 8.35693 35.769 8.4458C35.731 8.53044 35.7056 8.62565 35.6929 8.73145C35.6929 8.7526 35.6929 8.77376 35.6929 8.79492C35.6929 8.81185 35.6929 8.83301 35.6929 8.8584V14H34.5757V8.85205C34.5757 8.70817 34.5588 8.58122 34.5249 8.47119C34.4953 8.36117 34.4466 8.27018 34.3789 8.19824C34.3154 8.13053 34.235 8.08187 34.1377 8.05225C34.0446 8.01839 33.9346 8.00146 33.8076 8.00146C33.668 8.00146 33.5452 8.01839 33.4395 8.05225C33.3379 8.08187 33.2511 8.1263 33.1792 8.18555C33.1242 8.2321 33.0755 8.28499 33.0332 8.34424C32.9951 8.40348 32.9634 8.46696 32.938 8.53467V14H31.8208V7.13184H32.8745ZM40.1426 14V7.13184H41.1963L41.2788 8.14746C41.3804 8.00358 41.4904 7.8724 41.6089 7.75391C41.7316 7.63118 41.8607 7.52539 41.9961 7.43652C42.1992 7.30111 42.4193 7.19743 42.6562 7.12549C42.8975 7.04932 43.1514 7.00911 43.418 7.00488C43.7777 7.00488 44.1035 7.05566 44.3955 7.15723C44.6917 7.25879 44.9435 7.41748 45.1509 7.6333C45.3582 7.84912 45.5169 8.12419 45.627 8.4585C45.7412 8.78857 45.7983 9.18213 45.7983 9.63916V14H44.624V9.66455C44.624 9.35986 44.5902 9.10173 44.5225 8.89014C44.4548 8.67855 44.3553 8.50716 44.2241 8.37598C44.0887 8.24479 43.9237 8.14958 43.729 8.09033C43.5386 8.03109 43.3185 8.00146 43.0688 8.00146C42.853 8.00146 42.652 8.0332 42.4658 8.09668C42.2796 8.15592 42.1082 8.23844 41.9517 8.34424C41.8247 8.43734 41.7062 8.54525 41.5962 8.66797C41.4904 8.79069 41.3973 8.92611 41.3169 9.07422V14H40.1426ZM61.5596 10.4644C61.5596 11.0526 61.4919 11.5752 61.3564 12.0322C61.221 12.485 61.0264 12.8659 60.7725 13.1748C60.5186 13.488 60.2075 13.7249 59.8394 13.8857C59.4712 14.0465 59.0501 14.127 58.5762 14.127C58.1064 14.127 57.6854 14.0487 57.313 13.8921C56.9406 13.7313 56.6253 13.4922 56.3672 13.1748C56.109 12.8659 55.9123 12.485 55.7769 12.0322C55.6414 11.5752 55.5737 11.0526 55.5737 10.4644V8.2998C55.5737 7.71159 55.6414 7.19108 55.7769 6.73828C55.9123 6.28125 56.109 5.89616 56.3672 5.58301C56.6211 5.26986 56.9321 5.03288 57.3003 4.87207C57.6727 4.70703 58.0938 4.62451 58.5635 4.62451C59.0374 4.62451 59.4585 4.70703 59.8267 4.87207C60.1991 5.03288 60.5143 5.26986 60.7725 5.58301C61.0264 5.89616 61.221 6.28125 61.3564 6.73828C61.4919 7.19108 61.5596 7.71159 61.5596 8.2998V10.4644ZM56.7544 10.2295L60.3535 7.46826C60.3197 7.16357 60.2583 6.89486 60.1694 6.66211C60.0848 6.42513 59.9684 6.22835 59.8203 6.07178C59.6764 5.91097 59.4987 5.79036 59.2871 5.70996C59.0798 5.62956 58.8385 5.58936 58.5635 5.58936C58.2842 5.58936 58.0366 5.63379 57.8208 5.72266C57.6092 5.80729 57.4294 5.93213 57.2812 6.09717C57.1035 6.30452 56.9702 6.57324 56.8813 6.90332C56.7967 7.22917 56.7544 7.60791 56.7544 8.03955V9.58838C56.7544 9.69417 56.7544 9.79997 56.7544 9.90576C56.7544 10.0116 56.7544 10.1195 56.7544 10.2295ZM60.3789 10.7119V9.4043C60.3789 9.34082 60.3789 9.22021 60.3789 9.04248C60.3789 8.86051 60.3789 8.71029 60.3789 8.5918L56.7861 11.3403C56.8242 11.6493 56.8919 11.9222 56.9893 12.1592C57.0866 12.3919 57.2135 12.5845 57.3701 12.7368C57.514 12.8807 57.6875 12.9907 57.8906 13.0669C58.0938 13.1388 58.3223 13.1748 58.5762 13.1748C58.8428 13.1748 59.0798 13.1346 59.2871 13.0542C59.4945 12.9738 59.6701 12.8574 59.814 12.7051C60.0086 12.4977 60.1504 12.2269 60.2393 11.8926C60.3324 11.5583 60.3789 11.1647 60.3789 10.7119ZM67.374 14H66.1997V6.25586L63.7812 7.17627V6.10352L67.2788 4.75781H67.374V14ZM84.9824 4.75781L84.9951 11.0166C84.9951 11.4482 84.9189 11.8524 84.7666 12.229C84.6143 12.6056 84.4048 12.9336 84.1382 13.2129C83.8716 13.4964 83.5542 13.7207 83.186 13.8857C82.8179 14.0465 82.4137 14.127 81.9736 14.127C81.5251 14.127 81.1167 14.0465 80.7485 13.8857C80.3804 13.7249 80.0651 13.5028 79.8027 13.2192C79.5404 12.9399 79.3351 12.612 79.187 12.2354C79.0389 11.8545 78.9627 11.4482 78.9585 11.0166L78.9712 4.75781H80.0884L80.1138 11.0166C80.118 11.2917 80.1603 11.5562 80.2407 11.8101C80.3254 12.064 80.446 12.2882 80.6025 12.4829C80.7549 12.6776 80.9453 12.8341 81.1738 12.9526C81.4066 13.0711 81.6732 13.1304 81.9736 13.1304C82.2741 13.1304 82.5386 13.0732 82.7671 12.959C82.9956 12.8405 83.1882 12.6818 83.3447 12.4829C83.4971 12.2882 83.6134 12.064 83.6938 11.8101C83.7743 11.5562 83.8187 11.2917 83.8271 11.0166L83.8462 4.75781H84.9824ZM86.9819 16.6406V7.13184H88.0547L88.1118 7.88086C88.2049 7.76237 88.3065 7.65658 88.4165 7.56348C88.5265 7.46615 88.645 7.38363 88.772 7.31592C88.9497 7.21436 89.1465 7.13818 89.3623 7.0874C89.5824 7.03239 89.8172 7.00488 90.0669 7.00488C90.507 7.00488 90.8963 7.09163 91.2349 7.26514C91.5734 7.43864 91.8569 7.67985 92.0854 7.98877C92.314 8.29769 92.4875 8.66797 92.606 9.09961C92.7244 9.52702 92.7837 9.99674 92.7837 10.5088V10.6421C92.7837 11.133 92.7244 11.5921 92.606 12.0195C92.4875 12.4427 92.314 12.8109 92.0854 13.124C91.8569 13.4372 91.5734 13.6826 91.2349 13.8604C90.9006 14.0381 90.5176 14.127 90.0859 14.127C89.8236 14.127 89.5781 14.0994 89.3496 14.0444C89.1253 13.9894 88.9222 13.9111 88.7402 13.8096C88.6302 13.7461 88.5265 13.6763 88.4292 13.6001C88.3319 13.5197 88.2409 13.4329 88.1562 13.3398V16.6406H86.9819ZM91.6094 10.5088C91.6094 10.1745 91.5713 9.8571 91.4951 9.55664C91.4232 9.25195 91.311 8.98324 91.1587 8.75049C91.0021 8.52197 90.8053 8.34001 90.5684 8.20459C90.3314 8.06917 90.0479 8.00146 89.7178 8.00146C89.5358 8.00146 89.3665 8.02262 89.21 8.06494C89.0576 8.10726 88.9201 8.16862 88.7974 8.24902C88.6619 8.32943 88.5413 8.42887 88.4355 8.54736C88.3298 8.66585 88.2367 8.79704 88.1562 8.94092V12.248C88.2282 12.375 88.3107 12.4935 88.4038 12.6035C88.4969 12.7135 88.6027 12.8066 88.7212 12.8828C88.8566 12.9717 89.0068 13.0415 89.1719 13.0923C89.3411 13.1431 89.5273 13.1685 89.7305 13.1685C90.0563 13.1685 90.3377 13.1007 90.5747 12.9653C90.8117 12.8257 91.0063 12.6395 91.1587 12.4067C91.311 12.174 91.4232 11.9053 91.4951 11.6006C91.5713 11.2959 91.6094 10.9764 91.6094 10.6421V10.5088Z" fill="#696C80"/>
</svg>
