<svg width="160" height="98" viewBox="0 0 160 98" fill="none" xmlns="http://www.w3.org/2000/svg">
<rect x="0.5" y="34.5" width="159" height="63" rx="4.5" stroke="#9747FF" stroke-dasharray="10 5"/>
<path d="M119 61.8C119 60.1198 119 59.2798 119.327 58.638C119.615 58.0735 120.074 57.6146 120.638 57.327C121.28 57 122.12 57 123.8 57H132.2C133.88 57 134.72 57 135.362 57.327C135.926 57.6146 136.385 58.0735 136.673 58.638C137 59.2798 137 60.1198 137 61.8V70.2C137 71.8802 137 72.7202 136.673 73.362C136.385 73.9265 135.926 74.3854 135.362 74.673C134.72 75 133.88 75 132.2 75H123.8C122.12 75 121.28 75 120.638 74.673C120.074 74.3854 119.615 73.9265 119.327 73.362C119 72.7202 119 71.8802 119 70.2V61.8Z" fill="#BABDCC"/>
<path fill-rule="evenodd" clip-rule="evenodd" d="M122 59C122.552 59 123 59.4477 123 60V72C123 72.5523 122.552 73 122 73C121.448 73 121 72.5523 121 72V60C121 59.4477 121.448 59 122 59ZM134 61C134.552 61 135 61.4477 135 62V72C135 72.5523 134.552 73 134 73C133.448 73 133 72.5523 133 72V62C133 61.4477 133.448 61 134 61ZM130 67C130.552 67 131 67.4477 131 68V72C131 72.5523 130.552 73 130 73C129.448 73 129 72.5523 129 72V68C129 67.4477 129.448 67 130 67ZM127 64C127 63.4477 126.552 63 126 63C125.448 63 125 63.4477 125 64V72C125 72.5523 125.448 73 126 73C126.552 73 127 72.5523 127 72V64Z" fill="#12131A"/>
<path fill-rule="evenodd" clip-rule="evenodd" d="M71 61.8C71 60.1198 71 59.2798 71.327 58.638C71.6146 58.0735 72.0735 57.6146 72.638 57.327C73.2798 57 74.1198 57 75.8 57H84.2C85.8802 57 86.7202 57 87.362 57.327C87.9265 57.6146 88.3854 58.0735 88.673 58.638C89 59.2798 89 60.1198 89 61.8V70.2C89 71.8802 89 72.7202 88.673 73.362C88.3854 73.9265 87.9265 74.3854 87.362 74.673C86.7202 75 85.8802 75 84.2 75H75.8C74.1198 75 73.2798 75 72.638 74.673C72.0735 74.3854 71.6146 73.9265 71.327 73.362C71 72.7202 71 71.8802 71 70.2V61.8ZM83 68C83 67.4477 82.5523 67 82 67C81.4477 67 81 67.4477 81 68V72C81 72.5523 81.4477 73 82 73C82.5523 73 83 72.5523 83 72V68ZM86 61C86.5523 61 87 61.4477 87 62V72C87 72.5523 86.5523 73 86 73C85.4477 73 85 72.5523 85 72V62C85 61.4477 85.4477 61 86 61ZM79 64C79 63.4477 78.5523 63 78 63C77.4477 63 77 63.4477 77 64V72C77 72.5523 77.4477 73 78 73C78.5523 73 79 72.5523 79 72V64ZM74 59C74.5523 59 75 59.4477 75 60V72C75 72.5523 74.5523 73 74 73C73.4477 73 73 72.5523 73 72V60C73 59.4477 73.4477 59 74 59Z" fill="#12131A"/>
<path fill-rule="evenodd" clip-rule="evenodd" d="M23 74C23 73.4477 23.4477 73 24 73H40C40.5523 73 41 73.4477 41 74C41 74.5523 40.5523 75 40 75H24C23.4477 75 23 74.5523 23 74Z" fill="#12131A"/>
<path fill-rule="evenodd" clip-rule="evenodd" d="M26 57C26.5523 57 27 57.4477 27 58V70C27 70.5523 26.5523 71 26 71C25.4477 71 25 70.5523 25 70V58C25 57.4477 25.4477 57 26 57ZM38 59C38.5523 59 39 59.4477 39 60V70C39 70.5523 38.5523 71 38 71C37.4477 71 37 70.5523 37 70V60C37 59.4477 37.4477 59 38 59ZM34 65C34.5523 65 35 65.4477 35 66V70C35 70.5523 34.5523 71 34 71C33.4477 71 33 70.5523 33 70V66C33 65.4477 33.4477 65 34 65ZM31 62C31 61.4477 30.5523 61 30 61C29.4477 61 29 61.4477 29 62V70C29 70.5523 29.4477 71 30 71C30.5523 71 31 70.5523 31 70V62Z" fill="#12131A"/>
<path d="M7.09033 11.2197C7.03532 11.6471 6.92529 12.0407 6.76025 12.4004C6.59521 12.7559 6.38151 13.0605 6.11914 13.3145C5.85254 13.5726 5.53727 13.7736 5.17334 13.9175C4.81364 14.0571 4.41162 14.127 3.96729 14.127C3.58643 14.127 3.23942 14.0741 2.92627 13.9683C2.61735 13.8582 2.34229 13.708 2.10107 13.5176C1.85563 13.3271 1.64404 13.1029 1.46631 12.8447C1.29281 12.5866 1.14893 12.3052 1.03467 12.0005C0.916178 11.6958 0.827311 11.3763 0.768066 11.042C0.713053 10.7077 0.683431 10.3691 0.679199 10.0264V8.73779C0.683431 8.39502 0.713053 8.05648 0.768066 7.72217C0.827311 7.38786 0.916178 7.06836 1.03467 6.76367C1.14893 6.45898 1.29281 6.17757 1.46631 5.91943C1.64404 5.65706 1.85563 5.43066 2.10107 5.24023C2.34229 5.0498 2.61735 4.90169 2.92627 4.7959C3.23519 4.68587 3.58219 4.63086 3.96729 4.63086C4.42855 4.63086 4.84115 4.7028 5.20508 4.84668C5.56901 4.98633 5.88216 5.18522 6.14453 5.44336C6.4069 5.70573 6.61637 6.01888 6.77295 6.38281C6.93376 6.74674 7.03955 7.14876 7.09033 7.58887H5.91602C5.87793 7.30957 5.81234 7.04932 5.71924 6.80811C5.62614 6.56689 5.5013 6.35531 5.34473 6.17334C5.18815 5.99137 4.99561 5.84961 4.76709 5.74805C4.54281 5.64225 4.2762 5.58936 3.96729 5.58936C3.68799 5.58936 3.44043 5.6359 3.22461 5.729C3.01302 5.81787 2.83105 5.94059 2.67871 6.09717C2.52214 6.25374 2.39095 6.43571 2.28516 6.64307C2.18359 6.85042 2.10107 7.07048 2.0376 7.30322C1.97412 7.53597 1.92757 7.77507 1.89795 8.02051C1.87256 8.26172 1.85986 8.49658 1.85986 8.7251V10.0264C1.85986 10.2549 1.87256 10.4919 1.89795 10.7373C1.92757 10.9785 1.97412 11.2155 2.0376 11.4482C2.10107 11.6852 2.18359 11.9074 2.28516 12.1147C2.38672 12.3221 2.51579 12.5041 2.67236 12.6606C2.82894 12.8215 3.01302 12.9484 3.22461 13.0415C3.4362 13.1304 3.68376 13.1748 3.96729 13.1748C4.2762 13.1748 4.54281 13.1261 4.76709 13.0288C4.99561 12.9315 5.18815 12.7939 5.34473 12.6162C5.5013 12.4427 5.62614 12.2375 5.71924 12.0005C5.81234 11.7593 5.87793 11.499 5.91602 11.2197H7.09033ZM8.58203 10.5024C8.58203 10.0073 8.65397 9.54818 8.79785 9.125C8.94173 8.69759 9.14909 8.32731 9.41992 8.01416C9.68652 7.70101 10.0124 7.45557 10.3975 7.27783C10.7826 7.09587 11.2163 7.00488 11.6987 7.00488C12.1854 7.00488 12.6213 7.09587 13.0063 7.27783C13.3957 7.45557 13.7257 7.70101 13.9966 8.01416C14.2632 8.32731 14.4684 8.69759 14.6123 9.125C14.7562 9.54818 14.8281 10.0073 14.8281 10.5024V10.6421C14.8281 11.1372 14.7562 11.5964 14.6123 12.0195C14.4684 12.4427 14.2632 12.8109 13.9966 13.124C13.7257 13.4372 13.3978 13.6826 13.0127 13.8604C12.6276 14.0381 12.1938 14.127 11.7114 14.127C11.2248 14.127 10.7868 14.0381 10.3975 13.8604C10.0124 13.6826 9.68652 13.4372 9.41992 13.124C9.14909 12.8109 8.94173 12.4427 8.79785 12.0195C8.65397 11.5964 8.58203 11.1372 8.58203 10.6421V10.5024ZM9.75635 10.6421C9.75635 10.9806 9.79655 11.3044 9.87695 11.6133C9.95736 11.918 10.0801 12.1867 10.2451 12.4194C10.4059 12.6522 10.609 12.8363 10.8545 12.9717C11.0999 13.1071 11.3856 13.1748 11.7114 13.1748C12.033 13.1748 12.3145 13.1071 12.5557 12.9717C12.8011 12.8363 13.0063 12.6522 13.1714 12.4194C13.3322 12.1867 13.4528 11.918 13.5332 11.6133C13.6136 11.3044 13.6538 10.9806 13.6538 10.6421V10.5024C13.6538 10.1681 13.6115 9.84863 13.5269 9.54395C13.4465 9.23503 13.3258 8.96419 13.165 8.73145C13 8.4987 12.7948 8.31462 12.5493 8.1792C12.3081 8.03955 12.0246 7.96973 11.6987 7.96973C11.3729 7.96973 11.0894 8.03955 10.8481 8.1792C10.6069 8.31462 10.4059 8.4987 10.2451 8.73145C10.0801 8.96419 9.95736 9.23503 9.87695 9.54395C9.79655 9.84863 9.75635 10.1681 9.75635 10.5024V10.6421ZM16.9038 4.25H20.4141V12.9844H22.6548V14H16.9038V12.9844H19.2397V5.27197H16.9038V4.25ZM29.0532 14L28.9834 13.0542C28.7549 13.3927 28.4692 13.6572 28.1265 13.8477C27.7837 14.0339 27.388 14.127 26.9395 14.127C26.5798 14.127 26.2539 14.0719 25.9619 13.9619C25.6699 13.8477 25.4202 13.672 25.2129 13.4351C25.0055 13.1981 24.8447 12.8976 24.7305 12.5337C24.6204 12.1655 24.5654 11.7254 24.5654 11.2134V7.13184H25.7397V11.2261C25.7397 11.5985 25.7694 11.9074 25.8286 12.1528C25.8879 12.3983 25.9767 12.5929 26.0952 12.7368C26.2137 12.8849 26.3576 12.9886 26.5269 13.0479C26.7004 13.1071 26.8993 13.1367 27.1235 13.1367C27.3859 13.1367 27.6208 13.1071 27.8281 13.0479C28.0355 12.9844 28.2153 12.8976 28.3677 12.7876C28.4946 12.6987 28.6047 12.5929 28.6978 12.4702C28.7951 12.3433 28.8755 12.2057 28.939 12.0576V7.13184H30.1196V14H29.0532ZM32.8745 7.13184L32.9062 7.7793C33.0459 7.53809 33.2279 7.34977 33.4521 7.21436C33.6807 7.07894 33.9557 7.00911 34.2773 7.00488C34.4593 7.00488 34.6222 7.02604 34.7661 7.06836C34.9142 7.10645 35.0433 7.16357 35.1533 7.23975C35.2337 7.29899 35.3057 7.37093 35.3691 7.45557C35.4368 7.5402 35.494 7.63542 35.5405 7.74121C35.5998 7.64388 35.6696 7.5529 35.75 7.46826C35.8304 7.38363 35.9172 7.30957 36.0103 7.24609C36.1287 7.17415 36.2599 7.11702 36.4038 7.07471C36.5519 7.03239 36.7127 7.00911 36.8862 7.00488C37.1232 7.00488 37.3369 7.04085 37.5273 7.11279C37.7178 7.1805 37.8786 7.28206 38.0098 7.41748C38.1536 7.56982 38.2637 7.76872 38.3398 8.01416C38.416 8.25537 38.4541 8.54102 38.4541 8.87109V14H37.3369V8.8584C37.3369 8.71452 37.32 8.58757 37.2861 8.47754C37.2523 8.36751 37.2036 8.27653 37.1401 8.20459C37.0724 8.13688 36.9878 8.0861 36.8862 8.05225C36.7889 8.01839 36.6746 8.00146 36.5435 8.00146C36.4038 8.00146 36.2832 8.02051 36.1816 8.05859C36.0801 8.09668 35.9954 8.14746 35.9277 8.21094C35.86 8.27865 35.8071 8.35693 35.769 8.4458C35.731 8.53044 35.7056 8.62565 35.6929 8.73145C35.6929 8.7526 35.6929 8.77376 35.6929 8.79492C35.6929 8.81185 35.6929 8.83301 35.6929 8.8584V14H34.5757V8.85205C34.5757 8.70817 34.5588 8.58122 34.5249 8.47119C34.4953 8.36117 34.4466 8.27018 34.3789 8.19824C34.3154 8.13053 34.235 8.08187 34.1377 8.05225C34.0446 8.01839 33.9346 8.00146 33.8076 8.00146C33.668 8.00146 33.5452 8.01839 33.4395 8.05225C33.3379 8.08187 33.2511 8.1263 33.1792 8.18555C33.1242 8.2321 33.0755 8.28499 33.0332 8.34424C32.9951 8.40348 32.9634 8.46696 32.938 8.53467V14H31.8208V7.13184H32.8745ZM40.1426 14V7.13184H41.1963L41.2788 8.14746C41.3804 8.00358 41.4904 7.8724 41.6089 7.75391C41.7316 7.63118 41.8607 7.52539 41.9961 7.43652C42.1992 7.30111 42.4193 7.19743 42.6562 7.12549C42.8975 7.04932 43.1514 7.00911 43.418 7.00488C43.7777 7.00488 44.1035 7.05566 44.3955 7.15723C44.6917 7.25879 44.9435 7.41748 45.1509 7.6333C45.3582 7.84912 45.5169 8.12419 45.627 8.4585C45.7412 8.78857 45.7983 9.18213 45.7983 9.63916V14H44.624V9.66455C44.624 9.35986 44.5902 9.10173 44.5225 8.89014C44.4548 8.67855 44.3553 8.50716 44.2241 8.37598C44.0887 8.24479 43.9237 8.14958 43.729 8.09033C43.5386 8.03109 43.3185 8.00146 43.0688 8.00146C42.853 8.00146 42.652 8.0332 42.4658 8.09668C42.2796 8.15592 42.1082 8.23844 41.9517 8.34424C41.8247 8.43734 41.7062 8.54525 41.5962 8.66797C41.4904 8.79069 41.3973 8.92611 41.3169 9.07422V14H40.1426ZM61.5596 10.4644C61.5596 11.0526 61.4919 11.5752 61.3564 12.0322C61.221 12.485 61.0264 12.8659 60.7725 13.1748C60.5186 13.488 60.2075 13.7249 59.8394 13.8857C59.4712 14.0465 59.0501 14.127 58.5762 14.127C58.1064 14.127 57.6854 14.0487 57.313 13.8921C56.9406 13.7313 56.6253 13.4922 56.3672 13.1748C56.109 12.8659 55.9123 12.485 55.7769 12.0322C55.6414 11.5752 55.5737 11.0526 55.5737 10.4644V8.2998C55.5737 7.71159 55.6414 7.19108 55.7769 6.73828C55.9123 6.28125 56.109 5.89616 56.3672 5.58301C56.6211 5.26986 56.9321 5.03288 57.3003 4.87207C57.6727 4.70703 58.0938 4.62451 58.5635 4.62451C59.0374 4.62451 59.4585 4.70703 59.8267 4.87207C60.1991 5.03288 60.5143 5.26986 60.7725 5.58301C61.0264 5.89616 61.221 6.28125 61.3564 6.73828C61.4919 7.19108 61.5596 7.71159 61.5596 8.2998V10.4644ZM56.7544 10.2295L60.3535 7.46826C60.3197 7.16357 60.2583 6.89486 60.1694 6.66211C60.0848 6.42513 59.9684 6.22835 59.8203 6.07178C59.6764 5.91097 59.4987 5.79036 59.2871 5.70996C59.0798 5.62956 58.8385 5.58936 58.5635 5.58936C58.2842 5.58936 58.0366 5.63379 57.8208 5.72266C57.6092 5.80729 57.4294 5.93213 57.2812 6.09717C57.1035 6.30452 56.9702 6.57324 56.8813 6.90332C56.7967 7.22917 56.7544 7.60791 56.7544 8.03955V9.58838C56.7544 9.69417 56.7544 9.79997 56.7544 9.90576C56.7544 10.0116 56.7544 10.1195 56.7544 10.2295ZM60.3789 10.7119V9.4043C60.3789 9.34082 60.3789 9.22021 60.3789 9.04248C60.3789 8.86051 60.3789 8.71029 60.3789 8.5918L56.7861 11.3403C56.8242 11.6493 56.8919 11.9222 56.9893 12.1592C57.0866 12.3919 57.2135 12.5845 57.3701 12.7368C57.514 12.8807 57.6875 12.9907 57.8906 13.0669C58.0938 13.1388 58.3223 13.1748 58.5762 13.1748C58.8428 13.1748 59.0798 13.1346 59.2871 13.0542C59.4945 12.9738 59.6701 12.8574 59.814 12.7051C60.0086 12.4977 60.1504 12.2269 60.2393 11.8926C60.3324 11.5583 60.3789 11.1647 60.3789 10.7119ZM69.2339 14H63.1782V13.1558L66.2061 9.7915C66.4769 9.49105 66.7033 9.22445 66.8853 8.9917C67.0672 8.75895 67.2132 8.54313 67.3232 8.34424C67.4333 8.14958 67.5116 7.96549 67.5581 7.79199C67.6047 7.61426 67.6279 7.43229 67.6279 7.24609C67.6279 7.01758 67.5898 6.80387 67.5137 6.60498C67.4417 6.40186 67.3359 6.22624 67.1963 6.07812C67.0524 5.93001 66.8789 5.81364 66.6758 5.729C66.4769 5.64014 66.2505 5.5957 65.9966 5.5957C65.6877 5.5957 65.4189 5.64014 65.1904 5.729C64.9661 5.81787 64.7799 5.94271 64.6318 6.10352C64.4795 6.26855 64.3652 6.46745 64.2891 6.7002C64.2171 6.93294 64.1812 7.1932 64.1812 7.48096H63.0005C63.0005 7.09163 63.0682 6.72559 63.2036 6.38281C63.339 6.03581 63.5358 5.73324 63.7939 5.4751C64.0479 5.21696 64.3589 5.01172 64.7271 4.85938C65.0994 4.70703 65.5226 4.63086 65.9966 4.63086C66.4325 4.63086 66.8239 4.69645 67.1709 4.82764C67.5221 4.95459 67.8184 5.13232 68.0596 5.36084C68.3008 5.58936 68.4849 5.86019 68.6118 6.17334C68.743 6.48649 68.8086 6.82715 68.8086 7.19531C68.8086 7.47038 68.762 7.74333 68.6689 8.01416C68.5758 8.28076 68.451 8.54525 68.2944 8.80762C68.1336 9.06999 67.9474 9.33024 67.7358 9.58838C67.5285 9.84229 67.3084 10.0962 67.0757 10.3501L64.5938 13.0415H69.2339V14ZM83.5923 11.6069H80.5073L79.7646 14H78.5903L81.5737 4.75781H82.5576L85.4902 14H84.3223L83.5923 11.6069ZM80.8247 10.585H83.2812L82.0625 6.57324L80.8247 10.585ZM89.3306 14L86.5059 7.13184H87.7119L89.6797 12.3115L89.7876 12.7368L89.9019 12.3115L91.8252 7.13184H93.0249L90.2256 14H89.3306ZM97.8301 14.127C97.3477 14.127 96.9033 14.0444 96.4971 13.8794C96.0951 13.7144 95.7502 13.4837 95.4624 13.1875C95.1746 12.8913 94.9504 12.54 94.7896 12.1338C94.6287 11.7275 94.5483 11.2853 94.5483 10.8071V10.5405C94.5483 9.98617 94.6372 9.49105 94.8149 9.05518C94.9927 8.61507 95.2297 8.24268 95.5259 7.93799C95.8179 7.63753 96.1501 7.4069 96.5225 7.24609C96.8991 7.08529 97.2842 7.00488 97.6777 7.00488C98.1729 7.00488 98.6045 7.09163 98.9727 7.26514C99.3451 7.43441 99.654 7.66927 99.8994 7.96973C100.145 8.27441 100.327 8.632 100.445 9.04248C100.568 9.45296 100.629 9.8973 100.629 10.3755V10.9023H95.7227V10.9468C95.7523 11.2811 95.8179 11.5752 95.9194 11.8291C96.0252 12.083 96.1691 12.3073 96.3511 12.502C96.5373 12.7093 96.7616 12.8722 97.0239 12.9907C97.2863 13.1092 97.5762 13.1685 97.8936 13.1685C98.3125 13.1685 98.6849 13.0838 99.0107 12.9146C99.3366 12.7453 99.6074 12.521 99.8232 12.2417L100.541 12.8003C100.312 13.1473 99.9692 13.4562 99.5122 13.7271C99.0594 13.9937 98.4987 14.127 97.8301 14.127ZM97.6777 7.96973C97.4408 7.96973 97.2165 8.01416 97.0049 8.10303C96.7933 8.18766 96.6029 8.3125 96.4336 8.47754C96.2643 8.64681 96.1204 8.85417 96.002 9.09961C95.8877 9.34082 95.8073 9.62012 95.7607 9.9375H99.4551V9.88037C99.4551 9.66878 99.4149 9.44238 99.3345 9.20117C99.2541 8.95573 99.1419 8.74414 98.998 8.56641C98.8542 8.38867 98.6722 8.24479 98.4521 8.13477C98.2363 8.02474 97.9782 7.96973 97.6777 7.96973ZM107.104 7.00488C107.32 7.00488 107.544 7.01969 107.777 7.04932C108.014 7.07894 108.192 7.11914 108.31 7.16992L108.151 8.31885C107.923 8.26807 107.705 8.2321 107.498 8.21094C107.294 8.18555 107.081 8.17285 106.856 8.17285C106.569 8.17285 106.308 8.20882 106.076 8.28076C105.843 8.34847 105.64 8.45003 105.466 8.58545C105.31 8.70394 105.172 8.84993 105.054 9.02344C104.939 9.19271 104.844 9.38314 104.768 9.59473V14H103.587V7.13184H104.705L104.755 8.05225L104.762 8.22363C105.041 7.84701 105.375 7.55078 105.765 7.33496C106.158 7.11491 106.605 7.00488 107.104 7.00488ZM114.924 14C114.878 13.9111 114.84 13.8011 114.81 13.6699C114.785 13.5345 114.766 13.3949 114.753 13.251C114.634 13.3695 114.501 13.4816 114.353 13.5874C114.209 13.6932 114.05 13.7863 113.877 13.8667C113.699 13.9471 113.511 14.0106 113.312 14.0571C113.113 14.1037 112.902 14.127 112.677 14.127C112.313 14.127 111.983 14.0741 111.687 13.9683C111.395 13.8625 111.147 13.7186 110.944 13.5366C110.737 13.3589 110.576 13.1473 110.462 12.9019C110.352 12.6522 110.297 12.3835 110.297 12.0957C110.297 11.7191 110.371 11.389 110.519 11.1055C110.671 10.8219 110.885 10.585 111.16 10.3945C111.435 10.2083 111.765 10.0687 112.15 9.97559C112.54 9.88249 112.973 9.83594 113.452 9.83594H114.734V9.29639C114.734 9.08903 114.696 8.90283 114.62 8.73779C114.543 8.57275 114.436 8.43099 114.296 8.3125C114.156 8.19824 113.985 8.10938 113.782 8.0459C113.583 7.98242 113.359 7.95068 113.109 7.95068C112.876 7.95068 112.667 7.98031 112.48 8.03955C112.299 8.0988 112.144 8.17708 112.017 8.27441C111.89 8.37174 111.791 8.48812 111.719 8.62354C111.651 8.75472 111.617 8.89225 111.617 9.03613H110.437C110.441 8.78646 110.504 8.54102 110.627 8.2998C110.754 8.05859 110.936 7.84066 111.173 7.646C111.406 7.45557 111.689 7.30111 112.023 7.18262C112.362 7.06413 112.745 7.00488 113.172 7.00488C113.562 7.00488 113.924 7.05355 114.258 7.15088C114.592 7.24398 114.882 7.38574 115.127 7.57617C115.369 7.77083 115.559 8.01204 115.699 8.2998C115.838 8.58757 115.908 8.92399 115.908 9.30908V12.502C115.908 12.7305 115.929 12.9738 115.972 13.2319C116.014 13.4858 116.073 13.708 116.149 13.8984V14H114.924ZM112.849 13.105C113.077 13.105 113.291 13.0754 113.49 13.0161C113.689 12.9569 113.871 12.8786 114.036 12.7812C114.196 12.6839 114.336 12.5739 114.455 12.4512C114.573 12.3242 114.666 12.193 114.734 12.0576V10.6675H113.642C113.236 10.6675 112.88 10.7035 112.576 10.7754C112.275 10.8431 112.036 10.9489 111.858 11.0928C111.731 11.1943 111.634 11.3149 111.566 11.4546C111.503 11.5942 111.471 11.7529 111.471 11.9307C111.471 12.0999 111.499 12.2565 111.554 12.4004C111.613 12.5443 111.7 12.667 111.814 12.7686C111.928 12.8743 112.072 12.9569 112.246 13.0161C112.419 13.0754 112.62 13.105 112.849 13.105ZM118.003 10.5088C118.003 9.99674 118.064 9.52702 118.187 9.09961C118.314 8.66797 118.496 8.29769 118.733 7.98877C118.97 7.67985 119.258 7.43864 119.596 7.26514C119.935 7.09163 120.318 7.00488 120.745 7.00488C121.02 7.00488 121.272 7.03662 121.5 7.1001C121.733 7.16357 121.943 7.25667 122.129 7.37939C122.23 7.44287 122.326 7.51693 122.415 7.60156C122.508 7.6862 122.594 7.7793 122.675 7.88086L122.732 7.13184H123.798V13.854C123.798 14.3068 123.726 14.7088 123.583 15.0601C123.443 15.4113 123.246 15.7096 122.992 15.9551C122.734 16.2005 122.427 16.3867 122.072 16.5137C121.716 16.6406 121.323 16.7041 120.891 16.7041C120.713 16.7041 120.51 16.6829 120.282 16.6406C120.053 16.6025 119.823 16.5369 119.59 16.4438C119.353 16.355 119.124 16.2344 118.904 16.082C118.688 15.9297 118.502 15.7414 118.346 15.5171L118.955 14.8125C119.099 14.986 119.247 15.132 119.399 15.2505C119.552 15.3732 119.706 15.4705 119.863 15.5425C120.019 15.6144 120.176 15.6652 120.333 15.6948C120.489 15.7287 120.646 15.7456 120.802 15.7456C121.082 15.7456 121.333 15.7054 121.558 15.625C121.782 15.5446 121.974 15.4261 122.135 15.2695C122.292 15.1172 122.412 14.9268 122.497 14.6982C122.582 14.4697 122.624 14.2074 122.624 13.9111V13.3208C122.535 13.4224 122.44 13.5155 122.338 13.6001C122.241 13.6847 122.135 13.7588 122.021 13.8223C121.843 13.9196 121.646 13.9937 121.431 14.0444C121.215 14.0994 120.982 14.127 120.732 14.127C120.313 14.127 119.935 14.0381 119.596 13.8604C119.258 13.6826 118.972 13.4372 118.739 13.124C118.502 12.8109 118.32 12.4427 118.193 12.0195C118.066 11.5921 118.003 11.133 118.003 10.6421V10.5088ZM119.177 10.6421C119.177 10.9764 119.211 11.2938 119.279 11.5942C119.351 11.8947 119.463 12.1592 119.615 12.3877C119.763 12.6162 119.954 12.7982 120.187 12.9336C120.419 13.0648 120.699 13.1304 121.024 13.1304C121.228 13.1304 121.41 13.1071 121.57 13.0605C121.735 13.0098 121.883 12.9399 122.015 12.8511C122.142 12.7622 122.256 12.6564 122.357 12.5337C122.459 12.411 122.548 12.2756 122.624 12.1274V8.979C122.548 8.83512 122.459 8.70394 122.357 8.58545C122.256 8.46696 122.139 8.36328 122.008 8.27441C121.877 8.18978 121.731 8.12419 121.57 8.07764C121.41 8.02686 121.232 8.00146 121.037 8.00146C120.707 8.00146 120.424 8.06917 120.187 8.20459C119.954 8.34001 119.763 8.52197 119.615 8.75049C119.463 8.98324 119.351 9.25195 119.279 9.55664C119.211 9.8571 119.177 10.1745 119.177 10.5088V10.6421ZM129.061 14.127C128.578 14.127 128.134 14.0444 127.728 13.8794C127.326 13.7144 126.981 13.4837 126.693 13.1875C126.405 12.8913 126.181 12.54 126.02 12.1338C125.859 11.7275 125.779 11.2853 125.779 10.8071V10.5405C125.779 9.98617 125.868 9.49105 126.045 9.05518C126.223 8.61507 126.46 8.24268 126.756 7.93799C127.048 7.63753 127.381 7.4069 127.753 7.24609C128.13 7.08529 128.515 7.00488 128.908 7.00488C129.403 7.00488 129.835 7.09163 130.203 7.26514C130.576 7.43441 130.884 7.66927 131.13 7.96973C131.375 8.27441 131.557 8.632 131.676 9.04248C131.799 9.45296 131.86 9.8973 131.86 10.3755V10.9023H126.953V10.9468C126.983 11.2811 127.048 11.5752 127.15 11.8291C127.256 12.083 127.4 12.3073 127.582 12.502C127.768 12.7093 127.992 12.8722 128.254 12.9907C128.517 13.1092 128.807 13.1685 129.124 13.1685C129.543 13.1685 129.915 13.0838 130.241 12.9146C130.567 12.7453 130.838 12.521 131.054 12.2417L131.771 12.8003C131.542 13.1473 131.2 13.4562 130.743 13.7271C130.29 13.9937 129.729 14.127 129.061 14.127ZM128.908 7.96973C128.671 7.96973 128.447 8.01416 128.235 8.10303C128.024 8.18766 127.833 8.3125 127.664 8.47754C127.495 8.64681 127.351 8.85417 127.232 9.09961C127.118 9.34082 127.038 9.62012 126.991 9.9375H130.686V9.88037C130.686 9.66878 130.645 9.44238 130.565 9.20117C130.485 8.95573 130.372 8.74414 130.229 8.56641C130.085 8.38867 129.903 8.24479 129.683 8.13477C129.467 8.02474 129.209 7.96973 128.908 7.96973Z" fill="#696C80"/>
</svg>
