<svg width="160" height="98" viewBox="0 0 160 98" fill="none" xmlns="http://www.w3.org/2000/svg">
<rect x="0.5" y="34.5" width="159" height="63" rx="4.5" stroke="#9747FF" stroke-dasharray="10 5"/>
<path d="M138 66C138 71.5228 133.523 76 128 76C122.477 76 118 71.5228 118 66C118 60.4772 122.477 56 128 56C133.523 56 138 60.4772 138 66Z" fill="#BABDCC"/>
<path fill-rule="evenodd" clip-rule="evenodd" d="M126.079 63.3539L131.378 62.0152C131.745 61.9225 132.077 62.2554 131.985 62.6224L130.646 67.9215C130.556 68.2779 130.278 68.5561 129.922 68.6461L124.623 69.9848C124.255 70.0775 123.923 69.7446 124.015 69.3775L125.354 64.0785C125.444 63.7221 125.722 63.4439 126.079 63.3539ZM128 67C128.552 67 129 66.5523 129 66C129 65.4477 128.552 65 128 65C127.448 65 127 65.4477 127 66C127 66.5523 127.448 67 128 67Z" fill="#12131A"/>
<path d="M80 67C80.5523 67 81 66.5523 81 66C81 65.4477 80.5523 65 80 65C79.4477 65 79 65.4477 79 66C79 66.5523 79.4477 67 80 67Z" fill="#12131A"/>
<path fill-rule="evenodd" clip-rule="evenodd" d="M90 66C90 71.5228 85.5228 76 80 76C74.4772 76 70 71.5228 70 66C70 60.4772 74.4772 56 80 56C85.5228 56 90 60.4772 90 66ZM83.3775 62.0152L78.0785 63.3539C77.7222 63.4439 77.4439 63.7221 77.3539 64.0785L76.0153 69.3775C75.9226 69.7446 76.2555 70.0775 76.6225 69.9848L81.9215 68.6461C82.2779 68.5561 82.5561 68.2779 82.6462 67.9215L83.9848 62.6224C84.0775 62.2554 83.7446 61.9225 83.3775 62.0152Z" fill="#12131A"/>
<path fill-rule="evenodd" clip-rule="evenodd" d="M32 74C36.4183 74 40 70.4183 40 66C40 61.5817 36.4183 58 32 58C27.5817 58 24 61.5817 24 66C24 70.4183 27.5817 74 32 74ZM32 76C37.5228 76 42 71.5228 42 66C42 60.4772 37.5228 56 32 56C26.4772 56 22 60.4772 22 66C22 71.5228 26.4772 76 32 76Z" fill="#12131A"/>
<path fill-rule="evenodd" clip-rule="evenodd" d="M30.0785 63.3539L35.3775 62.0152C35.7446 61.9225 36.0775 62.2554 35.9848 62.6224L34.6462 67.9215C34.5561 68.2779 34.2779 68.5561 33.9215 68.6461L28.6225 69.9848C28.2555 70.0775 27.9226 69.7446 28.0153 69.3775L29.3539 64.0785C29.4439 63.7221 29.7222 63.4439 30.0785 63.3539ZM32 67C32.5523 67 33 66.5523 33 66C33 65.4477 32.5523 65 32 65C31.4477 65 31 65.4477 31 66C31 66.5523 31.4477 67 32 67Z" fill="#12131A"/>
<path d="M7.09033 11.2197C7.03532 11.6471 6.92529 12.0407 6.76025 12.4004C6.59521 12.7559 6.38151 13.0605 6.11914 13.3145C5.85254 13.5726 5.53727 13.7736 5.17334 13.9175C4.81364 14.0571 4.41162 14.127 3.96729 14.127C3.58643 14.127 3.23942 14.0741 2.92627 13.9683C2.61735 13.8582 2.34229 13.708 2.10107 13.5176C1.85563 13.3271 1.64404 13.1029 1.46631 12.8447C1.29281 12.5866 1.14893 12.3052 1.03467 12.0005C0.916178 11.6958 0.827311 11.3763 0.768066 11.042C0.713053 10.7077 0.683431 10.3691 0.679199 10.0264V8.73779C0.683431 8.39502 0.713053 8.05648 0.768066 7.72217C0.827311 7.38786 0.916178 7.06836 1.03467 6.76367C1.14893 6.45898 1.29281 6.17757 1.46631 5.91943C1.64404 5.65706 1.85563 5.43066 2.10107 5.24023C2.34229 5.0498 2.61735 4.90169 2.92627 4.7959C3.23519 4.68587 3.58219 4.63086 3.96729 4.63086C4.42855 4.63086 4.84115 4.7028 5.20508 4.84668C5.56901 4.98633 5.88216 5.18522 6.14453 5.44336C6.4069 5.70573 6.61637 6.01888 6.77295 6.38281C6.93376 6.74674 7.03955 7.14876 7.09033 7.58887H5.91602C5.87793 7.30957 5.81234 7.04932 5.71924 6.80811C5.62614 6.56689 5.5013 6.35531 5.34473 6.17334C5.18815 5.99137 4.99561 5.84961 4.76709 5.74805C4.54281 5.64225 4.2762 5.58936 3.96729 5.58936C3.68799 5.58936 3.44043 5.6359 3.22461 5.729C3.01302 5.81787 2.83105 5.94059 2.67871 6.09717C2.52214 6.25374 2.39095 6.43571 2.28516 6.64307C2.18359 6.85042 2.10107 7.07048 2.0376 7.30322C1.97412 7.53597 1.92757 7.77507 1.89795 8.02051C1.87256 8.26172 1.85986 8.49658 1.85986 8.7251V10.0264C1.85986 10.2549 1.87256 10.4919 1.89795 10.7373C1.92757 10.9785 1.97412 11.2155 2.0376 11.4482C2.10107 11.6852 2.18359 11.9074 2.28516 12.1147C2.38672 12.3221 2.51579 12.5041 2.67236 12.6606C2.82894 12.8215 3.01302 12.9484 3.22461 13.0415C3.4362 13.1304 3.68376 13.1748 3.96729 13.1748C4.2762 13.1748 4.54281 13.1261 4.76709 13.0288C4.99561 12.9315 5.18815 12.7939 5.34473 12.6162C5.5013 12.4427 5.62614 12.2375 5.71924 12.0005C5.81234 11.7593 5.87793 11.499 5.91602 11.2197H7.09033ZM8.58203 10.5024C8.58203 10.0073 8.65397 9.54818 8.79785 9.125C8.94173 8.69759 9.14909 8.32731 9.41992 8.01416C9.68652 7.70101 10.0124 7.45557 10.3975 7.27783C10.7826 7.09587 11.2163 7.00488 11.6987 7.00488C12.1854 7.00488 12.6213 7.09587 13.0063 7.27783C13.3957 7.45557 13.7257 7.70101 13.9966 8.01416C14.2632 8.32731 14.4684 8.69759 14.6123 9.125C14.7562 9.54818 14.8281 10.0073 14.8281 10.5024V10.6421C14.8281 11.1372 14.7562 11.5964 14.6123 12.0195C14.4684 12.4427 14.2632 12.8109 13.9966 13.124C13.7257 13.4372 13.3978 13.6826 13.0127 13.8604C12.6276 14.0381 12.1938 14.127 11.7114 14.127C11.2248 14.127 10.7868 14.0381 10.3975 13.8604C10.0124 13.6826 9.68652 13.4372 9.41992 13.124C9.14909 12.8109 8.94173 12.4427 8.79785 12.0195C8.65397 11.5964 8.58203 11.1372 8.58203 10.6421V10.5024ZM9.75635 10.6421C9.75635 10.9806 9.79655 11.3044 9.87695 11.6133C9.95736 11.918 10.0801 12.1867 10.2451 12.4194C10.4059 12.6522 10.609 12.8363 10.8545 12.9717C11.0999 13.1071 11.3856 13.1748 11.7114 13.1748C12.033 13.1748 12.3145 13.1071 12.5557 12.9717C12.8011 12.8363 13.0063 12.6522 13.1714 12.4194C13.3322 12.1867 13.4528 11.918 13.5332 11.6133C13.6136 11.3044 13.6538 10.9806 13.6538 10.6421V10.5024C13.6538 10.1681 13.6115 9.84863 13.5269 9.54395C13.4465 9.23503 13.3258 8.96419 13.165 8.73145C13 8.4987 12.7948 8.31462 12.5493 8.1792C12.3081 8.03955 12.0246 7.96973 11.6987 7.96973C11.3729 7.96973 11.0894 8.03955 10.8481 8.1792C10.6069 8.31462 10.4059 8.4987 10.2451 8.73145C10.0801 8.96419 9.95736 9.23503 9.87695 9.54395C9.79655 9.84863 9.75635 10.1681 9.75635 10.5024V10.6421ZM17.2593 7.13184L17.291 7.7793C17.4307 7.53809 17.6126 7.34977 17.8369 7.21436C18.0654 7.07894 18.3405 7.00911 18.6621 7.00488C18.8441 7.00488 19.007 7.02604 19.1509 7.06836C19.299 7.10645 19.4281 7.16357 19.5381 7.23975C19.6185 7.29899 19.6904 7.37093 19.7539 7.45557C19.8216 7.5402 19.8787 7.63542 19.9253 7.74121C19.9845 7.64388 20.0544 7.5529 20.1348 7.46826C20.2152 7.38363 20.3019 7.30957 20.395 7.24609C20.5135 7.17415 20.6447 7.11702 20.7886 7.07471C20.9367 7.03239 21.0975 7.00911 21.271 7.00488C21.508 7.00488 21.7217 7.04085 21.9121 7.11279C22.1025 7.1805 22.2633 7.28206 22.3945 7.41748C22.5384 7.56982 22.6484 7.76872 22.7246 8.01416C22.8008 8.25537 22.8389 8.54102 22.8389 8.87109V14H21.7217V8.8584C21.7217 8.71452 21.7048 8.58757 21.6709 8.47754C21.637 8.36751 21.5884 8.27653 21.5249 8.20459C21.4572 8.13688 21.3726 8.0861 21.271 8.05225C21.1737 8.01839 21.0594 8.00146 20.9282 8.00146C20.7886 8.00146 20.668 8.02051 20.5664 8.05859C20.4648 8.09668 20.3802 8.14746 20.3125 8.21094C20.2448 8.27865 20.1919 8.35693 20.1538 8.4458C20.1157 8.53044 20.0903 8.62565 20.0776 8.73145C20.0776 8.7526 20.0776 8.77376 20.0776 8.79492C20.0776 8.81185 20.0776 8.83301 20.0776 8.8584V14H18.9604V8.85205C18.9604 8.70817 18.9435 8.58122 18.9097 8.47119C18.88 8.36117 18.8314 8.27018 18.7637 8.19824C18.7002 8.13053 18.6198 8.08187 18.5225 8.05225C18.4294 8.01839 18.3193 8.00146 18.1924 8.00146C18.0527 8.00146 17.93 8.01839 17.8242 8.05225C17.7227 8.08187 17.6359 8.1263 17.564 8.18555C17.509 8.2321 17.4603 8.28499 17.418 8.34424C17.3799 8.40348 17.3481 8.46696 17.3228 8.53467V14H16.2056V7.13184H17.2593ZM24.521 16.6406V7.13184H25.5938L25.6509 7.88086C25.744 7.76237 25.8455 7.65658 25.9556 7.56348C26.0656 7.46615 26.1841 7.38363 26.311 7.31592C26.4888 7.21436 26.6855 7.13818 26.9014 7.0874C27.1214 7.03239 27.3563 7.00488 27.606 7.00488C28.0461 7.00488 28.4354 7.09163 28.7739 7.26514C29.1125 7.43864 29.396 7.67985 29.6245 7.98877C29.853 8.29769 30.0265 8.66797 30.145 9.09961C30.2635 9.52702 30.3228 9.99674 30.3228 10.5088V10.6421C30.3228 11.133 30.2635 11.5921 30.145 12.0195C30.0265 12.4427 29.853 12.8109 29.6245 13.124C29.396 13.4372 29.1125 13.6826 28.7739 13.8604C28.4396 14.0381 28.0566 14.127 27.625 14.127C27.3626 14.127 27.1172 14.0994 26.8887 14.0444C26.6644 13.9894 26.4613 13.9111 26.2793 13.8096C26.1693 13.7461 26.0656 13.6763 25.9683 13.6001C25.8709 13.5197 25.7799 13.4329 25.6953 13.3398V16.6406H24.521ZM29.1484 10.5088C29.1484 10.1745 29.1104 9.8571 29.0342 9.55664C28.9622 9.25195 28.8501 8.98324 28.6978 8.75049C28.5412 8.52197 28.3444 8.34001 28.1074 8.20459C27.8704 8.06917 27.5869 8.00146 27.2568 8.00146C27.0749 8.00146 26.9056 8.02262 26.749 8.06494C26.5967 8.10726 26.4591 8.16862 26.3364 8.24902C26.201 8.32943 26.0804 8.42887 25.9746 8.54736C25.8688 8.66585 25.7757 8.79704 25.6953 8.94092V12.248C25.7673 12.375 25.8498 12.4935 25.9429 12.6035C26.036 12.7135 26.1418 12.8066 26.2603 12.8828C26.3957 12.9717 26.5459 13.0415 26.7109 13.0923C26.8802 13.1431 27.0664 13.1685 27.2695 13.1685C27.5954 13.1685 27.8768 13.1007 28.1138 12.9653C28.3507 12.8257 28.5454 12.6395 28.6978 12.4067C28.8501 12.174 28.9622 11.9053 29.0342 11.6006C29.1104 11.2959 29.1484 10.9764 29.1484 10.6421V10.5088ZM36.8481 14C36.8016 13.9111 36.7635 13.8011 36.7339 13.6699C36.7085 13.5345 36.6895 13.3949 36.6768 13.251C36.5583 13.3695 36.425 13.4816 36.2769 13.5874C36.133 13.6932 35.9743 13.7863 35.8008 13.8667C35.623 13.9471 35.4347 14.0106 35.2358 14.0571C35.0369 14.1037 34.8254 14.127 34.6011 14.127C34.2371 14.127 33.9071 14.0741 33.6108 13.9683C33.3188 13.8625 33.0713 13.7186 32.8682 13.5366C32.6608 13.3589 32.5 13.1473 32.3857 12.9019C32.2757 12.6522 32.2207 12.3835 32.2207 12.0957C32.2207 11.7191 32.2948 11.389 32.4429 11.1055C32.5952 10.8219 32.8089 10.585 33.084 10.3945C33.359 10.2083 33.6891 10.0687 34.0742 9.97559C34.4635 9.88249 34.8973 9.83594 35.3755 9.83594H36.6577V9.29639C36.6577 9.08903 36.6196 8.90283 36.5435 8.73779C36.4673 8.57275 36.3594 8.43099 36.2197 8.3125C36.0801 8.19824 35.9087 8.10938 35.7056 8.0459C35.5067 7.98242 35.2824 7.95068 35.0327 7.95068C34.8 7.95068 34.5905 7.98031 34.4043 8.03955C34.2223 8.0988 34.0679 8.17708 33.9409 8.27441C33.814 8.37174 33.7145 8.48812 33.6426 8.62354C33.5749 8.75472 33.541 8.89225 33.541 9.03613H32.3604C32.3646 8.78646 32.4281 8.54102 32.5508 8.2998C32.6777 8.05859 32.8597 7.84066 33.0967 7.646C33.3294 7.45557 33.613 7.30111 33.9473 7.18262C34.2858 7.06413 34.6688 7.00488 35.0962 7.00488C35.4855 7.00488 35.8473 7.05355 36.1816 7.15088C36.516 7.24398 36.8058 7.38574 37.0513 7.57617C37.2925 7.77083 37.4829 8.01204 37.6226 8.2998C37.7622 8.58757 37.832 8.92399 37.832 9.30908V12.502C37.832 12.7305 37.8532 12.9738 37.8955 13.2319C37.9378 13.4858 37.9971 13.708 38.0732 13.8984V14H36.8481ZM34.7725 13.105C35.001 13.105 35.2147 13.0754 35.4136 13.0161C35.6125 12.9569 35.7944 12.8786 35.9595 12.7812C36.1203 12.6839 36.2599 12.5739 36.3784 12.4512C36.4969 12.3242 36.59 12.193 36.6577 12.0576V10.6675H35.5659C35.1597 10.6675 34.8042 10.7035 34.4995 10.7754C34.1991 10.8431 33.96 10.9489 33.7822 11.0928C33.6553 11.1943 33.5579 11.3149 33.4902 11.4546C33.4268 11.5942 33.395 11.7529 33.395 11.9307C33.395 12.0999 33.4225 12.2565 33.4775 12.4004C33.5368 12.5443 33.6235 12.667 33.7378 12.7686C33.8521 12.8743 33.9959 12.9569 34.1694 13.0161C34.3429 13.0754 34.5439 13.105 34.7725 13.105ZM44.7065 12.1782C44.7065 12.0386 44.679 11.9137 44.624 11.8037C44.569 11.6895 44.4759 11.5858 44.3447 11.4927C44.2135 11.3996 44.04 11.3149 43.8242 11.2388C43.6084 11.1584 43.3397 11.0864 43.0181 11.0229C42.6245 10.9425 42.2648 10.8452 41.939 10.731C41.6174 10.6167 41.3423 10.4792 41.1138 10.3184C40.881 10.1618 40.7012 9.9777 40.5742 9.76611C40.4473 9.55029 40.3838 9.30062 40.3838 9.01709C40.3838 8.73779 40.4494 8.47754 40.5806 8.23633C40.7118 7.99089 40.8958 7.77718 41.1328 7.59521C41.3698 7.41325 41.6512 7.26937 41.9771 7.16357C42.3071 7.05778 42.6689 7.00488 43.0625 7.00488C43.4857 7.00488 43.8665 7.0599 44.2051 7.16992C44.5436 7.27995 44.8314 7.43229 45.0684 7.62695C45.3053 7.82161 45.4873 8.05013 45.6143 8.3125C45.7454 8.57064 45.811 8.84993 45.811 9.15039H44.6367C44.6367 9.00228 44.5986 8.8584 44.5225 8.71875C44.4463 8.57487 44.3405 8.44792 44.2051 8.33789C44.0697 8.22786 43.9046 8.139 43.71 8.07129C43.5195 8.00358 43.3037 7.96973 43.0625 7.96973C42.8128 7.96973 42.5928 7.99723 42.4023 8.05225C42.2161 8.10726 42.0617 8.18132 41.939 8.27441C41.812 8.36751 41.7168 8.47542 41.6533 8.59814C41.5898 8.72087 41.5581 8.84782 41.5581 8.979C41.5581 9.11442 41.5835 9.23503 41.6343 9.34082C41.6851 9.44661 41.7739 9.54183 41.9009 9.62646C42.0236 9.7111 42.1886 9.78727 42.396 9.85498C42.6076 9.92269 42.8742 9.98828 43.1958 10.0518C43.619 10.1406 43.9977 10.2443 44.332 10.3628C44.6663 10.4771 44.9478 10.6146 45.1763 10.7754C45.4048 10.9404 45.5783 11.1309 45.6968 11.3467C45.8195 11.5625 45.8809 11.8122 45.8809 12.0957C45.8809 12.4004 45.811 12.6776 45.6714 12.9272C45.536 13.1769 45.3455 13.3906 45.1001 13.5684C44.8547 13.7461 44.5605 13.8836 44.2178 13.981C43.875 14.0783 43.5005 14.127 43.0942 14.127C42.6287 14.127 42.214 14.0656 41.8501 13.9429C41.4862 13.8159 41.1794 13.6488 40.9297 13.4414C40.6758 13.2383 40.4811 13.0013 40.3457 12.7305C40.2145 12.4596 40.1489 12.1782 40.1489 11.8862H41.3232C41.3402 12.1274 41.4036 12.3306 41.5137 12.4956C41.6279 12.6606 41.7697 12.7939 41.939 12.8955C42.104 12.9971 42.2881 13.069 42.4912 13.1113C42.6943 13.1536 42.8953 13.1748 43.0942 13.1748C43.4074 13.1748 43.6803 13.1388 43.9131 13.0669C44.1458 12.9907 44.3278 12.887 44.459 12.7559C44.5394 12.6755 44.6007 12.5866 44.6431 12.4893C44.6854 12.3919 44.7065 12.2882 44.7065 12.1782ZM52.5142 12.1782C52.5142 12.0386 52.4867 11.9137 52.4316 11.8037C52.3766 11.6895 52.2835 11.5858 52.1523 11.4927C52.0212 11.3996 51.8477 11.3149 51.6318 11.2388C51.416 11.1584 51.1473 11.0864 50.8257 11.0229C50.4321 10.9425 50.0724 10.8452 49.7466 10.731C49.425 10.6167 49.1499 10.4792 48.9214 10.3184C48.6886 10.1618 48.5088 9.9777 48.3818 9.76611C48.2549 9.55029 48.1914 9.30062 48.1914 9.01709C48.1914 8.73779 48.257 8.47754 48.3882 8.23633C48.5194 7.99089 48.7035 7.77718 48.9404 7.59521C49.1774 7.41325 49.4588 7.26937 49.7847 7.16357C50.1147 7.05778 50.4766 7.00488 50.8701 7.00488C51.2933 7.00488 51.6742 7.0599 52.0127 7.16992C52.3512 7.27995 52.639 7.43229 52.876 7.62695C53.113 7.82161 53.2949 8.05013 53.4219 8.3125C53.5531 8.57064 53.6187 8.84993 53.6187 9.15039H52.4443C52.4443 9.00228 52.4062 8.8584 52.3301 8.71875C52.2539 8.57487 52.1481 8.44792 52.0127 8.33789C51.8773 8.22786 51.7122 8.139 51.5176 8.07129C51.3271 8.00358 51.1113 7.96973 50.8701 7.96973C50.6204 7.96973 50.4004 7.99723 50.21 8.05225C50.0238 8.10726 49.8693 8.18132 49.7466 8.27441C49.6196 8.36751 49.5244 8.47542 49.4609 8.59814C49.3975 8.72087 49.3657 8.84782 49.3657 8.979C49.3657 9.11442 49.3911 9.23503 49.4419 9.34082C49.4927 9.44661 49.5815 9.54183 49.7085 9.62646C49.8312 9.7111 49.9963 9.78727 50.2036 9.85498C50.4152 9.92269 50.6818 9.98828 51.0034 10.0518C51.4266 10.1406 51.8053 10.2443 52.1396 10.3628C52.474 10.4771 52.7554 10.6146 52.9839 10.7754C53.2124 10.9404 53.3859 11.1309 53.5044 11.3467C53.6271 11.5625 53.6885 11.8122 53.6885 12.0957C53.6885 12.4004 53.6187 12.6776 53.479 12.9272C53.3436 13.1769 53.1532 13.3906 52.9077 13.5684C52.6623 13.7461 52.3682 13.8836 52.0254 13.981C51.6826 14.0783 51.3081 14.127 50.9019 14.127C50.4364 14.127 50.0216 14.0656 49.6577 13.9429C49.2938 13.8159 48.987 13.6488 48.7373 13.4414C48.4834 13.2383 48.2887 13.0013 48.1533 12.7305C48.0221 12.4596 47.9565 12.1782 47.9565 11.8862H49.1309C49.1478 12.1274 49.2113 12.3306 49.3213 12.4956C49.4355 12.6606 49.5773 12.7939 49.7466 12.8955C49.9116 12.9971 50.0957 13.069 50.2988 13.1113C50.502 13.1536 50.703 13.1748 50.9019 13.1748C51.215 13.1748 51.488 13.1388 51.7207 13.0669C51.9535 12.9907 52.1354 12.887 52.2666 12.7559C52.347 12.6755 52.4084 12.5866 52.4507 12.4893C52.493 12.3919 52.5142 12.2882 52.5142 12.1782Z" fill="#696C80"/>
</svg>
