<svg width="160" height="98" viewBox="0 0 160 98" fill="none" xmlns="http://www.w3.org/2000/svg">
<rect x="0.5" y="34.5" width="159" height="63" rx="4.5" stroke="#9747FF" stroke-dasharray="10 5"/>
<path d="M120.95 62H135.04L134.138 74.1481C134.06 75.1924 133.19 76 132.143 76H123.856C122.809 76 121.939 75.1932 121.861 74.1496L120.95 62Z" fill="#BABDCC"/>
<path d="M130 69C130 70.1046 129.105 71 128 71C126.895 71 126 70.1046 126 69C126 67.8954 126.895 67 128 67C129.105 67 130 67.8954 130 69Z" fill="#12131A"/>
<path d="M124.442 56C123.581 56 122.816 56.5509 122.544 57.3675L122 59H121C120.448 59 120 59.4477 120 60V61C120 61.5523 120.448 62 121 62H135C135.552 62 136 61.5523 136 61V60C136 59.4477 135.552 59 135 59H134L133.456 57.3675C133.184 56.5509 132.419 56 131.558 56H124.442Z" fill="#12131A"/>
<path fill-rule="evenodd" clip-rule="evenodd" d="M73.4957 64C73.2024 64 72.972 64.2514 72.9976 64.5436L73.8403 74.1743C73.9307 75.2074 74.7957 76 75.8327 76H84.1658C85.2035 76 86.0688 75.2064 86.1584 74.1727L86.9928 64.5432C87.0181 64.2511 86.7878 64 86.4947 64H73.4957ZM80 72C81.1046 72 82 71.1046 82 70C82 68.8954 81.1046 68 80 68C78.8954 68 78 68.8954 78 70C78 71.1046 78.8954 72 80 72Z" fill="#12131A"/>
<path d="M76.4415 56C75.5807 56 74.8164 56.5509 74.5442 57.3675L74 59H73C72.4477 59 72 59.4477 72 60V61C72 61.5523 72.4477 62 73 62H87C87.5523 62 88 61.5523 88 61V60C88 59.4477 87.5523 59 87 59H86L85.4558 57.3675C85.1836 56.5509 84.4193 56 83.5585 56H76.4415Z" fill="#12131A"/>
<path fill-rule="evenodd" clip-rule="evenodd" d="M25 64L25.7708 73.2491C25.9003 74.804 27.2001 76 28.7604 76H35.2396C36.7999 76 38.0997 74.804 38.2292 73.2491L39 64H25ZM27.1736 66L27.7639 73.083C27.807 73.6013 28.2403 74 28.7604 74H35.2396C35.7597 74 36.193 73.6013 36.2361 73.083L36.8264 66H27.1736Z" fill="#12131A"/>
<path d="M34 70C34 71.1046 33.1046 72 32 72C30.8954 72 30 71.1046 30 70C30 68.8954 30.8954 68 32 68C33.1046 68 34 68.8954 34 70Z" fill="#12131A"/>
<path fill-rule="evenodd" clip-rule="evenodd" d="M25.2381 60.5717L25.5822 58.5068C25.8233 57.0602 27.0749 56 28.5414 56H35.4586C36.9251 56 38.1767 57.0602 38.4178 58.5068L38.7619 60.5717C39.5122 61.117 40 62.0015 40 63C40 64.6569 38.6569 66 37 66H27C25.3431 66 24 64.6569 24 63C24 62.0015 24.4878 61.117 25.2381 60.5717ZM28.5414 58H35.4586C35.9475 58 36.3646 58.3534 36.445 58.8356L36.6391 60H27.3609L27.555 58.8356C27.6354 58.3534 28.0525 58 28.5414 58ZM27 62C26.4477 62 26 62.4477 26 63C26 63.5523 26.4477 64 27 64H37C37.5523 64 38 63.5523 38 63C38 62.4477 37.5523 62 37 62H27Z" fill="#12131A"/>
<path d="M7.09033 11.2197C7.03532 11.6471 6.92529 12.0407 6.76025 12.4004C6.59521 12.7559 6.38151 13.0605 6.11914 13.3145C5.85254 13.5726 5.53727 13.7736 5.17334 13.9175C4.81364 14.0571 4.41162 14.127 3.96729 14.127C3.58643 14.127 3.23942 14.0741 2.92627 13.9683C2.61735 13.8582 2.34229 13.708 2.10107 13.5176C1.85563 13.3271 1.64404 13.1029 1.46631 12.8447C1.29281 12.5866 1.14893 12.3052 1.03467 12.0005C0.916178 11.6958 0.827311 11.3763 0.768066 11.042C0.713053 10.7077 0.683431 10.3691 0.679199 10.0264V8.73779C0.683431 8.39502 0.713053 8.05648 0.768066 7.72217C0.827311 7.38786 0.916178 7.06836 1.03467 6.76367C1.14893 6.45898 1.29281 6.17757 1.46631 5.91943C1.64404 5.65706 1.85563 5.43066 2.10107 5.24023C2.34229 5.0498 2.61735 4.90169 2.92627 4.7959C3.23519 4.68587 3.58219 4.63086 3.96729 4.63086C4.42855 4.63086 4.84115 4.7028 5.20508 4.84668C5.56901 4.98633 5.88216 5.18522 6.14453 5.44336C6.4069 5.70573 6.61637 6.01888 6.77295 6.38281C6.93376 6.74674 7.03955 7.14876 7.09033 7.58887H5.91602C5.87793 7.30957 5.81234 7.04932 5.71924 6.80811C5.62614 6.56689 5.5013 6.35531 5.34473 6.17334C5.18815 5.99137 4.99561 5.84961 4.76709 5.74805C4.54281 5.64225 4.2762 5.58936 3.96729 5.58936C3.68799 5.58936 3.44043 5.6359 3.22461 5.729C3.01302 5.81787 2.83105 5.94059 2.67871 6.09717C2.52214 6.25374 2.39095 6.43571 2.28516 6.64307C2.18359 6.85042 2.10107 7.07048 2.0376 7.30322C1.97412 7.53597 1.92757 7.77507 1.89795 8.02051C1.87256 8.26172 1.85986 8.49658 1.85986 8.7251V10.0264C1.85986 10.2549 1.87256 10.4919 1.89795 10.7373C1.92757 10.9785 1.97412 11.2155 2.0376 11.4482C2.10107 11.6852 2.18359 11.9074 2.28516 12.1147C2.38672 12.3221 2.51579 12.5041 2.67236 12.6606C2.82894 12.8215 3.01302 12.9484 3.22461 13.0415C3.4362 13.1304 3.68376 13.1748 3.96729 13.1748C4.2762 13.1748 4.54281 13.1261 4.76709 13.0288C4.99561 12.9315 5.18815 12.7939 5.34473 12.6162C5.5013 12.4427 5.62614 12.2375 5.71924 12.0005C5.81234 11.7593 5.87793 11.499 5.91602 11.2197H7.09033ZM13.438 14L13.3682 13.0542C13.1396 13.3927 12.854 13.6572 12.5112 13.8477C12.1685 14.0339 11.7728 14.127 11.3242 14.127C10.9645 14.127 10.6387 14.0719 10.3467 13.9619C10.0547 13.8477 9.80501 13.672 9.59766 13.4351C9.3903 13.1981 9.22949 12.8976 9.11523 12.5337C9.00521 12.1655 8.9502 11.7254 8.9502 11.2134V7.13184H10.1245V11.2261C10.1245 11.5985 10.1541 11.9074 10.2134 12.1528C10.2726 12.3983 10.3615 12.5929 10.48 12.7368C10.5985 12.8849 10.7424 12.9886 10.9116 13.0479C11.0851 13.1071 11.284 13.1367 11.5083 13.1367C11.7707 13.1367 12.0055 13.1071 12.2129 13.0479C12.4202 12.9844 12.6001 12.8976 12.7524 12.7876C12.8794 12.6987 12.9894 12.5929 13.0825 12.4702C13.1799 12.3433 13.2603 12.2057 13.3237 12.0576V7.13184H14.5044V14H13.438ZM16.7134 16.6406V7.13184H17.7861L17.8433 7.88086C17.9364 7.76237 18.0379 7.65658 18.1479 7.56348C18.258 7.46615 18.3765 7.38363 18.5034 7.31592C18.6812 7.21436 18.8779 7.13818 19.0938 7.0874C19.3138 7.03239 19.5487 7.00488 19.7983 7.00488C20.2384 7.00488 20.6278 7.09163 20.9663 7.26514C21.3049 7.43864 21.5884 7.67985 21.8169 7.98877C22.0454 8.29769 22.2189 8.66797 22.3374 9.09961C22.4559 9.52702 22.5151 9.99674 22.5151 10.5088V10.6421C22.5151 11.133 22.4559 11.5921 22.3374 12.0195C22.2189 12.4427 22.0454 12.8109 21.8169 13.124C21.5884 13.4372 21.3049 13.6826 20.9663 13.8604C20.632 14.0381 20.249 14.127 19.8174 14.127C19.555 14.127 19.3096 14.0994 19.0811 14.0444C18.8568 13.9894 18.6536 13.9111 18.4717 13.8096C18.3617 13.7461 18.258 13.6763 18.1606 13.6001C18.0633 13.5197 17.9723 13.4329 17.8877 13.3398V16.6406H16.7134ZM21.3408 10.5088C21.3408 10.1745 21.3027 9.8571 21.2266 9.55664C21.1546 9.25195 21.0425 8.98324 20.8901 8.75049C20.7336 8.52197 20.5368 8.34001 20.2998 8.20459C20.0628 8.06917 19.7793 8.00146 19.4492 8.00146C19.2673 8.00146 19.098 8.02262 18.9414 8.06494C18.7891 8.10726 18.6515 8.16862 18.5288 8.24902C18.3934 8.32943 18.2728 8.42887 18.167 8.54736C18.0612 8.66585 17.9681 8.79704 17.8877 8.94092V12.248C17.9596 12.375 18.0422 12.4935 18.1353 12.6035C18.2284 12.7135 18.3341 12.8066 18.4526 12.8828C18.5881 12.9717 18.7383 13.0415 18.9033 13.0923C19.0726 13.1431 19.2588 13.1685 19.4619 13.1685C19.7878 13.1685 20.0692 13.1007 20.3062 12.9653C20.5431 12.8257 20.7378 12.6395 20.8901 12.4067C21.0425 12.174 21.1546 11.9053 21.2266 11.6006C21.3027 11.2959 21.3408 10.9764 21.3408 10.6421V10.5088ZM38.5684 5.76074H35.7119V14H34.5693V5.76074H31.7129V4.75781H38.5684V5.76074ZM39.8125 10.5024C39.8125 10.0073 39.8844 9.54818 40.0283 9.125C40.1722 8.69759 40.3796 8.32731 40.6504 8.01416C40.917 7.70101 41.2428 7.45557 41.6279 7.27783C42.013 7.09587 42.4468 7.00488 42.9292 7.00488C43.4159 7.00488 43.8517 7.09587 44.2368 7.27783C44.6261 7.45557 44.9562 7.70101 45.2271 8.01416C45.4937 8.32731 45.6989 8.69759 45.8428 9.125C45.9867 9.54818 46.0586 10.0073 46.0586 10.5024V10.6421C46.0586 11.1372 45.9867 11.5964 45.8428 12.0195C45.6989 12.4427 45.4937 12.8109 45.2271 13.124C44.9562 13.4372 44.6283 13.6826 44.2432 13.8604C43.8581 14.0381 43.4243 14.127 42.9419 14.127C42.4552 14.127 42.0173 14.0381 41.6279 13.8604C41.2428 13.6826 40.917 13.4372 40.6504 13.124C40.3796 12.8109 40.1722 12.4427 40.0283 12.0195C39.8844 11.5964 39.8125 11.1372 39.8125 10.6421V10.5024ZM40.9868 10.6421C40.9868 10.9806 41.027 11.3044 41.1074 11.6133C41.1878 11.918 41.3105 12.1867 41.4756 12.4194C41.6364 12.6522 41.8395 12.8363 42.085 12.9717C42.3304 13.1071 42.616 13.1748 42.9419 13.1748C43.2635 13.1748 43.5449 13.1071 43.7861 12.9717C44.0316 12.8363 44.2368 12.6522 44.4019 12.4194C44.5627 12.1867 44.6833 11.918 44.7637 11.6133C44.8441 11.3044 44.8843 10.9806 44.8843 10.6421V10.5024C44.8843 10.1681 44.842 9.84863 44.7573 9.54395C44.6769 9.23503 44.5563 8.96419 44.3955 8.73145C44.2305 8.4987 44.0252 8.31462 43.7798 8.1792C43.5386 8.03955 43.255 7.96973 42.9292 7.96973C42.6034 7.96973 42.3198 8.03955 42.0786 8.1792C41.8374 8.31462 41.6364 8.4987 41.4756 8.73145C41.3105 8.96419 41.1878 9.23503 41.1074 9.54395C41.027 9.84863 40.9868 10.1681 40.9868 10.5024V10.6421ZM61.7373 12.7876C61.5934 12.9569 61.4411 13.1113 61.2803 13.251C61.1195 13.3864 60.9523 13.5049 60.7788 13.6064C60.4826 13.7842 60.1631 13.9154 59.8203 14C59.4775 14.0889 59.1178 14.1312 58.7412 14.127C58.3604 14.1227 58.0091 14.0656 57.6875 13.9556C57.3701 13.8413 57.0845 13.6847 56.8306 13.4858C56.5767 13.2912 56.3545 13.0605 56.1641 12.7939C55.9736 12.5273 55.8149 12.2375 55.688 11.9243C55.5568 11.6154 55.4574 11.2917 55.3896 10.9531C55.3262 10.6104 55.2923 10.2655 55.2881 9.91846V8.8457C55.2923 8.50293 55.3219 8.16227 55.377 7.82373C55.4362 7.48096 55.5251 7.15299 55.6436 6.83984C55.762 6.52669 55.9102 6.23682 56.0879 5.97021C56.2656 5.69938 56.4793 5.46452 56.729 5.26562C56.9744 5.07096 57.2537 4.9165 57.5669 4.80225C57.88 4.68799 58.2313 4.63086 58.6206 4.63086C59.0522 4.63086 59.45 4.69857 59.814 4.83398C60.1779 4.96517 60.4953 5.15348 60.7661 5.39893C61.0369 5.6486 61.2549 5.94906 61.4199 6.30029C61.585 6.6473 61.6865 7.03662 61.7246 7.46826H60.563C60.5164 7.20166 60.4445 6.95622 60.3472 6.73193C60.2498 6.50342 60.1229 6.30876 59.9663 6.14795C59.8055 5.98714 59.6151 5.8623 59.395 5.77344C59.175 5.68034 58.9189 5.63379 58.627 5.63379C58.3477 5.63379 58.1001 5.68245 57.8843 5.77979C57.6685 5.87288 57.4801 5.99984 57.3193 6.16064C57.1585 6.32145 57.0252 6.50977 56.9194 6.72559C56.8136 6.93717 56.7269 7.16146 56.6592 7.39844C56.5915 7.63542 56.5428 7.87663 56.5132 8.12207C56.4836 8.36751 56.4688 8.60449 56.4688 8.83301V9.91846C56.473 10.1512 56.492 10.3924 56.5259 10.6421C56.564 10.8875 56.6211 11.1287 56.6973 11.3657C56.7734 11.6027 56.8708 11.827 56.9893 12.0386C57.1077 12.2502 57.2516 12.4364 57.4209 12.5972C57.5859 12.758 57.7785 12.887 57.9985 12.9844C58.2186 13.0775 58.4683 13.1261 58.7476 13.1304C58.9084 13.1346 59.0755 13.1283 59.249 13.1113C59.4268 13.0944 59.5981 13.0605 59.7632 13.0098C59.9282 12.959 60.0827 12.8913 60.2266 12.8066C60.3704 12.7178 60.491 12.6035 60.5884 12.4639L60.6011 10.3882H58.7222V9.39795H61.7183L61.7373 12.7876ZM63.2354 10.5024C63.2354 10.0073 63.3073 9.54818 63.4512 9.125C63.5951 8.69759 63.8024 8.32731 64.0732 8.01416C64.3398 7.70101 64.6657 7.45557 65.0508 7.27783C65.4359 7.09587 65.8696 7.00488 66.3521 7.00488C66.8387 7.00488 67.2746 7.09587 67.6597 7.27783C68.049 7.45557 68.3791 7.70101 68.6499 8.01416C68.9165 8.32731 69.1217 8.69759 69.2656 9.125C69.4095 9.54818 69.4814 10.0073 69.4814 10.5024V10.6421C69.4814 11.1372 69.4095 11.5964 69.2656 12.0195C69.1217 12.4427 68.9165 12.8109 68.6499 13.124C68.3791 13.4372 68.0511 13.6826 67.666 13.8604C67.2809 14.0381 66.8472 14.127 66.3647 14.127C65.8781 14.127 65.4401 14.0381 65.0508 13.8604C64.6657 13.6826 64.3398 13.4372 64.0732 13.124C63.8024 12.8109 63.5951 12.4427 63.4512 12.0195C63.3073 11.5964 63.2354 11.1372 63.2354 10.6421V10.5024ZM64.4097 10.6421C64.4097 10.9806 64.4499 11.3044 64.5303 11.6133C64.6107 11.918 64.7334 12.1867 64.8984 12.4194C65.0592 12.6522 65.2624 12.8363 65.5078 12.9717C65.7533 13.1071 66.0389 13.1748 66.3647 13.1748C66.6864 13.1748 66.9678 13.1071 67.209 12.9717C67.4544 12.8363 67.6597 12.6522 67.8247 12.4194C67.9855 12.1867 68.1061 11.918 68.1865 11.6133C68.2669 11.3044 68.3071 10.9806 68.3071 10.6421V10.5024C68.3071 10.1681 68.2648 9.84863 68.1802 9.54395C68.0998 9.23503 67.9792 8.96419 67.8184 8.73145C67.6533 8.4987 67.4481 8.31462 67.2026 8.1792C66.9614 8.03955 66.6779 7.96973 66.3521 7.96973C66.0262 7.96973 65.7427 8.03955 65.5015 8.1792C65.2603 8.31462 65.0592 8.4987 64.8984 8.73145C64.7334 8.96419 64.6107 9.23503 64.5303 9.54395C64.4499 9.84863 64.4097 10.1681 64.4097 10.5024V10.6421Z" fill="#696C80"/>
</svg>
