<svg width="160" height="98" viewBox="0 0 160 98" fill="none" xmlns="http://www.w3.org/2000/svg">
<path d="M0.983887 14V4.75781H3.12305C3.48275 4.76204 3.82129 4.80013 4.13867 4.87207C4.46029 4.93978 4.75651 5.03711 5.02734 5.16406C5.40397 5.33757 5.73617 5.56608 6.02393 5.84961C6.31592 6.12891 6.54867 6.45264 6.72217 6.8208C6.87874 7.13395 6.99723 7.47673 7.07764 7.84912C7.16227 8.22152 7.20671 8.6193 7.21094 9.04248V9.72168C7.21094 10.1279 7.17074 10.513 7.09033 10.877C7.01416 11.2409 6.90202 11.5752 6.75391 11.8799C6.60156 12.1973 6.40902 12.485 6.17627 12.7432C5.94352 13.0013 5.68327 13.2214 5.39551 13.4033C5.09082 13.5938 4.74593 13.7397 4.36084 13.8413C3.97998 13.9429 3.56738 13.9958 3.12305 14H0.983887ZM2.17725 5.72266V13.0415H3.12305C3.46159 13.0373 3.76839 12.995 4.04346 12.9146C4.32275 12.8341 4.57031 12.7199 4.78613 12.5718C5.01465 12.4194 5.21143 12.2332 5.37646 12.0132C5.54574 11.7889 5.67904 11.5392 5.77637 11.2642C5.861 11.0399 5.92448 10.7987 5.9668 10.5405C6.00911 10.2782 6.03239 10.0052 6.03662 9.72168V9.02979C6.03239 8.74202 6.007 8.46696 5.96045 8.20459C5.91813 7.93799 5.85254 7.69043 5.76367 7.46191C5.64941 7.16569 5.49495 6.89909 5.30029 6.66211C5.10986 6.4209 4.875 6.22624 4.5957 6.07812C4.39681 5.9681 4.17464 5.88346 3.9292 5.82422C3.68376 5.76074 3.41504 5.72689 3.12305 5.72266H2.17725ZM11.9463 14.127C11.4639 14.127 11.0195 14.0444 10.6133 13.8794C10.2113 13.7144 9.86637 13.4837 9.57861 13.1875C9.29085 12.8913 9.06657 12.54 8.90576 12.1338C8.74495 11.7275 8.66455 11.2853 8.66455 10.8071V10.5405C8.66455 9.98617 8.75342 9.49105 8.93115 9.05518C9.10889 8.61507 9.34587 8.24268 9.64209 7.93799C9.93408 7.63753 10.2663 7.4069 10.6387 7.24609C11.0153 7.08529 11.4004 7.00488 11.7939 7.00488C12.2891 7.00488 12.7207 7.09163 13.0889 7.26514C13.4613 7.43441 13.7702 7.66927 14.0156 7.96973C14.2611 8.27441 14.443 8.632 14.5615 9.04248C14.6842 9.45296 14.7456 9.8973 14.7456 10.3755V10.9023H9.83887V10.9468C9.86849 11.2811 9.93408 11.5752 10.0356 11.8291C10.1414 12.083 10.2853 12.3073 10.4673 12.502C10.6535 12.7093 10.8778 12.8722 11.1401 12.9907C11.4025 13.1092 11.6924 13.1685 12.0098 13.1685C12.4287 13.1685 12.8011 13.0838 13.127 12.9146C13.4528 12.7453 13.7236 12.521 13.9395 12.2417L14.6567 12.8003C14.4282 13.1473 14.0854 13.4562 13.6284 13.7271C13.1756 13.9937 12.6149 14.127 11.9463 14.127ZM11.7939 7.96973C11.557 7.96973 11.3327 8.01416 11.1211 8.10303C10.9095 8.18766 10.7191 8.3125 10.5498 8.47754C10.3805 8.64681 10.2367 8.85417 10.1182 9.09961C10.0039 9.34082 9.9235 9.62012 9.87695 9.9375H13.5713V9.88037C13.5713 9.66878 13.5311 9.44238 13.4507 9.20117C13.3703 8.95573 13.2581 8.74414 13.1143 8.56641C12.9704 8.38867 12.7884 8.24479 12.5684 8.13477C12.3525 8.02474 12.0944 7.96973 11.7939 7.96973ZM16.9038 4.25H20.4141V12.9844H22.6548V14H16.9038V12.9844H19.2397V5.27197H16.9038V4.25ZM27.5615 14.127C27.0791 14.127 26.6348 14.0444 26.2285 13.8794C25.8265 13.7144 25.4816 13.4837 25.1938 13.1875C24.9061 12.8913 24.6818 12.54 24.521 12.1338C24.3602 11.7275 24.2798 11.2853 24.2798 10.8071V10.5405C24.2798 9.98617 24.3687 9.49105 24.5464 9.05518C24.7241 8.61507 24.9611 8.24268 25.2573 7.93799C25.5493 7.63753 25.8815 7.4069 26.2539 7.24609C26.6305 7.08529 27.0156 7.00488 27.4092 7.00488C27.9043 7.00488 28.3359 7.09163 28.7041 7.26514C29.0765 7.43441 29.3854 7.66927 29.6309 7.96973C29.8763 8.27441 30.0583 8.632 30.1768 9.04248C30.2995 9.45296 30.3608 9.8973 30.3608 10.3755V10.9023H25.4541V10.9468C25.4837 11.2811 25.5493 11.5752 25.6509 11.8291C25.7567 12.083 25.9006 12.3073 26.0825 12.502C26.2687 12.7093 26.493 12.8722 26.7554 12.9907C27.0177 13.1092 27.3076 13.1685 27.625 13.1685C28.0439 13.1685 28.4163 13.0838 28.7422 12.9146C29.068 12.7453 29.3389 12.521 29.5547 12.2417L30.272 12.8003C30.0435 13.1473 29.7007 13.4562 29.2437 13.7271C28.7909 13.9937 28.2301 14.127 27.5615 14.127ZM27.4092 7.96973C27.1722 7.96973 26.9479 8.01416 26.7363 8.10303C26.5247 8.18766 26.3343 8.3125 26.165 8.47754C25.9958 8.64681 25.8519 8.85417 25.7334 9.09961C25.6191 9.34082 25.5387 9.62012 25.4922 9.9375H29.1865V9.88037C29.1865 9.66878 29.1463 9.44238 29.0659 9.20117C28.9855 8.95573 28.8734 8.74414 28.7295 8.56641C28.5856 8.38867 28.4036 8.24479 28.1836 8.13477C27.9678 8.02474 27.7096 7.96973 27.4092 7.96973ZM35.1152 5.46875V7.13184H37.7305V8.03955H35.1152V11.772C35.1152 12.0386 35.1491 12.2586 35.2168 12.4321C35.2845 12.6056 35.3776 12.7432 35.4961 12.8447C35.6146 12.9505 35.75 13.0246 35.9023 13.0669C36.0589 13.1092 36.224 13.1304 36.3975 13.1304C36.5244 13.1304 36.6556 13.124 36.791 13.1113C36.9264 13.0944 37.0597 13.0754 37.1909 13.0542C37.3179 13.033 37.4364 13.0119 37.5464 12.9907C37.6606 12.9653 37.7537 12.9442 37.8257 12.9272L37.9907 13.7588C37.8934 13.818 37.7749 13.8709 37.6353 13.9175C37.4956 13.9598 37.3433 13.9958 37.1782 14.0254C37.0132 14.0592 36.8376 14.0846 36.6514 14.1016C36.4694 14.1185 36.2874 14.127 36.1055 14.127C35.8008 14.127 35.5151 14.0846 35.2485 14C34.9862 13.9111 34.7576 13.7715 34.563 13.5811C34.3683 13.3949 34.2139 13.1536 34.0996 12.8574C33.9896 12.557 33.9346 12.1951 33.9346 11.772V8.03955H32.1318V7.13184H33.9346V5.46875H35.1152ZM43.1768 14.127C42.6943 14.127 42.25 14.0444 41.8438 13.8794C41.4417 13.7144 41.0968 13.4837 40.8091 13.1875C40.5213 12.8913 40.297 12.54 40.1362 12.1338C39.9754 11.7275 39.895 11.2853 39.895 10.8071V10.5405C39.895 9.98617 39.9839 9.49105 40.1616 9.05518C40.3394 8.61507 40.5763 8.24268 40.8726 7.93799C41.1646 7.63753 41.4967 7.4069 41.8691 7.24609C42.2458 7.08529 42.6309 7.00488 43.0244 7.00488C43.5195 7.00488 43.9512 7.09163 44.3193 7.26514C44.6917 7.43441 45.0007 7.66927 45.2461 7.96973C45.4915 8.27441 45.6735 8.632 45.792 9.04248C45.9147 9.45296 45.9761 9.8973 45.9761 10.3755V10.9023H41.0693V10.9468C41.099 11.2811 41.1646 11.5752 41.2661 11.8291C41.3719 12.083 41.5158 12.3073 41.6978 12.502C41.884 12.7093 42.1082 12.8722 42.3706 12.9907C42.633 13.1092 42.9229 13.1685 43.2402 13.1685C43.6592 13.1685 44.0316 13.0838 44.3574 12.9146C44.6833 12.7453 44.9541 12.521 45.1699 12.2417L45.8872 12.8003C45.6587 13.1473 45.3159 13.4562 44.8589 13.7271C44.4061 13.9937 43.8454 14.127 43.1768 14.127ZM43.0244 7.96973C42.7874 7.96973 42.5632 8.01416 42.3516 8.10303C42.14 8.18766 41.9495 8.3125 41.7803 8.47754C41.611 8.64681 41.4671 8.85417 41.3486 9.09961C41.2344 9.34082 41.154 9.62012 41.1074 9.9375H44.8018V9.88037C44.8018 9.66878 44.7616 9.44238 44.6812 9.20117C44.6007 8.95573 44.4886 8.74414 44.3447 8.56641C44.2008 8.38867 44.0189 8.24479 43.7988 8.13477C43.583 8.02474 43.3249 7.96973 43.0244 7.96973ZM57.0845 13.0034H61.604V14H55.9102V4.75781H57.0845V13.0034ZM66.5996 14.127C66.1172 14.127 65.6729 14.0444 65.2666 13.8794C64.8646 13.7144 64.5197 13.4837 64.2319 13.1875C63.9442 12.8913 63.7199 12.54 63.5591 12.1338C63.3983 11.7275 63.3179 11.2853 63.3179 10.8071V10.5405C63.3179 9.98617 63.4067 9.49105 63.5845 9.05518C63.7622 8.61507 63.9992 8.24268 64.2954 7.93799C64.5874 7.63753 64.9196 7.4069 65.292 7.24609C65.6686 7.08529 66.0537 7.00488 66.4473 7.00488C66.9424 7.00488 67.374 7.09163 67.7422 7.26514C68.1146 7.43441 68.4235 7.66927 68.6689 7.96973C68.9144 8.27441 69.0964 8.632 69.2148 9.04248C69.3376 9.45296 69.3989 9.8973 69.3989 10.3755V10.9023H64.4922V10.9468C64.5218 11.2811 64.5874 11.5752 64.689 11.8291C64.7948 12.083 64.9386 12.3073 65.1206 12.502C65.3068 12.7093 65.5311 12.8722 65.7935 12.9907C66.0558 13.1092 66.3457 13.1685 66.6631 13.1685C67.082 13.1685 67.4544 13.0838 67.7803 12.9146C68.1061 12.7453 68.377 12.521 68.5928 12.2417L69.3101 12.8003C69.0815 13.1473 68.7388 13.4562 68.2817 13.7271C67.8289 13.9937 67.2682 14.127 66.5996 14.127ZM66.4473 7.96973C66.2103 7.96973 65.986 8.01416 65.7744 8.10303C65.5628 8.18766 65.3724 8.3125 65.2031 8.47754C65.0339 8.64681 64.89 8.85417 64.7715 9.09961C64.6572 9.34082 64.5768 9.62012 64.5303 9.9375H68.2246V9.88037C68.2246 9.66878 68.1844 9.44238 68.104 9.20117C68.0236 8.95573 67.9115 8.74414 67.7676 8.56641C67.6237 8.38867 67.4417 8.24479 67.2217 8.13477C67.0059 8.02474 66.7477 7.96973 66.4473 7.96973ZM73.125 14V8.03955H71.2334V7.13184H73.125V6.64941C73.125 6.20931 73.1885 5.82422 73.3154 5.49414C73.4466 5.15983 73.6307 4.88053 73.8677 4.65625C74.1004 4.43197 74.3818 4.2627 74.7119 4.14844C75.042 4.03418 75.4102 3.97705 75.8164 3.97705C75.9857 3.97705 76.1528 3.98763 76.3179 4.00879C76.4829 4.02572 76.6458 4.04899 76.8066 4.07861C76.9124 4.09977 77.0182 4.12305 77.124 4.14844C77.2298 4.1696 77.3377 4.19499 77.4478 4.22461L77.3081 5.1958C77.1346 5.13656 76.9315 5.08577 76.6987 5.04346C76.4702 4.99691 76.2248 4.97363 75.9624 4.97363C75.6958 4.97363 75.4588 5.00749 75.2515 5.0752C75.0483 5.13867 74.8791 5.236 74.7437 5.36719C74.5998 5.5026 74.4897 5.67822 74.4136 5.89404C74.3416 6.10986 74.3057 6.36165 74.3057 6.64941V7.13184H76.9526V8.03955H74.3057V14H73.125ZM81.9609 5.46875V7.13184H84.5762V8.03955H81.9609V11.772C81.9609 12.0386 81.9948 12.2586 82.0625 12.4321C82.1302 12.6056 82.2233 12.7432 82.3418 12.8447C82.4603 12.9505 82.5957 13.0246 82.748 13.0669C82.9046 13.1092 83.0697 13.1304 83.2432 13.1304C83.3701 13.1304 83.5013 13.124 83.6367 13.1113C83.7721 13.0944 83.9054 13.0754 84.0366 13.0542C84.1636 13.033 84.2821 13.0119 84.3921 12.9907C84.5063 12.9653 84.5994 12.9442 84.6714 12.9272L84.8364 13.7588C84.7391 13.818 84.6206 13.8709 84.481 13.9175C84.3413 13.9598 84.189 13.9958 84.0239 14.0254C83.8589 14.0592 83.6833 14.0846 83.4971 14.1016C83.3151 14.1185 83.1331 14.127 82.9512 14.127C82.6465 14.127 82.3608 14.0846 82.0942 14C81.8319 13.9111 81.6034 13.7715 81.4087 13.5811C81.214 13.3949 81.0596 13.1536 80.9453 12.8574C80.8353 12.557 80.7803 12.1951 80.7803 11.772V8.03955H78.9775V7.13184H80.7803V5.46875H81.9609Z" fill="#696C80"/>
<rect x="0.5" y="34.5" width="159" height="63" rx="4.5" stroke="#9747FF" stroke-dasharray="10 5"/>
<path d="M125 58C124.056 58 123.167 58.4446 122.6 59.2L118.4 64.8C117.867 65.5111 117.867 66.4889 118.4 67.2L122.6 72.8C123.167 73.5554 124.056 74 125 74H135C136.657 74 138 72.6569 138 71V61C138 59.3431 136.657 58 135 58H125Z" fill="#BABDCC"/>
<path fill-rule="evenodd" clip-rule="evenodd" d="M126.293 63.2929C126.683 62.9024 127.317 62.9024 127.707 63.2929L129 64.5858L130.293 63.2929C130.683 62.9024 131.317 62.9024 131.707 63.2929C132.098 63.6834 132.098 64.3166 131.707 64.7071L130.414 66L131.707 67.2929C132.098 67.6834 132.098 68.3166 131.707 68.7071C131.317 69.0976 130.683 69.0976 130.293 68.7071L129 67.4142L127.707 68.7071C127.317 69.0976 126.683 69.0976 126.293 68.7071C125.902 68.3166 125.902 67.6834 126.293 67.2929L127.586 66L126.293 64.7071C125.902 64.3166 125.902 63.6834 126.293 63.2929Z" fill="#12131A"/>
<path fill-rule="evenodd" clip-rule="evenodd" d="M74.6 59.2C75.1666 58.4446 76.0557 58 77 58H87C88.6569 58 90 59.3431 90 61V71C90 72.6569 88.6569 74 87 74H77C76.0557 74 75.1666 73.5554 74.6 72.8L70.4001 67.2C69.8667 66.4889 69.8667 65.5111 70.4001 64.8L74.6 59.2ZM79.7071 63.2929C79.3166 62.9024 78.6834 62.9024 78.2929 63.2929C77.9024 63.6834 77.9024 64.3166 78.2929 64.7071L79.5858 66L78.2929 67.2929C77.9024 67.6834 77.9024 68.3166 78.2929 68.7071C78.6834 69.0976 79.3166 69.0976 79.7071 68.7071L81 67.4142L82.2929 68.7071C82.6834 69.0976 83.3166 69.0976 83.7071 68.7071C84.0976 68.3166 84.0976 67.6834 83.7071 67.2929L82.4142 66L83.7071 64.7071C84.0976 64.3166 84.0976 63.6834 83.7071 63.2929C83.3166 62.9024 82.6834 62.9024 82.2929 63.2929L81 64.5858L79.7071 63.2929Z" fill="#12131A"/>
<path fill-rule="evenodd" clip-rule="evenodd" d="M26.3156 59.5149C27.0743 58.5579 28.2287 58 29.45 58H38C40.2091 58 42 59.7909 42 62V70C42 72.2091 40.2091 74 38 74H29.45C28.2287 74 27.0743 73.4421 26.3156 72.4851L22.6517 67.8638C21.786 66.772 21.786 65.228 22.6517 64.1362L26.3156 59.5149ZM29.45 60C28.8393 60 28.2622 60.279 27.8828 60.7575L24.2188 65.3787C23.9303 65.7427 23.9303 66.2573 24.2188 66.6213L27.8828 71.2425C28.2622 71.721 28.8393 72 29.45 72H38C39.1046 72 40 71.1046 40 70V62C40 60.8954 39.1046 60 38 60H29.45Z" fill="#12131A"/>
<path fill-rule="evenodd" clip-rule="evenodd" d="M30.2929 63.2929C30.6834 62.9024 31.3166 62.9024 31.7071 63.2929L33 64.5858L34.2929 63.2929C34.6834 62.9024 35.3166 62.9024 35.7071 63.2929C36.0976 63.6834 36.0976 64.3166 35.7071 64.7071L34.4142 66L35.7071 67.2929C36.0976 67.6834 36.0976 68.3166 35.7071 68.7071C35.3166 69.0976 34.6834 69.0976 34.2929 68.7071L33 67.4142L31.7071 68.7071C31.3166 69.0976 30.6834 69.0976 30.2929 68.7071C29.9024 68.3166 29.9024 67.6834 30.2929 67.2929L31.5858 66L30.2929 64.7071C29.9024 64.3166 29.9024 63.6834 30.2929 63.2929Z" fill="#12131A"/>
</svg>
