<svg width="160" height="98" viewBox="0 0 160 98" fill="none" xmlns="http://www.w3.org/2000/svg">
<rect x="0.5" y="34.5" width="159" height="63" rx="4.5" stroke="#9747FF" stroke-dasharray="10 5"/>
<path fill-rule="evenodd" clip-rule="evenodd" d="M134.6 57.2C135.042 57.5314 135.131 58.1582 134.8 58.6L122.8 74.6C122.469 75.0418 121.842 75.1314 121.4 74.8C120.958 74.4686 120.869 73.8418 121.2 73.4L133.2 57.4C133.531 56.9582 134.158 56.8686 134.6 57.2Z" fill="#BABDCC"/>
<path fill-rule="evenodd" clip-rule="evenodd" d="M122 63C123.657 63 125 61.6569 125 60C125 58.3431 123.657 57 122 57C120.343 57 119 58.3431 119 60C119 61.6569 120.343 63 122 63ZM134 75C135.657 75 137 73.6569 137 72C137 70.3431 135.657 69 134 69C132.343 69 131 70.3431 131 72C131 73.6569 132.343 75 134 75Z" fill="#12131A"/>
<path fill-rule="evenodd" clip-rule="evenodd" d="M86.6 57.2C87.0418 57.5314 87.1314 58.1582 86.8 58.6L74.8 74.6C74.4686 75.0418 73.8418 75.1314 73.4 74.8C72.9582 74.4686 72.8686 73.8418 73.2 73.4L85.2 57.4C85.5314 56.9582 86.1582 56.8686 86.6 57.2Z" fill="#12131A"/>
<path fill-rule="evenodd" clip-rule="evenodd" d="M74 63C75.6569 63 77 61.6569 77 60C77 58.3431 75.6569 57 74 57C72.3431 57 71 58.3431 71 60C71 61.6569 72.3431 63 74 63ZM86 75C87.6569 75 89 73.6569 89 72C89 70.3431 87.6569 69 86 69C84.3431 69 83 70.3431 83 72C83 73.6569 84.3431 75 86 75Z" fill="#12131A"/>
<path fill-rule="evenodd" clip-rule="evenodd" d="M38.6 57.2C39.0418 57.5314 39.1314 58.1582 38.8 58.6L26.8 74.6C26.4686 75.0418 25.8418 75.1314 25.4 74.8C24.9582 74.4686 24.8686 73.8418 25.2 73.4L37.2 57.4C37.5314 56.9582 38.1582 56.8686 38.6 57.2Z" fill="#12131A"/>
<path fill-rule="evenodd" clip-rule="evenodd" d="M28 60.5C28 61.3284 27.3284 62 26.5 62C25.6716 62 25 61.3284 25 60.5C25 59.6716 25.6716 59 26.5 59C27.3284 59 28 59.6716 28 60.5ZM30 60.5C30 62.433 28.433 64 26.5 64C24.567 64 23 62.433 23 60.5C23 58.567 24.567 57 26.5 57C28.433 57 30 58.567 30 60.5ZM39 71.5C39 72.3284 38.3284 73 37.5 73C36.6716 73 36 72.3284 36 71.5C36 70.6716 36.6716 70 37.5 70C38.3284 70 39 70.6716 39 71.5ZM41 71.5C41 73.433 39.433 75 37.5 75C35.567 75 34 73.433 34 71.5C34 69.567 35.567 68 37.5 68C39.433 68 41 69.567 41 71.5Z" fill="#12131A"/>
<path d="M0.983887 14V4.75781H3.12305C3.48275 4.76204 3.82129 4.80013 4.13867 4.87207C4.46029 4.93978 4.75651 5.03711 5.02734 5.16406C5.40397 5.33757 5.73617 5.56608 6.02393 5.84961C6.31592 6.12891 6.54867 6.45264 6.72217 6.8208C6.87874 7.13395 6.99723 7.47673 7.07764 7.84912C7.16227 8.22152 7.20671 8.6193 7.21094 9.04248V9.72168C7.21094 10.1279 7.17074 10.513 7.09033 10.877C7.01416 11.2409 6.90202 11.5752 6.75391 11.8799C6.60156 12.1973 6.40902 12.485 6.17627 12.7432C5.94352 13.0013 5.68327 13.2214 5.39551 13.4033C5.09082 13.5938 4.74593 13.7397 4.36084 13.8413C3.97998 13.9429 3.56738 13.9958 3.12305 14H0.983887ZM2.17725 5.72266V13.0415H3.12305C3.46159 13.0373 3.76839 12.995 4.04346 12.9146C4.32275 12.8341 4.57031 12.7199 4.78613 12.5718C5.01465 12.4194 5.21143 12.2332 5.37646 12.0132C5.54574 11.7889 5.67904 11.5392 5.77637 11.2642C5.861 11.0399 5.92448 10.7987 5.9668 10.5405C6.00911 10.2782 6.03239 10.0052 6.03662 9.72168V9.02979C6.03239 8.74202 6.007 8.46696 5.96045 8.20459C5.91813 7.93799 5.85254 7.69043 5.76367 7.46191C5.64941 7.16569 5.49495 6.89909 5.30029 6.66211C5.10986 6.4209 4.875 6.22624 4.5957 6.07812C4.39681 5.9681 4.17464 5.88346 3.9292 5.82422C3.68376 5.76074 3.41504 5.72689 3.12305 5.72266H2.17725ZM9.09619 7.13184H12.6064V12.9844H14.8472V14H9.09619V12.9844H11.4321V8.15381H9.09619V7.13184ZM11.2798 5.3291C11.2798 5.22754 11.2946 5.13232 11.3242 5.04346C11.3581 4.95459 11.4089 4.87842 11.4766 4.81494C11.5316 4.75993 11.6014 4.71761 11.686 4.68799C11.7749 4.65413 11.8743 4.63721 11.9844 4.63721C12.0944 4.63721 12.1917 4.65413 12.2764 4.68799C12.361 4.71761 12.4308 4.75993 12.4858 4.81494C12.5535 4.87419 12.6043 4.94824 12.6382 5.03711C12.672 5.12598 12.689 5.22331 12.689 5.3291C12.689 5.51953 12.6297 5.67822 12.5112 5.80518C12.3927 5.93213 12.2171 5.99561 11.9844 5.99561C11.7474 5.99561 11.5697 5.93213 11.4512 5.80518C11.3369 5.67822 11.2798 5.51953 11.2798 5.3291ZM21.2837 12.1782C21.2837 12.0386 21.2562 11.9137 21.2012 11.8037C21.1462 11.6895 21.0531 11.5858 20.9219 11.4927C20.7907 11.3996 20.6172 11.3149 20.4014 11.2388C20.1855 11.1584 19.9168 11.0864 19.5952 11.0229C19.2017 10.9425 18.842 10.8452 18.5161 10.731C18.1945 10.6167 17.9194 10.4792 17.6909 10.3184C17.4582 10.1618 17.2783 9.9777 17.1514 9.76611C17.0244 9.55029 16.9609 9.30062 16.9609 9.01709C16.9609 8.73779 17.0265 8.47754 17.1577 8.23633C17.2889 7.99089 17.473 7.77718 17.71 7.59521C17.9469 7.41325 18.2284 7.26937 18.5542 7.16357C18.8843 7.05778 19.2461 7.00488 19.6396 7.00488C20.0628 7.00488 20.4437 7.0599 20.7822 7.16992C21.1208 7.27995 21.4085 7.43229 21.6455 7.62695C21.8825 7.82161 22.0645 8.05013 22.1914 8.3125C22.3226 8.57064 22.3882 8.84993 22.3882 9.15039H21.2139C21.2139 9.00228 21.1758 8.8584 21.0996 8.71875C21.0234 8.57487 20.9176 8.44792 20.7822 8.33789C20.6468 8.22786 20.4818 8.139 20.2871 8.07129C20.0967 8.00358 19.8809 7.96973 19.6396 7.96973C19.39 7.96973 19.1699 7.99723 18.9795 8.05225C18.7933 8.10726 18.6388 8.18132 18.5161 8.27441C18.3892 8.36751 18.2939 8.47542 18.2305 8.59814C18.167 8.72087 18.1353 8.84782 18.1353 8.979C18.1353 9.11442 18.1606 9.23503 18.2114 9.34082C18.2622 9.44661 18.3511 9.54183 18.478 9.62646C18.6007 9.7111 18.7658 9.78727 18.9731 9.85498C19.1847 9.92269 19.4513 9.98828 19.7729 10.0518C20.1961 10.1406 20.5749 10.2443 20.9092 10.3628C21.2435 10.4771 21.5249 10.6146 21.7534 10.7754C21.9819 10.9404 22.1554 11.1309 22.2739 11.3467C22.3966 11.5625 22.458 11.8122 22.458 12.0957C22.458 12.4004 22.3882 12.6776 22.2485 12.9272C22.1131 13.1769 21.9227 13.3906 21.6772 13.5684C21.4318 13.7461 21.1377 13.8836 20.7949 13.981C20.4521 14.0783 20.0776 14.127 19.6714 14.127C19.2059 14.127 18.7912 14.0656 18.4272 13.9429C18.0633 13.8159 17.7565 13.6488 17.5068 13.4414C17.2529 13.2383 17.0583 13.0013 16.9229 12.7305C16.7917 12.4596 16.7261 12.1782 16.7261 11.8862H17.9004C17.9173 12.1274 17.9808 12.3306 18.0908 12.4956C18.2051 12.6606 18.3468 12.7939 18.5161 12.8955C18.6812 12.9971 18.8652 13.069 19.0684 13.1113C19.2715 13.1536 19.4725 13.1748 19.6714 13.1748C19.9845 13.1748 20.2575 13.1388 20.4902 13.0669C20.723 12.9907 20.9049 12.887 21.0361 12.7559C21.1165 12.6755 21.1779 12.5866 21.2202 12.4893C21.2625 12.3919 21.2837 12.2882 21.2837 12.1782ZM27.4536 13.1748C27.6652 13.1748 27.8704 13.141 28.0693 13.0732C28.2725 13.0055 28.4523 12.9103 28.6089 12.7876C28.7655 12.6691 28.8903 12.5295 28.9834 12.3687C29.0807 12.2036 29.1315 12.0259 29.1357 11.8354H30.2466C30.2424 12.1401 30.1619 12.4321 30.0054 12.7114C29.853 12.9865 29.6478 13.2277 29.3896 13.4351C29.1315 13.6466 28.8353 13.8159 28.501 13.9429C28.1667 14.0656 27.8175 14.127 27.4536 14.127C26.9331 14.127 26.4782 14.0339 26.0889 13.8477C25.6995 13.6615 25.3758 13.4097 25.1177 13.0923C24.8553 12.7791 24.6585 12.4173 24.5273 12.0068C24.3962 11.5921 24.3306 11.1562 24.3306 10.6992V10.4326C24.3306 9.97982 24.3962 9.54606 24.5273 9.13135C24.6585 8.71663 24.8553 8.35059 25.1177 8.0332C25.3758 7.72005 25.6995 7.47038 26.0889 7.28418C26.4782 7.09798 26.9331 7.00488 27.4536 7.00488C27.8599 7.00488 28.2323 7.07048 28.5708 7.20166C28.9136 7.32861 29.2098 7.50212 29.4595 7.72217C29.7049 7.94645 29.8975 8.21094 30.0371 8.51562C30.1768 8.82031 30.2466 9.14616 30.2466 9.49316H29.1357C29.1315 9.28581 29.085 9.09115 28.9961 8.90918C28.9115 8.72298 28.7951 8.56006 28.647 8.42041C28.4989 8.28076 28.3211 8.17074 28.1138 8.09033C27.9106 8.00993 27.6906 7.96973 27.4536 7.96973C27.0897 7.96973 26.7829 8.04378 26.5332 8.19189C26.2878 8.33577 26.0889 8.52409 25.9365 8.75684C25.7842 8.99382 25.6742 9.2583 25.6064 9.55029C25.543 9.84229 25.5112 10.1364 25.5112 10.4326V10.6992C25.5112 10.9997 25.543 11.298 25.6064 11.5942C25.6742 11.8862 25.7842 12.1486 25.9365 12.3813C26.0846 12.6183 26.2814 12.8109 26.5269 12.959C26.7765 13.1029 27.0854 13.1748 27.4536 13.1748ZM32.0049 10.5024C32.0049 10.0073 32.0768 9.54818 32.2207 9.125C32.3646 8.69759 32.5719 8.32731 32.8428 8.01416C33.1094 7.70101 33.4352 7.45557 33.8203 7.27783C34.2054 7.09587 34.6392 7.00488 35.1216 7.00488C35.6082 7.00488 36.0441 7.09587 36.4292 7.27783C36.8185 7.45557 37.1486 7.70101 37.4194 8.01416C37.686 8.32731 37.8913 8.69759 38.0352 9.125C38.179 9.54818 38.251 10.0073 38.251 10.5024V10.6421C38.251 11.1372 38.179 11.5964 38.0352 12.0195C37.8913 12.4427 37.686 12.8109 37.4194 13.124C37.1486 13.4372 36.8206 13.6826 36.4355 13.8604C36.0505 14.0381 35.6167 14.127 35.1343 14.127C34.6476 14.127 34.2096 14.0381 33.8203 13.8604C33.4352 13.6826 33.1094 13.4372 32.8428 13.124C32.5719 12.8109 32.3646 12.4427 32.2207 12.0195C32.0768 11.5964 32.0049 11.1372 32.0049 10.6421V10.5024ZM33.1792 10.6421C33.1792 10.9806 33.2194 11.3044 33.2998 11.6133C33.3802 11.918 33.5029 12.1867 33.668 12.4194C33.8288 12.6522 34.0319 12.8363 34.2773 12.9717C34.5228 13.1071 34.8084 13.1748 35.1343 13.1748C35.4559 13.1748 35.7373 13.1071 35.9785 12.9717C36.224 12.8363 36.4292 12.6522 36.5942 12.4194C36.755 12.1867 36.8757 11.918 36.9561 11.6133C37.0365 11.3044 37.0767 10.9806 37.0767 10.6421V10.5024C37.0767 10.1681 37.0343 9.84863 36.9497 9.54395C36.8693 9.23503 36.7487 8.96419 36.5879 8.73145C36.4229 8.4987 36.2176 8.31462 35.9722 8.1792C35.731 8.03955 35.4474 7.96973 35.1216 7.96973C34.7957 7.96973 34.5122 8.03955 34.271 8.1792C34.0298 8.31462 33.8288 8.4987 33.668 8.73145C33.5029 8.96419 33.3802 9.23503 33.2998 9.54395C33.2194 9.84863 33.1792 10.1681 33.1792 10.5024V10.6421ZM44.6685 14L44.5986 13.0542C44.3701 13.3927 44.0845 13.6572 43.7417 13.8477C43.3989 14.0339 43.0033 14.127 42.5547 14.127C42.195 14.127 41.8691 14.0719 41.5771 13.9619C41.2852 13.8477 41.0355 13.672 40.8281 13.4351C40.6208 13.1981 40.46 12.8976 40.3457 12.5337C40.2357 12.1655 40.1807 11.7254 40.1807 11.2134V7.13184H41.355V11.2261C41.355 11.5985 41.3846 11.9074 41.4438 12.1528C41.5031 12.3983 41.592 12.5929 41.7104 12.7368C41.8289 12.8849 41.9728 12.9886 42.1421 13.0479C42.3156 13.1071 42.5145 13.1367 42.7388 13.1367C43.0011 13.1367 43.236 13.1071 43.4434 13.0479C43.6507 12.9844 43.8306 12.8976 43.9829 12.7876C44.1099 12.6987 44.2199 12.5929 44.313 12.4702C44.4103 12.3433 44.4907 12.2057 44.5542 12.0576V7.13184H45.7349V14H44.6685ZM47.9502 14V7.13184H49.0039L49.0864 8.14746C49.188 8.00358 49.298 7.8724 49.4165 7.75391C49.5392 7.63118 49.6683 7.52539 49.8037 7.43652C50.0068 7.30111 50.2269 7.19743 50.4639 7.12549C50.7051 7.04932 50.959 7.00911 51.2256 7.00488C51.5853 7.00488 51.9111 7.05566 52.2031 7.15723C52.4993 7.25879 52.7511 7.41748 52.9585 7.6333C53.1659 7.84912 53.3245 8.12419 53.4346 8.4585C53.5488 8.78857 53.606 9.18213 53.606 9.63916V14H52.4316V9.66455C52.4316 9.35986 52.3978 9.10173 52.3301 8.89014C52.2624 8.67855 52.1629 8.50716 52.0317 8.37598C51.8963 8.24479 51.7313 8.14958 51.5366 8.09033C51.3462 8.03109 51.1261 8.00146 50.8765 8.00146C50.6606 8.00146 50.4596 8.0332 50.2734 8.09668C50.0872 8.15592 49.9159 8.23844 49.7593 8.34424C49.6323 8.43734 49.5138 8.54525 49.4038 8.66797C49.298 8.79069 49.2049 8.92611 49.1245 9.07422V14H47.9502ZM58.5381 5.46875V7.13184H61.1533V8.03955H58.5381V11.772C58.5381 12.0386 58.5719 12.2586 58.6396 12.4321C58.7074 12.6056 58.8005 12.7432 58.9189 12.8447C59.0374 12.9505 59.1729 13.0246 59.3252 13.0669C59.4818 13.1092 59.6468 13.1304 59.8203 13.1304C59.9473 13.1304 60.0785 13.124 60.2139 13.1113C60.3493 13.0944 60.4826 13.0754 60.6138 13.0542C60.7407 13.033 60.8592 13.0119 60.9692 12.9907C61.0835 12.9653 61.1766 12.9442 61.2485 12.9272L61.4136 13.7588C61.3162 13.818 61.1978 13.8709 61.0581 13.9175C60.9185 13.9598 60.7661 13.9958 60.6011 14.0254C60.436 14.0592 60.2604 14.0846 60.0742 14.1016C59.8923 14.1185 59.7103 14.127 59.5283 14.127C59.2236 14.127 58.938 14.0846 58.6714 14C58.409 13.9111 58.1805 13.7715 57.9858 13.5811C57.7912 13.3949 57.6367 13.1536 57.5225 12.8574C57.4124 12.557 57.3574 12.1951 57.3574 11.772V8.03955H55.5547V7.13184H57.3574V5.46875H58.5381Z" fill="#696C80"/>
</svg>
