<svg width="160" height="98" viewBox="0 0 160 98" fill="none" xmlns="http://www.w3.org/2000/svg">
<rect x="0.5" y="34.5" width="159" height="63" rx="4.5" stroke="#9747FF" stroke-dasharray="10 5"/>
<path d="M125.2 70C124.08 70 123.52 70 123.092 69.782C122.716 69.5903 122.41 69.2843 122.218 68.908C122 68.4802 122 67.9201 122 66.8V65.2C122 64.0799 122 63.5198 122.218 63.092C122.41 62.7157 122.716 62.4097 123.092 62.218C123.52 62 124.08 62 125.2 62H130.8C131.92 62 132.48 62 132.908 62.218C133.284 62.4097 133.59 62.7157 133.782 63.092C134 63.5198 134 64.0799 134 65.2V66.8C134 67.9201 134 68.4802 133.782 68.908C133.59 69.2843 133.284 69.5903 132.908 69.782C132.48 70 131.92 70 130.8 70H125.2Z" fill="#BABDCC"/>
<path fill-rule="evenodd" clip-rule="evenodd" d="M120 73C119.448 73 119 73.4477 119 74C119 74.5523 119.448 75 120 75H136C136.552 75 137 74.5523 137 74C137 73.4477 136.552 73 136 73H120ZM120 57C119.448 57 119 57.4477 119 58C119 58.5523 119.448 59 120 59H136C136.552 59 137 58.5523 137 58C137 57.4477 136.552 57 136 57H120Z" fill="#12131A"/>
<path d="M77.2 70C76.0799 70 75.5198 70 75.092 69.782C74.7157 69.5903 74.4097 69.2843 74.218 68.908C74 68.4802 74 67.9201 74 66.8V65.2C74 64.0799 74 63.5198 74.218 63.092C74.4097 62.7157 74.7157 62.4097 75.092 62.218C75.5198 62 76.0799 62 77.2 62H82.8C83.9201 62 84.4802 62 84.908 62.218C85.2843 62.4097 85.5903 62.7157 85.782 63.092C86 63.5198 86 64.0799 86 65.2V66.8C86 67.9201 86 68.4802 85.782 68.908C85.5903 69.2843 85.2843 69.5903 84.908 69.782C84.4802 70 83.9201 70 82.8 70H77.2Z" fill="#12131A"/>
<path fill-rule="evenodd" clip-rule="evenodd" d="M72 73C71.4477 73 71 73.4477 71 74C71 74.5523 71.4477 75 72 75H88C88.5523 75 89 74.5523 89 74C89 73.4477 88.5523 73 88 73H72ZM72 57C71.4477 57 71 57.4477 71 58C71 58.5523 71.4477 59 72 59H88C88.5523 59 89 58.5523 89 58C89 57.4477 88.5523 57 88 57H72Z" fill="#12131A"/>
<path fill-rule="evenodd" clip-rule="evenodd" d="M29.1615 61H34.8385C35.3657 61 35.8205 61 36.195 61.0306C36.5904 61.0629 36.9836 61.1342 37.362 61.327C37.9265 61.6146 38.3854 62.0735 38.673 62.638C38.8658 63.0164 38.9371 63.4096 38.9694 63.805C39 64.1796 39 64.6343 39 65.1615V66.8385C39 67.3657 39 67.8205 38.9694 68.195C38.9371 68.5904 38.8658 68.9836 38.673 69.362C38.3854 69.9265 37.9265 70.3854 37.362 70.673C36.9836 70.8658 36.5904 70.9371 36.195 70.9694C35.8205 71 35.3657 71 34.8385 71H29.1615C28.6343 71 28.1796 71 27.805 70.9694C27.4096 70.9371 27.0164 70.8658 26.638 70.673C26.0735 70.3854 25.6146 69.9265 25.327 69.362C25.1342 68.9836 25.0629 68.5904 25.0306 68.195C25 67.8205 25 67.3657 25 66.8385V65.1615C25 64.6343 25 64.1795 25.0306 63.805C25.0629 63.4096 25.1342 63.0164 25.327 62.638C25.6146 62.0735 26.0735 61.6146 26.638 61.327C27.0164 61.1342 27.4096 61.0629 27.805 61.0306C28.1795 61 28.6343 61 29.1615 61ZM27.9678 63.0239C27.6962 63.0461 27.5955 63.0838 27.546 63.109C27.3578 63.2049 27.2049 63.3578 27.109 63.546C27.0838 63.5955 27.0461 63.6962 27.0239 63.9678C27.0008 64.2512 27 64.6234 27 65.2V66.8C27 67.3766 27.0008 67.7488 27.0239 68.0322C27.0461 68.3038 27.0838 68.4045 27.109 68.454C27.2049 68.6422 27.3578 68.7951 27.546 68.891C27.5955 68.9162 27.6962 68.9539 27.9678 68.9761C28.2512 68.9992 28.6234 69 29.2 69H34.8C35.3766 69 35.7488 68.9992 36.0322 68.9761C36.3038 68.9539 36.4045 68.9162 36.454 68.891C36.6422 68.7951 36.7951 68.6422 36.891 68.454C36.9162 68.4045 36.9539 68.3038 36.9761 68.0322C36.9992 67.7488 37 67.3766 37 66.8V65.2C37 64.6234 36.9992 64.2512 36.9761 63.9678C36.9539 63.6962 36.9162 63.5955 36.891 63.546C36.7951 63.3578 36.6422 63.2049 36.454 63.109C36.4045 63.0838 36.3038 63.0461 36.0322 63.0239C35.7488 63.0008 35.3766 63 34.8 63H29.2C28.6234 63 28.2512 63.0008 27.9678 63.0239Z" fill="#12131A"/>
<path fill-rule="evenodd" clip-rule="evenodd" d="M24 73C23.4477 73 23 73.4477 23 74C23 74.5523 23.4477 75 24 75H40C40.5523 75 41 74.5523 41 74C41 73.4477 40.5523 73 40 73H24ZM24 57C23.4477 57 23 57.4477 23 58C23 58.5523 23.4477 59 24 59H40C40.5523 59 41 58.5523 41 58C41 57.4477 40.5523 57 40 57H24Z" fill="#12131A"/>
<path d="M0.983887 14V4.75781H3.12305C3.48275 4.76204 3.82129 4.80013 4.13867 4.87207C4.46029 4.93978 4.75651 5.03711 5.02734 5.16406C5.40397 5.33757 5.73617 5.56608 6.02393 5.84961C6.31592 6.12891 6.54867 6.45264 6.72217 6.8208C6.87874 7.13395 6.99723 7.47673 7.07764 7.84912C7.16227 8.22152 7.20671 8.6193 7.21094 9.04248V9.72168C7.21094 10.1279 7.17074 10.513 7.09033 10.877C7.01416 11.2409 6.90202 11.5752 6.75391 11.8799C6.60156 12.1973 6.40902 12.485 6.17627 12.7432C5.94352 13.0013 5.68327 13.2214 5.39551 13.4033C5.09082 13.5938 4.74593 13.7397 4.36084 13.8413C3.97998 13.9429 3.56738 13.9958 3.12305 14H0.983887ZM2.17725 5.72266V13.0415H3.12305C3.46159 13.0373 3.76839 12.995 4.04346 12.9146C4.32275 12.8341 4.57031 12.7199 4.78613 12.5718C5.01465 12.4194 5.21143 12.2332 5.37646 12.0132C5.54574 11.7889 5.67904 11.5392 5.77637 11.2642C5.861 11.0399 5.92448 10.7987 5.9668 10.5405C6.00911 10.2782 6.03239 10.0052 6.03662 9.72168V9.02979C6.03239 8.74202 6.007 8.46696 5.96045 8.20459C5.91813 7.93799 5.85254 7.69043 5.76367 7.46191C5.64941 7.16569 5.49495 6.89909 5.30029 6.66211C5.10986 6.4209 4.875 6.22624 4.5957 6.07812C4.39681 5.9681 4.17464 5.88346 3.9292 5.82422C3.68376 5.76074 3.41504 5.72689 3.12305 5.72266H2.17725ZM9.09619 7.13184H12.6064V12.9844H14.8472V14H9.09619V12.9844H11.4321V8.15381H9.09619V7.13184ZM11.2798 5.3291C11.2798 5.22754 11.2946 5.13232 11.3242 5.04346C11.3581 4.95459 11.4089 4.87842 11.4766 4.81494C11.5316 4.75993 11.6014 4.71761 11.686 4.68799C11.7749 4.65413 11.8743 4.63721 11.9844 4.63721C12.0944 4.63721 12.1917 4.65413 12.2764 4.68799C12.361 4.71761 12.4308 4.75993 12.4858 4.81494C12.5535 4.87419 12.6043 4.94824 12.6382 5.03711C12.672 5.12598 12.689 5.22331 12.689 5.3291C12.689 5.51953 12.6297 5.67822 12.5112 5.80518C12.3927 5.93213 12.2171 5.99561 11.9844 5.99561C11.7474 5.99561 11.5697 5.93213 11.4512 5.80518C11.3369 5.67822 11.2798 5.51953 11.2798 5.3291ZM21.2837 12.1782C21.2837 12.0386 21.2562 11.9137 21.2012 11.8037C21.1462 11.6895 21.0531 11.5858 20.9219 11.4927C20.7907 11.3996 20.6172 11.3149 20.4014 11.2388C20.1855 11.1584 19.9168 11.0864 19.5952 11.0229C19.2017 10.9425 18.842 10.8452 18.5161 10.731C18.1945 10.6167 17.9194 10.4792 17.6909 10.3184C17.4582 10.1618 17.2783 9.9777 17.1514 9.76611C17.0244 9.55029 16.9609 9.30062 16.9609 9.01709C16.9609 8.73779 17.0265 8.47754 17.1577 8.23633C17.2889 7.99089 17.473 7.77718 17.71 7.59521C17.9469 7.41325 18.2284 7.26937 18.5542 7.16357C18.8843 7.05778 19.2461 7.00488 19.6396 7.00488C20.0628 7.00488 20.4437 7.0599 20.7822 7.16992C21.1208 7.27995 21.4085 7.43229 21.6455 7.62695C21.8825 7.82161 22.0645 8.05013 22.1914 8.3125C22.3226 8.57064 22.3882 8.84993 22.3882 9.15039H21.2139C21.2139 9.00228 21.1758 8.8584 21.0996 8.71875C21.0234 8.57487 20.9176 8.44792 20.7822 8.33789C20.6468 8.22786 20.4818 8.139 20.2871 8.07129C20.0967 8.00358 19.8809 7.96973 19.6396 7.96973C19.39 7.96973 19.1699 7.99723 18.9795 8.05225C18.7933 8.10726 18.6388 8.18132 18.5161 8.27441C18.3892 8.36751 18.2939 8.47542 18.2305 8.59814C18.167 8.72087 18.1353 8.84782 18.1353 8.979C18.1353 9.11442 18.1606 9.23503 18.2114 9.34082C18.2622 9.44661 18.3511 9.54183 18.478 9.62646C18.6007 9.7111 18.7658 9.78727 18.9731 9.85498C19.1847 9.92269 19.4513 9.98828 19.7729 10.0518C20.1961 10.1406 20.5749 10.2443 20.9092 10.3628C21.2435 10.4771 21.5249 10.6146 21.7534 10.7754C21.9819 10.9404 22.1554 11.1309 22.2739 11.3467C22.3966 11.5625 22.458 11.8122 22.458 12.0957C22.458 12.4004 22.3882 12.6776 22.2485 12.9272C22.1131 13.1769 21.9227 13.3906 21.6772 13.5684C21.4318 13.7461 21.1377 13.8836 20.7949 13.981C20.4521 14.0783 20.0776 14.127 19.6714 14.127C19.2059 14.127 18.7912 14.0656 18.4272 13.9429C18.0633 13.8159 17.7565 13.6488 17.5068 13.4414C17.2529 13.2383 17.0583 13.0013 16.9229 12.7305C16.7917 12.4596 16.7261 12.1782 16.7261 11.8862H17.9004C17.9173 12.1274 17.9808 12.3306 18.0908 12.4956C18.2051 12.6606 18.3468 12.7939 18.5161 12.8955C18.6812 12.9971 18.8652 13.069 19.0684 13.1113C19.2715 13.1536 19.4725 13.1748 19.6714 13.1748C19.9845 13.1748 20.2575 13.1388 20.4902 13.0669C20.723 12.9907 20.9049 12.887 21.0361 12.7559C21.1165 12.6755 21.1779 12.5866 21.2202 12.4893C21.2625 12.3919 21.2837 12.2882 21.2837 12.1782ZM27.3076 5.46875V7.13184H29.9229V8.03955H27.3076V11.772C27.3076 12.0386 27.3415 12.2586 27.4092 12.4321C27.4769 12.6056 27.57 12.7432 27.6885 12.8447C27.807 12.9505 27.9424 13.0246 28.0947 13.0669C28.2513 13.1092 28.4163 13.1304 28.5898 13.1304C28.7168 13.1304 28.848 13.124 28.9834 13.1113C29.1188 13.0944 29.2521 13.0754 29.3833 13.0542C29.5103 13.033 29.6287 13.0119 29.7388 12.9907C29.853 12.9653 29.9461 12.9442 30.0181 12.9272L30.1831 13.7588C30.0858 13.818 29.9673 13.8709 29.8276 13.9175C29.688 13.9598 29.5356 13.9958 29.3706 14.0254C29.2056 14.0592 29.0299 14.0846 28.8438 14.1016C28.6618 14.1185 28.4798 14.127 28.2979 14.127C27.9932 14.127 27.7075 14.0846 27.4409 14C27.1785 13.9111 26.95 13.7715 26.7554 13.5811C26.5607 13.3949 26.4062 13.1536 26.292 12.8574C26.182 12.557 26.127 12.1951 26.127 11.772V8.03955H24.3242V7.13184H26.127V5.46875H27.3076ZM36.8354 7.00488C37.0513 7.00488 37.2756 7.01969 37.5083 7.04932C37.7453 7.07894 37.923 7.11914 38.0415 7.16992L37.8828 8.31885C37.6543 8.26807 37.4364 8.2321 37.229 8.21094C37.0259 8.18555 36.8122 8.17285 36.5879 8.17285C36.3001 8.17285 36.0399 8.20882 35.8071 8.28076C35.5744 8.34847 35.3713 8.45003 35.1978 8.58545C35.0412 8.70394 34.9036 8.84993 34.7852 9.02344C34.6709 9.19271 34.5757 9.38314 34.4995 9.59473V14H33.3188V7.13184H34.436L34.4868 8.05225L34.4932 8.22363C34.7725 7.84701 35.1068 7.55078 35.4961 7.33496C35.8896 7.11491 36.3361 7.00488 36.8354 7.00488ZM40.3267 7.13184H43.8369V12.9844H46.0776V14H40.3267V12.9844H42.6626V8.15381H40.3267V7.13184ZM42.5103 5.3291C42.5103 5.22754 42.5251 5.13232 42.5547 5.04346C42.5885 4.95459 42.6393 4.87842 42.707 4.81494C42.762 4.75993 42.8319 4.71761 42.9165 4.68799C43.0054 4.65413 43.1048 4.63721 43.2148 4.63721C43.3249 4.63721 43.4222 4.65413 43.5068 4.68799C43.5915 4.71761 43.6613 4.75993 43.7163 4.81494C43.784 4.87419 43.8348 4.94824 43.8687 5.03711C43.9025 5.12598 43.9194 5.22331 43.9194 5.3291C43.9194 5.51953 43.8602 5.67822 43.7417 5.80518C43.6232 5.93213 43.4476 5.99561 43.2148 5.99561C42.9779 5.99561 42.8001 5.93213 42.6816 5.80518C42.5674 5.67822 42.5103 5.51953 42.5103 5.3291ZM53.771 10.6421C53.771 10.9425 53.7477 11.2324 53.7012 11.5117C53.6589 11.7868 53.5954 12.0449 53.5107 12.2861C53.3965 12.6035 53.2463 12.8892 53.0601 13.1431C52.8781 13.3927 52.658 13.6001 52.3999 13.7651C52.2137 13.8794 52.0085 13.9683 51.7842 14.0317C51.5641 14.0952 51.325 14.127 51.0669 14.127C50.7707 14.127 50.4998 14.091 50.2544 14.019C50.0132 13.9471 49.7952 13.8434 49.6006 13.708C49.5075 13.6403 49.4186 13.5662 49.334 13.4858C49.2493 13.4054 49.1689 13.3166 49.0928 13.2192L49.0356 14H47.9565V4.25H49.1309V7.86816C49.2282 7.74544 49.3361 7.63542 49.4546 7.53809C49.5731 7.43652 49.7 7.34977 49.8354 7.27783C50.0047 7.18896 50.1909 7.12126 50.394 7.07471C50.5972 7.02816 50.8172 7.00488 51.0542 7.00488C51.3504 7.00488 51.6234 7.04508 51.873 7.12549C52.1227 7.20589 52.3491 7.31803 52.5522 7.46191C52.7342 7.59733 52.8971 7.76237 53.041 7.95703C53.1849 8.14746 53.3118 8.36117 53.4219 8.59814C53.5361 8.86475 53.6229 9.16097 53.6821 9.48682C53.7414 9.80843 53.771 10.1491 53.771 10.5088V10.6421ZM52.5967 10.5088C52.5967 10.293 52.5819 10.0835 52.5522 9.88037C52.5269 9.67301 52.4867 9.47835 52.4316 9.29639C52.3555 9.0721 52.256 8.86686 52.1333 8.68066C52.0106 8.49447 51.8604 8.34847 51.6826 8.24268C51.5599 8.1665 51.4224 8.10726 51.27 8.06494C51.1177 8.02262 50.9484 8.00146 50.7622 8.00146C50.5591 8.00146 50.3729 8.02897 50.2036 8.08398C50.0343 8.13477 49.8841 8.20671 49.7529 8.2998C49.6175 8.39714 49.4969 8.51139 49.3911 8.64258C49.2896 8.76953 49.2028 8.90918 49.1309 9.06152V12.064C49.207 12.2163 49.2959 12.3581 49.3975 12.4893C49.5033 12.6162 49.6239 12.7284 49.7593 12.8257C49.8947 12.923 50.047 12.9992 50.2163 13.0542C50.3856 13.105 50.5718 13.1304 50.7749 13.1304C50.9696 13.1304 51.1473 13.1071 51.3081 13.0605C51.4689 13.0098 51.6128 12.9378 51.7397 12.8447C51.909 12.7262 52.0508 12.576 52.165 12.394C52.2793 12.2121 52.3703 12.009 52.438 11.7847C52.493 11.6154 52.5332 11.4334 52.5586 11.2388C52.584 11.0441 52.5967 10.8452 52.5967 10.6421V10.5088ZM60.2837 14L60.2139 13.0542C59.9854 13.3927 59.6997 13.6572 59.3569 13.8477C59.0142 14.0339 58.6185 14.127 58.1699 14.127C57.8102 14.127 57.4844 14.0719 57.1924 13.9619C56.9004 13.8477 56.6507 13.672 56.4434 13.4351C56.236 13.1981 56.0752 12.8976 55.9609 12.5337C55.8509 12.1655 55.7959 11.7254 55.7959 11.2134V7.13184H56.9702V11.2261C56.9702 11.5985 56.9998 11.9074 57.0591 12.1528C57.1183 12.3983 57.2072 12.5929 57.3257 12.7368C57.4442 12.8849 57.5881 12.9886 57.7573 13.0479C57.9308 13.1071 58.1297 13.1367 58.354 13.1367C58.6164 13.1367 58.8512 13.1071 59.0586 13.0479C59.266 12.9844 59.4458 12.8976 59.5981 12.7876C59.7251 12.6987 59.8351 12.5929 59.9282 12.4702C60.0256 12.3433 60.106 12.2057 60.1694 12.0576V7.13184H61.3501V14H60.2837ZM66.3457 5.46875V7.13184H68.9609V8.03955H66.3457V11.772C66.3457 12.0386 66.3796 12.2586 66.4473 12.4321C66.515 12.6056 66.6081 12.7432 66.7266 12.8447C66.8451 12.9505 66.9805 13.0246 67.1328 13.0669C67.2894 13.1092 67.4544 13.1304 67.6279 13.1304C67.7549 13.1304 67.8861 13.124 68.0215 13.1113C68.1569 13.0944 68.2902 13.0754 68.4214 13.0542C68.5483 13.033 68.6668 13.0119 68.7769 12.9907C68.8911 12.9653 68.9842 12.9442 69.0562 12.9272L69.2212 13.7588C69.1239 13.818 69.0054 13.8709 68.8657 13.9175C68.7261 13.9598 68.5737 13.9958 68.4087 14.0254C68.2437 14.0592 68.068 14.0846 67.8818 14.1016C67.6999 14.1185 67.5179 14.127 67.3359 14.127C67.0312 14.127 66.7456 14.0846 66.479 14C66.2166 13.9111 65.9881 13.7715 65.7935 13.5811C65.5988 13.3949 65.4443 13.1536 65.3301 12.8574C65.2201 12.557 65.165 12.1951 65.165 11.772V8.03955H63.3623V7.13184H65.165V5.46875H66.3457ZM74.4072 14.127C73.9248 14.127 73.4805 14.0444 73.0742 13.8794C72.6722 13.7144 72.3273 13.4837 72.0396 13.1875C71.7518 12.8913 71.5275 12.54 71.3667 12.1338C71.2059 11.7275 71.1255 11.2853 71.1255 10.8071V10.5405C71.1255 9.98617 71.2144 9.49105 71.3921 9.05518C71.5698 8.61507 71.8068 8.24268 72.103 7.93799C72.395 7.63753 72.7272 7.4069 73.0996 7.24609C73.4762 7.08529 73.8613 7.00488 74.2549 7.00488C74.75 7.00488 75.1816 7.09163 75.5498 7.26514C75.9222 7.43441 76.2311 7.66927 76.4766 7.96973C76.722 8.27441 76.904 8.632 77.0225 9.04248C77.1452 9.45296 77.2065 9.8973 77.2065 10.3755V10.9023H72.2998V10.9468C72.3294 11.2811 72.395 11.5752 72.4966 11.8291C72.6024 12.083 72.7463 12.3073 72.9282 12.502C73.1144 12.7093 73.3387 12.8722 73.6011 12.9907C73.8634 13.1092 74.1533 13.1685 74.4707 13.1685C74.8896 13.1685 75.262 13.0838 75.5879 12.9146C75.9137 12.7453 76.1846 12.521 76.4004 12.2417L77.1177 12.8003C76.8892 13.1473 76.5464 13.4562 76.0894 13.7271C75.6366 13.9937 75.0758 14.127 74.4072 14.127ZM74.2549 7.96973C74.0179 7.96973 73.7936 8.01416 73.582 8.10303C73.3704 8.18766 73.18 8.3125 73.0107 8.47754C72.8415 8.64681 72.6976 8.85417 72.5791 9.09961C72.4648 9.34082 72.3844 9.62012 72.3379 9.9375H76.0322V9.88037C76.0322 9.66878 75.992 9.44238 75.9116 9.20117C75.8312 8.95573 75.7191 8.74414 75.5752 8.56641C75.4313 8.38867 75.2493 8.24479 75.0293 8.13477C74.8135 8.02474 74.5553 7.96973 74.2549 7.96973ZM89.2544 14L86.3345 4.75781H87.5913L89.6226 11.6577L89.7559 12.1084L89.8955 11.645L91.9395 4.75781H93.1899L90.2764 14H89.2544ZM97.8301 14.127C97.3477 14.127 96.9033 14.0444 96.4971 13.8794C96.0951 13.7144 95.7502 13.4837 95.4624 13.1875C95.1746 12.8913 94.9504 12.54 94.7896 12.1338C94.6287 11.7275 94.5483 11.2853 94.5483 10.8071V10.5405C94.5483 9.98617 94.6372 9.49105 94.8149 9.05518C94.9927 8.61507 95.2297 8.24268 95.5259 7.93799C95.8179 7.63753 96.1501 7.4069 96.5225 7.24609C96.8991 7.08529 97.2842 7.00488 97.6777 7.00488C98.1729 7.00488 98.6045 7.09163 98.9727 7.26514C99.3451 7.43441 99.654 7.66927 99.8994 7.96973C100.145 8.27441 100.327 8.632 100.445 9.04248C100.568 9.45296 100.629 9.8973 100.629 10.3755V10.9023H95.7227V10.9468C95.7523 11.2811 95.8179 11.5752 95.9194 11.8291C96.0252 12.083 96.1691 12.3073 96.3511 12.502C96.5373 12.7093 96.7616 12.8722 97.0239 12.9907C97.2863 13.1092 97.5762 13.1685 97.8936 13.1685C98.3125 13.1685 98.6849 13.0838 99.0107 12.9146C99.3366 12.7453 99.6074 12.521 99.8232 12.2417L100.541 12.8003C100.312 13.1473 99.9692 13.4562 99.5122 13.7271C99.0594 13.9937 98.4987 14.127 97.8301 14.127ZM97.6777 7.96973C97.4408 7.96973 97.2165 8.01416 97.0049 8.10303C96.7933 8.18766 96.6029 8.3125 96.4336 8.47754C96.2643 8.64681 96.1204 8.85417 96.002 9.09961C95.8877 9.34082 95.8073 9.62012 95.7607 9.9375H99.4551V9.88037C99.4551 9.66878 99.4149 9.44238 99.3345 9.20117C99.2541 8.95573 99.1419 8.74414 98.998 8.56641C98.8542 8.38867 98.6722 8.24479 98.4521 8.13477C98.2363 8.02474 97.9782 7.96973 97.6777 7.96973ZM107.104 7.00488C107.32 7.00488 107.544 7.01969 107.777 7.04932C108.014 7.07894 108.192 7.11914 108.31 7.16992L108.151 8.31885C107.923 8.26807 107.705 8.2321 107.498 8.21094C107.294 8.18555 107.081 8.17285 106.856 8.17285C106.569 8.17285 106.308 8.20882 106.076 8.28076C105.843 8.34847 105.64 8.45003 105.466 8.58545C105.31 8.70394 105.172 8.84993 105.054 9.02344C104.939 9.19271 104.844 9.38314 104.768 9.59473V14H103.587V7.13184H104.705L104.755 8.05225L104.762 8.22363C105.041 7.84701 105.375 7.55078 105.765 7.33496C106.158 7.11491 106.605 7.00488 107.104 7.00488ZM113.191 5.46875V7.13184H115.807V8.03955H113.191V11.772C113.191 12.0386 113.225 12.2586 113.293 12.4321C113.361 12.6056 113.454 12.7432 113.572 12.8447C113.691 12.9505 113.826 13.0246 113.979 13.0669C114.135 13.1092 114.3 13.1304 114.474 13.1304C114.601 13.1304 114.732 13.124 114.867 13.1113C115.003 13.0944 115.136 13.0754 115.267 13.0542C115.394 13.033 115.513 13.0119 115.623 12.9907C115.737 12.9653 115.83 12.9442 115.902 12.9272L116.067 13.7588C115.97 13.818 115.851 13.8709 115.711 13.9175C115.572 13.9598 115.419 13.9958 115.254 14.0254C115.089 14.0592 114.914 14.0846 114.728 14.1016C114.546 14.1185 114.364 14.127 114.182 14.127C113.877 14.127 113.591 14.0846 113.325 14C113.062 13.9111 112.834 13.7715 112.639 13.5811C112.444 13.3949 112.29 13.1536 112.176 12.8574C112.066 12.557 112.011 12.1951 112.011 11.772V8.03955H110.208V7.13184H112.011V5.46875H113.191ZM118.403 7.13184H121.913V12.9844H124.154V14H118.403V12.9844H120.739V8.15381H118.403V7.13184ZM120.586 5.3291C120.586 5.22754 120.601 5.13232 120.631 5.04346C120.665 4.95459 120.715 4.87842 120.783 4.81494C120.838 4.75993 120.908 4.71761 120.993 4.68799C121.082 4.65413 121.181 4.63721 121.291 4.63721C121.401 4.63721 121.498 4.65413 121.583 4.68799C121.668 4.71761 121.737 4.75993 121.792 4.81494C121.86 4.87419 121.911 4.94824 121.945 5.03711C121.979 5.12598 121.996 5.22331 121.996 5.3291C121.996 5.51953 121.936 5.67822 121.818 5.80518C121.699 5.93213 121.524 5.99561 121.291 5.99561C121.054 5.99561 120.876 5.93213 120.758 5.80518C120.644 5.67822 120.586 5.51953 120.586 5.3291ZM128.953 13.1748C129.164 13.1748 129.369 13.141 129.568 13.0732C129.771 13.0055 129.951 12.9103 130.108 12.7876C130.264 12.6691 130.389 12.5295 130.482 12.3687C130.58 12.2036 130.631 12.0259 130.635 11.8354H131.746C131.741 12.1401 131.661 12.4321 131.504 12.7114C131.352 12.9865 131.147 13.2277 130.889 13.4351C130.631 13.6466 130.334 13.8159 130 13.9429C129.666 14.0656 129.317 14.127 128.953 14.127C128.432 14.127 127.977 14.0339 127.588 13.8477C127.199 13.6615 126.875 13.4097 126.617 13.0923C126.354 12.7791 126.158 12.4173 126.026 12.0068C125.895 11.5921 125.83 11.1562 125.83 10.6992V10.4326C125.83 9.97982 125.895 9.54606 126.026 9.13135C126.158 8.71663 126.354 8.35059 126.617 8.0332C126.875 7.72005 127.199 7.47038 127.588 7.28418C127.977 7.09798 128.432 7.00488 128.953 7.00488C129.359 7.00488 129.731 7.07048 130.07 7.20166C130.413 7.32861 130.709 7.50212 130.958 7.72217C131.204 7.94645 131.396 8.21094 131.536 8.51562C131.676 8.82031 131.746 9.14616 131.746 9.49316H130.635C130.631 9.28581 130.584 9.09115 130.495 8.90918C130.41 8.72298 130.294 8.56006 130.146 8.42041C129.998 8.28076 129.82 8.17074 129.613 8.09033C129.41 8.00993 129.19 7.96973 128.953 7.96973C128.589 7.96973 128.282 8.04378 128.032 8.19189C127.787 8.33577 127.588 8.52409 127.436 8.75684C127.283 8.99382 127.173 9.2583 127.105 9.55029C127.042 9.84229 127.01 10.1364 127.01 10.4326V10.6992C127.01 10.9997 127.042 11.298 127.105 11.5942C127.173 11.8862 127.283 12.1486 127.436 12.3813C127.584 12.6183 127.78 12.8109 128.026 12.959C128.276 13.1029 128.584 13.1748 128.953 13.1748ZM138.347 14C138.301 13.9111 138.263 13.8011 138.233 13.6699C138.208 13.5345 138.188 13.3949 138.176 13.251C138.057 13.3695 137.924 13.4816 137.776 13.5874C137.632 13.6932 137.473 13.7863 137.3 13.8667C137.122 13.9471 136.934 14.0106 136.735 14.0571C136.536 14.1037 136.324 14.127 136.1 14.127C135.736 14.127 135.406 14.0741 135.11 13.9683C134.818 13.8625 134.57 13.7186 134.367 13.5366C134.16 13.3589 133.999 13.1473 133.885 12.9019C133.775 12.6522 133.72 12.3835 133.72 12.0957C133.72 11.7191 133.794 11.389 133.942 11.1055C134.094 10.8219 134.308 10.585 134.583 10.3945C134.858 10.2083 135.188 10.0687 135.573 9.97559C135.963 9.88249 136.396 9.83594 136.875 9.83594H138.157V9.29639C138.157 9.08903 138.119 8.90283 138.042 8.73779C137.966 8.57275 137.858 8.43099 137.719 8.3125C137.579 8.19824 137.408 8.10938 137.205 8.0459C137.006 7.98242 136.781 7.95068 136.532 7.95068C136.299 7.95068 136.09 7.98031 135.903 8.03955C135.721 8.0988 135.567 8.17708 135.44 8.27441C135.313 8.37174 135.214 8.48812 135.142 8.62354C135.074 8.75472 135.04 8.89225 135.04 9.03613H133.859C133.864 8.78646 133.927 8.54102 134.05 8.2998C134.177 8.05859 134.359 7.84066 134.596 7.646C134.828 7.45557 135.112 7.30111 135.446 7.18262C135.785 7.06413 136.168 7.00488 136.595 7.00488C136.985 7.00488 137.346 7.05355 137.681 7.15088C138.015 7.24398 138.305 7.38574 138.55 7.57617C138.792 7.77083 138.982 8.01204 139.122 8.2998C139.261 8.58757 139.331 8.92399 139.331 9.30908V12.502C139.331 12.7305 139.352 12.9738 139.395 13.2319C139.437 13.4858 139.496 13.708 139.572 13.8984V14H138.347ZM136.271 13.105C136.5 13.105 136.714 13.0754 136.913 13.0161C137.111 12.9569 137.293 12.8786 137.458 12.7812C137.619 12.6839 137.759 12.5739 137.877 12.4512C137.996 12.3242 138.089 12.193 138.157 12.0576V10.6675H137.065C136.659 10.6675 136.303 10.7035 135.999 10.7754C135.698 10.8431 135.459 10.9489 135.281 11.0928C135.154 11.1943 135.057 11.3149 134.989 11.4546C134.926 11.5942 134.894 11.7529 134.894 11.9307C134.894 12.0999 134.922 12.2565 134.977 12.4004C135.036 12.5443 135.123 12.667 135.237 12.7686C135.351 12.8743 135.495 12.9569 135.668 13.0161C135.842 13.0754 136.043 13.105 136.271 13.105ZM141.826 4.25H145.336V12.9844H147.577V14H141.826V12.9844H144.162V5.27197H141.826V4.25Z" fill="#696C80"/>
</svg>
