<svg width="160" height="98" viewBox="0 0 160 98" fill="none" xmlns="http://www.w3.org/2000/svg">
<path d="M6.18896 9.72803H2.32959V13.0034H6.83008V14H1.15527V4.75781H6.77295V5.76074H2.32959V8.73145H6.18896V9.72803ZM8.68994 10.5088C8.68994 9.99674 8.75342 9.52702 8.88037 9.09961C9.01156 8.66797 9.19775 8.29769 9.43896 7.98877C9.67594 7.67985 9.9637 7.43864 10.3022 7.26514C10.6408 7.09163 11.0195 7.00488 11.4385 7.00488C11.849 7.00488 12.2065 7.07471 12.5112 7.21436C12.8201 7.34977 13.0868 7.54867 13.311 7.81104V4.25H14.4854V14H13.4062L13.3555 13.2764C13.127 13.5557 12.854 13.7673 12.5366 13.9111C12.2192 14.055 11.849 14.127 11.4258 14.127C11.0111 14.127 10.6344 14.0381 10.2959 13.8604C9.96159 13.6826 9.67594 13.4372 9.43896 13.124C9.20199 12.8109 9.0179 12.4427 8.88672 12.0195C8.75553 11.5921 8.68994 11.133 8.68994 10.6421V10.5088ZM9.86426 10.6421C9.86426 10.9764 9.90023 11.2938 9.97217 11.5942C10.0441 11.8947 10.1562 12.1592 10.3086 12.3877C10.4567 12.6162 10.6471 12.7982 10.8799 12.9336C11.1126 13.0648 11.3919 13.1304 11.7178 13.1304C12.1113 13.1304 12.4372 13.0415 12.6953 12.8638C12.9535 12.686 13.1587 12.4469 13.311 12.1465V8.95996C13.1587 8.68066 12.9535 8.45215 12.6953 8.27441C12.4372 8.09245 12.1156 8.00146 11.7305 8.00146C11.4004 8.00146 11.1169 8.06917 10.8799 8.20459C10.6471 8.34001 10.4567 8.52197 10.3086 8.75049C10.1562 8.98324 10.0441 9.25195 9.97217 9.55664C9.90023 9.8571 9.86426 10.1745 9.86426 10.5088V10.6421ZM16.9038 7.13184H20.4141V12.9844H22.6548V14H16.9038V12.9844H19.2397V8.15381H16.9038V7.13184ZM19.0874 5.3291C19.0874 5.22754 19.1022 5.13232 19.1318 5.04346C19.1657 4.95459 19.2165 4.87842 19.2842 4.81494C19.3392 4.75993 19.409 4.71761 19.4937 4.68799C19.5825 4.65413 19.682 4.63721 19.792 4.63721C19.902 4.63721 19.9993 4.65413 20.084 4.68799C20.1686 4.71761 20.2384 4.75993 20.2935 4.81494C20.3612 4.87419 20.4119 4.94824 20.4458 5.03711C20.4797 5.12598 20.4966 5.22331 20.4966 5.3291C20.4966 5.51953 20.4373 5.67822 20.3188 5.80518C20.2004 5.93213 20.0247 5.99561 19.792 5.99561C19.555 5.99561 19.3773 5.93213 19.2588 5.80518C19.1445 5.67822 19.0874 5.51953 19.0874 5.3291ZM27.3076 5.46875V7.13184H29.9229V8.03955H27.3076V11.772C27.3076 12.0386 27.3415 12.2586 27.4092 12.4321C27.4769 12.6056 27.57 12.7432 27.6885 12.8447C27.807 12.9505 27.9424 13.0246 28.0947 13.0669C28.2513 13.1092 28.4163 13.1304 28.5898 13.1304C28.7168 13.1304 28.848 13.124 28.9834 13.1113C29.1188 13.0944 29.2521 13.0754 29.3833 13.0542C29.5103 13.033 29.6287 13.0119 29.7388 12.9907C29.853 12.9653 29.9461 12.9442 30.0181 12.9272L30.1831 13.7588C30.0858 13.818 29.9673 13.8709 29.8276 13.9175C29.688 13.9598 29.5356 13.9958 29.3706 14.0254C29.2056 14.0592 29.0299 14.0846 28.8438 14.1016C28.6618 14.1185 28.4798 14.127 28.2979 14.127C27.9932 14.127 27.7075 14.0846 27.4409 14C27.1785 13.9111 26.95 13.7715 26.7554 13.5811C26.5607 13.3949 26.4062 13.1536 26.292 12.8574C26.182 12.557 26.127 12.1951 26.127 11.772V8.03955H24.3242V7.13184H26.127V5.46875H27.3076ZM45.9443 10.4644C45.9443 11.0526 45.8766 11.5752 45.7412 12.0322C45.6058 12.485 45.4111 12.8659 45.1572 13.1748C44.9033 13.488 44.5923 13.7249 44.2241 13.8857C43.856 14.0465 43.4349 14.127 42.9609 14.127C42.4912 14.127 42.0701 14.0487 41.6978 13.8921C41.3254 13.7313 41.0101 13.4922 40.752 13.1748C40.4938 12.8659 40.297 12.485 40.1616 12.0322C40.0262 11.5752 39.9585 11.0526 39.9585 10.4644V8.2998C39.9585 7.71159 40.0262 7.19108 40.1616 6.73828C40.297 6.28125 40.4938 5.89616 40.752 5.58301C41.0059 5.26986 41.3169 5.03288 41.6851 4.87207C42.0575 4.70703 42.4785 4.62451 42.9482 4.62451C43.4222 4.62451 43.8433 4.70703 44.2114 4.87207C44.5838 5.03288 44.8991 5.26986 45.1572 5.58301C45.4111 5.89616 45.6058 6.28125 45.7412 6.73828C45.8766 7.19108 45.9443 7.71159 45.9443 8.2998V10.4644ZM41.1392 10.2295L44.7383 7.46826C44.7044 7.16357 44.6431 6.89486 44.5542 6.66211C44.4696 6.42513 44.3532 6.22835 44.2051 6.07178C44.0612 5.91097 43.8835 5.79036 43.6719 5.70996C43.4645 5.62956 43.2233 5.58936 42.9482 5.58936C42.6689 5.58936 42.4214 5.63379 42.2056 5.72266C41.994 5.80729 41.8141 5.93213 41.666 6.09717C41.4883 6.30452 41.355 6.57324 41.2661 6.90332C41.1815 7.22917 41.1392 7.60791 41.1392 8.03955V9.58838C41.1392 9.69417 41.1392 9.79997 41.1392 9.90576C41.1392 10.0116 41.1392 10.1195 41.1392 10.2295ZM44.7637 10.7119V9.4043C44.7637 9.34082 44.7637 9.22021 44.7637 9.04248C44.7637 8.86051 44.7637 8.71029 44.7637 8.5918L41.1709 11.3403C41.209 11.6493 41.2767 11.9222 41.374 12.1592C41.4714 12.3919 41.5983 12.5845 41.7549 12.7368C41.8988 12.8807 42.0723 12.9907 42.2754 13.0669C42.4785 13.1388 42.707 13.1748 42.9609 13.1748C43.2275 13.1748 43.4645 13.1346 43.6719 13.0542C43.8792 12.9738 44.0549 12.8574 44.1987 12.7051C44.3934 12.4977 44.5352 12.2269 44.624 11.8926C44.7171 11.5583 44.7637 11.1647 44.7637 10.7119ZM53.6187 14H47.563V13.1558L50.5908 9.7915C50.8617 9.49105 51.0881 9.22445 51.27 8.9917C51.452 8.75895 51.598 8.54313 51.708 8.34424C51.818 8.14958 51.8963 7.96549 51.9429 7.79199C51.9894 7.61426 52.0127 7.43229 52.0127 7.24609C52.0127 7.01758 51.9746 6.80387 51.8984 6.60498C51.8265 6.40186 51.7207 6.22624 51.5811 6.07812C51.4372 5.93001 51.2637 5.81364 51.0605 5.729C50.8617 5.64014 50.6353 5.5957 50.3813 5.5957C50.0724 5.5957 49.8037 5.64014 49.5752 5.729C49.3509 5.81787 49.1647 5.94271 49.0166 6.10352C48.8643 6.26855 48.75 6.46745 48.6738 6.7002C48.6019 6.93294 48.5659 7.1932 48.5659 7.48096H47.3853C47.3853 7.09163 47.453 6.72559 47.5884 6.38281C47.7238 6.03581 47.9206 5.73324 48.1787 5.4751C48.4326 5.21696 48.7437 5.01172 49.1118 4.85938C49.4842 4.70703 49.9074 4.63086 50.3813 4.63086C50.8172 4.63086 51.2087 4.69645 51.5557 4.82764C51.9069 4.95459 52.2031 5.13232 52.4443 5.36084C52.6855 5.58936 52.8696 5.86019 52.9966 6.17334C53.1278 6.48649 53.1934 6.82715 53.1934 7.19531C53.1934 7.47038 53.1468 7.74333 53.0537 8.01416C52.9606 8.28076 52.8358 8.54525 52.6792 8.80762C52.5184 9.06999 52.3322 9.33024 52.1206 9.58838C51.9132 9.84229 51.6932 10.0962 51.4604 10.3501L48.9785 13.0415H53.6187V14Z" fill="#696C80"/>
<rect x="0.5" y="34.5" width="159" height="63" rx="4.5" stroke="#9747FF" stroke-dasharray="10 5"/>
<path d="M120 75C120 74.4477 120.448 74 121 74H135C135.552 74 136 74.4477 136 75C136 75.5523 135.552 76 135 76H121C120.448 76 120 75.5523 120 75Z" fill="#12131A"/>
<path d="M133.951 56.8767C132.78 55.7052 130.88 55.7052 129.709 56.8767L121.886 64.6996C121.703 64.8824 121.57 65.1094 121.501 65.3585L120.044 70.6013C119.815 71.4259 120.574 72.1849 121.398 71.9557L126.641 70.4983C126.89 70.4291 127.117 70.2966 127.3 70.1138L135.123 62.291C136.294 61.1194 136.294 59.2199 135.123 58.0483L133.951 56.8767Z" fill="#BABDCC"/>
<path d="M72 75C72 74.4477 72.4477 74 73 74H87C87.5523 74 88 74.4477 88 75C88 75.5523 87.5523 76 87 76H73C72.4477 76 72 75.5523 72 75Z" fill="#12131A"/>
<path d="M85.9513 56.8767C84.7798 55.7052 82.8803 55.7052 81.7087 56.8767L73.8858 64.6996C73.7029 64.8824 73.5705 65.1094 73.5012 65.3585L72.0438 70.6013C71.8146 71.4259 72.5736 72.1849 73.3983 71.9557L78.641 70.4983C78.8902 70.4291 79.1171 70.2966 79.3 70.1138L87.1229 62.291C88.2945 61.1194 88.2945 59.2199 87.1229 58.0483L85.9513 56.8767Z" fill="#12131A"/>
<path d="M24 75C24 74.4477 24.4477 74 25 74H39C39.5523 74 40 74.4477 40 75C40 75.5523 39.5523 76 39 76H25C24.4477 76 24 75.5523 24 75Z" fill="#12131A"/>
<path fill-rule="evenodd" clip-rule="evenodd" d="M36.6543 58.5883C35.8733 57.8073 34.6069 57.8073 33.8259 58.5883L26.9198 65.4944L26.002 69.9981L30.5056 69.0802L37.4117 62.1741C38.1927 61.3931 38.1927 60.1268 37.4117 59.3457L36.6543 58.5883ZM32.4117 57.1741C33.9738 55.612 36.5064 55.612 38.0685 57.1741L38.8259 57.9315C40.388 59.4936 40.388 62.0263 38.8259 63.5884L31.9198 70.4944C31.6423 70.7718 31.2894 70.9615 30.905 71.0399L26.4014 71.9578C24.9969 72.2441 23.756 71.0033 24.0423 69.5987L24.9601 65.095C25.0384 64.7106 25.2281 64.3576 25.5056 64.0802L32.4117 57.1741Z" fill="#12131A"/>
</svg>
