<svg width="160" height="98" viewBox="0 0 160 98" fill="none" xmlns="http://www.w3.org/2000/svg">
<rect x="0.5" y="34.5" width="159" height="63" rx="4.5" stroke="#9747FF" stroke-dasharray="10 5"/>
<path d="M120 60.8C120 59.1198 120 58.2798 120.327 57.638C120.615 57.0735 121.074 56.6146 121.638 56.327C122.28 56 123.12 56 124.8 56H130.675C131.164 56 131.408 56 131.638 56.0553C131.843 56.1043 132.038 56.1851 132.217 56.2947C132.418 56.4184 132.591 56.5914 132.937 56.9373L135.063 59.0627C135.409 59.4086 135.582 59.5816 135.705 59.7834C135.815 59.9624 135.896 60.1575 135.945 60.3615C136 60.5917 136 60.8363 136 61.3255V71.2C136 72.8802 136 73.7202 135.673 74.362C135.385 74.9265 134.926 75.3854 134.362 75.673C133.72 76 132.88 76 131.2 76H124.8C123.12 76 122.28 76 121.638 75.673C121.074 75.3854 120.615 74.9265 120.327 74.362C120 73.7202 120 72.8802 120 71.2V60.8Z" fill="#BABDCC"/>
<path fill-rule="evenodd" clip-rule="evenodd" d="M125 68C125 67.4477 125.448 67 126 67H130C130.552 67 131 67.4477 131 68C131 68.5523 130.552 69 130 69H126C125.448 69 125 68.5523 125 68Z" fill="#12131A"/>
<path d="M130 57.4142C130 56.6332 130.633 56 131.414 56C131.789 56 132.149 56.149 132.414 56.4142L135.586 59.5858C135.851 59.851 136 60.2107 136 60.5858C136 61.3668 135.367 62 134.586 62H132C130.895 62 130 61.1046 130 60V57.4142Z" fill="#12131A"/>
<path fill-rule="evenodd" clip-rule="evenodd" d="M72 60.8C72 59.1198 72 58.2798 72.327 57.638C72.6146 57.0735 73.0735 56.6146 73.638 56.327C74.2798 56 75.1198 56 76.8 56H80.2C80.48 56 80.62 56 80.727 56.0545C80.8211 56.1024 80.8976 56.1789 80.9455 56.273C81 56.38 81 56.52 81 56.8V59C81 61.2091 82.7909 63 85 63H87.2C87.48 63 87.62 63 87.727 63.0545C87.8211 63.1024 87.8976 63.1789 87.9455 63.273C88 63.38 88 63.52 88 63.8V71.2C88 72.8802 88 73.7202 87.673 74.362C87.3854 74.9265 86.9265 75.3854 86.362 75.673C85.7202 76 84.8802 76 83.2 76H76.8C75.1198 76 74.2798 76 73.638 75.673C73.0735 75.3854 72.6146 74.9265 72.327 74.362C72 73.7202 72 72.8802 72 71.2V60.8ZM78 67C77.4477 67 77 67.4477 77 68C77 68.5523 77.4477 69 78 69H82C82.5523 69 83 68.5523 83 68C83 67.4477 82.5523 67 82 67H78Z" fill="#12131A"/>
<path d="M83 56.7071C83 56.3166 83.3166 56 83.7071 56C83.8946 56 84.0745 56.0745 84.2071 56.2071L87.7929 59.7929C87.9255 59.9255 88 60.1054 88 60.2929C88 60.6834 87.6834 61 87.2929 61H85C83.8954 61 83 60.1046 83 59V56.7071Z" fill="#12131A"/>
<path fill-rule="evenodd" clip-rule="evenodd" d="M34.6911 56.1105C34.2284 55.9994 33.7487 55.9997 33.1137 56L29.7587 56C28.9537 56 28.2894 56 27.7482 56.0442C27.1861 56.0901 26.6694 56.1887 26.184 56.436C25.4314 56.8195 24.8195 57.4314 24.436 58.184C24.1887 58.6694 24.0901 59.1861 24.0442 59.7482C24 60.2894 24 60.9537 24 61.7587V70.2413C24 71.0463 24 71.7106 24.0442 72.2518C24.0901 72.8139 24.1887 73.3306 24.436 73.816C24.8195 74.5686 25.4314 75.1805 26.184 75.564C26.6694 75.8113 27.1861 75.9099 27.7482 75.9558C28.2894 76 28.9537 76 29.7587 76H34.2413C35.0463 76 35.7106 76 36.2518 75.9558C36.8139 75.9099 37.3306 75.8113 37.816 75.564C38.5686 75.1805 39.1805 74.5686 39.564 73.816C39.8113 73.3306 39.9099 72.8139 39.9558 72.2518C40 71.7106 40 71.0463 40 70.2413L40 62.8863C40.0003 62.2514 40.0006 61.7715 39.8895 61.3089C39.7915 60.9007 39.6299 60.5105 39.4106 60.1526C39.1619 59.7469 38.8225 59.4078 38.3733 58.959L37.041 57.6267C36.5922 57.1775 36.2531 56.8381 35.8474 56.5894C35.4895 56.3701 35.0993 56.2085 34.6911 56.1105ZM33 58H29.8C28.9434 58 28.3611 58.0008 27.911 58.0376C27.4726 58.0734 27.2484 58.1383 27.092 58.218C26.7157 58.4097 26.4097 58.7157 26.218 59.092C26.1383 59.2484 26.0734 59.4726 26.0376 59.911C26.0008 60.3611 26 60.9434 26 61.8V70.2C26 71.0566 26.0008 71.6389 26.0376 72.089C26.0734 72.5274 26.1383 72.7516 26.218 72.908C26.4097 73.2843 26.7157 73.5903 27.092 73.782C27.2484 73.8617 27.4726 73.9266 27.911 73.9625C28.3611 73.9992 28.9434 74 29.8 74H34.2C35.0566 74 35.6389 73.9992 36.089 73.9625C36.5274 73.9266 36.7516 73.8617 36.908 73.782C37.2843 73.5903 37.5903 73.2843 37.782 72.908C37.8617 72.7516 37.9266 72.5274 37.9624 72.089C37.9992 71.6389 38 71.0566 38 70.2V63H36C34.3431 63 33 61.6569 33 60V58ZM37.56 61C37.4398 60.8579 37.2479 60.6621 36.887 60.3012L35.6988 59.113C35.3379 58.7521 35.1421 58.5602 35 58.44V60C35 60.5523 35.4477 61 36 61H37.56Z" fill="#12131A"/>
<path fill-rule="evenodd" clip-rule="evenodd" d="M29 68C29 67.4477 29.4477 67 30 67H34C34.5523 67 35 67.4477 35 68C35 68.5523 34.5523 69 34 69H30C29.4477 69 29 68.5523 29 68Z" fill="#12131A"/>
<path d="M6.24609 9.91846H2.39941V14H1.2124V4.75781H6.88721V5.76074H2.39941V8.92188H6.24609V9.91846ZM9.09619 7.13184H12.6064V12.9844H14.8472V14H9.09619V12.9844H11.4321V8.15381H9.09619V7.13184ZM11.2798 5.3291C11.2798 5.22754 11.2946 5.13232 11.3242 5.04346C11.3581 4.95459 11.4089 4.87842 11.4766 4.81494C11.5316 4.75993 11.6014 4.71761 11.686 4.68799C11.7749 4.65413 11.8743 4.63721 11.9844 4.63721C12.0944 4.63721 12.1917 4.65413 12.2764 4.68799C12.361 4.71761 12.4308 4.75993 12.4858 4.81494C12.5535 4.87419 12.6043 4.94824 12.6382 5.03711C12.672 5.12598 12.689 5.22331 12.689 5.3291C12.689 5.51953 12.6297 5.67822 12.5112 5.80518C12.3927 5.93213 12.2171 5.99561 11.9844 5.99561C11.7474 5.99561 11.5697 5.93213 11.4512 5.80518C11.3369 5.67822 11.2798 5.51953 11.2798 5.3291ZM16.9038 4.25H20.4141V12.9844H22.6548V14H16.9038V12.9844H19.2397V5.27197H16.9038V4.25ZM27.5615 14.127C27.0791 14.127 26.6348 14.0444 26.2285 13.8794C25.8265 13.7144 25.4816 13.4837 25.1938 13.1875C24.9061 12.8913 24.6818 12.54 24.521 12.1338C24.3602 11.7275 24.2798 11.2853 24.2798 10.8071V10.5405C24.2798 9.98617 24.3687 9.49105 24.5464 9.05518C24.7241 8.61507 24.9611 8.24268 25.2573 7.93799C25.5493 7.63753 25.8815 7.4069 26.2539 7.24609C26.6305 7.08529 27.0156 7.00488 27.4092 7.00488C27.9043 7.00488 28.3359 7.09163 28.7041 7.26514C29.0765 7.43441 29.3854 7.66927 29.6309 7.96973C29.8763 8.27441 30.0583 8.632 30.1768 9.04248C30.2995 9.45296 30.3608 9.8973 30.3608 10.3755V10.9023H25.4541V10.9468C25.4837 11.2811 25.5493 11.5752 25.6509 11.8291C25.7567 12.083 25.9006 12.3073 26.0825 12.502C26.2687 12.7093 26.493 12.8722 26.7554 12.9907C27.0177 13.1092 27.3076 13.1685 27.625 13.1685C28.0439 13.1685 28.4163 13.0838 28.7422 12.9146C29.068 12.7453 29.3389 12.521 29.5547 12.2417L30.272 12.8003C30.0435 13.1473 29.7007 13.4562 29.2437 13.7271C28.7909 13.9937 28.2301 14.127 27.5615 14.127ZM27.4092 7.96973C27.1722 7.96973 26.9479 8.01416 26.7363 8.10303C26.5247 8.18766 26.3343 8.3125 26.165 8.47754C25.9958 8.64681 25.8519 8.85417 25.7334 9.09961C25.6191 9.34082 25.5387 9.62012 25.4922 9.9375H29.1865V9.88037C29.1865 9.66878 29.1463 9.44238 29.0659 9.20117C28.9855 8.95573 28.8734 8.74414 28.7295 8.56641C28.5856 8.38867 28.4036 8.24479 28.1836 8.13477C27.9678 8.02474 27.7096 7.96973 27.4092 7.96973ZM44.9795 11.6641C44.9795 11.3805 44.9139 11.1414 44.7827 10.9468C44.6558 10.7521 44.4907 10.5871 44.2876 10.4517C44.0845 10.3205 43.8602 10.2104 43.6147 10.1216C43.3735 10.0327 43.1408 9.95231 42.9165 9.88037C42.5907 9.77458 42.2585 9.64762 41.9199 9.49951C41.5856 9.34717 41.2809 9.1652 41.0059 8.95361C40.7266 8.73779 40.498 8.48389 40.3203 8.19189C40.1468 7.89567 40.0601 7.54867 40.0601 7.15088C40.0601 6.75309 40.1468 6.39762 40.3203 6.08447C40.498 5.77132 40.7287 5.50684 41.0122 5.29102C41.2957 5.0752 41.6174 4.91227 41.9771 4.80225C42.3368 4.68799 42.6986 4.63086 43.0625 4.63086C43.4645 4.63086 43.8517 4.69857 44.2241 4.83398C44.5965 4.96517 44.9266 5.15137 45.2144 5.39258C45.5021 5.63379 45.7327 5.92578 45.9062 6.26855C46.0798 6.61133 46.1707 6.9943 46.1792 7.41748H44.9731C44.9393 7.15088 44.8737 6.90967 44.7764 6.69385C44.679 6.4738 44.55 6.28548 44.3892 6.12891C44.2284 5.97233 44.0358 5.85173 43.8115 5.76709C43.5915 5.67822 43.3418 5.63379 43.0625 5.63379C42.8382 5.63379 42.6182 5.66553 42.4023 5.729C42.1908 5.79248 42.0024 5.8877 41.8374 6.01465C41.6681 6.1416 41.5327 6.29818 41.4312 6.48438C41.3338 6.67057 41.2852 6.88639 41.2852 7.13184C41.2894 7.39844 41.3571 7.62484 41.4883 7.81104C41.6195 7.993 41.7866 8.14746 41.9897 8.27441C42.1886 8.40137 42.4045 8.50716 42.6372 8.5918C42.8742 8.67643 43.0964 8.75049 43.3037 8.81396C43.6465 8.91976 43.9893 9.04883 44.332 9.20117C44.6748 9.34928 44.988 9.53971 45.2715 9.77246C45.5508 9.98828 45.7751 10.2528 45.9443 10.5659C46.1178 10.8791 46.2046 11.2409 46.2046 11.6514C46.2046 12.0661 46.1115 12.4279 45.9253 12.7368C45.7433 13.0457 45.5063 13.3018 45.2144 13.5049C44.9224 13.7122 44.5923 13.8688 44.2241 13.9746C43.856 14.0762 43.4878 14.127 43.1196 14.127C42.6795 14.127 42.2458 14.0529 41.8184 13.9048C41.3952 13.7567 41.027 13.543 40.7139 13.2637C40.4346 13.0225 40.2124 12.741 40.0474 12.4194C39.8866 12.0936 39.7998 11.7318 39.7871 11.334H40.9868C41.0249 11.6217 41.1032 11.8778 41.2217 12.1021C41.3402 12.3221 41.4925 12.5083 41.6787 12.6606C41.8649 12.8172 42.0786 12.9357 42.3198 13.0161C42.5653 13.0923 42.8319 13.1304 43.1196 13.1304C43.3481 13.1304 43.5724 13.1029 43.7925 13.0479C44.0168 12.9886 44.2157 12.8976 44.3892 12.7749C44.5627 12.6564 44.7044 12.5062 44.8145 12.3242C44.9245 12.138 44.9795 11.918 44.9795 11.6641ZM52.4761 14L52.4062 13.0542C52.1777 13.3927 51.8921 13.6572 51.5493 13.8477C51.2065 14.0339 50.8109 14.127 50.3623 14.127C50.0026 14.127 49.6768 14.0719 49.3848 13.9619C49.0928 13.8477 48.8431 13.672 48.6357 13.4351C48.4284 13.1981 48.2676 12.8976 48.1533 12.5337C48.0433 12.1655 47.9883 11.7254 47.9883 11.2134V7.13184H49.1626V11.2261C49.1626 11.5985 49.1922 11.9074 49.2515 12.1528C49.3107 12.3983 49.3996 12.5929 49.5181 12.7368C49.6366 12.8849 49.7804 12.9886 49.9497 13.0479C50.1232 13.1071 50.3221 13.1367 50.5464 13.1367C50.8088 13.1367 51.0436 13.1071 51.251 13.0479C51.4583 12.9844 51.6382 12.8976 51.7905 12.7876C51.9175 12.6987 52.0275 12.5929 52.1206 12.4702C52.2179 12.3433 52.2983 12.2057 52.3618 12.0576V7.13184H53.5425V14H52.4761ZM61.5786 10.6421C61.5786 10.9425 61.5553 11.2324 61.5088 11.5117C61.4665 11.7868 61.403 12.0449 61.3184 12.2861C61.2041 12.6035 61.0539 12.8892 60.8677 13.1431C60.6857 13.3927 60.4657 13.6001 60.2075 13.7651C60.0213 13.8794 59.8161 13.9683 59.5918 14.0317C59.3717 14.0952 59.1326 14.127 58.8745 14.127C58.5783 14.127 58.3075 14.091 58.062 14.019C57.8208 13.9471 57.6029 13.8434 57.4082 13.708C57.3151 13.6403 57.2262 13.5662 57.1416 13.4858C57.057 13.4054 56.9766 13.3166 56.9004 13.2192L56.8433 14H55.7642V4.25H56.9385V7.86816C57.0358 7.74544 57.1437 7.63542 57.2622 7.53809C57.3807 7.43652 57.5076 7.34977 57.6431 7.27783C57.8123 7.18896 57.9985 7.12126 58.2017 7.07471C58.4048 7.02816 58.6248 7.00488 58.8618 7.00488C59.158 7.00488 59.431 7.04508 59.6807 7.12549C59.9303 7.20589 60.1567 7.31803 60.3599 7.46191C60.5418 7.59733 60.7048 7.76237 60.8486 7.95703C60.9925 8.14746 61.1195 8.36117 61.2295 8.59814C61.3438 8.86475 61.4305 9.16097 61.4897 9.48682C61.549 9.80843 61.5786 10.1491 61.5786 10.5088V10.6421ZM60.4043 10.5088C60.4043 10.293 60.3895 10.0835 60.3599 9.88037C60.3345 9.67301 60.2943 9.47835 60.2393 9.29639C60.1631 9.0721 60.0636 8.86686 59.9409 8.68066C59.8182 8.49447 59.668 8.34847 59.4902 8.24268C59.3675 8.1665 59.23 8.10726 59.0776 8.06494C58.9253 8.02262 58.756 8.00146 58.5698 8.00146C58.3667 8.00146 58.1805 8.02897 58.0112 8.08398C57.842 8.13477 57.6917 8.20671 57.5605 8.2998C57.4251 8.39714 57.3045 8.51139 57.1987 8.64258C57.0972 8.76953 57.0104 8.90918 56.9385 9.06152V12.064C57.0146 12.2163 57.1035 12.3581 57.2051 12.4893C57.3109 12.6162 57.4315 12.7284 57.5669 12.8257C57.7023 12.923 57.8547 12.9992 58.0239 13.0542C58.1932 13.105 58.3794 13.1304 58.5825 13.1304C58.7772 13.1304 58.9549 13.1071 59.1157 13.0605C59.2765 13.0098 59.4204 12.9378 59.5474 12.8447C59.7166 12.7262 59.8584 12.576 59.9727 12.394C60.0869 12.2121 60.1779 12.009 60.2456 11.7847C60.3006 11.6154 60.3408 11.4334 60.3662 11.2388C60.3916 11.0441 60.4043 10.8452 60.4043 10.6421V10.5088ZM66.3457 5.46875V7.13184H68.9609V8.03955H66.3457V11.772C66.3457 12.0386 66.3796 12.2586 66.4473 12.4321C66.515 12.6056 66.6081 12.7432 66.7266 12.8447C66.8451 12.9505 66.9805 13.0246 67.1328 13.0669C67.2894 13.1092 67.4544 13.1304 67.6279 13.1304C67.7549 13.1304 67.8861 13.124 68.0215 13.1113C68.1569 13.0944 68.2902 13.0754 68.4214 13.0542C68.5483 13.033 68.6668 13.0119 68.7769 12.9907C68.8911 12.9653 68.9842 12.9442 69.0562 12.9272L69.2212 13.7588C69.1239 13.818 69.0054 13.8709 68.8657 13.9175C68.7261 13.9598 68.5737 13.9958 68.4087 14.0254C68.2437 14.0592 68.068 14.0846 67.8818 14.1016C67.6999 14.1185 67.5179 14.127 67.3359 14.127C67.0312 14.127 66.7456 14.0846 66.479 14C66.2166 13.9111 65.9881 13.7715 65.7935 13.5811C65.5988 13.3949 65.4443 13.1536 65.3301 12.8574C65.2201 12.557 65.165 12.1951 65.165 11.772V8.03955H63.3623V7.13184H65.165V5.46875H66.3457ZM75.8735 7.00488C76.0894 7.00488 76.3136 7.01969 76.5464 7.04932C76.7834 7.07894 76.9611 7.11914 77.0796 7.16992L76.9209 8.31885C76.6924 8.26807 76.4744 8.2321 76.2671 8.21094C76.064 8.18555 75.8503 8.17285 75.626 8.17285C75.3382 8.17285 75.078 8.20882 74.8452 8.28076C74.6125 8.34847 74.4093 8.45003 74.2358 8.58545C74.0793 8.70394 73.9417 8.84993 73.8232 9.02344C73.709 9.19271 73.6138 9.38314 73.5376 9.59473V14H72.3569V7.13184H73.4741L73.5249 8.05225L73.5312 8.22363C73.8105 7.84701 74.1449 7.55078 74.5342 7.33496C74.9277 7.11491 75.3742 7.00488 75.8735 7.00488ZM83.6938 14C83.6473 13.9111 83.6092 13.8011 83.5796 13.6699C83.5542 13.5345 83.5352 13.3949 83.5225 13.251C83.404 13.3695 83.2707 13.4816 83.1226 13.5874C82.9787 13.6932 82.82 13.7863 82.6465 13.8667C82.4688 13.9471 82.2804 14.0106 82.0815 14.0571C81.8826 14.1037 81.6711 14.127 81.4468 14.127C81.0828 14.127 80.7528 14.0741 80.4565 13.9683C80.1646 13.8625 79.917 13.7186 79.7139 13.5366C79.5065 13.3589 79.3457 13.1473 79.2314 12.9019C79.1214 12.6522 79.0664 12.3835 79.0664 12.0957C79.0664 11.7191 79.1405 11.389 79.2886 11.1055C79.4409 10.8219 79.6546 10.585 79.9297 10.3945C80.2048 10.2083 80.5348 10.0687 80.9199 9.97559C81.3092 9.88249 81.743 9.83594 82.2212 9.83594H83.5034V9.29639C83.5034 9.08903 83.4653 8.90283 83.3892 8.73779C83.313 8.57275 83.2051 8.43099 83.0654 8.3125C82.9258 8.19824 82.7544 8.10938 82.5513 8.0459C82.3524 7.98242 82.1281 7.95068 81.8784 7.95068C81.6457 7.95068 81.4362 7.98031 81.25 8.03955C81.068 8.0988 80.9136 8.17708 80.7866 8.27441C80.6597 8.37174 80.5602 8.48812 80.4883 8.62354C80.4206 8.75472 80.3867 8.89225 80.3867 9.03613H79.2061C79.2103 8.78646 79.2738 8.54102 79.3965 8.2998C79.5234 8.05859 79.7054 7.84066 79.9424 7.646C80.1751 7.45557 80.4587 7.30111 80.793 7.18262C81.1315 7.06413 81.5145 7.00488 81.9419 7.00488C82.3312 7.00488 82.693 7.05355 83.0273 7.15088C83.3617 7.24398 83.6515 7.38574 83.897 7.57617C84.1382 7.77083 84.3286 8.01204 84.4683 8.2998C84.6079 8.58757 84.6777 8.92399 84.6777 9.30908V12.502C84.6777 12.7305 84.6989 12.9738 84.7412 13.2319C84.7835 13.4858 84.8428 13.708 84.9189 13.8984V14H83.6938ZM81.6182 13.105C81.8467 13.105 82.0604 13.0754 82.2593 13.0161C82.4582 12.9569 82.6401 12.8786 82.8052 12.7812C82.966 12.6839 83.1056 12.5739 83.2241 12.4512C83.3426 12.3242 83.4357 12.193 83.5034 12.0576V10.6675H82.4116C82.0054 10.6675 81.6499 10.7035 81.3452 10.7754C81.0448 10.8431 80.8057 10.9489 80.6279 11.0928C80.501 11.1943 80.4036 11.3149 80.3359 11.4546C80.2725 11.5942 80.2407 11.7529 80.2407 11.9307C80.2407 12.0999 80.2682 12.2565 80.3232 12.4004C80.3825 12.5443 80.4692 12.667 80.5835 12.7686C80.6978 12.8743 80.8416 12.9569 81.0151 13.0161C81.1886 13.0754 81.3896 13.105 81.6182 13.105ZM89.9146 13.1748C90.1261 13.1748 90.3314 13.141 90.5303 13.0732C90.7334 13.0055 90.9132 12.9103 91.0698 12.7876C91.2264 12.6691 91.3512 12.5295 91.4443 12.3687C91.5417 12.2036 91.5924 12.0259 91.5967 11.8354H92.7075C92.7033 12.1401 92.6229 12.4321 92.4663 12.7114C92.314 12.9865 92.1087 13.2277 91.8506 13.4351C91.5924 13.6466 91.2962 13.8159 90.9619 13.9429C90.6276 14.0656 90.2785 14.127 89.9146 14.127C89.394 14.127 88.9391 14.0339 88.5498 13.8477C88.1605 13.6615 87.8368 13.4097 87.5786 13.0923C87.3162 12.7791 87.1195 12.4173 86.9883 12.0068C86.8571 11.5921 86.7915 11.1562 86.7915 10.6992V10.4326C86.7915 9.97982 86.8571 9.54606 86.9883 9.13135C87.1195 8.71663 87.3162 8.35059 87.5786 8.0332C87.8368 7.72005 88.1605 7.47038 88.5498 7.28418C88.9391 7.09798 89.394 7.00488 89.9146 7.00488C90.3208 7.00488 90.6932 7.07048 91.0317 7.20166C91.3745 7.32861 91.6707 7.50212 91.9204 7.72217C92.1659 7.94645 92.3584 8.21094 92.498 8.51562C92.6377 8.82031 92.7075 9.14616 92.7075 9.49316H91.5967C91.5924 9.28581 91.5459 9.09115 91.457 8.90918C91.3724 8.72298 91.256 8.56006 91.1079 8.42041C90.9598 8.28076 90.7821 8.17074 90.5747 8.09033C90.3716 8.00993 90.1515 7.96973 89.9146 7.96973C89.5506 7.96973 89.2438 8.04378 88.9941 8.19189C88.7487 8.33577 88.5498 8.52409 88.3975 8.75684C88.2451 8.99382 88.1351 9.2583 88.0674 9.55029C88.0039 9.84229 87.9722 10.1364 87.9722 10.4326V10.6992C87.9722 10.9997 88.0039 11.298 88.0674 11.5942C88.1351 11.8862 88.2451 12.1486 88.3975 12.3813C88.5456 12.6183 88.7424 12.8109 88.9878 12.959C89.2375 13.1029 89.5464 13.1748 89.9146 13.1748ZM97.5762 5.46875V7.13184H100.191V8.03955H97.5762V11.772C97.5762 12.0386 97.61 12.2586 97.6777 12.4321C97.7454 12.6056 97.8385 12.7432 97.957 12.8447C98.0755 12.9505 98.2109 13.0246 98.3633 13.0669C98.5199 13.1092 98.6849 13.1304 98.8584 13.1304C98.9854 13.1304 99.1165 13.124 99.252 13.1113C99.3874 13.0944 99.5207 13.0754 99.6519 13.0542C99.7788 13.033 99.8973 13.0119 100.007 12.9907C100.122 12.9653 100.215 12.9442 100.287 12.9272L100.452 13.7588C100.354 13.818 100.236 13.8709 100.096 13.9175C99.9565 13.9598 99.8042 13.9958 99.6392 14.0254C99.4741 14.0592 99.2985 14.0846 99.1123 14.1016C98.9303 14.1185 98.7484 14.127 98.5664 14.127C98.2617 14.127 97.9761 14.0846 97.7095 14C97.4471 13.9111 97.2186 13.7715 97.0239 13.5811C96.8293 13.3949 96.6748 13.1536 96.5605 12.8574C96.4505 12.557 96.3955 12.1951 96.3955 11.772V8.03955H94.5928V7.13184H96.3955V5.46875H97.5762ZM110.595 7.13184H114.105V12.9844H116.346V14H110.595V12.9844H112.931V8.15381H110.595V7.13184ZM112.779 5.3291C112.779 5.22754 112.794 5.13232 112.823 5.04346C112.857 4.95459 112.908 4.87842 112.976 4.81494C113.031 4.75993 113.1 4.71761 113.185 4.68799C113.274 4.65413 113.373 4.63721 113.483 4.63721C113.593 4.63721 113.691 4.65413 113.775 4.68799C113.86 4.71761 113.93 4.75993 113.985 4.81494C114.053 4.87419 114.103 4.94824 114.137 5.03711C114.171 5.12598 114.188 5.22331 114.188 5.3291C114.188 5.51953 114.129 5.67822 114.01 5.80518C113.892 5.93213 113.716 5.99561 113.483 5.99561C113.246 5.99561 113.069 5.93213 112.95 5.80518C112.836 5.67822 112.779 5.51953 112.779 5.3291ZM118.219 14V7.13184H119.272L119.355 8.14746C119.457 8.00358 119.567 7.8724 119.685 7.75391C119.808 7.63118 119.937 7.52539 120.072 7.43652C120.275 7.30111 120.495 7.19743 120.732 7.12549C120.974 7.04932 121.228 7.00911 121.494 7.00488C121.854 7.00488 122.18 7.05566 122.472 7.15723C122.768 7.25879 123.02 7.41748 123.227 7.6333C123.434 7.84912 123.593 8.12419 123.703 8.4585C123.817 8.78857 123.875 9.18213 123.875 9.63916V14H122.7V9.66455C122.7 9.35986 122.666 9.10173 122.599 8.89014C122.531 8.67855 122.431 8.50716 122.3 8.37598C122.165 8.24479 122 8.14958 121.805 8.09033C121.615 8.03109 121.395 8.00146 121.145 8.00146C120.929 8.00146 120.728 8.0332 120.542 8.09668C120.356 8.15592 120.184 8.23844 120.028 8.34424C119.901 8.43734 119.782 8.54525 119.672 8.66797C119.567 8.79069 119.473 8.92611 119.393 9.07422V14H118.219ZM131.162 10.439H126.306V9.47412H131.162V10.439ZM134.018 4.25H137.528V12.9844H139.769V14H134.018V12.9844H136.354V5.27197H134.018V4.25ZM144.568 13.1748C144.779 13.1748 144.985 13.141 145.184 13.0732C145.387 13.0055 145.567 12.9103 145.723 12.7876C145.88 12.6691 146.005 12.5295 146.098 12.3687C146.195 12.2036 146.246 12.0259 146.25 11.8354H147.361C147.357 12.1401 147.276 12.4321 147.12 12.7114C146.967 12.9865 146.762 13.2277 146.504 13.4351C146.246 13.6466 145.95 13.8159 145.615 13.9429C145.281 14.0656 144.932 14.127 144.568 14.127C144.047 14.127 143.592 14.0339 143.203 13.8477C142.814 13.6615 142.49 13.4097 142.232 13.0923C141.97 12.7791 141.773 12.4173 141.642 12.0068C141.51 11.5921 141.445 11.1562 141.445 10.6992V10.4326C141.445 9.97982 141.51 9.54606 141.642 9.13135C141.773 8.71663 141.97 8.35059 142.232 8.0332C142.49 7.72005 142.814 7.47038 143.203 7.28418C143.592 7.09798 144.047 7.00488 144.568 7.00488C144.974 7.00488 145.347 7.07048 145.685 7.20166C146.028 7.32861 146.324 7.50212 146.574 7.72217C146.819 7.94645 147.012 8.21094 147.151 8.51562C147.291 8.82031 147.361 9.14616 147.361 9.49316H146.25C146.246 9.28581 146.199 9.09115 146.11 8.90918C146.026 8.72298 145.909 8.56006 145.761 8.42041C145.613 8.28076 145.435 8.17074 145.228 8.09033C145.025 8.00993 144.805 7.96973 144.568 7.96973C144.204 7.96973 143.897 8.04378 143.647 8.19189C143.402 8.33577 143.203 8.52409 143.051 8.75684C142.898 8.99382 142.788 9.2583 142.721 9.55029C142.657 9.84229 142.625 10.1364 142.625 10.4326V10.6992C142.625 10.9997 142.657 11.298 142.721 11.5942C142.788 11.8862 142.898 12.1486 143.051 12.3813C143.199 12.6183 143.396 12.8109 143.641 12.959C143.891 13.1029 144.2 13.1748 144.568 13.1748Z" fill="#696C80"/>
</svg>
