<svg width="160" height="98" viewBox="0 0 160 98" fill="none" xmlns="http://www.w3.org/2000/svg">
<rect x="0.5" y="34.5" width="159" height="63" rx="4.5" stroke="#9747FF" stroke-dasharray="10 5"/>
<path d="M120 60.8C120 59.1198 120 58.2798 120.327 57.638C120.615 57.0735 121.074 56.6146 121.638 56.327C122.28 56 123.12 56 124.8 56H130.675C131.164 56 131.408 56 131.638 56.0553C131.843 56.1043 132.038 56.1851 132.217 56.2947C132.418 56.4184 132.591 56.5914 132.937 56.9373L135.063 59.0627C135.409 59.4086 135.582 59.5816 135.705 59.7834C135.815 59.9624 135.896 60.1575 135.945 60.3615C136 60.5917 136 60.8363 136 61.3255V71.2C136 72.8802 136 73.7202 135.673 74.362C135.385 74.9265 134.926 75.3854 134.362 75.673C133.72 76 132.88 76 131.2 76H124.8C123.12 76 122.28 76 121.638 75.673C121.074 75.3854 120.615 74.9265 120.327 74.362C120 73.7202 120 72.8802 120 71.2V60.8Z" fill="#BABDCC"/>
<path d="M129 66C129 65.4477 128.552 65 128 65C127.448 65 127 65.4477 127 66V67H126C125.448 67 125 67.4477 125 68C125 68.5523 125.448 69 126 69H127V70C127 70.5523 127.448 71 128 71C128.552 71 129 70.5523 129 70V69H130C130.552 69 131 68.5523 131 68C131 67.4477 130.552 67 130 67H129V66Z" fill="#12131A"/>
<path d="M130 57.4142C130 56.6332 130.633 56 131.414 56C131.789 56 132.149 56.149 132.414 56.4142L135.586 59.5858C135.851 59.851 136 60.2107 136 60.5858C136 61.3668 135.367 62 134.586 62H132C130.895 62 130 61.1046 130 60V57.4142Z" fill="#12131A"/>
<path fill-rule="evenodd" clip-rule="evenodd" d="M72 60.8C72 59.1198 72 58.2798 72.327 57.638C72.6146 57.0735 73.0735 56.6146 73.638 56.327C74.2798 56 75.1198 56 76.8 56H80.2C80.48 56 80.62 56 80.727 56.0545C80.8211 56.1024 80.8976 56.1789 80.9455 56.273C81 56.38 81 56.52 81 56.8V59C81 61.2091 82.7909 63 85 63H87.2C87.48 63 87.62 63 87.727 63.0545C87.8211 63.1024 87.8976 63.1789 87.9455 63.273C88 63.38 88 63.52 88 63.8V71.2C88 72.8802 88 73.7202 87.673 74.362C87.3854 74.9265 86.9265 75.3854 86.362 75.673C85.7202 76 84.8802 76 83.2 76H76.8C75.1198 76 74.2798 76 73.638 75.673C73.0735 75.3854 72.6146 74.9265 72.327 74.362C72 73.7202 72 72.8802 72 71.2V60.8ZM80 65C80.5523 65 81 65.4477 81 66V67H82C82.5523 67 83 67.4477 83 68C83 68.5523 82.5523 69 82 69H81V70C81 70.5523 80.5523 71 80 71C79.4477 71 79 70.5523 79 70V69H78C77.4477 69 77 68.5523 77 68C77 67.4477 77.4477 67 78 67H79V66C79 65.4477 79.4477 65 80 65Z" fill="#12131A"/>
<path d="M83 56.7071C83 56.3166 83.3166 56 83.7071 56C83.8946 56 84.0745 56.0745 84.2071 56.2071L87.7929 59.7929C87.9255 59.9255 88 60.1054 88 60.2929C88 60.6834 87.6834 61 87.2929 61H85C83.8954 61 83 60.1046 83 59V56.7071Z" fill="#12131A"/>
<path fill-rule="evenodd" clip-rule="evenodd" d="M34.6911 56.1105C34.2284 55.9994 33.7487 55.9997 33.1137 56L29.7587 56C28.9537 56 28.2894 56 27.7482 56.0442C27.1861 56.0901 26.6694 56.1887 26.184 56.436C25.4314 56.8195 24.8195 57.4314 24.436 58.184C24.1887 58.6694 24.0901 59.1861 24.0442 59.7482C24 60.2894 24 60.9537 24 61.7587V70.2413C24 71.0463 24 71.7106 24.0442 72.2518C24.0901 72.8139 24.1887 73.3306 24.436 73.816C24.8195 74.5686 25.4314 75.1805 26.184 75.564C26.6694 75.8113 27.1861 75.9099 27.7482 75.9558C28.2894 76 28.9537 76 29.7587 76H34.2413C35.0463 76 35.7106 76 36.2518 75.9558C36.8139 75.9099 37.3306 75.8113 37.816 75.564C38.5686 75.1805 39.1805 74.5686 39.564 73.816C39.8113 73.3306 39.9099 72.8139 39.9558 72.2518C40 71.7106 40 71.0463 40 70.2413L40 62.8863C40.0003 62.2514 40.0006 61.7715 39.8895 61.3089C39.7915 60.9007 39.6299 60.5105 39.4106 60.1526C39.1619 59.7469 38.8225 59.4078 38.3733 58.959L37.041 57.6267C36.5922 57.1775 36.2531 56.8381 35.8474 56.5894C35.4895 56.3701 35.0993 56.2085 34.6911 56.1105ZM33 58H29.8C28.9434 58 28.3611 58.0008 27.911 58.0376C27.4726 58.0734 27.2484 58.1383 27.092 58.218C26.7157 58.4097 26.4097 58.7157 26.218 59.092C26.1383 59.2484 26.0734 59.4726 26.0376 59.911C26.0008 60.3611 26 60.9434 26 61.8V70.2C26 71.0566 26.0008 71.6389 26.0376 72.089C26.0734 72.5274 26.1383 72.7516 26.218 72.908C26.4097 73.2843 26.7157 73.5903 27.092 73.782C27.2484 73.8617 27.4726 73.9266 27.911 73.9625C28.3611 73.9992 28.9434 74 29.8 74H34.2C35.0566 74 35.6389 73.9992 36.089 73.9625C36.5274 73.9266 36.7516 73.8617 36.908 73.782C37.2843 73.5903 37.5903 73.2843 37.782 72.908C37.8617 72.7516 37.9266 72.5274 37.9624 72.089C37.9992 71.6389 38 71.0566 38 70.2V63H36C34.3431 63 33 61.6569 33 60V58ZM37.56 61C37.4398 60.8579 37.2479 60.6621 36.887 60.3012L35.6988 59.113C35.3379 58.7521 35.1421 58.5602 35 58.44V60C35 60.5523 35.4477 61 36 61H37.56Z" fill="#12131A"/>
<path d="M33 66C33 65.4477 32.5523 65 32 65C31.4477 65 31 65.4477 31 66V67H30C29.4477 67 29 67.4477 29 68C29 68.5523 29.4477 69 30 69H31V70C31 70.5523 31.4477 71 32 71C32.5523 71 33 70.5523 33 70V69H34C34.5523 69 35 68.5523 35 68C35 67.4477 34.5523 67 34 67H33V66Z" fill="#12131A"/>
<path d="M6.24609 9.91846H2.39941V14H1.2124V4.75781H6.88721V5.76074H2.39941V8.92188H6.24609V9.91846ZM9.09619 7.13184H12.6064V12.9844H14.8472V14H9.09619V12.9844H11.4321V8.15381H9.09619V7.13184ZM11.2798 5.3291C11.2798 5.22754 11.2946 5.13232 11.3242 5.04346C11.3581 4.95459 11.4089 4.87842 11.4766 4.81494C11.5316 4.75993 11.6014 4.71761 11.686 4.68799C11.7749 4.65413 11.8743 4.63721 11.9844 4.63721C12.0944 4.63721 12.1917 4.65413 12.2764 4.68799C12.361 4.71761 12.4308 4.75993 12.4858 4.81494C12.5535 4.87419 12.6043 4.94824 12.6382 5.03711C12.672 5.12598 12.689 5.22331 12.689 5.3291C12.689 5.51953 12.6297 5.67822 12.5112 5.80518C12.3927 5.93213 12.2171 5.99561 11.9844 5.99561C11.7474 5.99561 11.5697 5.93213 11.4512 5.80518C11.3369 5.67822 11.2798 5.51953 11.2798 5.3291ZM16.9038 4.25H20.4141V12.9844H22.6548V14H16.9038V12.9844H19.2397V5.27197H16.9038V4.25ZM27.5615 14.127C27.0791 14.127 26.6348 14.0444 26.2285 13.8794C25.8265 13.7144 25.4816 13.4837 25.1938 13.1875C24.9061 12.8913 24.6818 12.54 24.521 12.1338C24.3602 11.7275 24.2798 11.2853 24.2798 10.8071V10.5405C24.2798 9.98617 24.3687 9.49105 24.5464 9.05518C24.7241 8.61507 24.9611 8.24268 25.2573 7.93799C25.5493 7.63753 25.8815 7.4069 26.2539 7.24609C26.6305 7.08529 27.0156 7.00488 27.4092 7.00488C27.9043 7.00488 28.3359 7.09163 28.7041 7.26514C29.0765 7.43441 29.3854 7.66927 29.6309 7.96973C29.8763 8.27441 30.0583 8.632 30.1768 9.04248C30.2995 9.45296 30.3608 9.8973 30.3608 10.3755V10.9023H25.4541V10.9468C25.4837 11.2811 25.5493 11.5752 25.6509 11.8291C25.7567 12.083 25.9006 12.3073 26.0825 12.502C26.2687 12.7093 26.493 12.8722 26.7554 12.9907C27.0177 13.1092 27.3076 13.1685 27.625 13.1685C28.0439 13.1685 28.4163 13.0838 28.7422 12.9146C29.068 12.7453 29.3389 12.521 29.5547 12.2417L30.272 12.8003C30.0435 13.1473 29.7007 13.4562 29.2437 13.7271C28.7909 13.9937 28.2301 14.127 27.5615 14.127ZM27.4092 7.96973C27.1722 7.96973 26.9479 8.01416 26.7363 8.10303C26.5247 8.18766 26.3343 8.3125 26.165 8.47754C25.9958 8.64681 25.8519 8.85417 25.7334 9.09961C25.6191 9.34082 25.5387 9.62012 25.4922 9.9375H29.1865V9.88037C29.1865 9.66878 29.1463 9.44238 29.0659 9.20117C28.9855 8.95573 28.8734 8.74414 28.7295 8.56641C28.5856 8.38867 28.4036 8.24479 28.1836 8.13477C27.9678 8.02474 27.7096 7.96973 27.4092 7.96973ZM44.5542 11.6069H41.4692L40.7266 14H39.5522L42.5356 4.75781H43.5195L46.4521 14H45.2842L44.5542 11.6069ZM41.7866 10.585H44.2432L43.0244 6.57324L41.7866 10.585ZM47.728 10.5088C47.728 9.99674 47.7915 9.52702 47.9185 9.09961C48.0496 8.66797 48.2358 8.29769 48.4771 7.98877C48.714 7.67985 49.0018 7.43864 49.3403 7.26514C49.6789 7.09163 50.0576 7.00488 50.4766 7.00488C50.887 7.00488 51.2446 7.07471 51.5493 7.21436C51.8582 7.34977 52.1248 7.54867 52.3491 7.81104V4.25H53.5234V14H52.4443L52.3936 13.2764C52.165 13.5557 51.8921 13.7673 51.5747 13.9111C51.2573 14.055 50.887 14.127 50.4639 14.127C50.0492 14.127 49.6725 14.0381 49.334 13.8604C48.9997 13.6826 48.714 13.4372 48.4771 13.124C48.2401 12.8109 48.056 12.4427 47.9248 12.0195C47.7936 11.5921 47.728 11.133 47.728 10.6421V10.5088ZM48.9023 10.6421C48.9023 10.9764 48.9383 11.2938 49.0103 11.5942C49.0822 11.8947 49.1943 12.1592 49.3467 12.3877C49.4948 12.6162 49.6852 12.7982 49.918 12.9336C50.1507 13.0648 50.43 13.1304 50.7559 13.1304C51.1494 13.1304 51.4753 13.0415 51.7334 12.8638C51.9915 12.686 52.1968 12.4469 52.3491 12.1465V8.95996C52.1968 8.68066 51.9915 8.45215 51.7334 8.27441C51.4753 8.09245 51.1536 8.00146 50.7686 8.00146C50.4385 8.00146 50.1549 8.06917 49.918 8.20459C49.6852 8.34001 49.4948 8.52197 49.3467 8.75049C49.1943 8.98324 49.0822 9.25195 49.0103 9.55664C48.9383 9.8571 48.9023 10.1745 48.9023 10.5088V10.6421ZM55.5356 10.5088C55.5356 9.99674 55.5991 9.52702 55.7261 9.09961C55.8573 8.66797 56.0435 8.29769 56.2847 7.98877C56.5216 7.67985 56.8094 7.43864 57.1479 7.26514C57.4865 7.09163 57.8652 7.00488 58.2842 7.00488C58.6947 7.00488 59.0522 7.07471 59.3569 7.21436C59.6659 7.34977 59.9325 7.54867 60.1567 7.81104V4.25H61.3311V14H60.252L60.2012 13.2764C59.9727 13.5557 59.6997 13.7673 59.3823 13.9111C59.0649 14.055 58.6947 14.127 58.2715 14.127C57.8568 14.127 57.4801 14.0381 57.1416 13.8604C56.8073 13.6826 56.5216 13.4372 56.2847 13.124C56.0477 12.8109 55.8636 12.4427 55.7324 12.0195C55.6012 11.5921 55.5356 11.133 55.5356 10.6421V10.5088ZM56.71 10.6421C56.71 10.9764 56.7459 11.2938 56.8179 11.5942C56.8898 11.8947 57.002 12.1592 57.1543 12.3877C57.3024 12.6162 57.4928 12.7982 57.7256 12.9336C57.9583 13.0648 58.2376 13.1304 58.5635 13.1304C58.957 13.1304 59.2829 13.0415 59.541 12.8638C59.7992 12.686 60.0044 12.4469 60.1567 12.1465V8.95996C60.0044 8.68066 59.7992 8.45215 59.541 8.27441C59.2829 8.09245 58.9613 8.00146 58.5762 8.00146C58.2461 8.00146 57.9626 8.06917 57.7256 8.20459C57.4928 8.34001 57.3024 8.52197 57.1543 8.75049C57.002 8.98324 56.8898 9.25195 56.8179 9.55664C56.7459 9.8571 56.71 10.1745 56.71 10.5088V10.6421ZM71.5571 7.13184H75.0674V12.9844H77.3081V14H71.5571V12.9844H73.8931V8.15381H71.5571V7.13184ZM73.7407 5.3291C73.7407 5.22754 73.7555 5.13232 73.7852 5.04346C73.819 4.95459 73.8698 4.87842 73.9375 4.81494C73.9925 4.75993 74.0623 4.71761 74.147 4.68799C74.2358 4.65413 74.3353 4.63721 74.4453 4.63721C74.5553 4.63721 74.6527 4.65413 74.7373 4.68799C74.8219 4.71761 74.8918 4.75993 74.9468 4.81494C75.0145 4.87419 75.0653 4.94824 75.0991 5.03711C75.133 5.12598 75.1499 5.22331 75.1499 5.3291C75.1499 5.51953 75.0907 5.67822 74.9722 5.80518C74.8537 5.93213 74.6781 5.99561 74.4453 5.99561C74.2083 5.99561 74.0306 5.93213 73.9121 5.80518C73.7979 5.67822 73.7407 5.51953 73.7407 5.3291ZM79.1807 14V7.13184H80.2344L80.3169 8.14746C80.4185 8.00358 80.5285 7.8724 80.647 7.75391C80.7697 7.63118 80.8988 7.52539 81.0342 7.43652C81.2373 7.30111 81.4574 7.19743 81.6943 7.12549C81.9355 7.04932 82.1895 7.00911 82.4561 7.00488C82.8158 7.00488 83.1416 7.05566 83.4336 7.15723C83.7298 7.25879 83.9816 7.41748 84.189 7.6333C84.3963 7.84912 84.555 8.12419 84.665 8.4585C84.7793 8.78857 84.8364 9.18213 84.8364 9.63916V14H83.6621V9.66455C83.6621 9.35986 83.6283 9.10173 83.5605 8.89014C83.4928 8.67855 83.3934 8.50716 83.2622 8.37598C83.1268 8.24479 82.9618 8.14958 82.7671 8.09033C82.5767 8.03109 82.3566 8.00146 82.1069 8.00146C81.8911 8.00146 81.6901 8.0332 81.5039 8.09668C81.3177 8.15592 81.1463 8.23844 80.9897 8.34424C80.8628 8.43734 80.7443 8.54525 80.6343 8.66797C80.5285 8.79069 80.4354 8.92611 80.355 9.07422V14H79.1807ZM92.1235 10.439H87.2676V9.47412H92.1235V10.439ZM94.98 4.25H98.4902V12.9844H100.731V14H94.98V12.9844H97.3159V5.27197H94.98V4.25ZM105.53 13.1748C105.741 13.1748 105.947 13.141 106.146 13.0732C106.349 13.0055 106.528 12.9103 106.685 12.7876C106.842 12.6691 106.966 12.5295 107.06 12.3687C107.157 12.2036 107.208 12.0259 107.212 11.8354H108.323C108.319 12.1401 108.238 12.4321 108.082 12.7114C107.929 12.9865 107.724 13.2277 107.466 13.4351C107.208 13.6466 106.911 13.8159 106.577 13.9429C106.243 14.0656 105.894 14.127 105.53 14.127C105.009 14.127 104.554 14.0339 104.165 13.8477C103.776 13.6615 103.452 13.4097 103.194 13.0923C102.931 12.7791 102.735 12.4173 102.604 12.0068C102.472 11.5921 102.407 11.1562 102.407 10.6992V10.4326C102.407 9.97982 102.472 9.54606 102.604 9.13135C102.735 8.71663 102.931 8.35059 103.194 8.0332C103.452 7.72005 103.776 7.47038 104.165 7.28418C104.554 7.09798 105.009 7.00488 105.53 7.00488C105.936 7.00488 106.308 7.07048 106.647 7.20166C106.99 7.32861 107.286 7.50212 107.536 7.72217C107.781 7.94645 107.974 8.21094 108.113 8.51562C108.253 8.82031 108.323 9.14616 108.323 9.49316H107.212C107.208 9.28581 107.161 9.09115 107.072 8.90918C106.988 8.72298 106.871 8.56006 106.723 8.42041C106.575 8.28076 106.397 8.17074 106.19 8.09033C105.987 8.00993 105.767 7.96973 105.53 7.96973C105.166 7.96973 104.859 8.04378 104.609 8.19189C104.364 8.33577 104.165 8.52409 104.013 8.75684C103.86 8.99382 103.75 9.2583 103.683 9.55029C103.619 9.84229 103.587 10.1364 103.587 10.4326V10.6992C103.587 10.9997 103.619 11.298 103.683 11.5942C103.75 11.8862 103.86 12.1486 104.013 12.3813C104.161 12.6183 104.358 12.8109 104.603 12.959C104.853 13.1029 105.162 13.1748 105.53 13.1748Z" fill="#696C80"/>
</svg>
