<svg width="160" height="98" viewBox="0 0 160 98" fill="none" xmlns="http://www.w3.org/2000/svg">
<rect x="0.5" y="34.5" width="159" height="63" rx="4.5" stroke="#9747FF" stroke-dasharray="10 5"/>
<path d="M120 60.8C120 59.1198 120 58.2798 120.327 57.638C120.615 57.0735 121.074 56.6146 121.638 56.327C122.28 56 123.12 56 124.8 56H130.675C131.164 56 131.408 56 131.638 56.0553C131.843 56.1043 132.038 56.1851 132.217 56.2947C132.418 56.4184 132.591 56.5914 132.937 56.9373L135.063 59.0627C135.409 59.4086 135.582 59.5816 135.705 59.7834C135.815 59.9624 135.896 60.1575 135.945 60.3615C136 60.5917 136 60.8363 136 61.3255V71.2C136 72.8802 136 73.7202 135.673 74.362C135.385 74.9265 134.926 75.3854 134.362 75.673C133.72 76 132.88 76 131.2 76H124.8C123.12 76 122.28 76 121.638 75.673C121.074 75.3854 120.615 74.9265 120.327 74.362C120 73.7202 120 72.8802 120 71.2V60.8Z" fill="#BABDCC"/>
<path d="M130 57.4142C130 56.6332 130.633 56 131.414 56C131.789 56 132.149 56.149 132.414 56.4142L135.586 59.5858C135.851 59.851 136 60.2107 136 60.5858C136 61.3668 135.367 62 134.586 62H132C130.895 62 130 61.1046 130 60V57.4142Z" fill="#12131A"/>
<path d="M72.327 57.638C72 58.2798 72 59.1198 72 60.8V71.2C72 72.8802 72 73.7202 72.327 74.362C72.6146 74.9265 73.0735 75.3854 73.638 75.673C74.2798 76 75.1198 76 76.8 76H83.2C84.8802 76 85.7202 76 86.362 75.673C86.9265 75.3854 87.3854 74.9265 87.673 74.362C88 73.7202 88 72.8802 88 71.2V63.8C88 63.52 88 63.38 87.9455 63.273C87.8976 63.1789 87.8211 63.1024 87.727 63.0545C87.62 63 87.48 63 87.2 63H85C82.7909 63 81 61.2091 81 59V56.8C81 56.52 81 56.38 80.9455 56.273C80.8976 56.1789 80.8211 56.1024 80.727 56.0545C80.62 56 80.48 56 80.2 56H76.8C75.1198 56 74.2798 56 73.638 56.327C73.0735 56.6146 72.6146 57.0735 72.327 57.638Z" fill="#12131A"/>
<path d="M83 56.7071C83 56.3166 83.3166 56 83.7071 56C83.8946 56 84.0745 56.0745 84.2071 56.2071L87.7929 59.7929C87.9255 59.9255 88 60.1054 88 60.2929C88 60.6834 87.6834 61 87.2929 61H85C83.8954 61 83 60.1046 83 59V56.7071Z" fill="#12131A"/>
<path fill-rule="evenodd" clip-rule="evenodd" d="M34.6911 56.1105C34.2284 55.9994 33.7487 55.9997 33.1137 56L29.7587 56C28.9537 56 28.2894 56 27.7482 56.0442C27.1861 56.0901 26.6694 56.1887 26.184 56.436C25.4314 56.8195 24.8195 57.4314 24.436 58.184C24.1887 58.6694 24.0901 59.1861 24.0442 59.7482C24 60.2894 24 60.9537 24 61.7587V70.2413C24 71.0463 24 71.7106 24.0442 72.2518C24.0901 72.8139 24.1887 73.3306 24.436 73.816C24.8195 74.5686 25.4314 75.1805 26.184 75.564C26.6694 75.8113 27.1861 75.9099 27.7482 75.9558C28.2894 76 28.9537 76 29.7587 76H34.2413C35.0463 76 35.7106 76 36.2518 75.9558C36.8139 75.9099 37.3306 75.8113 37.816 75.564C38.5686 75.1805 39.1805 74.5686 39.564 73.816C39.8113 73.3306 39.9099 72.8139 39.9558 72.2518C40 71.7106 40 71.0463 40 70.2413L40 62.8863C40.0003 62.2514 40.0006 61.7715 39.8895 61.3089C39.7915 60.9007 39.6299 60.5105 39.4106 60.1526C39.1619 59.7469 38.8225 59.4078 38.3733 58.959L37.041 57.6267C36.5922 57.1775 36.2531 56.8381 35.8474 56.5894C35.4895 56.3701 35.0993 56.2085 34.6911 56.1105ZM33 58H29.8C28.9434 58 28.3611 58.0008 27.911 58.0376C27.4726 58.0734 27.2484 58.1383 27.092 58.218C26.7157 58.4097 26.4097 58.7157 26.218 59.092C26.1383 59.2484 26.0734 59.4726 26.0376 59.911C26.0008 60.3611 26 60.9434 26 61.8V70.2C26 71.0566 26.0008 71.6389 26.0376 72.089C26.0734 72.5274 26.1383 72.7516 26.218 72.908C26.4097 73.2843 26.7157 73.5903 27.092 73.782C27.2484 73.8617 27.4726 73.9266 27.911 73.9625C28.3611 73.9992 28.9434 74 29.8 74H34.2C35.0566 74 35.6389 73.9992 36.089 73.9625C36.5274 73.9266 36.7516 73.8617 36.908 73.782C37.2843 73.5903 37.5903 73.2843 37.782 72.908C37.8617 72.7516 37.9266 72.5274 37.9624 72.089C37.9992 71.6389 38 71.0566 38 70.2V63H36C34.3431 63 33 61.6569 33 60V58ZM37.56 61C37.4398 60.8579 37.2479 60.6621 36.887 60.3012L35.6988 59.113C35.3379 58.7521 35.1421 58.5602 35 58.44V60C35 60.5523 35.4477 61 36 61H37.56Z" fill="#12131A"/>
<path d="M6.24609 9.91846H2.39941V14H1.2124V4.75781H6.88721V5.76074H2.39941V8.92188H6.24609V9.91846ZM9.09619 7.13184H12.6064V12.9844H14.8472V14H9.09619V12.9844H11.4321V8.15381H9.09619V7.13184ZM11.2798 5.3291C11.2798 5.22754 11.2946 5.13232 11.3242 5.04346C11.3581 4.95459 11.4089 4.87842 11.4766 4.81494C11.5316 4.75993 11.6014 4.71761 11.686 4.68799C11.7749 4.65413 11.8743 4.63721 11.9844 4.63721C12.0944 4.63721 12.1917 4.65413 12.2764 4.68799C12.361 4.71761 12.4308 4.75993 12.4858 4.81494C12.5535 4.87419 12.6043 4.94824 12.6382 5.03711C12.672 5.12598 12.689 5.22331 12.689 5.3291C12.689 5.51953 12.6297 5.67822 12.5112 5.80518C12.3927 5.93213 12.2171 5.99561 11.9844 5.99561C11.7474 5.99561 11.5697 5.93213 11.4512 5.80518C11.3369 5.67822 11.2798 5.51953 11.2798 5.3291ZM16.9038 4.25H20.4141V12.9844H22.6548V14H16.9038V12.9844H19.2397V5.27197H16.9038V4.25ZM27.5615 14.127C27.0791 14.127 26.6348 14.0444 26.2285 13.8794C25.8265 13.7144 25.4816 13.4837 25.1938 13.1875C24.9061 12.8913 24.6818 12.54 24.521 12.1338C24.3602 11.7275 24.2798 11.2853 24.2798 10.8071V10.5405C24.2798 9.98617 24.3687 9.49105 24.5464 9.05518C24.7241 8.61507 24.9611 8.24268 25.2573 7.93799C25.5493 7.63753 25.8815 7.4069 26.2539 7.24609C26.6305 7.08529 27.0156 7.00488 27.4092 7.00488C27.9043 7.00488 28.3359 7.09163 28.7041 7.26514C29.0765 7.43441 29.3854 7.66927 29.6309 7.96973C29.8763 8.27441 30.0583 8.632 30.1768 9.04248C30.2995 9.45296 30.3608 9.8973 30.3608 10.3755V10.9023H25.4541V10.9468C25.4837 11.2811 25.5493 11.5752 25.6509 11.8291C25.7567 12.083 25.9006 12.3073 26.0825 12.502C26.2687 12.7093 26.493 12.8722 26.7554 12.9907C27.0177 13.1092 27.3076 13.1685 27.625 13.1685C28.0439 13.1685 28.4163 13.0838 28.7422 12.9146C29.068 12.7453 29.3389 12.521 29.5547 12.2417L30.272 12.8003C30.0435 13.1473 29.7007 13.4562 29.2437 13.7271C28.7909 13.9937 28.2301 14.127 27.5615 14.127ZM27.4092 7.96973C27.1722 7.96973 26.9479 8.01416 26.7363 8.10303C26.5247 8.18766 26.3343 8.3125 26.165 8.47754C25.9958 8.64681 25.8519 8.85417 25.7334 9.09961C25.6191 9.34082 25.5387 9.62012 25.4922 9.9375H29.1865V9.88037C29.1865 9.66878 29.1463 9.44238 29.0659 9.20117C28.9855 8.95573 28.8734 8.74414 28.7295 8.56641C28.5856 8.38867 28.4036 8.24479 28.1836 8.13477C27.9678 8.02474 27.7096 7.96973 27.4092 7.96973Z" fill="#696C80"/>
</svg>
