<svg width="160" height="98" viewBox="0 0 160 98" fill="none" xmlns="http://www.w3.org/2000/svg">
<rect x="0.5" y="34.5" width="159" height="63" rx="4.5" stroke="#9747FF" stroke-dasharray="10 5"/>
<path d="M120.143 58.1434C120 58.7316 120 59.5232 120 60.8V71.2C120 72.8801 120 73.7202 120.327 74.3619C120.615 74.9264 121.074 75.3854 121.638 75.673C122.28 76 123.12 76 124.8 76H131.2C132.88 76 133.72 76 134.362 75.673C134.926 75.3854 135.385 74.9264 135.673 74.3619C135.752 74.2078 135.811 74.0423 135.857 73.8565L120.143 58.1434Z" fill="#BABDCC"/>
<path d="M134 61.9995C132.927 61.9963 132.333 61.971 131.852 61.7716C131.117 61.4672 130.533 60.8831 130.228 60.1481C130.029 59.6668 130.004 59.073 130 58H125C124.448 58 124 57.5523 124 57C124 56.4477 124.448 56 125 56H130.837L130.888 55.9999C130.929 55.9998 130.971 55.9997 131.015 56.0001C131.037 56 131.063 56 131.094 56C131.17 56 131.208 56 131.245 56.0014C131.724 56.019 132.181 56.2083 132.533 56.5346C132.56 56.5597 132.587 56.5867 132.641 56.6408L135.359 59.3592C135.413 59.4133 135.44 59.4403 135.465 59.4673C135.792 59.8186 135.981 60.2755 135.999 60.7547C136 60.7916 136 60.8298 136 60.9062C136 60.937 136 60.9624 136 60.984C136 61.0285 136 61.0712 136 61.1117L136 61.1627V67C136 67.5523 135.552 68 135 68C134.448 68 134 67.5523 134 67V61.9995Z" fill="#BABDCC"/>
<path fill-rule="evenodd" clip-rule="evenodd" d="M118.293 56.2929C118.683 55.9024 119.317 55.9024 119.707 56.2929L137.707 74.2929C138.098 74.6834 138.098 75.3166 137.707 75.7071C137.317 76.0976 136.683 76.0976 136.293 75.7071L118.293 57.7071C117.902 57.3166 117.902 56.6834 118.293 56.2929Z" fill="#12131A"/>
<path d="M72.1435 58.1435C72 58.7316 72 59.5233 72 60.8V71.2C72 72.8802 72 73.7203 72.327 74.362C72.6146 74.9265 73.0735 75.3854 73.638 75.673C74.2798 76 75.1198 76 76.8 76H83.2C84.8802 76 85.7202 76 86.362 75.673C86.9265 75.3854 87.3854 74.9265 87.673 74.362C87.7515 74.2079 87.8112 74.0424 87.8565 73.8565L72.1435 58.1435Z" fill="#12131A"/>
<path d="M86 61.9995C84.927 61.9963 84.3332 61.971 83.8519 61.7716C83.1169 61.4672 82.5328 60.8831 82.2284 60.1481C82.029 59.6668 82.0037 59.073 82.0005 58H77C76.4477 58 76 57.5523 76 57C76 56.4477 76.4477 56 77 56H82.8373L82.8883 55.9999C82.9286 55.9998 82.9712 55.9997 83.0155 56.0001C83.0371 56 83.0627 56 83.0938 56C83.1702 56 83.2084 56 83.2453 56.0014C83.7245 56.019 84.1814 56.2083 84.5327 56.5346C84.5597 56.5597 84.5867 56.5867 84.6408 56.6408L87.3592 59.3592C87.4133 59.4133 87.4403 59.4403 87.4654 59.4673C87.7917 59.8186 87.981 60.2755 87.9986 60.7547C88 60.7916 88 60.8298 88 60.9062C88 60.937 88 60.9624 87.9999 60.984C88.0003 61.0285 88.0002 61.0712 88.0001 61.1117L88 61.1627V67C88 67.5523 87.5523 68 87 68C86.4477 68 86 67.5523 86 67V61.9995Z" fill="#12131A"/>
<path fill-rule="evenodd" clip-rule="evenodd" d="M70.2929 56.2929C70.6834 55.9024 71.3166 55.9024 71.7071 56.2929L89.7071 74.2929C90.0976 74.6834 90.0976 75.3166 89.7071 75.7071C89.3166 76.0976 88.6834 76.0976 88.2929 75.7071L70.2929 57.7071C69.9024 57.3166 69.9024 56.6834 70.2929 56.2929Z" fill="#12131A"/>
<path d="M24.0079 58.0079C24 58.181 24 58.3726 24 58.5681V70.2413C24 71.0463 24 71.7107 24.0442 72.2519C24.0901 72.8139 24.1887 73.3307 24.436 73.816C24.8195 74.5686 25.4314 75.1806 26.184 75.564C26.6694 75.8113 27.1861 75.9099 27.7482 75.9558C28.2894 76 28.9537 76 29.7587 76H34.2413C35.0463 76 35.7106 76 36.2518 75.9558C36.8139 75.9099 37.3306 75.8113 37.816 75.564C38.5686 75.1806 39.1805 74.5686 39.564 73.816C39.5929 73.7593 39.6197 73.7023 39.6447 73.6447L37.9711 71.9711C37.9685 72.0114 37.9656 72.0507 37.9625 72.089C37.9266 72.5274 37.8617 72.7516 37.782 72.908C37.5903 73.2843 37.2843 73.5903 36.908 73.782C36.7516 73.8617 36.5274 73.9267 36.089 73.9625C35.6389 73.9992 35.0566 74 34.2 74H29.8C28.9434 74 28.3611 73.9992 27.911 73.9625C27.4726 73.9267 27.2484 73.8617 27.092 73.782C26.7157 73.5903 26.4097 73.2843 26.218 72.908C26.1383 72.7516 26.0734 72.5274 26.0376 72.089C26.0008 71.6389 26 71.0566 26 70.2V60L24.0079 58.0079Z" fill="#12131A"/>
<path fill-rule="evenodd" clip-rule="evenodd" d="M33 58H29C28.4477 58 28 57.5523 28 57C28 56.4477 28.4477 56 29 56L33.1137 56C33.7487 55.9997 34.2284 55.9994 34.6911 56.1105C35.0993 56.2085 35.4895 56.3701 35.8474 56.5894C36.2531 56.8381 36.5922 57.1775 37.041 57.6267L38.3733 58.959C38.8225 59.4078 39.1619 59.7469 39.4106 60.1526C39.6299 60.5105 39.7915 60.9007 39.8895 61.3089C40.0006 61.7716 40.0003 62.2513 40 62.8863L40 67C40 67.5523 39.5523 68 39 68C38.4477 68 38 67.5523 38 67V63H36C34.3431 63 33 61.6569 33 60V58ZM37.56 61C37.4398 60.8579 37.2479 60.6621 36.887 60.3012L35.6988 59.113C35.3379 58.7521 35.1421 58.5602 35 58.44V60C35 60.5523 35.4477 61 36 61H37.56Z" fill="#12131A"/>
<path fill-rule="evenodd" clip-rule="evenodd" d="M22.2929 56.2929C22.6834 55.9024 23.3166 55.9024 23.7071 56.2929L41.7071 74.2929C42.0976 74.6834 42.0976 75.3166 41.7071 75.7071C41.3166 76.0976 40.6834 76.0976 40.2929 75.7071L22.2929 57.7071C21.9024 57.3166 21.9024 56.6834 22.2929 56.2929Z" fill="#12131A"/>
<path d="M6.24609 9.91846H2.39941V14H1.2124V4.75781H6.88721V5.76074H2.39941V8.92188H6.24609V9.91846ZM9.09619 7.13184H12.6064V12.9844H14.8472V14H9.09619V12.9844H11.4321V8.15381H9.09619V7.13184ZM11.2798 5.3291C11.2798 5.22754 11.2946 5.13232 11.3242 5.04346C11.3581 4.95459 11.4089 4.87842 11.4766 4.81494C11.5316 4.75993 11.6014 4.71761 11.686 4.68799C11.7749 4.65413 11.8743 4.63721 11.9844 4.63721C12.0944 4.63721 12.1917 4.65413 12.2764 4.68799C12.361 4.71761 12.4308 4.75993 12.4858 4.81494C12.5535 4.87419 12.6043 4.94824 12.6382 5.03711C12.672 5.12598 12.689 5.22331 12.689 5.3291C12.689 5.51953 12.6297 5.67822 12.5112 5.80518C12.3927 5.93213 12.2171 5.99561 11.9844 5.99561C11.7474 5.99561 11.5697 5.93213 11.4512 5.80518C11.3369 5.67822 11.2798 5.51953 11.2798 5.3291ZM16.9038 4.25H20.4141V12.9844H22.6548V14H16.9038V12.9844H19.2397V5.27197H16.9038V4.25ZM27.5615 14.127C27.0791 14.127 26.6348 14.0444 26.2285 13.8794C25.8265 13.7144 25.4816 13.4837 25.1938 13.1875C24.9061 12.8913 24.6818 12.54 24.521 12.1338C24.3602 11.7275 24.2798 11.2853 24.2798 10.8071V10.5405C24.2798 9.98617 24.3687 9.49105 24.5464 9.05518C24.7241 8.61507 24.9611 8.24268 25.2573 7.93799C25.5493 7.63753 25.8815 7.4069 26.2539 7.24609C26.6305 7.08529 27.0156 7.00488 27.4092 7.00488C27.9043 7.00488 28.3359 7.09163 28.7041 7.26514C29.0765 7.43441 29.3854 7.66927 29.6309 7.96973C29.8763 8.27441 30.0583 8.632 30.1768 9.04248C30.2995 9.45296 30.3608 9.8973 30.3608 10.3755V10.9023H25.4541V10.9468C25.4837 11.2811 25.5493 11.5752 25.6509 11.8291C25.7567 12.083 25.9006 12.3073 26.0825 12.502C26.2687 12.7093 26.493 12.8722 26.7554 12.9907C27.0177 13.1092 27.3076 13.1685 27.625 13.1685C28.0439 13.1685 28.4163 13.0838 28.7422 12.9146C29.068 12.7453 29.3389 12.521 29.5547 12.2417L30.272 12.8003C30.0435 13.1473 29.7007 13.4562 29.2437 13.7271C28.7909 13.9937 28.2301 14.127 27.5615 14.127ZM27.4092 7.96973C27.1722 7.96973 26.9479 8.01416 26.7363 8.10303C26.5247 8.18766 26.3343 8.3125 26.165 8.47754C25.9958 8.64681 25.8519 8.85417 25.7334 9.09961C25.6191 9.34082 25.5387 9.62012 25.4922 9.9375H29.1865V9.88037C29.1865 9.66878 29.1463 9.44238 29.0659 9.20117C28.9855 8.95573 28.8734 8.74414 28.7295 8.56641C28.5856 8.38867 28.4036 8.24479 28.1836 8.13477C27.9678 8.02474 27.7096 7.96973 27.4092 7.96973ZM46.1538 9.91211C46.1496 10.2422 46.12 10.5765 46.0649 10.915C46.0142 11.2493 45.9338 11.5731 45.8237 11.8862C45.7137 12.1994 45.5719 12.4914 45.3984 12.7622C45.2292 13.033 45.026 13.27 44.7891 13.4731C44.5521 13.6763 44.2791 13.8371 43.9702 13.9556C43.6655 14.0698 43.3228 14.127 42.9419 14.127C42.561 14.127 42.2161 14.0698 41.9072 13.9556C41.6025 13.8371 41.3317 13.6763 41.0947 13.4731C40.8577 13.27 40.6525 13.033 40.479 12.7622C40.3055 12.4871 40.1637 12.193 40.0537 11.8799C39.9395 11.5667 39.8548 11.243 39.7998 10.9087C39.7448 10.5744 39.7152 10.2422 39.7109 9.91211V8.8584C39.7152 8.52832 39.7427 8.19613 39.7935 7.86182C39.8485 7.52327 39.9331 7.19743 40.0474 6.88428C40.1574 6.57113 40.297 6.27913 40.4663 6.0083C40.6398 5.73324 40.8451 5.49202 41.082 5.28467C41.319 5.08154 41.5898 4.92285 41.8945 4.80859C42.2035 4.6901 42.5483 4.63086 42.9292 4.63086C43.3101 4.63086 43.6549 4.6901 43.9639 4.80859C44.2728 4.92285 44.5457 5.08154 44.7827 5.28467C45.0197 5.48779 45.2228 5.72689 45.3921 6.00195C45.5656 6.27279 45.7095 6.56478 45.8237 6.87793C45.9338 7.19108 46.0142 7.51693 46.0649 7.85547C46.12 8.19401 46.1496 8.52832 46.1538 8.8584V9.91211ZM44.9922 8.8457C44.988 8.62565 44.9731 8.39714 44.9478 8.16016C44.9224 7.91895 44.88 7.67985 44.8208 7.44287C44.7573 7.21012 44.6748 6.98796 44.5732 6.77637C44.4717 6.56055 44.3447 6.37012 44.1924 6.20508C44.04 6.04427 43.8602 5.91732 43.6528 5.82422C43.4455 5.72689 43.2043 5.67822 42.9292 5.67822C42.6584 5.67822 42.4193 5.72689 42.2119 5.82422C42.0046 5.92155 41.8247 6.05062 41.6724 6.21143C41.52 6.37646 41.3931 6.56689 41.2915 6.78271C41.1899 6.9943 41.1095 7.21647 41.0503 7.44922C40.9868 7.6862 40.9403 7.92529 40.9106 8.1665C40.8853 8.40348 40.8704 8.62988 40.8662 8.8457V9.91211C40.8704 10.1279 40.8853 10.3564 40.9106 10.5977C40.9403 10.8389 40.9868 11.0758 41.0503 11.3086C41.1138 11.5456 41.1963 11.772 41.2979 11.9878C41.3994 12.2036 41.5264 12.3919 41.6787 12.5527C41.8311 12.7178 42.0109 12.849 42.2183 12.9463C42.4256 13.0436 42.6668 13.0923 42.9419 13.0923C43.217 13.0923 43.4582 13.0436 43.6655 12.9463C43.8771 12.849 44.0591 12.7178 44.2114 12.5527C44.3595 12.3919 44.4823 12.2057 44.5796 11.9941C44.6812 11.7783 44.7637 11.5519 44.8271 11.3149C44.8864 11.0822 44.9266 10.8452 44.9478 10.604C44.9731 10.3628 44.988 10.1322 44.9922 9.91211V8.8457ZM49.7021 14V8.03955H47.8105V7.13184H49.7021V6.64941C49.7021 6.20931 49.7656 5.82422 49.8926 5.49414C50.0238 5.15983 50.2078 4.88053 50.4448 4.65625C50.6776 4.43197 50.959 4.2627 51.2891 4.14844C51.6191 4.03418 51.9873 3.97705 52.3936 3.97705C52.5628 3.97705 52.73 3.98763 52.895 4.00879C53.0601 4.02572 53.223 4.04899 53.3838 4.07861C53.4896 4.09977 53.5954 4.12305 53.7012 4.14844C53.807 4.1696 53.9149 4.19499 54.0249 4.22461L53.8853 5.1958C53.7118 5.13656 53.5086 5.08577 53.2759 5.04346C53.0474 4.99691 52.8019 4.97363 52.5396 4.97363C52.2729 4.97363 52.036 5.00749 51.8286 5.0752C51.6255 5.13867 51.4562 5.236 51.3208 5.36719C51.1769 5.5026 51.0669 5.67822 50.9907 5.89404C50.9188 6.10986 50.8828 6.36165 50.8828 6.64941V7.13184H53.5298V8.03955H50.8828V14H49.7021ZM57.5098 14V8.03955H55.6182V7.13184H57.5098V6.64941C57.5098 6.20931 57.5732 5.82422 57.7002 5.49414C57.8314 5.15983 58.0155 4.88053 58.2524 4.65625C58.4852 4.43197 58.7666 4.2627 59.0967 4.14844C59.4268 4.03418 59.7949 3.97705 60.2012 3.97705C60.3704 3.97705 60.5376 3.98763 60.7026 4.00879C60.8677 4.02572 61.0306 4.04899 61.1914 4.07861C61.2972 4.09977 61.403 4.12305 61.5088 4.14844C61.6146 4.1696 61.7225 4.19499 61.8325 4.22461L61.6929 5.1958C61.5194 5.13656 61.3162 5.08577 61.0835 5.04346C60.855 4.99691 60.6095 4.97363 60.3472 4.97363C60.0806 4.97363 59.8436 5.00749 59.6362 5.0752C59.4331 5.13867 59.2638 5.236 59.1284 5.36719C58.9845 5.5026 58.8745 5.67822 58.7983 5.89404C58.7264 6.10986 58.6904 6.36165 58.6904 6.64941V7.13184H61.3374V8.03955H58.6904V14H57.5098Z" fill="#696C80"/>
</svg>
