<svg width="160" height="98" viewBox="0 0 160 98" fill="none" xmlns="http://www.w3.org/2000/svg">
<rect x="0.5" y="34.5" width="159" height="63" rx="4.5" stroke="#9747FF" stroke-dasharray="10 5"/>
<path d="M126.872 58.0829C126.523 57.9992 126.165 57.9995 125.758 57.9999L122.161 58C121.634 58 121.18 57.9999 120.805 58.0305C120.41 58.0629 120.016 58.1342 119.638 58.327C119.074 58.6146 118.615 59.0735 118.327 59.638C118.134 60.0164 118.063 60.4096 118.031 60.805C118 61.1795 118 61.6343 118 62.1614V69.8385C118 70.3657 118 70.8204 118.031 71.195C118.063 71.5904 118.134 71.9836 118.327 72.362C118.615 72.9264 119.074 73.3854 119.638 73.673C120.016 73.8658 120.41 73.9371 120.805 73.9694C121.18 74 121.634 74 122.161 74H133.839C134.366 74 134.82 74 135.195 73.9694C135.59 73.9371 135.984 73.8658 136.362 73.673C136.926 73.3854 137.385 72.9264 137.673 72.362C137.866 71.9836 137.937 71.5904 137.969 71.195C138 70.8204 138 70.3657 138 69.8385V64.1614C138 63.6343 138 63.1795 137.969 62.805C137.937 62.4096 137.866 62.0164 137.673 61.638C137.385 61.0735 136.926 60.6146 136.362 60.327C135.984 60.1342 135.59 60.0628 135.195 60.0305C134.82 59.9999 134.366 60 133.839 60L129.414 60L128.585 59.1712C128.298 58.8832 128.045 58.6293 127.739 58.4421C127.471 58.2776 127.178 58.1564 126.872 58.0829Z" fill="#BABDCC"/>
<path d="M78.8719 58.0829C78.5235 57.9992 78.1647 57.9995 77.7578 57.9999L74.1615 58C73.6343 58 73.1795 57.9999 72.805 58.0305C72.4096 58.0629 72.0164 58.1342 71.638 58.327C71.0735 58.6146 70.6146 59.0735 70.327 59.638C70.1342 60.0164 70.0629 60.4096 70.0306 60.805C70 61.1795 70 61.6343 70 62.1614V69.8385C70 70.3657 70 70.8204 70.0306 71.195C70.0629 71.5904 70.1342 71.9836 70.327 72.362C70.6146 72.9264 71.0735 73.3854 71.638 73.673C72.0164 73.8658 72.4096 73.9371 72.805 73.9694C73.1795 74 73.6343 74 74.1614 74H85.8385C86.3656 74 86.8205 74 87.195 73.9694C87.5904 73.9371 87.9836 73.8658 88.362 73.673C88.9265 73.3854 89.3854 72.9264 89.673 72.362C89.8658 71.9836 89.9371 71.5904 89.9694 71.195C90 70.8204 90 70.3657 90 69.8385V64.1614C90 63.6343 90 63.1795 89.9694 62.805C89.9371 62.4096 89.8658 62.0164 89.673 61.638C89.3854 61.0735 88.9265 60.6146 88.362 60.327C87.9836 60.1342 87.5904 60.0628 87.195 60.0305C86.8205 59.9999 86.3657 60 85.8386 60L81.4142 60L80.5855 59.1712C80.298 58.8832 80.0446 58.6293 79.7391 58.4421C79.4707 58.2776 79.178 58.1564 78.8719 58.0829Z" fill="#12131A"/>
<path fill-rule="evenodd" clip-rule="evenodd" d="M30.2243 60.0553C30.0208 60.0064 29.7931 60 29.0118 60H27.8C26.9434 60 26.3611 60.0008 25.911 60.0376C25.4726 60.0734 25.2484 60.1383 25.092 60.218C24.7157 60.4097 24.4097 60.7157 24.218 61.092C24.1383 61.2484 24.0734 61.4726 24.0376 61.911C24.0008 62.3611 24 62.9434 24 63.8V68.2C24 69.0566 24.0008 69.6389 24.0376 70.089C24.0734 70.5274 24.1383 70.7516 24.218 70.908C24.4097 71.2843 24.7157 71.5903 25.092 71.782C25.2484 71.8617 25.4726 71.9266 25.911 71.9625C26.3611 71.9992 26.9434 72 27.8 72H36.2C37.0566 72 37.6389 71.9992 38.089 71.9625C38.5274 71.9266 38.7516 71.8617 38.908 71.782C39.2843 71.5903 39.5903 71.2843 39.782 70.908C39.8617 70.7516 39.9266 70.5274 39.9624 70.089C39.9992 69.6389 40 69.0566 40 68.2V65.8C40 64.9434 39.9992 64.3611 39.9624 63.911C39.9266 63.4726 39.8617 63.2484 39.782 63.092C39.5903 62.7157 39.2843 62.4097 38.908 62.218C38.7516 62.1383 38.5274 62.0734 38.089 62.0376C37.6389 62.0008 37.0566 62 36.2 62H33C32.7348 62 32.4804 61.8946 32.2929 61.7071L31.6988 61.113C31.1463 60.5605 30.9807 60.404 30.8024 60.2947C30.6234 60.1851 30.4283 60.1043 30.2243 60.0553ZM29.1137 58C29.7487 57.9997 30.2284 57.9994 30.6911 58.1105C31.0993 58.2085 31.4895 58.3701 31.8474 58.5894C32.2531 58.8381 32.5922 59.1775 33.041 59.6267C33.0647 59.6504 33.0887 59.6745 33.113 59.6988L33.4142 60L36.2413 60C37.0463 60 37.7106 60 38.2518 60.0442C38.8139 60.0901 39.3306 60.1887 39.816 60.436C40.5686 60.8195 41.1805 61.4314 41.564 62.184C41.8113 62.6694 41.9099 63.1861 41.9558 63.7482C42 64.2894 42 64.9537 42 65.7587V68.2413C42 69.0463 42 69.7106 41.9558 70.2518C41.9099 70.8139 41.8113 71.3306 41.564 71.816C41.1805 72.5686 40.5686 73.1805 39.816 73.564C39.3306 73.8113 38.8139 73.9099 38.2518 73.9558C37.7106 74 37.0463 74 36.2413 74H27.7587C26.9537 74 26.2894 74 25.7482 73.9558C25.1861 73.9099 24.6694 73.8113 24.184 73.564C23.4314 73.1805 22.8195 72.5686 22.436 71.816C22.1887 71.3306 22.0901 70.8139 22.0442 70.2518C22 69.7106 22 69.0463 22 68.2413V63.7587C22 62.9537 22 62.2894 22.0442 61.7482C22.0901 61.1861 22.1887 60.6694 22.436 60.184C22.8195 59.4314 23.4314 58.8195 24.184 58.436C24.6694 58.1887 25.1861 58.0901 25.7482 58.0442C26.2894 58 26.9537 58 27.7587 58L29.0118 58C29.0462 58 29.0801 58 29.1137 58Z" fill="#12131A"/>
<path d="M6.24609 9.91846H2.39941V14H1.2124V4.75781H6.88721V5.76074H2.39941V8.92188H6.24609V9.91846ZM8.58203 10.5024C8.58203 10.0073 8.65397 9.54818 8.79785 9.125C8.94173 8.69759 9.14909 8.32731 9.41992 8.01416C9.68652 7.70101 10.0124 7.45557 10.3975 7.27783C10.7826 7.09587 11.2163 7.00488 11.6987 7.00488C12.1854 7.00488 12.6213 7.09587 13.0063 7.27783C13.3957 7.45557 13.7257 7.70101 13.9966 8.01416C14.2632 8.32731 14.4684 8.69759 14.6123 9.125C14.7562 9.54818 14.8281 10.0073 14.8281 10.5024V10.6421C14.8281 11.1372 14.7562 11.5964 14.6123 12.0195C14.4684 12.4427 14.2632 12.8109 13.9966 13.124C13.7257 13.4372 13.3978 13.6826 13.0127 13.8604C12.6276 14.0381 12.1938 14.127 11.7114 14.127C11.2248 14.127 10.7868 14.0381 10.3975 13.8604C10.0124 13.6826 9.68652 13.4372 9.41992 13.124C9.14909 12.8109 8.94173 12.4427 8.79785 12.0195C8.65397 11.5964 8.58203 11.1372 8.58203 10.6421V10.5024ZM9.75635 10.6421C9.75635 10.9806 9.79655 11.3044 9.87695 11.6133C9.95736 11.918 10.0801 12.1867 10.2451 12.4194C10.4059 12.6522 10.609 12.8363 10.8545 12.9717C11.0999 13.1071 11.3856 13.1748 11.7114 13.1748C12.033 13.1748 12.3145 13.1071 12.5557 12.9717C12.8011 12.8363 13.0063 12.6522 13.1714 12.4194C13.3322 12.1867 13.4528 11.918 13.5332 11.6133C13.6136 11.3044 13.6538 10.9806 13.6538 10.6421V10.5024C13.6538 10.1681 13.6115 9.84863 13.5269 9.54395C13.4465 9.23503 13.3258 8.96419 13.165 8.73145C13 8.4987 12.7948 8.31462 12.5493 8.1792C12.3081 8.03955 12.0246 7.96973 11.6987 7.96973C11.3729 7.96973 11.0894 8.03955 10.8481 8.1792C10.6069 8.31462 10.4059 8.4987 10.2451 8.73145C10.0801 8.96419 9.95736 9.23503 9.87695 9.54395C9.79655 9.84863 9.75635 10.1681 9.75635 10.5024V10.6421ZM16.9038 4.25H20.4141V12.9844H22.6548V14H16.9038V12.9844H19.2397V5.27197H16.9038V4.25ZM24.3052 10.5088C24.3052 9.99674 24.3687 9.52702 24.4956 9.09961C24.6268 8.66797 24.813 8.29769 25.0542 7.98877C25.2912 7.67985 25.5789 7.43864 25.9175 7.26514C26.256 7.09163 26.6348 7.00488 27.0537 7.00488C27.4642 7.00488 27.8218 7.07471 28.1265 7.21436C28.4354 7.34977 28.702 7.54867 28.9263 7.81104V4.25H30.1006V14H29.0215L28.9707 13.2764C28.7422 13.5557 28.4692 13.7673 28.1519 13.9111C27.8345 14.055 27.4642 14.127 27.041 14.127C26.6263 14.127 26.2497 14.0381 25.9111 13.8604C25.5768 13.6826 25.2912 13.4372 25.0542 13.124C24.8172 12.8109 24.6331 12.4427 24.502 12.0195C24.3708 11.5921 24.3052 11.133 24.3052 10.6421V10.5088ZM25.4795 10.6421C25.4795 10.9764 25.5155 11.2938 25.5874 11.5942C25.6593 11.8947 25.7715 12.1592 25.9238 12.3877C26.0719 12.6162 26.2624 12.7982 26.4951 12.9336C26.7279 13.0648 27.0072 13.1304 27.333 13.1304C27.7266 13.1304 28.0524 13.0415 28.3105 12.8638C28.5687 12.686 28.7739 12.4469 28.9263 12.1465V8.95996C28.7739 8.68066 28.5687 8.45215 28.3105 8.27441C28.0524 8.09245 27.7308 8.00146 27.3457 8.00146C27.0156 8.00146 26.7321 8.06917 26.4951 8.20459C26.2624 8.34001 26.0719 8.52197 25.9238 8.75049C25.7715 8.98324 25.6593 9.25195 25.5874 9.55664C25.5155 9.8571 25.4795 10.1745 25.4795 10.5088V10.6421ZM35.3691 14.127C34.8867 14.127 34.4424 14.0444 34.0361 13.8794C33.6341 13.7144 33.2892 13.4837 33.0015 13.1875C32.7137 12.8913 32.4894 12.54 32.3286 12.1338C32.1678 11.7275 32.0874 11.2853 32.0874 10.8071V10.5405C32.0874 9.98617 32.1763 9.49105 32.354 9.05518C32.5317 8.61507 32.7687 8.24268 33.0649 7.93799C33.3569 7.63753 33.6891 7.4069 34.0615 7.24609C34.4382 7.08529 34.8232 7.00488 35.2168 7.00488C35.7119 7.00488 36.1436 7.09163 36.5117 7.26514C36.8841 7.43441 37.193 7.66927 37.4385 7.96973C37.6839 8.27441 37.8659 8.632 37.9844 9.04248C38.1071 9.45296 38.1685 9.8973 38.1685 10.3755V10.9023H33.2617V10.9468C33.2913 11.2811 33.3569 11.5752 33.4585 11.8291C33.5643 12.083 33.7082 12.3073 33.8901 12.502C34.0763 12.7093 34.3006 12.8722 34.563 12.9907C34.8254 13.1092 35.1152 13.1685 35.4326 13.1685C35.8516 13.1685 36.224 13.0838 36.5498 12.9146C36.8757 12.7453 37.1465 12.521 37.3623 12.2417L38.0796 12.8003C37.8511 13.1473 37.5083 13.4562 37.0513 13.7271C36.5985 13.9937 36.0378 14.127 35.3691 14.127ZM35.2168 7.96973C34.9798 7.96973 34.7555 8.01416 34.5439 8.10303C34.3324 8.18766 34.1419 8.3125 33.9727 8.47754C33.8034 8.64681 33.6595 8.85417 33.541 9.09961C33.4268 9.34082 33.3464 9.62012 33.2998 9.9375H36.9941V9.88037C36.9941 9.66878 36.9539 9.44238 36.8735 9.20117C36.7931 8.95573 36.681 8.74414 36.5371 8.56641C36.3932 8.38867 36.2113 8.24479 35.9912 8.13477C35.7754 8.02474 35.5173 7.96973 35.2168 7.96973ZM44.6431 7.00488C44.8589 7.00488 45.0832 7.01969 45.3159 7.04932C45.5529 7.07894 45.7306 7.11914 45.8491 7.16992L45.6904 8.31885C45.4619 8.26807 45.244 8.2321 45.0366 8.21094C44.8335 8.18555 44.6198 8.17285 44.3955 8.17285C44.1077 8.17285 43.8475 8.20882 43.6147 8.28076C43.382 8.34847 43.1789 8.45003 43.0054 8.58545C42.8488 8.70394 42.7113 8.84993 42.5928 9.02344C42.4785 9.19271 42.3833 9.38314 42.3071 9.59473V14H41.1265V7.13184H42.2437L42.2944 8.05225L42.3008 8.22363C42.5801 7.84701 42.9144 7.55078 43.3037 7.33496C43.6973 7.11491 44.1437 7.00488 44.6431 7.00488Z" fill="#696C80"/>
</svg>
