<svg width="160" height="98" viewBox="0 0 160 98" fill="none" xmlns="http://www.w3.org/2000/svg">
<rect x="0.5" y="34.5" width="159" height="63" rx="4.5" stroke="#9747FF" stroke-dasharray="10 5"/>
<path d="M119 63.4C119 61.1598 119 60.0397 119.436 59.184C119.819 58.4314 120.431 57.8195 121.184 57.436C122.04 57 123.16 57 125.4 57H130.6C132.84 57 133.96 57 134.816 57.436C135.569 57.8195 136.181 58.4314 136.564 59.184C137 60.0397 137 61.1598 137 63.4V68.6C137 70.8402 137 71.9603 136.564 72.816C136.181 73.5686 135.569 74.1805 134.816 74.564C133.96 75 132.84 75 130.6 75H125.4C123.16 75 122.04 75 121.184 74.564C120.431 74.1805 119.819 73.5686 119.436 72.816C119 71.9603 119 70.8402 119 68.6V63.4Z" fill="#BABDCC"/>
<path d="M122 64C122.552 64 123 63.5523 123 63C123 62.5204 123.001 62.2107 123.017 61.9738C123.032 61.7458 123.059 61.6589 123.076 61.6173C123.178 61.3723 123.372 61.1776 123.617 61.0761C123.659 61.0589 123.746 61.0323 123.974 61.0167C124.211 61.0005 124.52 61 125 61C125.552 61 126 60.5523 126 60C126 59.4477 125.552 59 125 59H124.968C124.529 59 124.151 59 123.838 59.0214C123.508 59.0439 123.178 59.0934 122.852 59.2284C122.117 59.5328 121.533 60.1169 121.228 60.852C121.093 61.1779 121.044 61.5078 121.021 61.8376C121 62.1509 121 62.5293 121 62.968V63C121 63.5523 121.448 64 122 64Z" fill="#12131A"/>
<path d="M123 69C123 68.4477 122.552 68 122 68C121.448 68 121 68.4477 121 69V69.032C121 69.4706 121 69.8491 121.021 70.1624C121.044 70.4922 121.093 70.8221 121.228 71.1481C121.533 71.8831 122.117 72.4672 122.852 72.7716C123.178 72.9066 123.508 72.9561 123.838 72.9787C124.151 73 124.529 73 124.968 73L125 73C125.552 73 126 72.5523 126 72C126 71.4477 125.552 71 125 71C124.52 71 124.211 70.9995 123.974 70.9833C123.746 70.9677 123.659 70.9411 123.617 70.9239C123.372 70.8224 123.178 70.6277 123.076 70.3827C123.059 70.3411 123.032 70.2542 123.017 70.0262C123.001 69.7893 123 69.4796 123 69Z" fill="#12131A"/>
<path d="M133 69C133 68.4477 133.448 68 134 68C134.552 68 135 68.4477 135 69V69.032C135 69.4706 135 69.8491 134.979 70.1624C134.956 70.4922 134.907 70.8221 134.772 71.1481C134.467 71.8831 133.883 72.4672 133.148 72.7716C132.822 72.9066 132.492 72.9561 132.162 72.9787C131.849 73 131.471 73 131.032 73L131 73C130.448 73 130 72.5523 130 72C130 71.4477 130.448 71 131 71C131.48 71 131.789 70.9995 132.026 70.9833C132.254 70.9677 132.341 70.9411 132.383 70.9239C132.628 70.8224 132.822 70.6277 132.924 70.3827C132.941 70.3411 132.968 70.2542 132.983 70.0262C132.999 69.7893 133 69.4796 133 69Z" fill="#12131A"/>
<path d="M133 63C133 63.5523 133.448 64 134 64C134.552 64 135 63.5523 135 63V62.968C135 62.5294 135 62.1509 134.979 61.8376C134.956 61.5078 134.907 61.1779 134.772 60.852C134.467 60.1169 133.883 59.5328 133.148 59.2284C132.822 59.0934 132.492 59.0439 132.162 59.0214C131.849 59 131.471 59 131.032 59H131C130.448 59 130 59.4477 130 60C130 60.5523 130.448 61 131 61C131.48 61 131.789 61.0005 132.026 61.0167C132.254 61.0323 132.341 61.0589 132.383 61.0761C132.628 61.1776 132.822 61.3723 132.924 61.6173C132.941 61.6589 132.968 61.7458 132.983 61.9738C132.999 62.2107 133 62.5204 133 63Z" fill="#12131A"/>
<path fill-rule="evenodd" clip-rule="evenodd" d="M71 63.4C71 61.1598 71 60.0397 71.436 59.184C71.8195 58.4314 72.4314 57.8195 73.184 57.436C74.0397 57 75.1598 57 77.4 57H82.6C84.8402 57 85.9603 57 86.816 57.436C87.5686 57.8195 88.1805 58.4314 88.564 59.184C89 60.0397 89 61.1598 89 63.4V68.6C89 70.8402 89 71.9603 88.564 72.816C88.1805 73.5686 87.5686 74.1805 86.816 74.564C85.9603 75 84.8402 75 82.6 75H77.4C75.1598 75 74.0397 75 73.184 74.564C72.4314 74.1805 71.8195 73.5686 71.436 72.816C71 71.9603 71 70.8402 71 68.6V63.4ZM74 68C74.5523 68 75 68.4477 75 69C75 69.4796 75.0005 69.7893 75.0167 70.0262C75.0323 70.2542 75.0589 70.3411 75.0761 70.3827C75.1776 70.6277 75.3723 70.8224 75.6173 70.9239C75.6589 70.9411 75.7458 70.9677 75.9738 70.9833C76.2107 70.9995 76.5204 71 77 71C77.5523 71 78 71.4477 78 72C78 72.5523 77.5523 73 77 73H76.968C76.5294 73 76.1509 73 75.8376 72.9787C75.5078 72.9561 75.1779 72.9066 74.8519 72.7716C74.1169 72.4672 73.5328 71.8831 73.2284 71.1481C73.0934 70.8221 73.0439 70.4922 73.0213 70.1624C73 69.8491 73 69.4706 73 69.032L73 69C73 68.4477 73.4477 68 74 68ZM85 69C85 68.4477 85.4477 68 86 68C86.5523 68 87 68.4477 87 69V69.032C87 69.4706 87 69.8491 86.9787 70.1624C86.9561 70.4922 86.9066 70.8221 86.7716 71.1481C86.4672 71.8831 85.8831 72.4672 85.1481 72.7716C84.8221 72.9066 84.4922 72.9561 84.1624 72.9787C83.8491 73 83.4706 73 83.032 73H83C82.4477 73 82 72.5523 82 72C82 71.4477 82.4477 71 83 71C83.4796 71 83.7893 70.9995 84.0262 70.9833C84.2542 70.9677 84.3411 70.9411 84.3827 70.9239C84.6277 70.8224 84.8224 70.6277 84.9239 70.3827C84.9411 70.3411 84.9677 70.2542 84.9833 70.0262C84.9995 69.7893 85 69.4796 85 69ZM74 64C74.5523 64 75 63.5523 75 63C75 62.5204 75.0005 62.2107 75.0167 61.9738C75.0323 61.7458 75.0589 61.6589 75.0761 61.6173C75.1776 61.3723 75.3723 61.1776 75.6173 61.0761C75.6589 61.0589 75.7458 61.0323 75.9738 61.0167C76.2107 61.0005 76.5204 61 77 61C77.5523 61 78 60.5523 78 60C78 59.4477 77.5523 59 77 59L76.968 59C76.5294 59 76.1509 59 75.8376 59.0213C75.5078 59.0439 75.1779 59.0934 74.8519 59.2284C74.1169 59.5328 73.5328 60.1169 73.2284 60.8519C73.0934 61.1779 73.0439 61.5078 73.0213 61.8376C73 62.1509 73 62.5294 73 62.968L73 63C73 63.5523 73.4477 64 74 64ZM85 63C85 63.5523 85.4477 64 86 64C86.5523 64 87 63.5523 87 63V62.968C87 62.5294 87 62.1509 86.9787 61.8376C86.9561 61.5078 86.9066 61.1779 86.7716 60.8519C86.4672 60.1169 85.8831 59.5328 85.1481 59.2284C84.8221 59.0934 84.4922 59.0439 84.1624 59.0213C83.8491 59 83.4706 59 83.032 59L83 59C82.4477 59 82 59.4477 82 60C82 60.5523 82.4477 61 83 61C83.4796 61 83.7893 61.0005 84.0262 61.0167C84.2542 61.0323 84.3411 61.0589 84.3827 61.0761C84.6277 61.1776 84.8224 61.3723 84.9239 61.6173C84.9411 61.6589 84.9677 61.7458 84.9833 61.9738C84.9995 62.2107 85 62.5204 85 63Z" fill="#12131A"/>
<path d="M24 64C24.5523 64 25 63.5523 25 63V62.8C25 61.9434 25.0008 61.3611 25.0376 60.911C25.0734 60.4726 25.1383 60.2484 25.218 60.092C25.4097 59.7157 25.7157 59.4097 26.092 59.218C26.2484 59.1383 26.4726 59.0734 26.911 59.0376C27.3611 59.0008 27.9434 59 28.8 59H29C29.5523 59 30 58.5523 30 58C30 57.4477 29.5523 57 29 57H28.7587C27.9537 57 27.2894 57 26.7482 57.0442C26.1861 57.0901 25.6694 57.1887 25.184 57.436C24.4314 57.8195 23.8195 58.4314 23.436 59.184C23.1887 59.6694 23.0901 60.1861 23.0442 60.7482C23 61.2894 23 61.9537 23 62.7587V63C23 63.5523 23.4477 64 24 64Z" fill="#12131A"/>
<path d="M25 69C25 68.4477 24.5523 68 24 68C23.4477 68 23 68.4477 23 69V69.2413C23 70.0463 23 70.7106 23.0442 71.2518C23.0901 71.8139 23.1887 72.3306 23.436 72.816C23.8195 73.5686 24.4314 74.1805 25.184 74.564C25.6694 74.8113 26.1861 74.9099 26.7482 74.9558C27.2894 75 27.9537 75 28.7587 75H29C29.5523 75 30 74.5523 30 74C30 73.4477 29.5523 73 29 73H28.8C27.9434 73 27.3611 72.9992 26.911 72.9624C26.4726 72.9266 26.2484 72.8617 26.092 72.782C25.7157 72.5903 25.4097 72.2843 25.218 71.908C25.1383 71.7516 25.0734 71.5274 25.0376 71.089C25.0008 70.6389 25 70.0566 25 69.2V69Z" fill="#12131A"/>
<path d="M39 69C39 68.4477 39.4477 68 40 68C40.5523 68 41 68.4477 41 69V69.2413C41 70.0462 41 70.7107 40.9558 71.2518C40.9099 71.8139 40.8113 72.3306 40.564 72.816C40.1805 73.5686 39.5686 74.1805 38.816 74.564C38.3306 74.8113 37.8139 74.9099 37.2518 74.9558C36.7106 75 36.0463 75 35.2413 75H35C34.4477 75 34 74.5523 34 74C34 73.4477 34.4477 73 35 73H35.2C36.0566 73 36.6389 72.9992 37.089 72.9624C37.5274 72.9266 37.7516 72.8617 37.908 72.782C38.2843 72.5903 38.5903 72.2843 38.782 71.908C38.8617 71.7516 38.9266 71.5274 38.9624 71.089C38.9992 70.6389 39 70.0566 39 69.2V69Z" fill="#12131A"/>
<path d="M39 63C39 63.5523 39.4477 64 40 64C40.5523 64 41 63.5523 41 63V62.7587C41 61.9538 41 61.2893 40.9558 60.7482C40.9099 60.1861 40.8113 59.6694 40.564 59.184C40.1805 58.4314 39.5686 57.8195 38.816 57.436C38.3306 57.1887 37.8139 57.0901 37.2518 57.0442C36.7106 57 36.0463 57 35.2413 57H35C34.4477 57 34 57.4477 34 58C34 58.5523 34.4477 59 35 59H35.2C36.0566 59 36.6389 59.0008 37.089 59.0376C37.5274 59.0734 37.7516 59.1383 37.908 59.218C38.2843 59.4097 38.5903 59.7157 38.782 60.092C38.8617 60.2484 38.9266 60.4726 38.9624 60.911C38.9992 61.3611 39 61.9434 39 62.8V63Z" fill="#12131A"/>
<path d="M6.24609 9.91846H2.39941V14H1.2124V4.75781H6.88721V5.76074H2.39941V8.92188H6.24609V9.91846ZM13.438 14L13.3682 13.0542C13.1396 13.3927 12.854 13.6572 12.5112 13.8477C12.1685 14.0339 11.7728 14.127 11.3242 14.127C10.9645 14.127 10.6387 14.0719 10.3467 13.9619C10.0547 13.8477 9.80501 13.672 9.59766 13.4351C9.3903 13.1981 9.22949 12.8976 9.11523 12.5337C9.00521 12.1655 8.9502 11.7254 8.9502 11.2134V7.13184H10.1245V11.2261C10.1245 11.5985 10.1541 11.9074 10.2134 12.1528C10.2726 12.3983 10.3615 12.5929 10.48 12.7368C10.5985 12.8849 10.7424 12.9886 10.9116 13.0479C11.0851 13.1071 11.284 13.1367 11.5083 13.1367C11.7707 13.1367 12.0055 13.1071 12.2129 13.0479C12.4202 12.9844 12.6001 12.8976 12.7524 12.7876C12.8794 12.6987 12.9894 12.5929 13.0825 12.4702C13.1799 12.3433 13.2603 12.2057 13.3237 12.0576V7.13184H14.5044V14H13.438ZM16.9038 4.25H20.4141V12.9844H22.6548V14H16.9038V12.9844H19.2397V5.27197H16.9038V4.25ZM24.7114 4.25H28.2217V12.9844H30.4624V14H24.7114V12.9844H27.0474V5.27197H24.7114V4.25ZM44.9795 11.6641C44.9795 11.3805 44.9139 11.1414 44.7827 10.9468C44.6558 10.7521 44.4907 10.5871 44.2876 10.4517C44.0845 10.3205 43.8602 10.2104 43.6147 10.1216C43.3735 10.0327 43.1408 9.95231 42.9165 9.88037C42.5907 9.77458 42.2585 9.64762 41.9199 9.49951C41.5856 9.34717 41.2809 9.1652 41.0059 8.95361C40.7266 8.73779 40.498 8.48389 40.3203 8.19189C40.1468 7.89567 40.0601 7.54867 40.0601 7.15088C40.0601 6.75309 40.1468 6.39762 40.3203 6.08447C40.498 5.77132 40.7287 5.50684 41.0122 5.29102C41.2957 5.0752 41.6174 4.91227 41.9771 4.80225C42.3368 4.68799 42.6986 4.63086 43.0625 4.63086C43.4645 4.63086 43.8517 4.69857 44.2241 4.83398C44.5965 4.96517 44.9266 5.15137 45.2144 5.39258C45.5021 5.63379 45.7327 5.92578 45.9062 6.26855C46.0798 6.61133 46.1707 6.9943 46.1792 7.41748H44.9731C44.9393 7.15088 44.8737 6.90967 44.7764 6.69385C44.679 6.4738 44.55 6.28548 44.3892 6.12891C44.2284 5.97233 44.0358 5.85173 43.8115 5.76709C43.5915 5.67822 43.3418 5.63379 43.0625 5.63379C42.8382 5.63379 42.6182 5.66553 42.4023 5.729C42.1908 5.79248 42.0024 5.8877 41.8374 6.01465C41.6681 6.1416 41.5327 6.29818 41.4312 6.48438C41.3338 6.67057 41.2852 6.88639 41.2852 7.13184C41.2894 7.39844 41.3571 7.62484 41.4883 7.81104C41.6195 7.993 41.7866 8.14746 41.9897 8.27441C42.1886 8.40137 42.4045 8.50716 42.6372 8.5918C42.8742 8.67643 43.0964 8.75049 43.3037 8.81396C43.6465 8.91976 43.9893 9.04883 44.332 9.20117C44.6748 9.34928 44.988 9.53971 45.2715 9.77246C45.5508 9.98828 45.7751 10.2528 45.9443 10.5659C46.1178 10.8791 46.2046 11.2409 46.2046 11.6514C46.2046 12.0661 46.1115 12.4279 45.9253 12.7368C45.7433 13.0457 45.5063 13.3018 45.2144 13.5049C44.9224 13.7122 44.5923 13.8688 44.2241 13.9746C43.856 14.0762 43.4878 14.127 43.1196 14.127C42.6795 14.127 42.2458 14.0529 41.8184 13.9048C41.3952 13.7567 41.027 13.543 40.7139 13.2637C40.4346 13.0225 40.2124 12.741 40.0474 12.4194C39.8866 12.0936 39.7998 11.7318 39.7871 11.334H40.9868C41.0249 11.6217 41.1032 11.8778 41.2217 12.1021C41.3402 12.3221 41.4925 12.5083 41.6787 12.6606C41.8649 12.8172 42.0786 12.9357 42.3198 13.0161C42.5653 13.0923 42.8319 13.1304 43.1196 13.1304C43.3481 13.1304 43.5724 13.1029 43.7925 13.0479C44.0168 12.9886 44.2157 12.8976 44.3892 12.7749C44.5627 12.6564 44.7044 12.5062 44.8145 12.3242C44.9245 12.138 44.9795 11.918 44.9795 11.6641ZM50.8765 13.1748C51.0881 13.1748 51.2933 13.141 51.4922 13.0732C51.6953 13.0055 51.8752 12.9103 52.0317 12.7876C52.1883 12.6691 52.3132 12.5295 52.4062 12.3687C52.5036 12.2036 52.5544 12.0259 52.5586 11.8354H53.6694C53.6652 12.1401 53.5848 12.4321 53.4282 12.7114C53.2759 12.9865 53.0706 13.2277 52.8125 13.4351C52.5544 13.6466 52.2581 13.8159 51.9238 13.9429C51.5895 14.0656 51.2404 14.127 50.8765 14.127C50.356 14.127 49.901 14.0339 49.5117 13.8477C49.1224 13.6615 48.7987 13.4097 48.5405 13.0923C48.2782 12.7791 48.0814 12.4173 47.9502 12.0068C47.819 11.5921 47.7534 11.1562 47.7534 10.6992V10.4326C47.7534 9.97982 47.819 9.54606 47.9502 9.13135C48.0814 8.71663 48.2782 8.35059 48.5405 8.0332C48.7987 7.72005 49.1224 7.47038 49.5117 7.28418C49.901 7.09798 50.356 7.00488 50.8765 7.00488C51.2827 7.00488 51.6551 7.07048 51.9937 7.20166C52.3364 7.32861 52.6326 7.50212 52.8823 7.72217C53.1278 7.94645 53.3203 8.21094 53.46 8.51562C53.5996 8.82031 53.6694 9.14616 53.6694 9.49316H52.5586C52.5544 9.28581 52.5078 9.09115 52.4189 8.90918C52.3343 8.72298 52.2179 8.56006 52.0698 8.42041C51.9217 8.28076 51.744 8.17074 51.5366 8.09033C51.3335 8.00993 51.1134 7.96973 50.8765 7.96973C50.5125 7.96973 50.2057 8.04378 49.9561 8.19189C49.7106 8.33577 49.5117 8.52409 49.3594 8.75684C49.207 8.99382 49.097 9.2583 49.0293 9.55029C48.9658 9.84229 48.9341 10.1364 48.9341 10.4326V10.6992C48.9341 10.9997 48.9658 11.298 49.0293 11.5942C49.097 11.8862 49.207 12.1486 49.3594 12.3813C49.5075 12.6183 49.7043 12.8109 49.9497 12.959C50.1994 13.1029 50.5083 13.1748 50.8765 13.1748ZM60.2583 7.00488C60.4741 7.00488 60.6984 7.01969 60.9312 7.04932C61.1681 7.07894 61.3459 7.11914 61.4644 7.16992L61.3057 8.31885C61.0771 8.26807 60.8592 8.2321 60.6519 8.21094C60.4487 8.18555 60.235 8.17285 60.0107 8.17285C59.723 8.17285 59.4627 8.20882 59.23 8.28076C58.9972 8.34847 58.7941 8.45003 58.6206 8.58545C58.464 8.70394 58.3265 8.84993 58.208 9.02344C58.0938 9.19271 57.9985 9.38314 57.9224 9.59473V14H56.7417V7.13184H57.8589L57.9097 8.05225L57.916 8.22363C58.1953 7.84701 58.5296 7.55078 58.9189 7.33496C59.3125 7.11491 59.759 7.00488 60.2583 7.00488ZM66.5996 14.127C66.1172 14.127 65.6729 14.0444 65.2666 13.8794C64.8646 13.7144 64.5197 13.4837 64.2319 13.1875C63.9442 12.8913 63.7199 12.54 63.5591 12.1338C63.3983 11.7275 63.3179 11.2853 63.3179 10.8071V10.5405C63.3179 9.98617 63.4067 9.49105 63.5845 9.05518C63.7622 8.61507 63.9992 8.24268 64.2954 7.93799C64.5874 7.63753 64.9196 7.4069 65.292 7.24609C65.6686 7.08529 66.0537 7.00488 66.4473 7.00488C66.9424 7.00488 67.374 7.09163 67.7422 7.26514C68.1146 7.43441 68.4235 7.66927 68.6689 7.96973C68.9144 8.27441 69.0964 8.632 69.2148 9.04248C69.3376 9.45296 69.3989 9.8973 69.3989 10.3755V10.9023H64.4922V10.9468C64.5218 11.2811 64.5874 11.5752 64.689 11.8291C64.7948 12.083 64.9386 12.3073 65.1206 12.502C65.3068 12.7093 65.5311 12.8722 65.7935 12.9907C66.0558 13.1092 66.3457 13.1685 66.6631 13.1685C67.082 13.1685 67.4544 13.0838 67.7803 12.9146C68.1061 12.7453 68.377 12.521 68.5928 12.2417L69.3101 12.8003C69.0815 13.1473 68.7388 13.4562 68.2817 13.7271C67.8289 13.9937 67.2682 14.127 66.5996 14.127ZM66.4473 7.96973C66.2103 7.96973 65.986 8.01416 65.7744 8.10303C65.5628 8.18766 65.3724 8.3125 65.2031 8.47754C65.0339 8.64681 64.89 8.85417 64.7715 9.09961C64.6572 9.34082 64.5768 9.62012 64.5303 9.9375H68.2246V9.88037C68.2246 9.66878 68.1844 9.44238 68.104 9.20117C68.0236 8.95573 67.9115 8.74414 67.7676 8.56641C67.6237 8.38867 67.4417 8.24479 67.2217 8.13477C67.0059 8.02474 66.7477 7.96973 66.4473 7.96973ZM74.4072 14.127C73.9248 14.127 73.4805 14.0444 73.0742 13.8794C72.6722 13.7144 72.3273 13.4837 72.0396 13.1875C71.7518 12.8913 71.5275 12.54 71.3667 12.1338C71.2059 11.7275 71.1255 11.2853 71.1255 10.8071V10.5405C71.1255 9.98617 71.2144 9.49105 71.3921 9.05518C71.5698 8.61507 71.8068 8.24268 72.103 7.93799C72.395 7.63753 72.7272 7.4069 73.0996 7.24609C73.4762 7.08529 73.8613 7.00488 74.2549 7.00488C74.75 7.00488 75.1816 7.09163 75.5498 7.26514C75.9222 7.43441 76.2311 7.66927 76.4766 7.96973C76.722 8.27441 76.904 8.632 77.0225 9.04248C77.1452 9.45296 77.2065 9.8973 77.2065 10.3755V10.9023H72.2998V10.9468C72.3294 11.2811 72.395 11.5752 72.4966 11.8291C72.6024 12.083 72.7463 12.3073 72.9282 12.502C73.1144 12.7093 73.3387 12.8722 73.6011 12.9907C73.8634 13.1092 74.1533 13.1685 74.4707 13.1685C74.8896 13.1685 75.262 13.0838 75.5879 12.9146C75.9137 12.7453 76.1846 12.521 76.4004 12.2417L77.1177 12.8003C76.8892 13.1473 76.5464 13.4562 76.0894 13.7271C75.6366 13.9937 75.0758 14.127 74.4072 14.127ZM74.2549 7.96973C74.0179 7.96973 73.7936 8.01416 73.582 8.10303C73.3704 8.18766 73.18 8.3125 73.0107 8.47754C72.8415 8.64681 72.6976 8.85417 72.5791 9.09961C72.4648 9.34082 72.3844 9.62012 72.3379 9.9375H76.0322V9.88037C76.0322 9.66878 75.992 9.44238 75.9116 9.20117C75.8312 8.95573 75.7191 8.74414 75.5752 8.56641C75.4313 8.38867 75.2493 8.24479 75.0293 8.13477C74.8135 8.02474 74.5553 7.96973 74.2549 7.96973ZM79.1807 14V7.13184H80.2344L80.3169 8.14746C80.4185 8.00358 80.5285 7.8724 80.647 7.75391C80.7697 7.63118 80.8988 7.52539 81.0342 7.43652C81.2373 7.30111 81.4574 7.19743 81.6943 7.12549C81.9355 7.04932 82.1895 7.00911 82.4561 7.00488C82.8158 7.00488 83.1416 7.05566 83.4336 7.15723C83.7298 7.25879 83.9816 7.41748 84.189 7.6333C84.3963 7.84912 84.555 8.12419 84.665 8.4585C84.7793 8.78857 84.8364 9.18213 84.8364 9.63916V14H83.6621V9.66455C83.6621 9.35986 83.6283 9.10173 83.5605 8.89014C83.4928 8.67855 83.3934 8.50716 83.2622 8.37598C83.1268 8.24479 82.9618 8.14958 82.7671 8.09033C82.5767 8.03109 82.3566 8.00146 82.1069 8.00146C81.8911 8.00146 81.6901 8.0332 81.5039 8.09668C81.3177 8.15592 81.1463 8.23844 80.9897 8.34424C80.8628 8.43734 80.7443 8.54525 80.6343 8.66797C80.5285 8.79069 80.4354 8.92611 80.355 9.07422V14H79.1807Z" fill="#696C80"/>
</svg>
