<svg width="160" height="98" viewBox="0 0 160 98" fill="none" xmlns="http://www.w3.org/2000/svg">
<rect x="0.5" y="34.5" width="159" height="63" rx="4.5" stroke="#9747FF" stroke-dasharray="10 5"/>
<path d="M131.568 57C131.316 57 131.07 56.9999 130.862 57.017C130.633 57.0356 130.363 57.0797 130.092 57.218C129.716 57.4097 129.41 57.7157 129.218 58.092C129.08 58.3634 129.036 58.6332 129.017 58.8618C129 59.0699 129 59.3157 129 59.5681V62.4319C129 62.6843 129 62.9301 129.017 63.1382C129.036 63.3668 129.08 63.6366 129.218 63.908C129.41 64.2843 129.716 64.5903 130.092 64.782C130.363 64.9203 130.633 64.9644 130.862 64.9831C131.07 65.0001 131.316 65 131.568 65H134.432C134.684 65 134.93 65.0001 135.138 64.9831C135.367 64.9644 135.637 64.9203 135.908 64.782C136.284 64.5903 136.59 64.2843 136.782 63.908C136.92 63.6366 136.964 63.3668 136.983 63.1382C137 62.9301 137 62.6843 137 62.4319V59.5681C137 59.3157 137 59.0699 136.983 58.8618C136.964 58.6332 136.92 58.3634 136.782 58.092C136.59 57.7157 136.284 57.4097 135.908 57.218C135.637 57.0797 135.367 57.0356 135.138 57.017C134.93 56.9999 134.684 57 134.432 57L131.568 57Z" fill="#BABDCC"/>
<path d="M121.568 67C121.316 67 121.07 66.9999 120.862 67.017C120.633 67.0356 120.363 67.0797 120.092 67.218C119.716 67.4097 119.41 67.7157 119.218 68.092C119.08 68.3634 119.036 68.6332 119.017 68.8618C119 69.0699 119 69.3157 119 69.5681L119 72.4319C119 72.6843 119 72.9301 119.017 73.1382C119.036 73.3668 119.08 73.6366 119.218 73.908C119.41 74.2843 119.716 74.5903 120.092 74.782C120.363 74.9203 120.633 74.9644 120.862 74.9831C121.07 75.0001 121.316 75 121.568 75H124.432C124.684 75 124.93 75.0001 125.138 74.9831C125.367 74.9644 125.637 74.9203 125.908 74.782C126.284 74.5903 126.59 74.2843 126.782 73.908C126.92 73.6366 126.964 73.3668 126.983 73.1382C127 72.9301 127 72.6843 127 72.4319V69.5681C127 69.3157 127 69.0699 126.983 68.8618C126.964 68.6332 126.92 68.3634 126.782 68.092C126.59 67.7157 126.284 67.4097 125.908 67.218C125.637 67.0797 125.367 67.0356 125.138 67.017C124.93 66.9999 124.684 67 124.432 67H121.568Z" fill="#BABDCC"/>
<path d="M131.568 67C131.316 67 131.07 66.9999 130.862 67.017C130.633 67.0356 130.363 67.0797 130.092 67.218C129.716 67.4097 129.41 67.7157 129.218 68.092C129.08 68.3634 129.036 68.6332 129.017 68.8618C129 69.0699 129 69.3157 129 69.5681V72.4319C129 72.6843 129 72.9301 129.017 73.1382C129.036 73.3668 129.08 73.6366 129.218 73.908C129.41 74.2843 129.716 74.5903 130.092 74.782C130.363 74.9203 130.633 74.9644 130.862 74.9831C131.07 75.0001 131.316 75 131.568 75H134.432C134.684 75 134.93 75.0001 135.138 74.9831C135.367 74.9644 135.637 74.9203 135.908 74.782C136.284 74.5903 136.59 74.2843 136.782 73.908C136.92 73.6366 136.964 73.3668 136.983 73.1382C137 72.9301 137 72.6843 137 72.4319V69.5681C137 69.3157 137 69.0699 136.983 68.8618C136.964 68.6332 136.92 68.3634 136.782 68.092C136.59 67.7157 136.284 67.4097 135.908 67.218C135.637 67.0797 135.367 67.0356 135.138 67.017C134.93 66.9999 134.684 67 134.432 67H131.568Z" fill="#BABDCC"/>
<path d="M121.568 57C121.316 57 121.07 56.9999 120.862 57.017C120.633 57.0356 120.363 57.0797 120.092 57.218C119.716 57.4097 119.41 57.7157 119.218 58.092C119.08 58.3634 119.036 58.6332 119.017 58.8618C119 59.0699 119 59.3157 119 59.5681L119 62.4319C119 62.6843 119 62.9301 119.017 63.1382C119.036 63.3668 119.08 63.6366 119.218 63.908C119.41 64.2843 119.716 64.5903 120.092 64.782C120.363 64.9203 120.633 64.9644 120.862 64.9831C121.07 65.0001 121.316 65 121.568 65H124.432C124.684 65 124.93 65.0001 125.138 64.9831C125.367 64.9644 125.637 64.9203 125.908 64.782C126.284 64.5903 126.59 64.2843 126.782 63.908C126.92 63.6366 126.964 63.3668 126.983 63.1382C127 62.9301 127 62.6843 127 62.4319V59.5681C127 59.3157 127 59.0699 126.983 58.8618C126.964 58.6332 126.92 58.3634 126.782 58.092C126.59 57.7157 126.284 57.4097 125.908 57.218C125.637 57.0797 125.367 57.0356 125.138 57.017C124.93 56.9999 124.684 57 124.432 57L121.568 57Z" fill="#12131A"/>
<path d="M83.5681 57C83.3157 57 83.0699 56.9999 82.8618 57.017C82.6332 57.0356 82.3634 57.0797 82.092 57.218C81.7157 57.4097 81.4097 57.7157 81.218 58.092C81.0797 58.3634 81.0356 58.6332 81.017 58.8618C80.9999 59.0699 81 59.3157 81 59.5681V62.4319C81 62.6843 80.9999 62.9301 81.017 63.1382C81.0356 63.3668 81.0797 63.6366 81.218 63.908C81.4097 64.2843 81.7157 64.5903 82.092 64.782C82.3634 64.9203 82.6332 64.9644 82.8618 64.9831C83.0699 65.0001 83.3157 65 83.5681 65H86.4319C86.6843 65 86.9301 65.0001 87.1382 64.9831C87.3668 64.9644 87.6366 64.9203 87.908 64.782C88.2843 64.5903 88.5903 64.2843 88.782 63.908C88.9203 63.6366 88.9644 63.3668 88.9831 63.1382C89.0001 62.9301 89 62.6843 89 62.4319V59.5681C89 59.3157 89.0001 59.0699 88.9831 58.8618C88.9644 58.6332 88.9203 58.3634 88.782 58.092C88.5903 57.7157 88.2843 57.4097 87.908 57.218C87.6366 57.0797 87.3668 57.0356 87.1382 57.017C86.9301 56.9999 86.6843 57 86.4319 57L83.5681 57Z" fill="#12131A"/>
<path d="M73.5681 67C73.3157 67 73.0699 66.9999 72.8618 67.017C72.6332 67.0356 72.3634 67.0797 72.092 67.218C71.7157 67.4097 71.4097 67.7157 71.218 68.092C71.0797 68.3634 71.0356 68.6332 71.017 68.8618C70.9999 69.0699 71 69.3157 71 69.5681L71 72.4319C71 72.6843 70.9999 72.9301 71.017 73.1382C71.0356 73.3668 71.0797 73.6366 71.218 73.908C71.4097 74.2843 71.7157 74.5903 72.092 74.782C72.3634 74.9203 72.6332 74.9644 72.8618 74.9831C73.0699 75.0001 73.3157 75 73.5681 75H76.4319C76.6843 75 76.9301 75.0001 77.1382 74.9831C77.3668 74.9644 77.6366 74.9203 77.908 74.782C78.2843 74.5903 78.5903 74.2843 78.782 73.908C78.9203 73.6366 78.9644 73.3668 78.9831 73.1382C79.0001 72.9301 79 72.6843 79 72.4319V69.5681C79 69.3157 79.0001 69.0699 78.9831 68.8618C78.9644 68.6332 78.9203 68.3634 78.782 68.092C78.5903 67.7157 78.2843 67.4097 77.908 67.218C77.6366 67.0797 77.3668 67.0356 77.1382 67.017C76.9301 66.9999 76.6843 67 76.4319 67H73.5681Z" fill="#12131A"/>
<path d="M83.5681 67C83.3157 67 83.0699 66.9999 82.8618 67.017C82.6332 67.0356 82.3634 67.0797 82.092 67.218C81.7157 67.4097 81.4097 67.7157 81.218 68.092C81.0797 68.3634 81.0356 68.6332 81.017 68.8618C80.9999 69.0699 81 69.3157 81 69.5681V72.4319C81 72.6843 80.9999 72.9301 81.017 73.1382C81.0356 73.3668 81.0797 73.6366 81.218 73.908C81.4097 74.2843 81.7157 74.5903 82.092 74.782C82.3634 74.9203 82.6332 74.9644 82.8618 74.9831C83.0699 75.0001 83.3157 75 83.5681 75H86.4319C86.6843 75 86.9301 75.0001 87.1382 74.9831C87.3668 74.9644 87.6366 74.9203 87.908 74.782C88.2843 74.5903 88.5903 74.2843 88.782 73.908C88.9203 73.6366 88.9644 73.3668 88.9831 73.1382C89.0001 72.9301 89 72.6843 89 72.4319V69.5681C89 69.3157 89.0001 69.0699 88.9831 68.8618C88.9644 68.6332 88.9203 68.3634 88.782 68.092C88.5903 67.7157 88.2843 67.4097 87.908 67.218C87.6366 67.0797 87.3668 67.0356 87.1382 67.017C86.9301 66.9999 86.6843 67 86.4319 67H83.5681Z" fill="#12131A"/>
<path d="M73.5681 57C73.3157 57 73.0699 56.9999 72.8618 57.017C72.6332 57.0356 72.3634 57.0797 72.092 57.218C71.7157 57.4097 71.4097 57.7157 71.218 58.092C71.0797 58.3634 71.0356 58.6332 71.017 58.8618C70.9999 59.0699 71 59.3157 71 59.5681L71 62.4319C71 62.6843 70.9999 62.9301 71.017 63.1382C71.0356 63.3668 71.0797 63.6366 71.218 63.908C71.4097 64.2843 71.7157 64.5903 72.092 64.782C72.3634 64.9203 72.6332 64.9644 72.8618 64.9831C73.0699 65.0001 73.3157 65 73.5681 65H76.4319C76.6843 65 76.9301 65.0001 77.1382 64.9831C77.3668 64.9644 77.6366 64.9203 77.908 64.782C78.2843 64.5903 78.5903 64.2843 78.782 63.908C78.9203 63.6366 78.9644 63.3668 78.9831 63.1382C79.0001 62.9301 79 62.6843 79 62.4319V59.5681C79 59.3157 79.0001 59.0699 78.9831 58.8618C78.9644 58.6332 78.9203 58.3634 78.782 58.092C78.5903 57.7157 78.2843 57.4097 77.908 57.218C77.6366 57.0797 77.3668 57.0356 77.1382 57.017C76.9301 56.9999 76.6843 57 76.4319 57L73.5681 57Z" fill="#12131A"/>
<path fill-rule="evenodd" clip-rule="evenodd" d="M37.032 57H36.968C36.5294 57 36.1509 57 35.8376 57.0214C35.5078 57.0439 35.1779 57.0934 34.852 57.2284C34.1169 57.5328 33.5328 58.1169 33.2284 58.852C33.0934 59.1779 33.0439 59.5078 33.0214 59.8376C33 60.1509 33 60.5293 33 60.968V61.032C33 61.4706 33 61.8491 33.0214 62.1624C33.0439 62.4922 33.0934 62.8221 33.2284 63.1481C33.5328 63.8831 34.1169 64.4672 34.852 64.7716C35.1779 64.9066 35.5078 64.9561 35.8376 64.9787C36.1509 65 36.5293 65 36.968 65H37.032C37.4706 65 37.8491 65 38.1624 64.9787C38.4922 64.9561 38.8221 64.9066 39.1481 64.7716C39.8831 64.4672 40.4672 63.8831 40.7716 63.1481C40.9066 62.8221 40.9561 62.4922 40.9787 62.1624C41 61.8491 41 61.4706 41 61.032V60.968C41 60.5294 41 60.1509 40.9787 59.8376C40.9561 59.5078 40.9066 59.1779 40.7716 58.852C40.4672 58.1169 39.8831 57.5328 39.1481 57.2284C38.8221 57.0934 38.4922 57.0439 38.1624 57.0214C37.8491 57 37.4706 57 37.032 57ZM35.6173 59.0761C35.6589 59.0589 35.7458 59.0323 35.9738 59.0167C36.2107 59.0005 36.5204 59 37 59C37.4796 59 37.7893 59.0005 38.0262 59.0167C38.2542 59.0323 38.3411 59.0589 38.3827 59.0761C38.6277 59.1776 38.8224 59.3723 38.9239 59.6173C38.9411 59.6589 38.9677 59.7458 38.9833 59.9738C38.9995 60.2107 39 60.5204 39 61C39 61.4796 38.9995 61.7893 38.9833 62.0262C38.9677 62.2542 38.9411 62.3411 38.9239 62.3827C38.8224 62.6277 38.6277 62.8224 38.3827 62.9239C38.3411 62.9411 38.2542 62.9677 38.0262 62.9833C37.7893 62.9995 37.4796 63 37 63C36.5204 63 36.2107 62.9995 35.9738 62.9833C35.7458 62.9677 35.6589 62.9411 35.6173 62.9239C35.3723 62.8224 35.1776 62.6277 35.0761 62.3827C35.0589 62.3411 35.0323 62.2542 35.0167 62.0262C35.0005 61.7893 35 61.4796 35 61C35 60.5204 35.0005 60.2107 35.0167 59.9738C35.0323 59.7458 35.0589 59.6589 35.0761 59.6173C35.1776 59.3723 35.3723 59.1776 35.6173 59.0761Z" fill="#12131A"/>
<path fill-rule="evenodd" clip-rule="evenodd" d="M26.968 67H27.032C27.4706 67 27.8491 67 28.1624 67.0214C28.4922 67.0439 28.8221 67.0934 29.1481 67.2284C29.8831 67.5328 30.4672 68.1169 30.7716 68.852C30.9066 69.1779 30.9561 69.5078 30.9787 69.8376C31 70.1509 31 70.5293 31 70.968V71.032C31 71.4706 31 71.8491 30.9787 72.1624C30.9561 72.4922 30.9066 72.8221 30.7716 73.1481C30.4672 73.8831 29.8831 74.4672 29.1481 74.7716C28.8221 74.9066 28.4922 74.9561 28.1624 74.9787C27.8491 75 27.4706 75 27.032 75H26.968C26.5294 75 26.1509 75 25.8376 74.9787C25.5078 74.9561 25.1779 74.9066 24.852 74.7716C24.1169 74.4672 23.5328 73.8831 23.2284 73.1481C23.0934 72.8221 23.0439 72.4922 23.0214 72.1624C23 71.8491 23 71.4707 23 71.032V70.968C23 70.5294 23 70.1509 23.0214 69.8376C23.0439 69.5078 23.0934 69.1779 23.2284 68.852C23.5328 68.1169 24.1169 67.5328 24.852 67.2284C25.1779 67.0934 25.5078 67.0439 25.8376 67.0214C26.1509 67 26.5294 67 26.968 67ZM25.9738 69.0167C25.7458 69.0323 25.6589 69.0589 25.6173 69.0761C25.3723 69.1776 25.1776 69.3723 25.0761 69.6173C25.0589 69.6589 25.0323 69.7458 25.0167 69.9738C25.0005 70.2107 25 70.5204 25 71C25 71.4796 25.0005 71.7893 25.0167 72.0262C25.0323 72.2542 25.0589 72.3411 25.0761 72.3827C25.1776 72.6277 25.3723 72.8224 25.6173 72.9239C25.6589 72.9411 25.7458 72.9677 25.9738 72.9833C26.2107 72.9995 26.5204 73 27 73C27.4796 73 27.7893 72.9995 28.0262 72.9833C28.2542 72.9677 28.3411 72.9411 28.3827 72.9239C28.6277 72.8224 28.8224 72.6277 28.9239 72.3827C28.9411 72.3411 28.9677 72.2542 28.9833 72.0262C28.9995 71.7893 29 71.4796 29 71C29 70.5204 28.9995 70.2107 28.9833 69.9738C28.9677 69.7458 28.9411 69.6589 28.9239 69.6173C28.8224 69.3723 28.6277 69.1776 28.3827 69.0761C28.3411 69.0589 28.2542 69.0323 28.0262 69.0167C27.7893 69.0005 27.4796 69 27 69C26.5204 69 26.2107 69.0005 25.9738 69.0167Z" fill="#12131A"/>
<path fill-rule="evenodd" clip-rule="evenodd" d="M36.968 67H37.032C37.4706 67 37.8491 67 38.1624 67.0214C38.4922 67.0439 38.8221 67.0934 39.1481 67.2284C39.8831 67.5328 40.4672 68.1169 40.7716 68.852C40.9066 69.1779 40.9561 69.5078 40.9787 69.8376C41 70.1509 41 70.5294 41 70.968V71.032C41 71.4706 41 71.8491 40.9787 72.1624C40.9561 72.4922 40.9066 72.8221 40.7716 73.1481C40.4672 73.8831 39.8831 74.4672 39.1481 74.7716C38.8221 74.9066 38.4922 74.9561 38.1624 74.9787C37.8491 75 37.4706 75 37.032 75H36.968C36.5294 75 36.1509 75 35.8376 74.9787C35.5078 74.9561 35.1779 74.9066 34.852 74.7716C34.1169 74.4672 33.5328 73.8831 33.2284 73.1481C33.0934 72.8221 33.0439 72.4922 33.0214 72.1624C33 71.8491 33 71.4707 33 71.032V70.968C33 70.5294 33 70.1509 33.0214 69.8376C33.0439 69.5078 33.0934 69.1779 33.2284 68.852C33.5328 68.1169 34.1169 67.5328 34.852 67.2284C35.1779 67.0934 35.5078 67.0439 35.8376 67.0214C36.1509 67 36.5294 67 36.968 67ZM35.9738 69.0167C35.7458 69.0323 35.6589 69.0589 35.6173 69.0761C35.3723 69.1776 35.1776 69.3723 35.0761 69.6173C35.0589 69.6589 35.0323 69.7458 35.0167 69.9738C35.0005 70.2107 35 70.5204 35 71C35 71.4796 35.0005 71.7893 35.0167 72.0262C35.0323 72.2542 35.0589 72.3411 35.0761 72.3827C35.1776 72.6277 35.3723 72.8224 35.6173 72.9239C35.6589 72.9411 35.7458 72.9677 35.9738 72.9833C36.2107 72.9995 36.5204 73 37 73C37.4796 73 37.7893 72.9995 38.0262 72.9833C38.2542 72.9677 38.3411 72.9411 38.3827 72.9239C38.6277 72.8224 38.8224 72.6277 38.9239 72.3827C38.9411 72.3411 38.9677 72.2542 38.9833 72.0262C38.9995 71.7893 39 71.4796 39 71C39 70.5204 38.9995 70.2107 38.9833 69.9738C38.9677 69.7458 38.9411 69.6589 38.9239 69.6173C38.8224 69.3723 38.6277 69.1776 38.3827 69.0761C38.3411 69.0589 38.2542 69.0323 38.0262 69.0167C37.7893 69.0005 37.4796 69 37 69C36.5204 69 36.2107 69.0005 35.9738 69.0167Z" fill="#12131A"/>
<path fill-rule="evenodd" clip-rule="evenodd" d="M26.968 57H27.032C27.4706 57 27.8491 57 28.1624 57.0214C28.4922 57.0439 28.8221 57.0934 29.1481 57.2284C29.8831 57.5328 30.4672 58.1169 30.7716 58.852C30.9066 59.1779 30.9561 59.5078 30.9787 59.8376C31 60.1509 31 60.5294 31 60.968V61.032C31 61.4706 31 61.8491 30.9787 62.1624C30.9561 62.4922 30.9066 62.8221 30.7716 63.1481C30.4672 63.8831 29.8831 64.4672 29.1481 64.7716C28.8221 64.9066 28.4922 64.9561 28.1624 64.9787C27.8491 65 27.4706 65 27.032 65H26.968C26.5294 65 26.1509 65 25.8376 64.9787C25.5078 64.9561 25.1779 64.9066 24.852 64.7716C24.1169 64.4672 23.5328 63.8831 23.2284 63.1481C23.0934 62.8221 23.0439 62.4922 23.0214 62.1624C23 61.8491 23 61.4706 23 61.032V60.968C23 60.5294 23 60.1509 23.0214 59.8376C23.0439 59.5078 23.0934 59.1779 23.2284 58.852C23.5328 58.1169 24.1169 57.5328 24.852 57.2284C25.1779 57.0934 25.5078 57.0439 25.8376 57.0214C26.1509 57 26.5294 57 26.968 57ZM25.9738 59.0167C25.7458 59.0323 25.6589 59.0589 25.6173 59.0761C25.3723 59.1776 25.1776 59.3723 25.0761 59.6173C25.0589 59.6589 25.0323 59.7458 25.0167 59.9738C25.0005 60.2107 25 60.5204 25 61C25 61.4796 25.0005 61.7893 25.0167 62.0262C25.0323 62.2542 25.0589 62.3411 25.0761 62.3827C25.1776 62.6277 25.3723 62.8224 25.6173 62.9239C25.6589 62.9411 25.7458 62.9677 25.9738 62.9833C26.2107 62.9995 26.5204 63 27 63C27.4796 63 27.7893 62.9995 28.0262 62.9833C28.2542 62.9677 28.3411 62.9411 28.3827 62.9239C28.6277 62.8224 28.8224 62.6277 28.9239 62.3827C28.9411 62.3411 28.9677 62.2542 28.9833 62.0262C28.9995 61.7893 29 61.4796 29 61C29 60.5204 28.9995 60.2107 28.9833 59.9738C28.9677 59.7458 28.9411 59.6589 28.9239 59.6173C28.8224 59.3723 28.6277 59.1776 28.3827 59.0761C28.3411 59.0589 28.2542 59.0323 28.0262 59.0167C27.7893 59.0005 27.4796 59 27 59C26.5204 59 26.2107 59.0005 25.9738 59.0167Z" fill="#12131A"/>
<path d="M7.08398 12.7876C6.9401 12.9569 6.78776 13.1113 6.62695 13.251C6.46615 13.3864 6.29899 13.5049 6.12549 13.6064C5.82926 13.7842 5.50977 13.9154 5.16699 14C4.82422 14.0889 4.46452 14.1312 4.08789 14.127C3.70703 14.1227 3.35579 14.0656 3.03418 13.9556C2.7168 13.8413 2.43115 13.6847 2.17725 13.4858C1.92334 13.2912 1.70117 13.0605 1.51074 12.7939C1.32031 12.5273 1.16162 12.2375 1.03467 11.9243C0.903483 11.6154 0.804036 11.2917 0.736328 10.9531C0.672852 10.6104 0.638997 10.2655 0.634766 9.91846V8.8457C0.638997 8.50293 0.66862 8.16227 0.723633 7.82373C0.782878 7.48096 0.871745 7.15299 0.990234 6.83984C1.10872 6.52669 1.25684 6.23682 1.43457 5.97021C1.6123 5.69938 1.82601 5.46452 2.07568 5.26562C2.32113 5.07096 2.60042 4.9165 2.91357 4.80225C3.22673 4.68799 3.57796 4.63086 3.96729 4.63086C4.39893 4.63086 4.79671 4.69857 5.16064 4.83398C5.52458 4.96517 5.84196 5.15348 6.11279 5.39893C6.38363 5.6486 6.60156 5.94906 6.7666 6.30029C6.93164 6.6473 7.0332 7.03662 7.07129 7.46826H5.90967C5.86312 7.20166 5.79118 6.95622 5.69385 6.73193C5.59652 6.50342 5.46956 6.30876 5.31299 6.14795C5.15218 5.98714 4.96175 5.8623 4.7417 5.77344C4.52165 5.68034 4.26562 5.63379 3.97363 5.63379C3.69434 5.63379 3.44678 5.68245 3.23096 5.77979C3.01514 5.87288 2.82682 5.99984 2.66602 6.16064C2.50521 6.32145 2.37191 6.50977 2.26611 6.72559C2.16032 6.93717 2.07357 7.16146 2.00586 7.39844C1.93815 7.63542 1.88949 7.87663 1.85986 8.12207C1.83024 8.36751 1.81543 8.60449 1.81543 8.83301V9.91846C1.81966 10.1512 1.8387 10.3924 1.87256 10.6421C1.91064 10.8875 1.96777 11.1287 2.04395 11.3657C2.12012 11.6027 2.21745 11.827 2.33594 12.0386C2.45443 12.2502 2.59831 12.4364 2.76758 12.5972C2.93262 12.758 3.12516 12.887 3.34521 12.9844C3.56527 13.0775 3.81494 13.1261 4.09424 13.1304C4.25505 13.1346 4.4222 13.1283 4.5957 13.1113C4.77344 13.0944 4.94482 13.0605 5.10986 13.0098C5.2749 12.959 5.42936 12.8913 5.57324 12.8066C5.71712 12.7178 5.83773 12.6035 5.93506 12.4639L5.94775 10.3882H4.06885V9.39795H7.06494L7.08398 12.7876ZM13.4126 7.00488C13.6284 7.00488 13.8527 7.01969 14.0854 7.04932C14.3224 7.07894 14.5002 7.11914 14.6187 7.16992L14.46 8.31885C14.2314 8.26807 14.0135 8.2321 13.8062 8.21094C13.603 8.18555 13.3893 8.17285 13.165 8.17285C12.8773 8.17285 12.617 8.20882 12.3843 8.28076C12.1515 8.34847 11.9484 8.45003 11.7749 8.58545C11.6183 8.70394 11.4808 8.84993 11.3623 9.02344C11.248 9.19271 11.1528 9.38314 11.0767 9.59473V14H9.896V7.13184H11.0132L11.064 8.05225L11.0703 8.22363C11.3496 7.84701 11.6839 7.55078 12.0732 7.33496C12.4668 7.11491 12.9132 7.00488 13.4126 7.00488ZM16.9038 7.13184H20.4141V12.9844H22.6548V14H16.9038V12.9844H19.2397V8.15381H16.9038V7.13184ZM19.0874 5.3291C19.0874 5.22754 19.1022 5.13232 19.1318 5.04346C19.1657 4.95459 19.2165 4.87842 19.2842 4.81494C19.3392 4.75993 19.409 4.71761 19.4937 4.68799C19.5825 4.65413 19.682 4.63721 19.792 4.63721C19.902 4.63721 19.9993 4.65413 20.084 4.68799C20.1686 4.71761 20.2384 4.75993 20.2935 4.81494C20.3612 4.87419 20.4119 4.94824 20.4458 5.03711C20.4797 5.12598 20.4966 5.22331 20.4966 5.3291C20.4966 5.51953 20.4373 5.67822 20.3188 5.80518C20.2004 5.93213 20.0247 5.99561 19.792 5.99561C19.555 5.99561 19.3773 5.93213 19.2588 5.80518C19.1445 5.67822 19.0874 5.51953 19.0874 5.3291ZM24.3052 10.5088C24.3052 9.99674 24.3687 9.52702 24.4956 9.09961C24.6268 8.66797 24.813 8.29769 25.0542 7.98877C25.2912 7.67985 25.5789 7.43864 25.9175 7.26514C26.256 7.09163 26.6348 7.00488 27.0537 7.00488C27.4642 7.00488 27.8218 7.07471 28.1265 7.21436C28.4354 7.34977 28.702 7.54867 28.9263 7.81104V4.25H30.1006V14H29.0215L28.9707 13.2764C28.7422 13.5557 28.4692 13.7673 28.1519 13.9111C27.8345 14.055 27.4642 14.127 27.041 14.127C26.6263 14.127 26.2497 14.0381 25.9111 13.8604C25.5768 13.6826 25.2912 13.4372 25.0542 13.124C24.8172 12.8109 24.6331 12.4427 24.502 12.0195C24.3708 11.5921 24.3052 11.133 24.3052 10.6421V10.5088ZM25.4795 10.6421C25.4795 10.9764 25.5155 11.2938 25.5874 11.5942C25.6593 11.8947 25.7715 12.1592 25.9238 12.3877C26.0719 12.6162 26.2624 12.7982 26.4951 12.9336C26.7279 13.0648 27.0072 13.1304 27.333 13.1304C27.7266 13.1304 28.0524 13.0415 28.3105 12.8638C28.5687 12.686 28.7739 12.4469 28.9263 12.1465V8.95996C28.7739 8.68066 28.5687 8.45215 28.3105 8.27441C28.0524 8.09245 27.7308 8.00146 27.3457 8.00146C27.0156 8.00146 26.7321 8.06917 26.4951 8.20459C26.2624 8.34001 26.0719 8.52197 25.9238 8.75049C25.7715 8.98324 25.6593 9.25195 25.5874 9.55664C25.5155 9.8571 25.4795 10.1745 25.4795 10.5088V10.6421ZM45.2842 9.91846H41.4375V14H40.2505V4.75781H45.9253V5.76074H41.4375V8.92188H45.2842V9.91846ZM47.6201 10.5024C47.6201 10.0073 47.6921 9.54818 47.8359 9.125C47.9798 8.69759 48.1872 8.32731 48.458 8.01416C48.7246 7.70101 49.0505 7.45557 49.4355 7.27783C49.8206 7.09587 50.2544 7.00488 50.7368 7.00488C51.2235 7.00488 51.6593 7.09587 52.0444 7.27783C52.4338 7.45557 52.7638 7.70101 53.0347 8.01416C53.3013 8.32731 53.5065 8.69759 53.6504 9.125C53.7943 9.54818 53.8662 10.0073 53.8662 10.5024V10.6421C53.8662 11.1372 53.7943 11.5964 53.6504 12.0195C53.5065 12.4427 53.3013 12.8109 53.0347 13.124C52.7638 13.4372 52.4359 13.6826 52.0508 13.8604C51.6657 14.0381 51.2319 14.127 50.7495 14.127C50.2629 14.127 49.8249 14.0381 49.4355 13.8604C49.0505 13.6826 48.7246 13.4372 48.458 13.124C48.1872 12.8109 47.9798 12.4427 47.8359 12.0195C47.6921 11.5964 47.6201 11.1372 47.6201 10.6421V10.5024ZM48.7944 10.6421C48.7944 10.9806 48.8346 11.3044 48.915 11.6133C48.9954 11.918 49.1182 12.1867 49.2832 12.4194C49.444 12.6522 49.6471 12.8363 49.8926 12.9717C50.138 13.1071 50.4237 13.1748 50.7495 13.1748C51.0711 13.1748 51.3525 13.1071 51.5938 12.9717C51.8392 12.8363 52.0444 12.6522 52.2095 12.4194C52.3703 12.1867 52.4909 11.918 52.5713 11.6133C52.6517 11.3044 52.6919 10.9806 52.6919 10.6421V10.5024C52.6919 10.1681 52.6496 9.84863 52.5649 9.54395C52.4845 9.23503 52.3639 8.96419 52.2031 8.73145C52.0381 8.4987 51.8328 8.31462 51.5874 8.1792C51.3462 8.03955 51.0627 7.96973 50.7368 7.96973C50.411 7.96973 50.1274 8.03955 49.8862 8.1792C49.645 8.31462 49.444 8.4987 49.2832 8.73145C49.1182 8.96419 48.9954 9.23503 48.915 9.54395C48.8346 9.84863 48.7944 10.1681 48.7944 10.5024V10.6421ZM60.2837 14L60.2139 13.0542C59.9854 13.3927 59.6997 13.6572 59.3569 13.8477C59.0142 14.0339 58.6185 14.127 58.1699 14.127C57.8102 14.127 57.4844 14.0719 57.1924 13.9619C56.9004 13.8477 56.6507 13.672 56.4434 13.4351C56.236 13.1981 56.0752 12.8976 55.9609 12.5337C55.8509 12.1655 55.7959 11.7254 55.7959 11.2134V7.13184H56.9702V11.2261C56.9702 11.5985 56.9998 11.9074 57.0591 12.1528C57.1183 12.3983 57.2072 12.5929 57.3257 12.7368C57.4442 12.8849 57.5881 12.9886 57.7573 13.0479C57.9308 13.1071 58.1297 13.1367 58.354 13.1367C58.6164 13.1367 58.8512 13.1071 59.0586 13.0479C59.266 12.9844 59.4458 12.8976 59.5981 12.7876C59.7251 12.6987 59.8351 12.5929 59.9282 12.4702C60.0256 12.3433 60.106 12.2057 60.1694 12.0576V7.13184H61.3501V14H60.2837ZM68.0659 7.00488C68.2817 7.00488 68.506 7.01969 68.7388 7.04932C68.9757 7.07894 69.1535 7.11914 69.272 7.16992L69.1133 8.31885C68.8848 8.26807 68.6668 8.2321 68.4595 8.21094C68.2563 8.18555 68.0426 8.17285 67.8184 8.17285C67.5306 8.17285 67.2703 8.20882 67.0376 8.28076C66.8049 8.34847 66.6017 8.45003 66.4282 8.58545C66.2716 8.70394 66.1341 8.84993 66.0156 9.02344C65.9014 9.19271 65.8062 9.38314 65.73 9.59473V14H64.5493V7.13184H65.6665L65.7173 8.05225L65.7236 8.22363C66.0029 7.84701 66.3372 7.55078 66.7266 7.33496C67.1201 7.11491 67.5666 7.00488 68.0659 7.00488ZM84.9824 10.4644C84.9824 11.0526 84.9147 11.5752 84.7793 12.0322C84.6439 12.485 84.4492 12.8659 84.1953 13.1748C83.9414 13.488 83.6304 13.7249 83.2622 13.8857C82.894 14.0465 82.473 14.127 81.999 14.127C81.5293 14.127 81.1082 14.0487 80.7358 13.8921C80.3634 13.7313 80.0482 13.4922 79.79 13.1748C79.5319 12.8659 79.3351 12.485 79.1997 12.0322C79.0643 11.5752 78.9966 11.0526 78.9966 10.4644V8.2998C78.9966 7.71159 79.0643 7.19108 79.1997 6.73828C79.3351 6.28125 79.5319 5.89616 79.79 5.58301C80.0439 5.26986 80.355 5.03288 80.7231 4.87207C81.0955 4.70703 81.5166 4.62451 81.9863 4.62451C82.4603 4.62451 82.8813 4.70703 83.2495 4.87207C83.6219 5.03288 83.9372 5.26986 84.1953 5.58301C84.4492 5.89616 84.6439 6.28125 84.7793 6.73828C84.9147 7.19108 84.9824 7.71159 84.9824 8.2998V10.4644ZM80.1772 10.2295L83.7764 7.46826C83.7425 7.16357 83.6812 6.89486 83.5923 6.66211C83.5076 6.42513 83.3913 6.22835 83.2432 6.07178C83.0993 5.91097 82.9215 5.79036 82.71 5.70996C82.5026 5.62956 82.2614 5.58936 81.9863 5.58936C81.707 5.58936 81.4595 5.63379 81.2437 5.72266C81.0321 5.80729 80.8522 5.93213 80.7041 6.09717C80.5264 6.30452 80.3931 6.57324 80.3042 6.90332C80.2196 7.22917 80.1772 7.60791 80.1772 8.03955V9.58838C80.1772 9.69417 80.1772 9.79997 80.1772 9.90576C80.1772 10.0116 80.1772 10.1195 80.1772 10.2295ZM83.8018 10.7119V9.4043C83.8018 9.34082 83.8018 9.22021 83.8018 9.04248C83.8018 8.86051 83.8018 8.71029 83.8018 8.5918L80.209 11.3403C80.2471 11.6493 80.3148 11.9222 80.4121 12.1592C80.5094 12.3919 80.6364 12.5845 80.793 12.7368C80.9368 12.8807 81.1104 12.9907 81.3135 13.0669C81.5166 13.1388 81.7451 13.1748 81.999 13.1748C82.2656 13.1748 82.5026 13.1346 82.71 13.0542C82.9173 12.9738 83.0929 12.8574 83.2368 12.7051C83.4315 12.4977 83.5732 12.2269 83.6621 11.8926C83.7552 11.5583 83.8018 11.1647 83.8018 10.7119ZM90.7969 14H89.6226V6.25586L87.2041 7.17627V6.10352L90.7017 4.75781H90.7969V14Z" fill="#696C80"/>
</svg>
