<svg width="160" height="98" viewBox="0 0 160 98" fill="none" xmlns="http://www.w3.org/2000/svg">
<path d="M6.8999 14H5.78906V9.72803H1.99951V14H0.89502V4.75781H1.99951V8.73145H5.78906V4.75781H6.8999V14ZM8.58203 10.5024C8.58203 10.0073 8.65397 9.54818 8.79785 9.125C8.94173 8.69759 9.14909 8.32731 9.41992 8.01416C9.68652 7.70101 10.0124 7.45557 10.3975 7.27783C10.7826 7.09587 11.2163 7.00488 11.6987 7.00488C12.1854 7.00488 12.6213 7.09587 13.0063 7.27783C13.3957 7.45557 13.7257 7.70101 13.9966 8.01416C14.2632 8.32731 14.4684 8.69759 14.6123 9.125C14.7562 9.54818 14.8281 10.0073 14.8281 10.5024V10.6421C14.8281 11.1372 14.7562 11.5964 14.6123 12.0195C14.4684 12.4427 14.2632 12.8109 13.9966 13.124C13.7257 13.4372 13.3978 13.6826 13.0127 13.8604C12.6276 14.0381 12.1938 14.127 11.7114 14.127C11.2248 14.127 10.7868 14.0381 10.3975 13.8604C10.0124 13.6826 9.68652 13.4372 9.41992 13.124C9.14909 12.8109 8.94173 12.4427 8.79785 12.0195C8.65397 11.5964 8.58203 11.1372 8.58203 10.6421V10.5024ZM9.75635 10.6421C9.75635 10.9806 9.79655 11.3044 9.87695 11.6133C9.95736 11.918 10.0801 12.1867 10.2451 12.4194C10.4059 12.6522 10.609 12.8363 10.8545 12.9717C11.0999 13.1071 11.3856 13.1748 11.7114 13.1748C12.033 13.1748 12.3145 13.1071 12.5557 12.9717C12.8011 12.8363 13.0063 12.6522 13.1714 12.4194C13.3322 12.1867 13.4528 11.918 13.5332 11.6133C13.6136 11.3044 13.6538 10.9806 13.6538 10.6421V10.5024C13.6538 10.1681 13.6115 9.84863 13.5269 9.54395C13.4465 9.23503 13.3258 8.96419 13.165 8.73145C13 8.4987 12.7948 8.31462 12.5493 8.1792C12.3081 8.03955 12.0246 7.96973 11.6987 7.96973C11.3729 7.96973 11.0894 8.03955 10.8481 8.1792C10.6069 8.31462 10.4059 8.4987 10.2451 8.73145C10.0801 8.96419 9.95736 9.23503 9.87695 9.54395C9.79655 9.84863 9.75635 10.1681 9.75635 10.5024V10.6421ZM17.2593 7.13184L17.291 7.7793C17.4307 7.53809 17.6126 7.34977 17.8369 7.21436C18.0654 7.07894 18.3405 7.00911 18.6621 7.00488C18.8441 7.00488 19.007 7.02604 19.1509 7.06836C19.299 7.10645 19.4281 7.16357 19.5381 7.23975C19.6185 7.29899 19.6904 7.37093 19.7539 7.45557C19.8216 7.5402 19.8787 7.63542 19.9253 7.74121C19.9845 7.64388 20.0544 7.5529 20.1348 7.46826C20.2152 7.38363 20.3019 7.30957 20.395 7.24609C20.5135 7.17415 20.6447 7.11702 20.7886 7.07471C20.9367 7.03239 21.0975 7.00911 21.271 7.00488C21.508 7.00488 21.7217 7.04085 21.9121 7.11279C22.1025 7.1805 22.2633 7.28206 22.3945 7.41748C22.5384 7.56982 22.6484 7.76872 22.7246 8.01416C22.8008 8.25537 22.8389 8.54102 22.8389 8.87109V14H21.7217V8.8584C21.7217 8.71452 21.7048 8.58757 21.6709 8.47754C21.637 8.36751 21.5884 8.27653 21.5249 8.20459C21.4572 8.13688 21.3726 8.0861 21.271 8.05225C21.1737 8.01839 21.0594 8.00146 20.9282 8.00146C20.7886 8.00146 20.668 8.02051 20.5664 8.05859C20.4648 8.09668 20.3802 8.14746 20.3125 8.21094C20.2448 8.27865 20.1919 8.35693 20.1538 8.4458C20.1157 8.53044 20.0903 8.62565 20.0776 8.73145C20.0776 8.7526 20.0776 8.77376 20.0776 8.79492C20.0776 8.81185 20.0776 8.83301 20.0776 8.8584V14H18.9604V8.85205C18.9604 8.70817 18.9435 8.58122 18.9097 8.47119C18.88 8.36117 18.8314 8.27018 18.7637 8.19824C18.7002 8.13053 18.6198 8.08187 18.5225 8.05225C18.4294 8.01839 18.3193 8.00146 18.1924 8.00146C18.0527 8.00146 17.93 8.01839 17.8242 8.05225C17.7227 8.08187 17.6359 8.1263 17.564 8.18555C17.509 8.2321 17.4603 8.28499 17.418 8.34424C17.3799 8.40348 17.3481 8.46696 17.3228 8.53467V14H16.2056V7.13184H17.2593ZM27.5615 14.127C27.0791 14.127 26.6348 14.0444 26.2285 13.8794C25.8265 13.7144 25.4816 13.4837 25.1938 13.1875C24.9061 12.8913 24.6818 12.54 24.521 12.1338C24.3602 11.7275 24.2798 11.2853 24.2798 10.8071V10.5405C24.2798 9.98617 24.3687 9.49105 24.5464 9.05518C24.7241 8.61507 24.9611 8.24268 25.2573 7.93799C25.5493 7.63753 25.8815 7.4069 26.2539 7.24609C26.6305 7.08529 27.0156 7.00488 27.4092 7.00488C27.9043 7.00488 28.3359 7.09163 28.7041 7.26514C29.0765 7.43441 29.3854 7.66927 29.6309 7.96973C29.8763 8.27441 30.0583 8.632 30.1768 9.04248C30.2995 9.45296 30.3608 9.8973 30.3608 10.3755V10.9023H25.4541V10.9468C25.4837 11.2811 25.5493 11.5752 25.6509 11.8291C25.7567 12.083 25.9006 12.3073 26.0825 12.502C26.2687 12.7093 26.493 12.8722 26.7554 12.9907C27.0177 13.1092 27.3076 13.1685 27.625 13.1685C28.0439 13.1685 28.4163 13.0838 28.7422 12.9146C29.068 12.7453 29.3389 12.521 29.5547 12.2417L30.272 12.8003C30.0435 13.1473 29.7007 13.4562 29.2437 13.7271C28.7909 13.9937 28.2301 14.127 27.5615 14.127ZM27.4092 7.96973C27.1722 7.96973 26.9479 8.01416 26.7363 8.10303C26.5247 8.18766 26.3343 8.3125 26.165 8.47754C25.9958 8.64681 25.8519 8.85417 25.7334 9.09961C25.6191 9.34082 25.5387 9.62012 25.4922 9.9375H29.1865V9.88037C29.1865 9.66878 29.1463 9.44238 29.0659 9.20117C28.9855 8.95573 28.8734 8.74414 28.7295 8.56641C28.5856 8.38867 28.4036 8.24479 28.1836 8.13477C27.9678 8.02474 27.7096 7.96973 27.4092 7.96973ZM45.9443 10.4644C45.9443 11.0526 45.8766 11.5752 45.7412 12.0322C45.6058 12.485 45.4111 12.8659 45.1572 13.1748C44.9033 13.488 44.5923 13.7249 44.2241 13.8857C43.856 14.0465 43.4349 14.127 42.9609 14.127C42.4912 14.127 42.0701 14.0487 41.6978 13.8921C41.3254 13.7313 41.0101 13.4922 40.752 13.1748C40.4938 12.8659 40.297 12.485 40.1616 12.0322C40.0262 11.5752 39.9585 11.0526 39.9585 10.4644V8.2998C39.9585 7.71159 40.0262 7.19108 40.1616 6.73828C40.297 6.28125 40.4938 5.89616 40.752 5.58301C41.0059 5.26986 41.3169 5.03288 41.6851 4.87207C42.0575 4.70703 42.4785 4.62451 42.9482 4.62451C43.4222 4.62451 43.8433 4.70703 44.2114 4.87207C44.5838 5.03288 44.8991 5.26986 45.1572 5.58301C45.4111 5.89616 45.6058 6.28125 45.7412 6.73828C45.8766 7.19108 45.9443 7.71159 45.9443 8.2998V10.4644ZM41.1392 10.2295L44.7383 7.46826C44.7044 7.16357 44.6431 6.89486 44.5542 6.66211C44.4696 6.42513 44.3532 6.22835 44.2051 6.07178C44.0612 5.91097 43.8835 5.79036 43.6719 5.70996C43.4645 5.62956 43.2233 5.58936 42.9482 5.58936C42.6689 5.58936 42.4214 5.63379 42.2056 5.72266C41.994 5.80729 41.8141 5.93213 41.666 6.09717C41.4883 6.30452 41.355 6.57324 41.2661 6.90332C41.1815 7.22917 41.1392 7.60791 41.1392 8.03955V9.58838C41.1392 9.69417 41.1392 9.79997 41.1392 9.90576C41.1392 10.0116 41.1392 10.1195 41.1392 10.2295ZM44.7637 10.7119V9.4043C44.7637 9.34082 44.7637 9.22021 44.7637 9.04248C44.7637 8.86051 44.7637 8.71029 44.7637 8.5918L41.1709 11.3403C41.209 11.6493 41.2767 11.9222 41.374 12.1592C41.4714 12.3919 41.5983 12.5845 41.7549 12.7368C41.8988 12.8807 42.0723 12.9907 42.2754 13.0669C42.4785 13.1388 42.707 13.1748 42.9609 13.1748C43.2275 13.1748 43.4645 13.1346 43.6719 13.0542C43.8792 12.9738 44.0549 12.8574 44.1987 12.7051C44.3934 12.4977 44.5352 12.2269 44.624 11.8926C44.7171 11.5583 44.7637 11.1647 44.7637 10.7119ZM53.6187 14H47.563V13.1558L50.5908 9.7915C50.8617 9.49105 51.0881 9.22445 51.27 8.9917C51.452 8.75895 51.598 8.54313 51.708 8.34424C51.818 8.14958 51.8963 7.96549 51.9429 7.79199C51.9894 7.61426 52.0127 7.43229 52.0127 7.24609C52.0127 7.01758 51.9746 6.80387 51.8984 6.60498C51.8265 6.40186 51.7207 6.22624 51.5811 6.07812C51.4372 5.93001 51.2637 5.81364 51.0605 5.729C50.8617 5.64014 50.6353 5.5957 50.3813 5.5957C50.0724 5.5957 49.8037 5.64014 49.5752 5.729C49.3509 5.81787 49.1647 5.94271 49.0166 6.10352C48.8643 6.26855 48.75 6.46745 48.6738 6.7002C48.6019 6.93294 48.5659 7.1932 48.5659 7.48096H47.3853C47.3853 7.09163 47.453 6.72559 47.5884 6.38281C47.7238 6.03581 47.9206 5.73324 48.1787 5.4751C48.4326 5.21696 48.7437 5.01172 49.1118 4.85938C49.4842 4.70703 49.9074 4.63086 50.3813 4.63086C50.8172 4.63086 51.2087 4.69645 51.5557 4.82764C51.9069 4.95459 52.2031 5.13232 52.4443 5.36084C52.6855 5.58936 52.8696 5.86019 52.9966 6.17334C53.1278 6.48649 53.1934 6.82715 53.1934 7.19531C53.1934 7.47038 53.1468 7.74333 53.0537 8.01416C52.9606 8.28076 52.8358 8.54525 52.6792 8.80762C52.5184 9.06999 52.3322 9.33024 52.1206 9.58838C51.9132 9.84229 51.6932 10.0962 51.4604 10.3501L48.9785 13.0415H53.6187V14Z" fill="#696C80"/>
<rect x="0.5" y="34.5" width="159" height="63" rx="4.5" stroke="#9747FF" stroke-dasharray="10 5"/>
<path d="M128.708 57.0808C128.243 56.9679 127.757 56.9679 127.292 57.0808C126.761 57.2099 126.291 57.5288 125.757 57.8919L120.756 61.2802C120.329 61.5684 119.954 61.8222 119.672 62.1684C119.426 62.472 119.24 62.821 119.128 63.1958C118.999 63.6231 118.999 64.0762 119 64.5909L119 70.8389C119 71.366 119 71.8208 119.031 72.1954C119.063 72.5907 119.134 72.9839 119.327 73.3623C119.615 73.9268 120.074 74.3857 120.638 74.6733C121.016 74.8661 121.41 74.9375 121.805 74.9698C122.18 75.0004 122.634 75.0003 123.161 75.0003H132.839C133.366 75.0003 133.82 75.0004 134.195 74.9698C134.59 74.9375 134.984 74.8661 135.362 74.6733C135.926 74.3857 136.385 73.9268 136.673 73.3623C136.866 72.9839 136.937 72.5907 136.969 72.1954C137 71.8208 137 71.366 137 70.8389L137 64.5909C137.001 64.0762 137.001 63.6231 136.873 63.1958C136.76 62.821 136.574 62.472 136.328 62.1684C136.046 61.8222 135.671 61.5684 135.244 61.2802L130.243 57.8919C129.709 57.5288 129.239 57.2099 128.708 57.0808Z" fill="#BABDCC"/>
<path d="M80.7078 57.0808C80.2427 56.9679 79.7573 56.9679 79.2922 57.0808C78.7606 57.2099 78.2913 57.5288 77.7571 57.8919L72.7559 61.2802C72.3295 61.5684 71.954 61.8222 71.6725 62.1684C71.4255 62.472 71.2404 62.821 71.1275 63.1958C70.9988 63.6231 70.9993 64.0762 70.9999 64.5909L71 70.8389C71 71.366 71 71.8208 71.0306 72.1954C71.0629 72.5907 71.1342 72.9839 71.327 73.3623C71.6146 73.9268 72.0736 74.3857 72.638 74.6733C73.0164 74.8661 73.4096 74.9375 73.805 74.9698C74.1795 75.0004 74.6343 75.0003 75.1614 75.0003H84.8386C85.3657 75.0003 85.8205 75.0004 86.195 74.9698C86.5904 74.9375 86.9836 74.8661 87.362 74.6733C87.9265 74.3857 88.3854 73.9268 88.673 73.3623C88.8658 72.9839 88.9371 72.5907 88.9694 72.1954C89 71.8208 89 71.366 89 70.8389L89.0001 64.5909C89.0007 64.0762 89.0012 63.6231 88.8725 63.1958C88.7596 62.821 88.5745 62.472 88.3276 62.1684C88.046 61.8222 87.6706 61.5684 87.2442 61.2802L82.243 57.8919C81.7087 57.5288 81.2394 57.2099 80.7078 57.0808Z" fill="#12131A"/>
<path fill-rule="evenodd" clip-rule="evenodd" d="M32.4889 59.0601C32.168 58.9792 31.832 58.9792 31.5111 59.0601C31.1917 59.1406 30.8688 59.3497 29.8001 60.1084L26.6001 62.3804C25.8111 62.9406 25.5864 63.1119 25.4291 63.3115C25.2713 63.5118 25.1532 63.7404 25.0812 63.985C25.0096 64.2288 25 64.5112 25 65.4789V69.2C25 70.0566 25.0008 70.6389 25.0375 71.089C25.0734 71.5274 25.1383 71.7516 25.218 71.908C25.4097 72.2844 25.7157 72.5903 26.092 72.7821C26.2484 72.8617 26.4726 72.9267 26.911 72.9625C27.3611 72.9993 27.9434 73 28.8 73H35.2C36.0566 73 36.6389 72.9993 37.089 72.9625C37.5274 72.9267 37.7516 72.8617 37.908 72.7821C38.2843 72.5903 38.5903 72.2844 38.782 71.908C38.8617 71.7516 38.9266 71.5274 38.9624 71.089C38.9992 70.6389 39 70.0566 39 69.2V65.4789C39 64.5112 38.9904 64.2288 38.9187 63.985C38.8468 63.7404 38.7287 63.5118 38.5709 63.3115C38.4136 63.1119 38.1889 62.9406 37.3999 62.3804L34.1999 60.1084C33.1312 59.3497 32.8083 59.1406 32.4889 59.0601ZM31.0222 57.1207C31.664 56.9589 32.336 56.9589 32.9778 57.1207C33.7085 57.305 34.3554 57.765 35.2147 58.3761C35.2617 58.4095 35.3094 58.4434 35.3577 58.4777L38.5577 60.7496C38.5927 60.7745 38.6273 60.799 38.6615 60.8232C39.3008 61.2766 39.7834 61.6188 40.1418 62.0736C40.4575 62.4742 40.6936 62.9315 40.8375 63.4208C41.0008 63.9762 41.0005 64.5679 41 65.3517C41 65.3935 41 65.4359 41 65.4789V69.2414C41 70.0463 41 70.7107 40.9558 71.2519C40.9099 71.814 40.8113 72.3307 40.564 72.816C40.1805 73.5687 39.5686 74.1806 38.816 74.5641C38.3306 74.8114 37.8139 74.9099 37.2518 74.9559C36.7106 75.0001 36.0463 75.0001 35.2413 75H28.7587C27.9537 75.0001 27.2894 75.0001 26.7482 74.9559C26.1861 74.9099 25.6694 74.8114 25.184 74.5641C24.4314 74.1806 23.8195 73.5687 23.436 72.816C23.1887 72.3307 23.0901 71.814 23.0442 71.2519C23 70.7107 23 70.0463 23 69.2413L23 65.4789C23 65.4359 23 65.3935 22.9999 65.3517C22.9995 64.5679 22.9992 63.9762 23.1625 63.4208C23.3064 62.9315 23.5425 62.4742 23.8582 62.0736C24.2166 61.6188 24.6992 61.2766 25.3385 60.8232C25.3727 60.799 25.4073 60.7745 25.4423 60.7496L28.6423 58.4777C28.6906 58.4434 28.7383 58.4095 28.7853 58.3761C29.6446 57.765 30.2915 57.305 31.0222 57.1207Z" fill="#12131A"/>
</svg>
