<svg width="160" height="98" viewBox="0 0 160 98" fill="none" xmlns="http://www.w3.org/2000/svg">
<rect x="0.5" y="34.5" width="159" height="63" rx="4.5" stroke="#9747FF" stroke-dasharray="10 5"/>
<path d="M119 63.4C119 61.1598 119 60.0397 119.436 59.184C119.819 58.4314 120.431 57.8195 121.184 57.436C122.04 57 123.16 57 125.4 57H130.6C132.84 57 133.96 57 134.816 57.436C135.569 57.8195 136.181 58.4314 136.564 59.184C137 60.0397 137 61.1598 137 63.4V68.6C137 70.8402 137 71.9603 136.564 72.816C136.181 73.5686 135.569 74.1805 134.816 74.564C133.96 75 132.84 75 130.6 75H125.4C123.16 75 122.04 75 121.184 74.564C120.431 74.1805 119.819 73.5686 119.436 72.816C119 71.9603 119 70.8402 119 68.6V63.4Z" fill="#BABDCC"/>
<path d="M125 65C126.105 65 127 64.1046 127 63C127 61.8954 126.105 61 125 61C123.895 61 123 61.8954 123 63C123 64.1046 123.895 65 125 65Z" fill="#12131A"/>
<path d="M119 69.0874C119.001 70.0587 119.009 70.799 119.07 71.3958L122.402 69.3355C122.867 69.048 122.923 69.0259 122.962 69.0159C123.027 68.9991 123.095 68.9957 123.161 69.0058C123.201 69.0119 123.259 69.0282 123.751 69.2674L124.279 69.5246L124.369 69.5684C124.743 69.7515 125.119 69.9356 125.528 69.9894C125.883 70.0363 126.245 70.006 126.589 69.9005C126.982 69.7796 127.322 69.5355 127.661 69.2926L127.742 69.2344L130.248 67.4454C130.795 67.0552 130.864 67.0245 130.909 67.0124C130.987 66.9917 131.068 66.99 131.147 67.0073C131.193 67.0175 131.263 67.0452 131.826 67.4119L136.974 70.7665C137 70.1817 137 69.4766 137 68.5999V68.3963L132.918 65.7363L132.822 65.6736C132.426 65.4145 132.029 65.1545 131.58 65.0548C131.188 64.9679 130.781 64.9766 130.394 65.08C129.949 65.1988 129.563 65.4754 129.179 65.751L129.086 65.8177L126.58 67.6068C126.101 67.9489 126.042 67.9763 126.001 67.9888C125.932 68.0099 125.86 68.0159 125.789 68.0065C125.747 68.001 125.683 67.9838 125.154 67.7262L124.626 67.4691L124.543 67.4285C124.194 67.258 123.843 67.0866 123.462 67.0286C123.129 66.9779 122.789 66.9951 122.463 67.079C122.09 67.1751 121.758 67.381 121.428 67.5857L121.35 67.6345L119 69.0874Z" fill="#12131A"/>
<path fill-rule="evenodd" clip-rule="evenodd" d="M71 63.4C71 61.1598 71 60.0397 71.436 59.184C71.8195 58.4314 72.4314 57.8195 73.184 57.436C74.0397 57 75.1598 57 77.4 57H82.6C84.8402 57 85.9603 57 86.816 57.436C87.5686 57.8195 88.1805 58.4314 88.564 59.184C89 60.0397 89 61.1598 89 63.4V66.9202C89 67.4005 89 67.6407 88.8997 67.7742C88.8123 67.8905 88.6786 67.9629 88.5335 67.9726C88.3669 67.9838 88.1657 67.8527 87.7632 67.5904L84.9181 65.7363L84.8222 65.6737C84.4266 65.4146 84.0296 65.1546 83.5799 65.0549C83.1883 64.968 82.7816 64.9766 82.394 65.0801C81.949 65.1988 81.5635 65.4754 81.1792 65.7511L81.0861 65.8178L78.5804 67.6068C78.1013 67.9489 78.0419 67.9763 78.0012 67.9888C77.9326 68.0099 77.8602 68.016 77.789 68.0066C77.7468 68.001 77.6837 67.9839 77.1543 67.7263L76.6259 67.4691L76.5428 67.4285C76.1941 67.2581 75.8435 67.0866 75.4622 67.0286C75.1293 66.978 74.7896 66.9951 74.4635 67.079C74.0899 67.1751 73.7584 67.381 73.4287 67.5857L73.35 67.6345L71.4148 68.8311C71.2337 68.9431 71 68.813 71 68.6V63.4ZM71.4952 71.1328C71.3404 71.2286 71.263 71.2765 71.2074 71.3483C71.1617 71.4075 71.1244 71.4915 71.1111 71.5651C71.095 71.6544 71.1094 71.7334 71.1382 71.8912C71.2027 72.2446 71.2972 72.5437 71.436 72.816C71.8195 73.5686 72.4314 74.1805 73.184 74.564C74.0397 75 75.1598 75 77.4 75H82.6C84.8402 75 85.9603 75 86.816 74.564C87.5686 74.1805 88.1805 73.5686 88.564 72.816C88.7825 72.3872 88.8915 71.892 88.9459 71.2228C88.9586 71.0662 88.9649 70.988 88.9455 70.909C88.9289 70.8416 88.8948 70.772 88.8516 70.7176C88.8011 70.654 88.7311 70.6083 88.5911 70.5171L83.8261 67.4119C83.2635 67.0453 83.1928 67.0176 83.1469 67.0074C83.0685 66.99 82.9872 66.9918 82.9097 67.0124C82.8642 67.0246 82.7948 67.0553 82.2482 67.4455L79.7426 69.2345L79.6614 69.2927C79.3226 69.5355 78.9822 69.7797 78.5887 69.9006C78.2455 70.0061 77.8837 70.0364 77.5277 69.9895C77.1196 69.9357 76.7433 69.7516 76.3689 69.5685L76.2791 69.5246L75.7508 69.2675C75.2591 69.0282 75.2011 69.0119 75.1615 69.0059C75.0949 68.9958 75.027 68.9992 74.9618 69.016C74.9229 69.026 74.8669 69.048 74.4018 69.3356L71.4952 71.1328ZM79 63C79 64.1046 78.1046 65 77 65C75.8954 65 75 64.1046 75 63C75 61.8954 75.8954 61 77 61C78.1046 61 79 61.8954 79 63Z" fill="#12131A"/>
<path d="M23.2041 71.3127C23.1313 70.9958 23.0867 70.6627 23.0578 70.3086C23.0282 69.9458 23.0137 69.5393 23.0067 69.0833L25.3498 67.6345L25.4285 67.5857C25.7582 67.381 26.0898 67.1751 26.4633 67.079C26.7894 66.9951 27.1291 66.9779 27.462 67.0286C27.8433 67.0866 28.194 67.258 28.5426 67.4285L28.6257 67.4691L29.1541 67.7262C29.6835 67.9838 29.7466 68.001 29.7888 68.0065C29.86 68.0159 29.9324 68.0099 30.001 67.9888C30.0417 67.9763 30.1011 67.9489 30.5802 67.6068L33.0859 65.8177L33.179 65.751C33.5633 65.4754 33.9489 65.1988 34.3938 65.08C34.7814 64.9766 35.1881 64.9679 35.5797 65.0548C36.0294 65.1545 36.4264 65.4145 36.822 65.6736L36.9179 65.7363L40.9992 68.3959C40.9966 69.1414 40.986 69.7727 40.9422 70.3086C40.9308 70.4484 40.9169 70.5849 40.8998 70.7184L35.8259 67.4119C35.2633 67.0452 35.1926 67.0175 35.1467 67.0073C35.0684 66.99 34.987 66.9917 34.9095 67.0124C34.864 67.0245 34.7946 67.0552 34.2481 67.4454L31.7424 69.2344L31.6612 69.2926C31.3225 69.5355 30.982 69.7796 30.5886 69.9005C30.2454 70.006 29.8835 70.0363 29.5275 69.9894C29.1194 69.9356 28.7431 69.7515 28.3687 69.5684L28.2789 69.5246L27.7506 69.2674C27.259 69.0282 27.2009 69.0119 27.1613 69.0058C27.0947 68.9957 27.0268 68.9991 26.9616 69.0159C26.9228 69.0259 26.8667 69.048 26.4017 69.3355L23.2041 71.3127Z" fill="#12131A"/>
<path d="M31 63C31 64.1046 30.1046 65 29 65C27.8954 65 27 64.1046 27 63C27 61.8954 27.8954 61 29 61C30.1046 61 31 61.8954 31 63Z" fill="#12131A"/>
<path fill-rule="evenodd" clip-rule="evenodd" d="M30.3572 57H33.6428C34.7266 57 35.6007 57 36.3086 57.0578C37.0375 57.1174 37.6777 57.2432 38.27 57.545C39.2108 58.0243 39.9757 58.7892 40.455 59.73C40.7568 60.3223 40.8826 60.9625 40.9422 61.6914C41 62.3993 41 63.2734 41 64.3572V67.6428C41 68.7266 41 69.6008 40.9422 70.3086C40.8826 71.0375 40.7568 71.6777 40.455 72.27C39.9757 73.2108 39.2108 73.9757 38.27 74.455C37.6777 74.7568 37.0375 74.8826 36.3086 74.9422C35.6008 75 34.7266 75 33.6428 75H30.3572C29.2734 75 28.3993 75 27.6914 74.9422C26.9625 74.8826 26.3223 74.7568 25.73 74.455C24.7892 73.9757 24.0243 73.2108 23.545 72.27C23.2432 71.6777 23.1174 71.0375 23.0578 70.3086C23 69.6007 23 68.7266 23 67.6428V64.3572C23 63.2734 23 62.3993 23.0578 61.6914C23.1174 60.9625 23.2432 60.3223 23.545 59.73C24.0243 58.7892 24.7892 58.0243 25.73 57.545C26.3223 57.2432 26.9625 57.1174 27.6914 57.0578C28.3993 57 29.2734 57 30.3572 57ZM27.8542 59.0512C27.2491 59.1006 26.9014 59.1928 26.638 59.327C26.0735 59.6146 25.6146 60.0735 25.327 60.638C25.1928 60.9014 25.1006 61.2491 25.0512 61.8542C25.0008 62.4711 25 63.2634 25 64.4V67.6C25 68.7366 25.0008 69.5289 25.0512 70.1458C25.1006 70.7509 25.1928 71.0986 25.327 71.362C25.6146 71.9265 26.0735 72.3854 26.638 72.673C26.9014 72.8072 27.2491 72.8994 27.8542 72.9488C28.4711 72.9992 29.2634 73 30.4 73H33.6C34.7366 73 35.5289 72.9992 36.1458 72.9488C36.7509 72.8994 37.0986 72.8072 37.362 72.673C37.9265 72.3854 38.3854 71.9265 38.673 71.362C38.8072 71.0986 38.8994 70.7509 38.9488 70.1458C38.9992 69.5289 39 68.7366 39 67.6V64.4C39 63.2634 38.9992 62.4711 38.9488 61.8542C38.8994 61.2491 38.8072 60.9014 38.673 60.638C38.3854 60.0735 37.9265 59.6146 37.362 59.327C37.0986 59.1928 36.7509 59.1006 36.1458 59.0512C35.5289 59.0008 34.7366 59 33.6 59H30.4C29.2634 59 28.4711 59.0008 27.8542 59.0512Z" fill="#12131A"/>
<path d="M1.10449 4.75781H6.69043V5.77979H4.4751V12.9844H6.69043V14H1.10449V12.9844H3.26904V5.77979H1.10449V4.75781ZM9.45166 7.13184L9.4834 7.7793C9.62305 7.53809 9.80501 7.34977 10.0293 7.21436C10.2578 7.07894 10.5329 7.00911 10.8545 7.00488C11.0365 7.00488 11.1994 7.02604 11.3433 7.06836C11.4914 7.10645 11.6204 7.16357 11.7305 7.23975C11.8109 7.29899 11.8828 7.37093 11.9463 7.45557C12.014 7.5402 12.0711 7.63542 12.1177 7.74121C12.1769 7.64388 12.2467 7.5529 12.3271 7.46826C12.4076 7.38363 12.4943 7.30957 12.5874 7.24609C12.7059 7.17415 12.8371 7.11702 12.981 7.07471C13.1291 7.03239 13.2899 7.00911 13.4634 7.00488C13.7004 7.00488 13.9141 7.04085 14.1045 7.11279C14.2949 7.1805 14.4557 7.28206 14.5869 7.41748C14.7308 7.56982 14.8408 7.76872 14.917 8.01416C14.9932 8.25537 15.0312 8.54102 15.0312 8.87109V14H13.9141V8.8584C13.9141 8.71452 13.8971 8.58757 13.8633 8.47754C13.8294 8.36751 13.7808 8.27653 13.7173 8.20459C13.6496 8.13688 13.5649 8.0861 13.4634 8.05225C13.366 8.01839 13.2518 8.00146 13.1206 8.00146C12.981 8.00146 12.8604 8.02051 12.7588 8.05859C12.6572 8.09668 12.5726 8.14746 12.5049 8.21094C12.4372 8.27865 12.3843 8.35693 12.3462 8.4458C12.3081 8.53044 12.2827 8.62565 12.27 8.73145C12.27 8.7526 12.27 8.77376 12.27 8.79492C12.27 8.81185 12.27 8.83301 12.27 8.8584V14H11.1528V8.85205C11.1528 8.70817 11.1359 8.58122 11.1021 8.47119C11.0724 8.36117 11.0238 8.27018 10.9561 8.19824C10.8926 8.13053 10.8122 8.08187 10.7148 8.05225C10.6217 8.01839 10.5117 8.00146 10.3848 8.00146C10.2451 8.00146 10.1224 8.01839 10.0166 8.05225C9.91504 8.08187 9.82829 8.1263 9.75635 8.18555C9.70133 8.2321 9.65267 8.28499 9.61035 8.34424C9.57227 8.40348 9.54053 8.46696 9.51514 8.53467V14H8.39795V7.13184H9.45166ZM21.2329 14C21.1864 13.9111 21.1483 13.8011 21.1187 13.6699C21.0933 13.5345 21.0742 13.3949 21.0615 13.251C20.943 13.3695 20.8097 13.4816 20.6616 13.5874C20.5177 13.6932 20.359 13.7863 20.1855 13.8667C20.0078 13.9471 19.8195 14.0106 19.6206 14.0571C19.4217 14.1037 19.2101 14.127 18.9858 14.127C18.6219 14.127 18.2918 14.0741 17.9956 13.9683C17.7036 13.8625 17.4561 13.7186 17.2529 13.5366C17.0456 13.3589 16.8848 13.1473 16.7705 12.9019C16.6605 12.6522 16.6055 12.3835 16.6055 12.0957C16.6055 11.7191 16.6795 11.389 16.8276 11.1055C16.98 10.8219 17.1937 10.585 17.4688 10.3945C17.7438 10.2083 18.0739 10.0687 18.459 9.97559C18.8483 9.88249 19.2821 9.83594 19.7603 9.83594H21.0425V9.29639C21.0425 9.08903 21.0044 8.90283 20.9282 8.73779C20.8521 8.57275 20.7441 8.43099 20.6045 8.3125C20.4648 8.19824 20.2935 8.10938 20.0903 8.0459C19.8914 7.98242 19.6672 7.95068 19.4175 7.95068C19.1847 7.95068 18.9753 7.98031 18.7891 8.03955C18.6071 8.0988 18.4526 8.17708 18.3257 8.27441C18.1987 8.37174 18.0993 8.48812 18.0273 8.62354C17.9596 8.75472 17.9258 8.89225 17.9258 9.03613H16.7451C16.7493 8.78646 16.8128 8.54102 16.9355 8.2998C17.0625 8.05859 17.2445 7.84066 17.4814 7.646C17.7142 7.45557 17.9977 7.30111 18.332 7.18262C18.6706 7.06413 19.0535 7.00488 19.481 7.00488C19.8703 7.00488 20.2321 7.05355 20.5664 7.15088C20.9007 7.24398 21.1906 7.38574 21.436 7.57617C21.6772 7.77083 21.8677 8.01204 22.0073 8.2998C22.147 8.58757 22.2168 8.92399 22.2168 9.30908V12.502C22.2168 12.7305 22.238 12.9738 22.2803 13.2319C22.3226 13.4858 22.3818 13.708 22.458 13.8984V14H21.2329ZM19.1572 13.105C19.3857 13.105 19.5994 13.0754 19.7983 13.0161C19.9972 12.9569 20.1792 12.8786 20.3442 12.7812C20.505 12.6839 20.6447 12.5739 20.7632 12.4512C20.8817 12.3242 20.9748 12.193 21.0425 12.0576V10.6675H19.9507C19.5444 10.6675 19.189 10.7035 18.8843 10.7754C18.5838 10.8431 18.3447 10.9489 18.167 11.0928C18.04 11.1943 17.9427 11.3149 17.875 11.4546C17.8115 11.5942 17.7798 11.7529 17.7798 11.9307C17.7798 12.0999 17.8073 12.2565 17.8623 12.4004C17.9215 12.5443 18.0083 12.667 18.1226 12.7686C18.2368 12.8743 18.3807 12.9569 18.5542 13.0161C18.7277 13.0754 18.9287 13.105 19.1572 13.105ZM24.3115 10.5088C24.3115 9.99674 24.3729 9.52702 24.4956 9.09961C24.6226 8.66797 24.8045 8.29769 25.0415 7.98877C25.2785 7.67985 25.5662 7.43864 25.9048 7.26514C26.2433 7.09163 26.6263 7.00488 27.0537 7.00488C27.3288 7.00488 27.5806 7.03662 27.8091 7.1001C28.0418 7.16357 28.2513 7.25667 28.4375 7.37939C28.5391 7.44287 28.6343 7.51693 28.7231 7.60156C28.8162 7.6862 28.903 7.7793 28.9834 7.88086L29.0405 7.13184H30.1069V13.854C30.1069 14.3068 30.035 14.7088 29.8911 15.0601C29.7515 15.4113 29.5547 15.7096 29.3008 15.9551C29.0426 16.2005 28.7358 16.3867 28.3804 16.5137C28.0249 16.6406 27.6313 16.7041 27.1997 16.7041C27.022 16.7041 26.8188 16.6829 26.5903 16.6406C26.3618 16.6025 26.1312 16.5369 25.8984 16.4438C25.6615 16.355 25.4329 16.2344 25.2129 16.082C24.9971 15.9297 24.8109 15.7414 24.6543 15.5171L25.2637 14.8125C25.4076 14.986 25.5557 15.132 25.708 15.2505C25.8604 15.3732 26.0148 15.4705 26.1714 15.5425C26.328 15.6144 26.4845 15.6652 26.6411 15.6948C26.7977 15.7287 26.9543 15.7456 27.1108 15.7456C27.3901 15.7456 27.6419 15.7054 27.8662 15.625C28.0905 15.5446 28.283 15.4261 28.4438 15.2695C28.6004 15.1172 28.721 14.9268 28.8057 14.6982C28.8903 14.4697 28.9326 14.2074 28.9326 13.9111V13.3208C28.8438 13.4224 28.7485 13.5155 28.647 13.6001C28.5496 13.6847 28.4438 13.7588 28.3296 13.8223C28.1519 13.9196 27.9551 13.9937 27.7393 14.0444C27.5234 14.0994 27.2907 14.127 27.041 14.127C26.6221 14.127 26.2433 14.0381 25.9048 13.8604C25.5662 13.6826 25.2806 13.4372 25.0479 13.124C24.8109 12.8109 24.6289 12.4427 24.502 12.0195C24.375 11.5921 24.3115 11.133 24.3115 10.6421V10.5088ZM25.4858 10.6421C25.4858 10.9764 25.5197 11.2938 25.5874 11.5942C25.6593 11.8947 25.7715 12.1592 25.9238 12.3877C26.0719 12.6162 26.2624 12.7982 26.4951 12.9336C26.7279 13.0648 27.0072 13.1304 27.333 13.1304C27.5361 13.1304 27.7181 13.1071 27.8789 13.0605C28.0439 13.0098 28.1921 12.9399 28.3232 12.8511C28.4502 12.7622 28.5645 12.6564 28.666 12.5337C28.7676 12.411 28.8564 12.2756 28.9326 12.1274V8.979C28.8564 8.83512 28.7676 8.70394 28.666 8.58545C28.5645 8.46696 28.4481 8.36328 28.3169 8.27441C28.1857 8.18978 28.0397 8.12419 27.8789 8.07764C27.7181 8.02686 27.5404 8.00146 27.3457 8.00146C27.0156 8.00146 26.7321 8.06917 26.4951 8.20459C26.2624 8.34001 26.0719 8.52197 25.9238 8.75049C25.7715 8.98324 25.6593 9.25195 25.5874 9.55664C25.5197 9.8571 25.4858 10.1745 25.4858 10.5088V10.6421ZM35.3691 14.127C34.8867 14.127 34.4424 14.0444 34.0361 13.8794C33.6341 13.7144 33.2892 13.4837 33.0015 13.1875C32.7137 12.8913 32.4894 12.54 32.3286 12.1338C32.1678 11.7275 32.0874 11.2853 32.0874 10.8071V10.5405C32.0874 9.98617 32.1763 9.49105 32.354 9.05518C32.5317 8.61507 32.7687 8.24268 33.0649 7.93799C33.3569 7.63753 33.6891 7.4069 34.0615 7.24609C34.4382 7.08529 34.8232 7.00488 35.2168 7.00488C35.7119 7.00488 36.1436 7.09163 36.5117 7.26514C36.8841 7.43441 37.193 7.66927 37.4385 7.96973C37.6839 8.27441 37.8659 8.632 37.9844 9.04248C38.1071 9.45296 38.1685 9.8973 38.1685 10.3755V10.9023H33.2617V10.9468C33.2913 11.2811 33.3569 11.5752 33.4585 11.8291C33.5643 12.083 33.7082 12.3073 33.8901 12.502C34.0763 12.7093 34.3006 12.8722 34.563 12.9907C34.8254 13.1092 35.1152 13.1685 35.4326 13.1685C35.8516 13.1685 36.224 13.0838 36.5498 12.9146C36.8757 12.7453 37.1465 12.521 37.3623 12.2417L38.0796 12.8003C37.8511 13.1473 37.5083 13.4562 37.0513 13.7271C36.5985 13.9937 36.0378 14.127 35.3691 14.127ZM35.2168 7.96973C34.9798 7.96973 34.7555 8.01416 34.5439 8.10303C34.3324 8.18766 34.1419 8.3125 33.9727 8.47754C33.8034 8.64681 33.6595 8.85417 33.541 9.09961C33.4268 9.34082 33.3464 9.62012 33.2998 9.9375H36.9941V9.88037C36.9941 9.66878 36.9539 9.44238 36.8735 9.20117C36.7931 8.95573 36.681 8.74414 36.5371 8.56641C36.3932 8.38867 36.2113 8.24479 35.9912 8.13477C35.7754 8.02474 35.5173 7.96973 35.2168 7.96973Z" fill="#696C80"/>
</svg>
