<svg width="160" height="98" viewBox="0 0 160 98" fill="none" xmlns="http://www.w3.org/2000/svg">
<rect x="0.5" y="34.5" width="159" height="63" rx="4.5" stroke="#9747FF" stroke-dasharray="10 5"/>
<path d="M130 60C129.448 60 129 60.4477 129 61C129 61.5523 129.448 62 130 62H136C136.552 62 137 61.5523 137 61C137 60.4477 136.552 60 136 60H130Z" fill="#12131A"/>
<path d="M130 70C129.448 70 129 70.4477 129 71C129 71.5523 129.448 72 130 72H136C136.552 72 137 71.5523 137 71C137 70.4477 136.552 70 136 70H130Z" fill="#12131A"/>
<path d="M119.218 58.092C119 58.5198 119 59.0799 119 60.2V61.8C119 62.9201 119 63.4802 119.218 63.908C119.41 64.2843 119.716 64.5903 120.092 64.782C120.52 65 121.08 65 122.2 65H123.8C124.92 65 125.48 65 125.908 64.782C126.284 64.5903 126.59 64.2843 126.782 63.908C127 63.4802 127 62.9201 127 61.8V60.2C127 59.0799 127 58.5198 126.782 58.092C126.59 57.7157 126.284 57.4097 125.908 57.218C125.48 57 124.92 57 123.8 57H122.2C121.08 57 120.52 57 120.092 57.218C119.716 57.4097 119.41 57.7157 119.218 58.092Z" fill="#BABDCC"/>
<path d="M119.218 68.092C119 68.5198 119 69.0799 119 70.2V71.8C119 72.9201 119 73.4802 119.218 73.908C119.41 74.2843 119.716 74.5903 120.092 74.782C120.52 75 121.08 75 122.2 75H123.8C124.92 75 125.48 75 125.908 74.782C126.284 74.5903 126.59 74.2843 126.782 73.908C127 73.4802 127 72.9201 127 71.8V70.2C127 69.0799 127 68.5198 126.782 68.092C126.59 67.7157 126.284 67.4097 125.908 67.218C125.48 67 124.92 67 123.8 67H122.2C121.08 67 120.52 67 120.092 67.218C119.716 67.4097 119.41 67.7157 119.218 68.092Z" fill="#BABDCC"/>
<path d="M82 60C81.4477 60 81 60.4477 81 61C81 61.5523 81.4477 62 82 62H88C88.5523 62 89 61.5523 89 61C89 60.4477 88.5523 60 88 60H82Z" fill="#12131A"/>
<path d="M82 70C81.4477 70 81 70.4477 81 71C81 71.5523 81.4477 72 82 72H88C88.5523 72 89 71.5523 89 71C89 70.4477 88.5523 70 88 70H82Z" fill="#12131A"/>
<path d="M71.218 58.092C71 58.5198 71 59.0799 71 60.2V61.8C71 62.9201 71 63.4802 71.218 63.908C71.4097 64.2843 71.7157 64.5903 72.092 64.782C72.5198 65 73.0799 65 74.2 65H75.8C76.9201 65 77.4802 65 77.908 64.782C78.2843 64.5903 78.5903 64.2843 78.782 63.908C79 63.4802 79 62.9201 79 61.8V60.2C79 59.0799 79 58.5198 78.782 58.092C78.5903 57.7157 78.2843 57.4097 77.908 57.218C77.4802 57 76.9201 57 75.8 57H74.2C73.0799 57 72.5198 57 72.092 57.218C71.7157 57.4097 71.4097 57.7157 71.218 58.092Z" fill="#12131A"/>
<path d="M71.218 68.092C71 68.5198 71 69.0799 71 70.2V71.8C71 72.9201 71 73.4802 71.218 73.908C71.4097 74.2843 71.7157 74.5903 72.092 74.782C72.5198 75 73.0799 75 74.2 75H75.8C76.9201 75 77.4802 75 77.908 74.782C78.2843 74.5903 78.5903 74.2843 78.782 73.908C79 73.4802 79 72.9201 79 71.8V70.2C79 69.0799 79 68.5198 78.782 68.092C78.5903 67.7157 78.2843 67.4097 77.908 67.218C77.4802 67 76.9201 67 75.8 67H74.2C73.0799 67 72.5198 67 72.092 67.218C71.7157 67.4097 71.4097 67.7157 71.218 68.092Z" fill="#12131A"/>
<path d="M34 60C33.4477 60 33 60.4477 33 61C33 61.5523 33.4477 62 34 62H40C40.5523 62 41 61.5523 41 61C41 60.4477 40.5523 60 40 60H34Z" fill="#12131A"/>
<path d="M34 70C33.4477 70 33 70.4477 33 71C33 71.5523 33.4477 72 34 72H40C40.5523 72 41 71.5523 41 71C41 70.4477 40.5523 70 40 70H34Z" fill="#12131A"/>
<path fill-rule="evenodd" clip-rule="evenodd" d="M27.032 57H26.968C26.5294 57 26.1509 57 25.8376 57.0214C25.5078 57.0439 25.1779 57.0934 24.852 57.2284C24.1169 57.5328 23.5328 58.1169 23.2284 58.852C23.0934 59.1779 23.0439 59.5078 23.0214 59.8376C23 60.1509 23 60.5293 23 60.968V61.032C23 61.4706 23 61.8491 23.0214 62.1624C23.0439 62.4922 23.0934 62.8221 23.2284 63.1481C23.5328 63.8831 24.1169 64.4672 24.852 64.7716C25.1779 64.9066 25.5078 64.9561 25.8376 64.9787C26.1509 65 26.5294 65 26.968 65H27.032C27.4706 65 27.8491 65 28.1624 64.9787C28.4922 64.9561 28.8221 64.9066 29.1481 64.7716C29.8831 64.4672 30.4672 63.8831 30.7716 63.1481C30.9066 62.8221 30.9561 62.4922 30.9787 62.1624C31 61.8491 31 61.4707 31 61.032V60.968C31 60.5294 31 60.1509 30.9787 59.8376C30.9561 59.5078 30.9066 59.1779 30.7716 58.852C30.4672 58.1169 29.8831 57.5328 29.1481 57.2284C28.8221 57.0934 28.4922 57.0439 28.1624 57.0214C27.8491 57 27.4706 57 27.032 57ZM25.6173 59.0761C25.6589 59.0589 25.7458 59.0323 25.9738 59.0167C26.2107 59.0005 26.5204 59 27 59C27.4796 59 27.7893 59.0005 28.0262 59.0167C28.2542 59.0323 28.3411 59.0589 28.3827 59.0761C28.6277 59.1776 28.8224 59.3723 28.9239 59.6173C28.9411 59.6589 28.9677 59.7458 28.9833 59.9738C28.9995 60.2107 29 60.5204 29 61C29 61.4796 28.9995 61.7893 28.9833 62.0262C28.9677 62.2542 28.9411 62.3411 28.9239 62.3827C28.8224 62.6277 28.6277 62.8224 28.3827 62.9239C28.3411 62.9411 28.2542 62.9677 28.0262 62.9833C27.7893 62.9995 27.4796 63 27 63C26.5204 63 26.2107 62.9995 25.9738 62.9833C25.7458 62.9677 25.6589 62.9411 25.6173 62.9239C25.3723 62.8224 25.1776 62.6277 25.0761 62.3827C25.0589 62.3411 25.0323 62.2542 25.0167 62.0262C25.0005 61.7893 25 61.4796 25 61C25 60.5204 25.0005 60.2107 25.0167 59.9738C25.0323 59.7458 25.0589 59.6589 25.0761 59.6173C25.1776 59.3723 25.3723 59.1776 25.6173 59.0761Z" fill="#12131A"/>
<path fill-rule="evenodd" clip-rule="evenodd" d="M27.032 67H26.968C26.5294 67 26.1509 67 25.8376 67.0214C25.5078 67.0439 25.1779 67.0934 24.852 67.2284C24.1169 67.5328 23.5328 68.1169 23.2284 68.852C23.0934 69.1779 23.0439 69.5078 23.0214 69.8376C23 70.1509 23 70.5293 23 70.968V71.032C23 71.4706 23 71.8491 23.0214 72.1624C23.0439 72.4922 23.0934 72.8221 23.2284 73.1481C23.5328 73.8831 24.1169 74.4672 24.852 74.7716C25.1779 74.9066 25.5078 74.9561 25.8376 74.9787C26.1509 75 26.5294 75 26.968 75H27.032C27.4706 75 27.8491 75 28.1624 74.9787C28.4922 74.9561 28.8221 74.9066 29.1481 74.7716C29.8831 74.4672 30.4672 73.8831 30.7716 73.1481C30.9066 72.8221 30.9561 72.4922 30.9787 72.1624C31 71.8491 31 71.4707 31 71.032V70.968C31 70.5294 31 70.1509 30.9787 69.8376C30.9561 69.5078 30.9066 69.1779 30.7716 68.852C30.4672 68.1169 29.8831 67.5328 29.1481 67.2284C28.8221 67.0934 28.4922 67.0439 28.1624 67.0214C27.8491 67 27.4706 67 27.032 67ZM25.6173 69.0761C25.6589 69.0589 25.7458 69.0323 25.9738 69.0167C26.2107 69.0005 26.5204 69 27 69C27.4796 69 27.7893 69.0005 28.0262 69.0167C28.2542 69.0323 28.3411 69.0589 28.3827 69.0761C28.6277 69.1776 28.8224 69.3723 28.9239 69.6173C28.9411 69.6589 28.9677 69.7458 28.9833 69.9738C28.9995 70.2107 29 70.5204 29 71C29 71.4796 28.9995 71.7893 28.9833 72.0262C28.9677 72.2542 28.9411 72.3411 28.9239 72.3827C28.8224 72.6277 28.6277 72.8224 28.3827 72.9239C28.3411 72.9411 28.2542 72.9677 28.0262 72.9833C27.7893 72.9995 27.4796 73 27 73C26.5204 73 26.2107 72.9995 25.9738 72.9833C25.7458 72.9677 25.6589 72.9411 25.6173 72.9239C25.3723 72.8224 25.1776 72.6277 25.0761 72.3827C25.0589 72.3411 25.0323 72.2542 25.0167 72.0262C25.0005 71.7893 25 71.4796 25 71C25 70.5204 25.0005 70.2107 25.0167 69.9738C25.0323 69.7458 25.0589 69.6589 25.0761 69.6173C25.1776 69.3723 25.3723 69.1776 25.6173 69.0761Z" fill="#12131A"/>
<path d="M2.43115 13.0034H6.95068V14H1.25684V4.75781H2.43115V13.0034ZM9.09619 7.13184H12.6064V12.9844H14.8472V14H9.09619V12.9844H11.4321V8.15381H9.09619V7.13184ZM11.2798 5.3291C11.2798 5.22754 11.2946 5.13232 11.3242 5.04346C11.3581 4.95459 11.4089 4.87842 11.4766 4.81494C11.5316 4.75993 11.6014 4.71761 11.686 4.68799C11.7749 4.65413 11.8743 4.63721 11.9844 4.63721C12.0944 4.63721 12.1917 4.65413 12.2764 4.68799C12.361 4.71761 12.4308 4.75993 12.4858 4.81494C12.5535 4.87419 12.6043 4.94824 12.6382 5.03711C12.672 5.12598 12.689 5.22331 12.689 5.3291C12.689 5.51953 12.6297 5.67822 12.5112 5.80518C12.3927 5.93213 12.2171 5.99561 11.9844 5.99561C11.7474 5.99561 11.5697 5.93213 11.4512 5.80518C11.3369 5.67822 11.2798 5.51953 11.2798 5.3291ZM21.2837 12.1782C21.2837 12.0386 21.2562 11.9137 21.2012 11.8037C21.1462 11.6895 21.0531 11.5858 20.9219 11.4927C20.7907 11.3996 20.6172 11.3149 20.4014 11.2388C20.1855 11.1584 19.9168 11.0864 19.5952 11.0229C19.2017 10.9425 18.842 10.8452 18.5161 10.731C18.1945 10.6167 17.9194 10.4792 17.6909 10.3184C17.4582 10.1618 17.2783 9.9777 17.1514 9.76611C17.0244 9.55029 16.9609 9.30062 16.9609 9.01709C16.9609 8.73779 17.0265 8.47754 17.1577 8.23633C17.2889 7.99089 17.473 7.77718 17.71 7.59521C17.9469 7.41325 18.2284 7.26937 18.5542 7.16357C18.8843 7.05778 19.2461 7.00488 19.6396 7.00488C20.0628 7.00488 20.4437 7.0599 20.7822 7.16992C21.1208 7.27995 21.4085 7.43229 21.6455 7.62695C21.8825 7.82161 22.0645 8.05013 22.1914 8.3125C22.3226 8.57064 22.3882 8.84993 22.3882 9.15039H21.2139C21.2139 9.00228 21.1758 8.8584 21.0996 8.71875C21.0234 8.57487 20.9176 8.44792 20.7822 8.33789C20.6468 8.22786 20.4818 8.139 20.2871 8.07129C20.0967 8.00358 19.8809 7.96973 19.6396 7.96973C19.39 7.96973 19.1699 7.99723 18.9795 8.05225C18.7933 8.10726 18.6388 8.18132 18.5161 8.27441C18.3892 8.36751 18.2939 8.47542 18.2305 8.59814C18.167 8.72087 18.1353 8.84782 18.1353 8.979C18.1353 9.11442 18.1606 9.23503 18.2114 9.34082C18.2622 9.44661 18.3511 9.54183 18.478 9.62646C18.6007 9.7111 18.7658 9.78727 18.9731 9.85498C19.1847 9.92269 19.4513 9.98828 19.7729 10.0518C20.1961 10.1406 20.5749 10.2443 20.9092 10.3628C21.2435 10.4771 21.5249 10.6146 21.7534 10.7754C21.9819 10.9404 22.1554 11.1309 22.2739 11.3467C22.3966 11.5625 22.458 11.8122 22.458 12.0957C22.458 12.4004 22.3882 12.6776 22.2485 12.9272C22.1131 13.1769 21.9227 13.3906 21.6772 13.5684C21.4318 13.7461 21.1377 13.8836 20.7949 13.981C20.4521 14.0783 20.0776 14.127 19.6714 14.127C19.2059 14.127 18.7912 14.0656 18.4272 13.9429C18.0633 13.8159 17.7565 13.6488 17.5068 13.4414C17.2529 13.2383 17.0583 13.0013 16.9229 12.7305C16.7917 12.4596 16.7261 12.1782 16.7261 11.8862H17.9004C17.9173 12.1274 17.9808 12.3306 18.0908 12.4956C18.2051 12.6606 18.3468 12.7939 18.5161 12.8955C18.6812 12.9971 18.8652 13.069 19.0684 13.1113C19.2715 13.1536 19.4725 13.1748 19.6714 13.1748C19.9845 13.1748 20.2575 13.1388 20.4902 13.0669C20.723 12.9907 20.9049 12.887 21.0361 12.7559C21.1165 12.6755 21.1779 12.5866 21.2202 12.4893C21.2625 12.3919 21.2837 12.2882 21.2837 12.1782ZM27.3076 5.46875V7.13184H29.9229V8.03955H27.3076V11.772C27.3076 12.0386 27.3415 12.2586 27.4092 12.4321C27.4769 12.6056 27.57 12.7432 27.6885 12.8447C27.807 12.9505 27.9424 13.0246 28.0947 13.0669C28.2513 13.1092 28.4163 13.1304 28.5898 13.1304C28.7168 13.1304 28.848 13.124 28.9834 13.1113C29.1188 13.0944 29.2521 13.0754 29.3833 13.0542C29.5103 13.033 29.6287 13.0119 29.7388 12.9907C29.853 12.9653 29.9461 12.9442 30.0181 12.9272L30.1831 13.7588C30.0858 13.818 29.9673 13.8709 29.8276 13.9175C29.688 13.9598 29.5356 13.9958 29.3706 14.0254C29.2056 14.0592 29.0299 14.0846 28.8438 14.1016C28.6618 14.1185 28.4798 14.127 28.2979 14.127C27.9932 14.127 27.7075 14.0846 27.4409 14C27.1785 13.9111 26.95 13.7715 26.7554 13.5811C26.5607 13.3949 26.4062 13.1536 26.292 12.8574C26.182 12.557 26.127 12.1951 26.127 11.772V8.03955H24.3242V7.13184H26.127V5.46875H27.3076ZM40.1299 14V4.75781H42.8784C43.2593 4.76204 43.6317 4.81283 43.9956 4.91016C44.3595 5.00326 44.6833 5.14925 44.9668 5.34814C45.2503 5.54704 45.4767 5.80094 45.646 6.10986C45.8153 6.41878 45.8978 6.78906 45.8936 7.2207C45.8893 7.46191 45.8491 7.68197 45.7729 7.88086C45.701 8.07975 45.6016 8.25749 45.4746 8.41406C45.3434 8.57487 45.1974 8.71029 45.0366 8.82031C44.88 8.93034 44.6896 9.03402 44.4653 9.13135V9.15039C44.6981 9.2054 44.9224 9.30485 45.1382 9.44873C45.354 9.59261 45.5317 9.7513 45.6714 9.9248C45.8195 10.1152 45.9338 10.3289 46.0142 10.5659C46.0988 10.8029 46.1411 11.0589 46.1411 11.334C46.1453 11.7656 46.0628 12.1465 45.8936 12.4766C45.7243 12.8066 45.4979 13.0817 45.2144 13.3018C44.9308 13.526 44.6029 13.6974 44.2305 13.8159C43.8623 13.9344 43.4814 13.9958 43.0879 14H40.1299ZM41.3105 9.67725V13.0034H43.1196C43.3651 12.9992 43.5978 12.959 43.8179 12.8828C44.0379 12.8024 44.2326 12.6924 44.4019 12.5527C44.5711 12.4131 44.7044 12.2417 44.8018 12.0386C44.9033 11.8354 44.9541 11.6048 44.9541 11.3467C44.9583 11.0843 44.9139 10.8516 44.8208 10.6484C44.7319 10.4453 44.6071 10.2718 44.4463 10.1279C44.2855 9.98828 44.0972 9.88037 43.8813 9.8042C43.6655 9.72803 43.4328 9.68571 43.1831 9.67725H41.3105ZM41.3105 8.69971H42.9482C43.1683 8.69548 43.3841 8.66162 43.5957 8.59814C43.8073 8.53044 43.9956 8.43311 44.1606 8.30615C44.3257 8.18343 44.459 8.03109 44.5605 7.84912C44.6621 7.66715 44.7129 7.45557 44.7129 7.21436C44.7129 6.95622 44.6621 6.73617 44.5605 6.5542C44.4632 6.37223 44.332 6.22201 44.167 6.10352C43.9977 5.98926 43.8031 5.90462 43.583 5.84961C43.3672 5.7946 43.145 5.76497 42.9165 5.76074H41.3105V8.69971ZM47.6201 10.5024C47.6201 10.0073 47.6921 9.54818 47.8359 9.125C47.9798 8.69759 48.1872 8.32731 48.458 8.01416C48.7246 7.70101 49.0505 7.45557 49.4355 7.27783C49.8206 7.09587 50.2544 7.00488 50.7368 7.00488C51.2235 7.00488 51.6593 7.09587 52.0444 7.27783C52.4338 7.45557 52.7638 7.70101 53.0347 8.01416C53.3013 8.32731 53.5065 8.69759 53.6504 9.125C53.7943 9.54818 53.8662 10.0073 53.8662 10.5024V10.6421C53.8662 11.1372 53.7943 11.5964 53.6504 12.0195C53.5065 12.4427 53.3013 12.8109 53.0347 13.124C52.7638 13.4372 52.4359 13.6826 52.0508 13.8604C51.6657 14.0381 51.2319 14.127 50.7495 14.127C50.2629 14.127 49.8249 14.0381 49.4355 13.8604C49.0505 13.6826 48.7246 13.4372 48.458 13.124C48.1872 12.8109 47.9798 12.4427 47.8359 12.0195C47.6921 11.5964 47.6201 11.1372 47.6201 10.6421V10.5024ZM48.7944 10.6421C48.7944 10.9806 48.8346 11.3044 48.915 11.6133C48.9954 11.918 49.1182 12.1867 49.2832 12.4194C49.444 12.6522 49.6471 12.8363 49.8926 12.9717C50.138 13.1071 50.4237 13.1748 50.7495 13.1748C51.0711 13.1748 51.3525 13.1071 51.5938 12.9717C51.8392 12.8363 52.0444 12.6522 52.2095 12.4194C52.3703 12.1867 52.4909 11.918 52.5713 11.6133C52.6517 11.3044 52.6919 10.9806 52.6919 10.6421V10.5024C52.6919 10.1681 52.6496 9.84863 52.5649 9.54395C52.4845 9.23503 52.3639 8.96419 52.2031 8.73145C52.0381 8.4987 51.8328 8.31462 51.5874 8.1792C51.3462 8.03955 51.0627 7.96973 50.7368 7.96973C50.411 7.96973 50.1274 8.03955 49.8862 8.1792C49.645 8.31462 49.444 8.4987 49.2832 8.73145C49.1182 8.96419 48.9954 9.23503 48.915 9.54395C48.8346 9.84863 48.7944 10.1681 48.7944 10.5024V10.6421ZM58.5952 9.67725L60.4297 7.13184H61.8071L59.249 10.5278L61.877 14H60.5186L58.6206 11.3848L56.7227 14H55.3516L57.9795 10.5278L55.4214 7.13184H56.7798L58.5952 9.67725ZM66.5996 14.127C66.1172 14.127 65.6729 14.0444 65.2666 13.8794C64.8646 13.7144 64.5197 13.4837 64.2319 13.1875C63.9442 12.8913 63.7199 12.54 63.5591 12.1338C63.3983 11.7275 63.3179 11.2853 63.3179 10.8071V10.5405C63.3179 9.98617 63.4067 9.49105 63.5845 9.05518C63.7622 8.61507 63.9992 8.24268 64.2954 7.93799C64.5874 7.63753 64.9196 7.4069 65.292 7.24609C65.6686 7.08529 66.0537 7.00488 66.4473 7.00488C66.9424 7.00488 67.374 7.09163 67.7422 7.26514C68.1146 7.43441 68.4235 7.66927 68.6689 7.96973C68.9144 8.27441 69.0964 8.632 69.2148 9.04248C69.3376 9.45296 69.3989 9.8973 69.3989 10.3755V10.9023H64.4922V10.9468C64.5218 11.2811 64.5874 11.5752 64.689 11.8291C64.7948 12.083 64.9386 12.3073 65.1206 12.502C65.3068 12.7093 65.5311 12.8722 65.7935 12.9907C66.0558 13.1092 66.3457 13.1685 66.6631 13.1685C67.082 13.1685 67.4544 13.0838 67.7803 12.9146C68.1061 12.7453 68.377 12.521 68.5928 12.2417L69.3101 12.8003C69.0815 13.1473 68.7388 13.4562 68.2817 13.7271C67.8289 13.9937 67.2682 14.127 66.5996 14.127ZM66.4473 7.96973C66.2103 7.96973 65.986 8.01416 65.7744 8.10303C65.5628 8.18766 65.3724 8.3125 65.2031 8.47754C65.0339 8.64681 64.89 8.85417 64.7715 9.09961C64.6572 9.34082 64.5768 9.62012 64.5303 9.9375H68.2246V9.88037C68.2246 9.66878 68.1844 9.44238 68.104 9.20117C68.0236 8.95573 67.9115 8.74414 67.7676 8.56641C67.6237 8.38867 67.4417 8.24479 67.2217 8.13477C67.0059 8.02474 66.7477 7.96973 66.4473 7.96973ZM75.937 12.1782C75.937 12.0386 75.9095 11.9137 75.8545 11.8037C75.7995 11.6895 75.7064 11.5858 75.5752 11.4927C75.444 11.3996 75.2705 11.3149 75.0547 11.2388C74.8389 11.1584 74.5701 11.0864 74.2485 11.0229C73.855 10.9425 73.4953 10.8452 73.1694 10.731C72.8478 10.6167 72.5728 10.4792 72.3442 10.3184C72.1115 10.1618 71.9316 9.9777 71.8047 9.76611C71.6777 9.55029 71.6143 9.30062 71.6143 9.01709C71.6143 8.73779 71.6799 8.47754 71.811 8.23633C71.9422 7.99089 72.1263 7.77718 72.3633 7.59521C72.6003 7.41325 72.8817 7.26937 73.2075 7.16357C73.5376 7.05778 73.8994 7.00488 74.293 7.00488C74.7161 7.00488 75.097 7.0599 75.4355 7.16992C75.7741 7.27995 76.0618 7.43229 76.2988 7.62695C76.5358 7.82161 76.7178 8.05013 76.8447 8.3125C76.9759 8.57064 77.0415 8.84993 77.0415 9.15039H75.8672C75.8672 9.00228 75.8291 8.8584 75.7529 8.71875C75.6768 8.57487 75.571 8.44792 75.4355 8.33789C75.3001 8.22786 75.1351 8.139 74.9404 8.07129C74.75 8.00358 74.5342 7.96973 74.293 7.96973C74.0433 7.96973 73.8232 7.99723 73.6328 8.05225C73.4466 8.10726 73.2922 8.18132 73.1694 8.27441C73.0425 8.36751 72.9473 8.47542 72.8838 8.59814C72.8203 8.72087 72.7886 8.84782 72.7886 8.979C72.7886 9.11442 72.814 9.23503 72.8647 9.34082C72.9155 9.44661 73.0044 9.54183 73.1313 9.62646C73.2541 9.7111 73.4191 9.78727 73.6265 9.85498C73.8381 9.92269 74.1047 9.98828 74.4263 10.0518C74.8494 10.1406 75.2282 10.2443 75.5625 10.3628C75.8968 10.4771 76.1782 10.6146 76.4067 10.7754C76.6353 10.9404 76.8088 11.1309 76.9272 11.3467C77.05 11.5625 77.1113 11.8122 77.1113 12.0957C77.1113 12.4004 77.0415 12.6776 76.9019 12.9272C76.7664 13.1769 76.576 13.3906 76.3306 13.5684C76.0851 13.7461 75.791 13.8836 75.4482 13.981C75.1055 14.0783 74.731 14.127 74.3247 14.127C73.8592 14.127 73.4445 14.0656 73.0806 13.9429C72.7166 13.8159 72.4098 13.6488 72.1602 13.4414C71.9062 13.2383 71.7116 13.0013 71.5762 12.7305C71.445 12.4596 71.3794 12.1782 71.3794 11.8862H72.5537C72.5706 12.1274 72.6341 12.3306 72.7441 12.4956C72.8584 12.6606 73.0002 12.7939 73.1694 12.8955C73.3345 12.9971 73.5186 13.069 73.7217 13.1113C73.9248 13.1536 74.1258 13.1748 74.3247 13.1748C74.6379 13.1748 74.9108 13.1388 75.1436 13.0669C75.3763 12.9907 75.5583 12.887 75.6895 12.7559C75.7699 12.6755 75.8312 12.5866 75.8735 12.4893C75.9159 12.3919 75.937 12.2882 75.937 12.1782Z" fill="#696C80"/>
</svg>
