<svg width="160" height="98" viewBox="0 0 160 98" fill="none" xmlns="http://www.w3.org/2000/svg">
<rect x="0.5" y="34.5" width="159" height="63" rx="4.5" stroke="#9747FF" stroke-dasharray="10 5"/>
<path d="M128 56C123.029 56 119 60.0294 119 65C119 68.0264 120.81 70.5918 122.895 72.399L126.336 75.3816C127.291 76.209 128.709 76.209 129.664 75.3816L133.105 72.399C135.19 70.5918 137 68.0264 137 65C137 60.0294 132.971 56 128 56Z" fill="#BABDCC"/>
<path d="M130 65C130 66.1046 129.105 67 128 67C126.895 67 126 66.1046 126 65C126 63.8954 126.895 63 128 63C129.105 63 130 63.8954 130 65Z" fill="#12131A"/>
<path fill-rule="evenodd" clip-rule="evenodd" d="M71 65C71 60.0294 75.0294 56 80 56C84.9706 56 89 60.0294 89 65C89 68.0264 87.1902 70.5918 85.1049 72.399L81.6635 75.3816C80.7088 76.209 79.2912 76.209 78.3365 75.3816L74.8951 72.399C72.8098 70.5918 71 68.0264 71 65ZM80 67C81.1046 67 82 66.1046 82 65C82 63.8954 81.1046 63 80 63C78.8954 63 78 63.8954 78 65C78 66.1046 78.8954 67 80 67Z" fill="#12131A"/>
<path fill-rule="evenodd" clip-rule="evenodd" d="M32 58C28.134 58 25 61.134 25 65C25 67.2061 26.3361 69.268 28.2049 70.8876L31.6463 73.8702C31.8493 74.0461 32.1507 74.0461 32.3537 73.8702L35.7951 70.8876C37.6639 69.268 39 67.2061 39 65C39 61.134 35.866 58 32 58ZM23 65C23 60.0294 27.0294 56 32 56C36.9706 56 41 60.0294 41 65C41 68.0264 39.1902 70.5918 37.1049 72.399L33.6635 75.3816C32.7088 76.209 31.2912 76.209 30.3365 75.3816L26.8951 72.399C24.8098 70.5918 23 68.0264 23 65Z" fill="#12131A"/>
<path d="M34 65C34 66.1046 33.1046 67 32 67C30.8954 67 30 66.1046 30 65C30 63.8954 30.8954 63 32 63C33.1046 63 34 63.8954 34 65Z" fill="#12131A"/>
<path d="M2.43115 13.0034H6.95068V14H1.25684V4.75781H2.43115V13.0034ZM8.58203 10.5024C8.58203 10.0073 8.65397 9.54818 8.79785 9.125C8.94173 8.69759 9.14909 8.32731 9.41992 8.01416C9.68652 7.70101 10.0124 7.45557 10.3975 7.27783C10.7826 7.09587 11.2163 7.00488 11.6987 7.00488C12.1854 7.00488 12.6213 7.09587 13.0063 7.27783C13.3957 7.45557 13.7257 7.70101 13.9966 8.01416C14.2632 8.32731 14.4684 8.69759 14.6123 9.125C14.7562 9.54818 14.8281 10.0073 14.8281 10.5024V10.6421C14.8281 11.1372 14.7562 11.5964 14.6123 12.0195C14.4684 12.4427 14.2632 12.8109 13.9966 13.124C13.7257 13.4372 13.3978 13.6826 13.0127 13.8604C12.6276 14.0381 12.1938 14.127 11.7114 14.127C11.2248 14.127 10.7868 14.0381 10.3975 13.8604C10.0124 13.6826 9.68652 13.4372 9.41992 13.124C9.14909 12.8109 8.94173 12.4427 8.79785 12.0195C8.65397 11.5964 8.58203 11.1372 8.58203 10.6421V10.5024ZM9.75635 10.6421C9.75635 10.9806 9.79655 11.3044 9.87695 11.6133C9.95736 11.918 10.0801 12.1867 10.2451 12.4194C10.4059 12.6522 10.609 12.8363 10.8545 12.9717C11.0999 13.1071 11.3856 13.1748 11.7114 13.1748C12.033 13.1748 12.3145 13.1071 12.5557 12.9717C12.8011 12.8363 13.0063 12.6522 13.1714 12.4194C13.3322 12.1867 13.4528 11.918 13.5332 11.6133C13.6136 11.3044 13.6538 10.9806 13.6538 10.6421V10.5024C13.6538 10.1681 13.6115 9.84863 13.5269 9.54395C13.4465 9.23503 13.3258 8.96419 13.165 8.73145C13 8.4987 12.7948 8.31462 12.5493 8.1792C12.3081 8.03955 12.0246 7.96973 11.6987 7.96973C11.3729 7.96973 11.0894 8.03955 10.8481 8.1792C10.6069 8.31462 10.4059 8.4987 10.2451 8.73145C10.0801 8.96419 9.95736 9.23503 9.87695 9.54395C9.79655 9.84863 9.75635 10.1681 9.75635 10.5024V10.6421ZM19.646 13.1748C19.8576 13.1748 20.0628 13.141 20.2617 13.0732C20.4648 13.0055 20.6447 12.9103 20.8013 12.7876C20.9578 12.6691 21.0827 12.5295 21.1758 12.3687C21.2731 12.2036 21.3239 12.0259 21.3281 11.8354H22.439C22.4347 12.1401 22.3543 12.4321 22.1978 12.7114C22.0454 12.9865 21.8402 13.2277 21.582 13.4351C21.3239 13.6466 21.0277 13.8159 20.6934 13.9429C20.359 14.0656 20.0099 14.127 19.646 14.127C19.1255 14.127 18.6706 14.0339 18.2812 13.8477C17.8919 13.6615 17.5682 13.4097 17.3101 13.0923C17.0477 12.7791 16.8509 12.4173 16.7197 12.0068C16.5885 11.5921 16.5229 11.1562 16.5229 10.6992V10.4326C16.5229 9.97982 16.5885 9.54606 16.7197 9.13135C16.8509 8.71663 17.0477 8.35059 17.3101 8.0332C17.5682 7.72005 17.8919 7.47038 18.2812 7.28418C18.6706 7.09798 19.1255 7.00488 19.646 7.00488C20.0522 7.00488 20.4246 7.07048 20.7632 7.20166C21.106 7.32861 21.4022 7.50212 21.6519 7.72217C21.8973 7.94645 22.0898 8.21094 22.2295 8.51562C22.3691 8.82031 22.439 9.14616 22.439 9.49316H21.3281C21.3239 9.28581 21.2773 9.09115 21.1885 8.90918C21.1038 8.72298 20.9875 8.56006 20.8394 8.42041C20.6912 8.28076 20.5135 8.17074 20.3062 8.09033C20.103 8.00993 19.883 7.96973 19.646 7.96973C19.2821 7.96973 18.9753 8.04378 18.7256 8.19189C18.4801 8.33577 18.2812 8.52409 18.1289 8.75684C17.9766 8.99382 17.8665 9.2583 17.7988 9.55029C17.7354 9.84229 17.7036 10.1364 17.7036 10.4326V10.6992C17.7036 10.9997 17.7354 11.298 17.7988 11.5942C17.8665 11.8862 17.9766 12.1486 18.1289 12.3813C18.277 12.6183 18.4738 12.8109 18.7192 12.959C18.9689 13.1029 19.2778 13.1748 19.646 13.1748ZM29.0405 14C28.994 13.9111 28.9559 13.8011 28.9263 13.6699C28.9009 13.5345 28.8818 13.3949 28.8691 13.251C28.7507 13.3695 28.6174 13.4816 28.4692 13.5874C28.3254 13.6932 28.1667 13.7863 27.9932 13.8667C27.8154 13.9471 27.6271 14.0106 27.4282 14.0571C27.2293 14.1037 27.0177 14.127 26.7935 14.127C26.4295 14.127 26.0994 14.0741 25.8032 13.9683C25.5112 13.8625 25.2637 13.7186 25.0605 13.5366C24.8532 13.3589 24.6924 13.1473 24.5781 12.9019C24.4681 12.6522 24.4131 12.3835 24.4131 12.0957C24.4131 11.7191 24.4871 11.389 24.6353 11.1055C24.7876 10.8219 25.0013 10.585 25.2764 10.3945C25.5514 10.2083 25.8815 10.0687 26.2666 9.97559C26.6559 9.88249 27.0897 9.83594 27.5679 9.83594H28.8501V9.29639C28.8501 9.08903 28.812 8.90283 28.7358 8.73779C28.6597 8.57275 28.5518 8.43099 28.4121 8.3125C28.2725 8.19824 28.1011 8.10938 27.8979 8.0459C27.6991 7.98242 27.4748 7.95068 27.2251 7.95068C26.9924 7.95068 26.7829 7.98031 26.5967 8.03955C26.4147 8.0988 26.2603 8.17708 26.1333 8.27441C26.0063 8.37174 25.9069 8.48812 25.835 8.62354C25.7673 8.75472 25.7334 8.89225 25.7334 9.03613H24.5527C24.557 8.78646 24.6204 8.54102 24.7432 8.2998C24.8701 8.05859 25.0521 7.84066 25.2891 7.646C25.5218 7.45557 25.8053 7.30111 26.1396 7.18262C26.4782 7.06413 26.8612 7.00488 27.2886 7.00488C27.6779 7.00488 28.0397 7.05355 28.374 7.15088C28.7083 7.24398 28.9982 7.38574 29.2437 7.57617C29.4849 7.77083 29.6753 8.01204 29.8149 8.2998C29.9546 8.58757 30.0244 8.92399 30.0244 9.30908V12.502C30.0244 12.7305 30.0456 12.9738 30.0879 13.2319C30.1302 13.4858 30.1895 13.708 30.2656 13.8984V14H29.0405ZM26.9648 13.105C27.1934 13.105 27.4071 13.0754 27.606 13.0161C27.8049 12.9569 27.9868 12.8786 28.1519 12.7812C28.3127 12.6839 28.4523 12.5739 28.5708 12.4512C28.6893 12.3242 28.7824 12.193 28.8501 12.0576V10.6675H27.7583C27.3521 10.6675 26.9966 10.7035 26.6919 10.7754C26.3914 10.8431 26.1523 10.9489 25.9746 11.0928C25.8477 11.1943 25.7503 11.3149 25.6826 11.4546C25.6191 11.5942 25.5874 11.7529 25.5874 11.9307C25.5874 12.0999 25.6149 12.2565 25.6699 12.4004C25.7292 12.5443 25.8159 12.667 25.9302 12.7686C26.0444 12.8743 26.1883 12.9569 26.3618 13.0161C26.5353 13.0754 26.7363 13.105 26.9648 13.105ZM35.1152 5.46875V7.13184H37.7305V8.03955H35.1152V11.772C35.1152 12.0386 35.1491 12.2586 35.2168 12.4321C35.2845 12.6056 35.3776 12.7432 35.4961 12.8447C35.6146 12.9505 35.75 13.0246 35.9023 13.0669C36.0589 13.1092 36.224 13.1304 36.3975 13.1304C36.5244 13.1304 36.6556 13.124 36.791 13.1113C36.9264 13.0944 37.0597 13.0754 37.1909 13.0542C37.3179 13.033 37.4364 13.0119 37.5464 12.9907C37.6606 12.9653 37.7537 12.9442 37.8257 12.9272L37.9907 13.7588C37.8934 13.818 37.7749 13.8709 37.6353 13.9175C37.4956 13.9598 37.3433 13.9958 37.1782 14.0254C37.0132 14.0592 36.8376 14.0846 36.6514 14.1016C36.4694 14.1185 36.2874 14.127 36.1055 14.127C35.8008 14.127 35.5151 14.0846 35.2485 14C34.9862 13.9111 34.7576 13.7715 34.563 13.5811C34.3683 13.3949 34.2139 13.1536 34.0996 12.8574C33.9896 12.557 33.9346 12.1951 33.9346 11.772V8.03955H32.1318V7.13184H33.9346V5.46875H35.1152ZM40.3267 7.13184H43.8369V12.9844H46.0776V14H40.3267V12.9844H42.6626V8.15381H40.3267V7.13184ZM42.5103 5.3291C42.5103 5.22754 42.5251 5.13232 42.5547 5.04346C42.5885 4.95459 42.6393 4.87842 42.707 4.81494C42.762 4.75993 42.8319 4.71761 42.9165 4.68799C43.0054 4.65413 43.1048 4.63721 43.2148 4.63721C43.3249 4.63721 43.4222 4.65413 43.5068 4.68799C43.5915 4.71761 43.6613 4.75993 43.7163 4.81494C43.784 4.87419 43.8348 4.94824 43.8687 5.03711C43.9025 5.12598 43.9194 5.22331 43.9194 5.3291C43.9194 5.51953 43.8602 5.67822 43.7417 5.80518C43.6232 5.93213 43.4476 5.99561 43.2148 5.99561C42.9779 5.99561 42.8001 5.93213 42.6816 5.80518C42.5674 5.67822 42.5103 5.51953 42.5103 5.3291ZM47.6201 10.5024C47.6201 10.0073 47.6921 9.54818 47.8359 9.125C47.9798 8.69759 48.1872 8.32731 48.458 8.01416C48.7246 7.70101 49.0505 7.45557 49.4355 7.27783C49.8206 7.09587 50.2544 7.00488 50.7368 7.00488C51.2235 7.00488 51.6593 7.09587 52.0444 7.27783C52.4338 7.45557 52.7638 7.70101 53.0347 8.01416C53.3013 8.32731 53.5065 8.69759 53.6504 9.125C53.7943 9.54818 53.8662 10.0073 53.8662 10.5024V10.6421C53.8662 11.1372 53.7943 11.5964 53.6504 12.0195C53.5065 12.4427 53.3013 12.8109 53.0347 13.124C52.7638 13.4372 52.4359 13.6826 52.0508 13.8604C51.6657 14.0381 51.2319 14.127 50.7495 14.127C50.2629 14.127 49.8249 14.0381 49.4355 13.8604C49.0505 13.6826 48.7246 13.4372 48.458 13.124C48.1872 12.8109 47.9798 12.4427 47.8359 12.0195C47.6921 11.5964 47.6201 11.1372 47.6201 10.6421V10.5024ZM48.7944 10.6421C48.7944 10.9806 48.8346 11.3044 48.915 11.6133C48.9954 11.918 49.1182 12.1867 49.2832 12.4194C49.444 12.6522 49.6471 12.8363 49.8926 12.9717C50.138 13.1071 50.4237 13.1748 50.7495 13.1748C51.0711 13.1748 51.3525 13.1071 51.5938 12.9717C51.8392 12.8363 52.0444 12.6522 52.2095 12.4194C52.3703 12.1867 52.4909 11.918 52.5713 11.6133C52.6517 11.3044 52.6919 10.9806 52.6919 10.6421V10.5024C52.6919 10.1681 52.6496 9.84863 52.5649 9.54395C52.4845 9.23503 52.3639 8.96419 52.2031 8.73145C52.0381 8.4987 51.8328 8.31462 51.5874 8.1792C51.3462 8.03955 51.0627 7.96973 50.7368 7.96973C50.411 7.96973 50.1274 8.03955 49.8862 8.1792C49.645 8.31462 49.444 8.4987 49.2832 8.73145C49.1182 8.96419 48.9954 9.23503 48.915 9.54395C48.8346 9.84863 48.7944 10.1681 48.7944 10.5024V10.6421ZM55.7578 14V7.13184H56.8115L56.894 8.14746C56.9956 8.00358 57.1056 7.8724 57.2241 7.75391C57.3468 7.63118 57.4759 7.52539 57.6113 7.43652C57.8145 7.30111 58.0345 7.19743 58.2715 7.12549C58.5127 7.04932 58.7666 7.00911 59.0332 7.00488C59.3929 7.00488 59.7188 7.05566 60.0107 7.15723C60.307 7.25879 60.5588 7.41748 60.7661 7.6333C60.9735 7.84912 61.1322 8.12419 61.2422 8.4585C61.3564 8.78857 61.4136 9.18213 61.4136 9.63916V14H60.2393V9.66455C60.2393 9.35986 60.2054 9.10173 60.1377 8.89014C60.07 8.67855 59.9705 8.50716 59.8394 8.37598C59.7039 8.24479 59.5389 8.14958 59.3442 8.09033C59.1538 8.03109 58.9338 8.00146 58.6841 8.00146C58.4683 8.00146 58.2673 8.0332 58.0811 8.09668C57.8949 8.15592 57.7235 8.23844 57.5669 8.34424C57.4399 8.43734 57.3215 8.54525 57.2114 8.66797C57.1056 8.79069 57.0125 8.92611 56.9321 9.07422V14H55.7578Z" fill="#696C80"/>
</svg>
