<svg width="160" height="98" viewBox="0 0 160 98" fill="none" xmlns="http://www.w3.org/2000/svg">
<rect x="0.5" y="34.5" width="159" height="63" rx="4.5" stroke="#9747FF" stroke-dasharray="10 5"/>
<path d="M126 61.1615V70.8385C126 71.3657 126 71.8205 126.031 72.195C126.063 72.5904 126.134 72.9836 126.327 73.362C126.615 73.9265 127.074 74.3854 127.638 74.673C128.016 74.8658 128.41 74.9371 128.805 74.9694C129.18 75 129.634 75 130.161 75H132.839C133.366 75 133.82 75 134.195 74.9694C134.59 74.9371 134.984 74.8658 135.362 74.673C135.926 74.3854 136.385 73.9265 136.673 73.362C136.866 72.9836 136.937 72.5904 136.969 72.195C137 71.8205 137 71.3657 137 70.8386V61.1615C137 60.6343 137 60.1795 136.969 59.805C136.937 59.4096 136.866 59.0164 136.673 58.638C136.385 58.0735 135.926 57.6146 135.362 57.327C134.984 57.1342 134.59 57.0629 134.195 57.0306C133.82 57 133.366 57 132.839 57H130.161C129.634 57 129.18 57 128.805 57.0306C128.41 57.0629 128.016 57.1342 127.638 57.327C127.074 57.6146 126.615 58.0735 126.327 58.638C126.134 59.0164 126.063 59.4096 126.031 59.805C126 60.1795 126 60.6343 126 61.1615Z" fill="#BABDCC"/>
<path d="M120 67C119.448 67 119 66.5523 119 66C119 65.4477 119.448 65 120 65H129.586L128.293 63.7071C127.902 63.3166 127.902 62.6834 128.293 62.2929C128.683 61.9024 129.317 61.9024 129.707 62.2929L132.707 65.2929C133.098 65.6834 133.098 66.3166 132.707 66.7071L129.707 69.7071C129.317 70.0976 128.683 70.0976 128.293 69.7071C127.902 69.3166 127.902 68.6834 128.293 68.2929L129.586 67H120Z" fill="#12131A"/>
<path d="M78 65H81.5858L80.2929 63.7071C79.9024 63.3166 79.9024 62.6834 80.2929 62.2929C80.6834 61.9024 81.3166 61.9024 81.7071 62.2929L84.7071 65.2929C85.0976 65.6834 85.0976 66.3166 84.7071 66.7071L81.7071 69.7071C81.3166 70.0976 80.6834 70.0976 80.2929 69.7071C79.9024 69.3166 79.9024 68.6834 80.2929 68.2929L81.5858 67H78V70.8385C78 71.3657 78 71.8205 78.0306 72.195C78.0629 72.5904 78.1342 72.9836 78.327 73.362C78.6146 73.9265 79.0735 74.3854 79.638 74.673C80.0164 74.8658 80.4096 74.9371 80.805 74.9694C81.1795 75 81.6343 75 82.1615 75H84.8385C85.3657 75 85.8205 75 86.195 74.9694C86.5904 74.9371 86.9836 74.8658 87.362 74.673C87.9265 74.3854 88.3854 73.9265 88.673 73.362C88.8658 72.9836 88.9371 72.5904 88.9694 72.195C89 71.8205 89 71.3657 89 70.8386V61.1615C89 60.6343 89 60.1795 88.9694 59.805C88.9371 59.4096 88.8658 59.0164 88.673 58.638C88.3854 58.0735 87.9265 57.6146 87.362 57.327C86.9836 57.1342 86.5904 57.0629 86.195 57.0306C85.8205 57 85.3657 57 84.8386 57H82.1614C81.6343 57 81.1795 57 80.805 57.0306C80.4096 57.0629 80.0164 57.1342 79.638 57.327C79.0735 57.6146 78.6146 58.0735 78.327 58.638C78.1342 59.0164 78.0629 59.4096 78.0306 59.805C78 60.1795 78 60.6343 78 61.1614V65Z" fill="#12131A"/>
<path fill-rule="evenodd" clip-rule="evenodd" d="M71 66C71 66.5523 71.4477 67 72 67H78V65H72C71.4477 65 71 65.4477 71 66Z" fill="#12131A"/>
<path fill-rule="evenodd" clip-rule="evenodd" d="M31 74C31 73.4477 31.4477 73 32 73L35.2 73C36.0565 73 36.6388 72.9992 37.0889 72.9624C37.5273 72.9266 37.7515 72.8617 37.9079 72.782C38.2843 72.5903 38.5902 72.2843 38.782 71.908C38.8617 71.7516 38.9266 71.5274 38.9624 71.089C38.9992 70.6389 39 70.0566 39 69.2L39 62.8C39 61.9434 38.9992 61.3611 38.9624 60.911C38.9266 60.4726 38.8617 60.2484 38.782 60.092C38.5902 59.7157 38.2843 59.4097 37.9079 59.218C37.7515 59.1383 37.5273 59.0734 37.0889 59.0376C36.6388 59.0008 36.0565 59 35.2 59L32 59C31.4477 59 31 58.5523 31 58C31 57.4477 31.4477 57 32 57L35.2413 57C36.0462 57 36.7106 57 37.2518 57.0442C37.8139 57.0901 38.3306 57.1887 38.8159 57.436C39.5686 57.8195 40.1805 58.4314 40.564 59.184C40.8113 59.6694 40.9098 60.1861 40.9558 60.7482C41 61.2894 41 61.9537 41 62.7587V69.2413C41 70.0463 41 70.7106 40.9558 71.2518C40.9098 71.8139 40.8113 72.3306 40.564 72.816C40.1805 73.5686 39.5686 74.1805 38.8159 74.564C38.3306 74.8113 37.8139 74.9099 37.2518 74.9558C36.7106 75 36.0462 75 35.2413 75H32C31.4477 75 31 74.5523 31 74Z" fill="#12131A"/>
<path d="M24 67C23.4477 67 23 66.5523 23 66C23 65.4477 23.4477 65 24 65H32.5858L31.2929 63.7071C30.9024 63.3166 30.9024 62.6834 31.2929 62.2929C31.6834 61.9024 32.3166 61.9024 32.7071 62.2929L35.7071 65.2929C36.0976 65.6834 36.0976 66.3166 35.7071 66.7071L32.7071 69.7071C32.3166 70.0976 31.6834 70.0976 31.2929 69.7071C30.9024 69.3166 30.9024 68.6834 31.2929 68.2929L32.5858 67H24Z" fill="#12131A"/>
<path d="M2.43115 13.0034H6.95068V14H1.25684V4.75781H2.43115V13.0034ZM8.58203 10.5024C8.58203 10.0073 8.65397 9.54818 8.79785 9.125C8.94173 8.69759 9.14909 8.32731 9.41992 8.01416C9.68652 7.70101 10.0124 7.45557 10.3975 7.27783C10.7826 7.09587 11.2163 7.00488 11.6987 7.00488C12.1854 7.00488 12.6213 7.09587 13.0063 7.27783C13.3957 7.45557 13.7257 7.70101 13.9966 8.01416C14.2632 8.32731 14.4684 8.69759 14.6123 9.125C14.7562 9.54818 14.8281 10.0073 14.8281 10.5024V10.6421C14.8281 11.1372 14.7562 11.5964 14.6123 12.0195C14.4684 12.4427 14.2632 12.8109 13.9966 13.124C13.7257 13.4372 13.3978 13.6826 13.0127 13.8604C12.6276 14.0381 12.1938 14.127 11.7114 14.127C11.2248 14.127 10.7868 14.0381 10.3975 13.8604C10.0124 13.6826 9.68652 13.4372 9.41992 13.124C9.14909 12.8109 8.94173 12.4427 8.79785 12.0195C8.65397 11.5964 8.58203 11.1372 8.58203 10.6421V10.5024ZM9.75635 10.6421C9.75635 10.9806 9.79655 11.3044 9.87695 11.6133C9.95736 11.918 10.0801 12.1867 10.2451 12.4194C10.4059 12.6522 10.609 12.8363 10.8545 12.9717C11.0999 13.1071 11.3856 13.1748 11.7114 13.1748C12.033 13.1748 12.3145 13.1071 12.5557 12.9717C12.8011 12.8363 13.0063 12.6522 13.1714 12.4194C13.3322 12.1867 13.4528 11.918 13.5332 11.6133C13.6136 11.3044 13.6538 10.9806 13.6538 10.6421V10.5024C13.6538 10.1681 13.6115 9.84863 13.5269 9.54395C13.4465 9.23503 13.3258 8.96419 13.165 8.73145C13 8.4987 12.7948 8.31462 12.5493 8.1792C12.3081 8.03955 12.0246 7.96973 11.6987 7.96973C11.3729 7.96973 11.0894 8.03955 10.8481 8.1792C10.6069 8.31462 10.4059 8.4987 10.2451 8.73145C10.0801 8.96419 9.95736 9.23503 9.87695 9.54395C9.79655 9.84863 9.75635 10.1681 9.75635 10.5024V10.6421ZM16.5039 10.5088C16.5039 9.99674 16.5653 9.52702 16.688 9.09961C16.8149 8.66797 16.9969 8.29769 17.2339 7.98877C17.4709 7.67985 17.7586 7.43864 18.0972 7.26514C18.4357 7.09163 18.8187 7.00488 19.2461 7.00488C19.5212 7.00488 19.7729 7.03662 20.0015 7.1001C20.2342 7.16357 20.4437 7.25667 20.6299 7.37939C20.7314 7.44287 20.8267 7.51693 20.9155 7.60156C21.0086 7.6862 21.0954 7.7793 21.1758 7.88086L21.2329 7.13184H22.2993V13.854C22.2993 14.3068 22.2274 14.7088 22.0835 15.0601C21.9438 15.4113 21.7471 15.7096 21.4932 15.9551C21.235 16.2005 20.9282 16.3867 20.5728 16.5137C20.2173 16.6406 19.8237 16.7041 19.3921 16.7041C19.2144 16.7041 19.0112 16.6829 18.7827 16.6406C18.5542 16.6025 18.3236 16.5369 18.0908 16.4438C17.8538 16.355 17.6253 16.2344 17.4053 16.082C17.1895 15.9297 17.0033 15.7414 16.8467 15.5171L17.4561 14.8125C17.5999 14.986 17.748 15.132 17.9004 15.2505C18.0527 15.3732 18.2072 15.4705 18.3638 15.5425C18.5203 15.6144 18.6769 15.6652 18.8335 15.6948C18.9901 15.7287 19.1466 15.7456 19.3032 15.7456C19.5825 15.7456 19.8343 15.7054 20.0586 15.625C20.2829 15.5446 20.4754 15.4261 20.6362 15.2695C20.7928 15.1172 20.9134 14.9268 20.998 14.6982C21.0827 14.4697 21.125 14.2074 21.125 13.9111V13.3208C21.0361 13.4224 20.9409 13.5155 20.8394 13.6001C20.742 13.6847 20.6362 13.7588 20.522 13.8223C20.3442 13.9196 20.1475 13.9937 19.9316 14.0444C19.7158 14.0994 19.4831 14.127 19.2334 14.127C18.8145 14.127 18.4357 14.0381 18.0972 13.8604C17.7586 13.6826 17.473 13.4372 17.2402 13.124C17.0033 12.8109 16.8213 12.4427 16.6943 12.0195C16.5674 11.5921 16.5039 11.133 16.5039 10.6421V10.5088ZM17.6782 10.6421C17.6782 10.9764 17.7121 11.2938 17.7798 11.5942C17.8517 11.8947 17.9639 12.1592 18.1162 12.3877C18.2643 12.6162 18.4548 12.7982 18.6875 12.9336C18.9202 13.0648 19.1995 13.1304 19.5254 13.1304C19.7285 13.1304 19.9105 13.1071 20.0713 13.0605C20.2363 13.0098 20.3844 12.9399 20.5156 12.8511C20.6426 12.7622 20.7568 12.6564 20.8584 12.5337C20.96 12.411 21.0488 12.2756 21.125 12.1274V8.979C21.0488 8.83512 20.96 8.70394 20.8584 8.58545C20.7568 8.46696 20.6405 8.36328 20.5093 8.27441C20.3781 8.18978 20.2321 8.12419 20.0713 8.07764C19.9105 8.02686 19.7327 8.00146 19.5381 8.00146C19.208 8.00146 18.9245 8.06917 18.6875 8.20459C18.4548 8.34001 18.2643 8.52197 18.1162 8.75049C17.9639 8.98324 17.8517 9.25195 17.7798 9.55664C17.7121 9.8571 17.6782 10.1745 17.6782 10.5088V10.6421ZM24.7114 7.13184H28.2217V12.9844H30.4624V14H24.7114V12.9844H27.0474V8.15381H24.7114V7.13184ZM26.895 5.3291C26.895 5.22754 26.9098 5.13232 26.9395 5.04346C26.9733 4.95459 27.0241 4.87842 27.0918 4.81494C27.1468 4.75993 27.2166 4.71761 27.3013 4.68799C27.3901 4.65413 27.4896 4.63721 27.5996 4.63721C27.7096 4.63721 27.807 4.65413 27.8916 4.68799C27.9762 4.71761 28.0461 4.75993 28.1011 4.81494C28.1688 4.87419 28.2196 4.94824 28.2534 5.03711C28.2873 5.12598 28.3042 5.22331 28.3042 5.3291C28.3042 5.51953 28.245 5.67822 28.1265 5.80518C28.008 5.93213 27.8324 5.99561 27.5996 5.99561C27.3626 5.99561 27.1849 5.93213 27.0664 5.80518C26.9521 5.67822 26.895 5.51953 26.895 5.3291ZM32.335 14V7.13184H33.3887L33.4712 8.14746C33.5728 8.00358 33.6828 7.8724 33.8013 7.75391C33.924 7.63118 34.0531 7.52539 34.1885 7.43652C34.3916 7.30111 34.6117 7.19743 34.8486 7.12549C35.0898 7.04932 35.3438 7.00911 35.6104 7.00488C35.9701 7.00488 36.2959 7.05566 36.5879 7.15723C36.8841 7.25879 37.1359 7.41748 37.3433 7.6333C37.5506 7.84912 37.7093 8.12419 37.8193 8.4585C37.9336 8.78857 37.9907 9.18213 37.9907 9.63916V14H36.8164V9.66455C36.8164 9.35986 36.7826 9.10173 36.7148 8.89014C36.6471 8.67855 36.5477 8.50716 36.4165 8.37598C36.2811 8.24479 36.116 8.14958 35.9214 8.09033C35.731 8.03109 35.5109 8.00146 35.2612 8.00146C35.0454 8.00146 34.8444 8.0332 34.6582 8.09668C34.472 8.15592 34.3006 8.23844 34.144 8.34424C34.0171 8.43734 33.8986 8.54525 33.7886 8.66797C33.6828 8.79069 33.5897 8.92611 33.5093 9.07422V14H32.335Z" fill="#696C80"/>
</svg>
