<svg width="160" height="98" viewBox="0 0 160 98" fill="none" xmlns="http://www.w3.org/2000/svg">
<rect x="0.5" y="34.5" width="159" height="63" rx="4.5" stroke="#9747FF" stroke-dasharray="10 5"/>
<path d="M126 61.1615V70.8385C126 71.3657 126 71.8205 126.031 72.195C126.063 72.5904 126.134 72.9836 126.327 73.362C126.615 73.9265 127.074 74.3854 127.638 74.673C128.016 74.8658 128.41 74.9371 128.805 74.9694C129.18 75 129.634 75 130.161 75H132.839C133.366 75 133.82 75 134.195 74.9694C134.59 74.9371 134.984 74.8658 135.362 74.673C135.926 74.3854 136.385 73.9265 136.673 73.362C136.866 72.9836 136.937 72.5904 136.969 72.195C137 71.8205 137 71.3657 137 70.8386V61.1615C137 60.6343 137 60.1795 136.969 59.805C136.937 59.4096 136.866 59.0164 136.673 58.638C136.385 58.0735 135.926 57.6146 135.362 57.327C134.984 57.1342 134.59 57.0629 134.195 57.0306C133.82 57 133.366 57 132.839 57H130.161C129.634 57 129.18 57 128.805 57.0306C128.41 57.0629 128.016 57.1342 127.638 57.327C127.074 57.6146 126.615 58.0735 126.327 58.638C126.134 59.0164 126.063 59.4096 126.031 59.805C126 60.1795 126 60.6343 126 61.1615Z" fill="#BABDCC"/>
<path d="M123.707 68.2929C124.098 68.6834 124.098 69.3166 123.707 69.7071C123.317 70.0976 122.683 70.0976 122.293 69.7071L119.293 66.7071C118.902 66.3166 118.902 65.6834 119.293 65.2929L122.293 62.2929C122.683 61.9024 123.317 61.9024 123.707 62.2929C124.098 62.6834 124.098 63.3166 123.707 63.7071L122.414 65H131C131.552 65 132 65.4477 132 66C132 66.5523 131.552 67 131 67H122.414L123.707 68.2929Z" fill="#12131A"/>
<path d="M78 65V61.1615C78 60.6343 78 60.1795 78.0306 59.805C78.0629 59.4096 78.1342 59.0164 78.327 58.638C78.6146 58.0735 79.0735 57.6146 79.638 57.327C80.0164 57.1342 80.4096 57.0629 80.805 57.0306C81.1795 57 81.6343 57 82.1614 57H84.8386C85.3657 57 85.8205 57 86.195 57.0306C86.5904 57.0629 86.9836 57.1342 87.362 57.327C87.9265 57.6146 88.3854 58.0735 88.673 58.638C88.8658 59.0164 88.9371 59.4096 88.9694 59.805C89 60.1795 89 60.6343 89 61.1615V70.8386C89 71.3657 89 71.8205 88.9694 72.195C88.9371 72.5904 88.8658 72.9836 88.673 73.362C88.3854 73.9265 87.9265 74.3854 87.362 74.673C86.9836 74.8658 86.5904 74.9371 86.195 74.9694C85.8205 75 85.3657 75 84.8385 75H82.1615C81.6343 75 81.1795 75 80.805 74.9694C80.4096 74.9371 80.0164 74.8658 79.638 74.673C79.0735 74.3854 78.6146 73.9265 78.327 73.362C78.1342 72.9836 78.0629 72.5904 78.0306 72.195C78 71.8205 78 71.3657 78 70.8386V67H84C84.5523 67 85 66.5523 85 66C85 65.4477 84.5523 65 84 65H78Z" fill="#12131A"/>
<path d="M75.7071 68.2929C76.0976 68.6834 76.0976 69.3166 75.7071 69.7071C75.3166 70.0976 74.6834 70.0976 74.2929 69.7071L71.2929 66.7071C70.9024 66.3166 70.9024 65.6834 71.2929 65.2929L74.2929 62.2929C74.6834 61.9024 75.3166 61.9024 75.7071 62.2929C76.0976 62.6834 76.0976 63.3166 75.7071 63.7071L74.4142 65H78V67H74.4142L75.7071 68.2929Z" fill="#12131A"/>
<path fill-rule="evenodd" clip-rule="evenodd" d="M31 74C31 73.4477 31.4477 73 32 73L35.2 73C36.0565 73 36.6388 72.9992 37.0889 72.9624C37.5273 72.9266 37.7516 72.8617 37.908 72.782C38.2843 72.5903 38.5902 72.2843 38.782 71.908C38.8617 71.7516 38.9266 71.5274 38.9624 71.089C38.9992 70.6389 39 70.0566 39 69.2L39 62.8C39 61.9434 38.9992 61.3611 38.9624 60.911C38.9266 60.4726 38.8617 60.2484 38.782 60.092C38.5902 59.7157 38.2843 59.4097 37.908 59.218C37.7516 59.1383 37.5273 59.0734 37.0889 59.0376C36.6388 59.0008 36.0565 59 35.2 59L32 59C31.4477 59 31 58.5523 31 58C31 57.4477 31.4477 57 32 57L35.2413 57C36.0463 57 36.7106 57 37.2518 57.0442C37.8139 57.0901 38.3306 57.1887 38.8159 57.436C39.5686 57.8195 40.1805 58.4314 40.564 59.184C40.8113 59.6694 40.9099 60.1861 40.9558 60.7482C41 61.2894 41 61.9537 41 62.7587V69.2413C41 70.0463 41 70.7106 40.9558 71.2518C40.9099 71.8139 40.8113 72.3306 40.564 72.816C40.1805 73.5686 39.5686 74.1805 38.8159 74.564C38.3306 74.8113 37.8139 74.9099 37.2518 74.9558C36.7106 75 36.0462 75 35.2413 75H32C31.4477 75 31 74.5523 31 74Z" fill="#12131A"/>
<path d="M27.7071 68.2929C28.0976 68.6834 28.0976 69.3166 27.7071 69.7071C27.3166 70.0976 26.6834 70.0976 26.2929 69.7071L23.2929 66.7071C22.9024 66.3166 22.9024 65.6834 23.2929 65.2929L26.2929 62.2929C26.6834 61.9024 27.3166 61.9024 27.7071 62.2929C28.0976 62.6834 28.0976 63.3166 27.7071 63.7071L26.4142 65H35C35.5523 65 36 65.4477 36 66C36 66.5523 35.5523 67 35 67H26.4142L27.7071 68.2929Z" fill="#12131A"/>
<path d="M2.43115 13.0034H6.95068V14H1.25684V4.75781H2.43115V13.0034ZM8.58203 10.5024C8.58203 10.0073 8.65397 9.54818 8.79785 9.125C8.94173 8.69759 9.14909 8.32731 9.41992 8.01416C9.68652 7.70101 10.0124 7.45557 10.3975 7.27783C10.7826 7.09587 11.2163 7.00488 11.6987 7.00488C12.1854 7.00488 12.6213 7.09587 13.0063 7.27783C13.3957 7.45557 13.7257 7.70101 13.9966 8.01416C14.2632 8.32731 14.4684 8.69759 14.6123 9.125C14.7562 9.54818 14.8281 10.0073 14.8281 10.5024V10.6421C14.8281 11.1372 14.7562 11.5964 14.6123 12.0195C14.4684 12.4427 14.2632 12.8109 13.9966 13.124C13.7257 13.4372 13.3978 13.6826 13.0127 13.8604C12.6276 14.0381 12.1938 14.127 11.7114 14.127C11.2248 14.127 10.7868 14.0381 10.3975 13.8604C10.0124 13.6826 9.68652 13.4372 9.41992 13.124C9.14909 12.8109 8.94173 12.4427 8.79785 12.0195C8.65397 11.5964 8.58203 11.1372 8.58203 10.6421V10.5024ZM9.75635 10.6421C9.75635 10.9806 9.79655 11.3044 9.87695 11.6133C9.95736 11.918 10.0801 12.1867 10.2451 12.4194C10.4059 12.6522 10.609 12.8363 10.8545 12.9717C11.0999 13.1071 11.3856 13.1748 11.7114 13.1748C12.033 13.1748 12.3145 13.1071 12.5557 12.9717C12.8011 12.8363 13.0063 12.6522 13.1714 12.4194C13.3322 12.1867 13.4528 11.918 13.5332 11.6133C13.6136 11.3044 13.6538 10.9806 13.6538 10.6421V10.5024C13.6538 10.1681 13.6115 9.84863 13.5269 9.54395C13.4465 9.23503 13.3258 8.96419 13.165 8.73145C13 8.4987 12.7948 8.31462 12.5493 8.1792C12.3081 8.03955 12.0246 7.96973 11.6987 7.96973C11.3729 7.96973 11.0894 8.03955 10.8481 8.1792C10.6069 8.31462 10.4059 8.4987 10.2451 8.73145C10.0801 8.96419 9.95736 9.23503 9.87695 9.54395C9.79655 9.84863 9.75635 10.1681 9.75635 10.5024V10.6421ZM16.5039 10.5088C16.5039 9.99674 16.5653 9.52702 16.688 9.09961C16.8149 8.66797 16.9969 8.29769 17.2339 7.98877C17.4709 7.67985 17.7586 7.43864 18.0972 7.26514C18.4357 7.09163 18.8187 7.00488 19.2461 7.00488C19.5212 7.00488 19.7729 7.03662 20.0015 7.1001C20.2342 7.16357 20.4437 7.25667 20.6299 7.37939C20.7314 7.44287 20.8267 7.51693 20.9155 7.60156C21.0086 7.6862 21.0954 7.7793 21.1758 7.88086L21.2329 7.13184H22.2993V13.854C22.2993 14.3068 22.2274 14.7088 22.0835 15.0601C21.9438 15.4113 21.7471 15.7096 21.4932 15.9551C21.235 16.2005 20.9282 16.3867 20.5728 16.5137C20.2173 16.6406 19.8237 16.7041 19.3921 16.7041C19.2144 16.7041 19.0112 16.6829 18.7827 16.6406C18.5542 16.6025 18.3236 16.5369 18.0908 16.4438C17.8538 16.355 17.6253 16.2344 17.4053 16.082C17.1895 15.9297 17.0033 15.7414 16.8467 15.5171L17.4561 14.8125C17.5999 14.986 17.748 15.132 17.9004 15.2505C18.0527 15.3732 18.2072 15.4705 18.3638 15.5425C18.5203 15.6144 18.6769 15.6652 18.8335 15.6948C18.9901 15.7287 19.1466 15.7456 19.3032 15.7456C19.5825 15.7456 19.8343 15.7054 20.0586 15.625C20.2829 15.5446 20.4754 15.4261 20.6362 15.2695C20.7928 15.1172 20.9134 14.9268 20.998 14.6982C21.0827 14.4697 21.125 14.2074 21.125 13.9111V13.3208C21.0361 13.4224 20.9409 13.5155 20.8394 13.6001C20.742 13.6847 20.6362 13.7588 20.522 13.8223C20.3442 13.9196 20.1475 13.9937 19.9316 14.0444C19.7158 14.0994 19.4831 14.127 19.2334 14.127C18.8145 14.127 18.4357 14.0381 18.0972 13.8604C17.7586 13.6826 17.473 13.4372 17.2402 13.124C17.0033 12.8109 16.8213 12.4427 16.6943 12.0195C16.5674 11.5921 16.5039 11.133 16.5039 10.6421V10.5088ZM17.6782 10.6421C17.6782 10.9764 17.7121 11.2938 17.7798 11.5942C17.8517 11.8947 17.9639 12.1592 18.1162 12.3877C18.2643 12.6162 18.4548 12.7982 18.6875 12.9336C18.9202 13.0648 19.1995 13.1304 19.5254 13.1304C19.7285 13.1304 19.9105 13.1071 20.0713 13.0605C20.2363 13.0098 20.3844 12.9399 20.5156 12.8511C20.6426 12.7622 20.7568 12.6564 20.8584 12.5337C20.96 12.411 21.0488 12.2756 21.125 12.1274V8.979C21.0488 8.83512 20.96 8.70394 20.8584 8.58545C20.7568 8.46696 20.6405 8.36328 20.5093 8.27441C20.3781 8.18978 20.2321 8.12419 20.0713 8.07764C19.9105 8.02686 19.7327 8.00146 19.5381 8.00146C19.208 8.00146 18.9245 8.06917 18.6875 8.20459C18.4548 8.34001 18.2643 8.52197 18.1162 8.75049C17.9639 8.98324 17.8517 9.25195 17.7798 9.55664C17.7121 9.8571 17.6782 10.1745 17.6782 10.5088V10.6421ZM24.1973 10.5024C24.1973 10.0073 24.2692 9.54818 24.4131 9.125C24.557 8.69759 24.7643 8.32731 25.0352 8.01416C25.3018 7.70101 25.6276 7.45557 26.0127 7.27783C26.3978 7.09587 26.8315 7.00488 27.314 7.00488C27.8006 7.00488 28.2365 7.09587 28.6216 7.27783C29.0109 7.45557 29.341 7.70101 29.6118 8.01416C29.8784 8.32731 30.0837 8.69759 30.2275 9.125C30.3714 9.54818 30.4434 10.0073 30.4434 10.5024V10.6421C30.4434 11.1372 30.3714 11.5964 30.2275 12.0195C30.0837 12.4427 29.8784 12.8109 29.6118 13.124C29.341 13.4372 29.013 13.6826 28.6279 13.8604C28.2428 14.0381 27.8091 14.127 27.3267 14.127C26.84 14.127 26.402 14.0381 26.0127 13.8604C25.6276 13.6826 25.3018 13.4372 25.0352 13.124C24.7643 12.8109 24.557 12.4427 24.4131 12.0195C24.2692 11.5964 24.1973 11.1372 24.1973 10.6421V10.5024ZM25.3716 10.6421C25.3716 10.9806 25.4118 11.3044 25.4922 11.6133C25.5726 11.918 25.6953 12.1867 25.8604 12.4194C26.0212 12.6522 26.2243 12.8363 26.4697 12.9717C26.7152 13.1071 27.0008 13.1748 27.3267 13.1748C27.6483 13.1748 27.9297 13.1071 28.1709 12.9717C28.4163 12.8363 28.6216 12.6522 28.7866 12.4194C28.9474 12.1867 29.068 11.918 29.1484 11.6133C29.2288 11.3044 29.269 10.9806 29.269 10.6421V10.5024C29.269 10.1681 29.2267 9.84863 29.1421 9.54395C29.0617 9.23503 28.9411 8.96419 28.7803 8.73145C28.6152 8.4987 28.41 8.31462 28.1646 8.1792C27.9233 8.03955 27.6398 7.96973 27.314 7.96973C26.9881 7.96973 26.7046 8.03955 26.4634 8.1792C26.2222 8.31462 26.0212 8.4987 25.8604 8.73145C25.6953 8.96419 25.5726 9.23503 25.4922 9.54395C25.4118 9.84863 25.3716 10.1681 25.3716 10.5024V10.6421ZM36.8608 14L36.791 13.0542C36.5625 13.3927 36.2769 13.6572 35.9341 13.8477C35.5913 14.0339 35.1956 14.127 34.7471 14.127C34.3874 14.127 34.0615 14.0719 33.7695 13.9619C33.4775 13.8477 33.2279 13.672 33.0205 13.4351C32.8132 13.1981 32.6523 12.8976 32.5381 12.5337C32.4281 12.1655 32.373 11.7254 32.373 11.2134V7.13184H33.5474V11.2261C33.5474 11.5985 33.577 11.9074 33.6362 12.1528C33.6955 12.3983 33.7843 12.5929 33.9028 12.7368C34.0213 12.8849 34.1652 12.9886 34.3345 13.0479C34.508 13.1071 34.7069 13.1367 34.9312 13.1367C35.1935 13.1367 35.4284 13.1071 35.6357 13.0479C35.8431 12.9844 36.0229 12.8976 36.1753 12.7876C36.3022 12.6987 36.4123 12.5929 36.5054 12.4702C36.6027 12.3433 36.6831 12.2057 36.7466 12.0576V7.13184H37.9272V14H36.8608ZM42.9229 5.46875V7.13184H45.5381V8.03955H42.9229V11.772C42.9229 12.0386 42.9567 12.2586 43.0244 12.4321C43.0921 12.6056 43.1852 12.7432 43.3037 12.8447C43.4222 12.9505 43.5576 13.0246 43.71 13.0669C43.8665 13.1092 44.0316 13.1304 44.2051 13.1304C44.332 13.1304 44.4632 13.124 44.5986 13.1113C44.734 13.0944 44.8674 13.0754 44.9985 13.0542C45.1255 13.033 45.244 13.0119 45.354 12.9907C45.4683 12.9653 45.5614 12.9442 45.6333 12.9272L45.7983 13.7588C45.701 13.818 45.5825 13.8709 45.4429 13.9175C45.3032 13.9598 45.1509 13.9958 44.9858 14.0254C44.8208 14.0592 44.6452 14.0846 44.459 14.1016C44.277 14.1185 44.0951 14.127 43.9131 14.127C43.6084 14.127 43.3228 14.0846 43.0562 14C42.7938 13.9111 42.5653 13.7715 42.3706 13.5811C42.1759 13.3949 42.0215 13.1536 41.9072 12.8574C41.7972 12.557 41.7422 12.1951 41.7422 11.772V8.03955H39.9395V7.13184H41.7422V5.46875H42.9229Z" fill="#696C80"/>
</svg>
