<svg width="160" height="98" viewBox="0 0 160 98" fill="none" xmlns="http://www.w3.org/2000/svg">
<rect x="0.5" y="34.5" width="159" height="63" rx="4.5" stroke="#9747FF" stroke-dasharray="10 5"/>
<path d="M118 62.8C118 61.1198 118 60.2798 118.327 59.638C118.615 59.0735 119.074 58.6146 119.638 58.327C120.28 58 121.12 58 122.8 58H133.2C134.88 58 135.72 58 136.362 58.327C136.926 58.6146 137.385 59.0735 137.673 59.638C138 60.2798 138 61.1198 138 62.8V69.2C138 70.8802 138 71.7202 137.673 72.362C137.385 72.9265 136.926 73.3854 136.362 73.673C135.72 74 134.88 74 133.2 74H122.8C121.12 74 120.28 74 119.638 73.673C119.074 73.3854 118.615 72.9265 118.327 72.362C118 71.7202 118 70.8802 118 69.2V62.8Z" fill="#BABDCC"/>
<path fill-rule="evenodd" clip-rule="evenodd" d="M122.175 62.4343C122.488 61.9789 123.11 61.8629 123.566 62.1754L127.434 64.8292C127.775 65.0631 128.225 65.0631 128.566 64.8292L132.434 62.1754C132.89 61.8629 133.512 61.9789 133.825 62.4343C134.137 62.8897 134.021 63.5122 133.566 63.8246L129.697 66.4785C128.674 67.18 127.326 67.18 126.303 66.4785L122.434 63.8246C121.979 63.5122 121.863 62.8897 122.175 62.4343Z" fill="#12131A"/>
<path fill-rule="evenodd" clip-rule="evenodd" d="M70.327 59.638C70 60.2798 70 61.1198 70 62.8V69.2C70 70.8802 70 71.7202 70.327 72.362C70.6146 72.9265 71.0735 73.3854 71.638 73.673C72.2798 74 73.1198 74 74.8 74H85.2C86.8802 74 87.7202 74 88.362 73.673C88.9265 73.3854 89.3854 72.9265 89.673 72.362C90 71.7202 90 70.8802 90 69.2V62.8C90 61.1198 90 60.2798 89.673 59.638C89.3854 59.0735 88.9265 58.6146 88.362 58.327C87.7202 58 86.8802 58 85.2 58H74.8C73.1198 58 72.2798 58 71.638 58.327C71.0735 58.6146 70.6146 59.0735 70.327 59.638ZM75.5657 62.1754C75.1103 61.863 74.4878 61.9789 74.1754 62.4343C73.863 62.8897 73.9789 63.5122 74.4343 63.8246L78.3029 66.4785C79.3256 67.18 80.6744 67.18 81.6971 66.4785L85.5657 63.8246C86.0211 63.5122 86.137 62.8897 85.8246 62.4343C85.5122 61.9789 84.8897 61.863 84.4343 62.1754L80.5657 64.8293C80.2248 65.0631 79.7752 65.0631 79.4343 64.8293L75.5657 62.1754Z" fill="#12131A"/>
<path fill-rule="evenodd" clip-rule="evenodd" d="M27.7587 58H36.2413C37.0463 58 37.7106 58 38.2518 58.0442C38.8139 58.0901 39.3306 58.1887 39.816 58.436C40.5686 58.8195 41.1805 59.4314 41.564 60.184C41.8113 60.6694 41.9099 61.1861 41.9558 61.7482C42 62.2894 42 62.9537 42 63.7587V68.2413C42 69.0463 42 69.7106 41.9558 70.2518C41.9099 70.8139 41.8113 71.3306 41.564 71.816C41.1805 72.5686 40.5686 73.1805 39.816 73.564C39.3306 73.8113 38.8139 73.9099 38.2518 73.9558C37.7106 74 37.0463 74 36.2413 74H27.7587C26.9537 74 26.2894 74 25.7482 73.9558C25.1861 73.9099 24.6694 73.8113 24.184 73.564C23.4314 73.1805 22.8195 72.5686 22.436 71.816C22.1887 71.3306 22.0901 70.8139 22.0442 70.2518C22 69.7106 22 69.0463 22 68.2413V63.7587C22 62.9537 22 62.2894 22.0442 61.7482C22.0901 61.1861 22.1887 60.6694 22.436 60.184C22.8195 59.4314 23.4314 58.8195 24.184 58.436C24.6694 58.1887 25.1861 58.0901 25.7482 58.0442C26.2894 58 26.9537 58 27.7587 58ZM25.911 60.0376C25.4726 60.0734 25.2484 60.1383 25.092 60.218C24.7157 60.4097 24.4097 60.7157 24.218 61.092C24.1383 61.2484 24.0734 61.4726 24.0376 61.911C24.0008 62.3611 24 62.9434 24 63.8V68.2C24 69.0566 24.0008 69.6389 24.0376 70.089C24.0734 70.5274 24.1383 70.7516 24.218 70.908C24.4097 71.2843 24.7157 71.5903 25.092 71.782C25.2484 71.8617 25.4726 71.9266 25.911 71.9624C26.3611 71.9992 26.9434 72 27.8 72H36.2C37.0566 72 37.6389 71.9992 38.089 71.9624C38.5274 71.9266 38.7516 71.8617 38.908 71.782C39.2843 71.5903 39.5903 71.2843 39.782 70.908C39.8617 70.7516 39.9266 70.5274 39.9624 70.089C39.9992 69.6389 40 69.0566 40 68.2V63.8C40 62.9434 39.9992 62.3611 39.9624 61.911C39.9266 61.4726 39.8617 61.2484 39.782 61.092C39.5903 60.7157 39.2843 60.4097 38.908 60.218C38.7516 60.1383 38.5274 60.0734 38.089 60.0376C37.6389 60.0008 37.0566 60 36.2 60H27.8C26.9434 60 26.3611 60.0008 25.911 60.0376Z" fill="#12131A"/>
<path fill-rule="evenodd" clip-rule="evenodd" d="M26.1754 62.4343C26.4878 61.9789 27.1103 61.8629 27.5657 62.1754L31.4343 64.8292C31.7752 65.0631 32.2248 65.0631 32.5657 64.8292L36.4343 62.1754C36.8897 61.8629 37.5122 61.9789 37.8246 62.4343C38.137 62.8897 38.0211 63.5122 37.5657 63.8246L33.6971 66.4785C32.6744 67.18 31.3256 67.18 30.3029 66.4785L26.4343 63.8246C25.9789 63.5122 25.863 62.8897 26.1754 62.4343Z" fill="#12131A"/>
<path d="M2.39307 4.75781L3.89746 9.37891L5.52246 4.75781H6.98242V14H5.83984V10.312L5.93506 6.45264L4.22754 11.4292H3.55469L1.98682 6.58594L2.08203 10.312V14H0.939453V4.75781H2.39307ZM13.4253 14C13.3787 13.9111 13.3407 13.8011 13.311 13.6699C13.2856 13.5345 13.2666 13.3949 13.2539 13.251C13.1354 13.3695 13.0021 13.4816 12.854 13.5874C12.7101 13.6932 12.5514 13.7863 12.3779 13.8667C12.2002 13.9471 12.0119 14.0106 11.813 14.0571C11.6141 14.1037 11.4025 14.127 11.1782 14.127C10.8143 14.127 10.4842 14.0741 10.188 13.9683C9.896 13.8625 9.64844 13.7186 9.44531 13.5366C9.23796 13.3589 9.07715 13.1473 8.96289 12.9019C8.85286 12.6522 8.79785 12.3835 8.79785 12.0957C8.79785 11.7191 8.87191 11.389 9.02002 11.1055C9.17236 10.8219 9.38607 10.585 9.66113 10.3945C9.9362 10.2083 10.2663 10.0687 10.6514 9.97559C11.0407 9.88249 11.4744 9.83594 11.9526 9.83594H13.2349V9.29639C13.2349 9.08903 13.1968 8.90283 13.1206 8.73779C13.0444 8.57275 12.9365 8.43099 12.7969 8.3125C12.6572 8.19824 12.4858 8.10938 12.2827 8.0459C12.0838 7.98242 11.8595 7.95068 11.6099 7.95068C11.3771 7.95068 11.1676 7.98031 10.9814 8.03955C10.7995 8.0988 10.645 8.17708 10.5181 8.27441C10.3911 8.37174 10.2917 8.48812 10.2197 8.62354C10.152 8.75472 10.1182 8.89225 10.1182 9.03613H8.9375C8.94173 8.78646 9.00521 8.54102 9.12793 8.2998C9.25488 8.05859 9.43685 7.84066 9.67383 7.646C9.90658 7.45557 10.1901 7.30111 10.5244 7.18262C10.863 7.06413 11.2459 7.00488 11.6733 7.00488C12.0627 7.00488 12.4245 7.05355 12.7588 7.15088C13.0931 7.24398 13.383 7.38574 13.6284 7.57617C13.8696 7.77083 14.0601 8.01204 14.1997 8.2998C14.3394 8.58757 14.4092 8.92399 14.4092 9.30908V12.502C14.4092 12.7305 14.4303 12.9738 14.4727 13.2319C14.515 13.4858 14.5742 13.708 14.6504 13.8984V14H13.4253ZM11.3496 13.105C11.5781 13.105 11.7918 13.0754 11.9907 13.0161C12.1896 12.9569 12.3716 12.8786 12.5366 12.7812C12.6974 12.6839 12.8371 12.5739 12.9556 12.4512C13.0741 12.3242 13.1672 12.193 13.2349 12.0576V10.6675H12.1431C11.7368 10.6675 11.3813 10.7035 11.0767 10.7754C10.7762 10.8431 10.5371 10.9489 10.3594 11.0928C10.2324 11.1943 10.1351 11.3149 10.0674 11.4546C10.0039 11.5942 9.97217 11.7529 9.97217 11.9307C9.97217 12.0999 9.99967 12.2565 10.0547 12.4004C10.1139 12.5443 10.2007 12.667 10.3149 12.7686C10.4292 12.8743 10.5731 12.9569 10.7466 13.0161C10.9201 13.0754 11.1211 13.105 11.3496 13.105ZM16.9038 7.13184H20.4141V12.9844H22.6548V14H16.9038V12.9844H19.2397V8.15381H16.9038V7.13184ZM19.0874 5.3291C19.0874 5.22754 19.1022 5.13232 19.1318 5.04346C19.1657 4.95459 19.2165 4.87842 19.2842 4.81494C19.3392 4.75993 19.409 4.71761 19.4937 4.68799C19.5825 4.65413 19.682 4.63721 19.792 4.63721C19.902 4.63721 19.9993 4.65413 20.084 4.68799C20.1686 4.71761 20.2384 4.75993 20.2935 4.81494C20.3612 4.87419 20.4119 4.94824 20.4458 5.03711C20.4797 5.12598 20.4966 5.22331 20.4966 5.3291C20.4966 5.51953 20.4373 5.67822 20.3188 5.80518C20.2004 5.93213 20.0247 5.99561 19.792 5.99561C19.555 5.99561 19.3773 5.93213 19.2588 5.80518C19.1445 5.67822 19.0874 5.51953 19.0874 5.3291ZM24.7114 4.25H28.2217V12.9844H30.4624V14H24.7114V12.9844H27.0474V5.27197H24.7114V4.25Z" fill="#696C80"/>
</svg>
