<svg width="160" height="98" viewBox="0 0 160 98" fill="none" xmlns="http://www.w3.org/2000/svg">
<path d="M2.39307 4.75781L3.89746 9.37891L5.52246 4.75781H6.98242V14H5.83984V10.312L5.93506 6.45264L4.22754 11.4292H3.55469L1.98682 6.58594L2.08203 10.312V14H0.939453V4.75781H2.39307ZM8.58203 10.5024C8.58203 10.0073 8.65397 9.54818 8.79785 9.125C8.94173 8.69759 9.14909 8.32731 9.41992 8.01416C9.68652 7.70101 10.0124 7.45557 10.3975 7.27783C10.7826 7.09587 11.2163 7.00488 11.6987 7.00488C12.1854 7.00488 12.6213 7.09587 13.0063 7.27783C13.3957 7.45557 13.7257 7.70101 13.9966 8.01416C14.2632 8.32731 14.4684 8.69759 14.6123 9.125C14.7562 9.54818 14.8281 10.0073 14.8281 10.5024V10.6421C14.8281 11.1372 14.7562 11.5964 14.6123 12.0195C14.4684 12.4427 14.2632 12.8109 13.9966 13.124C13.7257 13.4372 13.3978 13.6826 13.0127 13.8604C12.6276 14.0381 12.1938 14.127 11.7114 14.127C11.2248 14.127 10.7868 14.0381 10.3975 13.8604C10.0124 13.6826 9.68652 13.4372 9.41992 13.124C9.14909 12.8109 8.94173 12.4427 8.79785 12.0195C8.65397 11.5964 8.58203 11.1372 8.58203 10.6421V10.5024ZM9.75635 10.6421C9.75635 10.9806 9.79655 11.3044 9.87695 11.6133C9.95736 11.918 10.0801 12.1867 10.2451 12.4194C10.4059 12.6522 10.609 12.8363 10.8545 12.9717C11.0999 13.1071 11.3856 13.1748 11.7114 13.1748C12.033 13.1748 12.3145 13.1071 12.5557 12.9717C12.8011 12.8363 13.0063 12.6522 13.1714 12.4194C13.3322 12.1867 13.4528 11.918 13.5332 11.6133C13.6136 11.3044 13.6538 10.9806 13.6538 10.6421V10.5024C13.6538 10.1681 13.6115 9.84863 13.5269 9.54395C13.4465 9.23503 13.3258 8.96419 13.165 8.73145C13 8.4987 12.7948 8.31462 12.5493 8.1792C12.3081 8.03955 12.0246 7.96973 11.6987 7.96973C11.3729 7.96973 11.0894 8.03955 10.8481 8.1792C10.6069 8.31462 10.4059 8.4987 10.2451 8.73145C10.0801 8.96419 9.95736 9.23503 9.87695 9.54395C9.79655 9.84863 9.75635 10.1681 9.75635 10.5024V10.6421ZM16.7197 14V7.13184H17.7734L17.856 8.14746C17.9575 8.00358 18.0675 7.8724 18.186 7.75391C18.3088 7.63118 18.4378 7.52539 18.5732 7.43652C18.7764 7.30111 18.9964 7.19743 19.2334 7.12549C19.4746 7.04932 19.7285 7.00911 19.9951 7.00488C20.3548 7.00488 20.6807 7.05566 20.9727 7.15723C21.2689 7.25879 21.5207 7.41748 21.728 7.6333C21.9354 7.84912 22.0941 8.12419 22.2041 8.4585C22.3184 8.78857 22.3755 9.18213 22.3755 9.63916V14H21.2012V9.66455C21.2012 9.35986 21.1673 9.10173 21.0996 8.89014C21.0319 8.67855 20.9325 8.50716 20.8013 8.37598C20.6659 8.24479 20.5008 8.14958 20.3062 8.09033C20.1157 8.03109 19.8957 8.00146 19.646 8.00146C19.4302 8.00146 19.2292 8.0332 19.043 8.09668C18.8568 8.15592 18.6854 8.23844 18.5288 8.34424C18.4019 8.43734 18.2834 8.54525 18.1733 8.66797C18.0675 8.79069 17.9744 8.92611 17.894 9.07422V14H16.7197ZM24.7114 7.13184H28.2217V12.9844H30.4624V14H24.7114V12.9844H27.0474V8.15381H24.7114V7.13184ZM26.895 5.3291C26.895 5.22754 26.9098 5.13232 26.9395 5.04346C26.9733 4.95459 27.0241 4.87842 27.0918 4.81494C27.1468 4.75993 27.2166 4.71761 27.3013 4.68799C27.3901 4.65413 27.4896 4.63721 27.5996 4.63721C27.7096 4.63721 27.807 4.65413 27.8916 4.68799C27.9762 4.71761 28.0461 4.75993 28.1011 4.81494C28.1688 4.87419 28.2196 4.94824 28.2534 5.03711C28.2873 5.12598 28.3042 5.22331 28.3042 5.3291C28.3042 5.51953 28.245 5.67822 28.1265 5.80518C28.008 5.93213 27.8324 5.99561 27.5996 5.99561C27.3626 5.99561 27.1849 5.93213 27.0664 5.80518C26.9521 5.67822 26.895 5.51953 26.895 5.3291ZM35.1152 5.46875V7.13184H37.7305V8.03955H35.1152V11.772C35.1152 12.0386 35.1491 12.2586 35.2168 12.4321C35.2845 12.6056 35.3776 12.7432 35.4961 12.8447C35.6146 12.9505 35.75 13.0246 35.9023 13.0669C36.0589 13.1092 36.224 13.1304 36.3975 13.1304C36.5244 13.1304 36.6556 13.124 36.791 13.1113C36.9264 13.0944 37.0597 13.0754 37.1909 13.0542C37.3179 13.033 37.4364 13.0119 37.5464 12.9907C37.6606 12.9653 37.7537 12.9442 37.8257 12.9272L37.9907 13.7588C37.8934 13.818 37.7749 13.8709 37.6353 13.9175C37.4956 13.9598 37.3433 13.9958 37.1782 14.0254C37.0132 14.0592 36.8376 14.0846 36.6514 14.1016C36.4694 14.1185 36.2874 14.127 36.1055 14.127C35.8008 14.127 35.5151 14.0846 35.2485 14C34.9862 13.9111 34.7576 13.7715 34.563 13.5811C34.3683 13.3949 34.2139 13.1536 34.0996 12.8574C33.9896 12.557 33.9346 12.1951 33.9346 11.772V8.03955H32.1318V7.13184H33.9346V5.46875H35.1152ZM39.8125 10.5024C39.8125 10.0073 39.8844 9.54818 40.0283 9.125C40.1722 8.69759 40.3796 8.32731 40.6504 8.01416C40.917 7.70101 41.2428 7.45557 41.6279 7.27783C42.013 7.09587 42.4468 7.00488 42.9292 7.00488C43.4159 7.00488 43.8517 7.09587 44.2368 7.27783C44.6261 7.45557 44.9562 7.70101 45.2271 8.01416C45.4937 8.32731 45.6989 8.69759 45.8428 9.125C45.9867 9.54818 46.0586 10.0073 46.0586 10.5024V10.6421C46.0586 11.1372 45.9867 11.5964 45.8428 12.0195C45.6989 12.4427 45.4937 12.8109 45.2271 13.124C44.9562 13.4372 44.6283 13.6826 44.2432 13.8604C43.8581 14.0381 43.4243 14.127 42.9419 14.127C42.4552 14.127 42.0173 14.0381 41.6279 13.8604C41.2428 13.6826 40.917 13.4372 40.6504 13.124C40.3796 12.8109 40.1722 12.4427 40.0283 12.0195C39.8844 11.5964 39.8125 11.1372 39.8125 10.6421V10.5024ZM40.9868 10.6421C40.9868 10.9806 41.027 11.3044 41.1074 11.6133C41.1878 11.918 41.3105 12.1867 41.4756 12.4194C41.6364 12.6522 41.8395 12.8363 42.085 12.9717C42.3304 13.1071 42.616 13.1748 42.9419 13.1748C43.2635 13.1748 43.5449 13.1071 43.7861 12.9717C44.0316 12.8363 44.2368 12.6522 44.4019 12.4194C44.5627 12.1867 44.6833 11.918 44.7637 11.6133C44.8441 11.3044 44.8843 10.9806 44.8843 10.6421V10.5024C44.8843 10.1681 44.842 9.84863 44.7573 9.54395C44.6769 9.23503 44.5563 8.96419 44.3955 8.73145C44.2305 8.4987 44.0252 8.31462 43.7798 8.1792C43.5386 8.03955 43.255 7.96973 42.9292 7.96973C42.6034 7.96973 42.3198 8.03955 42.0786 8.1792C41.8374 8.31462 41.6364 8.4987 41.4756 8.73145C41.3105 8.96419 41.1878 9.23503 41.1074 9.54395C41.027 9.84863 40.9868 10.1681 40.9868 10.5024V10.6421ZM52.4507 7.00488C52.6665 7.00488 52.8908 7.01969 53.1235 7.04932C53.3605 7.07894 53.5382 7.11914 53.6567 7.16992L53.498 8.31885C53.2695 8.26807 53.0516 8.2321 52.8442 8.21094C52.6411 8.18555 52.4274 8.17285 52.2031 8.17285C51.9154 8.17285 51.6551 8.20882 51.4224 8.28076C51.1896 8.34847 50.9865 8.45003 50.813 8.58545C50.6564 8.70394 50.5189 8.84993 50.4004 9.02344C50.2861 9.19271 50.1909 9.38314 50.1147 9.59473V14H48.9341V7.13184H50.0513L50.1021 8.05225L50.1084 8.22363C50.3877 7.84701 50.722 7.55078 51.1113 7.33496C51.5049 7.11491 51.9513 7.00488 52.4507 7.00488ZM69.3672 10.4644C69.3672 11.0526 69.2995 11.5752 69.1641 12.0322C69.0286 12.485 68.834 12.8659 68.5801 13.1748C68.3262 13.488 68.0151 13.7249 67.647 13.8857C67.2788 14.0465 66.8577 14.127 66.3838 14.127C65.9141 14.127 65.493 14.0487 65.1206 13.8921C64.7482 13.7313 64.4329 13.4922 64.1748 13.1748C63.9167 12.8659 63.7199 12.485 63.5845 12.0322C63.4491 11.5752 63.3813 11.0526 63.3813 10.4644V8.2998C63.3813 7.71159 63.4491 7.19108 63.5845 6.73828C63.7199 6.28125 63.9167 5.89616 64.1748 5.58301C64.4287 5.26986 64.7397 5.03288 65.1079 4.87207C65.4803 4.70703 65.9014 4.62451 66.3711 4.62451C66.8451 4.62451 67.2661 4.70703 67.6343 4.87207C68.0067 5.03288 68.3219 5.26986 68.5801 5.58301C68.834 5.89616 69.0286 6.28125 69.1641 6.73828C69.2995 7.19108 69.3672 7.71159 69.3672 8.2998V10.4644ZM64.562 10.2295L68.1611 7.46826C68.1273 7.16357 68.0659 6.89486 67.9771 6.66211C67.8924 6.42513 67.776 6.22835 67.6279 6.07178C67.484 5.91097 67.3063 5.79036 67.0947 5.70996C66.8874 5.62956 66.6462 5.58936 66.3711 5.58936C66.0918 5.58936 65.8442 5.63379 65.6284 5.72266C65.4168 5.80729 65.237 5.93213 65.0889 6.09717C64.9111 6.30452 64.7778 6.57324 64.689 6.90332C64.6043 7.22917 64.562 7.60791 64.562 8.03955V9.58838C64.562 9.69417 64.562 9.79997 64.562 9.90576C64.562 10.0116 64.562 10.1195 64.562 10.2295ZM68.1865 10.7119V9.4043C68.1865 9.34082 68.1865 9.22021 68.1865 9.04248C68.1865 8.86051 68.1865 8.71029 68.1865 8.5918L64.5938 11.3403C64.6318 11.6493 64.6995 11.9222 64.7969 12.1592C64.8942 12.3919 65.0212 12.5845 65.1777 12.7368C65.3216 12.8807 65.4951 12.9907 65.6982 13.0669C65.9014 13.1388 66.1299 13.1748 66.3838 13.1748C66.6504 13.1748 66.8874 13.1346 67.0947 13.0542C67.3021 12.9738 67.4777 12.8574 67.6216 12.7051C67.8162 12.4977 67.958 12.2269 68.0469 11.8926C68.14 11.5583 68.1865 11.1647 68.1865 10.7119ZM72.7441 8.81396H73.582C73.8783 8.81396 74.1385 8.77376 74.3628 8.69336C74.5913 8.61296 74.7839 8.50293 74.9404 8.36328C75.0928 8.22363 75.2091 8.05648 75.2896 7.86182C75.37 7.66715 75.4102 7.45345 75.4102 7.2207C75.4102 6.94564 75.3742 6.70654 75.3022 6.50342C75.2303 6.29606 75.1245 6.12467 74.9849 5.98926C74.8494 5.85807 74.6802 5.76074 74.4771 5.69727C74.2782 5.62956 74.0496 5.5957 73.7915 5.5957C73.5418 5.5957 73.3133 5.63379 73.106 5.70996C72.9028 5.7819 72.7293 5.8877 72.5854 6.02734C72.4373 6.16699 72.3231 6.33415 72.2427 6.52881C72.1623 6.72347 72.1221 6.94141 72.1221 7.18262H70.9414C70.9414 6.83138 71.0091 6.5013 71.1445 6.19238C71.2842 5.87923 71.4788 5.60628 71.7285 5.37354C71.9782 5.14502 72.2765 4.96517 72.6235 4.83398C72.9748 4.69857 73.3641 4.63086 73.7915 4.63086C74.2062 4.63086 74.585 4.68799 74.9277 4.80225C75.2705 4.91227 75.5646 5.07731 75.8101 5.29736C76.0555 5.51742 76.2459 5.79036 76.3813 6.11621C76.5168 6.44206 76.5845 6.81868 76.5845 7.24609C76.5845 7.42383 76.557 7.60791 76.502 7.79834C76.4469 7.98877 76.3623 8.17285 76.248 8.35059C76.1338 8.53255 75.9857 8.70394 75.8037 8.86475C75.626 9.02132 75.4123 9.15251 75.1626 9.2583C75.4631 9.35563 75.7127 9.48258 75.9116 9.63916C76.1147 9.79574 76.2777 9.97135 76.4004 10.166C76.5189 10.3607 76.6014 10.5659 76.6479 10.7817C76.6987 10.9976 76.7241 11.2113 76.7241 11.4229C76.7241 11.8545 76.6501 12.2375 76.502 12.5718C76.3538 12.9061 76.1486 13.1875 75.8862 13.416C75.6239 13.6488 75.3128 13.8265 74.9531 13.9492C74.5977 14.0677 74.2126 14.127 73.7979 14.127C73.3916 14.127 73.0086 14.0698 72.6489 13.9556C72.2935 13.8413 71.9845 13.6742 71.7222 13.4541C71.4598 13.234 71.2503 12.9653 71.0938 12.6479C70.9414 12.3306 70.8652 11.9688 70.8652 11.5625H72.0396C72.0396 11.8037 72.0798 12.0238 72.1602 12.2227C72.2448 12.4215 72.3633 12.5908 72.5156 12.7305C72.668 12.8701 72.8521 12.978 73.0679 13.0542C73.2879 13.1304 73.5312 13.1685 73.7979 13.1685C74.0645 13.1685 74.3057 13.1346 74.5215 13.0669C74.7373 12.995 74.9214 12.887 75.0737 12.7432C75.2261 12.5993 75.3424 12.4215 75.4229 12.21C75.5075 11.9941 75.5498 11.7402 75.5498 11.4482C75.5498 11.1605 75.5011 10.9129 75.4038 10.7056C75.3107 10.494 75.1795 10.3184 75.0103 10.1787C74.8368 10.0391 74.6273 9.93538 74.3818 9.86768C74.1406 9.79997 73.874 9.76611 73.582 9.76611H72.7441V8.81396Z" fill="#696C80"/>
<rect x="0.5" y="34.5" width="159" height="63" rx="4.5" stroke="#9747FF" stroke-dasharray="10 5"/>
<path d="M129 71H127V73H124C123.448 73 123 73.4477 123 74C123 74.5523 123.448 75 124 75H132C132.552 75 133 74.5523 133 74C133 73.4477 132.552 73 132 73H129V71Z" fill="#12131A"/>
<path d="M123.8 71C122.12 71 121.28 71 120.638 70.673C120.074 70.3854 119.615 69.9265 119.327 69.362C119 68.7202 119 67.8802 119 66.2L119 61.8C119 60.1198 119 59.2798 119.327 58.638C119.615 58.0735 120.074 57.6146 120.638 57.327C121.28 57 122.12 57 123.8 57L132.2 57C133.88 57 134.72 57 135.362 57.327C135.926 57.6146 136.385 58.0735 136.673 58.638C137 59.2798 137 60.1198 137 61.8V66.2C137 67.8802 137 68.7202 136.673 69.362C136.385 69.9265 135.926 70.3854 135.362 70.673C134.72 71 133.88 71 132.2 71H123.8Z" fill="#BABDCC"/>
<path d="M81 71H79V73H76C75.4477 73 75 73.4477 75 74C75 74.5523 75.4477 75 76 75H84C84.5523 75 85 74.5523 85 74C85 73.4477 84.5523 73 84 73H81V71Z" fill="#12131A"/>
<path d="M75.8 71C74.1198 71 73.2798 71 72.638 70.673C72.0735 70.3854 71.6146 69.9265 71.327 69.362C71 68.7202 71 67.8802 71 66.2L71 61.8C71 60.1198 71 59.2798 71.327 58.638C71.6146 58.0735 72.0735 57.6146 72.638 57.327C73.2798 57 74.1198 57 75.8 57L84.2 57C85.8802 57 86.7202 57 87.362 57.327C87.9265 57.6146 88.3854 58.0735 88.673 58.638C89 59.2798 89 60.1198 89 61.8V66.2C89 67.8802 89 68.7202 88.673 69.362C88.3854 69.9265 87.9265 70.3854 87.362 70.673C86.7202 71 85.8802 71 84.2 71H75.8Z" fill="#12131A"/>
<path d="M33 71H31V73H28C27.4477 73 27 73.4477 27 74C27 74.5523 27.4477 75 28 75H36C36.5523 75 37 74.5523 37 74C37 73.4477 36.5523 73 36 73H33V71Z" fill="#12131A"/>
<path fill-rule="evenodd" clip-rule="evenodd" d="M23 65.2413L23 62.7587C23 61.9537 23 61.2894 23.0442 60.7482C23.0901 60.1861 23.1887 59.6694 23.436 59.184C23.8195 58.4314 24.4314 57.8195 25.184 57.436C25.6694 57.1887 26.1861 57.0901 26.7482 57.0442C27.2894 57 27.9537 57 28.7587 57L35.2413 57C36.0463 57 36.7106 57 37.2518 57.0442C37.8139 57.0901 38.3306 57.1887 38.816 57.436C39.5686 57.8195 40.1805 58.4314 40.564 59.184C40.8113 59.6694 40.9099 60.1861 40.9558 60.7482C41 61.2894 41 61.9537 41 62.7587V65.2413C41 66.0463 41 66.7106 40.9558 67.2518C40.9099 67.8139 40.8113 68.3306 40.564 68.816C40.1805 69.5686 39.5686 70.1805 38.816 70.564C38.3306 70.8113 37.8139 70.9099 37.2518 70.9558C36.7106 71 36.0463 71 35.2413 71H28.7587C27.9537 71 27.2894 71 26.7482 70.9558C26.1861 70.9099 25.6694 70.8113 25.184 70.564C24.4314 70.1805 23.8195 69.5686 23.436 68.816C23.1887 68.3306 23.0901 67.8139 23.0442 67.2518C23 66.7106 23 66.0463 23 65.2413ZM25.0376 67.089C25.0734 67.5274 25.1383 67.7516 25.218 67.908C25.4097 68.2843 25.7157 68.5903 26.092 68.782C26.2484 68.8617 26.4726 68.9266 26.911 68.9624C27.3611 68.9992 27.9434 69 28.8 69L35.2 69C36.0566 69 36.6389 68.9992 37.089 68.9624C37.5274 68.9266 37.7516 68.8617 37.908 68.782C38.2843 68.5903 38.5903 68.2843 38.782 67.908C38.8617 67.7516 38.9266 67.5274 38.9624 67.089C38.9992 66.6389 39 66.0566 39 65.2V62.8C39 61.9434 38.9992 61.3611 38.9624 60.911C38.9266 60.4726 38.8617 60.2484 38.782 60.092C38.5903 59.7157 38.2843 59.4097 37.908 59.218C37.7516 59.1383 37.5274 59.0734 37.089 59.0376C36.6389 59.0008 36.0566 59 35.2 59L28.8 59C27.9434 59 27.3611 59.0008 26.911 59.0376C26.4726 59.0734 26.2484 59.1383 26.092 59.218C25.7157 59.4097 25.4097 59.7157 25.218 60.092C25.1383 60.2484 25.0734 60.4726 25.0376 60.911C25.0008 61.3611 25 61.9434 25 62.8V65.2C25 66.0566 25.0008 66.6389 25.0376 67.089Z" fill="#12131A"/>
</svg>
