<svg width="160" height="98" viewBox="0 0 160 98" fill="none" xmlns="http://www.w3.org/2000/svg">
<rect x="0.5" y="34.5" width="159" height="63" rx="4.5" stroke="#9747FF" stroke-dasharray="10 5"/>
<path d="M119.218 58.092C119 58.5198 119 59.0799 119 60.2V71.8C119 72.9201 119 73.4802 119.218 73.908C119.41 74.2843 119.716 74.5903 120.092 74.782C120.52 75 121.08 75 122.2 75H122.8C123.92 75 124.48 75 124.908 74.782C125.284 74.5903 125.59 74.2843 125.782 73.908C126 73.4802 126 72.9201 126 71.8V60.2C126 59.0799 126 58.5198 125.782 58.092C125.59 57.7157 125.284 57.4097 124.908 57.218C124.48 57 123.92 57 122.8 57H122.2C121.08 57 120.52 57 120.092 57.218C119.716 57.4097 119.41 57.7157 119.218 58.092Z" fill="#BABDCC"/>
<path d="M130.218 58.092C130 58.5198 130 59.0799 130 60.2V71.8C130 72.9201 130 73.4802 130.218 73.908C130.41 74.2843 130.716 74.5903 131.092 74.782C131.52 75 132.08 75 133.2 75H133.8C134.92 75 135.48 75 135.908 74.782C136.284 74.5903 136.59 74.2843 136.782 73.908C137 73.4802 137 72.9201 137 71.8V60.2C137 59.0799 137 58.5198 136.782 58.092C136.59 57.7157 136.284 57.4097 135.908 57.218C135.48 57 134.92 57 133.8 57H133.2C132.08 57 131.52 57 131.092 57.218C130.716 57.4097 130.41 57.7157 130.218 58.092Z" fill="#BABDCC"/>
<path d="M71.218 58.092C71 58.5198 71 59.0799 71 60.2V71.8C71 72.9201 71 73.4802 71.218 73.908C71.4097 74.2843 71.7157 74.5903 72.092 74.782C72.5198 75 73.0799 75 74.2 75H74.8C75.9201 75 76.4802 75 76.908 74.782C77.2843 74.5903 77.5903 74.2843 77.782 73.908C78 73.4802 78 72.9201 78 71.8V60.2C78 59.0799 78 58.5198 77.782 58.092C77.5903 57.7157 77.2843 57.4097 76.908 57.218C76.4802 57 75.9201 57 74.8 57H74.2C73.0799 57 72.5198 57 72.092 57.218C71.7157 57.4097 71.4097 57.7157 71.218 58.092Z" fill="#12131A"/>
<path d="M82.218 58.092C82 58.5198 82 59.0799 82 60.2V71.8C82 72.9201 82 73.4802 82.218 73.908C82.4097 74.2843 82.7157 74.5903 83.092 74.782C83.5198 75 84.0799 75 85.2 75H85.8C86.9201 75 87.4802 75 87.908 74.782C88.2843 74.5903 88.5903 74.2843 88.782 73.908C89 73.4802 89 72.9201 89 71.8V60.2C89 59.0799 89 58.5198 88.782 58.092C88.5903 57.7157 88.2843 57.4097 87.908 57.218C87.4802 57 86.9201 57 85.8 57H85.2C84.0799 57 83.5198 57 83.092 57.218C82.7157 57.4097 82.4097 57.7157 82.218 58.092Z" fill="#12131A"/>
<path fill-rule="evenodd" clip-rule="evenodd" d="M37.5001 57.0001L37.4162 57C37.0355 56.9997 36.7077 56.9995 36.4148 57.0577C35.2247 57.2945 34.2945 58.2247 34.0577 59.4148C33.9995 59.7077 33.9997 60.0355 34 60.4162V71.584C33.9997 71.9647 33.9995 72.2925 34.0577 72.5854C34.2945 73.7754 35.2247 74.7057 36.4148 74.9424C36.7077 75.0007 37.0355 75.0004 37.4162 75.0001L37.5001 75.0001L37.584 75.0001C37.9646 75.0004 38.2925 75.0007 38.5854 74.9424C39.7754 74.7057 40.7057 73.7754 40.9424 72.5854C41.0007 72.2925 41.0004 71.9647 41.0001 71.584V60.4162C41.0004 60.0355 41.0007 59.7077 40.9424 59.4148C40.7057 58.2247 39.7754 57.2945 38.5854 57.0577C38.2925 56.9995 37.9647 56.9997 37.584 57L37.5001 57.0001ZM36.805 59.0193C36.8772 59.0049 36.9875 59.0001 37.5001 59.0001C38.0127 59.0001 38.1229 59.0049 38.1952 59.0193C38.5919 59.0982 38.902 59.4083 38.9809 59.805C38.9952 59.8772 39.0001 59.9875 39.0001 60.5001V71.5001C39.0001 72.0127 38.9952 72.1229 38.9809 72.1952C38.902 72.5919 38.5919 72.902 38.1952 72.9809C38.1229 72.9952 38.0127 73.0001 37.5001 73.0001C36.9875 73.0001 36.8772 72.9952 36.805 72.9809C36.4083 72.902 36.0982 72.5919 36.0193 72.1952C36.0049 72.1229 36.0001 72.0127 36.0001 71.5001V60.5001C36.0001 59.9875 36.0049 59.8772 36.0193 59.805C36.0982 59.4083 36.4083 59.0982 36.805 59.0193Z" fill="#12131A"/>
<path fill-rule="evenodd" clip-rule="evenodd" d="M26.5001 57.0001L26.4162 57C26.0355 56.9997 25.7077 56.9995 25.4148 57.0577C24.2247 57.2945 23.2945 58.2247 23.0577 59.4148C22.9995 59.7077 22.9997 60.0355 23 60.4162L23 71.584C22.9997 71.9647 22.9995 72.2925 23.0577 72.5854C23.2945 73.7754 24.2247 74.7057 25.4148 74.9424C25.7077 75.0007 26.0355 75.0004 26.4162 75.0001L26.5001 75.0001L26.584 75.0001C26.9646 75.0004 27.2925 75.0007 27.5854 74.9424C28.7754 74.7057 29.7057 73.7754 29.9424 72.5854C30.0007 72.2925 30.0004 71.9647 30.0001 71.584V60.4162C30.0004 60.0355 30.0007 59.7077 29.9424 59.4148C29.7057 58.2247 28.7754 57.2945 27.5854 57.0577C27.2925 56.9995 26.9647 56.9997 26.584 57L26.5001 57.0001ZM25.805 59.0193C25.8772 59.0049 25.9875 59.0001 26.5001 59.0001C27.0127 59.0001 27.1229 59.0049 27.1952 59.0193C27.5919 59.0982 27.902 59.4083 27.9809 59.805C27.9952 59.8772 28.0001 59.9875 28.0001 60.5001V71.5001C28.0001 72.0127 27.9952 72.1229 27.9809 72.1952C27.902 72.5919 27.5919 72.902 27.1952 72.9809C27.1229 72.9952 27.0127 73.0001 26.5001 73.0001C25.9875 73.0001 25.8772 72.9952 25.805 72.9809C25.4083 72.902 25.0982 72.5919 25.0193 72.1952C25.0049 72.1229 25.0001 72.0127 25.0001 71.5001V60.5001C25.0001 59.9875 25.0049 59.8772 25.0193 59.805C25.0982 59.4083 25.4083 59.0982 25.805 59.0193Z" fill="#12131A"/>
<path d="M2.38672 10.293V14H1.2124V4.75781H4.2085C4.62321 4.76628 5.01465 4.83187 5.38281 4.95459C5.75521 5.07731 6.08105 5.25505 6.36035 5.48779C6.63965 5.72054 6.8597 6.0083 7.02051 6.35107C7.18555 6.69385 7.26807 7.0874 7.26807 7.53174C7.26807 7.97607 7.18555 8.36963 7.02051 8.7124C6.8597 9.05094 6.63965 9.33659 6.36035 9.56934C6.08105 9.80208 5.75521 9.97982 5.38281 10.1025C5.01465 10.2253 4.62321 10.2887 4.2085 10.293H2.38672ZM2.38672 9.32812H4.2085C4.47933 9.32389 4.729 9.28158 4.95752 9.20117C5.18604 9.11654 5.38493 8.99805 5.5542 8.8457C5.72347 8.69336 5.85465 8.50928 5.94775 8.29346C6.04508 8.0734 6.09375 7.82373 6.09375 7.54443C6.09375 7.26514 6.04508 7.01335 5.94775 6.78906C5.85465 6.56478 5.72559 6.37435 5.56055 6.21777C5.39128 6.0612 5.19027 5.94059 4.95752 5.85596C4.729 5.77132 4.47933 5.72689 4.2085 5.72266H2.38672V9.32812ZM13.4253 14C13.3787 13.9111 13.3407 13.8011 13.311 13.6699C13.2856 13.5345 13.2666 13.3949 13.2539 13.251C13.1354 13.3695 13.0021 13.4816 12.854 13.5874C12.7101 13.6932 12.5514 13.7863 12.3779 13.8667C12.2002 13.9471 12.0119 14.0106 11.813 14.0571C11.6141 14.1037 11.4025 14.127 11.1782 14.127C10.8143 14.127 10.4842 14.0741 10.188 13.9683C9.896 13.8625 9.64844 13.7186 9.44531 13.5366C9.23796 13.3589 9.07715 13.1473 8.96289 12.9019C8.85286 12.6522 8.79785 12.3835 8.79785 12.0957C8.79785 11.7191 8.87191 11.389 9.02002 11.1055C9.17236 10.8219 9.38607 10.585 9.66113 10.3945C9.9362 10.2083 10.2663 10.0687 10.6514 9.97559C11.0407 9.88249 11.4744 9.83594 11.9526 9.83594H13.2349V9.29639C13.2349 9.08903 13.1968 8.90283 13.1206 8.73779C13.0444 8.57275 12.9365 8.43099 12.7969 8.3125C12.6572 8.19824 12.4858 8.10938 12.2827 8.0459C12.0838 7.98242 11.8595 7.95068 11.6099 7.95068C11.3771 7.95068 11.1676 7.98031 10.9814 8.03955C10.7995 8.0988 10.645 8.17708 10.5181 8.27441C10.3911 8.37174 10.2917 8.48812 10.2197 8.62354C10.152 8.75472 10.1182 8.89225 10.1182 9.03613H8.9375C8.94173 8.78646 9.00521 8.54102 9.12793 8.2998C9.25488 8.05859 9.43685 7.84066 9.67383 7.646C9.90658 7.45557 10.1901 7.30111 10.5244 7.18262C10.863 7.06413 11.2459 7.00488 11.6733 7.00488C12.0627 7.00488 12.4245 7.05355 12.7588 7.15088C13.0931 7.24398 13.383 7.38574 13.6284 7.57617C13.8696 7.77083 14.0601 8.01204 14.1997 8.2998C14.3394 8.58757 14.4092 8.92399 14.4092 9.30908V12.502C14.4092 12.7305 14.4303 12.9738 14.4727 13.2319C14.515 13.4858 14.5742 13.708 14.6504 13.8984V14H13.4253ZM11.3496 13.105C11.5781 13.105 11.7918 13.0754 11.9907 13.0161C12.1896 12.9569 12.3716 12.8786 12.5366 12.7812C12.6974 12.6839 12.8371 12.5739 12.9556 12.4512C13.0741 12.3242 13.1672 12.193 13.2349 12.0576V10.6675H12.1431C11.7368 10.6675 11.3813 10.7035 11.0767 10.7754C10.7762 10.8431 10.5371 10.9489 10.3594 11.0928C10.2324 11.1943 10.1351 11.3149 10.0674 11.4546C10.0039 11.5942 9.97217 11.7529 9.97217 11.9307C9.97217 12.0999 9.99967 12.2565 10.0547 12.4004C10.1139 12.5443 10.2007 12.667 10.3149 12.7686C10.4292 12.8743 10.5731 12.9569 10.7466 13.0161C10.9201 13.0754 11.1211 13.105 11.3496 13.105ZM21.2456 14L21.1758 13.0542C20.9473 13.3927 20.6616 13.6572 20.3188 13.8477C19.9761 14.0339 19.5804 14.127 19.1318 14.127C18.7721 14.127 18.4463 14.0719 18.1543 13.9619C17.8623 13.8477 17.6126 13.672 17.4053 13.4351C17.1979 13.1981 17.0371 12.8976 16.9229 12.5337C16.8128 12.1655 16.7578 11.7254 16.7578 11.2134V7.13184H17.9321V11.2261C17.9321 11.5985 17.9618 11.9074 18.021 12.1528C18.0802 12.3983 18.1691 12.5929 18.2876 12.7368C18.4061 12.8849 18.55 12.9886 18.7192 13.0479C18.8927 13.1071 19.0916 13.1367 19.3159 13.1367C19.5783 13.1367 19.8132 13.1071 20.0205 13.0479C20.2279 12.9844 20.4077 12.8976 20.5601 12.7876C20.687 12.6987 20.797 12.5929 20.8901 12.4702C20.9875 12.3433 21.0679 12.2057 21.1313 12.0576V7.13184H22.312V14H21.2456ZM29.0913 12.1782C29.0913 12.0386 29.0638 11.9137 29.0088 11.8037C28.9538 11.6895 28.8607 11.5858 28.7295 11.4927C28.5983 11.3996 28.4248 11.3149 28.209 11.2388C27.9932 11.1584 27.7244 11.0864 27.4028 11.0229C27.0093 10.9425 26.6496 10.8452 26.3237 10.731C26.0021 10.6167 25.7271 10.4792 25.4985 10.3184C25.2658 10.1618 25.0859 9.9777 24.959 9.76611C24.832 9.55029 24.7686 9.30062 24.7686 9.01709C24.7686 8.73779 24.8341 8.47754 24.9653 8.23633C25.0965 7.99089 25.2806 7.77718 25.5176 7.59521C25.7546 7.41325 26.036 7.26937 26.3618 7.16357C26.6919 7.05778 27.0537 7.00488 27.4473 7.00488C27.8704 7.00488 28.2513 7.0599 28.5898 7.16992C28.9284 7.27995 29.2161 7.43229 29.4531 7.62695C29.6901 7.82161 29.8721 8.05013 29.999 8.3125C30.1302 8.57064 30.1958 8.84993 30.1958 9.15039H29.0215C29.0215 9.00228 28.9834 8.8584 28.9072 8.71875C28.8311 8.57487 28.7253 8.44792 28.5898 8.33789C28.4544 8.22786 28.2894 8.139 28.0947 8.07129C27.9043 8.00358 27.6885 7.96973 27.4473 7.96973C27.1976 7.96973 26.9775 7.99723 26.7871 8.05225C26.6009 8.10726 26.4465 8.18132 26.3237 8.27441C26.1968 8.36751 26.1016 8.47542 26.0381 8.59814C25.9746 8.72087 25.9429 8.84782 25.9429 8.979C25.9429 9.11442 25.9683 9.23503 26.019 9.34082C26.0698 9.44661 26.1587 9.54183 26.2856 9.62646C26.4084 9.7111 26.5734 9.78727 26.7808 9.85498C26.9924 9.92269 27.259 9.98828 27.5806 10.0518C28.0037 10.1406 28.3825 10.2443 28.7168 10.3628C29.0511 10.4771 29.3325 10.6146 29.561 10.7754C29.7896 10.9404 29.9631 11.1309 30.0815 11.3467C30.2043 11.5625 30.2656 11.8122 30.2656 12.0957C30.2656 12.4004 30.1958 12.6776 30.0562 12.9272C29.9207 13.1769 29.7303 13.3906 29.4849 13.5684C29.2394 13.7461 28.9453 13.8836 28.6025 13.981C28.2598 14.0783 27.8853 14.127 27.479 14.127C27.0135 14.127 26.5988 14.0656 26.2349 13.9429C25.8709 13.8159 25.5641 13.6488 25.3145 13.4414C25.0605 13.2383 24.8659 13.0013 24.7305 12.7305C24.5993 12.4596 24.5337 12.1782 24.5337 11.8862H25.708C25.7249 12.1274 25.7884 12.3306 25.8984 12.4956C26.0127 12.6606 26.1545 12.7939 26.3237 12.8955C26.4888 12.9971 26.6729 13.069 26.876 13.1113C27.0791 13.1536 27.2801 13.1748 27.479 13.1748C27.7922 13.1748 28.0651 13.1388 28.2979 13.0669C28.5306 12.9907 28.7126 12.887 28.8438 12.7559C28.9242 12.6755 28.9855 12.5866 29.0278 12.4893C29.0701 12.3919 29.0913 12.2882 29.0913 12.1782ZM35.3691 14.127C34.8867 14.127 34.4424 14.0444 34.0361 13.8794C33.6341 13.7144 33.2892 13.4837 33.0015 13.1875C32.7137 12.8913 32.4894 12.54 32.3286 12.1338C32.1678 11.7275 32.0874 11.2853 32.0874 10.8071V10.5405C32.0874 9.98617 32.1763 9.49105 32.354 9.05518C32.5317 8.61507 32.7687 8.24268 33.0649 7.93799C33.3569 7.63753 33.6891 7.4069 34.0615 7.24609C34.4382 7.08529 34.8232 7.00488 35.2168 7.00488C35.7119 7.00488 36.1436 7.09163 36.5117 7.26514C36.8841 7.43441 37.193 7.66927 37.4385 7.96973C37.6839 8.27441 37.8659 8.632 37.9844 9.04248C38.1071 9.45296 38.1685 9.8973 38.1685 10.3755V10.9023H33.2617V10.9468C33.2913 11.2811 33.3569 11.5752 33.4585 11.8291C33.5643 12.083 33.7082 12.3073 33.8901 12.502C34.0763 12.7093 34.3006 12.8722 34.563 12.9907C34.8254 13.1092 35.1152 13.1685 35.4326 13.1685C35.8516 13.1685 36.224 13.0838 36.5498 12.9146C36.8757 12.7453 37.1465 12.521 37.3623 12.2417L38.0796 12.8003C37.8511 13.1473 37.5083 13.4562 37.0513 13.7271C36.5985 13.9937 36.0378 14.127 35.3691 14.127ZM35.2168 7.96973C34.9798 7.96973 34.7555 8.01416 34.5439 8.10303C34.3324 8.18766 34.1419 8.3125 33.9727 8.47754C33.8034 8.64681 33.6595 8.85417 33.541 9.09961C33.4268 9.34082 33.3464 9.62012 33.2998 9.9375H36.9941V9.88037C36.9941 9.66878 36.9539 9.44238 36.8735 9.20117C36.7931 8.95573 36.681 8.74414 36.5371 8.56641C36.3932 8.38867 36.2113 8.24479 35.9912 8.13477C35.7754 8.02474 35.5173 7.96973 35.2168 7.96973Z" fill="#696C80"/>
</svg>
