<svg width="160" height="98" viewBox="0 0 160 98" fill="none" xmlns="http://www.w3.org/2000/svg">
<rect x="0.5" y="34.5" width="159" height="63" rx="4.5" stroke="#9747FF" stroke-dasharray="10 5"/>
<path d="M131.2 58H122.8C121.12 58 120.28 58 119.638 58.327C119.074 58.6146 118.615 59.0735 118.327 59.638C118 60.2798 118 61.1198 118 62.8V67.2C118 68.8802 118 69.7202 118.327 70.362C118.615 70.9265 119.074 71.3854 119.638 71.673C120.28 72 121.12 72 122.8 72H131.2C132.88 72 133.72 72 134.362 71.673C134.926 71.3854 135.385 70.9265 135.673 70.362C136 69.7202 136 68.8802 136 67.2V62.8C136 61.1198 136 60.2798 135.673 59.638C135.385 59.0735 134.926 58.6146 134.362 58.327C133.72 58 132.88 58 131.2 58Z" fill="#BABDCC"/>
<path d="M130 69.6C130 69.0399 130 68.7599 130.109 68.546C130.205 68.3578 130.358 68.2049 130.546 68.109C130.76 68 131.04 68 131.6 68H136.4C136.96 68 137.24 68 137.454 68.109C137.642 68.2049 137.795 68.3578 137.891 68.546C138 68.7599 138 69.0399 138 69.6V72.4C138 72.9601 138 73.2401 137.891 73.454C137.795 73.6422 137.642 73.7951 137.454 73.891C137.24 74 136.96 74 136.4 74H131.6C131.04 74 130.76 74 130.546 73.891C130.358 73.7951 130.205 73.6422 130.109 73.454C130 73.2401 130 72.9601 130 72.4V69.6Z" fill="#12131A"/>
<path d="M82 69.6C82 69.0399 82 68.7599 82.109 68.546C82.2049 68.3578 82.3578 68.2049 82.546 68.109C82.7599 68 83.0399 68 83.6 68H88.4C88.9601 68 89.2401 68 89.454 68.109C89.6422 68.2049 89.7951 68.3578 89.891 68.546C90 68.7599 90 69.0399 90 69.6V72.4C90 72.9601 90 73.2401 89.891 73.454C89.7951 73.6422 89.6422 73.7951 89.454 73.891C89.2401 74 88.9601 74 88.4 74H83.6C83.0399 74 82.7599 74 82.546 73.891C82.3578 73.7951 82.2049 73.6422 82.109 73.454C82 73.2401 82 72.9601 82 72.4V69.6Z" fill="#12131A"/>
<path d="M83.2 58H74.8C73.1198 58 72.2798 58 71.638 58.327C71.0735 58.6146 70.6146 59.0735 70.327 59.638C70 60.2798 70 61.1198 70 62.8V67.2C70 68.8802 70 69.7202 70.327 70.362C70.6146 70.9265 71.0735 71.3854 71.638 71.673C72.2798 72 73.1198 72 74.8 72H79.2C79.48 72 79.62 72 79.727 71.9455C79.8211 71.8976 79.8976 71.8211 79.9455 71.727C80 71.62 80 71.48 80 71.2V69.2C80 68.0799 80 67.5198 80.218 67.092C80.4097 66.7157 80.7157 66.4097 81.092 66.218C81.5198 66 82.0799 66 83.2 66H87.2C87.48 66 87.62 66 87.727 65.9455C87.8211 65.8976 87.8976 65.8211 87.9455 65.727C88 65.62 88 65.48 88 65.2V62.8C88 61.1198 88 60.2798 87.673 59.638C87.3854 59.0735 86.9265 58.6146 86.362 58.327C85.7202 58 84.8802 58 83.2 58Z" fill="#12131A"/>
<path d="M34 69.6C34 69.0399 34 68.7599 34.109 68.546C34.2049 68.3578 34.3578 68.2049 34.546 68.109C34.7599 68 35.0399 68 35.6 68H40.4C40.9601 68 41.2401 68 41.454 68.109C41.6422 68.2049 41.7951 68.3578 41.891 68.546C42 68.7599 42 69.0399 42 69.6V72.4C42 72.9601 42 73.2401 41.891 73.454C41.7951 73.6422 41.6422 73.7951 41.454 73.891C41.2401 74 40.9601 74 40.4 74H35.6C35.0399 74 34.7599 74 34.546 73.891C34.3578 73.7951 34.2049 73.6422 34.109 73.454C34 73.2401 34 72.9601 34 72.4V69.6Z" fill="#12131A"/>
<path fill-rule="evenodd" clip-rule="evenodd" d="M27.7587 58H34.2413C35.0463 58 35.7106 58 36.2518 58.0442C36.8139 58.0901 37.3306 58.1887 37.816 58.436C38.5686 58.8195 39.1805 59.4314 39.564 60.184C39.8113 60.6694 39.9099 61.1861 39.9558 61.7482C40 62.2894 40 62.9537 40 63.7587V65C40 65.5523 39.5523 66 39 66C38.4477 66 38 65.5523 38 65V63.8C38 62.9434 37.9992 62.3611 37.9624 61.911C37.9266 61.4726 37.8617 61.2484 37.782 61.092C37.5903 60.7157 37.2843 60.4097 36.908 60.218C36.7516 60.1383 36.5274 60.0734 36.089 60.0376C35.6389 60.0008 35.0566 60 34.2 60H27.8C26.9434 60 26.3611 60.0008 25.911 60.0376C25.4726 60.0734 25.2484 60.1383 25.092 60.218C24.7157 60.4097 24.4097 60.7157 24.218 61.092C24.1383 61.2484 24.0734 61.4726 24.0376 61.911C24.0008 62.3611 24 62.9434 24 63.8V66.2C24 67.0566 24.0008 67.6389 24.0376 68.089C24.0734 68.5274 24.1383 68.7516 24.218 68.908C24.4097 69.2843 24.7157 69.5903 25.092 69.782C25.2484 69.8617 25.4726 69.9266 25.911 69.9624C26.3611 69.9992 26.9434 70 27.8 70H31C31.5523 70 32 70.4477 32 71C32 71.5523 31.5523 72 31 72H27.7587C26.9537 72 26.2894 72 25.7482 71.9558C25.1861 71.9099 24.6694 71.8113 24.184 71.564C23.4314 71.1805 22.8195 70.5686 22.436 69.816C22.1887 69.3306 22.0901 68.8139 22.0442 68.2518C22 67.7106 22 67.0463 22 66.2413V63.7587C22 62.9537 22 62.2894 22.0442 61.7482C22.0901 61.1861 22.1887 60.6694 22.436 60.184C22.8195 59.4314 23.4314 58.8195 24.184 58.436C24.6694 58.1887 25.1861 58.0901 25.7482 58.0442C26.2894 58 26.9537 58 27.7587 58Z" fill="#12131A"/>
<path d="M2.38672 10.293V14H1.2124V4.75781H4.2085C4.62321 4.76628 5.01465 4.83187 5.38281 4.95459C5.75521 5.07731 6.08105 5.25505 6.36035 5.48779C6.63965 5.72054 6.8597 6.0083 7.02051 6.35107C7.18555 6.69385 7.26807 7.0874 7.26807 7.53174C7.26807 7.97607 7.18555 8.36963 7.02051 8.7124C6.8597 9.05094 6.63965 9.33659 6.36035 9.56934C6.08105 9.80208 5.75521 9.97982 5.38281 10.1025C5.01465 10.2253 4.62321 10.2887 4.2085 10.293H2.38672ZM2.38672 9.32812H4.2085C4.47933 9.32389 4.729 9.28158 4.95752 9.20117C5.18604 9.11654 5.38493 8.99805 5.5542 8.8457C5.72347 8.69336 5.85465 8.50928 5.94775 8.29346C6.04508 8.0734 6.09375 7.82373 6.09375 7.54443C6.09375 7.26514 6.04508 7.01335 5.94775 6.78906C5.85465 6.56478 5.72559 6.37435 5.56055 6.21777C5.39128 6.0612 5.19027 5.94059 4.95752 5.85596C4.729 5.77132 4.47933 5.72689 4.2085 5.72266H2.38672V9.32812ZM9.09619 7.13184H12.6064V12.9844H14.8472V14H9.09619V12.9844H11.4321V8.15381H9.09619V7.13184ZM11.2798 5.3291C11.2798 5.22754 11.2946 5.13232 11.3242 5.04346C11.3581 4.95459 11.4089 4.87842 11.4766 4.81494C11.5316 4.75993 11.6014 4.71761 11.686 4.68799C11.7749 4.65413 11.8743 4.63721 11.9844 4.63721C12.0944 4.63721 12.1917 4.65413 12.2764 4.68799C12.361 4.71761 12.4308 4.75993 12.4858 4.81494C12.5535 4.87419 12.6043 4.94824 12.6382 5.03711C12.672 5.12598 12.689 5.22331 12.689 5.3291C12.689 5.51953 12.6297 5.67822 12.5112 5.80518C12.3927 5.93213 12.2171 5.99561 11.9844 5.99561C11.7474 5.99561 11.5697 5.93213 11.4512 5.80518C11.3369 5.67822 11.2798 5.51953 11.2798 5.3291ZM19.646 13.1748C19.8576 13.1748 20.0628 13.141 20.2617 13.0732C20.4648 13.0055 20.6447 12.9103 20.8013 12.7876C20.9578 12.6691 21.0827 12.5295 21.1758 12.3687C21.2731 12.2036 21.3239 12.0259 21.3281 11.8354H22.439C22.4347 12.1401 22.3543 12.4321 22.1978 12.7114C22.0454 12.9865 21.8402 13.2277 21.582 13.4351C21.3239 13.6466 21.0277 13.8159 20.6934 13.9429C20.359 14.0656 20.0099 14.127 19.646 14.127C19.1255 14.127 18.6706 14.0339 18.2812 13.8477C17.8919 13.6615 17.5682 13.4097 17.3101 13.0923C17.0477 12.7791 16.8509 12.4173 16.7197 12.0068C16.5885 11.5921 16.5229 11.1562 16.5229 10.6992V10.4326C16.5229 9.97982 16.5885 9.54606 16.7197 9.13135C16.8509 8.71663 17.0477 8.35059 17.3101 8.0332C17.5682 7.72005 17.8919 7.47038 18.2812 7.28418C18.6706 7.09798 19.1255 7.00488 19.646 7.00488C20.0522 7.00488 20.4246 7.07048 20.7632 7.20166C21.106 7.32861 21.4022 7.50212 21.6519 7.72217C21.8973 7.94645 22.0898 8.21094 22.2295 8.51562C22.3691 8.82031 22.439 9.14616 22.439 9.49316H21.3281C21.3239 9.28581 21.2773 9.09115 21.1885 8.90918C21.1038 8.72298 20.9875 8.56006 20.8394 8.42041C20.6912 8.28076 20.5135 8.17074 20.3062 8.09033C20.103 8.00993 19.883 7.96973 19.646 7.96973C19.2821 7.96973 18.9753 8.04378 18.7256 8.19189C18.4801 8.33577 18.2812 8.52409 18.1289 8.75684C17.9766 8.99382 17.8665 9.2583 17.7988 9.55029C17.7354 9.84229 17.7036 10.1364 17.7036 10.4326V10.6992C17.7036 10.9997 17.7354 11.298 17.7988 11.5942C17.8665 11.8862 17.9766 12.1486 18.1289 12.3813C18.277 12.6183 18.4738 12.8109 18.7192 12.959C18.9689 13.1029 19.2778 13.1748 19.646 13.1748ZM27.3076 5.46875V7.13184H29.9229V8.03955H27.3076V11.772C27.3076 12.0386 27.3415 12.2586 27.4092 12.4321C27.4769 12.6056 27.57 12.7432 27.6885 12.8447C27.807 12.9505 27.9424 13.0246 28.0947 13.0669C28.2513 13.1092 28.4163 13.1304 28.5898 13.1304C28.7168 13.1304 28.848 13.124 28.9834 13.1113C29.1188 13.0944 29.2521 13.0754 29.3833 13.0542C29.5103 13.033 29.6287 13.0119 29.7388 12.9907C29.853 12.9653 29.9461 12.9442 30.0181 12.9272L30.1831 13.7588C30.0858 13.818 29.9673 13.8709 29.8276 13.9175C29.688 13.9598 29.5356 13.9958 29.3706 14.0254C29.2056 14.0592 29.0299 14.0846 28.8438 14.1016C28.6618 14.1185 28.4798 14.127 28.2979 14.127C27.9932 14.127 27.7075 14.0846 27.4409 14C27.1785 13.9111 26.95 13.7715 26.7554 13.5811C26.5607 13.3949 26.4062 13.1536 26.292 12.8574C26.182 12.557 26.127 12.1951 26.127 11.772V8.03955H24.3242V7.13184H26.127V5.46875H27.3076ZM36.8608 14L36.791 13.0542C36.5625 13.3927 36.2769 13.6572 35.9341 13.8477C35.5913 14.0339 35.1956 14.127 34.7471 14.127C34.3874 14.127 34.0615 14.0719 33.7695 13.9619C33.4775 13.8477 33.2279 13.672 33.0205 13.4351C32.8132 13.1981 32.6523 12.8976 32.5381 12.5337C32.4281 12.1655 32.373 11.7254 32.373 11.2134V7.13184H33.5474V11.2261C33.5474 11.5985 33.577 11.9074 33.6362 12.1528C33.6955 12.3983 33.7843 12.5929 33.9028 12.7368C34.0213 12.8849 34.1652 12.9886 34.3345 13.0479C34.508 13.1071 34.7069 13.1367 34.9312 13.1367C35.1935 13.1367 35.4284 13.1071 35.6357 13.0479C35.8431 12.9844 36.0229 12.8976 36.1753 12.7876C36.3022 12.6987 36.4123 12.5929 36.5054 12.4702C36.6027 12.3433 36.6831 12.2057 36.7466 12.0576V7.13184H37.9272V14H36.8608ZM44.6431 7.00488C44.8589 7.00488 45.0832 7.01969 45.3159 7.04932C45.5529 7.07894 45.7306 7.11914 45.8491 7.16992L45.6904 8.31885C45.4619 8.26807 45.244 8.2321 45.0366 8.21094C44.8335 8.18555 44.6198 8.17285 44.3955 8.17285C44.1077 8.17285 43.8475 8.20882 43.6147 8.28076C43.382 8.34847 43.1789 8.45003 43.0054 8.58545C42.8488 8.70394 42.7113 8.84993 42.5928 9.02344C42.4785 9.19271 42.3833 9.38314 42.3071 9.59473V14H41.1265V7.13184H42.2437L42.2944 8.05225L42.3008 8.22363C42.5801 7.84701 42.9144 7.55078 43.3037 7.33496C43.6973 7.11491 44.1437 7.00488 44.6431 7.00488ZM50.9844 14.127C50.502 14.127 50.0576 14.0444 49.6514 13.8794C49.2493 13.7144 48.9045 13.4837 48.6167 13.1875C48.3289 12.8913 48.1047 12.54 47.9438 12.1338C47.783 11.7275 47.7026 11.2853 47.7026 10.8071V10.5405C47.7026 9.98617 47.7915 9.49105 47.9692 9.05518C48.147 8.61507 48.384 8.24268 48.6802 7.93799C48.9722 7.63753 49.3044 7.4069 49.6768 7.24609C50.0534 7.08529 50.4385 7.00488 50.832 7.00488C51.3271 7.00488 51.7588 7.09163 52.127 7.26514C52.4993 7.43441 52.8083 7.66927 53.0537 7.96973C53.2992 8.27441 53.4811 8.632 53.5996 9.04248C53.7223 9.45296 53.7837 9.8973 53.7837 10.3755V10.9023H48.877V10.9468C48.9066 11.2811 48.9722 11.5752 49.0737 11.8291C49.1795 12.083 49.3234 12.3073 49.5054 12.502C49.6916 12.7093 49.9159 12.8722 50.1782 12.9907C50.4406 13.1092 50.7305 13.1685 51.0479 13.1685C51.4668 13.1685 51.8392 13.0838 52.165 12.9146C52.4909 12.7453 52.7617 12.521 52.9775 12.2417L53.6948 12.8003C53.4663 13.1473 53.1235 13.4562 52.6665 13.7271C52.2137 13.9937 51.653 14.127 50.9844 14.127ZM50.832 7.96973C50.5951 7.96973 50.3708 8.01416 50.1592 8.10303C49.9476 8.18766 49.7572 8.3125 49.5879 8.47754C49.4186 8.64681 49.2747 8.85417 49.1562 9.09961C49.042 9.34082 48.9616 9.62012 48.915 9.9375H52.6094V9.88037C52.6094 9.66878 52.5692 9.44238 52.4888 9.20117C52.4084 8.95573 52.2962 8.74414 52.1523 8.56641C52.0085 8.38867 51.8265 8.24479 51.6064 8.13477C51.3906 8.02474 51.1325 7.96973 50.832 7.96973ZM63.7495 7.13184H67.2598V12.9844H69.5005V14H63.7495V12.9844H66.0854V8.15381H63.7495V7.13184ZM65.9331 5.3291C65.9331 5.22754 65.9479 5.13232 65.9775 5.04346C66.0114 4.95459 66.0622 4.87842 66.1299 4.81494C66.1849 4.75993 66.2547 4.71761 66.3394 4.68799C66.4282 4.65413 66.5277 4.63721 66.6377 4.63721C66.7477 4.63721 66.8451 4.65413 66.9297 4.68799C67.0143 4.71761 67.0841 4.75993 67.1392 4.81494C67.2069 4.87419 67.2576 4.94824 67.2915 5.03711C67.3254 5.12598 67.3423 5.22331 67.3423 5.3291C67.3423 5.51953 67.283 5.67822 67.1646 5.80518C67.0461 5.93213 66.8704 5.99561 66.6377 5.99561C66.4007 5.99561 66.223 5.93213 66.1045 5.80518C65.9902 5.67822 65.9331 5.51953 65.9331 5.3291ZM71.373 14V7.13184H72.4268L72.5093 8.14746C72.6108 8.00358 72.7209 7.8724 72.8394 7.75391C72.9621 7.63118 73.0911 7.52539 73.2266 7.43652C73.4297 7.30111 73.6497 7.19743 73.8867 7.12549C74.1279 7.04932 74.3818 7.00911 74.6484 7.00488C75.0081 7.00488 75.334 7.05566 75.626 7.15723C75.9222 7.25879 76.174 7.41748 76.3813 7.6333C76.5887 7.84912 76.7474 8.12419 76.8574 8.4585C76.9717 8.78857 77.0288 9.18213 77.0288 9.63916V14H75.8545V9.66455C75.8545 9.35986 75.8206 9.10173 75.7529 8.89014C75.6852 8.67855 75.5858 8.50716 75.4546 8.37598C75.3192 8.24479 75.1541 8.14958 74.9595 8.09033C74.769 8.03109 74.549 8.00146 74.2993 8.00146C74.0835 8.00146 73.8825 8.0332 73.6963 8.09668C73.5101 8.15592 73.3387 8.23844 73.1821 8.34424C73.0552 8.43734 72.9367 8.54525 72.8267 8.66797C72.7209 8.79069 72.6278 8.92611 72.5474 9.07422V14H71.373ZM88.2705 10.293V14H87.0962V4.75781H90.0923C90.507 4.76628 90.8984 4.83187 91.2666 4.95459C91.639 5.07731 91.9648 5.25505 92.2441 5.48779C92.5234 5.72054 92.7435 6.0083 92.9043 6.35107C93.0693 6.69385 93.1519 7.0874 93.1519 7.53174C93.1519 7.97607 93.0693 8.36963 92.9043 8.7124C92.7435 9.05094 92.5234 9.33659 92.2441 9.56934C91.9648 9.80208 91.639 9.97982 91.2666 10.1025C90.8984 10.2253 90.507 10.2887 90.0923 10.293H88.2705ZM88.2705 9.32812H90.0923C90.3631 9.32389 90.6128 9.28158 90.8413 9.20117C91.0698 9.11654 91.2687 8.99805 91.438 8.8457C91.6073 8.69336 91.7384 8.50928 91.8315 8.29346C91.9289 8.0734 91.9775 7.82373 91.9775 7.54443C91.9775 7.26514 91.9289 7.01335 91.8315 6.78906C91.7384 6.56478 91.6094 6.37435 91.4443 6.21777C91.2751 6.0612 91.0741 5.94059 90.8413 5.85596C90.6128 5.77132 90.3631 5.72689 90.0923 5.72266H88.2705V9.32812ZM94.98 7.13184H98.4902V12.9844H100.731V14H94.98V12.9844H97.3159V8.15381H94.98V7.13184ZM97.1636 5.3291C97.1636 5.22754 97.1784 5.13232 97.208 5.04346C97.2419 4.95459 97.2926 4.87842 97.3604 4.81494C97.4154 4.75993 97.4852 4.71761 97.5698 4.68799C97.6587 4.65413 97.7581 4.63721 97.8682 4.63721C97.9782 4.63721 98.0755 4.65413 98.1602 4.68799C98.2448 4.71761 98.3146 4.75993 98.3696 4.81494C98.4373 4.87419 98.4881 4.94824 98.522 5.03711C98.5558 5.12598 98.5728 5.22331 98.5728 5.3291C98.5728 5.51953 98.5135 5.67822 98.395 5.80518C98.2765 5.93213 98.1009 5.99561 97.8682 5.99561C97.6312 5.99561 97.4535 5.93213 97.335 5.80518C97.2207 5.67822 97.1636 5.51953 97.1636 5.3291ZM105.53 13.1748C105.741 13.1748 105.947 13.141 106.146 13.0732C106.349 13.0055 106.528 12.9103 106.685 12.7876C106.842 12.6691 106.966 12.5295 107.06 12.3687C107.157 12.2036 107.208 12.0259 107.212 11.8354H108.323C108.319 12.1401 108.238 12.4321 108.082 12.7114C107.929 12.9865 107.724 13.2277 107.466 13.4351C107.208 13.6466 106.911 13.8159 106.577 13.9429C106.243 14.0656 105.894 14.127 105.53 14.127C105.009 14.127 104.554 14.0339 104.165 13.8477C103.776 13.6615 103.452 13.4097 103.194 13.0923C102.931 12.7791 102.735 12.4173 102.604 12.0068C102.472 11.5921 102.407 11.1562 102.407 10.6992V10.4326C102.407 9.97982 102.472 9.54606 102.604 9.13135C102.735 8.71663 102.931 8.35059 103.194 8.0332C103.452 7.72005 103.776 7.47038 104.165 7.28418C104.554 7.09798 105.009 7.00488 105.53 7.00488C105.936 7.00488 106.308 7.07048 106.647 7.20166C106.99 7.32861 107.286 7.50212 107.536 7.72217C107.781 7.94645 107.974 8.21094 108.113 8.51562C108.253 8.82031 108.323 9.14616 108.323 9.49316H107.212C107.208 9.28581 107.161 9.09115 107.072 8.90918C106.988 8.72298 106.871 8.56006 106.723 8.42041C106.575 8.28076 106.397 8.17074 106.19 8.09033C105.987 8.00993 105.767 7.96973 105.53 7.96973C105.166 7.96973 104.859 8.04378 104.609 8.19189C104.364 8.33577 104.165 8.52409 104.013 8.75684C103.86 8.99382 103.75 9.2583 103.683 9.55029C103.619 9.84229 103.587 10.1364 103.587 10.4326V10.6992C103.587 10.9997 103.619 11.298 103.683 11.5942C103.75 11.8862 103.86 12.1486 104.013 12.3813C104.161 12.6183 104.358 12.8109 104.603 12.959C104.853 13.1029 105.162 13.1748 105.53 13.1748ZM113.191 5.46875V7.13184H115.807V8.03955H113.191V11.772C113.191 12.0386 113.225 12.2586 113.293 12.4321C113.361 12.6056 113.454 12.7432 113.572 12.8447C113.691 12.9505 113.826 13.0246 113.979 13.0669C114.135 13.1092 114.3 13.1304 114.474 13.1304C114.601 13.1304 114.732 13.124 114.867 13.1113C115.003 13.0944 115.136 13.0754 115.267 13.0542C115.394 13.033 115.513 13.0119 115.623 12.9907C115.737 12.9653 115.83 12.9442 115.902 12.9272L116.067 13.7588C115.97 13.818 115.851 13.8709 115.711 13.9175C115.572 13.9598 115.419 13.9958 115.254 14.0254C115.089 14.0592 114.914 14.0846 114.728 14.1016C114.546 14.1185 114.364 14.127 114.182 14.127C113.877 14.127 113.591 14.0846 113.325 14C113.062 13.9111 112.834 13.7715 112.639 13.5811C112.444 13.3949 112.29 13.1536 112.176 12.8574C112.066 12.557 112.011 12.1951 112.011 11.772V8.03955H110.208V7.13184H112.011V5.46875H113.191ZM122.745 14L122.675 13.0542C122.446 13.3927 122.161 13.6572 121.818 13.8477C121.475 14.0339 121.079 14.127 120.631 14.127C120.271 14.127 119.945 14.0719 119.653 13.9619C119.361 13.8477 119.112 13.672 118.904 13.4351C118.697 13.1981 118.536 12.8976 118.422 12.5337C118.312 12.1655 118.257 11.7254 118.257 11.2134V7.13184H119.431V11.2261C119.431 11.5985 119.461 11.9074 119.52 12.1528C119.579 12.3983 119.668 12.5929 119.787 12.7368C119.905 12.8849 120.049 12.9886 120.218 13.0479C120.392 13.1071 120.591 13.1367 120.815 13.1367C121.077 13.1367 121.312 13.1071 121.52 13.0479C121.727 12.9844 121.907 12.8976 122.059 12.7876C122.186 12.6987 122.296 12.5929 122.389 12.4702C122.486 12.3433 122.567 12.2057 122.63 12.0576V7.13184H123.811V14H122.745ZM130.527 7.00488C130.743 7.00488 130.967 7.01969 131.2 7.04932C131.437 7.07894 131.614 7.11914 131.733 7.16992L131.574 8.31885C131.346 8.26807 131.128 8.2321 130.92 8.21094C130.717 8.18555 130.504 8.17285 130.279 8.17285C129.992 8.17285 129.731 8.20882 129.499 8.28076C129.266 8.34847 129.063 8.45003 128.889 8.58545C128.733 8.70394 128.595 8.84993 128.477 9.02344C128.362 9.19271 128.267 9.38314 128.191 9.59473V14H127.01V7.13184H128.127L128.178 8.05225L128.185 8.22363C128.464 7.84701 128.798 7.55078 129.188 7.33496C129.581 7.11491 130.028 7.00488 130.527 7.00488ZM136.868 14.127C136.386 14.127 135.941 14.0444 135.535 13.8794C135.133 13.7144 134.788 13.4837 134.5 13.1875C134.213 12.8913 133.988 12.54 133.828 12.1338C133.667 11.7275 133.586 11.2853 133.586 10.8071V10.5405C133.586 9.98617 133.675 9.49105 133.853 9.05518C134.031 8.61507 134.268 8.24268 134.564 7.93799C134.856 7.63753 135.188 7.4069 135.561 7.24609C135.937 7.08529 136.322 7.00488 136.716 7.00488C137.211 7.00488 137.643 7.09163 138.011 7.26514C138.383 7.43441 138.692 7.66927 138.938 7.96973C139.183 8.27441 139.365 8.632 139.483 9.04248C139.606 9.45296 139.667 9.8973 139.667 10.3755V10.9023H134.761V10.9468C134.79 11.2811 134.856 11.5752 134.958 11.8291C135.063 12.083 135.207 12.3073 135.389 12.502C135.575 12.7093 135.8 12.8722 136.062 12.9907C136.324 13.1092 136.614 13.1685 136.932 13.1685C137.351 13.1685 137.723 13.0838 138.049 12.9146C138.375 12.7453 138.646 12.521 138.861 12.2417L139.579 12.8003C139.35 13.1473 139.007 13.4562 138.55 13.7271C138.097 13.9937 137.537 14.127 136.868 14.127ZM136.716 7.96973C136.479 7.96973 136.255 8.01416 136.043 8.10303C135.831 8.18766 135.641 8.3125 135.472 8.47754C135.302 8.64681 135.159 8.85417 135.04 9.09961C134.926 9.34082 134.845 9.62012 134.799 9.9375H138.493V9.88037C138.493 9.66878 138.453 9.44238 138.373 9.20117C138.292 8.95573 138.18 8.74414 138.036 8.56641C137.892 8.38867 137.71 8.24479 137.49 8.13477C137.274 8.02474 137.016 7.96973 136.716 7.96973Z" fill="#696C80"/>
</svg>
