<svg width="160" height="98" viewBox="0 0 160 98" fill="none" xmlns="http://www.w3.org/2000/svg">
<rect x="0.5" y="34.5" width="159" height="63" rx="4.5" stroke="#9747FF" stroke-dasharray="10 5"/>
<path d="M131 68.9792L126.22 73.7597C124.568 75.4109 121.891 75.411 120.24 73.7598C118.589 72.1086 118.589 69.4314 120.24 67.7801L125.02 62.9998L131 68.9792Z" fill="#12131A"/>
<path d="M131 68.9796L125.02 63.0002L129.78 58.2399C131.432 56.5887 134.109 56.5887 135.76 58.2398C137.411 59.891 137.411 62.5683 135.76 64.2196L131 68.9796Z" fill="#BABDCC"/>
<path fill-rule="evenodd" clip-rule="evenodd" d="M81.929 70.0503C82.1243 69.8551 82.1243 69.5385 81.929 69.3432L76.6564 64.0706C76.4612 63.8754 76.1446 63.8754 75.9493 64.0706L72.24 67.78C70.5887 69.4313 70.5887 72.1086 72.2401 73.7598C73.8914 75.411 76.5685 75.4109 78.2197 73.7597L81.929 70.0503Z" fill="#12131A"/>
<path fill-rule="evenodd" clip-rule="evenodd" d="M83.3432 67.929C83.5384 68.1242 83.855 68.1242 84.0503 67.929L87.7599 64.2194C89.4112 62.5681 89.4111 59.8908 87.7598 58.2395C86.1085 56.5884 83.4314 56.5885 81.7802 58.2397L78.0706 61.9493C77.8753 62.1445 77.8753 62.4611 78.0706 62.6564L83.3432 67.929Z" fill="#12131A"/>
<path fill-rule="evenodd" clip-rule="evenodd" d="M39.4721 58.5379C37.4275 56.4932 34.1125 56.4932 32.0679 58.5379L24.5379 66.0679C22.4932 68.1125 22.4932 71.4275 24.5379 73.4721C26.5825 75.5167 29.8975 75.5167 31.9421 73.4721L39.4721 65.9421C41.5167 63.8974 41.5167 60.5825 39.4721 58.5379ZM33.4821 59.9521C34.7456 58.6885 36.7943 58.6885 38.0579 59.9521C39.3214 61.2156 39.3214 63.2643 38.0579 64.5278L35 67.5857L30.4242 63.01L33.4821 59.9521ZM29.01 64.4242L25.9521 67.4821C24.6885 68.7456 24.6885 70.7943 25.9521 72.0579C27.2156 73.3214 29.2643 73.3214 30.5279 72.0579L33.5857 69L29.01 64.4242Z" fill="#12131A"/>
<path d="M2.38672 10.293V14H1.2124V4.75781H4.2085C4.62321 4.76628 5.01465 4.83187 5.38281 4.95459C5.75521 5.07731 6.08105 5.25505 6.36035 5.48779C6.63965 5.72054 6.8597 6.0083 7.02051 6.35107C7.18555 6.69385 7.26807 7.0874 7.26807 7.53174C7.26807 7.97607 7.18555 8.36963 7.02051 8.7124C6.8597 9.05094 6.63965 9.33659 6.36035 9.56934C6.08105 9.80208 5.75521 9.97982 5.38281 10.1025C5.01465 10.2253 4.62321 10.2887 4.2085 10.293H2.38672ZM2.38672 9.32812H4.2085C4.47933 9.32389 4.729 9.28158 4.95752 9.20117C5.18604 9.11654 5.38493 8.99805 5.5542 8.8457C5.72347 8.69336 5.85465 8.50928 5.94775 8.29346C6.04508 8.0734 6.09375 7.82373 6.09375 7.54443C6.09375 7.26514 6.04508 7.01335 5.94775 6.78906C5.85465 6.56478 5.72559 6.37435 5.56055 6.21777C5.39128 6.0612 5.19027 5.94059 4.95752 5.85596C4.729 5.77132 4.47933 5.72689 4.2085 5.72266H2.38672V9.32812ZM9.09619 7.13184H12.6064V12.9844H14.8472V14H9.09619V12.9844H11.4321V8.15381H9.09619V7.13184ZM11.2798 5.3291C11.2798 5.22754 11.2946 5.13232 11.3242 5.04346C11.3581 4.95459 11.4089 4.87842 11.4766 4.81494C11.5316 4.75993 11.6014 4.71761 11.686 4.68799C11.7749 4.65413 11.8743 4.63721 11.9844 4.63721C12.0944 4.63721 12.1917 4.65413 12.2764 4.68799C12.361 4.71761 12.4308 4.75993 12.4858 4.81494C12.5535 4.87419 12.6043 4.94824 12.6382 5.03711C12.672 5.12598 12.689 5.22331 12.689 5.3291C12.689 5.51953 12.6297 5.67822 12.5112 5.80518C12.3927 5.93213 12.2171 5.99561 11.9844 5.99561C11.7474 5.99561 11.5697 5.93213 11.4512 5.80518C11.3369 5.67822 11.2798 5.51953 11.2798 5.3291ZM16.9038 4.25H20.4141V12.9844H22.6548V14H16.9038V12.9844H19.2397V5.27197H16.9038V4.25ZM24.7114 4.25H28.2217V12.9844H30.4624V14H24.7114V12.9844H27.0474V5.27197H24.7114V4.25Z" fill="#696C80"/>
</svg>
