<svg width="160" height="98" viewBox="0 0 160 98" fill="none" xmlns="http://www.w3.org/2000/svg">
<rect x="0.5" y="34.5" width="159" height="63" rx="4.5" stroke="#9747FF" stroke-dasharray="10 5"/>
<path d="M124.722 56.5469C122.733 55.1537 120 56.576 120 59.0038V72.9965C120 75.4243 122.733 76.8466 124.722 75.4534L134.73 68.4406C136.423 67.2541 136.423 64.746 134.73 63.5595L124.722 56.5469Z" fill="#BABDCC"/>
<path d="M76.7215 56.5469C74.7333 55.1537 72 56.576 72 59.0038V72.9965C72 75.4243 74.7334 76.8466 76.7216 75.4534L86.7297 68.4406C88.4229 67.2541 88.4229 64.746 86.7297 63.5595L76.7215 56.5469Z" fill="#12131A"/>
<path fill-rule="evenodd" clip-rule="evenodd" d="M24 60.0068C24 56.7113 27.7616 54.8296 30.3987 56.8058L38.3961 62.7988C40.5311 64.3988 40.5311 67.6008 38.3961 69.2007L30.3987 75.1939C27.7616 77.1701 24 75.2884 24 71.9929V60.0068ZM29.1994 58.4063C27.8808 57.4182 26 58.359 26 60.0068V71.9929C26 73.6407 27.8808 74.5815 29.1994 73.5934L37.1967 67.6003C38.2642 66.8003 38.2642 65.1993 37.1967 64.3993L29.1994 58.4063Z" fill="#12131A"/>
<path d="M2.38672 10.293V14H1.2124V4.75781H4.2085C4.62321 4.76628 5.01465 4.83187 5.38281 4.95459C5.75521 5.07731 6.08105 5.25505 6.36035 5.48779C6.63965 5.72054 6.8597 6.0083 7.02051 6.35107C7.18555 6.69385 7.26807 7.0874 7.26807 7.53174C7.26807 7.97607 7.18555 8.36963 7.02051 8.7124C6.8597 9.05094 6.63965 9.33659 6.36035 9.56934C6.08105 9.80208 5.75521 9.97982 5.38281 10.1025C5.01465 10.2253 4.62321 10.2887 4.2085 10.293H2.38672ZM2.38672 9.32812H4.2085C4.47933 9.32389 4.729 9.28158 4.95752 9.20117C5.18604 9.11654 5.38493 8.99805 5.5542 8.8457C5.72347 8.69336 5.85465 8.50928 5.94775 8.29346C6.04508 8.0734 6.09375 7.82373 6.09375 7.54443C6.09375 7.26514 6.04508 7.01335 5.94775 6.78906C5.85465 6.56478 5.72559 6.37435 5.56055 6.21777C5.39128 6.0612 5.19027 5.94059 4.95752 5.85596C4.729 5.77132 4.47933 5.72689 4.2085 5.72266H2.38672V9.32812ZM9.09619 4.25H12.6064V12.9844H14.8472V14H9.09619V12.9844H11.4321V5.27197H9.09619V4.25ZM21.2329 14C21.1864 13.9111 21.1483 13.8011 21.1187 13.6699C21.0933 13.5345 21.0742 13.3949 21.0615 13.251C20.943 13.3695 20.8097 13.4816 20.6616 13.5874C20.5177 13.6932 20.359 13.7863 20.1855 13.8667C20.0078 13.9471 19.8195 14.0106 19.6206 14.0571C19.4217 14.1037 19.2101 14.127 18.9858 14.127C18.6219 14.127 18.2918 14.0741 17.9956 13.9683C17.7036 13.8625 17.4561 13.7186 17.2529 13.5366C17.0456 13.3589 16.8848 13.1473 16.7705 12.9019C16.6605 12.6522 16.6055 12.3835 16.6055 12.0957C16.6055 11.7191 16.6795 11.389 16.8276 11.1055C16.98 10.8219 17.1937 10.585 17.4688 10.3945C17.7438 10.2083 18.0739 10.0687 18.459 9.97559C18.8483 9.88249 19.2821 9.83594 19.7603 9.83594H21.0425V9.29639C21.0425 9.08903 21.0044 8.90283 20.9282 8.73779C20.8521 8.57275 20.7441 8.43099 20.6045 8.3125C20.4648 8.19824 20.2935 8.10938 20.0903 8.0459C19.8914 7.98242 19.6672 7.95068 19.4175 7.95068C19.1847 7.95068 18.9753 7.98031 18.7891 8.03955C18.6071 8.0988 18.4526 8.17708 18.3257 8.27441C18.1987 8.37174 18.0993 8.48812 18.0273 8.62354C17.9596 8.75472 17.9258 8.89225 17.9258 9.03613H16.7451C16.7493 8.78646 16.8128 8.54102 16.9355 8.2998C17.0625 8.05859 17.2445 7.84066 17.4814 7.646C17.7142 7.45557 17.9977 7.30111 18.332 7.18262C18.6706 7.06413 19.0535 7.00488 19.481 7.00488C19.8703 7.00488 20.2321 7.05355 20.5664 7.15088C20.9007 7.24398 21.1906 7.38574 21.436 7.57617C21.6772 7.77083 21.8677 8.01204 22.0073 8.2998C22.147 8.58757 22.2168 8.92399 22.2168 9.30908V12.502C22.2168 12.7305 22.238 12.9738 22.2803 13.2319C22.3226 13.4858 22.3818 13.708 22.458 13.8984V14H21.2329ZM19.1572 13.105C19.3857 13.105 19.5994 13.0754 19.7983 13.0161C19.9972 12.9569 20.1792 12.8786 20.3442 12.7812C20.505 12.6839 20.6447 12.5739 20.7632 12.4512C20.8817 12.3242 20.9748 12.193 21.0425 12.0576V10.6675H19.9507C19.5444 10.6675 19.189 10.7035 18.8843 10.7754C18.5838 10.8431 18.3447 10.9489 18.167 11.0928C18.04 11.1943 17.9427 11.3149 17.875 11.4546C17.8115 11.5942 17.7798 11.7529 17.7798 11.9307C17.7798 12.0999 17.8073 12.2565 17.8623 12.4004C17.9215 12.5443 18.0083 12.667 18.1226 12.7686C18.2368 12.8743 18.3807 12.9569 18.5542 13.0161C18.7277 13.0754 18.9287 13.105 19.1572 13.105ZM25.0796 16.7739C24.9696 16.7739 24.8405 16.7612 24.6924 16.7358C24.5443 16.7104 24.4321 16.6893 24.356 16.6724L24.5464 15.7139C24.6522 15.7223 24.7559 15.7287 24.8574 15.7329C24.9632 15.7414 25.0457 15.7456 25.105 15.7456C25.2658 15.7456 25.4118 15.7012 25.543 15.6123C25.6784 15.5234 25.799 15.4176 25.9048 15.2949C26.0063 15.1722 26.0931 15.0452 26.165 14.9141C26.2412 14.7829 26.3005 14.675 26.3428 14.5903L26.8125 13.6763L23.8545 7.13184H25.1685L27.0537 11.5625L27.3584 12.394L27.6821 11.5879L29.4531 7.13184H30.7671L27.2822 15.0601C27.2018 15.2378 27.0981 15.4261 26.9712 15.625C26.8485 15.8239 26.6982 16.008 26.5205 16.1772C26.3428 16.3465 26.1354 16.4883 25.8984 16.6025C25.6615 16.7168 25.3885 16.7739 25.0796 16.7739Z" fill="#696C80"/>
</svg>
