<svg width="160" height="98" viewBox="0 0 160 98" fill="none" xmlns="http://www.w3.org/2000/svg">
<rect x="0.5" y="34.5" width="159" height="63" rx="4.5" stroke="#9747FF" stroke-dasharray="10 5"/>
<path d="M128 56C122.477 56 118 60.4772 118 66C118 71.5228 122.477 76 128 76C133.523 76 138 71.5228 138 66C138 60.4772 133.523 56 128 56Z" fill="#BABDCC"/>
<path fill-rule="evenodd" clip-rule="evenodd" d="M128 61C128.552 61 129 61.4477 129 62V65H132C132.552 65 133 65.4477 133 66C133 66.5523 132.552 67 132 67H129V70C129 70.5523 128.552 71 128 71C127.448 71 127 70.5523 127 70V67H124C123.448 67 123 66.5523 123 66C123 65.4477 123.448 65 124 65H127V62C127 61.4477 127.448 61 128 61Z" fill="#12131A"/>
<path fill-rule="evenodd" clip-rule="evenodd" d="M70 66C70 60.4772 74.4772 56 80 56C85.5228 56 90 60.4772 90 66C90 71.5228 85.5228 76 80 76C74.4772 76 70 71.5228 70 66ZM81 62C81 61.4477 80.5523 61 80 61C79.4477 61 79 61.4477 79 62V65H76C75.4477 65 75 65.4477 75 66C75 66.5523 75.4477 67 76 67H79V70C79 70.5523 79.4477 71 80 71C80.5523 71 81 70.5523 81 70V67H84C84.5523 67 85 66.5523 85 66C85 65.4477 84.5523 65 84 65H81V62Z" fill="#12131A"/>
<path fill-rule="evenodd" clip-rule="evenodd" d="M32 58C27.5817 58 24 61.5817 24 66C24 70.4183 27.5817 74 32 74C36.4183 74 40 70.4183 40 66C40 61.5817 36.4183 58 32 58ZM22 66C22 60.4772 26.4772 56 32 56C37.5228 56 42 60.4772 42 66C42 71.5228 37.5228 76 32 76C26.4772 76 22 71.5228 22 66Z" fill="#12131A"/>
<path fill-rule="evenodd" clip-rule="evenodd" d="M32 61C32.5523 61 33 61.4477 33 62V65H36C36.5523 65 37 65.4477 37 66C37 66.5523 36.5523 67 36 67H33V70C33 70.5523 32.5523 71 32 71C31.4477 71 31 70.5523 31 70V67H28C27.4477 67 27 66.5523 27 66C27 65.4477 27.4477 65 28 65H31V62C31 61.4477 31.4477 61 32 61Z" fill="#12131A"/>
<path d="M2.38672 10.293V14H1.2124V4.75781H4.2085C4.62321 4.76628 5.01465 4.83187 5.38281 4.95459C5.75521 5.07731 6.08105 5.25505 6.36035 5.48779C6.63965 5.72054 6.8597 6.0083 7.02051 6.35107C7.18555 6.69385 7.26807 7.0874 7.26807 7.53174C7.26807 7.97607 7.18555 8.36963 7.02051 8.7124C6.8597 9.05094 6.63965 9.33659 6.36035 9.56934C6.08105 9.80208 5.75521 9.97982 5.38281 10.1025C5.01465 10.2253 4.62321 10.2887 4.2085 10.293H2.38672ZM2.38672 9.32812H4.2085C4.47933 9.32389 4.729 9.28158 4.95752 9.20117C5.18604 9.11654 5.38493 8.99805 5.5542 8.8457C5.72347 8.69336 5.85465 8.50928 5.94775 8.29346C6.04508 8.0734 6.09375 7.82373 6.09375 7.54443C6.09375 7.26514 6.04508 7.01335 5.94775 6.78906C5.85465 6.56478 5.72559 6.37435 5.56055 6.21777C5.39128 6.0612 5.19027 5.94059 4.95752 5.85596C4.729 5.77132 4.47933 5.72689 4.2085 5.72266H2.38672V9.32812ZM9.09619 4.25H12.6064V12.9844H14.8472V14H9.09619V12.9844H11.4321V5.27197H9.09619V4.25ZM21.2456 14L21.1758 13.0542C20.9473 13.3927 20.6616 13.6572 20.3188 13.8477C19.9761 14.0339 19.5804 14.127 19.1318 14.127C18.7721 14.127 18.4463 14.0719 18.1543 13.9619C17.8623 13.8477 17.6126 13.672 17.4053 13.4351C17.1979 13.1981 17.0371 12.8976 16.9229 12.5337C16.8128 12.1655 16.7578 11.7254 16.7578 11.2134V7.13184H17.9321V11.2261C17.9321 11.5985 17.9618 11.9074 18.021 12.1528C18.0802 12.3983 18.1691 12.5929 18.2876 12.7368C18.4061 12.8849 18.55 12.9886 18.7192 13.0479C18.8927 13.1071 19.0916 13.1367 19.3159 13.1367C19.5783 13.1367 19.8132 13.1071 20.0205 13.0479C20.2279 12.9844 20.4077 12.8976 20.5601 12.7876C20.687 12.6987 20.797 12.5929 20.8901 12.4702C20.9875 12.3433 21.0679 12.2057 21.1313 12.0576V7.13184H22.312V14H21.2456ZM29.0913 12.1782C29.0913 12.0386 29.0638 11.9137 29.0088 11.8037C28.9538 11.6895 28.8607 11.5858 28.7295 11.4927C28.5983 11.3996 28.4248 11.3149 28.209 11.2388C27.9932 11.1584 27.7244 11.0864 27.4028 11.0229C27.0093 10.9425 26.6496 10.8452 26.3237 10.731C26.0021 10.6167 25.7271 10.4792 25.4985 10.3184C25.2658 10.1618 25.0859 9.9777 24.959 9.76611C24.832 9.55029 24.7686 9.30062 24.7686 9.01709C24.7686 8.73779 24.8341 8.47754 24.9653 8.23633C25.0965 7.99089 25.2806 7.77718 25.5176 7.59521C25.7546 7.41325 26.036 7.26937 26.3618 7.16357C26.6919 7.05778 27.0537 7.00488 27.4473 7.00488C27.8704 7.00488 28.2513 7.0599 28.5898 7.16992C28.9284 7.27995 29.2161 7.43229 29.4531 7.62695C29.6901 7.82161 29.8721 8.05013 29.999 8.3125C30.1302 8.57064 30.1958 8.84993 30.1958 9.15039H29.0215C29.0215 9.00228 28.9834 8.8584 28.9072 8.71875C28.8311 8.57487 28.7253 8.44792 28.5898 8.33789C28.4544 8.22786 28.2894 8.139 28.0947 8.07129C27.9043 8.00358 27.6885 7.96973 27.4473 7.96973C27.1976 7.96973 26.9775 7.99723 26.7871 8.05225C26.6009 8.10726 26.4465 8.18132 26.3237 8.27441C26.1968 8.36751 26.1016 8.47542 26.0381 8.59814C25.9746 8.72087 25.9429 8.84782 25.9429 8.979C25.9429 9.11442 25.9683 9.23503 26.019 9.34082C26.0698 9.44661 26.1587 9.54183 26.2856 9.62646C26.4084 9.7111 26.5734 9.78727 26.7808 9.85498C26.9924 9.92269 27.259 9.98828 27.5806 10.0518C28.0037 10.1406 28.3825 10.2443 28.7168 10.3628C29.0511 10.4771 29.3325 10.6146 29.561 10.7754C29.7896 10.9404 29.9631 11.1309 30.0815 11.3467C30.2043 11.5625 30.2656 11.8122 30.2656 12.0957C30.2656 12.4004 30.1958 12.6776 30.0562 12.9272C29.9207 13.1769 29.7303 13.3906 29.4849 13.5684C29.2394 13.7461 28.9453 13.8836 28.6025 13.981C28.2598 14.0783 27.8853 14.127 27.479 14.127C27.0135 14.127 26.5988 14.0656 26.2349 13.9429C25.8709 13.8159 25.5641 13.6488 25.3145 13.4414C25.0605 13.2383 24.8659 13.0013 24.7305 12.7305C24.5993 12.4596 24.5337 12.1782 24.5337 11.8862H25.708C25.7249 12.1274 25.7884 12.3306 25.8984 12.4956C26.0127 12.6606 26.1545 12.7939 26.3237 12.8955C26.4888 12.9971 26.6729 13.069 26.876 13.1113C27.0791 13.1536 27.2801 13.1748 27.479 13.1748C27.7922 13.1748 28.0651 13.1388 28.2979 13.0669C28.5306 12.9907 28.7126 12.887 28.8438 12.7559C28.9242 12.6755 28.9855 12.5866 29.0278 12.4893C29.0701 12.3919 29.0913 12.2882 29.0913 12.1782ZM43.0688 13.1748C43.2804 13.1748 43.4857 13.141 43.6846 13.0732C43.8877 13.0055 44.0675 12.9103 44.2241 12.7876C44.3807 12.6691 44.5055 12.5295 44.5986 12.3687C44.696 12.2036 44.7467 12.0259 44.751 11.8354H45.8618C45.8576 12.1401 45.7772 12.4321 45.6206 12.7114C45.4683 12.9865 45.263 13.2277 45.0049 13.4351C44.7467 13.6466 44.4505 13.8159 44.1162 13.9429C43.7819 14.0656 43.4328 14.127 43.0688 14.127C42.5483 14.127 42.0934 14.0339 41.7041 13.8477C41.3148 13.6615 40.991 13.4097 40.7329 13.0923C40.4705 12.7791 40.2738 12.4173 40.1426 12.0068C40.0114 11.5921 39.9458 11.1562 39.9458 10.6992V10.4326C39.9458 9.97982 40.0114 9.54606 40.1426 9.13135C40.2738 8.71663 40.4705 8.35059 40.7329 8.0332C40.991 7.72005 41.3148 7.47038 41.7041 7.28418C42.0934 7.09798 42.5483 7.00488 43.0688 7.00488C43.4751 7.00488 43.8475 7.07048 44.186 7.20166C44.5288 7.32861 44.825 7.50212 45.0747 7.72217C45.3201 7.94645 45.5127 8.21094 45.6523 8.51562C45.792 8.82031 45.8618 9.14616 45.8618 9.49316H44.751C44.7467 9.28581 44.7002 9.09115 44.6113 8.90918C44.5267 8.72298 44.4103 8.56006 44.2622 8.42041C44.1141 8.28076 43.9364 8.17074 43.729 8.09033C43.5259 8.00993 43.3058 7.96973 43.0688 7.96973C42.7049 7.96973 42.3981 8.04378 42.1484 8.19189C41.903 8.33577 41.7041 8.52409 41.5518 8.75684C41.3994 8.99382 41.2894 9.2583 41.2217 9.55029C41.1582 9.84229 41.1265 10.1364 41.1265 10.4326V10.6992C41.1265 10.9997 41.1582 11.298 41.2217 11.5942C41.2894 11.8862 41.3994 12.1486 41.5518 12.3813C41.6999 12.6183 41.8966 12.8109 42.1421 12.959C42.3918 13.1029 42.7007 13.1748 43.0688 13.1748ZM52.4507 7.00488C52.6665 7.00488 52.8908 7.01969 53.1235 7.04932C53.3605 7.07894 53.5382 7.11914 53.6567 7.16992L53.498 8.31885C53.2695 8.26807 53.0516 8.2321 52.8442 8.21094C52.6411 8.18555 52.4274 8.17285 52.2031 8.17285C51.9154 8.17285 51.6551 8.20882 51.4224 8.28076C51.1896 8.34847 50.9865 8.45003 50.813 8.58545C50.6564 8.70394 50.5189 8.84993 50.4004 9.02344C50.2861 9.19271 50.1909 9.38314 50.1147 9.59473V14H48.9341V7.13184H50.0513L50.1021 8.05225L50.1084 8.22363C50.3877 7.84701 50.722 7.55078 51.1113 7.33496C51.5049 7.11491 51.9513 7.00488 52.4507 7.00488ZM60.8931 10.439H56.0371V9.47412H60.8931V10.439ZM65.3174 14V8.03955H63.4258V7.13184H65.3174V6.64941C65.3174 6.20931 65.3809 5.82422 65.5078 5.49414C65.639 5.15983 65.8231 4.88053 66.0601 4.65625C66.2928 4.43197 66.5742 4.2627 66.9043 4.14844C67.2344 4.03418 67.6025 3.97705 68.0088 3.97705C68.1781 3.97705 68.3452 3.98763 68.5103 4.00879C68.6753 4.02572 68.8382 4.04899 68.999 4.07861C69.1048 4.09977 69.2106 4.12305 69.3164 4.14844C69.4222 4.1696 69.5301 4.19499 69.6401 4.22461L69.5005 5.1958C69.327 5.13656 69.1239 5.08577 68.8911 5.04346C68.6626 4.99691 68.4172 4.97363 68.1548 4.97363C67.8882 4.97363 67.6512 5.00749 67.4438 5.0752C67.2407 5.13867 67.0715 5.236 66.936 5.36719C66.7922 5.5026 66.6821 5.67822 66.606 5.89404C66.534 6.10986 66.498 6.36165 66.498 6.64941V7.13184H69.145V8.03955H66.498V14H65.3174ZM75.8735 7.00488C76.0894 7.00488 76.3136 7.01969 76.5464 7.04932C76.7834 7.07894 76.9611 7.11914 77.0796 7.16992L76.9209 8.31885C76.6924 8.26807 76.4744 8.2321 76.2671 8.21094C76.064 8.18555 75.8503 8.17285 75.626 8.17285C75.3382 8.17285 75.078 8.20882 74.8452 8.28076C74.6125 8.34847 74.4093 8.45003 74.2358 8.58545C74.0793 8.70394 73.9417 8.84993 73.8232 9.02344C73.709 9.19271 73.6138 9.38314 73.5376 9.59473V14H72.3569V7.13184H73.4741L73.5249 8.05225L73.5312 8.22363C73.8105 7.84701 74.1449 7.55078 74.5342 7.33496C74.9277 7.11491 75.3742 7.00488 75.8735 7.00488Z" fill="#696C80"/>
</svg>
