<svg width="160" height="98" viewBox="0 0 160 98" fill="none" xmlns="http://www.w3.org/2000/svg">
<rect x="0.5" y="34.5" width="159" height="63" rx="4.5" stroke="#9747FF" stroke-dasharray="10 5"/>
<path d="M127 56C126.448 56 126 56.4477 126 57V74H125C124.448 74 124 74.4477 124 75C124 75.5523 124.448 76 125 76H129C129.552 76 130 75.5523 130 75C130 74.4477 129.552 74 129 74H128V57C128 56.4477 127.552 56 127 56Z" fill="#BABDCC"/>
<path d="M132.053 59.0501C131.828 58.9988 131.601 58.9994 131.42 58.9998L131.372 58.9999L122.568 58.9999C122.316 58.9999 122.07 58.9999 121.862 59.0169C121.633 59.0356 121.363 59.0796 121.092 59.2179C120.716 59.4097 120.41 59.7156 120.218 60.0919C120.08 60.3634 120.036 60.6331 120.017 60.8617C120 61.0699 120 61.3156 120 61.568L120 64.4318C120 64.6842 120 64.93 120.017 65.1382C120.036 65.3668 120.08 65.6365 120.218 65.9079C120.41 66.2842 120.716 66.5902 121.092 66.7819C121.363 66.9202 121.633 66.9643 121.862 66.983C122.07 67 122.316 67 122.568 66.9999L131.372 66.9999L131.42 67C131.601 67.0005 131.828 67.001 132.053 66.9497C132.248 66.9052 132.435 66.8317 132.608 66.7316C132.807 66.6163 132.974 66.4612 133.106 66.338L133.141 66.305L135.297 64.3022C135.391 64.2154 135.501 64.113 135.59 64.0152C135.692 63.903 135.831 63.7292 135.915 63.4845C136.022 63.1703 136.022 62.8295 135.915 62.5154C135.831 62.2707 135.692 62.0968 135.59 61.9846C135.501 61.8868 135.391 61.7845 135.297 61.6977L133.141 59.6949L133.106 59.6619C132.974 59.5387 132.807 59.3836 132.608 59.2682C132.435 59.1682 132.248 59.0947 132.053 59.0501Z" fill="#12131A"/>
<path d="M79 56C78.4477 56 78 56.4477 78 57V74H77C76.4477 74 76 74.4477 76 75C76 75.5523 76.4477 76 77 76H81C81.5523 76 82 75.5523 82 75C82 74.4477 81.5523 74 81 74H80V57C80 56.4477 79.5523 56 79 56Z" fill="#12131A"/>
<path d="M84.0526 59.0501C83.8278 58.9988 83.6005 58.9994 83.42 58.9998L83.3716 58.9999L74.5681 58.9999C74.3157 58.9999 74.0699 58.9999 73.8618 59.0169C73.6332 59.0356 73.3634 59.0796 73.092 59.2179C72.7157 59.4097 72.4097 59.7156 72.218 60.0919C72.0797 60.3634 72.0356 60.6331 72.017 60.8617C71.9999 61.0699 72 61.3156 72 61.568L72 64.4318C72 64.6842 71.9999 64.93 72.017 65.1382C72.0356 65.3668 72.0797 65.6365 72.218 65.9079C72.4097 66.2842 72.7157 66.5902 73.092 66.7819C73.3634 66.9202 73.6332 66.9643 73.8618 66.983C74.0699 67 74.3157 67 74.5681 66.9999L83.3716 66.9999L83.42 67C83.6005 67.0005 83.8278 67.001 84.0526 66.9497C84.2475 66.9052 84.4347 66.8317 84.6079 66.7316C84.8075 66.6163 84.9736 66.4612 85.1056 66.338L85.141 66.305L87.2973 64.3022C87.3909 64.2154 87.5012 64.113 87.5902 64.0152C87.6923 63.903 87.8313 63.7292 87.9149 63.4845C88.0221 63.1703 88.0221 62.8295 87.9149 62.5154C87.8313 62.2707 87.6923 62.0968 87.5902 61.9846C87.5012 61.8868 87.3909 61.7845 87.2974 61.6977L85.141 59.6949L85.1056 59.6619C84.9736 59.5387 84.8075 59.3836 84.6079 59.2682C84.4347 59.1682 84.2475 59.0947 84.0526 59.0501Z" fill="#12131A"/>
<path d="M31 56C30.4477 56 30 56.4477 30 57V59H32V57C32 56.4477 31.5523 56 31 56Z" fill="#12131A"/>
<path d="M30 74V67H32V74H33C33.5523 74 34 74.4477 34 75C34 75.5523 33.5523 76 33 76H29C28.4477 76 28 75.5523 28 75C28 74.4477 28.4477 74 29 74H30Z" fill="#12131A"/>
<path fill-rule="evenodd" clip-rule="evenodd" d="M35.5252 61.0185C35.4521 61.0042 35.3671 60.9999 34.9333 60.9999H28C27.5204 60.9999 27.2107 61.0005 26.9738 61.0167C26.7458 61.0322 26.6589 61.0588 26.6173 61.0761C26.3723 61.1776 26.1776 61.3722 26.0761 61.6173C26.0589 61.6589 26.0323 61.7457 26.0167 61.9737C26.0005 62.2107 26 62.5203 26 62.9999C26 63.4796 26.0005 63.7892 26.0167 64.0262C26.0323 64.2542 26.0589 64.341 26.0761 64.3826C26.1776 64.6277 26.3723 64.8223 26.6173 64.9238C26.6589 64.9411 26.7458 64.9677 26.9738 64.9832C27.2107 64.9994 27.5204 64.9999 28 64.9999H34.9333C35.3671 64.9999 35.4521 64.9957 35.5252 64.9814C35.6095 64.9649 35.6914 64.9376 35.7687 64.9002C35.8358 64.8678 35.9063 64.8202 36.2533 64.5599L36.84 64.1199C37.2891 63.7831 37.5721 63.5697 37.7677 63.3938C37.9241 63.2531 37.9612 63.1904 37.9663 63.1804C38.0112 63.0643 38.0112 62.9356 37.9663 62.8195C37.9612 62.8095 37.9241 62.7468 37.7677 62.6061C37.5721 62.4302 37.2891 62.2168 36.84 61.8799L36.2533 61.4399C35.9063 61.1797 35.8358 61.1321 35.7687 61.0997C35.6914 61.0623 35.6095 61.035 35.5252 61.0185ZM37.967 63.179C37.967 63.179 37.9668 63.1795 37.9663 63.1804L37.967 63.179ZM35.0004 58.9999C35.3302 58.9997 35.6212 58.9994 35.9089 59.0557C36.1619 59.1051 36.4074 59.187 36.6394 59.2992C36.9033 59.4268 37.136 59.6016 37.3997 59.7997C37.4175 59.813 37.4353 59.8264 37.4533 59.8399L38.0737 60.3052C38.4791 60.6092 38.8351 60.8762 39.1052 61.1191C39.3874 61.373 39.669 61.6799 39.83 62.0938C40.0567 62.6766 40.0567 63.3233 39.83 63.9061C39.669 64.3199 39.3874 64.6269 39.1052 64.8808C38.8351 65.1236 38.4791 65.3907 38.0737 65.6947L37.4533 66.1599C37.4353 66.1735 37.4175 66.1869 37.3997 66.2002C37.136 66.3983 36.9033 66.5731 36.6394 66.7007C36.4074 66.8129 36.1619 66.8948 35.9089 66.9442C35.6212 67.0005 35.3302 67.0002 35.0004 67C34.9782 67 34.9559 66.9999 34.9333 66.9999L27.968 66.9999C27.5294 67 27.1509 67 26.8376 66.9786C26.5078 66.9561 26.1779 66.9066 25.852 66.7716C25.1169 66.4671 24.5328 65.8831 24.2284 65.148C24.0934 64.8221 24.0439 64.4922 24.0214 64.1623C24 63.8491 24 63.4706 24 63.0319V62.968C24 62.5293 24 62.1508 24.0214 61.8376C24.0439 61.5077 24.0934 61.1778 24.2284 60.8519C24.5328 60.1168 25.1169 59.5328 25.852 59.2283C26.1779 59.0933 26.5078 59.0438 26.8376 59.0213C27.1509 58.9999 27.5294 58.9999 27.968 58.9999L34.9333 58.9999C34.9559 58.9999 34.9782 58.9999 35.0004 58.9999Z" fill="#12131A"/>
<path d="M2.38672 10.293V14H1.2124V4.75781H4.2085C4.62321 4.76628 5.01465 4.83187 5.38281 4.95459C5.75521 5.07731 6.08105 5.25505 6.36035 5.48779C6.63965 5.72054 6.8597 6.0083 7.02051 6.35107C7.18555 6.69385 7.26807 7.0874 7.26807 7.53174C7.26807 7.97607 7.18555 8.36963 7.02051 8.7124C6.8597 9.05094 6.63965 9.33659 6.36035 9.56934C6.08105 9.80208 5.75521 9.97982 5.38281 10.1025C5.01465 10.2253 4.62321 10.2887 4.2085 10.293H2.38672ZM2.38672 9.32812H4.2085C4.47933 9.32389 4.729 9.28158 4.95752 9.20117C5.18604 9.11654 5.38493 8.99805 5.5542 8.8457C5.72347 8.69336 5.85465 8.50928 5.94775 8.29346C6.04508 8.0734 6.09375 7.82373 6.09375 7.54443C6.09375 7.26514 6.04508 7.01335 5.94775 6.78906C5.85465 6.56478 5.72559 6.37435 5.56055 6.21777C5.39128 6.0612 5.19027 5.94059 4.95752 5.85596C4.729 5.77132 4.47933 5.72689 4.2085 5.72266H2.38672V9.32812ZM8.58203 10.5024C8.58203 10.0073 8.65397 9.54818 8.79785 9.125C8.94173 8.69759 9.14909 8.32731 9.41992 8.01416C9.68652 7.70101 10.0124 7.45557 10.3975 7.27783C10.7826 7.09587 11.2163 7.00488 11.6987 7.00488C12.1854 7.00488 12.6213 7.09587 13.0063 7.27783C13.3957 7.45557 13.7257 7.70101 13.9966 8.01416C14.2632 8.32731 14.4684 8.69759 14.6123 9.125C14.7562 9.54818 14.8281 10.0073 14.8281 10.5024V10.6421C14.8281 11.1372 14.7562 11.5964 14.6123 12.0195C14.4684 12.4427 14.2632 12.8109 13.9966 13.124C13.7257 13.4372 13.3978 13.6826 13.0127 13.8604C12.6276 14.0381 12.1938 14.127 11.7114 14.127C11.2248 14.127 10.7868 14.0381 10.3975 13.8604C10.0124 13.6826 9.68652 13.4372 9.41992 13.124C9.14909 12.8109 8.94173 12.4427 8.79785 12.0195C8.65397 11.5964 8.58203 11.1372 8.58203 10.6421V10.5024ZM9.75635 10.6421C9.75635 10.9806 9.79655 11.3044 9.87695 11.6133C9.95736 11.918 10.0801 12.1867 10.2451 12.4194C10.4059 12.6522 10.609 12.8363 10.8545 12.9717C11.0999 13.1071 11.3856 13.1748 11.7114 13.1748C12.033 13.1748 12.3145 13.1071 12.5557 12.9717C12.8011 12.8363 13.0063 12.6522 13.1714 12.4194C13.3322 12.1867 13.4528 11.918 13.5332 11.6133C13.6136 11.3044 13.6538 10.9806 13.6538 10.6421V10.5024C13.6538 10.1681 13.6115 9.84863 13.5269 9.54395C13.4465 9.23503 13.3258 8.96419 13.165 8.73145C13 8.4987 12.7948 8.31462 12.5493 8.1792C12.3081 8.03955 12.0246 7.96973 11.6987 7.96973C11.3729 7.96973 11.0894 8.03955 10.8481 8.1792C10.6069 8.31462 10.4059 8.4987 10.2451 8.73145C10.0801 8.96419 9.95736 9.23503 9.87695 9.54395C9.79655 9.84863 9.75635 10.1681 9.75635 10.5024V10.6421ZM16.9038 7.13184H20.4141V12.9844H22.6548V14H16.9038V12.9844H19.2397V8.15381H16.9038V7.13184ZM19.0874 5.3291C19.0874 5.22754 19.1022 5.13232 19.1318 5.04346C19.1657 4.95459 19.2165 4.87842 19.2842 4.81494C19.3392 4.75993 19.409 4.71761 19.4937 4.68799C19.5825 4.65413 19.682 4.63721 19.792 4.63721C19.902 4.63721 19.9993 4.65413 20.084 4.68799C20.1686 4.71761 20.2384 4.75993 20.2935 4.81494C20.3612 4.87419 20.4119 4.94824 20.4458 5.03711C20.4797 5.12598 20.4966 5.22331 20.4966 5.3291C20.4966 5.51953 20.4373 5.67822 20.3188 5.80518C20.2004 5.93213 20.0247 5.99561 19.792 5.99561C19.555 5.99561 19.3773 5.93213 19.2588 5.80518C19.1445 5.67822 19.0874 5.51953 19.0874 5.3291ZM24.5273 14V7.13184H25.5811L25.6636 8.14746C25.7651 8.00358 25.8752 7.8724 25.9937 7.75391C26.1164 7.63118 26.2454 7.52539 26.3809 7.43652C26.584 7.30111 26.804 7.19743 27.041 7.12549C27.2822 7.04932 27.5361 7.00911 27.8027 7.00488C28.1624 7.00488 28.4883 7.05566 28.7803 7.15723C29.0765 7.25879 29.3283 7.41748 29.5356 7.6333C29.743 7.84912 29.9017 8.12419 30.0117 8.4585C30.126 8.78857 30.1831 9.18213 30.1831 9.63916V14H29.0088V9.66455C29.0088 9.35986 28.9749 9.10173 28.9072 8.89014C28.8395 8.67855 28.7401 8.50716 28.6089 8.37598C28.4735 8.24479 28.3084 8.14958 28.1138 8.09033C27.9233 8.03109 27.7033 8.00146 27.4536 8.00146C27.2378 8.00146 27.0368 8.0332 26.8506 8.09668C26.6644 8.15592 26.493 8.23844 26.3364 8.34424C26.2095 8.43734 26.091 8.54525 25.981 8.66797C25.8752 8.79069 25.7821 8.92611 25.7017 9.07422V14H24.5273ZM35.1152 5.46875V7.13184H37.7305V8.03955H35.1152V11.772C35.1152 12.0386 35.1491 12.2586 35.2168 12.4321C35.2845 12.6056 35.3776 12.7432 35.4961 12.8447C35.6146 12.9505 35.75 13.0246 35.9023 13.0669C36.0589 13.1092 36.224 13.1304 36.3975 13.1304C36.5244 13.1304 36.6556 13.124 36.791 13.1113C36.9264 13.0944 37.0597 13.0754 37.1909 13.0542C37.3179 13.033 37.4364 13.0119 37.5464 12.9907C37.6606 12.9653 37.7537 12.9442 37.8257 12.9272L37.9907 13.7588C37.8934 13.818 37.7749 13.8709 37.6353 13.9175C37.4956 13.9598 37.3433 13.9958 37.1782 14.0254C37.0132 14.0592 36.8376 14.0846 36.6514 14.1016C36.4694 14.1185 36.2874 14.127 36.1055 14.127C35.8008 14.127 35.5151 14.0846 35.2485 14C34.9862 13.9111 34.7576 13.7715 34.563 13.5811C34.3683 13.3949 34.2139 13.1536 34.0996 12.8574C33.9896 12.557 33.9346 12.1951 33.9346 11.772V8.03955H32.1318V7.13184H33.9346V5.46875H35.1152ZM43.1768 14.127C42.6943 14.127 42.25 14.0444 41.8438 13.8794C41.4417 13.7144 41.0968 13.4837 40.8091 13.1875C40.5213 12.8913 40.297 12.54 40.1362 12.1338C39.9754 11.7275 39.895 11.2853 39.895 10.8071V10.5405C39.895 9.98617 39.9839 9.49105 40.1616 9.05518C40.3394 8.61507 40.5763 8.24268 40.8726 7.93799C41.1646 7.63753 41.4967 7.4069 41.8691 7.24609C42.2458 7.08529 42.6309 7.00488 43.0244 7.00488C43.5195 7.00488 43.9512 7.09163 44.3193 7.26514C44.6917 7.43441 45.0007 7.66927 45.2461 7.96973C45.4915 8.27441 45.6735 8.632 45.792 9.04248C45.9147 9.45296 45.9761 9.8973 45.9761 10.3755V10.9023H41.0693V10.9468C41.099 11.2811 41.1646 11.5752 41.2661 11.8291C41.3719 12.083 41.5158 12.3073 41.6978 12.502C41.884 12.7093 42.1082 12.8722 42.3706 12.9907C42.633 13.1092 42.9229 13.1685 43.2402 13.1685C43.6592 13.1685 44.0316 13.0838 44.3574 12.9146C44.6833 12.7453 44.9541 12.521 45.1699 12.2417L45.8872 12.8003C45.6587 13.1473 45.3159 13.4562 44.8589 13.7271C44.4061 13.9937 43.8454 14.127 43.1768 14.127ZM43.0244 7.96973C42.7874 7.96973 42.5632 8.01416 42.3516 8.10303C42.14 8.18766 41.9495 8.3125 41.7803 8.47754C41.611 8.64681 41.4671 8.85417 41.3486 9.09961C41.2344 9.34082 41.154 9.62012 41.1074 9.9375H44.8018V9.88037C44.8018 9.66878 44.7616 9.44238 44.6812 9.20117C44.6007 8.95573 44.4886 8.74414 44.3447 8.56641C44.2008 8.38867 44.0189 8.24479 43.7988 8.13477C43.583 8.02474 43.3249 7.96973 43.0244 7.96973ZM52.4507 7.00488C52.6665 7.00488 52.8908 7.01969 53.1235 7.04932C53.3605 7.07894 53.5382 7.11914 53.6567 7.16992L53.498 8.31885C53.2695 8.26807 53.0516 8.2321 52.8442 8.21094C52.6411 8.18555 52.4274 8.17285 52.2031 8.17285C51.9154 8.17285 51.6551 8.20882 51.4224 8.28076C51.1896 8.34847 50.9865 8.45003 50.813 8.58545C50.6564 8.70394 50.5189 8.84993 50.4004 9.02344C50.2861 9.19271 50.1909 9.38314 50.1147 9.59473V14H48.9341V7.13184H50.0513L50.1021 8.05225L50.1084 8.22363C50.3877 7.84701 50.722 7.55078 51.1113 7.33496C51.5049 7.11491 51.9513 7.00488 52.4507 7.00488ZM66.625 10.2295H64.7778V14H63.6099V4.75781H66.3203C66.752 4.76628 67.1582 4.82764 67.5391 4.94189C67.9199 5.05615 68.2542 5.22754 68.542 5.45605C68.8255 5.68457 69.0477 5.97233 69.2085 6.31934C69.3735 6.66211 69.4561 7.06624 69.4561 7.53174C69.4561 7.83219 69.4116 8.10726 69.3228 8.35693C69.2381 8.60661 69.1196 8.83301 68.9673 9.03613C68.8149 9.23926 68.633 9.41911 68.4214 9.57568C68.2098 9.73226 67.9771 9.86556 67.7231 9.97559L69.6846 13.9238L69.6782 14H68.4404L66.625 10.2295ZM64.7778 9.26465H66.3521C66.6144 9.26042 66.862 9.22021 67.0947 9.14404C67.3275 9.06364 67.5327 8.94938 67.7104 8.80127C67.884 8.65316 68.0215 8.47331 68.123 8.26172C68.2246 8.0459 68.2754 7.79834 68.2754 7.51904C68.2754 7.22282 68.2267 6.96468 68.1294 6.74463C68.0321 6.52035 67.8966 6.33203 67.7231 6.17969C67.5496 6.03158 67.3423 5.91943 67.1011 5.84326C66.8641 5.76709 66.6038 5.72689 66.3203 5.72266H64.7778V9.26465ZM71.5571 7.13184H75.0674V12.9844H77.3081V14H71.5571V12.9844H73.8931V8.15381H71.5571V7.13184ZM73.7407 5.3291C73.7407 5.22754 73.7555 5.13232 73.7852 5.04346C73.819 4.95459 73.8698 4.87842 73.9375 4.81494C73.9925 4.75993 74.0623 4.71761 74.147 4.68799C74.2358 4.65413 74.3353 4.63721 74.4453 4.63721C74.5553 4.63721 74.6527 4.65413 74.7373 4.68799C74.8219 4.71761 74.8918 4.75993 74.9468 4.81494C75.0145 4.87419 75.0653 4.94824 75.0991 5.03711C75.133 5.12598 75.1499 5.22331 75.1499 5.3291C75.1499 5.51953 75.0907 5.67822 74.9722 5.80518C74.8537 5.93213 74.6781 5.99561 74.4453 5.99561C74.2083 5.99561 74.0306 5.93213 73.9121 5.80518C73.7979 5.67822 73.7407 5.51953 73.7407 5.3291ZM78.9648 10.5088C78.9648 9.99674 79.0262 9.52702 79.1489 9.09961C79.2759 8.66797 79.4578 8.29769 79.6948 7.98877C79.9318 7.67985 80.2196 7.43864 80.5581 7.26514C80.8966 7.09163 81.2796 7.00488 81.707 7.00488C81.9821 7.00488 82.2339 7.03662 82.4624 7.1001C82.6951 7.16357 82.9046 7.25667 83.0908 7.37939C83.1924 7.44287 83.2876 7.51693 83.3765 7.60156C83.4696 7.6862 83.5563 7.7793 83.6367 7.88086L83.6938 7.13184H84.7603V13.854C84.7603 14.3068 84.6883 14.7088 84.5444 15.0601C84.4048 15.4113 84.208 15.7096 83.9541 15.9551C83.696 16.2005 83.3892 16.3867 83.0337 16.5137C82.6782 16.6406 82.2847 16.7041 81.853 16.7041C81.6753 16.7041 81.4722 16.6829 81.2437 16.6406C81.0151 16.6025 80.7845 16.5369 80.5518 16.4438C80.3148 16.355 80.0863 16.2344 79.8662 16.082C79.6504 15.9297 79.4642 15.7414 79.3076 15.5171L79.917 14.8125C80.0609 14.986 80.209 15.132 80.3613 15.2505C80.5137 15.3732 80.6681 15.4705 80.8247 15.5425C80.9813 15.6144 81.1379 15.6652 81.2944 15.6948C81.451 15.7287 81.6076 15.7456 81.7642 15.7456C82.0435 15.7456 82.2952 15.7054 82.5195 15.625C82.7438 15.5446 82.9364 15.4261 83.0972 15.2695C83.2537 15.1172 83.3743 14.9268 83.459 14.6982C83.5436 14.4697 83.5859 14.2074 83.5859 13.9111V13.3208C83.4971 13.4224 83.4019 13.5155 83.3003 13.6001C83.203 13.6847 83.0972 13.7588 82.9829 13.8223C82.8052 13.9196 82.6084 13.9937 82.3926 14.0444C82.1768 14.0994 81.944 14.127 81.6943 14.127C81.2754 14.127 80.8966 14.0381 80.5581 13.8604C80.2196 13.6826 79.9339 13.4372 79.7012 13.124C79.4642 12.8109 79.2822 12.4427 79.1553 12.0195C79.0283 11.5921 78.9648 11.133 78.9648 10.6421V10.5088ZM80.1392 10.6421C80.1392 10.9764 80.173 11.2938 80.2407 11.5942C80.3127 11.8947 80.4248 12.1592 80.5771 12.3877C80.7253 12.6162 80.9157 12.7982 81.1484 12.9336C81.3812 13.0648 81.6605 13.1304 81.9863 13.1304C82.1895 13.1304 82.3714 13.1071 82.5322 13.0605C82.6973 13.0098 82.8454 12.9399 82.9766 12.8511C83.1035 12.7622 83.2178 12.6564 83.3193 12.5337C83.4209 12.411 83.5098 12.2756 83.5859 12.1274V8.979C83.5098 8.83512 83.4209 8.70394 83.3193 8.58545C83.2178 8.46696 83.1014 8.36328 82.9702 8.27441C82.839 8.18978 82.693 8.12419 82.5322 8.07764C82.3714 8.02686 82.1937 8.00146 81.999 8.00146C81.6689 8.00146 81.3854 8.06917 81.1484 8.20459C80.9157 8.34001 80.7253 8.52197 80.5771 8.75049C80.4248 8.98324 80.3127 9.25195 80.2407 9.55664C80.173 9.8571 80.1392 10.1745 80.1392 10.5088V10.6421ZM88.1626 8.15381C88.2557 8.01416 88.3594 7.88721 88.4736 7.77295C88.5879 7.65446 88.7085 7.55078 88.8354 7.46191C89.0386 7.3138 89.2607 7.20166 89.502 7.12549C89.7474 7.04932 90.0076 7.00911 90.2827 7.00488C90.6424 7.00488 90.9683 7.05778 91.2603 7.16357C91.5565 7.26514 91.8083 7.42594 92.0156 7.646C92.223 7.86605 92.3817 8.14535 92.4917 8.48389C92.606 8.8182 92.6631 9.21598 92.6631 9.67725V14H91.4888V9.66455C91.4888 9.39372 91.457 9.15674 91.3936 8.95361C91.3301 8.74626 91.237 8.57487 91.1143 8.43945C90.9831 8.29134 90.818 8.18132 90.6191 8.10938C90.4202 8.0332 90.1917 7.99723 89.9336 8.00146C89.722 8.00146 89.521 8.03109 89.3306 8.09033C89.1401 8.14958 88.9645 8.23421 88.8037 8.34424C88.6768 8.42887 88.5583 8.52832 88.4482 8.64258C88.3424 8.7526 88.2472 8.87533 88.1626 9.01074V14H86.9883V4.25H88.1626V8.15381ZM97.5762 5.46875V7.13184H100.191V8.03955H97.5762V11.772C97.5762 12.0386 97.61 12.2586 97.6777 12.4321C97.7454 12.6056 97.8385 12.7432 97.957 12.8447C98.0755 12.9505 98.2109 13.0246 98.3633 13.0669C98.5199 13.1092 98.6849 13.1304 98.8584 13.1304C98.9854 13.1304 99.1165 13.124 99.252 13.1113C99.3874 13.0944 99.5207 13.0754 99.6519 13.0542C99.7788 13.033 99.8973 13.0119 100.007 12.9907C100.122 12.9653 100.215 12.9442 100.287 12.9272L100.452 13.7588C100.354 13.818 100.236 13.8709 100.096 13.9175C99.9565 13.9598 99.8042 13.9958 99.6392 14.0254C99.4741 14.0592 99.2985 14.0846 99.1123 14.1016C98.9303 14.1185 98.7484 14.127 98.5664 14.127C98.2617 14.127 97.9761 14.0846 97.7095 14C97.4471 13.9111 97.2186 13.7715 97.0239 13.5811C96.8293 13.3949 96.6748 13.1536 96.5605 12.8574C96.4505 12.557 96.3955 12.1951 96.3955 11.772V8.03955H94.5928V7.13184H96.3955V5.46875H97.5762Z" fill="#696C80"/>
</svg>
