<svg width="160" height="98" viewBox="0 0 160 98" fill="none" xmlns="http://www.w3.org/2000/svg">
<rect x="0.5" y="34.5" width="159" height="63" rx="4.5" stroke="#9747FF" stroke-dasharray="10 5"/>
<path d="M128 56C122.477 56 118 60.4772 118 66C118 71.5228 122.477 76 128 76C133.523 76 138 71.5228 138 66C138 60.4772 133.523 56 128 56Z" fill="#BABDCC"/>
<path fill-rule="evenodd" clip-rule="evenodd" d="M127.133 63.5007C126.857 63.9788 126.245 64.1421 125.767 63.8656C125.289 63.5891 125.125 62.9773 125.402 62.4993C125.919 61.6052 126.888 61 128 61C129.657 61 131 62.3431 131 64C131 65.0977 130.327 65.994 129.5 66.5C128.836 66.9065 129.25 68 127.997 68C127.445 68 126.997 67.5523 126.997 67C126.997 66.9649 126.999 66.9302 127.003 66.896C127.031 66.3672 127.266 65.9368 127.523 65.6239C127.794 65.2935 128.151 65.0237 128.423 64.8616C129.94 63.96 128.09 62.1154 127.133 63.5007ZM127.997 69C127.445 69 126.997 69.4477 126.997 70C126.997 70.5523 127.445 71 127.997 71C128.55 71 128.997 70.5523 128.997 70C128.997 69.4477 128.55 69 127.997 69Z" fill="#12131A"/>
<path fill-rule="evenodd" clip-rule="evenodd" d="M70 66C70 60.4772 74.4772 56 80 56C85.5228 56 90 60.4772 90 66C90 71.5228 85.5228 76 80 76C74.4772 76 70 71.5228 70 66ZM77.7669 63.8656C78.245 64.1421 78.8567 63.9788 79.1332 63.5007C80.0902 62.1154 81.9401 63.96 80.4234 64.8616C80.1508 65.0237 79.7943 65.2935 79.5231 65.6239C79.2663 65.9368 79.0305 66.3672 79.0028 66.896C78.9992 66.9302 78.9974 66.9649 78.9974 67C78.9974 67.5523 79.4452 68 79.9974 68C80.7597 68 80.9048 67.595 81.0512 67.1864C81.1454 66.9235 81.2401 66.6591 81.5001 66.5C82.3267 65.994 83 65.0977 83.0001 64C83.0001 62.3431 81.6569 61 80.0001 61C78.8884 61 77.9192 61.6052 77.402 62.4993C77.1255 62.9773 77.2888 63.5891 77.7669 63.8656ZM78.9974 70C78.9974 69.4477 79.4452 69 79.9974 69C80.5497 69 80.9974 69.4477 80.9974 70C80.9974 70.5523 80.5497 71 79.9974 71C79.4452 71 78.9974 70.5523 78.9974 70Z" fill="#12131A"/>
<path fill-rule="evenodd" clip-rule="evenodd" d="M32 58C27.5817 58 24 61.5817 24 66C24 70.4183 27.5817 74 32 74C36.4183 74 40 70.4183 40 66C40 61.5817 36.4183 58 32 58ZM22 66C22 60.4772 26.4772 56 32 56C37.5228 56 42 60.4772 42 66C42 71.5228 37.5228 76 32 76C26.4772 76 22 71.5228 22 66Z" fill="#12131A"/>
<path fill-rule="evenodd" clip-rule="evenodd" d="M31.1332 63.5007C30.8567 63.9788 30.245 64.1421 29.7669 63.8656C29.2888 63.5891 29.1255 62.9773 29.402 62.4993C29.9192 61.6052 30.8884 61 32.0001 61C33.6569 61 35.0001 62.3431 35.0001 64C35 65.0977 34.3267 65.994 33.5001 66.5C32.8361 66.9065 33.2501 68 31.9974 68C31.4452 68 30.9974 67.5523 30.9974 67C30.9974 66.9649 30.9992 66.9302 31.0028 66.896C31.0305 66.3672 31.2663 65.9368 31.5231 65.6239C31.7943 65.2935 32.1508 65.0237 32.4234 64.8616C33.9401 63.96 32.0902 62.1154 31.1332 63.5007ZM31.9974 69C31.4452 69 30.9974 69.4477 30.9974 70C30.9974 70.5523 31.4452 71 31.9974 71C32.5497 71 32.9974 70.5523 32.9974 70C32.9974 69.4477 32.5497 69 31.9974 69Z" fill="#12131A"/>
<path d="M7.19824 9.7915C7.19401 10.1343 7.16439 10.4792 7.10938 10.8262C7.05436 11.1732 6.97184 11.5075 6.86182 11.8291C6.74756 12.1507 6.60156 12.4533 6.42383 12.7368C6.25033 13.0161 6.04085 13.2594 5.79541 13.4668L7.38867 14.7935L6.58252 15.5615L4.75439 14.0127C4.62321 14.0508 4.48568 14.0783 4.3418 14.0952C4.20215 14.1164 4.05615 14.127 3.90381 14.127C3.51025 14.127 3.1569 14.0677 2.84375 13.9492C2.5306 13.8265 2.25342 13.6615 2.01221 13.4541C1.76676 13.2467 1.55518 13.0034 1.37744 12.7241C1.19971 12.4406 1.05371 12.138 0.939453 11.8164C0.825195 11.4948 0.74056 11.1626 0.685547 10.8198C0.630534 10.4728 0.600911 10.13 0.59668 9.7915V8.979C0.600911 8.64046 0.630534 8.29769 0.685547 7.95068C0.74056 7.60368 0.825195 7.26937 0.939453 6.94775C1.05371 6.62614 1.19759 6.32568 1.37109 6.04639C1.5446 5.76286 1.75407 5.5153 1.99951 5.30371C2.24072 5.09635 2.5179 4.93343 2.83105 4.81494C3.14844 4.69222 3.50391 4.63086 3.89746 4.63086C4.29102 4.63086 4.64437 4.69222 4.95752 4.81494C5.2749 4.93343 5.55632 5.09635 5.80176 5.30371C6.04297 5.51107 6.25033 5.75651 6.42383 6.04004C6.60156 6.31934 6.74756 6.61979 6.86182 6.94141C6.97184 7.26302 7.05436 7.59945 7.10938 7.95068C7.16439 8.29769 7.19401 8.64046 7.19824 8.979V9.7915ZM6.03027 8.96631C6.02604 8.73356 6.01123 8.49235 5.98584 8.24268C5.96468 7.98877 5.92448 7.7391 5.86523 7.49365C5.80176 7.25244 5.71712 7.02181 5.61133 6.80176C5.50977 6.58171 5.3807 6.38704 5.22412 6.21777C5.06755 6.05273 4.87923 5.92155 4.65918 5.82422C4.44336 5.72689 4.18945 5.67822 3.89746 5.67822C3.6097 5.67822 3.35791 5.729 3.14209 5.83057C2.92627 5.9279 2.74007 6.05908 2.5835 6.22412C2.42692 6.39339 2.29574 6.58805 2.18994 6.80811C2.08838 7.02816 2.00586 7.25879 1.94238 7.5C1.87891 7.74544 1.83236 7.99512 1.80273 8.24902C1.77734 8.4987 1.76465 8.73779 1.76465 8.96631V9.7915C1.76465 10.02 1.77734 10.2612 1.80273 10.5151C1.83236 10.7648 1.87891 11.0124 1.94238 11.2578C2.00586 11.5033 2.08838 11.736 2.18994 11.9561C2.29574 12.1761 2.42692 12.3708 2.5835 12.54C2.74007 12.7093 2.92627 12.8447 3.14209 12.9463C3.36214 13.0436 3.61605 13.0923 3.90381 13.0923C4.1958 13.0923 4.44971 13.0436 4.66553 12.9463C4.88558 12.8447 5.07389 12.7093 5.23047 12.54C5.38704 12.375 5.51611 12.1825 5.61768 11.9624C5.71924 11.7424 5.80176 11.5096 5.86523 11.2642C5.92448 11.0187 5.96468 10.7712 5.98584 10.5215C6.01123 10.2676 6.02604 10.0243 6.03027 9.7915V8.96631ZM13.438 14L13.3682 13.0542C13.1396 13.3927 12.854 13.6572 12.5112 13.8477C12.1685 14.0339 11.7728 14.127 11.3242 14.127C10.9645 14.127 10.6387 14.0719 10.3467 13.9619C10.0547 13.8477 9.80501 13.672 9.59766 13.4351C9.3903 13.1981 9.22949 12.8976 9.11523 12.5337C9.00521 12.1655 8.9502 11.7254 8.9502 11.2134V7.13184H10.1245V11.2261C10.1245 11.5985 10.1541 11.9074 10.2134 12.1528C10.2726 12.3983 10.3615 12.5929 10.48 12.7368C10.5985 12.8849 10.7424 12.9886 10.9116 13.0479C11.0851 13.1071 11.284 13.1367 11.5083 13.1367C11.7707 13.1367 12.0055 13.1071 12.2129 13.0479C12.4202 12.9844 12.6001 12.8976 12.7524 12.7876C12.8794 12.6987 12.9894 12.5929 13.0825 12.4702C13.1799 12.3433 13.2603 12.2057 13.3237 12.0576V7.13184H14.5044V14H13.438ZM19.7539 14.127C19.2715 14.127 18.8271 14.0444 18.4209 13.8794C18.0189 13.7144 17.674 13.4837 17.3862 13.1875C17.0985 12.8913 16.8742 12.54 16.7134 12.1338C16.5526 11.7275 16.4722 11.2853 16.4722 10.8071V10.5405C16.4722 9.98617 16.561 9.49105 16.7388 9.05518C16.9165 8.61507 17.1535 8.24268 17.4497 7.93799C17.7417 7.63753 18.0739 7.4069 18.4463 7.24609C18.8229 7.08529 19.208 7.00488 19.6016 7.00488C20.0967 7.00488 20.5283 7.09163 20.8965 7.26514C21.2689 7.43441 21.5778 7.66927 21.8232 7.96973C22.0687 8.27441 22.2507 8.632 22.3691 9.04248C22.4919 9.45296 22.5532 9.8973 22.5532 10.3755V10.9023H17.6465V10.9468C17.6761 11.2811 17.7417 11.5752 17.8433 11.8291C17.9491 12.083 18.0929 12.3073 18.2749 12.502C18.4611 12.7093 18.6854 12.8722 18.9478 12.9907C19.2101 13.1092 19.5 13.1685 19.8174 13.1685C20.2363 13.1685 20.6087 13.0838 20.9346 12.9146C21.2604 12.7453 21.5312 12.521 21.7471 12.2417L22.4644 12.8003C22.2358 13.1473 21.8931 13.4562 21.436 13.7271C20.9832 13.9937 20.4225 14.127 19.7539 14.127ZM19.6016 7.96973C19.3646 7.96973 19.1403 8.01416 18.9287 8.10303C18.7171 8.18766 18.5267 8.3125 18.3574 8.47754C18.1882 8.64681 18.0443 8.85417 17.9258 9.09961C17.8115 9.34082 17.7311 9.62012 17.6846 9.9375H21.3789V9.88037C21.3789 9.66878 21.3387 9.44238 21.2583 9.20117C21.1779 8.95573 21.0658 8.74414 20.9219 8.56641C20.778 8.38867 20.596 8.24479 20.376 8.13477C20.1602 8.02474 19.902 7.96973 19.6016 7.96973ZM29.0913 12.1782C29.0913 12.0386 29.0638 11.9137 29.0088 11.8037C28.9538 11.6895 28.8607 11.5858 28.7295 11.4927C28.5983 11.3996 28.4248 11.3149 28.209 11.2388C27.9932 11.1584 27.7244 11.0864 27.4028 11.0229C27.0093 10.9425 26.6496 10.8452 26.3237 10.731C26.0021 10.6167 25.7271 10.4792 25.4985 10.3184C25.2658 10.1618 25.0859 9.9777 24.959 9.76611C24.832 9.55029 24.7686 9.30062 24.7686 9.01709C24.7686 8.73779 24.8341 8.47754 24.9653 8.23633C25.0965 7.99089 25.2806 7.77718 25.5176 7.59521C25.7546 7.41325 26.036 7.26937 26.3618 7.16357C26.6919 7.05778 27.0537 7.00488 27.4473 7.00488C27.8704 7.00488 28.2513 7.0599 28.5898 7.16992C28.9284 7.27995 29.2161 7.43229 29.4531 7.62695C29.6901 7.82161 29.8721 8.05013 29.999 8.3125C30.1302 8.57064 30.1958 8.84993 30.1958 9.15039H29.0215C29.0215 9.00228 28.9834 8.8584 28.9072 8.71875C28.8311 8.57487 28.7253 8.44792 28.5898 8.33789C28.4544 8.22786 28.2894 8.139 28.0947 8.07129C27.9043 8.00358 27.6885 7.96973 27.4473 7.96973C27.1976 7.96973 26.9775 7.99723 26.7871 8.05225C26.6009 8.10726 26.4465 8.18132 26.3237 8.27441C26.1968 8.36751 26.1016 8.47542 26.0381 8.59814C25.9746 8.72087 25.9429 8.84782 25.9429 8.979C25.9429 9.11442 25.9683 9.23503 26.019 9.34082C26.0698 9.44661 26.1587 9.54183 26.2856 9.62646C26.4084 9.7111 26.5734 9.78727 26.7808 9.85498C26.9924 9.92269 27.259 9.98828 27.5806 10.0518C28.0037 10.1406 28.3825 10.2443 28.7168 10.3628C29.0511 10.4771 29.3325 10.6146 29.561 10.7754C29.7896 10.9404 29.9631 11.1309 30.0815 11.3467C30.2043 11.5625 30.2656 11.8122 30.2656 12.0957C30.2656 12.4004 30.1958 12.6776 30.0562 12.9272C29.9207 13.1769 29.7303 13.3906 29.4849 13.5684C29.2394 13.7461 28.9453 13.8836 28.6025 13.981C28.2598 14.0783 27.8853 14.127 27.479 14.127C27.0135 14.127 26.5988 14.0656 26.2349 13.9429C25.8709 13.8159 25.5641 13.6488 25.3145 13.4414C25.0605 13.2383 24.8659 13.0013 24.7305 12.7305C24.5993 12.4596 24.5337 12.1782 24.5337 11.8862H25.708C25.7249 12.1274 25.7884 12.3306 25.8984 12.4956C26.0127 12.6606 26.1545 12.7939 26.3237 12.8955C26.4888 12.9971 26.6729 13.069 26.876 13.1113C27.0791 13.1536 27.2801 13.1748 27.479 13.1748C27.7922 13.1748 28.0651 13.1388 28.2979 13.0669C28.5306 12.9907 28.7126 12.887 28.8438 12.7559C28.9242 12.6755 28.9855 12.5866 29.0278 12.4893C29.0701 12.3919 29.0913 12.2882 29.0913 12.1782ZM35.1152 5.46875V7.13184H37.7305V8.03955H35.1152V11.772C35.1152 12.0386 35.1491 12.2586 35.2168 12.4321C35.2845 12.6056 35.3776 12.7432 35.4961 12.8447C35.6146 12.9505 35.75 13.0246 35.9023 13.0669C36.0589 13.1092 36.224 13.1304 36.3975 13.1304C36.5244 13.1304 36.6556 13.124 36.791 13.1113C36.9264 13.0944 37.0597 13.0754 37.1909 13.0542C37.3179 13.033 37.4364 13.0119 37.5464 12.9907C37.6606 12.9653 37.7537 12.9442 37.8257 12.9272L37.9907 13.7588C37.8934 13.818 37.7749 13.8709 37.6353 13.9175C37.4956 13.9598 37.3433 13.9958 37.1782 14.0254C37.0132 14.0592 36.8376 14.0846 36.6514 14.1016C36.4694 14.1185 36.2874 14.127 36.1055 14.127C35.8008 14.127 35.5151 14.0846 35.2485 14C34.9862 13.9111 34.7576 13.7715 34.563 13.5811C34.3683 13.3949 34.2139 13.1536 34.0996 12.8574C33.9896 12.557 33.9346 12.1951 33.9346 11.772V8.03955H32.1318V7.13184H33.9346V5.46875H35.1152ZM40.3267 7.13184H43.8369V12.9844H46.0776V14H40.3267V12.9844H42.6626V8.15381H40.3267V7.13184ZM42.5103 5.3291C42.5103 5.22754 42.5251 5.13232 42.5547 5.04346C42.5885 4.95459 42.6393 4.87842 42.707 4.81494C42.762 4.75993 42.8319 4.71761 42.9165 4.68799C43.0054 4.65413 43.1048 4.63721 43.2148 4.63721C43.3249 4.63721 43.4222 4.65413 43.5068 4.68799C43.5915 4.71761 43.6613 4.75993 43.7163 4.81494C43.784 4.87419 43.8348 4.94824 43.8687 5.03711C43.9025 5.12598 43.9194 5.22331 43.9194 5.3291C43.9194 5.51953 43.8602 5.67822 43.7417 5.80518C43.6232 5.93213 43.4476 5.99561 43.2148 5.99561C42.9779 5.99561 42.8001 5.93213 42.6816 5.80518C42.5674 5.67822 42.5103 5.51953 42.5103 5.3291ZM47.6201 10.5024C47.6201 10.0073 47.6921 9.54818 47.8359 9.125C47.9798 8.69759 48.1872 8.32731 48.458 8.01416C48.7246 7.70101 49.0505 7.45557 49.4355 7.27783C49.8206 7.09587 50.2544 7.00488 50.7368 7.00488C51.2235 7.00488 51.6593 7.09587 52.0444 7.27783C52.4338 7.45557 52.7638 7.70101 53.0347 8.01416C53.3013 8.32731 53.5065 8.69759 53.6504 9.125C53.7943 9.54818 53.8662 10.0073 53.8662 10.5024V10.6421C53.8662 11.1372 53.7943 11.5964 53.6504 12.0195C53.5065 12.4427 53.3013 12.8109 53.0347 13.124C52.7638 13.4372 52.4359 13.6826 52.0508 13.8604C51.6657 14.0381 51.2319 14.127 50.7495 14.127C50.2629 14.127 49.8249 14.0381 49.4355 13.8604C49.0505 13.6826 48.7246 13.4372 48.458 13.124C48.1872 12.8109 47.9798 12.4427 47.8359 12.0195C47.6921 11.5964 47.6201 11.1372 47.6201 10.6421V10.5024ZM48.7944 10.6421C48.7944 10.9806 48.8346 11.3044 48.915 11.6133C48.9954 11.918 49.1182 12.1867 49.2832 12.4194C49.444 12.6522 49.6471 12.8363 49.8926 12.9717C50.138 13.1071 50.4237 13.1748 50.7495 13.1748C51.0711 13.1748 51.3525 13.1071 51.5938 12.9717C51.8392 12.8363 52.0444 12.6522 52.2095 12.4194C52.3703 12.1867 52.4909 11.918 52.5713 11.6133C52.6517 11.3044 52.6919 10.9806 52.6919 10.6421V10.5024C52.6919 10.1681 52.6496 9.84863 52.5649 9.54395C52.4845 9.23503 52.3639 8.96419 52.2031 8.73145C52.0381 8.4987 51.8328 8.31462 51.5874 8.1792C51.3462 8.03955 51.0627 7.96973 50.7368 7.96973C50.411 7.96973 50.1274 8.03955 49.8862 8.1792C49.645 8.31462 49.444 8.4987 49.2832 8.73145C49.1182 8.96419 48.9954 9.23503 48.915 9.54395C48.8346 9.84863 48.7944 10.1681 48.7944 10.5024V10.6421ZM55.7578 14V7.13184H56.8115L56.894 8.14746C56.9956 8.00358 57.1056 7.8724 57.2241 7.75391C57.3468 7.63118 57.4759 7.52539 57.6113 7.43652C57.8145 7.30111 58.0345 7.19743 58.2715 7.12549C58.5127 7.04932 58.7666 7.00911 59.0332 7.00488C59.3929 7.00488 59.7188 7.05566 60.0107 7.15723C60.307 7.25879 60.5588 7.41748 60.7661 7.6333C60.9735 7.84912 61.1322 8.12419 61.2422 8.4585C61.3564 8.78857 61.4136 9.18213 61.4136 9.63916V14H60.2393V9.66455C60.2393 9.35986 60.2054 9.10173 60.1377 8.89014C60.07 8.67855 59.9705 8.50716 59.8394 8.37598C59.7039 8.24479 59.5389 8.14958 59.3442 8.09033C59.1538 8.03109 58.9338 8.00146 58.6841 8.00146C58.4683 8.00146 58.2673 8.0332 58.0811 8.09668C57.8949 8.15592 57.7235 8.23844 57.5669 8.34424C57.4399 8.43734 57.3215 8.54525 57.2114 8.66797C57.1056 8.79069 57.0125 8.92611 56.9321 9.07422V14H55.7578ZM72.6616 4.75781L74.166 9.37891L75.791 4.75781H77.251V14H76.1084V10.312L76.2036 6.45264L74.4961 11.4292H73.8232L72.2554 6.58594L72.3506 10.312V14H71.208V4.75781H72.6616ZM83.6938 14C83.6473 13.9111 83.6092 13.8011 83.5796 13.6699C83.5542 13.5345 83.5352 13.3949 83.5225 13.251C83.404 13.3695 83.2707 13.4816 83.1226 13.5874C82.9787 13.6932 82.82 13.7863 82.6465 13.8667C82.4688 13.9471 82.2804 14.0106 82.0815 14.0571C81.8826 14.1037 81.6711 14.127 81.4468 14.127C81.0828 14.127 80.7528 14.0741 80.4565 13.9683C80.1646 13.8625 79.917 13.7186 79.7139 13.5366C79.5065 13.3589 79.3457 13.1473 79.2314 12.9019C79.1214 12.6522 79.0664 12.3835 79.0664 12.0957C79.0664 11.7191 79.1405 11.389 79.2886 11.1055C79.4409 10.8219 79.6546 10.585 79.9297 10.3945C80.2048 10.2083 80.5348 10.0687 80.9199 9.97559C81.3092 9.88249 81.743 9.83594 82.2212 9.83594H83.5034V9.29639C83.5034 9.08903 83.4653 8.90283 83.3892 8.73779C83.313 8.57275 83.2051 8.43099 83.0654 8.3125C82.9258 8.19824 82.7544 8.10938 82.5513 8.0459C82.3524 7.98242 82.1281 7.95068 81.8784 7.95068C81.6457 7.95068 81.4362 7.98031 81.25 8.03955C81.068 8.0988 80.9136 8.17708 80.7866 8.27441C80.6597 8.37174 80.5602 8.48812 80.4883 8.62354C80.4206 8.75472 80.3867 8.89225 80.3867 9.03613H79.2061C79.2103 8.78646 79.2738 8.54102 79.3965 8.2998C79.5234 8.05859 79.7054 7.84066 79.9424 7.646C80.1751 7.45557 80.4587 7.30111 80.793 7.18262C81.1315 7.06413 81.5145 7.00488 81.9419 7.00488C82.3312 7.00488 82.693 7.05355 83.0273 7.15088C83.3617 7.24398 83.6515 7.38574 83.897 7.57617C84.1382 7.77083 84.3286 8.01204 84.4683 8.2998C84.6079 8.58757 84.6777 8.92399 84.6777 9.30908V12.502C84.6777 12.7305 84.6989 12.9738 84.7412 13.2319C84.7835 13.4858 84.8428 13.708 84.9189 13.8984V14H83.6938ZM81.6182 13.105C81.8467 13.105 82.0604 13.0754 82.2593 13.0161C82.4582 12.9569 82.6401 12.8786 82.8052 12.7812C82.966 12.6839 83.1056 12.5739 83.2241 12.4512C83.3426 12.3242 83.4357 12.193 83.5034 12.0576V10.6675H82.4116C82.0054 10.6675 81.6499 10.7035 81.3452 10.7754C81.0448 10.8431 80.8057 10.9489 80.6279 11.0928C80.501 11.1943 80.4036 11.3149 80.3359 11.4546C80.2725 11.5942 80.2407 11.7529 80.2407 11.9307C80.2407 12.0999 80.2682 12.2565 80.3232 12.4004C80.3825 12.5443 80.4692 12.667 80.5835 12.7686C80.6978 12.8743 80.8416 12.9569 81.0151 13.0161C81.1886 13.0754 81.3896 13.105 81.6182 13.105ZM91.4888 7.00488C91.7046 7.00488 91.9289 7.01969 92.1616 7.04932C92.3986 7.07894 92.5763 7.11914 92.6948 7.16992L92.5361 8.31885C92.3076 8.26807 92.0897 8.2321 91.8823 8.21094C91.6792 8.18555 91.4655 8.17285 91.2412 8.17285C90.9535 8.17285 90.6932 8.20882 90.4604 8.28076C90.2277 8.34847 90.0246 8.45003 89.8511 8.58545C89.6945 8.70394 89.557 8.84993 89.4385 9.02344C89.3242 9.19271 89.229 9.38314 89.1528 9.59473V14H87.9722V7.13184H89.0894L89.1401 8.05225L89.1465 8.22363C89.4258 7.84701 89.7601 7.55078 90.1494 7.33496C90.543 7.11491 90.9894 7.00488 91.4888 7.00488ZM96.8525 10.7944L95.9893 11.626V14H94.8086V4.25H95.9893V10.2168L96.7573 9.3916L99.0107 7.13184H100.439L97.6587 9.99463L100.864 14H99.3726L96.8525 10.7944ZM113.337 13.1748C113.549 13.1748 113.754 13.141 113.953 13.0732C114.156 13.0055 114.336 12.9103 114.493 12.7876C114.649 12.6691 114.774 12.5295 114.867 12.3687C114.965 12.2036 115.015 12.0259 115.02 11.8354H116.13C116.126 12.1401 116.046 12.4321 115.889 12.7114C115.737 12.9865 115.532 13.2277 115.273 13.4351C115.015 13.6466 114.719 13.8159 114.385 13.9429C114.05 14.0656 113.701 14.127 113.337 14.127C112.817 14.127 112.362 14.0339 111.973 13.8477C111.583 13.6615 111.26 13.4097 111.001 13.0923C110.739 12.7791 110.542 12.4173 110.411 12.0068C110.28 11.5921 110.214 11.1562 110.214 10.6992V10.4326C110.214 9.97982 110.28 9.54606 110.411 9.13135C110.542 8.71663 110.739 8.35059 111.001 8.0332C111.26 7.72005 111.583 7.47038 111.973 7.28418C112.362 7.09798 112.817 7.00488 113.337 7.00488C113.744 7.00488 114.116 7.07048 114.455 7.20166C114.797 7.32861 115.094 7.50212 115.343 7.72217C115.589 7.94645 115.781 8.21094 115.921 8.51562C116.061 8.82031 116.13 9.14616 116.13 9.49316H115.02C115.015 9.28581 114.969 9.09115 114.88 8.90918C114.795 8.72298 114.679 8.56006 114.531 8.42041C114.383 8.28076 114.205 8.17074 113.998 8.09033C113.794 8.00993 113.574 7.96973 113.337 7.96973C112.973 7.96973 112.667 8.04378 112.417 8.19189C112.172 8.33577 111.973 8.52409 111.82 8.75684C111.668 8.99382 111.558 9.2583 111.49 9.55029C111.427 9.84229 111.395 10.1364 111.395 10.4326V10.6992C111.395 10.9997 111.427 11.298 111.49 11.5942C111.558 11.8862 111.668 12.1486 111.82 12.3813C111.968 12.6183 112.165 12.8109 112.411 12.959C112.66 13.1029 112.969 13.1748 113.337 13.1748ZM122.719 7.00488C122.935 7.00488 123.159 7.01969 123.392 7.04932C123.629 7.07894 123.807 7.11914 123.925 7.16992L123.767 8.31885C123.538 8.26807 123.32 8.2321 123.113 8.21094C122.91 8.18555 122.696 8.17285 122.472 8.17285C122.184 8.17285 121.924 8.20882 121.691 8.28076C121.458 8.34847 121.255 8.45003 121.082 8.58545C120.925 8.70394 120.787 8.84993 120.669 9.02344C120.555 9.19271 120.459 9.38314 120.383 9.59473V14H119.203V7.13184H120.32L120.371 8.05225L120.377 8.22363C120.656 7.84701 120.991 7.55078 121.38 7.33496C121.773 7.11491 122.22 7.00488 122.719 7.00488ZM131.162 10.439H126.306V9.47412H131.162V10.439ZM135.586 14V8.03955H133.694V7.13184H135.586V6.64941C135.586 6.20931 135.649 5.82422 135.776 5.49414C135.908 5.15983 136.092 4.88053 136.329 4.65625C136.561 4.43197 136.843 4.2627 137.173 4.14844C137.503 4.03418 137.871 3.97705 138.277 3.97705C138.447 3.97705 138.614 3.98763 138.779 4.00879C138.944 4.02572 139.107 4.04899 139.268 4.07861C139.373 4.09977 139.479 4.12305 139.585 4.14844C139.691 4.1696 139.799 4.19499 139.909 4.22461L139.769 5.1958C139.596 5.13656 139.392 5.08577 139.16 5.04346C138.931 4.99691 138.686 4.97363 138.423 4.97363C138.157 4.97363 137.92 5.00749 137.712 5.0752C137.509 5.13867 137.34 5.236 137.205 5.36719C137.061 5.5026 136.951 5.67822 136.875 5.89404C136.803 6.10986 136.767 6.36165 136.767 6.64941V7.13184H139.414V8.03955H136.767V14H135.586ZM146.142 7.00488C146.358 7.00488 146.582 7.01969 146.815 7.04932C147.052 7.07894 147.23 7.11914 147.348 7.16992L147.189 8.31885C146.961 8.26807 146.743 8.2321 146.536 8.21094C146.333 8.18555 146.119 8.17285 145.895 8.17285C145.607 8.17285 145.347 8.20882 145.114 8.28076C144.881 8.34847 144.678 8.45003 144.504 8.58545C144.348 8.70394 144.21 8.84993 144.092 9.02344C143.978 9.19271 143.882 9.38314 143.806 9.59473V14H142.625V7.13184H143.743L143.793 8.05225L143.8 8.22363C144.079 7.84701 144.413 7.55078 144.803 7.33496C145.196 7.11491 145.643 7.00488 146.142 7.00488Z" fill="#696C80"/>
</svg>
