<svg width="160" height="98" viewBox="0 0 160 98" fill="none" xmlns="http://www.w3.org/2000/svg">
<rect x="0.5" y="34.5" width="159" height="63" rx="4.5" stroke="#9747FF" stroke-dasharray="10 5"/>
<path fill-rule="evenodd" clip-rule="evenodd" d="M120 63.5C120 65.433 121.567 67 123.5 67H131.5C133.985 67 136 64.9853 136 62.5C136 60.0147 133.985 58 131.5 58C131.338 58 131.177 58.0086 131.019 58.0254C130.108 56.7965 128.647 56 127 56C124.471 56 122.38 57.8777 122.047 60.3151C120.839 60.8671 120 62.0856 120 63.5Z" fill="#BABDCC"/>
<path d="M123.894 70.4474C124.141 69.9535 123.941 69.3528 123.447 69.1058C122.953 68.8588 122.353 69.059 122.106 69.553L121.106 71.553C120.859 72.047 121.059 72.6477 121.553 72.8946C122.047 73.1416 122.647 72.9414 122.894 72.4474L123.894 70.4474Z" fill="#12131A"/>
<path d="M131.894 70.4474C132.141 69.9535 131.941 69.3528 131.447 69.1058C130.953 68.8588 130.353 69.059 130.106 69.553L128.606 72.553C128.359 73.047 128.559 73.6477 129.053 73.8946C129.547 74.1416 130.147 73.9414 130.394 73.4474L131.894 70.4474Z" fill="#12131A"/>
<path d="M133.947 72.1058C134.441 72.3528 134.641 72.9535 134.394 73.4474L133.394 75.4474C133.147 75.9414 132.547 76.1416 132.053 75.8946C131.559 75.6477 131.359 75.047 131.606 74.553L132.606 72.553C132.853 72.059 133.453 71.8588 133.947 72.1058Z" fill="#12131A"/>
<path d="M127.394 71.4474C127.641 70.9535 127.441 70.3528 126.947 70.1058C126.453 69.8588 125.853 70.059 125.606 70.553L123.606 74.553C123.359 75.047 123.559 75.6477 124.053 75.8946C124.547 76.1416 125.147 75.9414 125.394 75.4474L127.394 71.4474Z" fill="#12131A"/>
<path fill-rule="evenodd" clip-rule="evenodd" d="M72 63.5C72 65.433 73.567 67 75.5 67H83.5C85.9853 67 88 64.9853 88 62.5C88 60.0147 85.9853 58 83.5 58C83.3376 58 83.1772 58.0086 83.0193 58.0254C82.1083 56.7965 80.6472 56 79 56C76.4709 56 74.3804 57.8777 74.0465 60.3151C72.839 60.8671 72 62.0856 72 63.5Z" fill="#12131A"/>
<path d="M75.8944 70.4474C76.1414 69.9535 75.9412 69.3528 75.4472 69.1058C74.9532 68.8588 74.3525 69.059 74.1055 69.553L73.1055 71.553C72.8586 72.047 73.0588 72.6477 73.5528 72.8946C74.0467 73.1416 74.6474 72.9414 74.8944 72.4474L75.8944 70.4474Z" fill="#12131A"/>
<path d="M83.8944 70.4474C84.1414 69.9535 83.9412 69.3528 83.4472 69.1058C82.9532 68.8588 82.3525 69.059 82.1055 69.553L80.6055 72.553C80.3586 73.047 80.5588 73.6477 81.0528 73.8946C81.5467 74.1416 82.1474 73.9414 82.3944 73.4474L83.8944 70.4474Z" fill="#12131A"/>
<path d="M85.9472 72.1058C86.4412 72.3528 86.6414 72.9535 86.3944 73.4474L85.3944 75.4474C85.1474 75.9414 84.5467 76.1416 84.0528 75.8946C83.5588 75.6477 83.3586 75.047 83.6055 74.553L84.6055 72.553C84.8525 72.059 85.4532 71.8588 85.9472 72.1058Z" fill="#12131A"/>
<path d="M79.3944 71.4474C79.6414 70.9535 79.4412 70.3528 78.9472 70.1058C78.4532 69.8588 77.8525 70.059 77.6055 70.553L75.6055 74.553C75.3586 75.047 75.5588 75.6477 76.0528 75.8946C76.5467 76.1416 77.1474 75.9414 77.3944 75.4474L79.3944 71.4474Z" fill="#12131A"/>
<path fill-rule="evenodd" clip-rule="evenodd" d="M34.0935 60.1349L33.4126 59.2164C32.8626 58.4745 31.9869 58 31 58C29.4842 58 28.2281 59.1261 28.028 60.5866L27.8787 61.6767L26.878 62.1341C26.356 62.3727 26 62.8969 26 63.5C26 64.3284 26.6716 65 27.5 65H35.5C36.8807 65 38 63.8807 38 62.5C38 61.1193 36.8807 60 35.5 60C35.4083 60 35.3184 60.0049 35.2305 60.0142L34.0935 60.1349ZM27.5 67C25.567 67 24 65.433 24 63.5C24 62.0856 24.839 60.8671 26.0465 60.3151C26.3804 57.8777 28.4709 56 31 56C32.6472 56 34.1083 56.7965 35.0193 58.0254C35.1772 58.0086 35.3376 58 35.5 58C37.9853 58 40 60.0147 40 62.5C40 64.9853 37.9853 67 35.5 67H27.5Z" fill="#12131A"/>
<path d="M27.8944 70.4474C28.1414 69.9535 27.9412 69.3528 27.4472 69.1058C26.9532 68.8588 26.3525 69.059 26.1055 69.553L25.1055 71.553C24.8586 72.047 25.0588 72.6477 25.5528 72.8946C26.0467 73.1416 26.6474 72.9414 26.8944 72.4474L27.8944 70.4474Z" fill="#12131A"/>
<path d="M35.8944 70.4474C36.1414 69.9535 35.9412 69.3528 35.4472 69.1058C34.9532 68.8588 34.3525 69.059 34.1055 69.553L32.6055 72.553C32.3586 73.047 32.5588 73.6477 33.0528 73.8946C33.5467 74.1416 34.1474 73.9414 34.3944 73.4474L35.8944 70.4474Z" fill="#12131A"/>
<path d="M37.9472 72.1058C38.4412 72.3528 38.6414 72.9535 38.3944 73.4474L37.3944 75.4474C37.1474 75.9414 36.5467 76.1416 36.0528 75.8946C35.5588 75.6477 35.3586 75.047 35.6055 74.553L36.6055 72.553C36.8525 72.059 37.4532 71.8588 37.9472 72.1058Z" fill="#12131A"/>
<path d="M31.3944 71.4474C31.6414 70.9535 31.4412 70.3528 30.9472 70.1058C30.4532 69.8588 29.8525 70.059 29.6055 70.553L27.6055 74.553C27.3586 75.047 27.5588 75.6477 28.0528 75.8946C28.5467 76.1416 29.1474 75.9414 29.3944 75.4474L31.3944 71.4474Z" fill="#12131A"/>
<path d="M4.16406 10.2295H2.31689V14H1.14893V4.75781H3.85938C4.29102 4.76628 4.69727 4.82764 5.07812 4.94189C5.45898 5.05615 5.79329 5.22754 6.08105 5.45605C6.36458 5.68457 6.58675 5.97233 6.74756 6.31934C6.9126 6.66211 6.99512 7.06624 6.99512 7.53174C6.99512 7.83219 6.95068 8.10726 6.86182 8.35693C6.77718 8.60661 6.65869 8.83301 6.50635 9.03613C6.354 9.23926 6.17204 9.41911 5.96045 9.57568C5.74886 9.73226 5.51611 9.86556 5.26221 9.97559L7.22363 13.9238L7.21729 14H5.97949L4.16406 10.2295ZM2.31689 9.26465H3.89111C4.15348 9.26042 4.40104 9.22021 4.63379 9.14404C4.86654 9.06364 5.07178 8.94938 5.24951 8.80127C5.42301 8.65316 5.56055 8.47331 5.66211 8.26172C5.76367 8.0459 5.81445 7.79834 5.81445 7.51904C5.81445 7.22282 5.76579 6.96468 5.66846 6.74463C5.57113 6.52035 5.43571 6.33203 5.26221 6.17969C5.0887 6.03158 4.88135 5.91943 4.64014 5.84326C4.40316 5.76709 4.1429 5.72689 3.85938 5.72266H2.31689V9.26465ZM13.4253 14C13.3787 13.9111 13.3407 13.8011 13.311 13.6699C13.2856 13.5345 13.2666 13.3949 13.2539 13.251C13.1354 13.3695 13.0021 13.4816 12.854 13.5874C12.7101 13.6932 12.5514 13.7863 12.3779 13.8667C12.2002 13.9471 12.0119 14.0106 11.813 14.0571C11.6141 14.1037 11.4025 14.127 11.1782 14.127C10.8143 14.127 10.4842 14.0741 10.188 13.9683C9.896 13.8625 9.64844 13.7186 9.44531 13.5366C9.23796 13.3589 9.07715 13.1473 8.96289 12.9019C8.85286 12.6522 8.79785 12.3835 8.79785 12.0957C8.79785 11.7191 8.87191 11.389 9.02002 11.1055C9.17236 10.8219 9.38607 10.585 9.66113 10.3945C9.9362 10.2083 10.2663 10.0687 10.6514 9.97559C11.0407 9.88249 11.4744 9.83594 11.9526 9.83594H13.2349V9.29639C13.2349 9.08903 13.1968 8.90283 13.1206 8.73779C13.0444 8.57275 12.9365 8.43099 12.7969 8.3125C12.6572 8.19824 12.4858 8.10938 12.2827 8.0459C12.0838 7.98242 11.8595 7.95068 11.6099 7.95068C11.3771 7.95068 11.1676 7.98031 10.9814 8.03955C10.7995 8.0988 10.645 8.17708 10.5181 8.27441C10.3911 8.37174 10.2917 8.48812 10.2197 8.62354C10.152 8.75472 10.1182 8.89225 10.1182 9.03613H8.9375C8.94173 8.78646 9.00521 8.54102 9.12793 8.2998C9.25488 8.05859 9.43685 7.84066 9.67383 7.646C9.90658 7.45557 10.1901 7.30111 10.5244 7.18262C10.863 7.06413 11.2459 7.00488 11.6733 7.00488C12.0627 7.00488 12.4245 7.05355 12.7588 7.15088C13.0931 7.24398 13.383 7.38574 13.6284 7.57617C13.8696 7.77083 14.0601 8.01204 14.1997 8.2998C14.3394 8.58757 14.4092 8.92399 14.4092 9.30908V12.502C14.4092 12.7305 14.4303 12.9738 14.4727 13.2319C14.515 13.4858 14.5742 13.708 14.6504 13.8984V14H13.4253ZM11.3496 13.105C11.5781 13.105 11.7918 13.0754 11.9907 13.0161C12.1896 12.9569 12.3716 12.8786 12.5366 12.7812C12.6974 12.6839 12.8371 12.5739 12.9556 12.4512C13.0741 12.3242 13.1672 12.193 13.2349 12.0576V10.6675H12.1431C11.7368 10.6675 11.3813 10.7035 11.0767 10.7754C10.7762 10.8431 10.5371 10.9489 10.3594 11.0928C10.2324 11.1943 10.1351 11.3149 10.0674 11.4546C10.0039 11.5942 9.97217 11.7529 9.97217 11.9307C9.97217 12.0999 9.99967 12.2565 10.0547 12.4004C10.1139 12.5443 10.2007 12.667 10.3149 12.7686C10.4292 12.8743 10.5731 12.9569 10.7466 13.0161C10.9201 13.0754 11.1211 13.105 11.3496 13.105ZM16.9038 7.13184H20.4141V12.9844H22.6548V14H16.9038V12.9844H19.2397V8.15381H16.9038V7.13184ZM19.0874 5.3291C19.0874 5.22754 19.1022 5.13232 19.1318 5.04346C19.1657 4.95459 19.2165 4.87842 19.2842 4.81494C19.3392 4.75993 19.409 4.71761 19.4937 4.68799C19.5825 4.65413 19.682 4.63721 19.792 4.63721C19.902 4.63721 19.9993 4.65413 20.084 4.68799C20.1686 4.71761 20.2384 4.75993 20.2935 4.81494C20.3612 4.87419 20.4119 4.94824 20.4458 5.03711C20.4797 5.12598 20.4966 5.22331 20.4966 5.3291C20.4966 5.51953 20.4373 5.67822 20.3188 5.80518C20.2004 5.93213 20.0247 5.99561 19.792 5.99561C19.555 5.99561 19.3773 5.93213 19.2588 5.80518C19.1445 5.67822 19.0874 5.51953 19.0874 5.3291ZM24.5273 14V7.13184H25.5811L25.6636 8.14746C25.7651 8.00358 25.8752 7.8724 25.9937 7.75391C26.1164 7.63118 26.2454 7.52539 26.3809 7.43652C26.584 7.30111 26.804 7.19743 27.041 7.12549C27.2822 7.04932 27.5361 7.00911 27.8027 7.00488C28.1624 7.00488 28.4883 7.05566 28.7803 7.15723C29.0765 7.25879 29.3283 7.41748 29.5356 7.6333C29.743 7.84912 29.9017 8.12419 30.0117 8.4585C30.126 8.78857 30.1831 9.18213 30.1831 9.63916V14H29.0088V9.66455C29.0088 9.35986 28.9749 9.10173 28.9072 8.89014C28.8395 8.67855 28.7401 8.50716 28.6089 8.37598C28.4735 8.24479 28.3084 8.14958 28.1138 8.09033C27.9233 8.03109 27.7033 8.00146 27.4536 8.00146C27.2378 8.00146 27.0368 8.0332 26.8506 8.09668C26.6644 8.15592 26.493 8.23844 26.3364 8.34424C26.2095 8.43734 26.091 8.54525 25.981 8.66797C25.8752 8.79069 25.7821 8.92611 25.7017 9.07422V14H24.5273ZM45.9443 10.4644C45.9443 11.0526 45.8766 11.5752 45.7412 12.0322C45.6058 12.485 45.4111 12.8659 45.1572 13.1748C44.9033 13.488 44.5923 13.7249 44.2241 13.8857C43.856 14.0465 43.4349 14.127 42.9609 14.127C42.4912 14.127 42.0701 14.0487 41.6978 13.8921C41.3254 13.7313 41.0101 13.4922 40.752 13.1748C40.4938 12.8659 40.297 12.485 40.1616 12.0322C40.0262 11.5752 39.9585 11.0526 39.9585 10.4644V8.2998C39.9585 7.71159 40.0262 7.19108 40.1616 6.73828C40.297 6.28125 40.4938 5.89616 40.752 5.58301C41.0059 5.26986 41.3169 5.03288 41.6851 4.87207C42.0575 4.70703 42.4785 4.62451 42.9482 4.62451C43.4222 4.62451 43.8433 4.70703 44.2114 4.87207C44.5838 5.03288 44.8991 5.26986 45.1572 5.58301C45.4111 5.89616 45.6058 6.28125 45.7412 6.73828C45.8766 7.19108 45.9443 7.71159 45.9443 8.2998V10.4644ZM41.1392 10.2295L44.7383 7.46826C44.7044 7.16357 44.6431 6.89486 44.5542 6.66211C44.4696 6.42513 44.3532 6.22835 44.2051 6.07178C44.0612 5.91097 43.8835 5.79036 43.6719 5.70996C43.4645 5.62956 43.2233 5.58936 42.9482 5.58936C42.6689 5.58936 42.4214 5.63379 42.2056 5.72266C41.994 5.80729 41.8141 5.93213 41.666 6.09717C41.4883 6.30452 41.355 6.57324 41.2661 6.90332C41.1815 7.22917 41.1392 7.60791 41.1392 8.03955V9.58838C41.1392 9.69417 41.1392 9.79997 41.1392 9.90576C41.1392 10.0116 41.1392 10.1195 41.1392 10.2295ZM44.7637 10.7119V9.4043C44.7637 9.34082 44.7637 9.22021 44.7637 9.04248C44.7637 8.86051 44.7637 8.71029 44.7637 8.5918L41.1709 11.3403C41.209 11.6493 41.2767 11.9222 41.374 12.1592C41.4714 12.3919 41.5983 12.5845 41.7549 12.7368C41.8988 12.8807 42.0723 12.9907 42.2754 13.0669C42.4785 13.1388 42.707 13.1748 42.9609 13.1748C43.2275 13.1748 43.4645 13.1346 43.6719 13.0542C43.8792 12.9738 44.0549 12.8574 44.1987 12.7051C44.3934 12.4977 44.5352 12.2269 44.624 11.8926C44.7171 11.5583 44.7637 11.1647 44.7637 10.7119ZM51.7588 14H50.5845V6.25586L48.166 7.17627V6.10352L51.6636 4.75781H51.7588V14Z" fill="#696C80"/>
</svg>
