<svg width="160" height="98" viewBox="0 0 160 98" fill="none" xmlns="http://www.w3.org/2000/svg">
<rect x="0.5" y="34.5" width="159" height="63" rx="4.5" stroke="#9747FF" stroke-dasharray="10 5"/>
<path d="M121 59C121 57.8954 121.895 57 123 57H133C134.105 57 135 57.8954 135 59V61C135 62.1046 134.105 63 133 63H123C121.895 63 121 62.1046 121 61V59Z" fill="#BABDCC"/>
<path d="M126 65H130V74C130 75.1046 129.105 76 128 76C126.895 76 126 75.1046 126 74V65Z" fill="#BABDCC"/>
<path d="M124 63H132C132 64.1046 131.105 65 130 65H126C124.895 65 124 64.1046 124 63Z" fill="#12131A"/>
<path d="M123 60C123 59.4477 123.448 59 124 59H132C132.552 59 133 59.4477 133 60C133 60.5523 132.552 61 132 61H124C123.448 61 123 60.5523 123 60Z" fill="#12131A"/>
<path fill-rule="evenodd" clip-rule="evenodd" d="M75 56C73.3431 56 72 57.3431 72 59C72 60.6569 73.3431 62 75 62H76C76 63.1046 76.8954 64 78 64H82C83.1046 64 84 63.1046 84 62H85C86.6569 62 88 60.6569 88 59C88 57.3431 86.6569 56 85 56H75ZM83 60H85C85.5523 60 86 59.5523 86 59C86 58.4477 85.5523 58 85 58H75C74.4477 58 74 58.4477 74 59C74 59.5523 74.4477 60 75 60H77H83Z" fill="#12131A"/>
<path d="M78 67C78 66.4477 78.4477 66 79 66H81C81.5523 66 82 66.4477 82 67V74C82 75.1046 81.1046 76 80 76C78.8954 76 78 75.1046 78 74V67Z" fill="#12131A"/>
<path fill-rule="evenodd" clip-rule="evenodd" d="M29 65C29 64.4477 29.4477 64 30 64H34C34.5523 64 35 64.4477 35 65V73C35 74.6569 33.6569 76 32 76C30.3431 76 29 74.6569 29 73V65ZM31 66V73C31 73.5523 31.4477 74 32 74C32.5523 74 33 73.5523 33 73V66H31Z" fill="#12131A"/>
<path fill-rule="evenodd" clip-rule="evenodd" d="M27 56C25.3431 56 24 57.3431 24 59C24 60.6569 25.3431 62 27 62V63C27 64.6569 28.3431 66 30 66H34C35.6569 66 37 64.6569 37 63V62C38.6569 62 40 60.6569 40 59C40 57.3431 38.6569 56 37 56H27ZM35 62H29V63C29 63.5523 29.4477 64 30 64H34C34.5523 64 35 63.5523 35 63V62ZM27 60H28H36H37C37.5523 60 38 59.5523 38 59C38 58.4477 37.5523 58 37 58H27C26.4477 58 26 58.4477 26 59C26 59.5523 26.4477 60 27 60Z" fill="#12131A"/>
<path d="M4.16406 10.2295H2.31689V14H1.14893V4.75781H3.85938C4.29102 4.76628 4.69727 4.82764 5.07812 4.94189C5.45898 5.05615 5.79329 5.22754 6.08105 5.45605C6.36458 5.68457 6.58675 5.97233 6.74756 6.31934C6.9126 6.66211 6.99512 7.06624 6.99512 7.53174C6.99512 7.83219 6.95068 8.10726 6.86182 8.35693C6.77718 8.60661 6.65869 8.83301 6.50635 9.03613C6.354 9.23926 6.17204 9.41911 5.96045 9.57568C5.74886 9.73226 5.51611 9.86556 5.26221 9.97559L7.22363 13.9238L7.21729 14H5.97949L4.16406 10.2295ZM2.31689 9.26465H3.89111C4.15348 9.26042 4.40104 9.22021 4.63379 9.14404C4.86654 9.06364 5.07178 8.94938 5.24951 8.80127C5.42301 8.65316 5.56055 8.47331 5.66211 8.26172C5.76367 8.0459 5.81445 7.79834 5.81445 7.51904C5.81445 7.22282 5.76579 6.96468 5.66846 6.74463C5.57113 6.52035 5.43571 6.33203 5.26221 6.17969C5.0887 6.03158 4.88135 5.91943 4.64014 5.84326C4.40316 5.76709 4.1429 5.72689 3.85938 5.72266H2.31689V9.26465ZM13.4253 14C13.3787 13.9111 13.3407 13.8011 13.311 13.6699C13.2856 13.5345 13.2666 13.3949 13.2539 13.251C13.1354 13.3695 13.0021 13.4816 12.854 13.5874C12.7101 13.6932 12.5514 13.7863 12.3779 13.8667C12.2002 13.9471 12.0119 14.0106 11.813 14.0571C11.6141 14.1037 11.4025 14.127 11.1782 14.127C10.8143 14.127 10.4842 14.0741 10.188 13.9683C9.896 13.8625 9.64844 13.7186 9.44531 13.5366C9.23796 13.3589 9.07715 13.1473 8.96289 12.9019C8.85286 12.6522 8.79785 12.3835 8.79785 12.0957C8.79785 11.7191 8.87191 11.389 9.02002 11.1055C9.17236 10.8219 9.38607 10.585 9.66113 10.3945C9.9362 10.2083 10.2663 10.0687 10.6514 9.97559C11.0407 9.88249 11.4744 9.83594 11.9526 9.83594H13.2349V9.29639C13.2349 9.08903 13.1968 8.90283 13.1206 8.73779C13.0444 8.57275 12.9365 8.43099 12.7969 8.3125C12.6572 8.19824 12.4858 8.10938 12.2827 8.0459C12.0838 7.98242 11.8595 7.95068 11.6099 7.95068C11.3771 7.95068 11.1676 7.98031 10.9814 8.03955C10.7995 8.0988 10.645 8.17708 10.5181 8.27441C10.3911 8.37174 10.2917 8.48812 10.2197 8.62354C10.152 8.75472 10.1182 8.89225 10.1182 9.03613H8.9375C8.94173 8.78646 9.00521 8.54102 9.12793 8.2998C9.25488 8.05859 9.43685 7.84066 9.67383 7.646C9.90658 7.45557 10.1901 7.30111 10.5244 7.18262C10.863 7.06413 11.2459 7.00488 11.6733 7.00488C12.0627 7.00488 12.4245 7.05355 12.7588 7.15088C13.0931 7.24398 13.383 7.38574 13.6284 7.57617C13.8696 7.77083 14.0601 8.01204 14.1997 8.2998C14.3394 8.58757 14.4092 8.92399 14.4092 9.30908V12.502C14.4092 12.7305 14.4303 12.9738 14.4727 13.2319C14.515 13.4858 14.5742 13.708 14.6504 13.8984V14H13.4253ZM11.3496 13.105C11.5781 13.105 11.7918 13.0754 11.9907 13.0161C12.1896 12.9569 12.3716 12.8786 12.5366 12.7812C12.6974 12.6839 12.8371 12.5739 12.9556 12.4512C13.0741 12.3242 13.1672 12.193 13.2349 12.0576V10.6675H12.1431C11.7368 10.6675 11.3813 10.7035 11.0767 10.7754C10.7762 10.8431 10.5371 10.9489 10.3594 11.0928C10.2324 11.1943 10.1351 11.3149 10.0674 11.4546C10.0039 11.5942 9.97217 11.7529 9.97217 11.9307C9.97217 12.0999 9.99967 12.2565 10.0547 12.4004C10.1139 12.5443 10.2007 12.667 10.3149 12.7686C10.4292 12.8743 10.5731 12.9569 10.7466 13.0161C10.9201 13.0754 11.1211 13.105 11.3496 13.105ZM18.1289 13.0415H22.5024V14H16.6309V13.1367L20.7314 8.10303H16.688V7.13184H22.2739V7.96338L18.1289 13.0415ZM24.1973 10.5024C24.1973 10.0073 24.2692 9.54818 24.4131 9.125C24.557 8.69759 24.7643 8.32731 25.0352 8.01416C25.3018 7.70101 25.6276 7.45557 26.0127 7.27783C26.3978 7.09587 26.8315 7.00488 27.314 7.00488C27.8006 7.00488 28.2365 7.09587 28.6216 7.27783C29.0109 7.45557 29.341 7.70101 29.6118 8.01416C29.8784 8.32731 30.0837 8.69759 30.2275 9.125C30.3714 9.54818 30.4434 10.0073 30.4434 10.5024V10.6421C30.4434 11.1372 30.3714 11.5964 30.2275 12.0195C30.0837 12.4427 29.8784 12.8109 29.6118 13.124C29.341 13.4372 29.013 13.6826 28.6279 13.8604C28.2428 14.0381 27.8091 14.127 27.3267 14.127C26.84 14.127 26.402 14.0381 26.0127 13.8604C25.6276 13.6826 25.3018 13.4372 25.0352 13.124C24.7643 12.8109 24.557 12.4427 24.4131 12.0195C24.2692 11.5964 24.1973 11.1372 24.1973 10.6421V10.5024ZM25.3716 10.6421C25.3716 10.9806 25.4118 11.3044 25.4922 11.6133C25.5726 11.918 25.6953 12.1867 25.8604 12.4194C26.0212 12.6522 26.2243 12.8363 26.4697 12.9717C26.7152 13.1071 27.0008 13.1748 27.3267 13.1748C27.6483 13.1748 27.9297 13.1071 28.1709 12.9717C28.4163 12.8363 28.6216 12.6522 28.7866 12.4194C28.9474 12.1867 29.068 11.918 29.1484 11.6133C29.2288 11.3044 29.269 10.9806 29.269 10.6421V10.5024C29.269 10.1681 29.2267 9.84863 29.1421 9.54395C29.0617 9.23503 28.9411 8.96419 28.7803 8.73145C28.6152 8.4987 28.41 8.31462 28.1646 8.1792C27.9233 8.03955 27.6398 7.96973 27.314 7.96973C26.9881 7.96973 26.7046 8.03955 26.4634 8.1792C26.2222 8.31462 26.0212 8.4987 25.8604 8.73145C25.6953 8.96419 25.5726 9.23503 25.4922 9.54395C25.4118 9.84863 25.3716 10.1681 25.3716 10.5024V10.6421ZM36.8354 7.00488C37.0513 7.00488 37.2756 7.01969 37.5083 7.04932C37.7453 7.07894 37.923 7.11914 38.0415 7.16992L37.8828 8.31885C37.6543 8.26807 37.4364 8.2321 37.229 8.21094C37.0259 8.18555 36.8122 8.17285 36.5879 8.17285C36.3001 8.17285 36.0399 8.20882 35.8071 8.28076C35.5744 8.34847 35.3713 8.45003 35.1978 8.58545C35.0412 8.70394 34.9036 8.84993 34.7852 9.02344C34.6709 9.19271 34.5757 9.38314 34.4995 9.59473V14H33.3188V7.13184H34.436L34.4868 8.05225L34.4932 8.22363C34.7725 7.84701 35.1068 7.55078 35.4961 7.33496C35.8896 7.11491 36.3361 7.00488 36.8354 7.00488Z" fill="#696C80"/>
</svg>
