<svg width="160" height="98" viewBox="0 0 160 98" fill="none" xmlns="http://www.w3.org/2000/svg">
<path d="M4.16406 10.2295H2.31689V14H1.14893V4.75781H3.85938C4.29102 4.76628 4.69727 4.82764 5.07812 4.94189C5.45898 5.05615 5.79329 5.22754 6.08105 5.45605C6.36458 5.68457 6.58675 5.97233 6.74756 6.31934C6.9126 6.66211 6.99512 7.06624 6.99512 7.53174C6.99512 7.83219 6.95068 8.10726 6.86182 8.35693C6.77718 8.60661 6.65869 8.83301 6.50635 9.03613C6.354 9.23926 6.17204 9.41911 5.96045 9.57568C5.74886 9.73226 5.51611 9.86556 5.26221 9.97559L7.22363 13.9238L7.21729 14H5.97949L4.16406 10.2295ZM2.31689 9.26465H3.89111C4.15348 9.26042 4.40104 9.22021 4.63379 9.14404C4.86654 9.06364 5.07178 8.94938 5.24951 8.80127C5.42301 8.65316 5.56055 8.47331 5.66211 8.26172C5.76367 8.0459 5.81445 7.79834 5.81445 7.51904C5.81445 7.22282 5.76579 6.96468 5.66846 6.74463C5.57113 6.52035 5.43571 6.33203 5.26221 6.17969C5.0887 6.03158 4.88135 5.91943 4.64014 5.84326C4.40316 5.76709 4.1429 5.72689 3.85938 5.72266H2.31689V9.26465ZM11.9463 14.127C11.4639 14.127 11.0195 14.0444 10.6133 13.8794C10.2113 13.7144 9.86637 13.4837 9.57861 13.1875C9.29085 12.8913 9.06657 12.54 8.90576 12.1338C8.74495 11.7275 8.66455 11.2853 8.66455 10.8071V10.5405C8.66455 9.98617 8.75342 9.49105 8.93115 9.05518C9.10889 8.61507 9.34587 8.24268 9.64209 7.93799C9.93408 7.63753 10.2663 7.4069 10.6387 7.24609C11.0153 7.08529 11.4004 7.00488 11.7939 7.00488C12.2891 7.00488 12.7207 7.09163 13.0889 7.26514C13.4613 7.43441 13.7702 7.66927 14.0156 7.96973C14.2611 8.27441 14.443 8.632 14.5615 9.04248C14.6842 9.45296 14.7456 9.8973 14.7456 10.3755V10.9023H9.83887V10.9468C9.86849 11.2811 9.93408 11.5752 10.0356 11.8291C10.1414 12.083 10.2853 12.3073 10.4673 12.502C10.6535 12.7093 10.8778 12.8722 11.1401 12.9907C11.4025 13.1092 11.6924 13.1685 12.0098 13.1685C12.4287 13.1685 12.8011 13.0838 13.127 12.9146C13.4528 12.7453 13.7236 12.521 13.9395 12.2417L14.6567 12.8003C14.4282 13.1473 14.0854 13.4562 13.6284 13.7271C13.1756 13.9937 12.6149 14.127 11.9463 14.127ZM11.7939 7.96973C11.557 7.96973 11.3327 8.01416 11.1211 8.10303C10.9095 8.18766 10.7191 8.3125 10.5498 8.47754C10.3805 8.64681 10.2367 8.85417 10.1182 9.09961C10.0039 9.34082 9.9235 9.62012 9.87695 9.9375H13.5713V9.88037C13.5713 9.66878 13.5311 9.44238 13.4507 9.20117C13.3703 8.95573 13.2581 8.74414 13.1143 8.56641C12.9704 8.38867 12.7884 8.24479 12.5684 8.13477C12.3525 8.02474 12.0944 7.96973 11.7939 7.96973ZM19.646 13.1748C19.8576 13.1748 20.0628 13.141 20.2617 13.0732C20.4648 13.0055 20.6447 12.9103 20.8013 12.7876C20.9578 12.6691 21.0827 12.5295 21.1758 12.3687C21.2731 12.2036 21.3239 12.0259 21.3281 11.8354H22.439C22.4347 12.1401 22.3543 12.4321 22.1978 12.7114C22.0454 12.9865 21.8402 13.2277 21.582 13.4351C21.3239 13.6466 21.0277 13.8159 20.6934 13.9429C20.359 14.0656 20.0099 14.127 19.646 14.127C19.1255 14.127 18.6706 14.0339 18.2812 13.8477C17.8919 13.6615 17.5682 13.4097 17.3101 13.0923C17.0477 12.7791 16.8509 12.4173 16.7197 12.0068C16.5885 11.5921 16.5229 11.1562 16.5229 10.6992V10.4326C16.5229 9.97982 16.5885 9.54606 16.7197 9.13135C16.8509 8.71663 17.0477 8.35059 17.3101 8.0332C17.5682 7.72005 17.8919 7.47038 18.2812 7.28418C18.6706 7.09798 19.1255 7.00488 19.646 7.00488C20.0522 7.00488 20.4246 7.07048 20.7632 7.20166C21.106 7.32861 21.4022 7.50212 21.6519 7.72217C21.8973 7.94645 22.0898 8.21094 22.2295 8.51562C22.3691 8.82031 22.439 9.14616 22.439 9.49316H21.3281C21.3239 9.28581 21.2773 9.09115 21.1885 8.90918C21.1038 8.72298 20.9875 8.56006 20.8394 8.42041C20.6912 8.28076 20.5135 8.17074 20.3062 8.09033C20.103 8.00993 19.883 7.96973 19.646 7.96973C19.2821 7.96973 18.9753 8.04378 18.7256 8.19189C18.4801 8.33577 18.2812 8.52409 18.1289 8.75684C17.9766 8.99382 17.8665 9.2583 17.7988 9.55029C17.7354 9.84229 17.7036 10.1364 17.7036 10.4326V10.6992C17.7036 10.9997 17.7354 11.298 17.7988 11.5942C17.8665 11.8862 17.9766 12.1486 18.1289 12.3813C18.277 12.6183 18.4738 12.8109 18.7192 12.959C18.9689 13.1029 19.2778 13.1748 19.646 13.1748ZM27.3076 5.46875V7.13184H29.9229V8.03955H27.3076V11.772C27.3076 12.0386 27.3415 12.2586 27.4092 12.4321C27.4769 12.6056 27.57 12.7432 27.6885 12.8447C27.807 12.9505 27.9424 13.0246 28.0947 13.0669C28.2513 13.1092 28.4163 13.1304 28.5898 13.1304C28.7168 13.1304 28.848 13.124 28.9834 13.1113C29.1188 13.0944 29.2521 13.0754 29.3833 13.0542C29.5103 13.033 29.6287 13.0119 29.7388 12.9907C29.853 12.9653 29.9461 12.9442 30.0181 12.9272L30.1831 13.7588C30.0858 13.818 29.9673 13.8709 29.8276 13.9175C29.688 13.9598 29.5356 13.9958 29.3706 14.0254C29.2056 14.0592 29.0299 14.0846 28.8438 14.1016C28.6618 14.1185 28.4798 14.127 28.2979 14.127C27.9932 14.127 27.7075 14.0846 27.4409 14C27.1785 13.9111 26.95 13.7715 26.7554 13.5811C26.5607 13.3949 26.4062 13.1536 26.292 12.8574C26.182 12.557 26.127 12.1951 26.127 11.772V8.03955H24.3242V7.13184H26.127V5.46875H27.3076ZM36.8481 14C36.8016 13.9111 36.7635 13.8011 36.7339 13.6699C36.7085 13.5345 36.6895 13.3949 36.6768 13.251C36.5583 13.3695 36.425 13.4816 36.2769 13.5874C36.133 13.6932 35.9743 13.7863 35.8008 13.8667C35.623 13.9471 35.4347 14.0106 35.2358 14.0571C35.0369 14.1037 34.8254 14.127 34.6011 14.127C34.2371 14.127 33.9071 14.0741 33.6108 13.9683C33.3188 13.8625 33.0713 13.7186 32.8682 13.5366C32.6608 13.3589 32.5 13.1473 32.3857 12.9019C32.2757 12.6522 32.2207 12.3835 32.2207 12.0957C32.2207 11.7191 32.2948 11.389 32.4429 11.1055C32.5952 10.8219 32.8089 10.585 33.084 10.3945C33.359 10.2083 33.6891 10.0687 34.0742 9.97559C34.4635 9.88249 34.8973 9.83594 35.3755 9.83594H36.6577V9.29639C36.6577 9.08903 36.6196 8.90283 36.5435 8.73779C36.4673 8.57275 36.3594 8.43099 36.2197 8.3125C36.0801 8.19824 35.9087 8.10938 35.7056 8.0459C35.5067 7.98242 35.2824 7.95068 35.0327 7.95068C34.8 7.95068 34.5905 7.98031 34.4043 8.03955C34.2223 8.0988 34.0679 8.17708 33.9409 8.27441C33.814 8.37174 33.7145 8.48812 33.6426 8.62354C33.5749 8.75472 33.541 8.89225 33.541 9.03613H32.3604C32.3646 8.78646 32.4281 8.54102 32.5508 8.2998C32.6777 8.05859 32.8597 7.84066 33.0967 7.646C33.3294 7.45557 33.613 7.30111 33.9473 7.18262C34.2858 7.06413 34.6688 7.00488 35.0962 7.00488C35.4855 7.00488 35.8473 7.05355 36.1816 7.15088C36.516 7.24398 36.8058 7.38574 37.0513 7.57617C37.2925 7.77083 37.4829 8.01204 37.6226 8.2998C37.7622 8.58757 37.832 8.92399 37.832 9.30908V12.502C37.832 12.7305 37.8532 12.9738 37.8955 13.2319C37.9378 13.4858 37.9971 13.708 38.0732 13.8984V14H36.8481ZM34.7725 13.105C35.001 13.105 35.2147 13.0754 35.4136 13.0161C35.6125 12.9569 35.7944 12.8786 35.9595 12.7812C36.1203 12.6839 36.2599 12.5739 36.3784 12.4512C36.4969 12.3242 36.59 12.193 36.6577 12.0576V10.6675H35.5659C35.1597 10.6675 34.8042 10.7035 34.4995 10.7754C34.1991 10.8431 33.96 10.9489 33.7822 11.0928C33.6553 11.1943 33.5579 11.3149 33.4902 11.4546C33.4268 11.5942 33.395 11.7529 33.395 11.9307C33.395 12.0999 33.4225 12.2565 33.4775 12.4004C33.5368 12.5443 33.6235 12.667 33.7378 12.7686C33.8521 12.8743 33.9959 12.9569 34.1694 13.0161C34.3429 13.0754 34.5439 13.105 34.7725 13.105ZM40.1426 14V7.13184H41.1963L41.2788 8.14746C41.3804 8.00358 41.4904 7.8724 41.6089 7.75391C41.7316 7.63118 41.8607 7.52539 41.9961 7.43652C42.1992 7.30111 42.4193 7.19743 42.6562 7.12549C42.8975 7.04932 43.1514 7.00911 43.418 7.00488C43.7777 7.00488 44.1035 7.05566 44.3955 7.15723C44.6917 7.25879 44.9435 7.41748 45.1509 7.6333C45.3582 7.84912 45.5169 8.12419 45.627 8.4585C45.7412 8.78857 45.7983 9.18213 45.7983 9.63916V14H44.624V9.66455C44.624 9.35986 44.5902 9.10173 44.5225 8.89014C44.4548 8.67855 44.3553 8.50716 44.2241 8.37598C44.0887 8.24479 43.9237 8.14958 43.729 8.09033C43.5386 8.03109 43.3185 8.00146 43.0688 8.00146C42.853 8.00146 42.652 8.0332 42.4658 8.09668C42.2796 8.15592 42.1082 8.23844 41.9517 8.34424C41.8247 8.43734 41.7062 8.54525 41.5962 8.66797C41.4904 8.79069 41.3973 8.92611 41.3169 9.07422V14H40.1426ZM47.7344 10.5088C47.7344 9.99674 47.7957 9.52702 47.9185 9.09961C48.0454 8.66797 48.2274 8.29769 48.4644 7.98877C48.7013 7.67985 48.9891 7.43864 49.3276 7.26514C49.6662 7.09163 50.0492 7.00488 50.4766 7.00488C50.7516 7.00488 51.0034 7.03662 51.2319 7.1001C51.4647 7.16357 51.6742 7.25667 51.8604 7.37939C51.9619 7.44287 52.0571 7.51693 52.146 7.60156C52.2391 7.6862 52.3258 7.7793 52.4062 7.88086L52.4634 7.13184H53.5298V13.854C53.5298 14.3068 53.4578 14.7088 53.314 15.0601C53.1743 15.4113 52.9775 15.7096 52.7236 15.9551C52.4655 16.2005 52.1587 16.3867 51.8032 16.5137C51.4478 16.6406 51.0542 16.7041 50.6226 16.7041C50.4448 16.7041 50.2417 16.6829 50.0132 16.6406C49.7847 16.6025 49.554 16.5369 49.3213 16.4438C49.0843 16.355 48.8558 16.2344 48.6357 16.082C48.4199 15.9297 48.2337 15.7414 48.0771 15.5171L48.6865 14.8125C48.8304 14.986 48.9785 15.132 49.1309 15.2505C49.2832 15.3732 49.4377 15.4705 49.5942 15.5425C49.7508 15.6144 49.9074 15.6652 50.064 15.6948C50.2205 15.7287 50.3771 15.7456 50.5337 15.7456C50.813 15.7456 51.0648 15.7054 51.2891 15.625C51.5133 15.5446 51.7059 15.4261 51.8667 15.2695C52.0233 15.1172 52.1439 14.9268 52.2285 14.6982C52.3132 14.4697 52.3555 14.2074 52.3555 13.9111V13.3208C52.2666 13.4224 52.1714 13.5155 52.0698 13.6001C51.9725 13.6847 51.8667 13.7588 51.7524 13.8223C51.5747 13.9196 51.3779 13.9937 51.1621 14.0444C50.9463 14.0994 50.7135 14.127 50.4639 14.127C50.0449 14.127 49.6662 14.0381 49.3276 13.8604C48.9891 13.6826 48.7035 13.4372 48.4707 13.124C48.2337 12.8109 48.0518 12.4427 47.9248 12.0195C47.7979 11.5921 47.7344 11.133 47.7344 10.6421V10.5088ZM48.9087 10.6421C48.9087 10.9764 48.9425 11.2938 49.0103 11.5942C49.0822 11.8947 49.1943 12.1592 49.3467 12.3877C49.4948 12.6162 49.6852 12.7982 49.918 12.9336C50.1507 13.0648 50.43 13.1304 50.7559 13.1304C50.959 13.1304 51.141 13.1071 51.3018 13.0605C51.4668 13.0098 51.6149 12.9399 51.7461 12.8511C51.873 12.7622 51.9873 12.6564 52.0889 12.5337C52.1904 12.411 52.2793 12.2756 52.3555 12.1274V8.979C52.2793 8.83512 52.1904 8.70394 52.0889 8.58545C51.9873 8.46696 51.8709 8.36328 51.7397 8.27441C51.6086 8.18978 51.4626 8.12419 51.3018 8.07764C51.141 8.02686 50.9632 8.00146 50.7686 8.00146C50.4385 8.00146 50.1549 8.06917 49.918 8.20459C49.6852 8.34001 49.4948 8.52197 49.3467 8.75049C49.1943 8.98324 49.0822 9.25195 49.0103 9.55664C48.9425 9.8571 48.9087 10.1745 48.9087 10.5088V10.6421ZM55.9419 4.25H59.4521V12.9844H61.6929V14H55.9419V12.9844H58.2778V5.27197H55.9419V4.25ZM66.5996 14.127C66.1172 14.127 65.6729 14.0444 65.2666 13.8794C64.8646 13.7144 64.5197 13.4837 64.2319 13.1875C63.9442 12.8913 63.7199 12.54 63.5591 12.1338C63.3983 11.7275 63.3179 11.2853 63.3179 10.8071V10.5405C63.3179 9.98617 63.4067 9.49105 63.5845 9.05518C63.7622 8.61507 63.9992 8.24268 64.2954 7.93799C64.5874 7.63753 64.9196 7.4069 65.292 7.24609C65.6686 7.08529 66.0537 7.00488 66.4473 7.00488C66.9424 7.00488 67.374 7.09163 67.7422 7.26514C68.1146 7.43441 68.4235 7.66927 68.6689 7.96973C68.9144 8.27441 69.0964 8.632 69.2148 9.04248C69.3376 9.45296 69.3989 9.8973 69.3989 10.3755V10.9023H64.4922V10.9468C64.5218 11.2811 64.5874 11.5752 64.689 11.8291C64.7948 12.083 64.9386 12.3073 65.1206 12.502C65.3068 12.7093 65.5311 12.8722 65.7935 12.9907C66.0558 13.1092 66.3457 13.1685 66.6631 13.1685C67.082 13.1685 67.4544 13.0838 67.7803 12.9146C68.1061 12.7453 68.377 12.521 68.5928 12.2417L69.3101 12.8003C69.0815 13.1473 68.7388 13.4562 68.2817 13.7271C67.8289 13.9937 67.2682 14.127 66.5996 14.127ZM66.4473 7.96973C66.2103 7.96973 65.986 8.01416 65.7744 8.10303C65.5628 8.18766 65.3724 8.3125 65.2031 8.47754C65.0339 8.64681 64.89 8.85417 64.7715 9.09961C64.6572 9.34082 64.5768 9.62012 64.5303 9.9375H68.2246V9.88037C68.2246 9.66878 68.1844 9.44238 68.104 9.20117C68.0236 8.95573 67.9115 8.74414 67.7676 8.56641C67.6237 8.38867 67.4417 8.24479 67.2217 8.13477C67.0059 8.02474 66.7477 7.96973 66.4473 7.96973ZM84.0176 11.6641C84.0176 11.3805 83.952 11.1414 83.8208 10.9468C83.6938 10.7521 83.5288 10.5871 83.3257 10.4517C83.1226 10.3205 82.8983 10.2104 82.6528 10.1216C82.4116 10.0327 82.1789 9.95231 81.9546 9.88037C81.6287 9.77458 81.2965 9.64762 80.958 9.49951C80.6237 9.34717 80.319 9.1652 80.0439 8.95361C79.7646 8.73779 79.5361 8.48389 79.3584 8.19189C79.1849 7.89567 79.0981 7.54867 79.0981 7.15088C79.0981 6.75309 79.1849 6.39762 79.3584 6.08447C79.5361 5.77132 79.7668 5.50684 80.0503 5.29102C80.3338 5.0752 80.6554 4.91227 81.0151 4.80225C81.3748 4.68799 81.7367 4.63086 82.1006 4.63086C82.5026 4.63086 82.8898 4.69857 83.2622 4.83398C83.6346 4.96517 83.9647 5.15137 84.2524 5.39258C84.5402 5.63379 84.7708 5.92578 84.9443 6.26855C85.1178 6.61133 85.2088 6.9943 85.2173 7.41748H84.0112C83.9774 7.15088 83.9118 6.90967 83.8145 6.69385C83.7171 6.4738 83.5881 6.28548 83.4272 6.12891C83.2664 5.97233 83.0739 5.85173 82.8496 5.76709C82.6296 5.67822 82.3799 5.63379 82.1006 5.63379C81.8763 5.63379 81.6562 5.66553 81.4404 5.729C81.2288 5.79248 81.0405 5.8877 80.8755 6.01465C80.7062 6.1416 80.5708 6.29818 80.4692 6.48438C80.3719 6.67057 80.3232 6.88639 80.3232 7.13184C80.3275 7.39844 80.3952 7.62484 80.5264 7.81104C80.6576 7.993 80.8247 8.14746 81.0278 8.27441C81.2267 8.40137 81.4425 8.50716 81.6753 8.5918C81.9123 8.67643 82.1344 8.75049 82.3418 8.81396C82.6846 8.91976 83.0273 9.04883 83.3701 9.20117C83.7129 9.34928 84.026 9.53971 84.3096 9.77246C84.5889 9.98828 84.8132 10.2528 84.9824 10.5659C85.1559 10.8791 85.2427 11.2409 85.2427 11.6514C85.2427 12.0661 85.1496 12.4279 84.9634 12.7368C84.7814 13.0457 84.5444 13.3018 84.2524 13.5049C83.9604 13.7122 83.6304 13.8688 83.2622 13.9746C82.894 14.0762 82.5259 14.127 82.1577 14.127C81.7176 14.127 81.2839 14.0529 80.8564 13.9048C80.4333 13.7567 80.0651 13.543 79.752 13.2637C79.4727 13.0225 79.2505 12.741 79.0854 12.4194C78.9246 12.0936 78.8379 11.7318 78.8252 11.334H80.0249C80.063 11.6217 80.1413 11.8778 80.2598 12.1021C80.3783 12.3221 80.5306 12.5083 80.7168 12.6606C80.903 12.8172 81.1167 12.9357 81.3579 13.0161C81.6034 13.0923 81.87 13.1304 82.1577 13.1304C82.3862 13.1304 82.6105 13.1029 82.8306 13.0479C83.0549 12.9886 83.2537 12.8976 83.4272 12.7749C83.6007 12.6564 83.7425 12.5062 83.8525 12.3242C83.9626 12.138 84.0176 11.918 84.0176 11.6641ZM89.7686 5.46875V7.13184H92.3838V8.03955H89.7686V11.772C89.7686 12.0386 89.8024 12.2586 89.8701 12.4321C89.9378 12.6056 90.0309 12.7432 90.1494 12.8447C90.2679 12.9505 90.4033 13.0246 90.5557 13.0669C90.7122 13.1092 90.8773 13.1304 91.0508 13.1304C91.1777 13.1304 91.3089 13.124 91.4443 13.1113C91.5798 13.0944 91.7131 13.0754 91.8442 13.0542C91.9712 13.033 92.0897 13.0119 92.1997 12.9907C92.314 12.9653 92.4071 12.9442 92.479 12.9272L92.644 13.7588C92.5467 13.818 92.4282 13.8709 92.2886 13.9175C92.1489 13.9598 91.9966 13.9958 91.8315 14.0254C91.6665 14.0592 91.4909 14.0846 91.3047 14.1016C91.1227 14.1185 90.9408 14.127 90.7588 14.127C90.4541 14.127 90.1685 14.0846 89.9019 14C89.6395 13.9111 89.411 13.7715 89.2163 13.5811C89.0216 13.3949 88.8672 13.1536 88.7529 12.8574C88.6429 12.557 88.5879 12.1951 88.5879 11.772V8.03955H86.7852V7.13184H88.5879V5.46875H89.7686ZM99.3091 14C99.2625 13.9111 99.2244 13.8011 99.1948 13.6699C99.1694 13.5345 99.1504 13.3949 99.1377 13.251C99.0192 13.3695 98.8859 13.4816 98.7378 13.5874C98.5939 13.6932 98.4352 13.7863 98.2617 13.8667C98.084 13.9471 97.8957 14.0106 97.6968 14.0571C97.4979 14.1037 97.2863 14.127 97.062 14.127C96.6981 14.127 96.368 14.0741 96.0718 13.9683C95.7798 13.8625 95.5322 13.7186 95.3291 13.5366C95.1217 13.3589 94.9609 13.1473 94.8467 12.9019C94.7367 12.6522 94.6816 12.3835 94.6816 12.0957C94.6816 11.7191 94.7557 11.389 94.9038 11.1055C95.0562 10.8219 95.2699 10.585 95.5449 10.3945C95.82 10.2083 96.1501 10.0687 96.5352 9.97559C96.9245 9.88249 97.3582 9.83594 97.8364 9.83594H99.1187V9.29639C99.1187 9.08903 99.0806 8.90283 99.0044 8.73779C98.9282 8.57275 98.8203 8.43099 98.6807 8.3125C98.541 8.19824 98.3696 8.10938 98.1665 8.0459C97.9676 7.98242 97.7433 7.95068 97.4937 7.95068C97.2609 7.95068 97.0514 7.98031 96.8652 8.03955C96.6833 8.0988 96.5288 8.17708 96.4019 8.27441C96.2749 8.37174 96.1755 8.48812 96.1035 8.62354C96.0358 8.75472 96.002 8.89225 96.002 9.03613H94.8213C94.8255 8.78646 94.889 8.54102 95.0117 8.2998C95.1387 8.05859 95.3206 7.84066 95.5576 7.646C95.7904 7.45557 96.0739 7.30111 96.4082 7.18262C96.7467 7.06413 97.1297 7.00488 97.5571 7.00488C97.9465 7.00488 98.3083 7.05355 98.6426 7.15088C98.9769 7.24398 99.2668 7.38574 99.5122 7.57617C99.7534 7.77083 99.9438 8.01204 100.083 8.2998C100.223 8.58757 100.293 8.92399 100.293 9.30908V12.502C100.293 12.7305 100.314 12.9738 100.356 13.2319C100.399 13.4858 100.458 13.708 100.534 13.8984V14H99.3091ZM97.2334 13.105C97.4619 13.105 97.6756 13.0754 97.8745 13.0161C98.0734 12.9569 98.2554 12.8786 98.4204 12.7812C98.5812 12.6839 98.7209 12.5739 98.8394 12.4512C98.9578 12.3242 99.0509 12.193 99.1187 12.0576V10.6675H98.0269C97.6206 10.6675 97.2651 10.7035 96.9604 10.7754C96.66 10.8431 96.4209 10.9489 96.2432 11.0928C96.1162 11.1943 96.0189 11.3149 95.9512 11.4546C95.8877 11.5942 95.856 11.7529 95.856 11.9307C95.856 12.0999 95.8835 12.2565 95.9385 12.4004C95.9977 12.5443 96.0845 12.667 96.1987 12.7686C96.313 12.8743 96.4569 12.9569 96.6304 13.0161C96.8039 13.0754 97.0049 13.105 97.2334 13.105ZM105.53 13.1748C105.741 13.1748 105.947 13.141 106.146 13.0732C106.349 13.0055 106.528 12.9103 106.685 12.7876C106.842 12.6691 106.966 12.5295 107.06 12.3687C107.157 12.2036 107.208 12.0259 107.212 11.8354H108.323C108.319 12.1401 108.238 12.4321 108.082 12.7114C107.929 12.9865 107.724 13.2277 107.466 13.4351C107.208 13.6466 106.911 13.8159 106.577 13.9429C106.243 14.0656 105.894 14.127 105.53 14.127C105.009 14.127 104.554 14.0339 104.165 13.8477C103.776 13.6615 103.452 13.4097 103.194 13.0923C102.931 12.7791 102.735 12.4173 102.604 12.0068C102.472 11.5921 102.407 11.1562 102.407 10.6992V10.4326C102.407 9.97982 102.472 9.54606 102.604 9.13135C102.735 8.71663 102.931 8.35059 103.194 8.0332C103.452 7.72005 103.776 7.47038 104.165 7.28418C104.554 7.09798 105.009 7.00488 105.53 7.00488C105.936 7.00488 106.308 7.07048 106.647 7.20166C106.99 7.32861 107.286 7.50212 107.536 7.72217C107.781 7.94645 107.974 8.21094 108.113 8.51562C108.253 8.82031 108.323 9.14616 108.323 9.49316H107.212C107.208 9.28581 107.161 9.09115 107.072 8.90918C106.988 8.72298 106.871 8.56006 106.723 8.42041C106.575 8.28076 106.397 8.17074 106.19 8.09033C105.987 8.00993 105.767 7.96973 105.53 7.96973C105.166 7.96973 104.859 8.04378 104.609 8.19189C104.364 8.33577 104.165 8.52409 104.013 8.75684C103.86 8.99382 103.75 9.2583 103.683 9.55029C103.619 9.84229 103.587 10.1364 103.587 10.4326V10.6992C103.587 10.9997 103.619 11.298 103.683 11.5942C103.75 11.8862 103.86 12.1486 104.013 12.3813C104.161 12.6183 104.358 12.8109 104.603 12.959C104.853 13.1029 105.162 13.1748 105.53 13.1748ZM112.468 10.7944L111.604 11.626V14H110.424V4.25H111.604V10.2168L112.373 9.3916L114.626 7.13184H116.054L113.274 9.99463L116.479 14H114.988L112.468 10.7944ZM127.201 8.15381C127.294 8.01416 127.397 7.88721 127.512 7.77295C127.626 7.65446 127.747 7.55078 127.874 7.46191C128.077 7.3138 128.299 7.20166 128.54 7.12549C128.785 7.04932 129.046 7.00911 129.321 7.00488C129.681 7.00488 130.006 7.05778 130.298 7.16357C130.595 7.26514 130.846 7.42594 131.054 7.646C131.261 7.86605 131.42 8.14535 131.53 8.48389C131.644 8.8182 131.701 9.21598 131.701 9.67725V14H130.527V9.66455C130.527 9.39372 130.495 9.15674 130.432 8.95361C130.368 8.74626 130.275 8.57487 130.152 8.43945C130.021 8.29134 129.856 8.18132 129.657 8.10938C129.458 8.0332 129.23 7.99723 128.972 8.00146C128.76 8.00146 128.559 8.03109 128.369 8.09033C128.178 8.14958 128.003 8.23421 127.842 8.34424C127.715 8.42887 127.596 8.52832 127.486 8.64258C127.381 8.7526 127.285 8.87533 127.201 9.01074V14H126.026V4.25H127.201V8.15381ZM138.334 7.00488C138.55 7.00488 138.775 7.01969 139.007 7.04932C139.244 7.07894 139.422 7.11914 139.541 7.16992L139.382 8.31885C139.153 8.26807 138.935 8.2321 138.728 8.21094C138.525 8.18555 138.311 8.17285 138.087 8.17285C137.799 8.17285 137.539 8.20882 137.306 8.28076C137.073 8.34847 136.87 8.45003 136.697 8.58545C136.54 8.70394 136.403 8.84993 136.284 9.02344C136.17 9.19271 136.075 9.38314 135.999 9.59473V14H134.818V7.13184H135.935L135.986 8.05225L135.992 8.22363C136.271 7.84701 136.606 7.55078 136.995 7.33496C137.389 7.11491 137.835 7.00488 138.334 7.00488ZM146.777 10.439H141.921V9.47412H146.777V10.439ZM5.61768 31C5.57113 30.9111 5.53304 30.8011 5.50342 30.6699C5.47803 30.5345 5.45898 30.3949 5.44629 30.251C5.3278 30.3695 5.1945 30.4816 5.04639 30.5874C4.90251 30.6932 4.74382 30.7863 4.57031 30.8667C4.39258 30.9471 4.20426 31.0106 4.00537 31.0571C3.80648 31.1037 3.59489 31.127 3.37061 31.127C3.00667 31.127 2.6766 31.0741 2.38037 30.9683C2.08838 30.8625 1.84082 30.7186 1.6377 30.5366C1.43034 30.3589 1.26953 30.1473 1.15527 29.9019C1.04525 29.6522 0.990234 29.3835 0.990234 29.0957C0.990234 28.7191 1.06429 28.389 1.2124 28.1055C1.36475 27.8219 1.57845 27.585 1.85352 27.3945C2.12858 27.2083 2.45866 27.0687 2.84375 26.9756C3.23307 26.8825 3.66683 26.8359 4.14502 26.8359H5.42725V26.2964C5.42725 26.089 5.38916 25.9028 5.31299 25.7378C5.23682 25.5728 5.12891 25.431 4.98926 25.3125C4.84961 25.1982 4.67822 25.1094 4.4751 25.0459C4.2762 24.9824 4.05192 24.9507 3.80225 24.9507C3.5695 24.9507 3.36003 24.9803 3.17383 25.0396C2.99186 25.0988 2.8374 25.1771 2.71045 25.2744C2.5835 25.3717 2.48405 25.4881 2.41211 25.6235C2.3444 25.7547 2.31055 25.8923 2.31055 26.0361H1.12988C1.13411 25.7865 1.19759 25.541 1.32031 25.2998C1.44727 25.0586 1.62923 24.8407 1.86621 24.646C2.09896 24.4556 2.38249 24.3011 2.7168 24.1826C3.05534 24.0641 3.43831 24.0049 3.86572 24.0049C4.25505 24.0049 4.61686 24.0535 4.95117 24.1509C5.28548 24.244 5.57536 24.3857 5.8208 24.5762C6.06201 24.7708 6.25244 25.012 6.39209 25.2998C6.53174 25.5876 6.60156 25.924 6.60156 26.3091V29.502C6.60156 29.7305 6.62272 29.9738 6.66504 30.2319C6.70736 30.4858 6.7666 30.708 6.84277 30.8984V31H5.61768ZM3.54199 30.105C3.77051 30.105 3.98421 30.0754 4.18311 30.0161C4.382 29.9569 4.56396 29.8786 4.729 29.7812C4.88981 29.6839 5.02946 29.5739 5.14795 29.4512C5.26644 29.3242 5.35954 29.193 5.42725 29.0576V27.6675H4.33545C3.9292 27.6675 3.57373 27.7035 3.26904 27.7754C2.96859 27.8431 2.72949 27.9489 2.55176 28.0928C2.4248 28.1943 2.32747 28.3149 2.25977 28.4546C2.19629 28.5942 2.16455 28.7529 2.16455 28.9307C2.16455 29.0999 2.19206 29.2565 2.24707 29.4004C2.30632 29.5443 2.39307 29.667 2.50732 29.7686C2.62158 29.8743 2.76546 29.9569 2.93896 30.0161C3.11247 30.0754 3.31348 30.105 3.54199 30.105ZM9.09619 21.25H12.6064V29.9844H14.8472V31H9.09619V29.9844H11.4321V22.272H9.09619V21.25Z" fill="#696C80"/>
<rect x="0.5" y="34.5" width="159" height="63" rx="4.5" stroke="#9747FF" stroke-dasharray="10 5"/>
<path d="M121.568 65C121.316 65 121.07 64.9999 120.862 65.017C120.633 65.0356 120.363 65.0797 120.092 65.218C119.716 65.4097 119.41 65.7157 119.218 66.092C119.08 66.3634 119.036 66.6332 119.017 66.8618C119 67.0699 119 67.3157 119 67.5681L119 72.4319C119 72.6843 119 72.9301 119.017 73.1382C119.036 73.3668 119.08 73.6366 119.218 73.908C119.41 74.2843 119.716 74.5903 120.092 74.782C120.363 74.9203 120.633 74.9644 120.862 74.9831C121.07 75.0001 121.316 75 121.568 75H134.432C134.684 75 134.93 75.0001 135.138 74.9831C135.367 74.9644 135.637 74.9203 135.908 74.782C136.284 74.5903 136.59 74.2843 136.782 73.908C136.92 73.6366 136.964 73.3668 136.983 73.1382C137 72.9301 137 72.6844 137 72.432V67.5681C137 67.3158 137 67.0699 136.983 66.8618C136.964 66.6332 136.92 66.3634 136.782 66.092C136.59 65.7157 136.284 65.4097 135.908 65.218C135.637 65.0797 135.367 65.0356 135.138 65.017C134.93 64.9999 134.684 65 134.432 65L121.568 65Z" fill="#BABDCC"/>
<path d="M121 62C121 61.4477 121.448 61 122 61H134C134.552 61 135 61.4477 135 62C135 62.5523 134.552 63 134 63H122C121.448 63 121 62.5523 121 62Z" fill="#12131A"/>
<path d="M123 58C123 57.4477 123.448 57 124 57H132C132.552 57 133 57.4477 133 58C133 58.5523 132.552 59 132 59H124C123.448 59 123 58.5523 123 58Z" fill="#12131A"/>
<path d="M73.5681 65C73.3157 65 73.0699 64.9999 72.8618 65.017C72.6332 65.0356 72.3634 65.0797 72.092 65.218C71.7157 65.4097 71.4097 65.7157 71.218 66.092C71.0797 66.3634 71.0356 66.6332 71.017 66.8618C70.9999 67.0699 71 67.3157 71 67.5681L71 72.4319C71 72.6843 70.9999 72.9301 71.017 73.1382C71.0356 73.3668 71.0797 73.6366 71.218 73.908C71.4097 74.2843 71.7157 74.5903 72.092 74.782C72.3634 74.9203 72.6332 74.9644 72.8618 74.9831C73.0699 75.0001 73.3157 75 73.5681 75H86.4319C86.6843 75 86.9301 75.0001 87.1382 74.9831C87.3668 74.9644 87.6366 74.9203 87.908 74.782C88.2843 74.5903 88.5903 74.2843 88.782 73.908C88.9203 73.6366 88.9644 73.3668 88.9831 73.1382C89.0001 72.9301 89 72.6844 89 72.432V67.5681C89 67.3158 89.0001 67.0699 88.9831 66.8618C88.9644 66.6332 88.9203 66.3634 88.782 66.092C88.5903 65.7157 88.2843 65.4097 87.908 65.218C87.6366 65.0797 87.3668 65.0356 87.1382 65.017C86.9301 64.9999 86.6843 65 86.4319 65L73.5681 65Z" fill="#12131A"/>
<path d="M73 62C73 61.4477 73.4477 61 74 61H86C86.5523 61 87 61.4477 87 62C87 62.5523 86.5523 63 86 63H74C73.4477 63 73 62.5523 73 62Z" fill="#12131A"/>
<path d="M75 58C75 57.4477 75.4477 57 76 57H84C84.5523 57 85 57.4477 85 58C85 58.5523 84.5523 59 84 59H76C75.4477 59 75 58.5523 75 58Z" fill="#12131A"/>
<path fill-rule="evenodd" clip-rule="evenodd" d="M27.1615 65H36.8385C37.3657 65 37.8205 65 38.195 65.0306C38.5904 65.0629 38.9836 65.1342 39.362 65.327C39.9265 65.6146 40.3854 66.0735 40.673 66.638C40.8658 67.0164 40.9371 67.4096 40.9694 67.805C41 68.1795 41 68.6343 41 69.1614V70.8386C41 71.3657 41 71.8205 40.9694 72.195C40.9371 72.5904 40.8658 72.9836 40.673 73.362C40.3854 73.9265 39.9265 74.3854 39.362 74.673C38.9836 74.8658 38.5904 74.9371 38.195 74.9694C37.8205 75 37.3657 75 36.8385 75H27.1615C26.6343 75 26.1796 75 25.805 74.9694C25.4096 74.9371 25.0164 74.8658 24.638 74.673C24.0735 74.3854 23.6146 73.9265 23.327 73.362C23.1342 72.9836 23.0629 72.5904 23.0306 72.195C23 71.8205 23 71.3657 23 70.8385V69.1615C23 68.6343 23 68.1795 23.0306 67.805C23.0629 67.4096 23.1342 67.0164 23.327 66.638C23.6146 66.0735 24.0735 65.6146 24.638 65.327C25.0164 65.1342 25.4096 65.0629 25.805 65.0306C26.1795 65 26.6343 65 27.1615 65ZM25.9678 67.0239C25.6962 67.0461 25.5955 67.0838 25.546 67.109C25.3578 67.2049 25.2049 67.3578 25.109 67.546C25.0838 67.5955 25.0461 67.6962 25.0239 67.9678C25.0008 68.2512 25 68.6234 25 69.2V70.8C25 71.3766 25.0008 71.7488 25.0239 72.0322C25.0461 72.3038 25.0838 72.4045 25.109 72.454C25.2049 72.6422 25.3578 72.7951 25.546 72.891C25.5955 72.9162 25.6962 72.9539 25.9678 72.9761C26.2512 72.9992 26.6234 73 27.2 73H36.8C37.3766 73 37.7488 72.9992 38.0322 72.9761C38.3038 72.9539 38.4045 72.9162 38.454 72.891C38.6422 72.7951 38.7951 72.6422 38.891 72.454C38.9162 72.4045 38.9539 72.3038 38.9761 72.0322C38.9992 71.7488 39 71.3766 39 70.8V69.2C39 68.6234 38.9992 68.2512 38.9761 67.9678C38.9539 67.6962 38.9162 67.5955 38.891 67.546C38.7951 67.3578 38.6422 67.2049 38.454 67.109C38.4045 67.0838 38.3038 67.0461 38.0322 67.0239C37.7488 67.0008 37.3766 67 36.8 67H27.2C26.6234 67 26.2512 67.0008 25.9678 67.0239Z" fill="#12131A"/>
<path d="M25 62C25 61.4477 25.4477 61 26 61H38C38.5523 61 39 61.4477 39 62C39 62.5523 38.5523 63 38 63H26C25.4477 63 25 62.5523 25 62Z" fill="#12131A"/>
<path d="M27 58C27 57.4477 27.4477 57 28 57H36C36.5523 57 37 57.4477 37 58C37 58.5523 36.5523 59 36 59H28C27.4477 59 27 58.5523 27 58Z" fill="#12131A"/>
</svg>
