<svg width="160" height="98" viewBox="0 0 160 98" fill="none" xmlns="http://www.w3.org/2000/svg">
<rect x="0.5" y="34.5" width="159" height="63" rx="4.5" stroke="#9747FF" stroke-dasharray="10 5"/>
<path d="M128 56C122.477 56 118 60.4772 118 66C118 71.5228 122.477 76 128 76C133.523 76 138 71.5228 138 66C138 60.4772 133.523 56 128 56Z" fill="#BABDCC"/>
<path fill-rule="evenodd" clip-rule="evenodd" d="M124.293 62.2929C124.683 61.9024 125.317 61.9024 125.707 62.2929L128 64.5858L130.293 62.2929C130.683 61.9024 131.317 61.9024 131.707 62.2929C132.098 62.6834 132.098 63.3166 131.707 63.7071L129.414 66L131.707 68.2929C132.098 68.6834 132.098 69.3166 131.707 69.7071C131.317 70.0976 130.683 70.0976 130.293 69.7071L128 67.4142L125.707 69.7071C125.317 70.0976 124.683 70.0976 124.293 69.7071C123.902 69.3166 123.902 68.6834 124.293 68.2929L126.586 66L124.293 63.7071C123.902 63.3166 123.902 62.6834 124.293 62.2929Z" fill="#12131A"/>
<path fill-rule="evenodd" clip-rule="evenodd" d="M70 66C70 60.4772 74.4772 56 80 56C85.5228 56 90 60.4772 90 66C90 71.5228 85.5228 76 80 76C74.4772 76 70 71.5228 70 66ZM77.7071 62.2929C77.3166 61.9024 76.6834 61.9024 76.2929 62.2929C75.9024 62.6834 75.9024 63.3166 76.2929 63.7071L78.5858 66L76.2929 68.2929C75.9024 68.6834 75.9024 69.3166 76.2929 69.7071C76.6834 70.0976 77.3166 70.0976 77.7071 69.7071L80 67.4142L82.2929 69.7071C82.6834 70.0976 83.3166 70.0976 83.7071 69.7071C84.0976 69.3166 84.0976 68.6834 83.7071 68.2929L81.4142 66L83.7071 63.7071C84.0976 63.3166 84.0976 62.6834 83.7071 62.2929C83.3166 61.9024 82.6834 61.9024 82.2929 62.2929L80 64.5858L77.7071 62.2929Z" fill="#12131A"/>
<path fill-rule="evenodd" clip-rule="evenodd" d="M32 58C27.5817 58 24 61.5817 24 66C24 70.4183 27.5817 74 32 74C36.4183 74 40 70.4183 40 66C40 61.5817 36.4183 58 32 58ZM22 66C22 60.4772 26.4772 56 32 56C37.5228 56 42 60.4772 42 66C42 71.5228 37.5228 76 32 76C26.4772 76 22 71.5228 22 66Z" fill="#12131A"/>
<path fill-rule="evenodd" clip-rule="evenodd" d="M28.2929 62.2929C28.6834 61.9024 29.3166 61.9024 29.7071 62.2929L32 64.5858L34.2929 62.2929C34.6834 61.9024 35.3166 61.9024 35.7071 62.2929C36.0976 62.6834 36.0976 63.3166 35.7071 63.7071L33.4142 66L35.7071 68.2929C36.0976 68.6834 36.0976 69.3166 35.7071 69.7071C35.3166 70.0976 34.6834 70.0976 34.2929 69.7071L32 67.4142L29.7071 69.7071C29.3166 70.0976 28.6834 70.0976 28.2929 69.7071C27.9024 69.3166 27.9024 68.6834 28.2929 68.2929L30.5858 66L28.2929 63.7071C27.9024 63.3166 27.9024 62.6834 28.2929 62.2929Z" fill="#12131A"/>
<path d="M4.16406 10.2295H2.31689V14H1.14893V4.75781H3.85938C4.29102 4.76628 4.69727 4.82764 5.07812 4.94189C5.45898 5.05615 5.79329 5.22754 6.08105 5.45605C6.36458 5.68457 6.58675 5.97233 6.74756 6.31934C6.9126 6.66211 6.99512 7.06624 6.99512 7.53174C6.99512 7.83219 6.95068 8.10726 6.86182 8.35693C6.77718 8.60661 6.65869 8.83301 6.50635 9.03613C6.354 9.23926 6.17204 9.41911 5.96045 9.57568C5.74886 9.73226 5.51611 9.86556 5.26221 9.97559L7.22363 13.9238L7.21729 14H5.97949L4.16406 10.2295ZM2.31689 9.26465H3.89111C4.15348 9.26042 4.40104 9.22021 4.63379 9.14404C4.86654 9.06364 5.07178 8.94938 5.24951 8.80127C5.42301 8.65316 5.56055 8.47331 5.66211 8.26172C5.76367 8.0459 5.81445 7.79834 5.81445 7.51904C5.81445 7.22282 5.76579 6.96468 5.66846 6.74463C5.57113 6.52035 5.43571 6.33203 5.26221 6.17969C5.0887 6.03158 4.88135 5.91943 4.64014 5.84326C4.40316 5.76709 4.1429 5.72689 3.85938 5.72266H2.31689V9.26465ZM11.9463 14.127C11.4639 14.127 11.0195 14.0444 10.6133 13.8794C10.2113 13.7144 9.86637 13.4837 9.57861 13.1875C9.29085 12.8913 9.06657 12.54 8.90576 12.1338C8.74495 11.7275 8.66455 11.2853 8.66455 10.8071V10.5405C8.66455 9.98617 8.75342 9.49105 8.93115 9.05518C9.10889 8.61507 9.34587 8.24268 9.64209 7.93799C9.93408 7.63753 10.2663 7.4069 10.6387 7.24609C11.0153 7.08529 11.4004 7.00488 11.7939 7.00488C12.2891 7.00488 12.7207 7.09163 13.0889 7.26514C13.4613 7.43441 13.7702 7.66927 14.0156 7.96973C14.2611 8.27441 14.443 8.632 14.5615 9.04248C14.6842 9.45296 14.7456 9.8973 14.7456 10.3755V10.9023H9.83887V10.9468C9.86849 11.2811 9.93408 11.5752 10.0356 11.8291C10.1414 12.083 10.2853 12.3073 10.4673 12.502C10.6535 12.7093 10.8778 12.8722 11.1401 12.9907C11.4025 13.1092 11.6924 13.1685 12.0098 13.1685C12.4287 13.1685 12.8011 13.0838 13.127 12.9146C13.4528 12.7453 13.7236 12.521 13.9395 12.2417L14.6567 12.8003C14.4282 13.1473 14.0854 13.4562 13.6284 13.7271C13.1756 13.9937 12.6149 14.127 11.9463 14.127ZM11.7939 7.96973C11.557 7.96973 11.3327 8.01416 11.1211 8.10303C10.9095 8.18766 10.7191 8.3125 10.5498 8.47754C10.3805 8.64681 10.2367 8.85417 10.1182 9.09961C10.0039 9.34082 9.9235 9.62012 9.87695 9.9375H13.5713V9.88037C13.5713 9.66878 13.5311 9.44238 13.4507 9.20117C13.3703 8.95573 13.2581 8.74414 13.1143 8.56641C12.9704 8.38867 12.7884 8.24479 12.5684 8.13477C12.3525 8.02474 12.0944 7.96973 11.7939 7.96973ZM17.2593 7.13184L17.291 7.7793C17.4307 7.53809 17.6126 7.34977 17.8369 7.21436C18.0654 7.07894 18.3405 7.00911 18.6621 7.00488C18.8441 7.00488 19.007 7.02604 19.1509 7.06836C19.299 7.10645 19.4281 7.16357 19.5381 7.23975C19.6185 7.29899 19.6904 7.37093 19.7539 7.45557C19.8216 7.5402 19.8787 7.63542 19.9253 7.74121C19.9845 7.64388 20.0544 7.5529 20.1348 7.46826C20.2152 7.38363 20.3019 7.30957 20.395 7.24609C20.5135 7.17415 20.6447 7.11702 20.7886 7.07471C20.9367 7.03239 21.0975 7.00911 21.271 7.00488C21.508 7.00488 21.7217 7.04085 21.9121 7.11279C22.1025 7.1805 22.2633 7.28206 22.3945 7.41748C22.5384 7.56982 22.6484 7.76872 22.7246 8.01416C22.8008 8.25537 22.8389 8.54102 22.8389 8.87109V14H21.7217V8.8584C21.7217 8.71452 21.7048 8.58757 21.6709 8.47754C21.637 8.36751 21.5884 8.27653 21.5249 8.20459C21.4572 8.13688 21.3726 8.0861 21.271 8.05225C21.1737 8.01839 21.0594 8.00146 20.9282 8.00146C20.7886 8.00146 20.668 8.02051 20.5664 8.05859C20.4648 8.09668 20.3802 8.14746 20.3125 8.21094C20.2448 8.27865 20.1919 8.35693 20.1538 8.4458C20.1157 8.53044 20.0903 8.62565 20.0776 8.73145C20.0776 8.7526 20.0776 8.77376 20.0776 8.79492C20.0776 8.81185 20.0776 8.83301 20.0776 8.8584V14H18.9604V8.85205C18.9604 8.70817 18.9435 8.58122 18.9097 8.47119C18.88 8.36117 18.8314 8.27018 18.7637 8.19824C18.7002 8.13053 18.6198 8.08187 18.5225 8.05225C18.4294 8.01839 18.3193 8.00146 18.1924 8.00146C18.0527 8.00146 17.93 8.01839 17.8242 8.05225C17.7227 8.08187 17.6359 8.1263 17.564 8.18555C17.509 8.2321 17.4603 8.28499 17.418 8.34424C17.3799 8.40348 17.3481 8.46696 17.3228 8.53467V14H16.2056V7.13184H17.2593ZM24.1973 10.5024C24.1973 10.0073 24.2692 9.54818 24.4131 9.125C24.557 8.69759 24.7643 8.32731 25.0352 8.01416C25.3018 7.70101 25.6276 7.45557 26.0127 7.27783C26.3978 7.09587 26.8315 7.00488 27.314 7.00488C27.8006 7.00488 28.2365 7.09587 28.6216 7.27783C29.0109 7.45557 29.341 7.70101 29.6118 8.01416C29.8784 8.32731 30.0837 8.69759 30.2275 9.125C30.3714 9.54818 30.4434 10.0073 30.4434 10.5024V10.6421C30.4434 11.1372 30.3714 11.5964 30.2275 12.0195C30.0837 12.4427 29.8784 12.8109 29.6118 13.124C29.341 13.4372 29.013 13.6826 28.6279 13.8604C28.2428 14.0381 27.8091 14.127 27.3267 14.127C26.84 14.127 26.402 14.0381 26.0127 13.8604C25.6276 13.6826 25.3018 13.4372 25.0352 13.124C24.7643 12.8109 24.557 12.4427 24.4131 12.0195C24.2692 11.5964 24.1973 11.1372 24.1973 10.6421V10.5024ZM25.3716 10.6421C25.3716 10.9806 25.4118 11.3044 25.4922 11.6133C25.5726 11.918 25.6953 12.1867 25.8604 12.4194C26.0212 12.6522 26.2243 12.8363 26.4697 12.9717C26.7152 13.1071 27.0008 13.1748 27.3267 13.1748C27.6483 13.1748 27.9297 13.1071 28.1709 12.9717C28.4163 12.8363 28.6216 12.6522 28.7866 12.4194C28.9474 12.1867 29.068 11.918 29.1484 11.6133C29.2288 11.3044 29.269 10.9806 29.269 10.6421V10.5024C29.269 10.1681 29.2267 9.84863 29.1421 9.54395C29.0617 9.23503 28.9411 8.96419 28.7803 8.73145C28.6152 8.4987 28.41 8.31462 28.1646 8.1792C27.9233 8.03955 27.6398 7.96973 27.314 7.96973C26.9881 7.96973 26.7046 8.03955 26.4634 8.1792C26.2222 8.31462 26.0212 8.4987 25.8604 8.73145C25.6953 8.96419 25.5726 9.23503 25.4922 9.54395C25.4118 9.84863 25.3716 10.1681 25.3716 10.5024V10.6421ZM34.6772 14L31.8525 7.13184H33.0586L35.0264 12.3115L35.1343 12.7368L35.2485 12.3115L37.1719 7.13184H38.3716L35.5723 14H34.6772ZM43.1768 14.127C42.6943 14.127 42.25 14.0444 41.8438 13.8794C41.4417 13.7144 41.0968 13.4837 40.8091 13.1875C40.5213 12.8913 40.297 12.54 40.1362 12.1338C39.9754 11.7275 39.895 11.2853 39.895 10.8071V10.5405C39.895 9.98617 39.9839 9.49105 40.1616 9.05518C40.3394 8.61507 40.5763 8.24268 40.8726 7.93799C41.1646 7.63753 41.4967 7.4069 41.8691 7.24609C42.2458 7.08529 42.6309 7.00488 43.0244 7.00488C43.5195 7.00488 43.9512 7.09163 44.3193 7.26514C44.6917 7.43441 45.0007 7.66927 45.2461 7.96973C45.4915 8.27441 45.6735 8.632 45.792 9.04248C45.9147 9.45296 45.9761 9.8973 45.9761 10.3755V10.9023H41.0693V10.9468C41.099 11.2811 41.1646 11.5752 41.2661 11.8291C41.3719 12.083 41.5158 12.3073 41.6978 12.502C41.884 12.7093 42.1082 12.8722 42.3706 12.9907C42.633 13.1092 42.9229 13.1685 43.2402 13.1685C43.6592 13.1685 44.0316 13.0838 44.3574 12.9146C44.6833 12.7453 44.9541 12.521 45.1699 12.2417L45.8872 12.8003C45.6587 13.1473 45.3159 13.4562 44.8589 13.7271C44.4061 13.9937 43.8454 14.127 43.1768 14.127ZM43.0244 7.96973C42.7874 7.96973 42.5632 8.01416 42.3516 8.10303C42.14 8.18766 41.9495 8.3125 41.7803 8.47754C41.611 8.64681 41.4671 8.85417 41.3486 9.09961C41.2344 9.34082 41.154 9.62012 41.1074 9.9375H44.8018V9.88037C44.8018 9.66878 44.7616 9.44238 44.6812 9.20117C44.6007 8.95573 44.4886 8.74414 44.3447 8.56641C44.2008 8.38867 44.0189 8.24479 43.7988 8.13477C43.583 8.02474 43.3249 7.96973 43.0244 7.96973ZM58.6841 13.1748C58.8957 13.1748 59.1009 13.141 59.2998 13.0732C59.5029 13.0055 59.6828 12.9103 59.8394 12.7876C59.9959 12.6691 60.1208 12.5295 60.2139 12.3687C60.3112 12.2036 60.362 12.0259 60.3662 11.8354H61.4771C61.4728 12.1401 61.3924 12.4321 61.2358 12.7114C61.0835 12.9865 60.8783 13.2277 60.6201 13.4351C60.362 13.6466 60.0658 13.8159 59.7314 13.9429C59.3971 14.0656 59.048 14.127 58.6841 14.127C58.1636 14.127 57.7087 14.0339 57.3193 13.8477C56.93 13.6615 56.6063 13.4097 56.3481 13.0923C56.0858 12.7791 55.889 12.4173 55.7578 12.0068C55.6266 11.5921 55.561 11.1562 55.561 10.6992V10.4326C55.561 9.97982 55.6266 9.54606 55.7578 9.13135C55.889 8.71663 56.0858 8.35059 56.3481 8.0332C56.6063 7.72005 56.93 7.47038 57.3193 7.28418C57.7087 7.09798 58.1636 7.00488 58.6841 7.00488C59.0903 7.00488 59.4627 7.07048 59.8013 7.20166C60.144 7.32861 60.4403 7.50212 60.6899 7.72217C60.9354 7.94645 61.1279 8.21094 61.2676 8.51562C61.4072 8.82031 61.4771 9.14616 61.4771 9.49316H60.3662C60.362 9.28581 60.3154 9.09115 60.2266 8.90918C60.1419 8.72298 60.0256 8.56006 59.8774 8.42041C59.7293 8.28076 59.5516 8.17074 59.3442 8.09033C59.1411 8.00993 58.9211 7.96973 58.6841 7.96973C58.3201 7.96973 58.0133 8.04378 57.7637 8.19189C57.5182 8.33577 57.3193 8.52409 57.167 8.75684C57.0146 8.99382 56.9046 9.2583 56.8369 9.55029C56.7734 9.84229 56.7417 10.1364 56.7417 10.4326V10.6992C56.7417 10.9997 56.7734 11.298 56.8369 11.5942C56.9046 11.8862 57.0146 12.1486 57.167 12.3813C57.3151 12.6183 57.5119 12.8109 57.7573 12.959C58.007 13.1029 58.3159 13.1748 58.6841 13.1748ZM68.0659 7.00488C68.2817 7.00488 68.506 7.01969 68.7388 7.04932C68.9757 7.07894 69.1535 7.11914 69.272 7.16992L69.1133 8.31885C68.8848 8.26807 68.6668 8.2321 68.4595 8.21094C68.2563 8.18555 68.0426 8.17285 67.8184 8.17285C67.5306 8.17285 67.2703 8.20882 67.0376 8.28076C66.8049 8.34847 66.6017 8.45003 66.4282 8.58545C66.2716 8.70394 66.1341 8.84993 66.0156 9.02344C65.9014 9.19271 65.8062 9.38314 65.73 9.59473V14H64.5493V7.13184H65.6665L65.7173 8.05225L65.7236 8.22363C66.0029 7.84701 66.3372 7.55078 66.7266 7.33496C67.1201 7.11491 67.5666 7.00488 68.0659 7.00488ZM76.5083 10.439H71.6523V9.47412H76.5083V10.439ZM80.9326 14V8.03955H79.041V7.13184H80.9326V6.64941C80.9326 6.20931 80.9961 5.82422 81.123 5.49414C81.2542 5.15983 81.4383 4.88053 81.6753 4.65625C81.908 4.43197 82.1895 4.2627 82.5195 4.14844C82.8496 4.03418 83.2178 3.97705 83.624 3.97705C83.7933 3.97705 83.9604 3.98763 84.1255 4.00879C84.2905 4.02572 84.4535 4.04899 84.6143 4.07861C84.7201 4.09977 84.8258 4.12305 84.9316 4.14844C85.0374 4.1696 85.1453 4.19499 85.2554 4.22461L85.1157 5.1958C84.9422 5.13656 84.7391 5.08577 84.5063 5.04346C84.2778 4.99691 84.0324 4.97363 83.77 4.97363C83.5034 4.97363 83.2664 5.00749 83.0591 5.0752C82.856 5.13867 82.6867 5.236 82.5513 5.36719C82.4074 5.5026 82.2974 5.67822 82.2212 5.89404C82.1493 6.10986 82.1133 6.36165 82.1133 6.64941V7.13184H84.7603V8.03955H82.1133V14H80.9326ZM91.4888 7.00488C91.7046 7.00488 91.9289 7.01969 92.1616 7.04932C92.3986 7.07894 92.5763 7.11914 92.6948 7.16992L92.5361 8.31885C92.3076 8.26807 92.0897 8.2321 91.8823 8.21094C91.6792 8.18555 91.4655 8.17285 91.2412 8.17285C90.9535 8.17285 90.6932 8.20882 90.4604 8.28076C90.2277 8.34847 90.0246 8.45003 89.8511 8.58545C89.6945 8.70394 89.557 8.84993 89.4385 9.02344C89.3242 9.19271 89.229 9.38314 89.1528 9.59473V14H87.9722V7.13184H89.0894L89.1401 8.05225L89.1465 8.22363C89.4258 7.84701 89.7601 7.55078 90.1494 7.33496C90.543 7.11491 90.9894 7.00488 91.4888 7.00488Z" fill="#696C80"/>
</svg>
