<svg width="160" height="98" viewBox="0 0 160 98" fill="none" xmlns="http://www.w3.org/2000/svg">
<rect x="0.5" y="34.5" width="159" height="63" rx="4.5" stroke="#9747FF" stroke-dasharray="10 5"/>
<path d="M120 74.4V57.6C120 57.0399 120 56.7599 120.109 56.546C120.205 56.3578 120.358 56.2049 120.546 56.109C120.76 56 121.04 56 121.6 56H134.4C134.96 56 135.24 56 135.454 56.109C135.642 56.2049 135.795 56.3578 135.891 56.546C136 56.7599 136 57.0399 136 57.6V74.4C136 74.9601 136 75.2401 135.891 75.454C135.795 75.6422 135.642 75.7951 135.454 75.891C135.24 76 134.96 76 134.4 76H121.6C121.04 76 120.76 76 120.546 75.891C120.358 75.7951 120.205 75.6422 120.109 75.454C120 75.2401 120 74.9601 120 74.4Z" fill="#BABDCC"/>
<path d="M129 56V59C129 59.5523 128.552 60 128 60C127.448 60 127 59.5523 127 59V56H129Z" fill="#12131A"/>
<path d="M128 64C128.552 64 129 64.4477 129 65V67C129 67.5523 128.552 68 128 68C127.448 68 127 67.5523 127 67V65C127 64.4477 127.448 64 128 64Z" fill="#12131A"/>
<path d="M129 73C129 72.4477 128.552 72 128 72C127.448 72 127 72.4477 127 73V76H129V73Z" fill="#12131A"/>
<path fill-rule="evenodd" clip-rule="evenodd" d="M79 56.8C79 56.52 79 56.38 78.9455 56.273C78.8976 56.1789 78.8211 56.1024 78.727 56.0545C78.62 56 78.48 56 78.2 56H73.6C73.0399 56 72.7599 56 72.546 56.109C72.3578 56.2049 72.2049 56.3578 72.109 56.546C72 56.7599 72 57.0399 72 57.6V74.4C72 74.9601 72 75.2401 72.109 75.454C72.2049 75.6422 72.3578 75.7951 72.546 75.891C72.7599 76 73.0399 76 73.6 76H78.2C78.48 76 78.62 76 78.727 75.9455C78.8211 75.8976 78.8976 75.8211 78.9455 75.727C79 75.62 79 75.48 79 75.2V73C79 72.4477 79.4477 72 80 72C80.5523 72 81 72.4477 81 73V75.2C81 75.48 81 75.62 81.0545 75.727C81.1024 75.8211 81.1789 75.8976 81.273 75.9455C81.38 76 81.52 76 81.8 76H86.4C86.9601 76 87.2401 76 87.454 75.891C87.6422 75.7951 87.7951 75.6422 87.891 75.454C88 75.2401 88 74.9601 88 74.4V57.6C88 57.0399 88 56.7599 87.891 56.546C87.7951 56.3578 87.6422 56.2049 87.454 56.109C87.2401 56 86.9601 56 86.4 56H81.8C81.52 56 81.38 56 81.273 56.0545C81.1789 56.1024 81.1024 56.1789 81.0545 56.273C81 56.38 81 56.52 81 56.8V59C81 59.5523 80.5523 60 80 60C79.4477 60 79 59.5523 79 59V56.8ZM80 64C80.5523 64 81 64.4477 81 65V67C81 67.5523 80.5523 68 80 68C79.4477 68 79 67.5523 79 67V65C79 64.4477 79.4477 64 80 64Z" fill="#12131A"/>
<path d="M26 57C26 56.4477 25.5523 56 25 56C24.4477 56 24 56.4477 24 57V75C24 75.5523 24.4477 76 25 76C25.5523 76 26 75.5523 26 75V57Z" fill="#12131A"/>
<path d="M40 57C40 56.4477 39.5523 56 39 56C38.4477 56 38 56.4477 38 57V75C38 75.5523 38.4477 76 39 76C39.5523 76 40 75.5523 40 75V57Z" fill="#12131A"/>
<path d="M32 56C32.5523 56 33 56.4477 33 57V59C33 59.5523 32.5523 60 32 60C31.4477 60 31 59.5523 31 59V57C31 56.4477 31.4477 56 32 56Z" fill="#12131A"/>
<path d="M32 64C32.5523 64 33 64.4477 33 65V67C33 67.5523 32.5523 68 32 68C31.4477 68 31 67.5523 31 67V65C31 64.4477 31.4477 64 32 64Z" fill="#12131A"/>
<path d="M33 73C33 72.4477 32.5523 72 32 72C31.4477 72 31 72.4477 31 73V75C31 75.5523 31.4477 76 32 76C32.5523 76 33 75.5523 33 75V73Z" fill="#12131A"/>
<path d="M4.16406 10.2295H2.31689V14H1.14893V4.75781H3.85938C4.29102 4.76628 4.69727 4.82764 5.07812 4.94189C5.45898 5.05615 5.79329 5.22754 6.08105 5.45605C6.36458 5.68457 6.58675 5.97233 6.74756 6.31934C6.9126 6.66211 6.99512 7.06624 6.99512 7.53174C6.99512 7.83219 6.95068 8.10726 6.86182 8.35693C6.77718 8.60661 6.65869 8.83301 6.50635 9.03613C6.354 9.23926 6.17204 9.41911 5.96045 9.57568C5.74886 9.73226 5.51611 9.86556 5.26221 9.97559L7.22363 13.9238L7.21729 14H5.97949L4.16406 10.2295ZM2.31689 9.26465H3.89111C4.15348 9.26042 4.40104 9.22021 4.63379 9.14404C4.86654 9.06364 5.07178 8.94938 5.24951 8.80127C5.42301 8.65316 5.56055 8.47331 5.66211 8.26172C5.76367 8.0459 5.81445 7.79834 5.81445 7.51904C5.81445 7.22282 5.76579 6.96468 5.66846 6.74463C5.57113 6.52035 5.43571 6.33203 5.26221 6.17969C5.0887 6.03158 4.88135 5.91943 4.64014 5.84326C4.40316 5.76709 4.1429 5.72689 3.85938 5.72266H2.31689V9.26465ZM8.58203 10.5024C8.58203 10.0073 8.65397 9.54818 8.79785 9.125C8.94173 8.69759 9.14909 8.32731 9.41992 8.01416C9.68652 7.70101 10.0124 7.45557 10.3975 7.27783C10.7826 7.09587 11.2163 7.00488 11.6987 7.00488C12.1854 7.00488 12.6213 7.09587 13.0063 7.27783C13.3957 7.45557 13.7257 7.70101 13.9966 8.01416C14.2632 8.32731 14.4684 8.69759 14.6123 9.125C14.7562 9.54818 14.8281 10.0073 14.8281 10.5024V10.6421C14.8281 11.1372 14.7562 11.5964 14.6123 12.0195C14.4684 12.4427 14.2632 12.8109 13.9966 13.124C13.7257 13.4372 13.3978 13.6826 13.0127 13.8604C12.6276 14.0381 12.1938 14.127 11.7114 14.127C11.2248 14.127 10.7868 14.0381 10.3975 13.8604C10.0124 13.6826 9.68652 13.4372 9.41992 13.124C9.14909 12.8109 8.94173 12.4427 8.79785 12.0195C8.65397 11.5964 8.58203 11.1372 8.58203 10.6421V10.5024ZM9.75635 10.6421C9.75635 10.9806 9.79655 11.3044 9.87695 11.6133C9.95736 11.918 10.0801 12.1867 10.2451 12.4194C10.4059 12.6522 10.609 12.8363 10.8545 12.9717C11.0999 13.1071 11.3856 13.1748 11.7114 13.1748C12.033 13.1748 12.3145 13.1071 12.5557 12.9717C12.8011 12.8363 13.0063 12.6522 13.1714 12.4194C13.3322 12.1867 13.4528 11.918 13.5332 11.6133C13.6136 11.3044 13.6538 10.9806 13.6538 10.6421V10.5024C13.6538 10.1681 13.6115 9.84863 13.5269 9.54395C13.4465 9.23503 13.3258 8.96419 13.165 8.73145C13 8.4987 12.7948 8.31462 12.5493 8.1792C12.3081 8.03955 12.0246 7.96973 11.6987 7.96973C11.3729 7.96973 11.0894 8.03955 10.8481 8.1792C10.6069 8.31462 10.4059 8.4987 10.2451 8.73145C10.0801 8.96419 9.95736 9.23503 9.87695 9.54395C9.79655 9.84863 9.75635 10.1681 9.75635 10.5024V10.6421ZM21.2329 14C21.1864 13.9111 21.1483 13.8011 21.1187 13.6699C21.0933 13.5345 21.0742 13.3949 21.0615 13.251C20.943 13.3695 20.8097 13.4816 20.6616 13.5874C20.5177 13.6932 20.359 13.7863 20.1855 13.8667C20.0078 13.9471 19.8195 14.0106 19.6206 14.0571C19.4217 14.1037 19.2101 14.127 18.9858 14.127C18.6219 14.127 18.2918 14.0741 17.9956 13.9683C17.7036 13.8625 17.4561 13.7186 17.2529 13.5366C17.0456 13.3589 16.8848 13.1473 16.7705 12.9019C16.6605 12.6522 16.6055 12.3835 16.6055 12.0957C16.6055 11.7191 16.6795 11.389 16.8276 11.1055C16.98 10.8219 17.1937 10.585 17.4688 10.3945C17.7438 10.2083 18.0739 10.0687 18.459 9.97559C18.8483 9.88249 19.2821 9.83594 19.7603 9.83594H21.0425V9.29639C21.0425 9.08903 21.0044 8.90283 20.9282 8.73779C20.8521 8.57275 20.7441 8.43099 20.6045 8.3125C20.4648 8.19824 20.2935 8.10938 20.0903 8.0459C19.8914 7.98242 19.6672 7.95068 19.4175 7.95068C19.1847 7.95068 18.9753 7.98031 18.7891 8.03955C18.6071 8.0988 18.4526 8.17708 18.3257 8.27441C18.1987 8.37174 18.0993 8.48812 18.0273 8.62354C17.9596 8.75472 17.9258 8.89225 17.9258 9.03613H16.7451C16.7493 8.78646 16.8128 8.54102 16.9355 8.2998C17.0625 8.05859 17.2445 7.84066 17.4814 7.646C17.7142 7.45557 17.9977 7.30111 18.332 7.18262C18.6706 7.06413 19.0535 7.00488 19.481 7.00488C19.8703 7.00488 20.2321 7.05355 20.5664 7.15088C20.9007 7.24398 21.1906 7.38574 21.436 7.57617C21.6772 7.77083 21.8677 8.01204 22.0073 8.2998C22.147 8.58757 22.2168 8.92399 22.2168 9.30908V12.502C22.2168 12.7305 22.238 12.9738 22.2803 13.2319C22.3226 13.4858 22.3818 13.708 22.458 13.8984V14H21.2329ZM19.1572 13.105C19.3857 13.105 19.5994 13.0754 19.7983 13.0161C19.9972 12.9569 20.1792 12.8786 20.3442 12.7812C20.505 12.6839 20.6447 12.5739 20.7632 12.4512C20.8817 12.3242 20.9748 12.193 21.0425 12.0576V10.6675H19.9507C19.5444 10.6675 19.189 10.7035 18.8843 10.7754C18.5838 10.8431 18.3447 10.9489 18.167 11.0928C18.04 11.1943 17.9427 11.3149 17.875 11.4546C17.8115 11.5942 17.7798 11.7529 17.7798 11.9307C17.7798 12.0999 17.8073 12.2565 17.8623 12.4004C17.9215 12.5443 18.0083 12.667 18.1226 12.7686C18.2368 12.8743 18.3807 12.9569 18.5542 13.0161C18.7277 13.0754 18.9287 13.105 19.1572 13.105ZM24.3052 10.5088C24.3052 9.99674 24.3687 9.52702 24.4956 9.09961C24.6268 8.66797 24.813 8.29769 25.0542 7.98877C25.2912 7.67985 25.5789 7.43864 25.9175 7.26514C26.256 7.09163 26.6348 7.00488 27.0537 7.00488C27.4642 7.00488 27.8218 7.07471 28.1265 7.21436C28.4354 7.34977 28.702 7.54867 28.9263 7.81104V4.25H30.1006V14H29.0215L28.9707 13.2764C28.7422 13.5557 28.4692 13.7673 28.1519 13.9111C27.8345 14.055 27.4642 14.127 27.041 14.127C26.6263 14.127 26.2497 14.0381 25.9111 13.8604C25.5768 13.6826 25.2912 13.4372 25.0542 13.124C24.8172 12.8109 24.6331 12.4427 24.502 12.0195C24.3708 11.5921 24.3052 11.133 24.3052 10.6421V10.5088ZM25.4795 10.6421C25.4795 10.9764 25.5155 11.2938 25.5874 11.5942C25.6593 11.8947 25.7715 12.1592 25.9238 12.3877C26.0719 12.6162 26.2624 12.7982 26.4951 12.9336C26.7279 13.0648 27.0072 13.1304 27.333 13.1304C27.7266 13.1304 28.0524 13.0415 28.3105 12.8638C28.5687 12.686 28.7739 12.4469 28.9263 12.1465V8.95996C28.7739 8.68066 28.5687 8.45215 28.3105 8.27441C28.0524 8.09245 27.7308 8.00146 27.3457 8.00146C27.0156 8.00146 26.7321 8.06917 26.4951 8.20459C26.2624 8.34001 26.0719 8.52197 25.9238 8.75049C25.7715 8.98324 25.6593 9.25195 25.5874 9.55664C25.5155 9.8571 25.4795 10.1745 25.4795 10.5088V10.6421Z" fill="#696C80"/>
</svg>
