<svg width="160" height="98" viewBox="0 0 160 98" fill="none" xmlns="http://www.w3.org/2000/svg">
<rect x="0.5" y="34.5" width="159" height="63" rx="4.5" stroke="#9747FF" stroke-dasharray="10 5"/>
<path d="M121 70C121 70.5523 120.552 71 120 71C119.448 71 119 70.5523 119 70C119 69.4477 119.448 69 120 69C120.552 69 121 69.4477 121 70Z" fill="#12131A"/>
<path d="M121 74C121 74.5523 120.552 75 120 75C119.448 75 119 74.5523 119 74C119 73.4477 119.448 73 120 73C120.552 73 121 73.4477 121 74Z" fill="#12131A"/>
<path d="M124 74C124.552 74 125 73.5523 125 73C125 72.4477 124.552 72 124 72C123.448 72 123 72.4477 123 73C123 73.5523 123.448 74 124 74Z" fill="#12131A"/>
<path d="M130.995 69.9948L124 63L122.583 64.4166C121.803 65.1972 121.802 66.4627 122.582 67.2439L126.746 71.4134C127.526 72.1955 128.794 72.1959 129.575 71.4145L130.995 69.9948Z" fill="#12131A"/>
<path d="M124 62.9999L129.417 57.5829C130.198 56.8022 131.463 56.8017 132.244 57.5819L136.414 61.7455C137.196 62.5264 137.196 63.7935 136.415 64.5749L130.995 69.9948L124 62.9999Z" fill="#BABDCC"/>
<path d="M73 70C73 70.5523 72.5523 71 72 71C71.4477 71 71 70.5523 71 70C71 69.4477 71.4477 69 72 69C72.5523 69 73 69.4477 73 70Z" fill="#12131A"/>
<path d="M73 74C73 74.5523 72.5523 75 72 75C71.4477 75 71 74.5523 71 74C71 73.4477 71.4477 73 72 73C72.5523 73 73 73.4477 73 74Z" fill="#12131A"/>
<path d="M76 74C76.5523 74 77 73.5523 77 73C77 72.4477 76.5523 72 76 72C75.4477 72 75 72.4477 75 73C75 73.5523 75.4477 74 76 74Z" fill="#12131A"/>
<path d="M84.2445 57.5823C83.4633 56.8022 82.1977 56.8027 81.417 57.5834L78.0608 60.9396C77.8656 61.1348 77.8656 61.4514 78.0608 61.6467L84.3486 67.9345C84.5439 68.1298 84.8605 68.1298 85.0557 67.9345L88.415 64.5754C89.1964 63.794 89.196 62.5269 88.414 61.746L84.2445 57.5823Z" fill="#12131A"/>
<path d="M82.9344 70.0558C83.1297 69.8605 83.1297 69.5439 82.9344 69.3487L76.6466 63.0609C76.4514 62.8656 76.1348 62.8656 75.9395 63.0609L74.5834 64.417C73.8028 65.1977 73.8023 66.4632 74.5824 67.2444L78.7457 71.4139C79.5265 72.1959 80.7936 72.1964 81.5751 71.415L82.9344 70.0558Z" fill="#12131A"/>
<path d="M25 70C25 70.5523 24.5523 71 24 71C23.4477 71 23 70.5523 23 70C23 69.4477 23.4477 69 24 69C24.5523 69 25 69.4477 25 70Z" fill="#12131A"/>
<path d="M25 74C25 74.5523 24.5523 75 24 75C23.4477 75 23 74.5523 23 74C23 73.4477 23.4477 73 24 73C24.5523 73 25 73.4477 25 74Z" fill="#12131A"/>
<path d="M28 74C28.5523 74 29 73.5523 29 73C29 72.4477 28.5523 72 28 72C27.4477 72 27 72.4477 27 73C27 73.5523 27.4477 74 28 74Z" fill="#12131A"/>
<path fill-rule="evenodd" clip-rule="evenodd" d="M33.1188 57.8815C34.2903 56.7101 36.1897 56.7101 37.3612 57.8815L40.1286 60.6484C41.3003 61.82 41.3004 63.7196 40.1288 64.8912L33.8915 71.1285C32.72 72.3 30.8205 72.3001 29.6489 71.1285L26.8815 68.3612C25.7098 67.1896 25.7098 65.29 26.8815 64.1184L33.1188 57.8815ZM35.9471 59.2958L38.7145 62.0628C39.1051 62.4533 39.1051 63.0865 38.7145 63.477L35.3029 66.8887L31.1213 62.7072L34.533 59.2958C34.9235 58.9053 35.5566 58.9053 35.9471 59.2958ZM29.7071 64.1214L28.2957 65.5327C27.9051 65.9232 27.9051 66.5564 28.2957 66.9469L31.0631 69.7143C31.4536 70.1048 32.0868 70.1048 32.4773 69.7143L33.8886 68.3029L29.7071 64.1214Z" fill="#12131A"/>
<path d="M5.94141 11.6641C5.94141 11.3805 5.87581 11.1414 5.74463 10.9468C5.61768 10.7521 5.45264 10.5871 5.24951 10.4517C5.04639 10.3205 4.8221 10.2104 4.57666 10.1216C4.33545 10.0327 4.1027 9.95231 3.87842 9.88037C3.55257 9.77458 3.22038 9.64762 2.88184 9.49951C2.54753 9.34717 2.24284 9.1652 1.96777 8.95361C1.68848 8.73779 1.45996 8.48389 1.28223 8.19189C1.10872 7.89567 1.02197 7.54867 1.02197 7.15088C1.02197 6.75309 1.10872 6.39762 1.28223 6.08447C1.45996 5.77132 1.69059 5.50684 1.97412 5.29102C2.25765 5.0752 2.57926 4.91227 2.93896 4.80225C3.29867 4.68799 3.66048 4.63086 4.02441 4.63086C4.42643 4.63086 4.81364 4.69857 5.18604 4.83398C5.55843 4.96517 5.88851 5.15137 6.17627 5.39258C6.46403 5.63379 6.69466 5.92578 6.86816 6.26855C7.04167 6.61133 7.13265 6.9943 7.14111 7.41748H5.93506C5.9012 7.15088 5.83561 6.90967 5.73828 6.69385C5.64095 6.4738 5.51188 6.28548 5.35107 6.12891C5.19027 5.97233 4.99772 5.85173 4.77344 5.76709C4.55339 5.67822 4.30371 5.63379 4.02441 5.63379C3.80013 5.63379 3.58008 5.66553 3.36426 5.729C3.15267 5.79248 2.96436 5.8877 2.79932 6.01465C2.63005 6.1416 2.49463 6.29818 2.39307 6.48438C2.29574 6.67057 2.24707 6.88639 2.24707 7.13184C2.2513 7.39844 2.31901 7.62484 2.4502 7.81104C2.58138 7.993 2.74854 8.14746 2.95166 8.27441C3.15055 8.40137 3.36637 8.50716 3.59912 8.5918C3.8361 8.67643 4.05827 8.75049 4.26562 8.81396C4.6084 8.91976 4.95117 9.04883 5.29395 9.20117C5.63672 9.34928 5.94987 9.53971 6.2334 9.77246C6.5127 9.98828 6.73698 10.2528 6.90625 10.5659C7.07975 10.8791 7.1665 11.2409 7.1665 11.6514C7.1665 12.0661 7.0734 12.4279 6.88721 12.7368C6.70524 13.0457 6.46826 13.3018 6.17627 13.5049C5.88428 13.7122 5.5542 13.8688 5.18604 13.9746C4.81787 14.0762 4.44971 14.127 4.08154 14.127C3.64144 14.127 3.20768 14.0529 2.78027 13.9048C2.3571 13.7567 1.98893 13.543 1.67578 13.2637C1.39648 13.0225 1.17432 12.741 1.00928 12.4194C0.84847 12.0936 0.761719 11.7318 0.749023 11.334H1.94873C1.98682 11.6217 2.0651 11.8778 2.18359 12.1021C2.30208 12.3221 2.45443 12.5083 2.64062 12.6606C2.82682 12.8172 3.04053 12.9357 3.28174 13.0161C3.52718 13.0923 3.79378 13.1304 4.08154 13.1304C4.31006 13.1304 4.53434 13.1029 4.75439 13.0479C4.97868 12.9886 5.17757 12.8976 5.35107 12.7749C5.52458 12.6564 5.66634 12.5062 5.77637 12.3242C5.88639 12.138 5.94141 11.918 5.94141 11.6641ZM13.4253 14C13.3787 13.9111 13.3407 13.8011 13.311 13.6699C13.2856 13.5345 13.2666 13.3949 13.2539 13.251C13.1354 13.3695 13.0021 13.4816 12.854 13.5874C12.7101 13.6932 12.5514 13.7863 12.3779 13.8667C12.2002 13.9471 12.0119 14.0106 11.813 14.0571C11.6141 14.1037 11.4025 14.127 11.1782 14.127C10.8143 14.127 10.4842 14.0741 10.188 13.9683C9.896 13.8625 9.64844 13.7186 9.44531 13.5366C9.23796 13.3589 9.07715 13.1473 8.96289 12.9019C8.85286 12.6522 8.79785 12.3835 8.79785 12.0957C8.79785 11.7191 8.87191 11.389 9.02002 11.1055C9.17236 10.8219 9.38607 10.585 9.66113 10.3945C9.9362 10.2083 10.2663 10.0687 10.6514 9.97559C11.0407 9.88249 11.4744 9.83594 11.9526 9.83594H13.2349V9.29639C13.2349 9.08903 13.1968 8.90283 13.1206 8.73779C13.0444 8.57275 12.9365 8.43099 12.7969 8.3125C12.6572 8.19824 12.4858 8.10938 12.2827 8.0459C12.0838 7.98242 11.8595 7.95068 11.6099 7.95068C11.3771 7.95068 11.1676 7.98031 10.9814 8.03955C10.7995 8.0988 10.645 8.17708 10.5181 8.27441C10.3911 8.37174 10.2917 8.48812 10.2197 8.62354C10.152 8.75472 10.1182 8.89225 10.1182 9.03613H8.9375C8.94173 8.78646 9.00521 8.54102 9.12793 8.2998C9.25488 8.05859 9.43685 7.84066 9.67383 7.646C9.90658 7.45557 10.1901 7.30111 10.5244 7.18262C10.863 7.06413 11.2459 7.00488 11.6733 7.00488C12.0627 7.00488 12.4245 7.05355 12.7588 7.15088C13.0931 7.24398 13.383 7.38574 13.6284 7.57617C13.8696 7.77083 14.0601 8.01204 14.1997 8.2998C14.3394 8.58757 14.4092 8.92399 14.4092 9.30908V12.502C14.4092 12.7305 14.4303 12.9738 14.4727 13.2319C14.515 13.4858 14.5742 13.708 14.6504 13.8984V14H13.4253ZM11.3496 13.105C11.5781 13.105 11.7918 13.0754 11.9907 13.0161C12.1896 12.9569 12.3716 12.8786 12.5366 12.7812C12.6974 12.6839 12.8371 12.5739 12.9556 12.4512C13.0741 12.3242 13.1672 12.193 13.2349 12.0576V10.6675H12.1431C11.7368 10.6675 11.3813 10.7035 11.0767 10.7754C10.7762 10.8431 10.5371 10.9489 10.3594 11.0928C10.2324 11.1943 10.1351 11.3149 10.0674 11.4546C10.0039 11.5942 9.97217 11.7529 9.97217 11.9307C9.97217 12.0999 9.99967 12.2565 10.0547 12.4004C10.1139 12.5443 10.2007 12.667 10.3149 12.7686C10.4292 12.8743 10.5731 12.9569 10.7466 13.0161C10.9201 13.0754 11.1211 13.105 11.3496 13.105ZM16.9038 4.25H20.4141V12.9844H22.6548V14H16.9038V12.9844H19.2397V5.27197H16.9038V4.25ZM27.3076 5.46875V7.13184H29.9229V8.03955H27.3076V11.772C27.3076 12.0386 27.3415 12.2586 27.4092 12.4321C27.4769 12.6056 27.57 12.7432 27.6885 12.8447C27.807 12.9505 27.9424 13.0246 28.0947 13.0669C28.2513 13.1092 28.4163 13.1304 28.5898 13.1304C28.7168 13.1304 28.848 13.124 28.9834 13.1113C29.1188 13.0944 29.2521 13.0754 29.3833 13.0542C29.5103 13.033 29.6287 13.0119 29.7388 12.9907C29.853 12.9653 29.9461 12.9442 30.0181 12.9272L30.1831 13.7588C30.0858 13.818 29.9673 13.8709 29.8276 13.9175C29.688 13.9598 29.5356 13.9958 29.3706 14.0254C29.2056 14.0592 29.0299 14.0846 28.8438 14.1016C28.6618 14.1185 28.4798 14.127 28.2979 14.127C27.9932 14.127 27.7075 14.0846 27.4409 14C27.1785 13.9111 26.95 13.7715 26.7554 13.5811C26.5607 13.3949 26.4062 13.1536 26.292 12.8574C26.182 12.557 26.127 12.1951 26.127 11.772V8.03955H24.3242V7.13184H26.127V5.46875H27.3076ZM44.9795 11.6641C44.9795 11.3805 44.9139 11.1414 44.7827 10.9468C44.6558 10.7521 44.4907 10.5871 44.2876 10.4517C44.0845 10.3205 43.8602 10.2104 43.6147 10.1216C43.3735 10.0327 43.1408 9.95231 42.9165 9.88037C42.5907 9.77458 42.2585 9.64762 41.9199 9.49951C41.5856 9.34717 41.2809 9.1652 41.0059 8.95361C40.7266 8.73779 40.498 8.48389 40.3203 8.19189C40.1468 7.89567 40.0601 7.54867 40.0601 7.15088C40.0601 6.75309 40.1468 6.39762 40.3203 6.08447C40.498 5.77132 40.7287 5.50684 41.0122 5.29102C41.2957 5.0752 41.6174 4.91227 41.9771 4.80225C42.3368 4.68799 42.6986 4.63086 43.0625 4.63086C43.4645 4.63086 43.8517 4.69857 44.2241 4.83398C44.5965 4.96517 44.9266 5.15137 45.2144 5.39258C45.5021 5.63379 45.7327 5.92578 45.9062 6.26855C46.0798 6.61133 46.1707 6.9943 46.1792 7.41748H44.9731C44.9393 7.15088 44.8737 6.90967 44.7764 6.69385C44.679 6.4738 44.55 6.28548 44.3892 6.12891C44.2284 5.97233 44.0358 5.85173 43.8115 5.76709C43.5915 5.67822 43.3418 5.63379 43.0625 5.63379C42.8382 5.63379 42.6182 5.66553 42.4023 5.729C42.1908 5.79248 42.0024 5.8877 41.8374 6.01465C41.6681 6.1416 41.5327 6.29818 41.4312 6.48438C41.3338 6.67057 41.2852 6.88639 41.2852 7.13184C41.2894 7.39844 41.3571 7.62484 41.4883 7.81104C41.6195 7.993 41.7866 8.14746 41.9897 8.27441C42.1886 8.40137 42.4045 8.50716 42.6372 8.5918C42.8742 8.67643 43.0964 8.75049 43.3037 8.81396C43.6465 8.91976 43.9893 9.04883 44.332 9.20117C44.6748 9.34928 44.988 9.53971 45.2715 9.77246C45.5508 9.98828 45.7751 10.2528 45.9443 10.5659C46.1178 10.8791 46.2046 11.2409 46.2046 11.6514C46.2046 12.0661 46.1115 12.4279 45.9253 12.7368C45.7433 13.0457 45.5063 13.3018 45.2144 13.5049C44.9224 13.7122 44.5923 13.8688 44.2241 13.9746C43.856 14.0762 43.4878 14.127 43.1196 14.127C42.6795 14.127 42.2458 14.0529 41.8184 13.9048C41.3952 13.7567 41.027 13.543 40.7139 13.2637C40.4346 13.0225 40.2124 12.741 40.0474 12.4194C39.8866 12.0936 39.7998 11.7318 39.7871 11.334H40.9868C41.0249 11.6217 41.1032 11.8778 41.2217 12.1021C41.3402 12.3221 41.4925 12.5083 41.6787 12.6606C41.8649 12.8172 42.0786 12.9357 42.3198 13.0161C42.5653 13.0923 42.8319 13.1304 43.1196 13.1304C43.3481 13.1304 43.5724 13.1029 43.7925 13.0479C44.0168 12.9886 44.2157 12.8976 44.3892 12.7749C44.5627 12.6564 44.7044 12.5062 44.8145 12.3242C44.9245 12.138 44.9795 11.918 44.9795 11.6641ZM49.1245 8.15381C49.2176 8.01416 49.3213 7.88721 49.4355 7.77295C49.5498 7.65446 49.6704 7.55078 49.7974 7.46191C50.0005 7.3138 50.2227 7.20166 50.4639 7.12549C50.7093 7.04932 50.9696 7.00911 51.2446 7.00488C51.6043 7.00488 51.9302 7.05778 52.2222 7.16357C52.5184 7.26514 52.7702 7.42594 52.9775 7.646C53.1849 7.86605 53.3436 8.14535 53.4536 8.48389C53.5679 8.8182 53.625 9.21598 53.625 9.67725V14H52.4507V9.66455C52.4507 9.39372 52.4189 9.15674 52.3555 8.95361C52.292 8.74626 52.1989 8.57487 52.0762 8.43945C51.945 8.29134 51.7799 8.18132 51.5811 8.10938C51.3822 8.0332 51.1536 7.99723 50.8955 8.00146C50.6839 8.00146 50.4829 8.03109 50.2925 8.09033C50.1021 8.14958 49.9264 8.23421 49.7656 8.34424C49.6387 8.42887 49.5202 8.52832 49.4102 8.64258C49.3044 8.7526 49.2091 8.87533 49.1245 9.01074V14H47.9502V4.25H49.1245V8.15381ZM60.271 14C60.2244 13.9111 60.1864 13.8011 60.1567 13.6699C60.1313 13.5345 60.1123 13.3949 60.0996 13.251C59.9811 13.3695 59.8478 13.4816 59.6997 13.5874C59.5558 13.6932 59.3971 13.7863 59.2236 13.8667C59.0459 13.9471 58.8576 14.0106 58.6587 14.0571C58.4598 14.1037 58.2482 14.127 58.0239 14.127C57.66 14.127 57.3299 14.0741 57.0337 13.9683C56.7417 13.8625 56.4941 13.7186 56.291 13.5366C56.0837 13.3589 55.9229 13.1473 55.8086 12.9019C55.6986 12.6522 55.6436 12.3835 55.6436 12.0957C55.6436 11.7191 55.7176 11.389 55.8657 11.1055C56.0181 10.8219 56.2318 10.585 56.5068 10.3945C56.7819 10.2083 57.112 10.0687 57.4971 9.97559C57.8864 9.88249 58.3201 9.83594 58.7983 9.83594H60.0806V9.29639C60.0806 9.08903 60.0425 8.90283 59.9663 8.73779C59.8901 8.57275 59.7822 8.43099 59.6426 8.3125C59.5029 8.19824 59.3315 8.10938 59.1284 8.0459C58.9295 7.98242 58.7052 7.95068 58.4556 7.95068C58.2228 7.95068 58.0133 7.98031 57.8271 8.03955C57.6452 8.0988 57.4907 8.17708 57.3638 8.27441C57.2368 8.37174 57.1374 8.48812 57.0654 8.62354C56.9977 8.75472 56.9639 8.89225 56.9639 9.03613H55.7832C55.7874 8.78646 55.8509 8.54102 55.9736 8.2998C56.1006 8.05859 56.2826 7.84066 56.5195 7.646C56.7523 7.45557 57.0358 7.30111 57.3701 7.18262C57.7087 7.06413 58.0916 7.00488 58.519 7.00488C58.9084 7.00488 59.2702 7.05355 59.6045 7.15088C59.9388 7.24398 60.2287 7.38574 60.4741 7.57617C60.7153 7.77083 60.9058 8.01204 61.0454 8.2998C61.1851 8.58757 61.2549 8.92399 61.2549 9.30908V12.502C61.2549 12.7305 61.276 12.9738 61.3184 13.2319C61.3607 13.4858 61.4199 13.708 61.4961 13.8984V14H60.271ZM58.1953 13.105C58.4238 13.105 58.6375 13.0754 58.8364 13.0161C59.0353 12.9569 59.2173 12.8786 59.3823 12.7812C59.5431 12.6839 59.6828 12.5739 59.8013 12.4512C59.9198 12.3242 60.0129 12.193 60.0806 12.0576V10.6675H58.9888C58.5825 10.6675 58.2271 10.7035 57.9224 10.7754C57.6219 10.8431 57.3828 10.9489 57.2051 11.0928C57.0781 11.1943 56.9808 11.3149 56.9131 11.4546C56.8496 11.5942 56.8179 11.7529 56.8179 11.9307C56.8179 12.0999 56.8454 12.2565 56.9004 12.4004C56.9596 12.5443 57.0464 12.667 57.1606 12.7686C57.2749 12.8743 57.4188 12.9569 57.5923 13.0161C57.7658 13.0754 57.9668 13.105 58.1953 13.105ZM65.6221 10.7944L64.7588 11.626V14H63.5781V4.25H64.7588V10.2168L65.5269 9.3916L67.7803 7.13184H69.2085L66.4282 9.99463L69.6338 14H68.1421L65.6221 10.7944ZM74.4072 14.127C73.9248 14.127 73.4805 14.0444 73.0742 13.8794C72.6722 13.7144 72.3273 13.4837 72.0396 13.1875C71.7518 12.8913 71.5275 12.54 71.3667 12.1338C71.2059 11.7275 71.1255 11.2853 71.1255 10.8071V10.5405C71.1255 9.98617 71.2144 9.49105 71.3921 9.05518C71.5698 8.61507 71.8068 8.24268 72.103 7.93799C72.395 7.63753 72.7272 7.4069 73.0996 7.24609C73.4762 7.08529 73.8613 7.00488 74.2549 7.00488C74.75 7.00488 75.1816 7.09163 75.5498 7.26514C75.9222 7.43441 76.2311 7.66927 76.4766 7.96973C76.722 8.27441 76.904 8.632 77.0225 9.04248C77.1452 9.45296 77.2065 9.8973 77.2065 10.3755V10.9023H72.2998V10.9468C72.3294 11.2811 72.395 11.5752 72.4966 11.8291C72.6024 12.083 72.7463 12.3073 72.9282 12.502C73.1144 12.7093 73.3387 12.8722 73.6011 12.9907C73.8634 13.1092 74.1533 13.1685 74.4707 13.1685C74.8896 13.1685 75.262 13.0838 75.5879 12.9146C75.9137 12.7453 76.1846 12.521 76.4004 12.2417L77.1177 12.8003C76.8892 13.1473 76.5464 13.4562 76.0894 13.7271C75.6366 13.9937 75.0758 14.127 74.4072 14.127ZM74.2549 7.96973C74.0179 7.96973 73.7936 8.01416 73.582 8.10303C73.3704 8.18766 73.18 8.3125 73.0107 8.47754C72.8415 8.64681 72.6976 8.85417 72.5791 9.09961C72.4648 9.34082 72.3844 9.62012 72.3379 9.9375H76.0322V9.88037C76.0322 9.66878 75.992 9.44238 75.9116 9.20117C75.8312 8.95573 75.7191 8.74414 75.5752 8.56641C75.4313 8.38867 75.2493 8.24479 75.0293 8.13477C74.8135 8.02474 74.5553 7.96973 74.2549 7.96973ZM83.6812 7.00488C83.897 7.00488 84.1213 7.01969 84.354 7.04932C84.591 7.07894 84.7687 7.11914 84.8872 7.16992L84.7285 8.31885C84.5 8.26807 84.2821 8.2321 84.0747 8.21094C83.8716 8.18555 83.6579 8.17285 83.4336 8.17285C83.1458 8.17285 82.8856 8.20882 82.6528 8.28076C82.4201 8.34847 82.217 8.45003 82.0435 8.58545C81.8869 8.70394 81.7493 8.84993 81.6309 9.02344C81.5166 9.19271 81.4214 9.38314 81.3452 9.59473V14H80.1646V7.13184H81.2817L81.3325 8.05225L81.3389 8.22363C81.6182 7.84701 81.9525 7.55078 82.3418 7.33496C82.7354 7.11491 83.1818 7.00488 83.6812 7.00488Z" fill="#696C80"/>
</svg>
