<svg width="160" height="98" viewBox="0 0 160 98" fill="none" xmlns="http://www.w3.org/2000/svg">
<path d="M5.94141 11.6641C5.94141 11.3805 5.87581 11.1414 5.74463 10.9468C5.61768 10.7521 5.45264 10.5871 5.24951 10.4517C5.04639 10.3205 4.8221 10.2104 4.57666 10.1216C4.33545 10.0327 4.1027 9.95231 3.87842 9.88037C3.55257 9.77458 3.22038 9.64762 2.88184 9.49951C2.54753 9.34717 2.24284 9.1652 1.96777 8.95361C1.68848 8.73779 1.45996 8.48389 1.28223 8.19189C1.10872 7.89567 1.02197 7.54867 1.02197 7.15088C1.02197 6.75309 1.10872 6.39762 1.28223 6.08447C1.45996 5.77132 1.69059 5.50684 1.97412 5.29102C2.25765 5.0752 2.57926 4.91227 2.93896 4.80225C3.29867 4.68799 3.66048 4.63086 4.02441 4.63086C4.42643 4.63086 4.81364 4.69857 5.18604 4.83398C5.55843 4.96517 5.88851 5.15137 6.17627 5.39258C6.46403 5.63379 6.69466 5.92578 6.86816 6.26855C7.04167 6.61133 7.13265 6.9943 7.14111 7.41748H5.93506C5.9012 7.15088 5.83561 6.90967 5.73828 6.69385C5.64095 6.4738 5.51188 6.28548 5.35107 6.12891C5.19027 5.97233 4.99772 5.85173 4.77344 5.76709C4.55339 5.67822 4.30371 5.63379 4.02441 5.63379C3.80013 5.63379 3.58008 5.66553 3.36426 5.729C3.15267 5.79248 2.96436 5.8877 2.79932 6.01465C2.63005 6.1416 2.49463 6.29818 2.39307 6.48438C2.29574 6.67057 2.24707 6.88639 2.24707 7.13184C2.2513 7.39844 2.31901 7.62484 2.4502 7.81104C2.58138 7.993 2.74854 8.14746 2.95166 8.27441C3.15055 8.40137 3.36637 8.50716 3.59912 8.5918C3.8361 8.67643 4.05827 8.75049 4.26562 8.81396C4.6084 8.91976 4.95117 9.04883 5.29395 9.20117C5.63672 9.34928 5.94987 9.53971 6.2334 9.77246C6.5127 9.98828 6.73698 10.2528 6.90625 10.5659C7.07975 10.8791 7.1665 11.2409 7.1665 11.6514C7.1665 12.0661 7.0734 12.4279 6.88721 12.7368C6.70524 13.0457 6.46826 13.3018 6.17627 13.5049C5.88428 13.7122 5.5542 13.8688 5.18604 13.9746C4.81787 14.0762 4.44971 14.127 4.08154 14.127C3.64144 14.127 3.20768 14.0529 2.78027 13.9048C2.3571 13.7567 1.98893 13.543 1.67578 13.2637C1.39648 13.0225 1.17432 12.741 1.00928 12.4194C0.84847 12.0936 0.761719 11.7318 0.749023 11.334H1.94873C1.98682 11.6217 2.0651 11.8778 2.18359 12.1021C2.30208 12.3221 2.45443 12.5083 2.64062 12.6606C2.82682 12.8172 3.04053 12.9357 3.28174 13.0161C3.52718 13.0923 3.79378 13.1304 4.08154 13.1304C4.31006 13.1304 4.53434 13.1029 4.75439 13.0479C4.97868 12.9886 5.17757 12.8976 5.35107 12.7749C5.52458 12.6564 5.66634 12.5062 5.77637 12.3242C5.88639 12.138 5.94141 11.918 5.94141 11.6641ZM11.8384 13.1748C12.05 13.1748 12.2552 13.141 12.4541 13.0732C12.6572 13.0055 12.8371 12.9103 12.9937 12.7876C13.1502 12.6691 13.2751 12.5295 13.3682 12.3687C13.4655 12.2036 13.5163 12.0259 13.5205 11.8354H14.6313C14.6271 12.1401 14.5467 12.4321 14.3901 12.7114C14.2378 12.9865 14.0326 13.2277 13.7744 13.4351C13.5163 13.6466 13.2201 13.8159 12.8857 13.9429C12.5514 14.0656 12.2023 14.127 11.8384 14.127C11.3179 14.127 10.863 14.0339 10.4736 13.8477C10.0843 13.6615 9.76058 13.4097 9.50244 13.0923C9.24007 12.7791 9.04329 12.4173 8.91211 12.0068C8.78092 11.5921 8.71533 11.1562 8.71533 10.6992V10.4326C8.71533 9.97982 8.78092 9.54606 8.91211 9.13135C9.04329 8.71663 9.24007 8.35059 9.50244 8.0332C9.76058 7.72005 10.0843 7.47038 10.4736 7.28418C10.863 7.09798 11.3179 7.00488 11.8384 7.00488C12.2446 7.00488 12.617 7.07048 12.9556 7.20166C13.2983 7.32861 13.5946 7.50212 13.8442 7.72217C14.0897 7.94645 14.2822 8.21094 14.4219 8.51562C14.5615 8.82031 14.6313 9.14616 14.6313 9.49316H13.5205C13.5163 9.28581 13.4697 9.09115 13.3809 8.90918C13.2962 8.72298 13.1799 8.56006 13.0317 8.42041C12.8836 8.28076 12.7059 8.17074 12.4985 8.09033C12.2954 8.00993 12.0754 7.96973 11.8384 7.96973C11.4744 7.96973 11.1676 8.04378 10.918 8.19189C10.6725 8.33577 10.4736 8.52409 10.3213 8.75684C10.1689 8.99382 10.0589 9.2583 9.99121 9.55029C9.92773 9.84229 9.896 10.1364 9.896 10.4326V10.6992C9.896 10.9997 9.92773 11.298 9.99121 11.5942C10.0589 11.8862 10.1689 12.1486 10.3213 12.3813C10.4694 12.6183 10.6662 12.8109 10.9116 12.959C11.1613 13.1029 11.4702 13.1748 11.8384 13.1748ZM16.3896 10.5024C16.3896 10.0073 16.4616 9.54818 16.6055 9.125C16.7493 8.69759 16.9567 8.32731 17.2275 8.01416C17.4941 7.70101 17.82 7.45557 18.2051 7.27783C18.5902 7.09587 19.0239 7.00488 19.5063 7.00488C19.993 7.00488 20.4289 7.09587 20.814 7.27783C21.2033 7.45557 21.5334 7.70101 21.8042 8.01416C22.0708 8.32731 22.276 8.69759 22.4199 9.125C22.5638 9.54818 22.6357 10.0073 22.6357 10.5024V10.6421C22.6357 11.1372 22.5638 11.5964 22.4199 12.0195C22.276 12.4427 22.0708 12.8109 21.8042 13.124C21.5334 13.4372 21.2054 13.6826 20.8203 13.8604C20.4352 14.0381 20.0015 14.127 19.519 14.127C19.0324 14.127 18.5944 14.0381 18.2051 13.8604C17.82 13.6826 17.4941 13.4372 17.2275 13.124C16.9567 12.8109 16.7493 12.4427 16.6055 12.0195C16.4616 11.5964 16.3896 11.1372 16.3896 10.6421V10.5024ZM17.564 10.6421C17.564 10.9806 17.6042 11.3044 17.6846 11.6133C17.765 11.918 17.8877 12.1867 18.0527 12.4194C18.2135 12.6522 18.4167 12.8363 18.6621 12.9717C18.9076 13.1071 19.1932 13.1748 19.519 13.1748C19.8407 13.1748 20.1221 13.1071 20.3633 12.9717C20.6087 12.8363 20.814 12.6522 20.979 12.4194C21.1398 12.1867 21.2604 11.918 21.3408 11.6133C21.4212 11.3044 21.4614 10.9806 21.4614 10.6421V10.5024C21.4614 10.1681 21.4191 9.84863 21.3345 9.54395C21.2541 9.23503 21.1335 8.96419 20.9727 8.73145C20.8076 8.4987 20.6024 8.31462 20.3569 8.1792C20.1157 8.03955 19.8322 7.96973 19.5063 7.96973C19.1805 7.96973 18.897 8.03955 18.6558 8.1792C18.4146 8.31462 18.2135 8.4987 18.0527 8.73145C17.8877 8.96419 17.765 9.23503 17.6846 9.54395C17.6042 9.84863 17.564 10.1681 17.564 10.5024V10.6421ZM29.0278 7.00488C29.2437 7.00488 29.4679 7.01969 29.7007 7.04932C29.9377 7.07894 30.1154 7.11914 30.2339 7.16992L30.0752 8.31885C29.8467 8.26807 29.6287 8.2321 29.4214 8.21094C29.2183 8.18555 29.0046 8.17285 28.7803 8.17285C28.4925 8.17285 28.2323 8.20882 27.9995 8.28076C27.7668 8.34847 27.5636 8.45003 27.3901 8.58545C27.2336 8.70394 27.096 8.84993 26.9775 9.02344C26.8633 9.19271 26.7681 9.38314 26.6919 9.59473V14H25.5112V7.13184H26.6284L26.6792 8.05225L26.6855 8.22363C26.9648 7.84701 27.2992 7.55078 27.6885 7.33496C28.082 7.11491 28.5285 7.00488 29.0278 7.00488ZM35.3691 14.127C34.8867 14.127 34.4424 14.0444 34.0361 13.8794C33.6341 13.7144 33.2892 13.4837 33.0015 13.1875C32.7137 12.8913 32.4894 12.54 32.3286 12.1338C32.1678 11.7275 32.0874 11.2853 32.0874 10.8071V10.5405C32.0874 9.98617 32.1763 9.49105 32.354 9.05518C32.5317 8.61507 32.7687 8.24268 33.0649 7.93799C33.3569 7.63753 33.6891 7.4069 34.0615 7.24609C34.4382 7.08529 34.8232 7.00488 35.2168 7.00488C35.7119 7.00488 36.1436 7.09163 36.5117 7.26514C36.8841 7.43441 37.193 7.66927 37.4385 7.96973C37.6839 8.27441 37.8659 8.632 37.9844 9.04248C38.1071 9.45296 38.1685 9.8973 38.1685 10.3755V10.9023H33.2617V10.9468C33.2913 11.2811 33.3569 11.5752 33.4585 11.8291C33.5643 12.083 33.7082 12.3073 33.8901 12.502C34.0763 12.7093 34.3006 12.8722 34.563 12.9907C34.8254 13.1092 35.1152 13.1685 35.4326 13.1685C35.8516 13.1685 36.224 13.0838 36.5498 12.9146C36.8757 12.7453 37.1465 12.521 37.3623 12.2417L38.0796 12.8003C37.8511 13.1473 37.5083 13.4562 37.0513 13.7271C36.5985 13.9937 36.0378 14.127 35.3691 14.127ZM35.2168 7.96973C34.9798 7.96973 34.7555 8.01416 34.5439 8.10303C34.3324 8.18766 34.1419 8.3125 33.9727 8.47754C33.8034 8.64681 33.6595 8.85417 33.541 9.09961C33.4268 9.34082 33.3464 9.62012 33.2998 9.9375H36.9941V9.88037C36.9941 9.66878 36.9539 9.44238 36.8735 9.20117C36.7931 8.95573 36.681 8.74414 36.5371 8.56641C36.3932 8.38867 36.2113 8.24479 35.9912 8.13477C35.7754 8.02474 35.5173 7.96973 35.2168 7.96973ZM45.9634 10.6421C45.9634 10.9425 45.9401 11.2324 45.8936 11.5117C45.8512 11.7868 45.7878 12.0449 45.7031 12.2861C45.5889 12.6035 45.4386 12.8892 45.2524 13.1431C45.0705 13.3927 44.8504 13.6001 44.5923 13.7651C44.4061 13.8794 44.2008 13.9683 43.9766 14.0317C43.7565 14.0952 43.5174 14.127 43.2593 14.127C42.9631 14.127 42.6922 14.091 42.4468 14.019C42.2056 13.9471 41.9876 13.8434 41.793 13.708C41.6999 13.6403 41.611 13.5662 41.5264 13.4858C41.4417 13.4054 41.3613 13.3166 41.2852 13.2192L41.228 14H40.1489V4.25H41.3232V7.86816C41.4206 7.74544 41.5285 7.63542 41.647 7.53809C41.7655 7.43652 41.8924 7.34977 42.0278 7.27783C42.1971 7.18896 42.3833 7.12126 42.5864 7.07471C42.7896 7.02816 43.0096 7.00488 43.2466 7.00488C43.5428 7.00488 43.8158 7.04508 44.0654 7.12549C44.3151 7.20589 44.5415 7.31803 44.7446 7.46191C44.9266 7.59733 45.0895 7.76237 45.2334 7.95703C45.3773 8.14746 45.5042 8.36117 45.6143 8.59814C45.7285 8.86475 45.8153 9.16097 45.8745 9.48682C45.9338 9.80843 45.9634 10.1491 45.9634 10.5088V10.6421ZM44.7891 10.5088C44.7891 10.293 44.7743 10.0835 44.7446 9.88037C44.7192 9.67301 44.679 9.47835 44.624 9.29639C44.5479 9.0721 44.4484 8.86686 44.3257 8.68066C44.203 8.49447 44.0527 8.34847 43.875 8.24268C43.7523 8.1665 43.6147 8.10726 43.4624 8.06494C43.3101 8.02262 43.1408 8.00146 42.9546 8.00146C42.7515 8.00146 42.5653 8.02897 42.396 8.08398C42.2267 8.13477 42.0765 8.20671 41.9453 8.2998C41.8099 8.39714 41.6893 8.51139 41.5835 8.64258C41.4819 8.76953 41.3952 8.90918 41.3232 9.06152V12.064C41.3994 12.2163 41.4883 12.3581 41.5898 12.4893C41.6956 12.6162 41.8162 12.7284 41.9517 12.8257C42.0871 12.923 42.2394 12.9992 42.4087 13.0542C42.578 13.105 42.7642 13.1304 42.9673 13.1304C43.1619 13.1304 43.3397 13.1071 43.5005 13.0605C43.6613 13.0098 43.8052 12.9378 43.9321 12.8447C44.1014 12.7262 44.2432 12.576 44.3574 12.394C44.4717 12.2121 44.5627 12.009 44.6304 11.7847C44.6854 11.6154 44.7256 11.4334 44.751 11.2388C44.7764 11.0441 44.7891 10.8452 44.7891 10.6421V10.5088ZM47.6201 10.5024C47.6201 10.0073 47.6921 9.54818 47.8359 9.125C47.9798 8.69759 48.1872 8.32731 48.458 8.01416C48.7246 7.70101 49.0505 7.45557 49.4355 7.27783C49.8206 7.09587 50.2544 7.00488 50.7368 7.00488C51.2235 7.00488 51.6593 7.09587 52.0444 7.27783C52.4338 7.45557 52.7638 7.70101 53.0347 8.01416C53.3013 8.32731 53.5065 8.69759 53.6504 9.125C53.7943 9.54818 53.8662 10.0073 53.8662 10.5024V10.6421C53.8662 11.1372 53.7943 11.5964 53.6504 12.0195C53.5065 12.4427 53.3013 12.8109 53.0347 13.124C52.7638 13.4372 52.4359 13.6826 52.0508 13.8604C51.6657 14.0381 51.2319 14.127 50.7495 14.127C50.2629 14.127 49.8249 14.0381 49.4355 13.8604C49.0505 13.6826 48.7246 13.4372 48.458 13.124C48.1872 12.8109 47.9798 12.4427 47.8359 12.0195C47.6921 11.5964 47.6201 11.1372 47.6201 10.6421V10.5024ZM48.7944 10.6421C48.7944 10.9806 48.8346 11.3044 48.915 11.6133C48.9954 11.918 49.1182 12.1867 49.2832 12.4194C49.444 12.6522 49.6471 12.8363 49.8926 12.9717C50.138 13.1071 50.4237 13.1748 50.7495 13.1748C51.0711 13.1748 51.3525 13.1071 51.5938 12.9717C51.8392 12.8363 52.0444 12.6522 52.2095 12.4194C52.3703 12.1867 52.4909 11.918 52.5713 11.6133C52.6517 11.3044 52.6919 10.9806 52.6919 10.6421V10.5024C52.6919 10.1681 52.6496 9.84863 52.5649 9.54395C52.4845 9.23503 52.3639 8.96419 52.2031 8.73145C52.0381 8.4987 51.8328 8.31462 51.5874 8.1792C51.3462 8.03955 51.0627 7.96973 50.7368 7.96973C50.411 7.96973 50.1274 8.03955 49.8862 8.1792C49.645 8.31462 49.444 8.4987 49.2832 8.73145C49.1182 8.96419 48.9954 9.23503 48.915 9.54395C48.8346 9.84863 48.7944 10.1681 48.7944 10.5024V10.6421ZM60.271 14C60.2244 13.9111 60.1864 13.8011 60.1567 13.6699C60.1313 13.5345 60.1123 13.3949 60.0996 13.251C59.9811 13.3695 59.8478 13.4816 59.6997 13.5874C59.5558 13.6932 59.3971 13.7863 59.2236 13.8667C59.0459 13.9471 58.8576 14.0106 58.6587 14.0571C58.4598 14.1037 58.2482 14.127 58.0239 14.127C57.66 14.127 57.3299 14.0741 57.0337 13.9683C56.7417 13.8625 56.4941 13.7186 56.291 13.5366C56.0837 13.3589 55.9229 13.1473 55.8086 12.9019C55.6986 12.6522 55.6436 12.3835 55.6436 12.0957C55.6436 11.7191 55.7176 11.389 55.8657 11.1055C56.0181 10.8219 56.2318 10.585 56.5068 10.3945C56.7819 10.2083 57.112 10.0687 57.4971 9.97559C57.8864 9.88249 58.3201 9.83594 58.7983 9.83594H60.0806V9.29639C60.0806 9.08903 60.0425 8.90283 59.9663 8.73779C59.8901 8.57275 59.7822 8.43099 59.6426 8.3125C59.5029 8.19824 59.3315 8.10938 59.1284 8.0459C58.9295 7.98242 58.7052 7.95068 58.4556 7.95068C58.2228 7.95068 58.0133 7.98031 57.8271 8.03955C57.6452 8.0988 57.4907 8.17708 57.3638 8.27441C57.2368 8.37174 57.1374 8.48812 57.0654 8.62354C56.9977 8.75472 56.9639 8.89225 56.9639 9.03613H55.7832C55.7874 8.78646 55.8509 8.54102 55.9736 8.2998C56.1006 8.05859 56.2826 7.84066 56.5195 7.646C56.7523 7.45557 57.0358 7.30111 57.3701 7.18262C57.7087 7.06413 58.0916 7.00488 58.519 7.00488C58.9084 7.00488 59.2702 7.05355 59.6045 7.15088C59.9388 7.24398 60.2287 7.38574 60.4741 7.57617C60.7153 7.77083 60.9058 8.01204 61.0454 8.2998C61.1851 8.58757 61.2549 8.92399 61.2549 9.30908V12.502C61.2549 12.7305 61.276 12.9738 61.3184 13.2319C61.3607 13.4858 61.4199 13.708 61.4961 13.8984V14H60.271ZM58.1953 13.105C58.4238 13.105 58.6375 13.0754 58.8364 13.0161C59.0353 12.9569 59.2173 12.8786 59.3823 12.7812C59.5431 12.6839 59.6828 12.5739 59.8013 12.4512C59.9198 12.3242 60.0129 12.193 60.0806 12.0576V10.6675H58.9888C58.5825 10.6675 58.2271 10.7035 57.9224 10.7754C57.6219 10.8431 57.3828 10.9489 57.2051 11.0928C57.0781 11.1943 56.9808 11.3149 56.9131 11.4546C56.8496 11.5942 56.8179 11.7529 56.8179 11.9307C56.8179 12.0999 56.8454 12.2565 56.9004 12.4004C56.9596 12.5443 57.0464 12.667 57.1606 12.7686C57.2749 12.8743 57.4188 12.9569 57.5923 13.0161C57.7658 13.0754 57.9668 13.105 58.1953 13.105ZM68.0659 7.00488C68.2817 7.00488 68.506 7.01969 68.7388 7.04932C68.9757 7.07894 69.1535 7.11914 69.272 7.16992L69.1133 8.31885C68.8848 8.26807 68.6668 8.2321 68.4595 8.21094C68.2563 8.18555 68.0426 8.17285 67.8184 8.17285C67.5306 8.17285 67.2703 8.20882 67.0376 8.28076C66.8049 8.34847 66.6017 8.45003 66.4282 8.58545C66.2716 8.70394 66.1341 8.84993 66.0156 9.02344C65.9014 9.19271 65.8062 9.38314 65.73 9.59473V14H64.5493V7.13184H65.6665L65.7173 8.05225L65.7236 8.22363C66.0029 7.84701 66.3372 7.55078 66.7266 7.33496C67.1201 7.11491 67.5666 7.00488 68.0659 7.00488ZM71.1509 10.5088C71.1509 9.99674 71.2144 9.52702 71.3413 9.09961C71.4725 8.66797 71.6587 8.29769 71.8999 7.98877C72.1369 7.67985 72.4246 7.43864 72.7632 7.26514C73.1017 7.09163 73.4805 7.00488 73.8994 7.00488C74.3099 7.00488 74.6675 7.07471 74.9722 7.21436C75.2811 7.34977 75.5477 7.54867 75.772 7.81104V4.25H76.9463V14H75.8672L75.8164 13.2764C75.5879 13.5557 75.3149 13.7673 74.9976 13.9111C74.6802 14.055 74.3099 14.127 73.8867 14.127C73.472 14.127 73.0954 14.0381 72.7568 13.8604C72.4225 13.6826 72.1369 13.4372 71.8999 13.124C71.6629 12.8109 71.4788 12.4427 71.3477 12.0195C71.2165 11.5921 71.1509 11.133 71.1509 10.6421V10.5088ZM72.3252 10.6421C72.3252 10.9764 72.3612 11.2938 72.4331 11.5942C72.505 11.8947 72.6172 12.1592 72.7695 12.3877C72.9176 12.6162 73.1081 12.7982 73.3408 12.9336C73.5736 13.0648 73.8529 13.1304 74.1787 13.1304C74.5723 13.1304 74.8981 13.0415 75.1562 12.8638C75.4144 12.686 75.6196 12.4469 75.772 12.1465V8.95996C75.6196 8.68066 75.4144 8.45215 75.1562 8.27441C74.8981 8.09245 74.5765 8.00146 74.1914 8.00146C73.8613 8.00146 73.5778 8.06917 73.3408 8.20459C73.1081 8.34001 72.9176 8.52197 72.7695 8.75049C72.6172 8.98324 72.505 9.25195 72.4331 9.55664C72.3612 9.8571 72.3252 10.1745 72.3252 10.5088V10.6421Z" fill="#696C80"/>
<rect x="0.5" y="34.5" width="159" height="63" rx="4.5" stroke="#9747FF" stroke-dasharray="10 5"/>
<path d="M118 62.8C118 61.1198 118 60.2798 118.327 59.638C118.615 59.0735 119.074 58.6146 119.638 58.327C120.28 58 121.12 58 122.8 58H133.2C134.88 58 135.72 58 136.362 58.327C136.926 58.6146 137.385 59.0735 137.673 59.638C138 60.2798 138 61.1198 138 62.8V69.2C138 70.8802 138 71.7202 137.673 72.362C137.385 72.9265 136.926 73.3854 136.362 73.673C135.72 74 134.88 74 133.2 74H122.8C121.12 74 120.28 74 119.638 73.673C119.074 73.3854 118.615 72.9265 118.327 72.362C118 71.7202 118 70.8802 118 69.2V62.8Z" fill="#BABDCC"/>
<path fill-rule="evenodd" clip-rule="evenodd" d="M122 63C122 62.4477 122.448 62 123 62H124C124.552 62 125 62.4477 125 63V69C125 69.5523 124.552 70 124 70C123.448 70 123 69.5523 123 69L123 64C122.448 64 122 63.5523 122 63ZM132 64C131.448 64 131 63.5523 131 63C131 62.4477 131.448 62 132 62H133C133.552 62 134 62.4477 134 63V69C134 69.5523 133.552 70 133 70C132.448 70 132 69.5523 132 69V64ZM127 64C127 63.4477 127.448 63 128 63C128.552 63 129 63.4477 129 64C129 64.5523 128.552 65 128 65C127.448 65 127 64.5523 127 64ZM128 67C127.448 67 127 67.4477 127 68C127 68.5523 127.448 69 128 69C128.552 69 129 68.5523 129 68C129 67.4477 128.552 67 128 67Z" fill="#12131A"/>
<path fill-rule="evenodd" clip-rule="evenodd" d="M70 62.8C70 61.1198 70 60.2798 70.327 59.638C70.6146 59.0735 71.0735 58.6146 71.638 58.327C72.2798 58 73.1198 58 74.8 58H85.2C86.8802 58 87.7202 58 88.362 58.327C88.9265 58.6146 89.3854 59.0735 89.673 59.638C90 60.2798 90 61.1198 90 62.8V69.2C90 70.8802 90 71.7202 89.673 72.362C89.3854 72.9265 88.9265 73.3854 88.362 73.673C87.7202 74 86.8802 74 85.2 74H74.8C73.1198 74 72.2798 74 71.638 73.673C71.0735 73.3854 70.6146 72.9265 70.327 72.362C70 71.7202 70 70.8802 70 69.2V62.8ZM74 63C74 63.5523 74.4477 64 75 64V69C75 69.5523 75.4477 70 76 70C76.5523 70 77 69.5523 77 69V63C77 62.4477 76.5523 62 76 62H75C74.4477 62 74 62.4477 74 63ZM84 64C83.4477 64 83 63.5523 83 63C83 62.4477 83.4477 62 84 62H85C85.5523 62 86 62.4477 86 63V69C86 69.5523 85.5523 70 85 70C84.4477 70 84 69.5523 84 69V64ZM79 64C79 63.4477 79.4477 63 80 63C80.5523 63 81 63.4477 81 64C81 64.5523 80.5523 65 80 65C79.4477 65 79 64.5523 79 64ZM80 67C79.4477 67 79 67.4477 79 68C79 68.5523 79.4477 69 80 69C80.5523 69 81 68.5523 81 68C81 67.4477 80.5523 67 80 67Z" fill="#12131A"/>
<path fill-rule="evenodd" clip-rule="evenodd" d="M27.7587 58H36.2413C37.0463 58 37.7106 58 38.2518 58.0442C38.8139 58.0901 39.3306 58.1887 39.816 58.436C40.5686 58.8195 41.1805 59.4314 41.564 60.184C41.8113 60.6694 41.9099 61.1861 41.9558 61.7482C42 62.2894 42 62.9538 42 63.7588V68.2412C42 69.0462 42 69.7106 41.9558 70.2518C41.9099 70.8139 41.8113 71.3306 41.564 71.816C41.1805 72.5686 40.5686 73.1805 39.816 73.564C39.3306 73.8113 38.8139 73.9099 38.2518 73.9558C37.7106 74 37.0463 74 36.2413 74H27.7587C26.9537 74 26.2894 74 25.7482 73.9558C25.1861 73.9099 24.6694 73.8113 24.184 73.564C23.4314 73.1805 22.8195 72.5686 22.436 71.816C22.1887 71.3306 22.0901 70.8139 22.0442 70.2518C22 69.7106 22 69.0463 22 68.2413V63.7587C22 62.9537 22 62.2894 22.0442 61.7482C22.0901 61.1861 22.1887 60.6694 22.436 60.184C22.8195 59.4314 23.4314 58.8195 24.184 58.436C24.6694 58.1887 25.1861 58.0901 25.7482 58.0442C26.2894 58 26.9537 58 27.7587 58ZM25.911 60.0376C25.4726 60.0734 25.2484 60.1383 25.092 60.218C24.7157 60.4097 24.4097 60.7157 24.218 61.092C24.1383 61.2484 24.0734 61.4726 24.0376 61.911C24.0008 62.3611 24 62.9434 24 63.8V68.2C24 69.0566 24.0008 69.6389 24.0376 70.089C24.0734 70.5274 24.1383 70.7516 24.218 70.908C24.4097 71.2843 24.7157 71.5903 25.092 71.782C25.2484 71.8617 25.4726 71.9266 25.911 71.9624C26.3611 71.9992 26.9434 72 27.8 72H36.2C37.0566 72 37.6389 71.9992 38.089 71.9624C38.5274 71.9266 38.7516 71.8617 38.908 71.782C39.2843 71.5903 39.5903 71.2843 39.782 70.908C39.8617 70.7516 39.9266 70.5274 39.9624 70.089C39.9992 69.6389 40 69.0566 40 68.2V63.8C40 62.9434 39.9992 62.3611 39.9624 61.911C39.9266 61.4726 39.8617 61.2484 39.782 61.092C39.5903 60.7157 39.2843 60.4097 38.908 60.218C38.7516 60.1383 38.5274 60.0734 38.089 60.0376C37.6389 60.0008 37.0566 60 36.2 60H27.8C26.9434 60 26.3611 60.0008 25.911 60.0376Z" fill="#12131A"/>
<path fill-rule="evenodd" clip-rule="evenodd" d="M26 63C26 62.4477 26.4477 62 27 62H28C28.5523 62 29 62.4477 29 63V69C29 69.5523 28.5523 70 28 70C27.4477 70 27 69.5523 27 69L27 64C26.4477 64 26 63.5523 26 63ZM36 64C35.4477 64 35 63.5523 35 63C35 62.4477 35.4477 62 36 62H37C37.5523 62 38 62.4477 38 63V69C38 69.5523 37.5523 70 37 70C36.4477 70 36 69.5523 36 69V64ZM31 64C31 63.4477 31.4477 63 32 63C32.5523 63 33 63.4477 33 64C33 64.5523 32.5523 65 32 65C31.4477 65 31 64.5523 31 64ZM32 67C31.4477 67 31 67.4477 31 68C31 68.5523 31.4477 69 32 69C32.5523 69 33 68.5523 33 68C33 67.4477 32.5523 67 32 67Z" fill="#12131A"/>
</svg>
