<svg width="160" height="98" viewBox="0 0 160 98" fill="none" xmlns="http://www.w3.org/2000/svg">
<rect x="0.5" y="34.5" width="159" height="63" rx="4.5" stroke="#9747FF" stroke-dasharray="10 5"/>
<path d="M128 56C127.448 56 127 56.4477 127 57V58C127 58.5523 127.448 59 128 59C128.552 59 129 58.5523 129 58V57C129 56.4477 128.552 56 128 56Z" fill="#BABDCC"/>
<path d="M123.05 61.0509C122.66 61.4414 122.027 61.4414 121.636 61.0509L120.929 60.3438C120.538 59.9532 120.538 59.3201 120.929 58.9295C121.319 58.539 121.953 58.539 122.343 58.9295L123.05 59.6366C123.441 60.0272 123.441 60.6603 123.05 61.0509Z" fill="#BABDCC"/>
<path d="M135.071 58.9298C134.681 58.5392 134.048 58.5392 133.657 58.9298L132.95 59.6369C132.56 60.0274 132.56 60.6606 132.95 61.0511C133.341 61.4416 133.974 61.4416 134.364 61.0511L135.071 60.344C135.462 59.9535 135.462 59.3203 135.071 58.9298Z" fill="#BABDCC"/>
<path d="M128 71C130.761 71 133 68.7614 133 66C133 63.2386 130.761 61 128 61C125.239 61 123 63.2386 123 66C123 68.7614 125.239 71 128 71Z" fill="#BABDCC"/>
<path d="M137 65C137.552 65 138 65.4477 138 66C138 66.5523 137.552 67 137 67H136C135.448 67 135 66.5523 135 66C135 65.4477 135.448 65 136 65H137Z" fill="#BABDCC"/>
<path d="M121 66C121 65.4477 120.552 65 120 65H119C118.448 65 118 65.4477 118 66C118 66.5523 118.448 67 119 67H120C120.552 67 121 66.5523 121 66Z" fill="#BABDCC"/>
<path d="M136 70C136 69.4477 135.552 69 135 69H121C120.448 69 120 69.4477 120 70C120 70.5523 120.448 71 121 71L135 71C135.552 71 136 70.5523 136 70Z" fill="#12131A"/>
<path d="M132 74C132 73.4477 131.552 73 131 73L125 73C124.448 73 124 73.4477 124 74C124 74.5523 124.448 75 125 75H131C131.552 75 132 74.5523 132 74Z" fill="#12131A"/>
<path d="M80 56C79.4477 56 79 56.4477 79 57V58C79 58.5523 79.4477 59 80 59C80.5523 59 81 58.5523 81 58V57C81 56.4477 80.5523 56 80 56Z" fill="#12131A"/>
<path d="M75.0502 61.0509C74.6597 61.4414 74.0265 61.4414 73.636 61.0509L72.9289 60.3438C72.5384 59.9532 72.5384 59.3201 72.9289 58.9295C73.3194 58.539 73.9526 58.539 74.3431 58.9295L75.0502 59.6366C75.4407 60.0272 75.4407 60.6603 75.0502 61.0509Z" fill="#12131A"/>
<path d="M87.0711 58.9298C86.6806 58.5392 86.0474 58.5392 85.6569 58.9298L84.9498 59.6369C84.5593 60.0274 84.5593 60.6606 84.9498 61.0511C85.3403 61.4416 85.9735 61.4416 86.364 61.0511L87.0711 60.344C87.4616 59.9535 87.4616 59.3203 87.0711 58.9298Z" fill="#12131A"/>
<path d="M75.0385 65.3775C75.3456 62.9094 77.4491 61 80 61C82.551 61 84.6544 62.9094 84.9616 65.3775C85.0803 66.3314 84.2904 67 83.5 67H76.5C75.7096 67 74.9198 66.3314 75.0385 65.3775Z" fill="#12131A"/>
<path d="M89 65C89.5523 65 90 65.4477 90 66C90 66.5523 89.5523 67 89 67H88C87.4477 67 87 66.5523 87 66C87 65.4477 87.4477 65 88 65H89Z" fill="#12131A"/>
<path d="M73 66C73 65.4477 72.5523 65 72 65H71C70.4477 65 70 65.4477 70 66C70 66.5523 70.4477 67 71 67H72C72.5523 67 73 66.5523 73 66Z" fill="#12131A"/>
<path d="M88 70C88 69.4477 87.5523 69 87 69H73C72.4477 69 72 69.4477 72 70C72 70.5523 72.4477 71 73 71L87 71C87.5523 71 88 70.5523 88 70Z" fill="#12131A"/>
<path d="M84 74C84 73.4477 83.5523 73 83 73L77 73C76.4477 73 76 73.4477 76 74C76 74.5523 76.4477 75 77 75H83C83.5523 75 84 74.5523 84 74Z" fill="#12131A"/>
<path d="M32 56C31.4477 56 31 56.4477 31 57V58C31 58.5523 31.4477 59 32 59C32.5523 59 33 58.5523 33 58V57C33 56.4477 32.5523 56 32 56Z" fill="#12131A"/>
<path d="M27.0502 61.0509C26.6597 61.4414 26.0265 61.4414 25.636 61.0509L24.9289 60.3438C24.5384 59.9532 24.5384 59.3201 24.9289 58.9295C25.3194 58.539 25.9526 58.539 26.3431 58.9295L27.0502 59.6366C27.4407 60.0272 27.4407 60.6603 27.0502 61.0509Z" fill="#12131A"/>
<path d="M39.0714 58.9298C38.6808 58.5392 38.0477 58.5392 37.6572 58.9298L36.95 59.6369C36.5595 60.0274 36.5595 60.6606 36.95 61.0511C37.3406 61.4416 37.9737 61.4416 38.3643 61.0511L39.0714 60.344C39.4619 59.9535 39.4619 59.3203 39.0714 58.9298Z" fill="#12131A"/>
<path d="M29 66C29 64.3431 30.3431 63 32 63C33.6569 63 35 64.3431 35 66C35 66.5523 35.4477 67 36 67C36.5523 67 37 66.5523 37 66C37 63.2386 34.7614 61 32 61C29.2386 61 27 63.2386 27 66C27 66.5523 27.4477 67 28 67C28.5523 67 29 66.5523 29 66Z" fill="#12131A"/>
<path d="M41 65C41.5523 65 42 65.4477 42 66C42 66.5523 41.5523 67 41 67H40C39.4477 67 39 66.5523 39 66C39 65.4477 39.4477 65 40 65H41Z" fill="#12131A"/>
<path d="M25 66C25 65.4477 24.5523 65 24 65H23C22.4477 65 22 65.4477 22 66C22 66.5523 22.4477 67 23 67H24C24.5523 67 25 66.5523 25 66Z" fill="#12131A"/>
<path d="M40 70C40 69.4477 39.5523 69 39 69H25C24.4477 69 24 69.4477 24 70C24 70.5523 24.4477 71 25 71L39 71C39.5523 71 40 70.5523 40 70Z" fill="#12131A"/>
<path d="M36 74C36 73.4477 35.5523 73 35 73L29 73C28.4477 73 28 73.4477 28 74C28 74.5523 28.4477 75 29 75H35C35.5523 75 36 74.5523 36 74Z" fill="#12131A"/>
<path d="M5.94141 11.6641C5.94141 11.3805 5.87581 11.1414 5.74463 10.9468C5.61768 10.7521 5.45264 10.5871 5.24951 10.4517C5.04639 10.3205 4.8221 10.2104 4.57666 10.1216C4.33545 10.0327 4.1027 9.95231 3.87842 9.88037C3.55257 9.77458 3.22038 9.64762 2.88184 9.49951C2.54753 9.34717 2.24284 9.1652 1.96777 8.95361C1.68848 8.73779 1.45996 8.48389 1.28223 8.19189C1.10872 7.89567 1.02197 7.54867 1.02197 7.15088C1.02197 6.75309 1.10872 6.39762 1.28223 6.08447C1.45996 5.77132 1.69059 5.50684 1.97412 5.29102C2.25765 5.0752 2.57926 4.91227 2.93896 4.80225C3.29867 4.68799 3.66048 4.63086 4.02441 4.63086C4.42643 4.63086 4.81364 4.69857 5.18604 4.83398C5.55843 4.96517 5.88851 5.15137 6.17627 5.39258C6.46403 5.63379 6.69466 5.92578 6.86816 6.26855C7.04167 6.61133 7.13265 6.9943 7.14111 7.41748H5.93506C5.9012 7.15088 5.83561 6.90967 5.73828 6.69385C5.64095 6.4738 5.51188 6.28548 5.35107 6.12891C5.19027 5.97233 4.99772 5.85173 4.77344 5.76709C4.55339 5.67822 4.30371 5.63379 4.02441 5.63379C3.80013 5.63379 3.58008 5.66553 3.36426 5.729C3.15267 5.79248 2.96436 5.8877 2.79932 6.01465C2.63005 6.1416 2.49463 6.29818 2.39307 6.48438C2.29574 6.67057 2.24707 6.88639 2.24707 7.13184C2.2513 7.39844 2.31901 7.62484 2.4502 7.81104C2.58138 7.993 2.74854 8.14746 2.95166 8.27441C3.15055 8.40137 3.36637 8.50716 3.59912 8.5918C3.8361 8.67643 4.05827 8.75049 4.26562 8.81396C4.6084 8.91976 4.95117 9.04883 5.29395 9.20117C5.63672 9.34928 5.94987 9.53971 6.2334 9.77246C6.5127 9.98828 6.73698 10.2528 6.90625 10.5659C7.07975 10.8791 7.1665 11.2409 7.1665 11.6514C7.1665 12.0661 7.0734 12.4279 6.88721 12.7368C6.70524 13.0457 6.46826 13.3018 6.17627 13.5049C5.88428 13.7122 5.5542 13.8688 5.18604 13.9746C4.81787 14.0762 4.44971 14.127 4.08154 14.127C3.64144 14.127 3.20768 14.0529 2.78027 13.9048C2.3571 13.7567 1.98893 13.543 1.67578 13.2637C1.39648 13.0225 1.17432 12.741 1.00928 12.4194C0.84847 12.0936 0.761719 11.7318 0.749023 11.334H1.94873C1.98682 11.6217 2.0651 11.8778 2.18359 12.1021C2.30208 12.3221 2.45443 12.5083 2.64062 12.6606C2.82682 12.8172 3.04053 12.9357 3.28174 13.0161C3.52718 13.0923 3.79378 13.1304 4.08154 13.1304C4.31006 13.1304 4.53434 13.1029 4.75439 13.0479C4.97868 12.9886 5.17757 12.8976 5.35107 12.7749C5.52458 12.6564 5.66634 12.5062 5.77637 12.3242C5.88639 12.138 5.94141 11.918 5.94141 11.6641ZM11.9463 14.127C11.4639 14.127 11.0195 14.0444 10.6133 13.8794C10.2113 13.7144 9.86637 13.4837 9.57861 13.1875C9.29085 12.8913 9.06657 12.54 8.90576 12.1338C8.74495 11.7275 8.66455 11.2853 8.66455 10.8071V10.5405C8.66455 9.98617 8.75342 9.49105 8.93115 9.05518C9.10889 8.61507 9.34587 8.24268 9.64209 7.93799C9.93408 7.63753 10.2663 7.4069 10.6387 7.24609C11.0153 7.08529 11.4004 7.00488 11.7939 7.00488C12.2891 7.00488 12.7207 7.09163 13.0889 7.26514C13.4613 7.43441 13.7702 7.66927 14.0156 7.96973C14.2611 8.27441 14.443 8.632 14.5615 9.04248C14.6842 9.45296 14.7456 9.8973 14.7456 10.3755V10.9023H9.83887V10.9468C9.86849 11.2811 9.93408 11.5752 10.0356 11.8291C10.1414 12.083 10.2853 12.3073 10.4673 12.502C10.6535 12.7093 10.8778 12.8722 11.1401 12.9907C11.4025 13.1092 11.6924 13.1685 12.0098 13.1685C12.4287 13.1685 12.8011 13.0838 13.127 12.9146C13.4528 12.7453 13.7236 12.521 13.9395 12.2417L14.6567 12.8003C14.4282 13.1473 14.0854 13.4562 13.6284 13.7271C13.1756 13.9937 12.6149 14.127 11.9463 14.127ZM11.7939 7.96973C11.557 7.96973 11.3327 8.01416 11.1211 8.10303C10.9095 8.18766 10.7191 8.3125 10.5498 8.47754C10.3805 8.64681 10.2367 8.85417 10.1182 9.09961C10.0039 9.34082 9.9235 9.62012 9.87695 9.9375H13.5713V9.88037C13.5713 9.66878 13.5311 9.44238 13.4507 9.20117C13.3703 8.95573 13.2581 8.74414 13.1143 8.56641C12.9704 8.38867 12.7884 8.24479 12.5684 8.13477C12.3525 8.02474 12.0944 7.96973 11.7939 7.96973ZM21.2329 14C21.1864 13.9111 21.1483 13.8011 21.1187 13.6699C21.0933 13.5345 21.0742 13.3949 21.0615 13.251C20.943 13.3695 20.8097 13.4816 20.6616 13.5874C20.5177 13.6932 20.359 13.7863 20.1855 13.8667C20.0078 13.9471 19.8195 14.0106 19.6206 14.0571C19.4217 14.1037 19.2101 14.127 18.9858 14.127C18.6219 14.127 18.2918 14.0741 17.9956 13.9683C17.7036 13.8625 17.4561 13.7186 17.2529 13.5366C17.0456 13.3589 16.8848 13.1473 16.7705 12.9019C16.6605 12.6522 16.6055 12.3835 16.6055 12.0957C16.6055 11.7191 16.6795 11.389 16.8276 11.1055C16.98 10.8219 17.1937 10.585 17.4688 10.3945C17.7438 10.2083 18.0739 10.0687 18.459 9.97559C18.8483 9.88249 19.2821 9.83594 19.7603 9.83594H21.0425V9.29639C21.0425 9.08903 21.0044 8.90283 20.9282 8.73779C20.8521 8.57275 20.7441 8.43099 20.6045 8.3125C20.4648 8.19824 20.2935 8.10938 20.0903 8.0459C19.8914 7.98242 19.6672 7.95068 19.4175 7.95068C19.1847 7.95068 18.9753 7.98031 18.7891 8.03955C18.6071 8.0988 18.4526 8.17708 18.3257 8.27441C18.1987 8.37174 18.0993 8.48812 18.0273 8.62354C17.9596 8.75472 17.9258 8.89225 17.9258 9.03613H16.7451C16.7493 8.78646 16.8128 8.54102 16.9355 8.2998C17.0625 8.05859 17.2445 7.84066 17.4814 7.646C17.7142 7.45557 17.9977 7.30111 18.332 7.18262C18.6706 7.06413 19.0535 7.00488 19.481 7.00488C19.8703 7.00488 20.2321 7.05355 20.5664 7.15088C20.9007 7.24398 21.1906 7.38574 21.436 7.57617C21.6772 7.77083 21.8677 8.01204 22.0073 8.2998C22.147 8.58757 22.2168 8.92399 22.2168 9.30908V12.502C22.2168 12.7305 22.238 12.9738 22.2803 13.2319C22.3226 13.4858 22.3818 13.708 22.458 13.8984V14H21.2329ZM19.1572 13.105C19.3857 13.105 19.5994 13.0754 19.7983 13.0161C19.9972 12.9569 20.1792 12.8786 20.3442 12.7812C20.505 12.6839 20.6447 12.5739 20.7632 12.4512C20.8817 12.3242 20.9748 12.193 21.0425 12.0576V10.6675H19.9507C19.5444 10.6675 19.189 10.7035 18.8843 10.7754C18.5838 10.8431 18.3447 10.9489 18.167 11.0928C18.04 11.1943 17.9427 11.3149 17.875 11.4546C17.8115 11.5942 17.7798 11.7529 17.7798 11.9307C17.7798 12.0999 17.8073 12.2565 17.8623 12.4004C17.9215 12.5443 18.0083 12.667 18.1226 12.7686C18.2368 12.8743 18.3807 12.9569 18.5542 13.0161C18.7277 13.0754 18.9287 13.105 19.1572 13.105ZM37.1719 11.6641C37.1719 11.3805 37.1063 11.1414 36.9751 10.9468C36.8481 10.7521 36.6831 10.5871 36.48 10.4517C36.2769 10.3205 36.0526 10.2104 35.8071 10.1216C35.5659 10.0327 35.3332 9.95231 35.1089 9.88037C34.783 9.77458 34.4508 9.64762 34.1123 9.49951C33.778 9.34717 33.4733 9.1652 33.1982 8.95361C32.9189 8.73779 32.6904 8.48389 32.5127 8.19189C32.3392 7.89567 32.2524 7.54867 32.2524 7.15088C32.2524 6.75309 32.3392 6.39762 32.5127 6.08447C32.6904 5.77132 32.9211 5.50684 33.2046 5.29102C33.4881 5.0752 33.8097 4.91227 34.1694 4.80225C34.5291 4.68799 34.891 4.63086 35.2549 4.63086C35.6569 4.63086 36.0441 4.69857 36.4165 4.83398C36.7889 4.96517 37.119 5.15137 37.4067 5.39258C37.6945 5.63379 37.9251 5.92578 38.0986 6.26855C38.2721 6.61133 38.3631 6.9943 38.3716 7.41748H37.1655C37.1317 7.15088 37.0661 6.90967 36.9688 6.69385C36.8714 6.4738 36.7424 6.28548 36.5815 6.12891C36.4207 5.97233 36.2282 5.85173 36.0039 5.76709C35.7839 5.67822 35.5342 5.63379 35.2549 5.63379C35.0306 5.63379 34.8105 5.66553 34.5947 5.729C34.3831 5.79248 34.1948 5.8877 34.0298 6.01465C33.8605 6.1416 33.7251 6.29818 33.6235 6.48438C33.5262 6.67057 33.4775 6.88639 33.4775 7.13184C33.4818 7.39844 33.5495 7.62484 33.6807 7.81104C33.8118 7.993 33.979 8.14746 34.1821 8.27441C34.381 8.40137 34.5968 8.50716 34.8296 8.5918C35.0666 8.67643 35.2887 8.75049 35.4961 8.81396C35.8389 8.91976 36.1816 9.04883 36.5244 9.20117C36.8672 9.34928 37.1803 9.53971 37.4639 9.77246C37.7432 9.98828 37.9674 10.2528 38.1367 10.5659C38.3102 10.8791 38.397 11.2409 38.397 11.6514C38.397 12.0661 38.3039 12.4279 38.1177 12.7368C37.9357 13.0457 37.6987 13.3018 37.4067 13.5049C37.1147 13.7122 36.7847 13.8688 36.4165 13.9746C36.0483 14.0762 35.6802 14.127 35.312 14.127C34.8719 14.127 34.4382 14.0529 34.0107 13.9048C33.5876 13.7567 33.2194 13.543 32.9062 13.2637C32.627 13.0225 32.4048 12.741 32.2397 12.4194C32.0789 12.0936 31.9922 11.7318 31.9795 11.334H33.1792C33.2173 11.6217 33.2956 11.8778 33.4141 12.1021C33.5326 12.3221 33.6849 12.5083 33.8711 12.6606C34.0573 12.8172 34.271 12.9357 34.5122 13.0161C34.7576 13.0923 35.0243 13.1304 35.312 13.1304C35.5405 13.1304 35.7648 13.1029 35.9849 13.0479C36.2091 12.9886 36.408 12.8976 36.5815 12.7749C36.755 12.6564 36.8968 12.5062 37.0068 12.3242C37.1169 12.138 37.1719 11.918 37.1719 11.6641ZM44.6685 14L44.5986 13.0542C44.3701 13.3927 44.0845 13.6572 43.7417 13.8477C43.3989 14.0339 43.0033 14.127 42.5547 14.127C42.195 14.127 41.8691 14.0719 41.5771 13.9619C41.2852 13.8477 41.0355 13.672 40.8281 13.4351C40.6208 13.1981 40.46 12.8976 40.3457 12.5337C40.2357 12.1655 40.1807 11.7254 40.1807 11.2134V7.13184H41.355V11.2261C41.355 11.5985 41.3846 11.9074 41.4438 12.1528C41.5031 12.3983 41.592 12.5929 41.7104 12.7368C41.8289 12.8849 41.9728 12.9886 42.1421 13.0479C42.3156 13.1071 42.5145 13.1367 42.7388 13.1367C43.0011 13.1367 43.236 13.1071 43.4434 13.0479C43.6507 12.9844 43.8306 12.8976 43.9829 12.7876C44.1099 12.6987 44.2199 12.5929 44.313 12.4702C44.4103 12.3433 44.4907 12.2057 44.5542 12.0576V7.13184H45.7349V14H44.6685ZM47.9502 14V7.13184H49.0039L49.0864 8.14746C49.188 8.00358 49.298 7.8724 49.4165 7.75391C49.5392 7.63118 49.6683 7.52539 49.8037 7.43652C50.0068 7.30111 50.2269 7.19743 50.4639 7.12549C50.7051 7.04932 50.959 7.00911 51.2256 7.00488C51.5853 7.00488 51.9111 7.05566 52.2031 7.15723C52.4993 7.25879 52.7511 7.41748 52.9585 7.6333C53.1659 7.84912 53.3245 8.12419 53.4346 8.4585C53.5488 8.78857 53.606 9.18213 53.606 9.63916V14H52.4316V9.66455C52.4316 9.35986 52.3978 9.10173 52.3301 8.89014C52.2624 8.67855 52.1629 8.50716 52.0317 8.37598C51.8963 8.24479 51.7313 8.14958 51.5366 8.09033C51.3462 8.03109 51.1261 8.00146 50.8765 8.00146C50.6606 8.00146 50.4596 8.0332 50.2734 8.09668C50.0872 8.15592 49.9159 8.23844 49.7593 8.34424C49.6323 8.43734 49.5138 8.54525 49.4038 8.66797C49.298 8.79069 49.2049 8.92611 49.1245 9.07422V14H47.9502ZM60.2583 7.00488C60.4741 7.00488 60.6984 7.01969 60.9312 7.04932C61.1681 7.07894 61.3459 7.11914 61.4644 7.16992L61.3057 8.31885C61.0771 8.26807 60.8592 8.2321 60.6519 8.21094C60.4487 8.18555 60.235 8.17285 60.0107 8.17285C59.723 8.17285 59.4627 8.20882 59.23 8.28076C58.9972 8.34847 58.7941 8.45003 58.6206 8.58545C58.464 8.70394 58.3265 8.84993 58.208 9.02344C58.0938 9.19271 57.9985 9.38314 57.9224 9.59473V14H56.7417V7.13184H57.8589L57.9097 8.05225L57.916 8.22363C58.1953 7.84701 58.5296 7.55078 58.9189 7.33496C59.3125 7.11491 59.759 7.00488 60.2583 7.00488ZM63.7495 7.13184H67.2598V12.9844H69.5005V14H63.7495V12.9844H66.0854V8.15381H63.7495V7.13184ZM65.9331 5.3291C65.9331 5.22754 65.9479 5.13232 65.9775 5.04346C66.0114 4.95459 66.0622 4.87842 66.1299 4.81494C66.1849 4.75993 66.2547 4.71761 66.3394 4.68799C66.4282 4.65413 66.5277 4.63721 66.6377 4.63721C66.7477 4.63721 66.8451 4.65413 66.9297 4.68799C67.0143 4.71761 67.0841 4.75993 67.1392 4.81494C67.2069 4.87419 67.2576 4.94824 67.2915 5.03711C67.3254 5.12598 67.3423 5.22331 67.3423 5.3291C67.3423 5.51953 67.283 5.67822 67.1646 5.80518C67.0461 5.93213 66.8704 5.99561 66.6377 5.99561C66.4007 5.99561 66.223 5.93213 66.1045 5.80518C65.9902 5.67822 65.9331 5.51953 65.9331 5.3291ZM75.937 12.1782C75.937 12.0386 75.9095 11.9137 75.8545 11.8037C75.7995 11.6895 75.7064 11.5858 75.5752 11.4927C75.444 11.3996 75.2705 11.3149 75.0547 11.2388C74.8389 11.1584 74.5701 11.0864 74.2485 11.0229C73.855 10.9425 73.4953 10.8452 73.1694 10.731C72.8478 10.6167 72.5728 10.4792 72.3442 10.3184C72.1115 10.1618 71.9316 9.9777 71.8047 9.76611C71.6777 9.55029 71.6143 9.30062 71.6143 9.01709C71.6143 8.73779 71.6799 8.47754 71.811 8.23633C71.9422 7.99089 72.1263 7.77718 72.3633 7.59521C72.6003 7.41325 72.8817 7.26937 73.2075 7.16357C73.5376 7.05778 73.8994 7.00488 74.293 7.00488C74.7161 7.00488 75.097 7.0599 75.4355 7.16992C75.7741 7.27995 76.0618 7.43229 76.2988 7.62695C76.5358 7.82161 76.7178 8.05013 76.8447 8.3125C76.9759 8.57064 77.0415 8.84993 77.0415 9.15039H75.8672C75.8672 9.00228 75.8291 8.8584 75.7529 8.71875C75.6768 8.57487 75.571 8.44792 75.4355 8.33789C75.3001 8.22786 75.1351 8.139 74.9404 8.07129C74.75 8.00358 74.5342 7.96973 74.293 7.96973C74.0433 7.96973 73.8232 7.99723 73.6328 8.05225C73.4466 8.10726 73.2922 8.18132 73.1694 8.27441C73.0425 8.36751 72.9473 8.47542 72.8838 8.59814C72.8203 8.72087 72.7886 8.84782 72.7886 8.979C72.7886 9.11442 72.814 9.23503 72.8647 9.34082C72.9155 9.44661 73.0044 9.54183 73.1313 9.62646C73.2541 9.7111 73.4191 9.78727 73.6265 9.85498C73.8381 9.92269 74.1047 9.98828 74.4263 10.0518C74.8494 10.1406 75.2282 10.2443 75.5625 10.3628C75.8968 10.4771 76.1782 10.6146 76.4067 10.7754C76.6353 10.9404 76.8088 11.1309 76.9272 11.3467C77.05 11.5625 77.1113 11.8122 77.1113 12.0957C77.1113 12.4004 77.0415 12.6776 76.9019 12.9272C76.7664 13.1769 76.576 13.3906 76.3306 13.5684C76.0851 13.7461 75.791 13.8836 75.4482 13.981C75.1055 14.0783 74.731 14.127 74.3247 14.127C73.8592 14.127 73.4445 14.0656 73.0806 13.9429C72.7166 13.8159 72.4098 13.6488 72.1602 13.4414C71.9062 13.2383 71.7116 13.0013 71.5762 12.7305C71.445 12.4596 71.3794 12.1782 71.3794 11.8862H72.5537C72.5706 12.1274 72.6341 12.3306 72.7441 12.4956C72.8584 12.6606 73.0002 12.7939 73.1694 12.8955C73.3345 12.9971 73.5186 13.069 73.7217 13.1113C73.9248 13.1536 74.1258 13.1748 74.3247 13.1748C74.6379 13.1748 74.9108 13.1388 75.1436 13.0669C75.3763 12.9907 75.5583 12.887 75.6895 12.7559C75.7699 12.6755 75.8312 12.5866 75.8735 12.4893C75.9159 12.3919 75.937 12.2882 75.937 12.1782ZM82.2148 14.127C81.7324 14.127 81.2881 14.0444 80.8818 13.8794C80.4798 13.7144 80.1349 13.4837 79.8472 13.1875C79.5594 12.8913 79.3351 12.54 79.1743 12.1338C79.0135 11.7275 78.9331 11.2853 78.9331 10.8071V10.5405C78.9331 9.98617 79.022 9.49105 79.1997 9.05518C79.3774 8.61507 79.6144 8.24268 79.9106 7.93799C80.2026 7.63753 80.5348 7.4069 80.9072 7.24609C81.2839 7.08529 81.6689 7.00488 82.0625 7.00488C82.5576 7.00488 82.9893 7.09163 83.3574 7.26514C83.7298 7.43441 84.0387 7.66927 84.2842 7.96973C84.5296 8.27441 84.7116 8.632 84.8301 9.04248C84.9528 9.45296 85.0142 9.8973 85.0142 10.3755V10.9023H80.1074V10.9468C80.137 11.2811 80.2026 11.5752 80.3042 11.8291C80.41 12.083 80.5539 12.3073 80.7358 12.502C80.922 12.7093 81.1463 12.8722 81.4087 12.9907C81.6711 13.1092 81.9609 13.1685 82.2783 13.1685C82.6973 13.1685 83.0697 13.0838 83.3955 12.9146C83.7214 12.7453 83.9922 12.521 84.208 12.2417L84.9253 12.8003C84.6968 13.1473 84.354 13.4562 83.897 13.7271C83.4442 13.9937 82.8835 14.127 82.2148 14.127ZM82.0625 7.96973C81.8255 7.96973 81.6012 8.01416 81.3896 8.10303C81.1781 8.18766 80.9876 8.3125 80.8184 8.47754C80.6491 8.64681 80.5052 8.85417 80.3867 9.09961C80.2725 9.34082 80.1921 9.62012 80.1455 9.9375H83.8398V9.88037C83.8398 9.66878 83.7996 9.44238 83.7192 9.20117C83.6388 8.95573 83.5267 8.74414 83.3828 8.56641C83.2389 8.38867 83.057 8.24479 82.8369 8.13477C82.6211 8.02474 82.363 7.96973 82.0625 7.96973Z" fill="#696C80"/>
</svg>
