<svg width="160" height="98" viewBox="0 0 160 98" fill="none" xmlns="http://www.w3.org/2000/svg">
<rect x="0.5" y="34.5" width="159" height="63" rx="4.5" stroke="#9747FF" stroke-dasharray="10 5"/>
<path fill-rule="evenodd" clip-rule="evenodd" d="M128.793 66.7929C129.183 66.4024 129.817 66.4024 130.207 66.7929L136.707 73.2929C137.098 73.6834 137.098 74.3166 136.707 74.7071C136.317 75.0976 135.683 75.0976 135.293 74.7071L128.793 68.2071C128.402 67.8166 128.402 67.1834 128.793 66.7929Z" fill="#BABDCC"/>
<path d="M126 57C122.134 57 119 60.134 119 64C119 67.866 122.134 71 126 71C129.866 71 133 67.866 133 64C133 60.134 129.866 57 126 57Z" fill="#12131A"/>
<path fill-rule="evenodd" clip-rule="evenodd" d="M84.2929 70.2929C84.6834 69.9024 85.3166 69.9024 85.7071 70.2929L88.7071 73.2929C89.0976 73.6834 89.0976 74.3166 88.7071 74.7071C88.3166 75.0976 87.6834 75.0976 87.2929 74.7071L84.2929 71.7071C83.9024 71.3166 83.9024 70.6834 84.2929 70.2929Z" fill="#12131A"/>
<path d="M78 57C74.134 57 71 60.134 71 64C71 67.866 74.134 71 78 71C81.866 71 85 67.866 85 64C85 60.134 81.866 57 78 57Z" fill="#12131A"/>
<path fill-rule="evenodd" clip-rule="evenodd" d="M33.7929 67.7929C34.1834 67.4024 34.8166 67.4024 35.2071 67.7929L40.7071 73.2929C41.0976 73.6834 41.0976 74.3166 40.7071 74.7071C40.3166 75.0976 39.6834 75.0976 39.2929 74.7071L33.7929 69.2071C33.4024 68.8166 33.4024 68.1834 33.7929 67.7929Z" fill="#12131A"/>
<path fill-rule="evenodd" clip-rule="evenodd" d="M30 59C27.2386 59 25 61.2386 25 64C25 66.7614 27.2386 69 30 69C32.7614 69 35 66.7614 35 64C35 61.2386 32.7614 59 30 59ZM23 64C23 60.134 26.134 57 30 57C33.866 57 37 60.134 37 64C37 67.866 33.866 71 30 71C26.134 71 23 67.866 23 64Z" fill="#12131A"/>
<path d="M5.94141 11.6641C5.94141 11.3805 5.87581 11.1414 5.74463 10.9468C5.61768 10.7521 5.45264 10.5871 5.24951 10.4517C5.04639 10.3205 4.8221 10.2104 4.57666 10.1216C4.33545 10.0327 4.1027 9.95231 3.87842 9.88037C3.55257 9.77458 3.22038 9.64762 2.88184 9.49951C2.54753 9.34717 2.24284 9.1652 1.96777 8.95361C1.68848 8.73779 1.45996 8.48389 1.28223 8.19189C1.10872 7.89567 1.02197 7.54867 1.02197 7.15088C1.02197 6.75309 1.10872 6.39762 1.28223 6.08447C1.45996 5.77132 1.69059 5.50684 1.97412 5.29102C2.25765 5.0752 2.57926 4.91227 2.93896 4.80225C3.29867 4.68799 3.66048 4.63086 4.02441 4.63086C4.42643 4.63086 4.81364 4.69857 5.18604 4.83398C5.55843 4.96517 5.88851 5.15137 6.17627 5.39258C6.46403 5.63379 6.69466 5.92578 6.86816 6.26855C7.04167 6.61133 7.13265 6.9943 7.14111 7.41748H5.93506C5.9012 7.15088 5.83561 6.90967 5.73828 6.69385C5.64095 6.4738 5.51188 6.28548 5.35107 6.12891C5.19027 5.97233 4.99772 5.85173 4.77344 5.76709C4.55339 5.67822 4.30371 5.63379 4.02441 5.63379C3.80013 5.63379 3.58008 5.66553 3.36426 5.729C3.15267 5.79248 2.96436 5.8877 2.79932 6.01465C2.63005 6.1416 2.49463 6.29818 2.39307 6.48438C2.29574 6.67057 2.24707 6.88639 2.24707 7.13184C2.2513 7.39844 2.31901 7.62484 2.4502 7.81104C2.58138 7.993 2.74854 8.14746 2.95166 8.27441C3.15055 8.40137 3.36637 8.50716 3.59912 8.5918C3.8361 8.67643 4.05827 8.75049 4.26562 8.81396C4.6084 8.91976 4.95117 9.04883 5.29395 9.20117C5.63672 9.34928 5.94987 9.53971 6.2334 9.77246C6.5127 9.98828 6.73698 10.2528 6.90625 10.5659C7.07975 10.8791 7.1665 11.2409 7.1665 11.6514C7.1665 12.0661 7.0734 12.4279 6.88721 12.7368C6.70524 13.0457 6.46826 13.3018 6.17627 13.5049C5.88428 13.7122 5.5542 13.8688 5.18604 13.9746C4.81787 14.0762 4.44971 14.127 4.08154 14.127C3.64144 14.127 3.20768 14.0529 2.78027 13.9048C2.3571 13.7567 1.98893 13.543 1.67578 13.2637C1.39648 13.0225 1.17432 12.741 1.00928 12.4194C0.84847 12.0936 0.761719 11.7318 0.749023 11.334H1.94873C1.98682 11.6217 2.0651 11.8778 2.18359 12.1021C2.30208 12.3221 2.45443 12.5083 2.64062 12.6606C2.82682 12.8172 3.04053 12.9357 3.28174 13.0161C3.52718 13.0923 3.79378 13.1304 4.08154 13.1304C4.31006 13.1304 4.53434 13.1029 4.75439 13.0479C4.97868 12.9886 5.17757 12.8976 5.35107 12.7749C5.52458 12.6564 5.66634 12.5062 5.77637 12.3242C5.88639 12.138 5.94141 11.918 5.94141 11.6641ZM11.9463 14.127C11.4639 14.127 11.0195 14.0444 10.6133 13.8794C10.2113 13.7144 9.86637 13.4837 9.57861 13.1875C9.29085 12.8913 9.06657 12.54 8.90576 12.1338C8.74495 11.7275 8.66455 11.2853 8.66455 10.8071V10.5405C8.66455 9.98617 8.75342 9.49105 8.93115 9.05518C9.10889 8.61507 9.34587 8.24268 9.64209 7.93799C9.93408 7.63753 10.2663 7.4069 10.6387 7.24609C11.0153 7.08529 11.4004 7.00488 11.7939 7.00488C12.2891 7.00488 12.7207 7.09163 13.0889 7.26514C13.4613 7.43441 13.7702 7.66927 14.0156 7.96973C14.2611 8.27441 14.443 8.632 14.5615 9.04248C14.6842 9.45296 14.7456 9.8973 14.7456 10.3755V10.9023H9.83887V10.9468C9.86849 11.2811 9.93408 11.5752 10.0356 11.8291C10.1414 12.083 10.2853 12.3073 10.4673 12.502C10.6535 12.7093 10.8778 12.8722 11.1401 12.9907C11.4025 13.1092 11.6924 13.1685 12.0098 13.1685C12.4287 13.1685 12.8011 13.0838 13.127 12.9146C13.4528 12.7453 13.7236 12.521 13.9395 12.2417L14.6567 12.8003C14.4282 13.1473 14.0854 13.4562 13.6284 13.7271C13.1756 13.9937 12.6149 14.127 11.9463 14.127ZM11.7939 7.96973C11.557 7.96973 11.3327 8.01416 11.1211 8.10303C10.9095 8.18766 10.7191 8.3125 10.5498 8.47754C10.3805 8.64681 10.2367 8.85417 10.1182 9.09961C10.0039 9.34082 9.9235 9.62012 9.87695 9.9375H13.5713V9.88037C13.5713 9.66878 13.5311 9.44238 13.4507 9.20117C13.3703 8.95573 13.2581 8.74414 13.1143 8.56641C12.9704 8.38867 12.7884 8.24479 12.5684 8.13477C12.3525 8.02474 12.0944 7.96973 11.7939 7.96973ZM21.2329 14C21.1864 13.9111 21.1483 13.8011 21.1187 13.6699C21.0933 13.5345 21.0742 13.3949 21.0615 13.251C20.943 13.3695 20.8097 13.4816 20.6616 13.5874C20.5177 13.6932 20.359 13.7863 20.1855 13.8667C20.0078 13.9471 19.8195 14.0106 19.6206 14.0571C19.4217 14.1037 19.2101 14.127 18.9858 14.127C18.6219 14.127 18.2918 14.0741 17.9956 13.9683C17.7036 13.8625 17.4561 13.7186 17.2529 13.5366C17.0456 13.3589 16.8848 13.1473 16.7705 12.9019C16.6605 12.6522 16.6055 12.3835 16.6055 12.0957C16.6055 11.7191 16.6795 11.389 16.8276 11.1055C16.98 10.8219 17.1937 10.585 17.4688 10.3945C17.7438 10.2083 18.0739 10.0687 18.459 9.97559C18.8483 9.88249 19.2821 9.83594 19.7603 9.83594H21.0425V9.29639C21.0425 9.08903 21.0044 8.90283 20.9282 8.73779C20.8521 8.57275 20.7441 8.43099 20.6045 8.3125C20.4648 8.19824 20.2935 8.10938 20.0903 8.0459C19.8914 7.98242 19.6672 7.95068 19.4175 7.95068C19.1847 7.95068 18.9753 7.98031 18.7891 8.03955C18.6071 8.0988 18.4526 8.17708 18.3257 8.27441C18.1987 8.37174 18.0993 8.48812 18.0273 8.62354C17.9596 8.75472 17.9258 8.89225 17.9258 9.03613H16.7451C16.7493 8.78646 16.8128 8.54102 16.9355 8.2998C17.0625 8.05859 17.2445 7.84066 17.4814 7.646C17.7142 7.45557 17.9977 7.30111 18.332 7.18262C18.6706 7.06413 19.0535 7.00488 19.481 7.00488C19.8703 7.00488 20.2321 7.05355 20.5664 7.15088C20.9007 7.24398 21.1906 7.38574 21.436 7.57617C21.6772 7.77083 21.8677 8.01204 22.0073 8.2998C22.147 8.58757 22.2168 8.92399 22.2168 9.30908V12.502C22.2168 12.7305 22.238 12.9738 22.2803 13.2319C22.3226 13.4858 22.3818 13.708 22.458 13.8984V14H21.2329ZM19.1572 13.105C19.3857 13.105 19.5994 13.0754 19.7983 13.0161C19.9972 12.9569 20.1792 12.8786 20.3442 12.7812C20.505 12.6839 20.6447 12.5739 20.7632 12.4512C20.8817 12.3242 20.9748 12.193 21.0425 12.0576V10.6675H19.9507C19.5444 10.6675 19.189 10.7035 18.8843 10.7754C18.5838 10.8431 18.3447 10.9489 18.167 11.0928C18.04 11.1943 17.9427 11.3149 17.875 11.4546C17.8115 11.5942 17.7798 11.7529 17.7798 11.9307C17.7798 12.0999 17.8073 12.2565 17.8623 12.4004C17.9215 12.5443 18.0083 12.667 18.1226 12.7686C18.2368 12.8743 18.3807 12.9569 18.5542 13.0161C18.7277 13.0754 18.9287 13.105 19.1572 13.105ZM29.0278 7.00488C29.2437 7.00488 29.4679 7.01969 29.7007 7.04932C29.9377 7.07894 30.1154 7.11914 30.2339 7.16992L30.0752 8.31885C29.8467 8.26807 29.6287 8.2321 29.4214 8.21094C29.2183 8.18555 29.0046 8.17285 28.7803 8.17285C28.4925 8.17285 28.2323 8.20882 27.9995 8.28076C27.7668 8.34847 27.5636 8.45003 27.3901 8.58545C27.2336 8.70394 27.096 8.84993 26.9775 9.02344C26.8633 9.19271 26.7681 9.38314 26.6919 9.59473V14H25.5112V7.13184H26.6284L26.6792 8.05225L26.6855 8.22363C26.9648 7.84701 27.2992 7.55078 27.6885 7.33496C28.082 7.11491 28.5285 7.00488 29.0278 7.00488ZM35.2612 13.1748C35.4728 13.1748 35.6781 13.141 35.877 13.0732C36.0801 13.0055 36.2599 12.9103 36.4165 12.7876C36.5731 12.6691 36.6979 12.5295 36.791 12.3687C36.8883 12.2036 36.9391 12.0259 36.9434 11.8354H38.0542C38.05 12.1401 37.9696 12.4321 37.813 12.7114C37.6606 12.9865 37.4554 13.2277 37.1973 13.4351C36.9391 13.6466 36.6429 13.8159 36.3086 13.9429C35.9743 14.0656 35.6252 14.127 35.2612 14.127C34.7407 14.127 34.2858 14.0339 33.8965 13.8477C33.5072 13.6615 33.1834 13.4097 32.9253 13.0923C32.6629 12.7791 32.4661 12.4173 32.335 12.0068C32.2038 11.5921 32.1382 11.1562 32.1382 10.6992V10.4326C32.1382 9.97982 32.2038 9.54606 32.335 9.13135C32.4661 8.71663 32.6629 8.35059 32.9253 8.0332C33.1834 7.72005 33.5072 7.47038 33.8965 7.28418C34.2858 7.09798 34.7407 7.00488 35.2612 7.00488C35.6675 7.00488 36.0399 7.07048 36.3784 7.20166C36.7212 7.32861 37.0174 7.50212 37.2671 7.72217C37.5125 7.94645 37.7051 8.21094 37.8447 8.51562C37.9844 8.82031 38.0542 9.14616 38.0542 9.49316H36.9434C36.9391 9.28581 36.8926 9.09115 36.8037 8.90918C36.7191 8.72298 36.6027 8.56006 36.4546 8.42041C36.3065 8.28076 36.1287 8.17074 35.9214 8.09033C35.7183 8.00993 35.4982 7.96973 35.2612 7.96973C34.8973 7.96973 34.5905 8.04378 34.3408 8.19189C34.0954 8.33577 33.8965 8.52409 33.7441 8.75684C33.5918 8.99382 33.4818 9.2583 33.4141 9.55029C33.3506 9.84229 33.3188 10.1364 33.3188 10.4326V10.6992C33.3188 10.9997 33.3506 11.298 33.4141 11.5942C33.4818 11.8862 33.5918 12.1486 33.7441 12.3813C33.8923 12.6183 34.089 12.8109 34.3345 12.959C34.5841 13.1029 34.8931 13.1748 35.2612 13.1748ZM41.3169 8.15381C41.41 8.01416 41.5137 7.88721 41.6279 7.77295C41.7422 7.65446 41.8628 7.55078 41.9897 7.46191C42.1929 7.3138 42.415 7.20166 42.6562 7.12549C42.9017 7.04932 43.1619 7.00911 43.437 7.00488C43.7967 7.00488 44.1226 7.05778 44.4146 7.16357C44.7108 7.26514 44.9626 7.42594 45.1699 7.646C45.3773 7.86605 45.536 8.14535 45.646 8.48389C45.7603 8.8182 45.8174 9.21598 45.8174 9.67725V14H44.6431V9.66455C44.6431 9.39372 44.6113 9.15674 44.5479 8.95361C44.4844 8.74626 44.3913 8.57487 44.2686 8.43945C44.1374 8.29134 43.9723 8.18132 43.7734 8.10938C43.5745 8.0332 43.346 7.99723 43.0879 8.00146C42.8763 8.00146 42.6753 8.03109 42.4849 8.09033C42.2944 8.14958 42.1188 8.23421 41.958 8.34424C41.8311 8.42887 41.7126 8.52832 41.6025 8.64258C41.4967 8.7526 41.4015 8.87533 41.3169 9.01074V14H40.1426V4.25H41.3169V8.15381Z" fill="#696C80"/>
</svg>
