<svg width="160" height="98" viewBox="0 0 160 98" fill="none" xmlns="http://www.w3.org/2000/svg">
<rect x="0.5" y="34.5" width="159" height="63" rx="4.5" stroke="#9747FF" stroke-dasharray="10 5"/>
<path d="M134 57C134 56.4477 133.552 56 133 56C132.448 56 132 56.4477 132 57L132 75C132 75.5523 132.448 76 133 76C133.552 76 134 75.5523 134 75L134 57Z" fill="#BABDCC"/>
<path d="M124 57C124 56.4477 123.552 56 123 56C122.448 56 122 56.4477 122 57L122 75C122 75.5523 122.448 76 123 76C123.552 76 124 75.5523 124 75L124 57Z" fill="#BABDCC"/>
<path d="M130 70C130 71.6569 131.343 73 133 73C134.657 73 136 71.6569 136 70C136 68.3431 134.657 67 133 67C131.343 67 130 68.3431 130 70Z" fill="#12131A"/>
<path d="M120 62C120 63.6569 121.343 65 123 65C124.657 65 126 63.6569 126 62C126 60.3431 124.657 59 123 59C121.343 59 120 60.3431 120 62Z" fill="#12131A"/>
<path d="M86 57C86 56.4477 85.5523 56 85 56C84.4477 56 84 56.4477 84 57V64C84 64.5523 84.4477 65 85 65C85.5523 65 86 64.5523 86 64V57Z" fill="#12131A"/>
<path d="M86 72C86 71.4477 85.5523 71 85 71C84.4477 71 84 71.4477 84 72V75C84 75.5523 84.4477 76 85 76C85.5523 76 86 75.5523 86 75V72Z" fill="#12131A"/>
<path d="M75 56C75.5523 56 76 56.4477 76 57L76 60C76 60.5523 75.5523 61 75 61C74.4477 61 74 60.5523 74 60L74 57C74 56.4477 74.4477 56 75 56Z" fill="#12131A"/>
<path d="M76 68C76 67.4477 75.5523 67 75 67C74.4477 67 74 67.4477 74 68L74 75C74 75.5523 74.4477 76 75 76C75.5523 76 76 75.5523 76 75L76 68Z" fill="#12131A"/>
<path d="M82 70C82 71.6569 83.3431 73 85 73C86.6569 73 88 71.6569 88 70C88 68.3431 86.6569 67 85 67C83.3431 67 82 68.3431 82 70Z" fill="#12131A"/>
<path d="M72 62C72 63.6569 73.3431 65 75 65C76.6569 65 78 63.6569 78 62C78 60.3431 76.6569 59 75 59C73.3431 59 72 60.3431 72 62Z" fill="#12131A"/>
<path d="M37 76C37.5523 76 38 75.5523 38 75V71H36V75C36 75.5523 36.4477 76 37 76Z" fill="#12131A"/>
<path d="M28 75C28 75.5523 27.5523 76 27 76C26.4477 76 26 75.5523 26 75V63H28V75Z" fill="#12131A"/>
<path d="M28 61H26V57C26 56.4477 26.4477 56 27 56C27.5523 56 28 56.4477 28 57V61Z" fill="#12131A"/>
<path d="M38 69H36V57C36 56.4477 36.4477 56 37 56C37.5523 56 38 56.4477 38 57V69Z" fill="#12131A"/>
<path fill-rule="evenodd" clip-rule="evenodd" d="M30 62C30 63.6569 28.6569 65 27 65C25.3431 65 24 63.6569 24 62C24 60.3431 25.3431 59 27 59C28.6569 59 30 60.3431 30 62ZM28 62C28 62.5523 27.5523 63 27 63C26.4477 63 26 62.5523 26 62C26 61.4477 26.4477 61 27 61C27.5523 61 28 61.4477 28 62Z" fill="#12131A"/>
<path fill-rule="evenodd" clip-rule="evenodd" d="M40 70C40 71.6569 38.6569 73 37 73C35.3431 73 34 71.6569 34 70C34 68.3431 35.3431 67 37 67C38.6569 67 40 68.3431 40 70ZM38 70C38 70.5523 37.5523 71 37 71C36.4477 71 36 70.5523 36 70C36 69.4477 36.4477 69 37 69C37.5523 69 38 69.4477 38 70Z" fill="#12131A"/>
<path d="M5.94141 11.6641C5.94141 11.3805 5.87581 11.1414 5.74463 10.9468C5.61768 10.7521 5.45264 10.5871 5.24951 10.4517C5.04639 10.3205 4.8221 10.2104 4.57666 10.1216C4.33545 10.0327 4.1027 9.95231 3.87842 9.88037C3.55257 9.77458 3.22038 9.64762 2.88184 9.49951C2.54753 9.34717 2.24284 9.1652 1.96777 8.95361C1.68848 8.73779 1.45996 8.48389 1.28223 8.19189C1.10872 7.89567 1.02197 7.54867 1.02197 7.15088C1.02197 6.75309 1.10872 6.39762 1.28223 6.08447C1.45996 5.77132 1.69059 5.50684 1.97412 5.29102C2.25765 5.0752 2.57926 4.91227 2.93896 4.80225C3.29867 4.68799 3.66048 4.63086 4.02441 4.63086C4.42643 4.63086 4.81364 4.69857 5.18604 4.83398C5.55843 4.96517 5.88851 5.15137 6.17627 5.39258C6.46403 5.63379 6.69466 5.92578 6.86816 6.26855C7.04167 6.61133 7.13265 6.9943 7.14111 7.41748H5.93506C5.9012 7.15088 5.83561 6.90967 5.73828 6.69385C5.64095 6.4738 5.51188 6.28548 5.35107 6.12891C5.19027 5.97233 4.99772 5.85173 4.77344 5.76709C4.55339 5.67822 4.30371 5.63379 4.02441 5.63379C3.80013 5.63379 3.58008 5.66553 3.36426 5.729C3.15267 5.79248 2.96436 5.8877 2.79932 6.01465C2.63005 6.1416 2.49463 6.29818 2.39307 6.48438C2.29574 6.67057 2.24707 6.88639 2.24707 7.13184C2.2513 7.39844 2.31901 7.62484 2.4502 7.81104C2.58138 7.993 2.74854 8.14746 2.95166 8.27441C3.15055 8.40137 3.36637 8.50716 3.59912 8.5918C3.8361 8.67643 4.05827 8.75049 4.26562 8.81396C4.6084 8.91976 4.95117 9.04883 5.29395 9.20117C5.63672 9.34928 5.94987 9.53971 6.2334 9.77246C6.5127 9.98828 6.73698 10.2528 6.90625 10.5659C7.07975 10.8791 7.1665 11.2409 7.1665 11.6514C7.1665 12.0661 7.0734 12.4279 6.88721 12.7368C6.70524 13.0457 6.46826 13.3018 6.17627 13.5049C5.88428 13.7122 5.5542 13.8688 5.18604 13.9746C4.81787 14.0762 4.44971 14.127 4.08154 14.127C3.64144 14.127 3.20768 14.0529 2.78027 13.9048C2.3571 13.7567 1.98893 13.543 1.67578 13.2637C1.39648 13.0225 1.17432 12.741 1.00928 12.4194C0.84847 12.0936 0.761719 11.7318 0.749023 11.334H1.94873C1.98682 11.6217 2.0651 11.8778 2.18359 12.1021C2.30208 12.3221 2.45443 12.5083 2.64062 12.6606C2.82682 12.8172 3.04053 12.9357 3.28174 13.0161C3.52718 13.0923 3.79378 13.1304 4.08154 13.1304C4.31006 13.1304 4.53434 13.1029 4.75439 13.0479C4.97868 12.9886 5.17757 12.8976 5.35107 12.7749C5.52458 12.6564 5.66634 12.5062 5.77637 12.3242C5.88639 12.138 5.94141 11.918 5.94141 11.6641ZM11.9463 14.127C11.4639 14.127 11.0195 14.0444 10.6133 13.8794C10.2113 13.7144 9.86637 13.4837 9.57861 13.1875C9.29085 12.8913 9.06657 12.54 8.90576 12.1338C8.74495 11.7275 8.66455 11.2853 8.66455 10.8071V10.5405C8.66455 9.98617 8.75342 9.49105 8.93115 9.05518C9.10889 8.61507 9.34587 8.24268 9.64209 7.93799C9.93408 7.63753 10.2663 7.4069 10.6387 7.24609C11.0153 7.08529 11.4004 7.00488 11.7939 7.00488C12.2891 7.00488 12.7207 7.09163 13.0889 7.26514C13.4613 7.43441 13.7702 7.66927 14.0156 7.96973C14.2611 8.27441 14.443 8.632 14.5615 9.04248C14.6842 9.45296 14.7456 9.8973 14.7456 10.3755V10.9023H9.83887V10.9468C9.86849 11.2811 9.93408 11.5752 10.0356 11.8291C10.1414 12.083 10.2853 12.3073 10.4673 12.502C10.6535 12.7093 10.8778 12.8722 11.1401 12.9907C11.4025 13.1092 11.6924 13.1685 12.0098 13.1685C12.4287 13.1685 12.8011 13.0838 13.127 12.9146C13.4528 12.7453 13.7236 12.521 13.9395 12.2417L14.6567 12.8003C14.4282 13.1473 14.0854 13.4562 13.6284 13.7271C13.1756 13.9937 12.6149 14.127 11.9463 14.127ZM11.7939 7.96973C11.557 7.96973 11.3327 8.01416 11.1211 8.10303C10.9095 8.18766 10.7191 8.3125 10.5498 8.47754C10.3805 8.64681 10.2367 8.85417 10.1182 9.09961C10.0039 9.34082 9.9235 9.62012 9.87695 9.9375H13.5713V9.88037C13.5713 9.66878 13.5311 9.44238 13.4507 9.20117C13.3703 8.95573 13.2581 8.74414 13.1143 8.56641C12.9704 8.38867 12.7884 8.24479 12.5684 8.13477C12.3525 8.02474 12.0944 7.96973 11.7939 7.96973ZM19.5 5.46875V7.13184H22.1152V8.03955H19.5V11.772C19.5 12.0386 19.5339 12.2586 19.6016 12.4321C19.6693 12.6056 19.7624 12.7432 19.8809 12.8447C19.9993 12.9505 20.1348 13.0246 20.2871 13.0669C20.4437 13.1092 20.6087 13.1304 20.7822 13.1304C20.9092 13.1304 21.0404 13.124 21.1758 13.1113C21.3112 13.0944 21.4445 13.0754 21.5757 13.0542C21.7026 13.033 21.8211 13.0119 21.9312 12.9907C22.0454 12.9653 22.1385 12.9442 22.2104 12.9272L22.3755 13.7588C22.2782 13.818 22.1597 13.8709 22.02 13.9175C21.8804 13.9598 21.728 13.9958 21.563 14.0254C21.3979 14.0592 21.2223 14.0846 21.0361 14.1016C20.8542 14.1185 20.6722 14.127 20.4902 14.127C20.1855 14.127 19.8999 14.0846 19.6333 14C19.3709 13.9111 19.1424 13.7715 18.9478 13.5811C18.7531 13.3949 18.5986 13.1536 18.4844 12.8574C18.3743 12.557 18.3193 12.1951 18.3193 11.772V8.03955H16.5166V7.13184H18.3193V5.46875H19.5ZM27.3076 5.46875V7.13184H29.9229V8.03955H27.3076V11.772C27.3076 12.0386 27.3415 12.2586 27.4092 12.4321C27.4769 12.6056 27.57 12.7432 27.6885 12.8447C27.807 12.9505 27.9424 13.0246 28.0947 13.0669C28.2513 13.1092 28.4163 13.1304 28.5898 13.1304C28.7168 13.1304 28.848 13.124 28.9834 13.1113C29.1188 13.0944 29.2521 13.0754 29.3833 13.0542C29.5103 13.033 29.6287 13.0119 29.7388 12.9907C29.853 12.9653 29.9461 12.9442 30.0181 12.9272L30.1831 13.7588C30.0858 13.818 29.9673 13.8709 29.8276 13.9175C29.688 13.9598 29.5356 13.9958 29.3706 14.0254C29.2056 14.0592 29.0299 14.0846 28.8438 14.1016C28.6618 14.1185 28.4798 14.127 28.2979 14.127C27.9932 14.127 27.7075 14.0846 27.4409 14C27.1785 13.9111 26.95 13.7715 26.7554 13.5811C26.5607 13.3949 26.4062 13.1536 26.292 12.8574C26.182 12.557 26.127 12.1951 26.127 11.772V8.03955H24.3242V7.13184H26.127V5.46875H27.3076ZM32.519 7.13184H36.0293V12.9844H38.27V14H32.519V12.9844H34.855V8.15381H32.519V7.13184ZM34.7026 5.3291C34.7026 5.22754 34.7174 5.13232 34.7471 5.04346C34.7809 4.95459 34.8317 4.87842 34.8994 4.81494C34.9544 4.75993 35.0243 4.71761 35.1089 4.68799C35.1978 4.65413 35.2972 4.63721 35.4072 4.63721C35.5173 4.63721 35.6146 4.65413 35.6992 4.68799C35.7839 4.71761 35.8537 4.75993 35.9087 4.81494C35.9764 4.87419 36.0272 4.94824 36.061 5.03711C36.0949 5.12598 36.1118 5.22331 36.1118 5.3291C36.1118 5.51953 36.0526 5.67822 35.9341 5.80518C35.8156 5.93213 35.64 5.99561 35.4072 5.99561C35.1702 5.99561 34.9925 5.93213 34.874 5.80518C34.7598 5.67822 34.7026 5.51953 34.7026 5.3291ZM40.1426 14V7.13184H41.1963L41.2788 8.14746C41.3804 8.00358 41.4904 7.8724 41.6089 7.75391C41.7316 7.63118 41.8607 7.52539 41.9961 7.43652C42.1992 7.30111 42.4193 7.19743 42.6562 7.12549C42.8975 7.04932 43.1514 7.00911 43.418 7.00488C43.7777 7.00488 44.1035 7.05566 44.3955 7.15723C44.6917 7.25879 44.9435 7.41748 45.1509 7.6333C45.3582 7.84912 45.5169 8.12419 45.627 8.4585C45.7412 8.78857 45.7983 9.18213 45.7983 9.63916V14H44.624V9.66455C44.624 9.35986 44.5902 9.10173 44.5225 8.89014C44.4548 8.67855 44.3553 8.50716 44.2241 8.37598C44.0887 8.24479 43.9237 8.14958 43.729 8.09033C43.5386 8.03109 43.3185 8.00146 43.0688 8.00146C42.853 8.00146 42.652 8.0332 42.4658 8.09668C42.2796 8.15592 42.1082 8.23844 41.9517 8.34424C41.8247 8.43734 41.7062 8.54525 41.5962 8.66797C41.4904 8.79069 41.3973 8.92611 41.3169 9.07422V14H40.1426ZM47.7344 10.5088C47.7344 9.99674 47.7957 9.52702 47.9185 9.09961C48.0454 8.66797 48.2274 8.29769 48.4644 7.98877C48.7013 7.67985 48.9891 7.43864 49.3276 7.26514C49.6662 7.09163 50.0492 7.00488 50.4766 7.00488C50.7516 7.00488 51.0034 7.03662 51.2319 7.1001C51.4647 7.16357 51.6742 7.25667 51.8604 7.37939C51.9619 7.44287 52.0571 7.51693 52.146 7.60156C52.2391 7.6862 52.3258 7.7793 52.4062 7.88086L52.4634 7.13184H53.5298V13.854C53.5298 14.3068 53.4578 14.7088 53.314 15.0601C53.1743 15.4113 52.9775 15.7096 52.7236 15.9551C52.4655 16.2005 52.1587 16.3867 51.8032 16.5137C51.4478 16.6406 51.0542 16.7041 50.6226 16.7041C50.4448 16.7041 50.2417 16.6829 50.0132 16.6406C49.7847 16.6025 49.554 16.5369 49.3213 16.4438C49.0843 16.355 48.8558 16.2344 48.6357 16.082C48.4199 15.9297 48.2337 15.7414 48.0771 15.5171L48.6865 14.8125C48.8304 14.986 48.9785 15.132 49.1309 15.2505C49.2832 15.3732 49.4377 15.4705 49.5942 15.5425C49.7508 15.6144 49.9074 15.6652 50.064 15.6948C50.2205 15.7287 50.3771 15.7456 50.5337 15.7456C50.813 15.7456 51.0648 15.7054 51.2891 15.625C51.5133 15.5446 51.7059 15.4261 51.8667 15.2695C52.0233 15.1172 52.1439 14.9268 52.2285 14.6982C52.3132 14.4697 52.3555 14.2074 52.3555 13.9111V13.3208C52.2666 13.4224 52.1714 13.5155 52.0698 13.6001C51.9725 13.6847 51.8667 13.7588 51.7524 13.8223C51.5747 13.9196 51.3779 13.9937 51.1621 14.0444C50.9463 14.0994 50.7135 14.127 50.4639 14.127C50.0449 14.127 49.6662 14.0381 49.3276 13.8604C48.9891 13.6826 48.7035 13.4372 48.4707 13.124C48.2337 12.8109 48.0518 12.4427 47.9248 12.0195C47.7979 11.5921 47.7344 11.133 47.7344 10.6421V10.5088ZM48.9087 10.6421C48.9087 10.9764 48.9425 11.2938 49.0103 11.5942C49.0822 11.8947 49.1943 12.1592 49.3467 12.3877C49.4948 12.6162 49.6852 12.7982 49.918 12.9336C50.1507 13.0648 50.43 13.1304 50.7559 13.1304C50.959 13.1304 51.141 13.1071 51.3018 13.0605C51.4668 13.0098 51.6149 12.9399 51.7461 12.8511C51.873 12.7622 51.9873 12.6564 52.0889 12.5337C52.1904 12.411 52.2793 12.2756 52.3555 12.1274V8.979C52.2793 8.83512 52.1904 8.70394 52.0889 8.58545C51.9873 8.46696 51.8709 8.36328 51.7397 8.27441C51.6086 8.18978 51.4626 8.12419 51.3018 8.07764C51.141 8.02686 50.9632 8.00146 50.7686 8.00146C50.4385 8.00146 50.1549 8.06917 49.918 8.20459C49.6852 8.34001 49.4948 8.52197 49.3467 8.75049C49.1943 8.98324 49.0822 9.25195 49.0103 9.55664C48.9425 9.8571 48.9087 10.1745 48.9087 10.5088V10.6421ZM60.3218 12.1782C60.3218 12.0386 60.2943 11.9137 60.2393 11.8037C60.1842 11.6895 60.0911 11.5858 59.96 11.4927C59.8288 11.3996 59.6553 11.3149 59.4395 11.2388C59.2236 11.1584 58.9549 11.0864 58.6333 11.0229C58.2397 10.9425 57.88 10.8452 57.5542 10.731C57.2326 10.6167 56.9575 10.4792 56.729 10.3184C56.4963 10.1618 56.3164 9.9777 56.1895 9.76611C56.0625 9.55029 55.999 9.30062 55.999 9.01709C55.999 8.73779 56.0646 8.47754 56.1958 8.23633C56.327 7.99089 56.5111 7.77718 56.748 7.59521C56.985 7.41325 57.2664 7.26937 57.5923 7.16357C57.9224 7.05778 58.2842 7.00488 58.6777 7.00488C59.1009 7.00488 59.4818 7.0599 59.8203 7.16992C60.1589 7.27995 60.4466 7.43229 60.6836 7.62695C60.9206 7.82161 61.1025 8.05013 61.2295 8.3125C61.3607 8.57064 61.4263 8.84993 61.4263 9.15039H60.252C60.252 9.00228 60.2139 8.8584 60.1377 8.71875C60.0615 8.57487 59.9557 8.44792 59.8203 8.33789C59.6849 8.22786 59.5199 8.139 59.3252 8.07129C59.1348 8.00358 58.9189 7.96973 58.6777 7.96973C58.4281 7.96973 58.208 7.99723 58.0176 8.05225C57.8314 8.10726 57.6769 8.18132 57.5542 8.27441C57.4272 8.36751 57.332 8.47542 57.2686 8.59814C57.2051 8.72087 57.1733 8.84782 57.1733 8.979C57.1733 9.11442 57.1987 9.23503 57.2495 9.34082C57.3003 9.44661 57.3892 9.54183 57.5161 9.62646C57.6388 9.7111 57.8039 9.78727 58.0112 9.85498C58.2228 9.92269 58.4894 9.98828 58.811 10.0518C59.2342 10.1406 59.613 10.2443 59.9473 10.3628C60.2816 10.4771 60.563 10.6146 60.7915 10.7754C61.02 10.9404 61.1935 11.1309 61.312 11.3467C61.4347 11.5625 61.4961 11.8122 61.4961 12.0957C61.4961 12.4004 61.4263 12.6776 61.2866 12.9272C61.1512 13.1769 60.9608 13.3906 60.7153 13.5684C60.4699 13.7461 60.1758 13.8836 59.833 13.981C59.4902 14.0783 59.1157 14.127 58.7095 14.127C58.244 14.127 57.8293 14.0656 57.4653 13.9429C57.1014 13.8159 56.7946 13.6488 56.5449 13.4414C56.291 13.2383 56.0964 13.0013 55.9609 12.7305C55.8298 12.4596 55.7642 12.1782 55.7642 11.8862H56.9385C56.9554 12.1274 57.0189 12.3306 57.1289 12.4956C57.2432 12.6606 57.3849 12.7939 57.5542 12.8955C57.7192 12.9971 57.9033 13.069 58.1064 13.1113C58.3096 13.1536 58.5106 13.1748 58.7095 13.1748C59.0226 13.1748 59.2956 13.1388 59.5283 13.0669C59.7611 12.9907 59.943 12.887 60.0742 12.7559C60.1546 12.6755 60.216 12.5866 60.2583 12.4893C60.3006 12.3919 60.3218 12.2882 60.3218 12.1782ZM75.7847 11.6069H72.6997L71.957 14H70.7827L73.7661 4.75781H74.75L77.6826 14H76.5146L75.7847 11.6069ZM73.0171 10.585H75.4736L74.2549 6.57324L73.0171 10.585ZM78.9585 10.5088C78.9585 9.99674 79.022 9.52702 79.1489 9.09961C79.2801 8.66797 79.4663 8.29769 79.7075 7.98877C79.9445 7.67985 80.2323 7.43864 80.5708 7.26514C80.9093 7.09163 81.2881 7.00488 81.707 7.00488C82.1175 7.00488 82.4751 7.07471 82.7798 7.21436C83.0887 7.34977 83.3553 7.54867 83.5796 7.81104V4.25H84.7539V14H83.6748L83.624 13.2764C83.3955 13.5557 83.1226 13.7673 82.8052 13.9111C82.4878 14.055 82.1175 14.127 81.6943 14.127C81.2796 14.127 80.903 14.0381 80.5645 13.8604C80.2301 13.6826 79.9445 13.4372 79.7075 13.124C79.4705 12.8109 79.2865 12.4427 79.1553 12.0195C79.0241 11.5921 78.9585 11.133 78.9585 10.6421V10.5088ZM80.1328 10.6421C80.1328 10.9764 80.1688 11.2938 80.2407 11.5942C80.3127 11.8947 80.4248 12.1592 80.5771 12.3877C80.7253 12.6162 80.9157 12.7982 81.1484 12.9336C81.3812 13.0648 81.6605 13.1304 81.9863 13.1304C82.3799 13.1304 82.7057 13.0415 82.9639 12.8638C83.222 12.686 83.4272 12.4469 83.5796 12.1465V8.95996C83.4272 8.68066 83.222 8.45215 82.9639 8.27441C82.7057 8.09245 82.3841 8.00146 81.999 8.00146C81.6689 8.00146 81.3854 8.06917 81.1484 8.20459C80.9157 8.34001 80.7253 8.52197 80.5771 8.75049C80.4248 8.98324 80.3127 9.25195 80.2407 9.55664C80.1688 9.8571 80.1328 10.1745 80.1328 10.5088V10.6421ZM87.7817 7.13184H91.2476V14.0444C91.2476 14.4845 91.1862 14.8739 91.0635 15.2124C90.945 15.5509 90.7715 15.8345 90.543 16.063C90.3102 16.2957 90.0267 16.4714 89.6924 16.5898C89.3623 16.7126 88.9857 16.7739 88.5625 16.7739C88.4313 16.7739 88.3044 16.7718 88.1816 16.7676C88.0589 16.7633 87.9383 16.757 87.8198 16.7485C87.7225 16.7401 87.6252 16.7274 87.5278 16.7104C87.4305 16.6978 87.3289 16.6829 87.2231 16.666L87.3057 15.7012C87.3776 15.7139 87.4686 15.7244 87.5786 15.7329C87.6886 15.7456 87.8008 15.7541 87.915 15.7583C88.0251 15.7668 88.1309 15.771 88.2324 15.771C88.3382 15.7752 88.4207 15.7773 88.48 15.7773C88.7 15.7773 88.9074 15.7477 89.1021 15.6885C89.2967 15.6335 89.466 15.5382 89.6099 15.4028C89.7537 15.2674 89.8659 15.0876 89.9463 14.8633C90.0309 14.6432 90.0732 14.3703 90.0732 14.0444V8.15381H87.7817V7.13184ZM89.9082 5.32275C89.9082 5.13232 89.9653 4.97152 90.0796 4.84033C90.1938 4.70492 90.3695 4.63721 90.6064 4.63721C90.8434 4.63721 91.0212 4.70492 91.1396 4.84033C91.2581 4.97152 91.3174 5.13232 91.3174 5.32275C91.3174 5.51318 91.2581 5.67399 91.1396 5.80518C91.0212 5.93213 90.8434 5.99561 90.6064 5.99561C90.3695 5.99561 90.1938 5.93213 90.0796 5.80518C89.9653 5.67399 89.9082 5.51318 89.9082 5.32275ZM99.3218 14L99.252 13.0542C99.0234 13.3927 98.7378 13.6572 98.395 13.8477C98.0522 14.0339 97.6566 14.127 97.208 14.127C96.8483 14.127 96.5225 14.0719 96.2305 13.9619C95.9385 13.8477 95.6888 13.672 95.4814 13.4351C95.2741 13.1981 95.1133 12.8976 94.999 12.5337C94.889 12.1655 94.834 11.7254 94.834 11.2134V7.13184H96.0083V11.2261C96.0083 11.5985 96.0379 11.9074 96.0972 12.1528C96.1564 12.3983 96.2453 12.5929 96.3638 12.7368C96.4823 12.8849 96.6261 12.9886 96.7954 13.0479C96.9689 13.1071 97.1678 13.1367 97.3921 13.1367C97.6545 13.1367 97.8893 13.1071 98.0967 13.0479C98.304 12.9844 98.4839 12.8976 98.6362 12.7876C98.7632 12.6987 98.8732 12.5929 98.9663 12.4702C99.0636 12.3433 99.144 12.2057 99.2075 12.0576V7.13184H100.388V14H99.3218ZM107.167 12.1782C107.167 12.0386 107.14 11.9137 107.085 11.8037C107.03 11.6895 106.937 11.5858 106.806 11.4927C106.674 11.3996 106.501 11.3149 106.285 11.2388C106.069 11.1584 105.801 11.0864 105.479 11.0229C105.085 10.9425 104.726 10.8452 104.4 10.731C104.078 10.6167 103.803 10.4792 103.575 10.3184C103.342 10.1618 103.162 9.9777 103.035 9.76611C102.908 9.55029 102.845 9.30062 102.845 9.01709C102.845 8.73779 102.91 8.47754 103.042 8.23633C103.173 7.99089 103.357 7.77718 103.594 7.59521C103.831 7.41325 104.112 7.26937 104.438 7.16357C104.768 7.05778 105.13 7.00488 105.523 7.00488C105.947 7.00488 106.327 7.0599 106.666 7.16992C107.005 7.27995 107.292 7.43229 107.529 7.62695C107.766 7.82161 107.948 8.05013 108.075 8.3125C108.206 8.57064 108.272 8.84993 108.272 9.15039H107.098C107.098 9.00228 107.06 8.8584 106.983 8.71875C106.907 8.57487 106.801 8.44792 106.666 8.33789C106.531 8.22786 106.366 8.139 106.171 8.07129C105.98 8.00358 105.765 7.96973 105.523 7.96973C105.274 7.96973 105.054 7.99723 104.863 8.05225C104.677 8.10726 104.523 8.18132 104.4 8.27441C104.273 8.36751 104.178 8.47542 104.114 8.59814C104.051 8.72087 104.019 8.84782 104.019 8.979C104.019 9.11442 104.044 9.23503 104.095 9.34082C104.146 9.44661 104.235 9.54183 104.362 9.62646C104.485 9.7111 104.65 9.78727 104.857 9.85498C105.069 9.92269 105.335 9.98828 105.657 10.0518C106.08 10.1406 106.459 10.2443 106.793 10.3628C107.127 10.4771 107.409 10.6146 107.637 10.7754C107.866 10.9404 108.039 11.1309 108.158 11.3467C108.28 11.5625 108.342 11.8122 108.342 12.0957C108.342 12.4004 108.272 12.6776 108.132 12.9272C107.997 13.1769 107.806 13.3906 107.561 13.5684C107.316 13.7461 107.021 13.8836 106.679 13.981C106.336 14.0783 105.961 14.127 105.555 14.127C105.09 14.127 104.675 14.0656 104.311 13.9429C103.947 13.8159 103.64 13.6488 103.391 13.4414C103.137 13.2383 102.942 13.0013 102.807 12.7305C102.675 12.4596 102.61 12.1782 102.61 11.8862H103.784C103.801 12.1274 103.865 12.3306 103.975 12.4956C104.089 12.6606 104.231 12.7939 104.4 12.8955C104.565 12.9971 104.749 13.069 104.952 13.1113C105.155 13.1536 105.356 13.1748 105.555 13.1748C105.868 13.1748 106.141 13.1388 106.374 13.0669C106.607 12.9907 106.789 12.887 106.92 12.7559C107 12.6755 107.062 12.5866 107.104 12.4893C107.146 12.3919 107.167 12.2882 107.167 12.1782ZM113.191 5.46875V7.13184H115.807V8.03955H113.191V11.772C113.191 12.0386 113.225 12.2586 113.293 12.4321C113.361 12.6056 113.454 12.7432 113.572 12.8447C113.691 12.9505 113.826 13.0246 113.979 13.0669C114.135 13.1092 114.3 13.1304 114.474 13.1304C114.601 13.1304 114.732 13.124 114.867 13.1113C115.003 13.0944 115.136 13.0754 115.267 13.0542C115.394 13.033 115.513 13.0119 115.623 12.9907C115.737 12.9653 115.83 12.9442 115.902 12.9272L116.067 13.7588C115.97 13.818 115.851 13.8709 115.711 13.9175C115.572 13.9598 115.419 13.9958 115.254 14.0254C115.089 14.0592 114.914 14.0846 114.728 14.1016C114.546 14.1185 114.364 14.127 114.182 14.127C113.877 14.127 113.591 14.0846 113.325 14C113.062 13.9111 112.834 13.7715 112.639 13.5811C112.444 13.3949 112.29 13.1536 112.176 12.8574C112.066 12.557 112.011 12.1951 112.011 11.772V8.03955H110.208V7.13184H112.011V5.46875H113.191ZM128.369 14L125.544 7.13184H126.75L128.718 12.3115L128.826 12.7368L128.94 12.3115L130.863 7.13184H132.063L129.264 14H128.369ZM138.334 7.00488C138.55 7.00488 138.775 7.01969 139.007 7.04932C139.244 7.07894 139.422 7.11914 139.541 7.16992L139.382 8.31885C139.153 8.26807 138.935 8.2321 138.728 8.21094C138.525 8.18555 138.311 8.17285 138.087 8.17285C137.799 8.17285 137.539 8.20882 137.306 8.28076C137.073 8.34847 136.87 8.45003 136.697 8.58545C136.54 8.70394 136.403 8.84993 136.284 9.02344C136.17 9.19271 136.075 9.38314 135.999 9.59473V14H134.818V7.13184H135.935L135.986 8.05225L135.992 8.22363C136.271 7.84701 136.606 7.55078 136.995 7.33496C137.389 7.11491 137.835 7.00488 138.334 7.00488ZM146.777 10.439H141.921V9.47412H146.777V10.439ZM5.61768 31C5.57113 30.9111 5.53304 30.8011 5.50342 30.6699C5.47803 30.5345 5.45898 30.3949 5.44629 30.251C5.3278 30.3695 5.1945 30.4816 5.04639 30.5874C4.90251 30.6932 4.74382 30.7863 4.57031 30.8667C4.39258 30.9471 4.20426 31.0106 4.00537 31.0571C3.80648 31.1037 3.59489 31.127 3.37061 31.127C3.00667 31.127 2.6766 31.0741 2.38037 30.9683C2.08838 30.8625 1.84082 30.7186 1.6377 30.5366C1.43034 30.3589 1.26953 30.1473 1.15527 29.9019C1.04525 29.6522 0.990234 29.3835 0.990234 29.0957C0.990234 28.7191 1.06429 28.389 1.2124 28.1055C1.36475 27.8219 1.57845 27.585 1.85352 27.3945C2.12858 27.2083 2.45866 27.0687 2.84375 26.9756C3.23307 26.8825 3.66683 26.8359 4.14502 26.8359H5.42725V26.2964C5.42725 26.089 5.38916 25.9028 5.31299 25.7378C5.23682 25.5728 5.12891 25.431 4.98926 25.3125C4.84961 25.1982 4.67822 25.1094 4.4751 25.0459C4.2762 24.9824 4.05192 24.9507 3.80225 24.9507C3.5695 24.9507 3.36003 24.9803 3.17383 25.0396C2.99186 25.0988 2.8374 25.1771 2.71045 25.2744C2.5835 25.3717 2.48405 25.4881 2.41211 25.6235C2.3444 25.7547 2.31055 25.8923 2.31055 26.0361H1.12988C1.13411 25.7865 1.19759 25.541 1.32031 25.2998C1.44727 25.0586 1.62923 24.8407 1.86621 24.646C2.09896 24.4556 2.38249 24.3011 2.7168 24.1826C3.05534 24.0641 3.43831 24.0049 3.86572 24.0049C4.25505 24.0049 4.61686 24.0535 4.95117 24.1509C5.28548 24.244 5.57536 24.3857 5.8208 24.5762C6.06201 24.7708 6.25244 25.012 6.39209 25.2998C6.53174 25.5876 6.60156 25.924 6.60156 26.3091V29.502C6.60156 29.7305 6.62272 29.9738 6.66504 30.2319C6.70736 30.4858 6.7666 30.708 6.84277 30.8984V31H5.61768ZM3.54199 30.105C3.77051 30.105 3.98421 30.0754 4.18311 30.0161C4.382 29.9569 4.56396 29.8786 4.729 29.7812C4.88981 29.6839 5.02946 29.5739 5.14795 29.4512C5.26644 29.3242 5.35954 29.193 5.42725 29.0576V27.6675H4.33545C3.9292 27.6675 3.57373 27.7035 3.26904 27.7754C2.96859 27.8431 2.72949 27.9489 2.55176 28.0928C2.4248 28.1943 2.32747 28.3149 2.25977 28.4546C2.19629 28.5942 2.16455 28.7529 2.16455 28.9307C2.16455 29.0999 2.19206 29.2565 2.24707 29.4004C2.30632 29.5443 2.39307 29.667 2.50732 29.7686C2.62158 29.8743 2.76546 29.9569 2.93896 30.0161C3.11247 30.0754 3.31348 30.105 3.54199 30.105ZM9.09619 21.25H12.6064V29.9844H14.8472V31H9.09619V29.9844H11.4321V22.272H9.09619V21.25Z" fill="#696C80"/>
</svg>
