<svg width="160" height="98" viewBox="0 0 160 98" fill="none" xmlns="http://www.w3.org/2000/svg">
<rect x="0.5" y="34.5" width="159" height="63" rx="4.5" stroke="#9747FF" stroke-dasharray="10 5"/>
<path d="M120 61.8C120 60.1198 120 59.2798 120.327 58.638C120.615 58.0735 121.074 57.6146 121.638 57.327C122.28 57 123.12 57 124.8 57H131.2C132.88 57 133.72 57 134.362 57.327C134.926 57.6146 135.385 58.0735 135.673 58.638C136 59.2798 136 60.1198 136 61.8V71.2C136 72.8802 136 73.7202 135.673 74.362C135.385 74.9265 134.926 75.3854 134.362 75.673C133.72 76 132.88 76 131.2 76H124.8C123.12 76 122.28 76 121.638 75.673C121.074 75.3854 120.615 74.9265 120.327 74.362C120 73.7202 120 72.8802 120 71.2V61.8Z" fill="#BABDCC"/>
<path fill-rule="evenodd" clip-rule="evenodd" d="M125 64C125.552 64 126 63.5523 126 63C126 62.4477 125.552 62 125 62C124.448 62 124 62.4477 124 63C124 63.5523 124.448 64 125 64ZM129 62C128.448 62 128 62.4477 128 63C128 63.5523 128.448 64 129 64H131C131.552 64 132 63.5523 132 63C132 62.4477 131.552 62 131 62H129ZM129 66C128.448 66 128 66.4477 128 67C128 67.5523 128.448 68 129 68H131C131.552 68 132 67.5523 132 67C132 66.4477 131.552 66 131 66H129ZM128 71C128 70.4477 128.448 70 129 70H131C131.552 70 132 70.4477 132 71C132 71.5523 131.552 72 131 72H129C128.448 72 128 71.5523 128 71ZM126 67C126 67.5523 125.552 68 125 68C124.448 68 124 67.5523 124 67C124 66.4477 124.448 66 125 66C125.552 66 126 66.4477 126 67ZM125 72C125.552 72 126 71.5523 126 71C126 70.4477 125.552 70 125 70C124.448 70 124 70.4477 124 71C124 71.5523 124.448 72 125 72Z" fill="#12131A"/>
<path d="M125 57C125 56.4477 125.448 56 126 56H130C130.552 56 131 56.4477 131 57V58C131 58.5523 130.552 59 130 59H126C125.448 59 125 58.5523 125 58V57Z" fill="#12131A"/>
<path fill-rule="evenodd" clip-rule="evenodd" d="M76.1071 57.7974C76.0112 57.4488 75.9633 57.2745 75.8996 57.1944C75.8336 57.1114 75.784 57.0753 75.6847 57.0378C75.589 57.0017 75.4576 57.0074 75.1949 57.0187C74.5017 57.0486 74.0324 57.126 73.638 57.327C73.0735 57.6146 72.6146 58.0735 72.327 58.638C72 59.2798 72 60.1198 72 61.8V71.2C72 72.8802 72 73.7202 72.327 74.362C72.6146 74.9265 73.0735 75.3854 73.638 75.673C74.2798 76 75.1198 76 76.8 76H83.2C84.8802 76 85.7202 76 86.362 75.673C86.9265 75.3854 87.3854 74.9265 87.673 74.362C88 73.7202 88 72.8802 88 71.2V61.8C88 60.1198 88 59.2798 87.673 58.638C87.3854 58.0735 86.9265 57.6146 86.362 57.327C85.9676 57.126 85.4983 57.0486 84.8051 57.0187C84.5424 57.0074 84.411 57.0017 84.3153 57.0378C84.216 57.0753 84.1664 57.1114 84.1004 57.1944C84.0367 57.2745 83.9888 57.4488 83.8929 57.7974C83.5436 59.0672 82.3807 60 81 60H79C77.6193 60 76.4564 59.0672 76.1071 57.7974ZM81 63C80.4477 63 80 63.4477 80 64C80 64.5523 80.4477 65 81 65H83C83.5523 65 84 64.5523 84 64C84 63.4477 83.5523 63 83 63H81ZM80 68C80 67.4477 80.4477 67 81 67H83C83.5523 67 84 67.4477 84 68C84 68.5523 83.5523 69 83 69H81C80.4477 69 80 68.5523 80 68ZM81 71C80.4477 71 80 71.4477 80 72C80 72.5523 80.4477 73 81 73H83C83.5523 73 84 72.5523 84 72C84 71.4477 83.5523 71 83 71H81ZM78 64C78 64.5523 77.5523 65 77 65C76.4477 65 76 64.5523 76 64C76 63.4477 76.4477 63 77 63C77.5523 63 78 63.4477 78 64ZM77 69C77.5523 69 78 68.5523 78 68C78 67.4477 77.5523 67 77 67C76.4477 67 76 67.4477 76 68C76 68.5523 76.4477 69 77 69ZM78 72C78 72.5523 77.5523 73 77 73C76.4477 73 76 72.5523 76 72C76 71.4477 76.4477 71 77 71C77.5523 71 78 71.4477 78 72Z" fill="#12131A"/>
<path fill-rule="evenodd" clip-rule="evenodd" d="M81 56H79C78.4477 56 78 56.4477 78 57C78 57.5523 78.4477 58 79 58H81C81.5523 58 82 57.5523 82 57C82 56.4477 81.5523 56 81 56Z" fill="#12131A"/>
<path d="M34.2413 58C35.0463 58 35.7106 58 36.2518 58.0442C36.8139 58.0901 37.3306 58.1887 37.816 58.436C38.5686 58.8195 39.1805 59.4314 39.564 60.184C39.8113 60.6694 39.9099 61.1861 39.9558 61.7482C40 62.2894 40 62.9537 40 63.7587V63.7587V70.2413V70.2413C40 71.0463 40 71.7106 39.9558 72.2518C39.9099 72.8139 39.8113 73.3306 39.564 73.816C39.1805 74.5686 38.5686 75.1805 37.816 75.564C37.3306 75.8113 36.8139 75.9099 36.2518 75.9558C35.7106 76 35.0463 76 34.2413 76H29.7587C28.9537 76 28.2894 76 27.7482 75.9558C27.1861 75.9099 26.6694 75.8113 26.184 75.564C25.4314 75.1805 24.8195 74.5686 24.436 73.816C24.1887 73.3306 24.0901 72.8139 24.0442 72.2518C24 71.7106 24 71.0463 24 70.2413V70.2413V63.7587V63.7587C24 62.9537 24 62.2894 24.0442 61.7482C24.0901 61.1861 24.1887 60.6694 24.436 60.184C24.8195 59.4314 25.4314 58.8195 26.184 58.436C26.6694 58.1887 27.1861 58.0901 27.7482 58.0442C28.2894 58 28.9537 58 29.7587 58H29.7587H30V60H29.8C28.9434 60 28.3611 60.0008 27.911 60.0376C27.4726 60.0734 27.2484 60.1383 27.092 60.218C26.7157 60.4097 26.4097 60.7157 26.218 61.092C26.1383 61.2484 26.0734 61.4726 26.0376 61.911C26.0008 62.3611 26 62.9434 26 63.8V70.2C26 71.0566 26.0008 71.6389 26.0376 72.089C26.0734 72.5274 26.1383 72.7516 26.218 72.908C26.4097 73.2843 26.7157 73.5903 27.092 73.782C27.2484 73.8617 27.4726 73.9266 27.911 73.9624C28.3611 73.9992 28.9434 74 29.8 74H34.2C35.0566 74 35.6389 73.9992 36.089 73.9624C36.5274 73.9266 36.7516 73.8617 36.908 73.782C37.2843 73.5903 37.5903 73.2843 37.782 72.908C37.8617 72.7516 37.9266 72.5274 37.9624 72.089C37.9992 71.6389 38 71.0566 38 70.2V63.8C38 62.9434 37.9992 62.3611 37.9624 61.911C37.9266 61.4726 37.8617 61.2484 37.782 61.092C37.5903 60.7157 37.2843 60.4097 36.908 60.218C36.7516 60.1383 36.5274 60.0734 36.089 60.0376C35.6389 60.0008 35.0566 60 34.2 60H34V58H34.2413H34.2413Z" fill="#12131A"/>
<path fill-rule="evenodd" clip-rule="evenodd" d="M30 66C30 66.5523 29.5523 67 29 67C28.4477 67 28 66.5523 28 66C28 65.4477 28.4477 65 29 65C29.5523 65 30 65.4477 30 66ZM33 65C32.4477 65 32 65.4477 32 66C32 66.5523 32.4477 67 33 67H35C35.5523 67 36 66.5523 36 66C36 65.4477 35.5523 65 35 65H33ZM33 69C32.4477 69 32 69.4477 32 70C32 70.5523 32.4477 71 33 71H35C35.5523 71 36 70.5523 36 70C36 69.4477 35.5523 69 35 69H33ZM29 71C29.5523 71 30 70.5523 30 70C30 69.4477 29.5523 69 29 69C28.4477 69 28 69.4477 28 70C28 70.5523 28.4477 71 29 71Z" fill="#12131A"/>
<path fill-rule="evenodd" clip-rule="evenodd" d="M28 59C28 57.3431 29.3431 56 31 56H33C34.6569 56 36 57.3431 36 59C36 60.6569 34.6569 62 33 62H31C29.3431 62 28 60.6569 28 59ZM31 58C30.4477 58 30 58.4477 30 59C30 59.5523 30.4477 60 31 60H33C33.5523 60 34 59.5523 34 59C34 58.4477 33.5523 58 33 58H31Z" fill="#12131A"/>
<path d="M5.94141 11.6641C5.94141 11.3805 5.87581 11.1414 5.74463 10.9468C5.61768 10.7521 5.45264 10.5871 5.24951 10.4517C5.04639 10.3205 4.8221 10.2104 4.57666 10.1216C4.33545 10.0327 4.1027 9.95231 3.87842 9.88037C3.55257 9.77458 3.22038 9.64762 2.88184 9.49951C2.54753 9.34717 2.24284 9.1652 1.96777 8.95361C1.68848 8.73779 1.45996 8.48389 1.28223 8.19189C1.10872 7.89567 1.02197 7.54867 1.02197 7.15088C1.02197 6.75309 1.10872 6.39762 1.28223 6.08447C1.45996 5.77132 1.69059 5.50684 1.97412 5.29102C2.25765 5.0752 2.57926 4.91227 2.93896 4.80225C3.29867 4.68799 3.66048 4.63086 4.02441 4.63086C4.42643 4.63086 4.81364 4.69857 5.18604 4.83398C5.55843 4.96517 5.88851 5.15137 6.17627 5.39258C6.46403 5.63379 6.69466 5.92578 6.86816 6.26855C7.04167 6.61133 7.13265 6.9943 7.14111 7.41748H5.93506C5.9012 7.15088 5.83561 6.90967 5.73828 6.69385C5.64095 6.4738 5.51188 6.28548 5.35107 6.12891C5.19027 5.97233 4.99772 5.85173 4.77344 5.76709C4.55339 5.67822 4.30371 5.63379 4.02441 5.63379C3.80013 5.63379 3.58008 5.66553 3.36426 5.729C3.15267 5.79248 2.96436 5.8877 2.79932 6.01465C2.63005 6.1416 2.49463 6.29818 2.39307 6.48438C2.29574 6.67057 2.24707 6.88639 2.24707 7.13184C2.2513 7.39844 2.31901 7.62484 2.4502 7.81104C2.58138 7.993 2.74854 8.14746 2.95166 8.27441C3.15055 8.40137 3.36637 8.50716 3.59912 8.5918C3.8361 8.67643 4.05827 8.75049 4.26562 8.81396C4.6084 8.91976 4.95117 9.04883 5.29395 9.20117C5.63672 9.34928 5.94987 9.53971 6.2334 9.77246C6.5127 9.98828 6.73698 10.2528 6.90625 10.5659C7.07975 10.8791 7.1665 11.2409 7.1665 11.6514C7.1665 12.0661 7.0734 12.4279 6.88721 12.7368C6.70524 13.0457 6.46826 13.3018 6.17627 13.5049C5.88428 13.7122 5.5542 13.8688 5.18604 13.9746C4.81787 14.0762 4.44971 14.127 4.08154 14.127C3.64144 14.127 3.20768 14.0529 2.78027 13.9048C2.3571 13.7567 1.98893 13.543 1.67578 13.2637C1.39648 13.0225 1.17432 12.741 1.00928 12.4194C0.84847 12.0936 0.761719 11.7318 0.749023 11.334H1.94873C1.98682 11.6217 2.0651 11.8778 2.18359 12.1021C2.30208 12.3221 2.45443 12.5083 2.64062 12.6606C2.82682 12.8172 3.04053 12.9357 3.28174 13.0161C3.52718 13.0923 3.79378 13.1304 4.08154 13.1304C4.31006 13.1304 4.53434 13.1029 4.75439 13.0479C4.97868 12.9886 5.17757 12.8976 5.35107 12.7749C5.52458 12.6564 5.66634 12.5062 5.77637 12.3242C5.88639 12.138 5.94141 11.918 5.94141 11.6641ZM10.0864 8.15381C10.1795 8.01416 10.2832 7.88721 10.3975 7.77295C10.5117 7.65446 10.6323 7.55078 10.7593 7.46191C10.9624 7.3138 11.1846 7.20166 11.4258 7.12549C11.6712 7.04932 11.9315 7.00911 12.2065 7.00488C12.5662 7.00488 12.8921 7.05778 13.1841 7.16357C13.4803 7.26514 13.7321 7.42594 13.9395 7.646C14.1468 7.86605 14.3055 8.14535 14.4155 8.48389C14.5298 8.8182 14.5869 9.21598 14.5869 9.67725V14H13.4126V9.66455C13.4126 9.39372 13.3809 9.15674 13.3174 8.95361C13.2539 8.74626 13.1608 8.57487 13.0381 8.43945C12.9069 8.29134 12.7419 8.18132 12.543 8.10938C12.3441 8.0332 12.1156 7.99723 11.8574 8.00146C11.6458 8.00146 11.4448 8.03109 11.2544 8.09033C11.064 8.14958 10.8883 8.23421 10.7275 8.34424C10.6006 8.42887 10.4821 8.52832 10.3721 8.64258C10.2663 8.7526 10.1711 8.87533 10.0864 9.01074V14H8.91211V4.25H10.0864V8.15381ZM16.3896 10.5024C16.3896 10.0073 16.4616 9.54818 16.6055 9.125C16.7493 8.69759 16.9567 8.32731 17.2275 8.01416C17.4941 7.70101 17.82 7.45557 18.2051 7.27783C18.5902 7.09587 19.0239 7.00488 19.5063 7.00488C19.993 7.00488 20.4289 7.09587 20.814 7.27783C21.2033 7.45557 21.5334 7.70101 21.8042 8.01416C22.0708 8.32731 22.276 8.69759 22.4199 9.125C22.5638 9.54818 22.6357 10.0073 22.6357 10.5024V10.6421C22.6357 11.1372 22.5638 11.5964 22.4199 12.0195C22.276 12.4427 22.0708 12.8109 21.8042 13.124C21.5334 13.4372 21.2054 13.6826 20.8203 13.8604C20.4352 14.0381 20.0015 14.127 19.519 14.127C19.0324 14.127 18.5944 14.0381 18.2051 13.8604C17.82 13.6826 17.4941 13.4372 17.2275 13.124C16.9567 12.8109 16.7493 12.4427 16.6055 12.0195C16.4616 11.5964 16.3896 11.1372 16.3896 10.6421V10.5024ZM17.564 10.6421C17.564 10.9806 17.6042 11.3044 17.6846 11.6133C17.765 11.918 17.8877 12.1867 18.0527 12.4194C18.2135 12.6522 18.4167 12.8363 18.6621 12.9717C18.9076 13.1071 19.1932 13.1748 19.519 13.1748C19.8407 13.1748 20.1221 13.1071 20.3633 12.9717C20.6087 12.8363 20.814 12.6522 20.979 12.4194C21.1398 12.1867 21.2604 11.918 21.3408 11.6133C21.4212 11.3044 21.4614 10.9806 21.4614 10.6421V10.5024C21.4614 10.1681 21.4191 9.84863 21.3345 9.54395C21.2541 9.23503 21.1335 8.96419 20.9727 8.73145C20.8076 8.4987 20.6024 8.31462 20.3569 8.1792C20.1157 8.03955 19.8322 7.96973 19.5063 7.96973C19.1805 7.96973 18.897 8.03955 18.6558 8.1792C18.4146 8.31462 18.2135 8.4987 18.0527 8.73145C17.8877 8.96419 17.765 9.23503 17.6846 9.54395C17.6042 9.84863 17.564 10.1681 17.564 10.5024V10.6421ZM24.521 16.6406V7.13184H25.5938L25.6509 7.88086C25.744 7.76237 25.8455 7.65658 25.9556 7.56348C26.0656 7.46615 26.1841 7.38363 26.311 7.31592C26.4888 7.21436 26.6855 7.13818 26.9014 7.0874C27.1214 7.03239 27.3563 7.00488 27.606 7.00488C28.0461 7.00488 28.4354 7.09163 28.7739 7.26514C29.1125 7.43864 29.396 7.67985 29.6245 7.98877C29.853 8.29769 30.0265 8.66797 30.145 9.09961C30.2635 9.52702 30.3228 9.99674 30.3228 10.5088V10.6421C30.3228 11.133 30.2635 11.5921 30.145 12.0195C30.0265 12.4427 29.853 12.8109 29.6245 13.124C29.396 13.4372 29.1125 13.6826 28.7739 13.8604C28.4396 14.0381 28.0566 14.127 27.625 14.127C27.3626 14.127 27.1172 14.0994 26.8887 14.0444C26.6644 13.9894 26.4613 13.9111 26.2793 13.8096C26.1693 13.7461 26.0656 13.6763 25.9683 13.6001C25.8709 13.5197 25.7799 13.4329 25.6953 13.3398V16.6406H24.521ZM29.1484 10.5088C29.1484 10.1745 29.1104 9.8571 29.0342 9.55664C28.9622 9.25195 28.8501 8.98324 28.6978 8.75049C28.5412 8.52197 28.3444 8.34001 28.1074 8.20459C27.8704 8.06917 27.5869 8.00146 27.2568 8.00146C27.0749 8.00146 26.9056 8.02262 26.749 8.06494C26.5967 8.10726 26.4591 8.16862 26.3364 8.24902C26.201 8.32943 26.0804 8.42887 25.9746 8.54736C25.8688 8.66585 25.7757 8.79704 25.6953 8.94092V12.248C25.7673 12.375 25.8498 12.4935 25.9429 12.6035C26.036 12.7135 26.1418 12.8066 26.2603 12.8828C26.3957 12.9717 26.5459 13.0415 26.7109 13.0923C26.8802 13.1431 27.0664 13.1685 27.2695 13.1685C27.5954 13.1685 27.8768 13.1007 28.1138 12.9653C28.3507 12.8257 28.5454 12.6395 28.6978 12.4067C28.8501 12.174 28.9622 11.9053 29.0342 11.6006C29.1104 11.2959 29.1484 10.9764 29.1484 10.6421V10.5088ZM32.3286 16.6406V7.13184H33.4014L33.4585 7.88086C33.5516 7.76237 33.6532 7.65658 33.7632 7.56348C33.8732 7.46615 33.9917 7.38363 34.1187 7.31592C34.2964 7.21436 34.4932 7.13818 34.709 7.0874C34.929 7.03239 35.1639 7.00488 35.4136 7.00488C35.8537 7.00488 36.243 7.09163 36.5815 7.26514C36.9201 7.43864 37.2036 7.67985 37.4321 7.98877C37.6606 8.29769 37.8341 8.66797 37.9526 9.09961C38.0711 9.52702 38.1304 9.99674 38.1304 10.5088V10.6421C38.1304 11.133 38.0711 11.5921 37.9526 12.0195C37.8341 12.4427 37.6606 12.8109 37.4321 13.124C37.2036 13.4372 36.9201 13.6826 36.5815 13.8604C36.2472 14.0381 35.8643 14.127 35.4326 14.127C35.1702 14.127 34.9248 14.0994 34.6963 14.0444C34.472 13.9894 34.2689 13.9111 34.0869 13.8096C33.9769 13.7461 33.8732 13.6763 33.7759 13.6001C33.6785 13.5197 33.5876 13.4329 33.5029 13.3398V16.6406H32.3286ZM36.9561 10.5088C36.9561 10.1745 36.918 9.8571 36.8418 9.55664C36.7699 9.25195 36.6577 8.98324 36.5054 8.75049C36.3488 8.52197 36.152 8.34001 35.915 8.20459C35.6781 8.06917 35.3945 8.00146 35.0645 8.00146C34.8825 8.00146 34.7132 8.02262 34.5566 8.06494C34.4043 8.10726 34.2668 8.16862 34.144 8.24902C34.0086 8.32943 33.888 8.42887 33.7822 8.54736C33.6764 8.66585 33.5833 8.79704 33.5029 8.94092V12.248C33.5749 12.375 33.6574 12.4935 33.7505 12.6035C33.8436 12.7135 33.9494 12.8066 34.0679 12.8828C34.2033 12.9717 34.3535 13.0415 34.5186 13.0923C34.6878 13.1431 34.874 13.1685 35.0771 13.1685C35.403 13.1685 35.6844 13.1007 35.9214 12.9653C36.1584 12.8257 36.353 12.6395 36.5054 12.4067C36.6577 12.174 36.7699 11.9053 36.8418 11.6006C36.918 11.2959 36.9561 10.9764 36.9561 10.6421V10.5088ZM40.3267 7.13184H43.8369V12.9844H46.0776V14H40.3267V12.9844H42.6626V8.15381H40.3267V7.13184ZM42.5103 5.3291C42.5103 5.22754 42.5251 5.13232 42.5547 5.04346C42.5885 4.95459 42.6393 4.87842 42.707 4.81494C42.762 4.75993 42.8319 4.71761 42.9165 4.68799C43.0054 4.65413 43.1048 4.63721 43.2148 4.63721C43.3249 4.63721 43.4222 4.65413 43.5068 4.68799C43.5915 4.71761 43.6613 4.75993 43.7163 4.81494C43.784 4.87419 43.8348 4.94824 43.8687 5.03711C43.9025 5.12598 43.9194 5.22331 43.9194 5.3291C43.9194 5.51953 43.8602 5.67822 43.7417 5.80518C43.6232 5.93213 43.4476 5.99561 43.2148 5.99561C42.9779 5.99561 42.8001 5.93213 42.6816 5.80518C42.5674 5.67822 42.5103 5.51953 42.5103 5.3291ZM47.9502 14V7.13184H49.0039L49.0864 8.14746C49.188 8.00358 49.298 7.8724 49.4165 7.75391C49.5392 7.63118 49.6683 7.52539 49.8037 7.43652C50.0068 7.30111 50.2269 7.19743 50.4639 7.12549C50.7051 7.04932 50.959 7.00911 51.2256 7.00488C51.5853 7.00488 51.9111 7.05566 52.2031 7.15723C52.4993 7.25879 52.7511 7.41748 52.9585 7.6333C53.1659 7.84912 53.3245 8.12419 53.4346 8.4585C53.5488 8.78857 53.606 9.18213 53.606 9.63916V14H52.4316V9.66455C52.4316 9.35986 52.3978 9.10173 52.3301 8.89014C52.2624 8.67855 52.1629 8.50716 52.0317 8.37598C51.8963 8.24479 51.7313 8.14958 51.5366 8.09033C51.3462 8.03109 51.1261 8.00146 50.8765 8.00146C50.6606 8.00146 50.4596 8.0332 50.2734 8.09668C50.0872 8.15592 49.9159 8.23844 49.7593 8.34424C49.6323 8.43734 49.5138 8.54525 49.4038 8.66797C49.298 8.79069 49.2049 8.92611 49.1245 9.07422V14H47.9502ZM55.542 10.5088C55.542 9.99674 55.6034 9.52702 55.7261 9.09961C55.853 8.66797 56.035 8.29769 56.272 7.98877C56.509 7.67985 56.7967 7.43864 57.1353 7.26514C57.4738 7.09163 57.8568 7.00488 58.2842 7.00488C58.5592 7.00488 58.811 7.03662 59.0396 7.1001C59.2723 7.16357 59.4818 7.25667 59.668 7.37939C59.7695 7.44287 59.8647 7.51693 59.9536 7.60156C60.0467 7.6862 60.1335 7.7793 60.2139 7.88086L60.271 7.13184H61.3374V13.854C61.3374 14.3068 61.2655 14.7088 61.1216 15.0601C60.9819 15.4113 60.7852 15.7096 60.5312 15.9551C60.2731 16.2005 59.9663 16.3867 59.6108 16.5137C59.2554 16.6406 58.8618 16.7041 58.4302 16.7041C58.2524 16.7041 58.0493 16.6829 57.8208 16.6406C57.5923 16.6025 57.3617 16.5369 57.1289 16.4438C56.8919 16.355 56.6634 16.2344 56.4434 16.082C56.2275 15.9297 56.0413 15.7414 55.8848 15.5171L56.4941 14.8125C56.638 14.986 56.7861 15.132 56.9385 15.2505C57.0908 15.3732 57.2453 15.4705 57.4019 15.5425C57.5584 15.6144 57.715 15.6652 57.8716 15.6948C58.0282 15.7287 58.1847 15.7456 58.3413 15.7456C58.6206 15.7456 58.8724 15.7054 59.0967 15.625C59.321 15.5446 59.5135 15.4261 59.6743 15.2695C59.8309 15.1172 59.9515 14.9268 60.0361 14.6982C60.1208 14.4697 60.1631 14.2074 60.1631 13.9111V13.3208C60.0742 13.4224 59.979 13.5155 59.8774 13.6001C59.7801 13.6847 59.6743 13.7588 59.5601 13.8223C59.3823 13.9196 59.1855 13.9937 58.9697 14.0444C58.7539 14.0994 58.5212 14.127 58.2715 14.127C57.8525 14.127 57.4738 14.0381 57.1353 13.8604C56.7967 13.6826 56.5111 13.4372 56.2783 13.124C56.0413 12.8109 55.8594 12.4427 55.7324 12.0195C55.6055 11.5921 55.542 11.133 55.542 10.6421V10.5088ZM56.7163 10.6421C56.7163 10.9764 56.7502 11.2938 56.8179 11.5942C56.8898 11.8947 57.002 12.1592 57.1543 12.3877C57.3024 12.6162 57.4928 12.7982 57.7256 12.9336C57.9583 13.0648 58.2376 13.1304 58.5635 13.1304C58.7666 13.1304 58.9486 13.1071 59.1094 13.0605C59.2744 13.0098 59.4225 12.9399 59.5537 12.8511C59.6807 12.7622 59.7949 12.6564 59.8965 12.5337C59.998 12.411 60.0869 12.2756 60.1631 12.1274V8.979C60.0869 8.83512 59.998 8.70394 59.8965 8.58545C59.7949 8.46696 59.6785 8.36328 59.5474 8.27441C59.4162 8.18978 59.2702 8.12419 59.1094 8.07764C58.9486 8.02686 58.7708 8.00146 58.5762 8.00146C58.2461 8.00146 57.9626 8.06917 57.7256 8.20459C57.4928 8.34001 57.3024 8.52197 57.1543 8.75049C57.002 8.98324 56.8898 9.25195 56.8179 9.55664C56.7502 9.8571 56.7163 10.1745 56.7163 10.5088V10.6421ZM72.6997 13.0034H77.2192V14H71.5254V4.75781H72.6997V13.0034ZM79.3647 7.13184H82.875V12.9844H85.1157V14H79.3647V12.9844H81.7007V8.15381H79.3647V7.13184ZM81.5483 5.3291C81.5483 5.22754 81.5632 5.13232 81.5928 5.04346C81.6266 4.95459 81.6774 4.87842 81.7451 4.81494C81.8001 4.75993 81.87 4.71761 81.9546 4.68799C82.0435 4.65413 82.1429 4.63721 82.2529 4.63721C82.363 4.63721 82.4603 4.65413 82.5449 4.68799C82.6296 4.71761 82.6994 4.75993 82.7544 4.81494C82.8221 4.87419 82.8729 4.94824 82.9067 5.03711C82.9406 5.12598 82.9575 5.22331 82.9575 5.3291C82.9575 5.51953 82.8983 5.67822 82.7798 5.80518C82.6613 5.93213 82.4857 5.99561 82.2529 5.99561C82.016 5.99561 81.8382 5.93213 81.7197 5.80518C81.6055 5.67822 81.5483 5.51953 81.5483 5.3291ZM91.5522 12.1782C91.5522 12.0386 91.5247 11.9137 91.4697 11.8037C91.4147 11.6895 91.3216 11.5858 91.1904 11.4927C91.0592 11.3996 90.8857 11.3149 90.6699 11.2388C90.4541 11.1584 90.1854 11.0864 89.8638 11.0229C89.4702 10.9425 89.1105 10.8452 88.7847 10.731C88.4631 10.6167 88.188 10.4792 87.9595 10.3184C87.7267 10.1618 87.5469 9.9777 87.4199 9.76611C87.293 9.55029 87.2295 9.30062 87.2295 9.01709C87.2295 8.73779 87.2951 8.47754 87.4263 8.23633C87.5575 7.99089 87.7415 7.77718 87.9785 7.59521C88.2155 7.41325 88.4969 7.26937 88.8228 7.16357C89.1528 7.05778 89.5146 7.00488 89.9082 7.00488C90.3314 7.00488 90.7122 7.0599 91.0508 7.16992C91.3893 7.27995 91.6771 7.43229 91.9141 7.62695C92.151 7.82161 92.333 8.05013 92.46 8.3125C92.5911 8.57064 92.6567 8.84993 92.6567 9.15039H91.4824C91.4824 9.00228 91.4443 8.8584 91.3682 8.71875C91.292 8.57487 91.1862 8.44792 91.0508 8.33789C90.9154 8.22786 90.7503 8.139 90.5557 8.07129C90.3652 8.00358 90.1494 7.96973 89.9082 7.96973C89.6585 7.96973 89.4385 7.99723 89.248 8.05225C89.0618 8.10726 88.9074 8.18132 88.7847 8.27441C88.6577 8.36751 88.5625 8.47542 88.499 8.59814C88.4355 8.72087 88.4038 8.84782 88.4038 8.979C88.4038 9.11442 88.4292 9.23503 88.48 9.34082C88.5308 9.44661 88.6196 9.54183 88.7466 9.62646C88.8693 9.7111 89.0343 9.78727 89.2417 9.85498C89.4533 9.92269 89.7199 9.98828 90.0415 10.0518C90.4647 10.1406 90.8434 10.2443 91.1777 10.3628C91.512 10.4771 91.7935 10.6146 92.022 10.7754C92.2505 10.9404 92.424 11.1309 92.5425 11.3467C92.6652 11.5625 92.7266 11.8122 92.7266 12.0957C92.7266 12.4004 92.6567 12.6776 92.5171 12.9272C92.3817 13.1769 92.1912 13.3906 91.9458 13.5684C91.7004 13.7461 91.4062 13.8836 91.0635 13.981C90.7207 14.0783 90.3462 14.127 89.9399 14.127C89.4744 14.127 89.0597 14.0656 88.6958 13.9429C88.3319 13.8159 88.0251 13.6488 87.7754 13.4414C87.5215 13.2383 87.3268 13.0013 87.1914 12.7305C87.0602 12.4596 86.9946 12.1782 86.9946 11.8862H88.1689C88.1859 12.1274 88.2493 12.3306 88.3594 12.4956C88.4736 12.6606 88.6154 12.7939 88.7847 12.8955C88.9497 12.9971 89.1338 13.069 89.3369 13.1113C89.54 13.1536 89.741 13.1748 89.9399 13.1748C90.2531 13.1748 90.526 13.1388 90.7588 13.0669C90.9915 12.9907 91.1735 12.887 91.3047 12.7559C91.3851 12.6755 91.4465 12.5866 91.4888 12.4893C91.5311 12.3919 91.5522 12.2882 91.5522 12.1782ZM97.5762 5.46875V7.13184H100.191V8.03955H97.5762V11.772C97.5762 12.0386 97.61 12.2586 97.6777 12.4321C97.7454 12.6056 97.8385 12.7432 97.957 12.8447C98.0755 12.9505 98.2109 13.0246 98.3633 13.0669C98.5199 13.1092 98.6849 13.1304 98.8584 13.1304C98.9854 13.1304 99.1165 13.124 99.252 13.1113C99.3874 13.0944 99.5207 13.0754 99.6519 13.0542C99.7788 13.033 99.8973 13.0119 100.007 12.9907C100.122 12.9653 100.215 12.9442 100.287 12.9272L100.452 13.7588C100.354 13.818 100.236 13.8709 100.096 13.9175C99.9565 13.9598 99.8042 13.9958 99.6392 14.0254C99.4741 14.0592 99.2985 14.0846 99.1123 14.1016C98.9303 14.1185 98.7484 14.127 98.5664 14.127C98.2617 14.127 97.9761 14.0846 97.7095 14C97.4471 13.9111 97.2186 13.7715 97.0239 13.5811C96.8293 13.3949 96.6748 13.1536 96.5605 12.8574C96.4505 12.557 96.3955 12.1951 96.3955 11.772V8.03955H94.5928V7.13184H96.3955V5.46875H97.5762Z" fill="#696C80"/>
</svg>
