<svg width="160" height="98" viewBox="0 0 160 98" fill="none" xmlns="http://www.w3.org/2000/svg">
<rect x="0.5" y="34.5" width="159" height="63" rx="4.5" stroke="#9747FF" stroke-dasharray="10 5"/>
<path d="M128.829 57C128.033 57 127.27 57.3161 126.707 57.8787L119.59 64.9958C118.809 65.7768 118.809 67.0432 119.59 67.8242L126.176 74.41C126.957 75.1911 128.223 75.191 129.004 74.41L136.122 67.2929C136.684 66.7303 137 65.9672 137 65.1716V59C137 57.8954 136.105 57 135 57H128.829Z" fill="#BABDCC"/>
<path d="M131.414 72.0002L122 62.5859L120.586 64.0002L130 73.4144L131.414 72.0002Z" fill="#12131A"/>
<path d="M133 62C133 62.5523 132.552 63 132 63C131.448 63 131 62.5523 131 62C131 61.4477 131.448 61 132 61C132.552 61 133 61.4477 133 62Z" fill="#12131A"/>
<path fill-rule="evenodd" clip-rule="evenodd" d="M80.8286 57C80.033 57 79.2699 57.3161 78.7073 57.8787L74.3536 62.2323C74.1584 62.4276 74.1584 62.7442 74.3536 62.9394L83.0608 71.6465C83.256 71.8418 83.5726 71.8418 83.7679 71.6465L88.1215 67.2929C88.6841 66.7303 89.0002 65.9672 89.0002 65.1716V59C89.0002 57.8954 88.1048 57 87.0002 57H80.8286ZM85 62C85 62.5523 84.5523 63 84 63C83.4477 63 83 62.5523 83 62C83 61.4477 83.4477 61 84 61C84.5523 61 85 61.4477 85 62Z" fill="#12131A"/>
<path d="M81.6465 73.7679C81.8418 73.5726 81.8418 73.256 81.6465 73.0608L72.9394 64.3536C72.7442 64.1584 72.4276 64.1584 72.2323 64.3536L71.5902 64.9958C70.8091 65.7768 70.8091 67.0432 71.5902 67.8242L78.176 74.41C78.957 75.1911 80.2234 75.191 81.0044 74.41L81.6465 73.7679Z" fill="#12131A"/>
<path fill-rule="evenodd" clip-rule="evenodd" d="M30.4142 58.1716C31.1644 57.4214 32.1818 57 33.2427 57H38C39.6569 57 41 58.3431 41 60V64.7574C41 65.8182 40.5786 66.8356 39.8284 67.5858L33.2913 74.1229C32.1198 75.2945 30.2203 75.2945 29.0487 74.1229L23.8771 68.9513C22.7056 67.7797 22.7055 65.8803 23.8771 64.7087L30.4142 58.1716ZM33.2427 59C32.7122 59 32.2035 59.2107 31.8284 59.5858L25.2913 66.1229C24.9008 66.5134 24.9008 67.1466 25.2913 67.5371L30.4629 72.7087C30.8534 73.0992 31.4866 73.0992 31.8771 72.7087L38.4142 66.1716C38.7893 65.7965 39 65.2878 39 64.7574V60C39 59.4477 38.5523 59 38 59H33.2427Z" fill="#12131A"/>
<path d="M24.5859 64.0002L26.0002 62.5859L35.4144 72.0001L34.0001 73.4144L24.5859 64.0002Z" fill="#12131A"/>
<path d="M37 62C37 62.5523 36.5523 63 36 63C35.4477 63 35 62.5523 35 62C35 61.4477 35.4477 61 36 61C36.5523 61 37 61.4477 37 62Z" fill="#12131A"/>
<path d="M5.94141 11.6641C5.94141 11.3805 5.87581 11.1414 5.74463 10.9468C5.61768 10.7521 5.45264 10.5871 5.24951 10.4517C5.04639 10.3205 4.8221 10.2104 4.57666 10.1216C4.33545 10.0327 4.1027 9.95231 3.87842 9.88037C3.55257 9.77458 3.22038 9.64762 2.88184 9.49951C2.54753 9.34717 2.24284 9.1652 1.96777 8.95361C1.68848 8.73779 1.45996 8.48389 1.28223 8.19189C1.10872 7.89567 1.02197 7.54867 1.02197 7.15088C1.02197 6.75309 1.10872 6.39762 1.28223 6.08447C1.45996 5.77132 1.69059 5.50684 1.97412 5.29102C2.25765 5.0752 2.57926 4.91227 2.93896 4.80225C3.29867 4.68799 3.66048 4.63086 4.02441 4.63086C4.42643 4.63086 4.81364 4.69857 5.18604 4.83398C5.55843 4.96517 5.88851 5.15137 6.17627 5.39258C6.46403 5.63379 6.69466 5.92578 6.86816 6.26855C7.04167 6.61133 7.13265 6.9943 7.14111 7.41748H5.93506C5.9012 7.15088 5.83561 6.90967 5.73828 6.69385C5.64095 6.4738 5.51188 6.28548 5.35107 6.12891C5.19027 5.97233 4.99772 5.85173 4.77344 5.76709C4.55339 5.67822 4.30371 5.63379 4.02441 5.63379C3.80013 5.63379 3.58008 5.66553 3.36426 5.729C3.15267 5.79248 2.96436 5.8877 2.79932 6.01465C2.63005 6.1416 2.49463 6.29818 2.39307 6.48438C2.29574 6.67057 2.24707 6.88639 2.24707 7.13184C2.2513 7.39844 2.31901 7.62484 2.4502 7.81104C2.58138 7.993 2.74854 8.14746 2.95166 8.27441C3.15055 8.40137 3.36637 8.50716 3.59912 8.5918C3.8361 8.67643 4.05827 8.75049 4.26562 8.81396C4.6084 8.91976 4.95117 9.04883 5.29395 9.20117C5.63672 9.34928 5.94987 9.53971 6.2334 9.77246C6.5127 9.98828 6.73698 10.2528 6.90625 10.5659C7.07975 10.8791 7.1665 11.2409 7.1665 11.6514C7.1665 12.0661 7.0734 12.4279 6.88721 12.7368C6.70524 13.0457 6.46826 13.3018 6.17627 13.5049C5.88428 13.7122 5.5542 13.8688 5.18604 13.9746C4.81787 14.0762 4.44971 14.127 4.08154 14.127C3.64144 14.127 3.20768 14.0529 2.78027 13.9048C2.3571 13.7567 1.98893 13.543 1.67578 13.2637C1.39648 13.0225 1.17432 12.741 1.00928 12.4194C0.84847 12.0936 0.761719 11.7318 0.749023 11.334H1.94873C1.98682 11.6217 2.0651 11.8778 2.18359 12.1021C2.30208 12.3221 2.45443 12.5083 2.64062 12.6606C2.82682 12.8172 3.04053 12.9357 3.28174 13.0161C3.52718 13.0923 3.79378 13.1304 4.08154 13.1304C4.31006 13.1304 4.53434 13.1029 4.75439 13.0479C4.97868 12.9886 5.17757 12.8976 5.35107 12.7749C5.52458 12.6564 5.66634 12.5062 5.77637 12.3242C5.88639 12.138 5.94141 11.918 5.94141 11.6641ZM10.0864 8.15381C10.1795 8.01416 10.2832 7.88721 10.3975 7.77295C10.5117 7.65446 10.6323 7.55078 10.7593 7.46191C10.9624 7.3138 11.1846 7.20166 11.4258 7.12549C11.6712 7.04932 11.9315 7.00911 12.2065 7.00488C12.5662 7.00488 12.8921 7.05778 13.1841 7.16357C13.4803 7.26514 13.7321 7.42594 13.9395 7.646C14.1468 7.86605 14.3055 8.14535 14.4155 8.48389C14.5298 8.8182 14.5869 9.21598 14.5869 9.67725V14H13.4126V9.66455C13.4126 9.39372 13.3809 9.15674 13.3174 8.95361C13.2539 8.74626 13.1608 8.57487 13.0381 8.43945C12.9069 8.29134 12.7419 8.18132 12.543 8.10938C12.3441 8.0332 12.1156 7.99723 11.8574 8.00146C11.6458 8.00146 11.4448 8.03109 11.2544 8.09033C11.064 8.14958 10.8883 8.23421 10.7275 8.34424C10.6006 8.42887 10.4821 8.52832 10.3721 8.64258C10.2663 8.7526 10.1711 8.87533 10.0864 9.01074V14H8.91211V4.25H10.0864V8.15381ZM16.3896 10.5024C16.3896 10.0073 16.4616 9.54818 16.6055 9.125C16.7493 8.69759 16.9567 8.32731 17.2275 8.01416C17.4941 7.70101 17.82 7.45557 18.2051 7.27783C18.5902 7.09587 19.0239 7.00488 19.5063 7.00488C19.993 7.00488 20.4289 7.09587 20.814 7.27783C21.2033 7.45557 21.5334 7.70101 21.8042 8.01416C22.0708 8.32731 22.276 8.69759 22.4199 9.125C22.5638 9.54818 22.6357 10.0073 22.6357 10.5024V10.6421C22.6357 11.1372 22.5638 11.5964 22.4199 12.0195C22.276 12.4427 22.0708 12.8109 21.8042 13.124C21.5334 13.4372 21.2054 13.6826 20.8203 13.8604C20.4352 14.0381 20.0015 14.127 19.519 14.127C19.0324 14.127 18.5944 14.0381 18.2051 13.8604C17.82 13.6826 17.4941 13.4372 17.2275 13.124C16.9567 12.8109 16.7493 12.4427 16.6055 12.0195C16.4616 11.5964 16.3896 11.1372 16.3896 10.6421V10.5024ZM17.564 10.6421C17.564 10.9806 17.6042 11.3044 17.6846 11.6133C17.765 11.918 17.8877 12.1867 18.0527 12.4194C18.2135 12.6522 18.4167 12.8363 18.6621 12.9717C18.9076 13.1071 19.1932 13.1748 19.519 13.1748C19.8407 13.1748 20.1221 13.1071 20.3633 12.9717C20.6087 12.8363 20.814 12.6522 20.979 12.4194C21.1398 12.1867 21.2604 11.918 21.3408 11.6133C21.4212 11.3044 21.4614 10.9806 21.4614 10.6421V10.5024C21.4614 10.1681 21.4191 9.84863 21.3345 9.54395C21.2541 9.23503 21.1335 8.96419 20.9727 8.73145C20.8076 8.4987 20.6024 8.31462 20.3569 8.1792C20.1157 8.03955 19.8322 7.96973 19.5063 7.96973C19.1805 7.96973 18.897 8.03955 18.6558 8.1792C18.4146 8.31462 18.2135 8.4987 18.0527 8.73145C17.8877 8.96419 17.765 9.23503 17.6846 9.54395C17.6042 9.84863 17.564 10.1681 17.564 10.5024V10.6421ZM24.521 16.6406V7.13184H25.5938L25.6509 7.88086C25.744 7.76237 25.8455 7.65658 25.9556 7.56348C26.0656 7.46615 26.1841 7.38363 26.311 7.31592C26.4888 7.21436 26.6855 7.13818 26.9014 7.0874C27.1214 7.03239 27.3563 7.00488 27.606 7.00488C28.0461 7.00488 28.4354 7.09163 28.7739 7.26514C29.1125 7.43864 29.396 7.67985 29.6245 7.98877C29.853 8.29769 30.0265 8.66797 30.145 9.09961C30.2635 9.52702 30.3228 9.99674 30.3228 10.5088V10.6421C30.3228 11.133 30.2635 11.5921 30.145 12.0195C30.0265 12.4427 29.853 12.8109 29.6245 13.124C29.396 13.4372 29.1125 13.6826 28.7739 13.8604C28.4396 14.0381 28.0566 14.127 27.625 14.127C27.3626 14.127 27.1172 14.0994 26.8887 14.0444C26.6644 13.9894 26.4613 13.9111 26.2793 13.8096C26.1693 13.7461 26.0656 13.6763 25.9683 13.6001C25.8709 13.5197 25.7799 13.4329 25.6953 13.3398V16.6406H24.521ZM29.1484 10.5088C29.1484 10.1745 29.1104 9.8571 29.0342 9.55664C28.9622 9.25195 28.8501 8.98324 28.6978 8.75049C28.5412 8.52197 28.3444 8.34001 28.1074 8.20459C27.8704 8.06917 27.5869 8.00146 27.2568 8.00146C27.0749 8.00146 26.9056 8.02262 26.749 8.06494C26.5967 8.10726 26.4591 8.16862 26.3364 8.24902C26.201 8.32943 26.0804 8.42887 25.9746 8.54736C25.8688 8.66585 25.7757 8.79704 25.6953 8.94092V12.248C25.7673 12.375 25.8498 12.4935 25.9429 12.6035C26.036 12.7135 26.1418 12.8066 26.2603 12.8828C26.3957 12.9717 26.5459 13.0415 26.7109 13.0923C26.8802 13.1431 27.0664 13.1685 27.2695 13.1685C27.5954 13.1685 27.8768 13.1007 28.1138 12.9653C28.3507 12.8257 28.5454 12.6395 28.6978 12.4067C28.8501 12.174 28.9622 11.9053 29.0342 11.6006C29.1104 11.2959 29.1484 10.9764 29.1484 10.6421V10.5088ZM32.3286 16.6406V7.13184H33.4014L33.4585 7.88086C33.5516 7.76237 33.6532 7.65658 33.7632 7.56348C33.8732 7.46615 33.9917 7.38363 34.1187 7.31592C34.2964 7.21436 34.4932 7.13818 34.709 7.0874C34.929 7.03239 35.1639 7.00488 35.4136 7.00488C35.8537 7.00488 36.243 7.09163 36.5815 7.26514C36.9201 7.43864 37.2036 7.67985 37.4321 7.98877C37.6606 8.29769 37.8341 8.66797 37.9526 9.09961C38.0711 9.52702 38.1304 9.99674 38.1304 10.5088V10.6421C38.1304 11.133 38.0711 11.5921 37.9526 12.0195C37.8341 12.4427 37.6606 12.8109 37.4321 13.124C37.2036 13.4372 36.9201 13.6826 36.5815 13.8604C36.2472 14.0381 35.8643 14.127 35.4326 14.127C35.1702 14.127 34.9248 14.0994 34.6963 14.0444C34.472 13.9894 34.2689 13.9111 34.0869 13.8096C33.9769 13.7461 33.8732 13.6763 33.7759 13.6001C33.6785 13.5197 33.5876 13.4329 33.5029 13.3398V16.6406H32.3286ZM36.9561 10.5088C36.9561 10.1745 36.918 9.8571 36.8418 9.55664C36.7699 9.25195 36.6577 8.98324 36.5054 8.75049C36.3488 8.52197 36.152 8.34001 35.915 8.20459C35.6781 8.06917 35.3945 8.00146 35.0645 8.00146C34.8825 8.00146 34.7132 8.02262 34.5566 8.06494C34.4043 8.10726 34.2668 8.16862 34.144 8.24902C34.0086 8.32943 33.888 8.42887 33.7822 8.54736C33.6764 8.66585 33.5833 8.79704 33.5029 8.94092V12.248C33.5749 12.375 33.6574 12.4935 33.7505 12.6035C33.8436 12.7135 33.9494 12.8066 34.0679 12.8828C34.2033 12.9717 34.3535 13.0415 34.5186 13.0923C34.6878 13.1431 34.874 13.1685 35.0771 13.1685C35.403 13.1685 35.6844 13.1007 35.9214 12.9653C36.1584 12.8257 36.353 12.6395 36.5054 12.4067C36.6577 12.174 36.7699 11.9053 36.8418 11.6006C36.918 11.2959 36.9561 10.9764 36.9561 10.6421V10.5088ZM40.3267 7.13184H43.8369V12.9844H46.0776V14H40.3267V12.9844H42.6626V8.15381H40.3267V7.13184ZM42.5103 5.3291C42.5103 5.22754 42.5251 5.13232 42.5547 5.04346C42.5885 4.95459 42.6393 4.87842 42.707 4.81494C42.762 4.75993 42.8319 4.71761 42.9165 4.68799C43.0054 4.65413 43.1048 4.63721 43.2148 4.63721C43.3249 4.63721 43.4222 4.65413 43.5068 4.68799C43.5915 4.71761 43.6613 4.75993 43.7163 4.81494C43.784 4.87419 43.8348 4.94824 43.8687 5.03711C43.9025 5.12598 43.9194 5.22331 43.9194 5.3291C43.9194 5.51953 43.8602 5.67822 43.7417 5.80518C43.6232 5.93213 43.4476 5.99561 43.2148 5.99561C42.9779 5.99561 42.8001 5.93213 42.6816 5.80518C42.5674 5.67822 42.5103 5.51953 42.5103 5.3291ZM47.9502 14V7.13184H49.0039L49.0864 8.14746C49.188 8.00358 49.298 7.8724 49.4165 7.75391C49.5392 7.63118 49.6683 7.52539 49.8037 7.43652C50.0068 7.30111 50.2269 7.19743 50.4639 7.12549C50.7051 7.04932 50.959 7.00911 51.2256 7.00488C51.5853 7.00488 51.9111 7.05566 52.2031 7.15723C52.4993 7.25879 52.7511 7.41748 52.9585 7.6333C53.1659 7.84912 53.3245 8.12419 53.4346 8.4585C53.5488 8.78857 53.606 9.18213 53.606 9.63916V14H52.4316V9.66455C52.4316 9.35986 52.3978 9.10173 52.3301 8.89014C52.2624 8.67855 52.1629 8.50716 52.0317 8.37598C51.8963 8.24479 51.7313 8.14958 51.5366 8.09033C51.3462 8.03109 51.1261 8.00146 50.8765 8.00146C50.6606 8.00146 50.4596 8.0332 50.2734 8.09668C50.0872 8.15592 49.9159 8.23844 49.7593 8.34424C49.6323 8.43734 49.5138 8.54525 49.4038 8.66797C49.298 8.79069 49.2049 8.92611 49.1245 9.07422V14H47.9502ZM55.542 10.5088C55.542 9.99674 55.6034 9.52702 55.7261 9.09961C55.853 8.66797 56.035 8.29769 56.272 7.98877C56.509 7.67985 56.7967 7.43864 57.1353 7.26514C57.4738 7.09163 57.8568 7.00488 58.2842 7.00488C58.5592 7.00488 58.811 7.03662 59.0396 7.1001C59.2723 7.16357 59.4818 7.25667 59.668 7.37939C59.7695 7.44287 59.8647 7.51693 59.9536 7.60156C60.0467 7.6862 60.1335 7.7793 60.2139 7.88086L60.271 7.13184H61.3374V13.854C61.3374 14.3068 61.2655 14.7088 61.1216 15.0601C60.9819 15.4113 60.7852 15.7096 60.5312 15.9551C60.2731 16.2005 59.9663 16.3867 59.6108 16.5137C59.2554 16.6406 58.8618 16.7041 58.4302 16.7041C58.2524 16.7041 58.0493 16.6829 57.8208 16.6406C57.5923 16.6025 57.3617 16.5369 57.1289 16.4438C56.8919 16.355 56.6634 16.2344 56.4434 16.082C56.2275 15.9297 56.0413 15.7414 55.8848 15.5171L56.4941 14.8125C56.638 14.986 56.7861 15.132 56.9385 15.2505C57.0908 15.3732 57.2453 15.4705 57.4019 15.5425C57.5584 15.6144 57.715 15.6652 57.8716 15.6948C58.0282 15.7287 58.1847 15.7456 58.3413 15.7456C58.6206 15.7456 58.8724 15.7054 59.0967 15.625C59.321 15.5446 59.5135 15.4261 59.6743 15.2695C59.8309 15.1172 59.9515 14.9268 60.0361 14.6982C60.1208 14.4697 60.1631 14.2074 60.1631 13.9111V13.3208C60.0742 13.4224 59.979 13.5155 59.8774 13.6001C59.7801 13.6847 59.6743 13.7588 59.5601 13.8223C59.3823 13.9196 59.1855 13.9937 58.9697 14.0444C58.7539 14.0994 58.5212 14.127 58.2715 14.127C57.8525 14.127 57.4738 14.0381 57.1353 13.8604C56.7967 13.6826 56.5111 13.4372 56.2783 13.124C56.0413 12.8109 55.8594 12.4427 55.7324 12.0195C55.6055 11.5921 55.542 11.133 55.542 10.6421V10.5088ZM56.7163 10.6421C56.7163 10.9764 56.7502 11.2938 56.8179 11.5942C56.8898 11.8947 57.002 12.1592 57.1543 12.3877C57.3024 12.6162 57.4928 12.7982 57.7256 12.9336C57.9583 13.0648 58.2376 13.1304 58.5635 13.1304C58.7666 13.1304 58.9486 13.1071 59.1094 13.0605C59.2744 13.0098 59.4225 12.9399 59.5537 12.8511C59.6807 12.7622 59.7949 12.6564 59.8965 12.5337C59.998 12.411 60.0869 12.2756 60.1631 12.1274V8.979C60.0869 8.83512 59.998 8.70394 59.8965 8.58545C59.7949 8.46696 59.6785 8.36328 59.5474 8.27441C59.4162 8.18978 59.2702 8.12419 59.1094 8.07764C58.9486 8.02686 58.7708 8.00146 58.5762 8.00146C58.2461 8.00146 57.9626 8.06917 57.7256 8.20459C57.4928 8.34001 57.3024 8.52197 57.1543 8.75049C57.002 8.98324 56.8898 9.25195 56.8179 9.55664C56.7502 9.8571 56.7163 10.1745 56.7163 10.5088V10.6421ZM77.6064 5.76074H74.75V14H73.6074V5.76074H70.751V4.75781H77.6064V5.76074ZM83.6938 14C83.6473 13.9111 83.6092 13.8011 83.5796 13.6699C83.5542 13.5345 83.5352 13.3949 83.5225 13.251C83.404 13.3695 83.2707 13.4816 83.1226 13.5874C82.9787 13.6932 82.82 13.7863 82.6465 13.8667C82.4688 13.9471 82.2804 14.0106 82.0815 14.0571C81.8826 14.1037 81.6711 14.127 81.4468 14.127C81.0828 14.127 80.7528 14.0741 80.4565 13.9683C80.1646 13.8625 79.917 13.7186 79.7139 13.5366C79.5065 13.3589 79.3457 13.1473 79.2314 12.9019C79.1214 12.6522 79.0664 12.3835 79.0664 12.0957C79.0664 11.7191 79.1405 11.389 79.2886 11.1055C79.4409 10.8219 79.6546 10.585 79.9297 10.3945C80.2048 10.2083 80.5348 10.0687 80.9199 9.97559C81.3092 9.88249 81.743 9.83594 82.2212 9.83594H83.5034V9.29639C83.5034 9.08903 83.4653 8.90283 83.3892 8.73779C83.313 8.57275 83.2051 8.43099 83.0654 8.3125C82.9258 8.19824 82.7544 8.10938 82.5513 8.0459C82.3524 7.98242 82.1281 7.95068 81.8784 7.95068C81.6457 7.95068 81.4362 7.98031 81.25 8.03955C81.068 8.0988 80.9136 8.17708 80.7866 8.27441C80.6597 8.37174 80.5602 8.48812 80.4883 8.62354C80.4206 8.75472 80.3867 8.89225 80.3867 9.03613H79.2061C79.2103 8.78646 79.2738 8.54102 79.3965 8.2998C79.5234 8.05859 79.7054 7.84066 79.9424 7.646C80.1751 7.45557 80.4587 7.30111 80.793 7.18262C81.1315 7.06413 81.5145 7.00488 81.9419 7.00488C82.3312 7.00488 82.693 7.05355 83.0273 7.15088C83.3617 7.24398 83.6515 7.38574 83.897 7.57617C84.1382 7.77083 84.3286 8.01204 84.4683 8.2998C84.6079 8.58757 84.6777 8.92399 84.6777 9.30908V12.502C84.6777 12.7305 84.6989 12.9738 84.7412 13.2319C84.7835 13.4858 84.8428 13.708 84.9189 13.8984V14H83.6938ZM81.6182 13.105C81.8467 13.105 82.0604 13.0754 82.2593 13.0161C82.4582 12.9569 82.6401 12.8786 82.8052 12.7812C82.966 12.6839 83.1056 12.5739 83.2241 12.4512C83.3426 12.3242 83.4357 12.193 83.5034 12.0576V10.6675H82.4116C82.0054 10.6675 81.6499 10.7035 81.3452 10.7754C81.0448 10.8431 80.8057 10.9489 80.6279 11.0928C80.501 11.1943 80.4036 11.3149 80.3359 11.4546C80.2725 11.5942 80.2407 11.7529 80.2407 11.9307C80.2407 12.0999 80.2682 12.2565 80.3232 12.4004C80.3825 12.5443 80.4692 12.667 80.5835 12.7686C80.6978 12.8743 80.8416 12.9569 81.0151 13.0161C81.1886 13.0754 81.3896 13.105 81.6182 13.105ZM86.7725 10.5088C86.7725 9.99674 86.8338 9.52702 86.9565 9.09961C87.0835 8.66797 87.2655 8.29769 87.5024 7.98877C87.7394 7.67985 88.0272 7.43864 88.3657 7.26514C88.7043 7.09163 89.0872 7.00488 89.5146 7.00488C89.7897 7.00488 90.0415 7.03662 90.27 7.1001C90.5028 7.16357 90.7122 7.25667 90.8984 7.37939C91 7.44287 91.0952 7.51693 91.1841 7.60156C91.2772 7.6862 91.3639 7.7793 91.4443 7.88086L91.5015 7.13184H92.5679V13.854C92.5679 14.3068 92.4959 14.7088 92.3521 15.0601C92.2124 15.4113 92.0156 15.7096 91.7617 15.9551C91.5036 16.2005 91.1968 16.3867 90.8413 16.5137C90.4858 16.6406 90.0923 16.7041 89.6606 16.7041C89.4829 16.7041 89.2798 16.6829 89.0513 16.6406C88.8228 16.6025 88.5921 16.5369 88.3594 16.4438C88.1224 16.355 87.8939 16.2344 87.6738 16.082C87.458 15.9297 87.2718 15.7414 87.1152 15.5171L87.7246 14.8125C87.8685 14.986 88.0166 15.132 88.1689 15.2505C88.3213 15.3732 88.4757 15.4705 88.6323 15.5425C88.7889 15.6144 88.9455 15.6652 89.1021 15.6948C89.2586 15.7287 89.4152 15.7456 89.5718 15.7456C89.8511 15.7456 90.1029 15.7054 90.3271 15.625C90.5514 15.5446 90.744 15.4261 90.9048 15.2695C91.0614 15.1172 91.182 14.9268 91.2666 14.6982C91.3512 14.4697 91.3936 14.2074 91.3936 13.9111V13.3208C91.3047 13.4224 91.2095 13.5155 91.1079 13.6001C91.0106 13.6847 90.9048 13.7588 90.7905 13.8223C90.6128 13.9196 90.416 13.9937 90.2002 14.0444C89.9844 14.0994 89.7516 14.127 89.502 14.127C89.083 14.127 88.7043 14.0381 88.3657 13.8604C88.0272 13.6826 87.7415 13.4372 87.5088 13.124C87.2718 12.8109 87.0898 12.4427 86.9629 12.0195C86.8359 11.5921 86.7725 11.133 86.7725 10.6421V10.5088ZM87.9468 10.6421C87.9468 10.9764 87.9806 11.2938 88.0483 11.5942C88.1203 11.8947 88.2324 12.1592 88.3848 12.3877C88.5329 12.6162 88.7233 12.7982 88.9561 12.9336C89.1888 13.0648 89.4681 13.1304 89.7939 13.1304C89.9971 13.1304 90.179 13.1071 90.3398 13.0605C90.5049 13.0098 90.653 12.9399 90.7842 12.8511C90.9111 12.7622 91.0254 12.6564 91.127 12.5337C91.2285 12.411 91.3174 12.2756 91.3936 12.1274V8.979C91.3174 8.83512 91.2285 8.70394 91.127 8.58545C91.0254 8.46696 90.909 8.36328 90.7778 8.27441C90.6466 8.18978 90.5007 8.12419 90.3398 8.07764C90.179 8.02686 90.0013 8.00146 89.8066 8.00146C89.4766 8.00146 89.193 8.06917 88.9561 8.20459C88.7233 8.34001 88.5329 8.52197 88.3848 8.75049C88.2324 8.98324 88.1203 9.25195 88.0483 9.55664C87.9806 9.8571 87.9468 10.1745 87.9468 10.5088V10.6421Z" fill="#696C80"/>
</svg>
