<svg width="160" height="98" viewBox="0 0 160 98" fill="none" xmlns="http://www.w3.org/2000/svg">
<rect x="0.5" y="34.5" width="159" height="63" rx="4.5" stroke="#9747FF" stroke-dasharray="10 5"/>
<path d="M128.462 58C127.102 58 126 59.1021 126 60.4615V71C126 72.6569 127.343 74 129 74H132C135.314 74 138 71.3137 138 68C138 65.3354 136.263 63.0765 133.86 62.2937C133.295 59.8343 131.092 58 128.462 58Z" fill="#BABDCC"/>
<path fill-rule="evenodd" clip-rule="evenodd" d="M123 63C122.448 63 122 63.4477 122 64V73C122 73.5523 122.448 74 123 74C123.552 74 124 73.5523 124 73V64C124 63.4477 123.552 63 123 63ZM119 67C118.448 67 118 67.4477 118 68V73C118 73.5523 118.448 74 119 74C119.552 74 120 73.5523 120 73V68C120 67.4477 119.552 67 119 67Z" fill="#12131A"/>
<path d="M80.4615 58C79.1021 58 78 59.1021 78 60.4615V71C78 72.6569 79.3431 74 81 74H84C87.3137 74 90 71.3137 90 68C90 65.3354 88.263 63.0765 85.8596 62.2937C85.2948 59.8343 83.0924 58 80.4615 58Z" fill="#12131A"/>
<path fill-rule="evenodd" clip-rule="evenodd" d="M75 63C74.4477 63 74 63.4477 74 64V73C74 73.5523 74.4477 74 75 74C75.5523 74 76 73.5523 76 73V64C76 63.4477 75.5523 63 75 63ZM71 67C70.4477 67 70 67.4477 70 68V73C70 73.5523 70.4477 74 71 74C71.5523 74 72 73.5523 72 73V68C72 67.4477 71.5523 67 71 67Z" fill="#12131A"/>
<path fill-rule="evenodd" clip-rule="evenodd" d="M36.1637 63.8448L35.9103 62.7414C35.5495 61.1703 34.1398 60 32.4615 60C32.2066 60 32 60.2066 32 60.4615V71C32 71.5523 32.4477 72 33 72H36C38.2091 72 40 70.2091 40 68C40 66.2266 38.8446 64.7179 37.2403 64.1954L36.1637 63.8448ZM37.8596 62.2937C37.2948 59.8343 35.0924 58 32.4615 58C31.1021 58 30 59.1021 30 60.4615V71C30 72.6569 31.3431 74 33 74H36C39.3137 74 42 71.3137 42 68C42 65.3354 40.263 63.0765 37.8596 62.2937Z" fill="#12131A"/>
<path fill-rule="evenodd" clip-rule="evenodd" d="M27 63C26.4477 63 26 63.4477 26 64V73C26 73.5523 26.4477 74 27 74C27.5523 74 28 73.5523 28 73V64C28 63.4477 27.5523 63 27 63ZM23 67C22.4477 67 22 67.4477 22 68V73C22 73.5523 22.4477 74 23 74C23.5523 74 24 73.5523 24 73V68C24 67.4477 23.5523 67 23 67Z" fill="#12131A"/>
<path d="M5.94141 11.6641C5.94141 11.3805 5.87581 11.1414 5.74463 10.9468C5.61768 10.7521 5.45264 10.5871 5.24951 10.4517C5.04639 10.3205 4.8221 10.2104 4.57666 10.1216C4.33545 10.0327 4.1027 9.95231 3.87842 9.88037C3.55257 9.77458 3.22038 9.64762 2.88184 9.49951C2.54753 9.34717 2.24284 9.1652 1.96777 8.95361C1.68848 8.73779 1.45996 8.48389 1.28223 8.19189C1.10872 7.89567 1.02197 7.54867 1.02197 7.15088C1.02197 6.75309 1.10872 6.39762 1.28223 6.08447C1.45996 5.77132 1.69059 5.50684 1.97412 5.29102C2.25765 5.0752 2.57926 4.91227 2.93896 4.80225C3.29867 4.68799 3.66048 4.63086 4.02441 4.63086C4.42643 4.63086 4.81364 4.69857 5.18604 4.83398C5.55843 4.96517 5.88851 5.15137 6.17627 5.39258C6.46403 5.63379 6.69466 5.92578 6.86816 6.26855C7.04167 6.61133 7.13265 6.9943 7.14111 7.41748H5.93506C5.9012 7.15088 5.83561 6.90967 5.73828 6.69385C5.64095 6.4738 5.51188 6.28548 5.35107 6.12891C5.19027 5.97233 4.99772 5.85173 4.77344 5.76709C4.55339 5.67822 4.30371 5.63379 4.02441 5.63379C3.80013 5.63379 3.58008 5.66553 3.36426 5.729C3.15267 5.79248 2.96436 5.8877 2.79932 6.01465C2.63005 6.1416 2.49463 6.29818 2.39307 6.48438C2.29574 6.67057 2.24707 6.88639 2.24707 7.13184C2.2513 7.39844 2.31901 7.62484 2.4502 7.81104C2.58138 7.993 2.74854 8.14746 2.95166 8.27441C3.15055 8.40137 3.36637 8.50716 3.59912 8.5918C3.8361 8.67643 4.05827 8.75049 4.26562 8.81396C4.6084 8.91976 4.95117 9.04883 5.29395 9.20117C5.63672 9.34928 5.94987 9.53971 6.2334 9.77246C6.5127 9.98828 6.73698 10.2528 6.90625 10.5659C7.07975 10.8791 7.1665 11.2409 7.1665 11.6514C7.1665 12.0661 7.0734 12.4279 6.88721 12.7368C6.70524 13.0457 6.46826 13.3018 6.17627 13.5049C5.88428 13.7122 5.5542 13.8688 5.18604 13.9746C4.81787 14.0762 4.44971 14.127 4.08154 14.127C3.64144 14.127 3.20768 14.0529 2.78027 13.9048C2.3571 13.7567 1.98893 13.543 1.67578 13.2637C1.39648 13.0225 1.17432 12.741 1.00928 12.4194C0.84847 12.0936 0.761719 11.7318 0.749023 11.334H1.94873C1.98682 11.6217 2.0651 11.8778 2.18359 12.1021C2.30208 12.3221 2.45443 12.5083 2.64062 12.6606C2.82682 12.8172 3.04053 12.9357 3.28174 13.0161C3.52718 13.0923 3.79378 13.1304 4.08154 13.1304C4.31006 13.1304 4.53434 13.1029 4.75439 13.0479C4.97868 12.9886 5.17757 12.8976 5.35107 12.7749C5.52458 12.6564 5.66634 12.5062 5.77637 12.3242C5.88639 12.138 5.94141 11.918 5.94141 11.6641ZM8.58203 10.5024C8.58203 10.0073 8.65397 9.54818 8.79785 9.125C8.94173 8.69759 9.14909 8.32731 9.41992 8.01416C9.68652 7.70101 10.0124 7.45557 10.3975 7.27783C10.7826 7.09587 11.2163 7.00488 11.6987 7.00488C12.1854 7.00488 12.6213 7.09587 13.0063 7.27783C13.3957 7.45557 13.7257 7.70101 13.9966 8.01416C14.2632 8.32731 14.4684 8.69759 14.6123 9.125C14.7562 9.54818 14.8281 10.0073 14.8281 10.5024V10.6421C14.8281 11.1372 14.7562 11.5964 14.6123 12.0195C14.4684 12.4427 14.2632 12.8109 13.9966 13.124C13.7257 13.4372 13.3978 13.6826 13.0127 13.8604C12.6276 14.0381 12.1938 14.127 11.7114 14.127C11.2248 14.127 10.7868 14.0381 10.3975 13.8604C10.0124 13.6826 9.68652 13.4372 9.41992 13.124C9.14909 12.8109 8.94173 12.4427 8.79785 12.0195C8.65397 11.5964 8.58203 11.1372 8.58203 10.6421V10.5024ZM9.75635 10.6421C9.75635 10.9806 9.79655 11.3044 9.87695 11.6133C9.95736 11.918 10.0801 12.1867 10.2451 12.4194C10.4059 12.6522 10.609 12.8363 10.8545 12.9717C11.0999 13.1071 11.3856 13.1748 11.7114 13.1748C12.033 13.1748 12.3145 13.1071 12.5557 12.9717C12.8011 12.8363 13.0063 12.6522 13.1714 12.4194C13.3322 12.1867 13.4528 11.918 13.5332 11.6133C13.6136 11.3044 13.6538 10.9806 13.6538 10.6421V10.5024C13.6538 10.1681 13.6115 9.84863 13.5269 9.54395C13.4465 9.23503 13.3258 8.96419 13.165 8.73145C13 8.4987 12.7948 8.31462 12.5493 8.1792C12.3081 8.03955 12.0246 7.96973 11.6987 7.96973C11.3729 7.96973 11.0894 8.03955 10.8481 8.1792C10.6069 8.31462 10.4059 8.4987 10.2451 8.73145C10.0801 8.96419 9.95736 9.23503 9.87695 9.54395C9.79655 9.84863 9.75635 10.1681 9.75635 10.5024V10.6421ZM21.2456 14L21.1758 13.0542C20.9473 13.3927 20.6616 13.6572 20.3188 13.8477C19.9761 14.0339 19.5804 14.127 19.1318 14.127C18.7721 14.127 18.4463 14.0719 18.1543 13.9619C17.8623 13.8477 17.6126 13.672 17.4053 13.4351C17.1979 13.1981 17.0371 12.8976 16.9229 12.5337C16.8128 12.1655 16.7578 11.7254 16.7578 11.2134V7.13184H17.9321V11.2261C17.9321 11.5985 17.9618 11.9074 18.021 12.1528C18.0802 12.3983 18.1691 12.5929 18.2876 12.7368C18.4061 12.8849 18.55 12.9886 18.7192 13.0479C18.8927 13.1071 19.0916 13.1367 19.3159 13.1367C19.5783 13.1367 19.8132 13.1071 20.0205 13.0479C20.2279 12.9844 20.4077 12.8976 20.5601 12.7876C20.687 12.6987 20.797 12.5929 20.8901 12.4702C20.9875 12.3433 21.0679 12.2057 21.1313 12.0576V7.13184H22.312V14H21.2456ZM24.5273 14V7.13184H25.5811L25.6636 8.14746C25.7651 8.00358 25.8752 7.8724 25.9937 7.75391C26.1164 7.63118 26.2454 7.52539 26.3809 7.43652C26.584 7.30111 26.804 7.19743 27.041 7.12549C27.2822 7.04932 27.5361 7.00911 27.8027 7.00488C28.1624 7.00488 28.4883 7.05566 28.7803 7.15723C29.0765 7.25879 29.3283 7.41748 29.5356 7.6333C29.743 7.84912 29.9017 8.12419 30.0117 8.4585C30.126 8.78857 30.1831 9.18213 30.1831 9.63916V14H29.0088V9.66455C29.0088 9.35986 28.9749 9.10173 28.9072 8.89014C28.8395 8.67855 28.7401 8.50716 28.6089 8.37598C28.4735 8.24479 28.3084 8.14958 28.1138 8.09033C27.9233 8.03109 27.7033 8.00146 27.4536 8.00146C27.2378 8.00146 27.0368 8.0332 26.8506 8.09668C26.6644 8.15592 26.493 8.23844 26.3364 8.34424C26.2095 8.43734 26.091 8.54525 25.981 8.66797C25.8752 8.79069 25.7821 8.92611 25.7017 9.07422V14H24.5273ZM32.1128 10.5088C32.1128 9.99674 32.1763 9.52702 32.3032 9.09961C32.4344 8.66797 32.6206 8.29769 32.8618 7.98877C33.0988 7.67985 33.3866 7.43864 33.7251 7.26514C34.0636 7.09163 34.4424 7.00488 34.8613 7.00488C35.2718 7.00488 35.6294 7.07471 35.9341 7.21436C36.243 7.34977 36.5096 7.54867 36.7339 7.81104V4.25H37.9082V14H36.8291L36.7783 13.2764C36.5498 13.5557 36.2769 13.7673 35.9595 13.9111C35.6421 14.055 35.2718 14.127 34.8486 14.127C34.4339 14.127 34.0573 14.0381 33.7188 13.8604C33.3844 13.6826 33.0988 13.4372 32.8618 13.124C32.6248 12.8109 32.4408 12.4427 32.3096 12.0195C32.1784 11.5921 32.1128 11.133 32.1128 10.6421V10.5088ZM33.2871 10.6421C33.2871 10.9764 33.3231 11.2938 33.395 11.5942C33.467 11.8947 33.5791 12.1592 33.7314 12.3877C33.8796 12.6162 34.07 12.7982 34.3027 12.9336C34.5355 13.0648 34.8148 13.1304 35.1406 13.1304C35.5342 13.1304 35.86 13.0415 36.1182 12.8638C36.3763 12.686 36.5815 12.4469 36.7339 12.1465V8.95996C36.5815 8.68066 36.3763 8.45215 36.1182 8.27441C35.86 8.09245 35.5384 8.00146 35.1533 8.00146C34.8232 8.00146 34.5397 8.06917 34.3027 8.20459C34.07 8.34001 33.8796 8.52197 33.7314 8.75049C33.5791 8.98324 33.467 9.25195 33.395 9.55664C33.3231 9.8571 33.2871 10.1745 33.2871 10.5088V10.6421ZM46.1284 11.2197C46.0734 11.6471 45.9634 12.0407 45.7983 12.4004C45.6333 12.7559 45.4196 13.0605 45.1572 13.3145C44.8906 13.5726 44.5754 13.7736 44.2114 13.9175C43.8517 14.0571 43.4497 14.127 43.0054 14.127C42.6245 14.127 42.2775 14.0741 41.9644 13.9683C41.6554 13.8582 41.3804 13.708 41.1392 13.5176C40.8937 13.3271 40.6821 13.1029 40.5044 12.8447C40.3309 12.5866 40.187 12.3052 40.0728 12.0005C39.9543 11.6958 39.8654 11.3763 39.8062 11.042C39.7511 10.7077 39.7215 10.3691 39.7173 10.0264V8.73779C39.7215 8.39502 39.7511 8.05648 39.8062 7.72217C39.8654 7.38786 39.9543 7.06836 40.0728 6.76367C40.187 6.45898 40.3309 6.17757 40.5044 5.91943C40.6821 5.65706 40.8937 5.43066 41.1392 5.24023C41.3804 5.0498 41.6554 4.90169 41.9644 4.7959C42.2733 4.68587 42.6203 4.63086 43.0054 4.63086C43.4666 4.63086 43.8792 4.7028 44.2432 4.84668C44.6071 4.98633 44.9202 5.18522 45.1826 5.44336C45.445 5.70573 45.6545 6.01888 45.811 6.38281C45.9718 6.74674 46.0776 7.14876 46.1284 7.58887H44.9541C44.916 7.30957 44.8504 7.04932 44.7573 6.80811C44.6642 6.56689 44.5394 6.35531 44.3828 6.17334C44.2262 5.99137 44.0337 5.84961 43.8052 5.74805C43.5809 5.64225 43.3143 5.58936 43.0054 5.58936C42.7261 5.58936 42.4785 5.6359 42.2627 5.729C42.0511 5.81787 41.8691 5.94059 41.7168 6.09717C41.5602 6.25374 41.429 6.43571 41.3232 6.64307C41.2217 6.85042 41.1392 7.07048 41.0757 7.30322C41.0122 7.53597 40.9657 7.77507 40.936 8.02051C40.9106 8.26172 40.8979 8.49658 40.8979 8.7251V10.0264C40.8979 10.2549 40.9106 10.4919 40.936 10.7373C40.9657 10.9785 41.0122 11.2155 41.0757 11.4482C41.1392 11.6852 41.2217 11.9074 41.3232 12.1147C41.4248 12.3221 41.5539 12.5041 41.7104 12.6606C41.867 12.8215 42.0511 12.9484 42.2627 13.0415C42.4743 13.1304 42.7218 13.1748 43.0054 13.1748C43.3143 13.1748 43.5809 13.1261 43.8052 13.0288C44.0337 12.9315 44.2262 12.7939 44.3828 12.6162C44.5394 12.4427 44.6642 12.2375 44.7573 12.0005C44.8504 11.7593 44.916 11.499 44.9541 11.2197H46.1284ZM48.1343 4.25H51.6445V12.9844H53.8853V14H48.1343V12.9844H50.4702V5.27197H48.1343V4.25ZM55.4277 10.5024C55.4277 10.0073 55.4997 9.54818 55.6436 9.125C55.7874 8.69759 55.9948 8.32731 56.2656 8.01416C56.5322 7.70101 56.8581 7.45557 57.2432 7.27783C57.6283 7.09587 58.062 7.00488 58.5444 7.00488C59.0311 7.00488 59.467 7.09587 59.8521 7.27783C60.2414 7.45557 60.5715 7.70101 60.8423 8.01416C61.1089 8.32731 61.3141 8.69759 61.458 9.125C61.6019 9.54818 61.6738 10.0073 61.6738 10.5024V10.6421C61.6738 11.1372 61.6019 11.5964 61.458 12.0195C61.3141 12.4427 61.1089 12.8109 60.8423 13.124C60.5715 13.4372 60.2435 13.6826 59.8584 13.8604C59.4733 14.0381 59.0396 14.127 58.5571 14.127C58.0705 14.127 57.6325 14.0381 57.2432 13.8604C56.8581 13.6826 56.5322 13.4372 56.2656 13.124C55.9948 12.8109 55.7874 12.4427 55.6436 12.0195C55.4997 11.5964 55.4277 11.1372 55.4277 10.6421V10.5024ZM56.6021 10.6421C56.6021 10.9806 56.6423 11.3044 56.7227 11.6133C56.8031 11.918 56.9258 12.1867 57.0908 12.4194C57.2516 12.6522 57.4548 12.8363 57.7002 12.9717C57.9456 13.1071 58.2313 13.1748 58.5571 13.1748C58.8787 13.1748 59.1602 13.1071 59.4014 12.9717C59.6468 12.8363 59.8521 12.6522 60.0171 12.4194C60.1779 12.1867 60.2985 11.918 60.3789 11.6133C60.4593 11.3044 60.4995 10.9806 60.4995 10.6421V10.5024C60.4995 10.1681 60.4572 9.84863 60.3726 9.54395C60.2922 9.23503 60.1715 8.96419 60.0107 8.73145C59.8457 8.4987 59.6405 8.31462 59.395 8.1792C59.1538 8.03955 58.8703 7.96973 58.5444 7.96973C58.2186 7.96973 57.9351 8.03955 57.6938 8.1792C57.4526 8.31462 57.2516 8.4987 57.0908 8.73145C56.9258 8.96419 56.8031 9.23503 56.7227 9.54395C56.6423 9.84863 56.6021 10.1681 56.6021 10.5024V10.6421ZM68.0913 14L68.0215 13.0542C67.793 13.3927 67.5073 13.6572 67.1646 13.8477C66.8218 14.0339 66.4261 14.127 65.9775 14.127C65.6178 14.127 65.292 14.0719 65 13.9619C64.708 13.8477 64.4583 13.672 64.251 13.4351C64.0436 13.1981 63.8828 12.8976 63.7686 12.5337C63.6585 12.1655 63.6035 11.7254 63.6035 11.2134V7.13184H64.7778V11.2261C64.7778 11.5985 64.8075 11.9074 64.8667 12.1528C64.9259 12.3983 65.0148 12.5929 65.1333 12.7368C65.2518 12.8849 65.3957 12.9886 65.5649 13.0479C65.7384 13.1071 65.9373 13.1367 66.1616 13.1367C66.424 13.1367 66.6589 13.1071 66.8662 13.0479C67.0736 12.9844 67.2534 12.8976 67.4058 12.7876C67.5327 12.6987 67.6427 12.5929 67.7358 12.4702C67.8332 12.3433 67.9136 12.2057 67.9771 12.0576V7.13184H69.1577V14H68.0913ZM71.1509 10.5088C71.1509 9.99674 71.2144 9.52702 71.3413 9.09961C71.4725 8.66797 71.6587 8.29769 71.8999 7.98877C72.1369 7.67985 72.4246 7.43864 72.7632 7.26514C73.1017 7.09163 73.4805 7.00488 73.8994 7.00488C74.3099 7.00488 74.6675 7.07471 74.9722 7.21436C75.2811 7.34977 75.5477 7.54867 75.772 7.81104V4.25H76.9463V14H75.8672L75.8164 13.2764C75.5879 13.5557 75.3149 13.7673 74.9976 13.9111C74.6802 14.055 74.3099 14.127 73.8867 14.127C73.472 14.127 73.0954 14.0381 72.7568 13.8604C72.4225 13.6826 72.1369 13.4372 71.8999 13.124C71.6629 12.8109 71.4788 12.4427 71.3477 12.0195C71.2165 11.5921 71.1509 11.133 71.1509 10.6421V10.5088ZM72.3252 10.6421C72.3252 10.9764 72.3612 11.2938 72.4331 11.5942C72.505 11.8947 72.6172 12.1592 72.7695 12.3877C72.9176 12.6162 73.1081 12.7982 73.3408 12.9336C73.5736 13.0648 73.8529 13.1304 74.1787 13.1304C74.5723 13.1304 74.8981 13.0415 75.1562 12.8638C75.4144 12.686 75.6196 12.4469 75.772 12.1465V8.95996C75.6196 8.68066 75.4144 8.45215 75.1562 8.27441C74.8981 8.09245 74.5765 8.00146 74.1914 8.00146C73.8613 8.00146 73.5778 8.06917 73.3408 8.20459C73.1081 8.34001 72.9176 8.52197 72.7695 8.75049C72.6172 8.98324 72.505 9.25195 72.4331 9.55664C72.3612 9.8571 72.3252 10.1745 72.3252 10.5088V10.6421Z" fill="#696C80"/>
</svg>
