<svg width="160" height="98" viewBox="0 0 160 98" fill="none" xmlns="http://www.w3.org/2000/svg">
<rect x="0.5" y="34.5" width="159" height="63" rx="4.5" stroke="#9747FF" stroke-dasharray="10 5"/>
<path d="M119 61.8C119 60.1198 119 59.2798 119.327 58.638C119.615 58.0735 120.074 57.6146 120.638 57.327C121.28 57 122.12 57 123.8 57H132.2C133.88 57 134.72 57 135.362 57.327C135.926 57.6146 136.385 58.0735 136.673 58.638C137 59.2798 137 60.1198 137 61.8V70.2C137 71.8802 137 72.7202 136.673 73.362C136.385 73.9265 135.926 74.3854 135.362 74.673C134.72 75 133.88 75 132.2 75H123.8C122.12 75 121.28 75 120.638 74.673C120.074 74.3854 119.615 73.9265 119.327 73.362C119 72.7202 119 71.8802 119 70.2V61.8Z" fill="#BABDCC"/>
<path fill-rule="evenodd" clip-rule="evenodd" d="M121 60C121 59.4477 121.448 59 122 59H134C134.552 59 135 59.4477 135 60C135 60.5523 134.552 61 134 61H122C121.448 61 121 60.5523 121 60ZM122 63C121.448 63 121 63.4477 121 64C121 64.5523 121.448 65 122 65H134C134.552 65 135 64.5523 135 64C135 63.4477 134.552 63 134 63H122ZM122 71C121.448 71 121 71.4477 121 72C121 72.5523 121.448 73 122 73H134C134.552 73 135 72.5523 135 72C135 71.4477 134.552 71 134 71H122ZM122 67C121.448 67 121 67.4477 121 68C121 68.5523 121.448 69 122 69H134C134.552 69 135 68.5523 135 68C135 67.4477 134.552 67 134 67H122Z" fill="#12131A"/>
<path fill-rule="evenodd" clip-rule="evenodd" d="M71 61.8C71 60.1198 71 59.2798 71.327 58.638C71.6146 58.0735 72.0735 57.6146 72.638 57.327C73.2798 57 74.1198 57 75.8 57H84.2C85.8802 57 86.7202 57 87.362 57.327C87.9265 57.6146 88.3854 58.0735 88.673 58.638C89 59.2798 89 60.1198 89 61.8V70.2C89 71.8802 89 72.7202 88.673 73.362C88.3854 73.9265 87.9265 74.3854 87.362 74.673C86.7202 75 85.8802 75 84.2 75H75.8C74.1198 75 73.2798 75 72.638 74.673C72.0735 74.3854 71.6146 73.9265 71.327 73.362C71 72.7202 71 71.8802 71 70.2V61.8ZM73 64C73 63.4477 73.4477 63 74 63H86C86.5523 63 87 63.4477 87 64C87 64.5523 86.5523 65 86 65H74C73.4477 65 73 64.5523 73 64ZM74 71C73.4477 71 73 71.4477 73 72C73 72.5523 73.4477 73 74 73H86C86.5523 73 87 72.5523 87 72C87 71.4477 86.5523 71 86 71H74ZM73 60C73 59.4477 73.4477 59 74 59H86C86.5523 59 87 59.4477 87 60C87 60.5523 86.5523 61 86 61H74C73.4477 61 73 60.5523 73 60ZM74 67C73.4477 67 73 67.4477 73 68C73 68.5523 73.4477 69 74 69H86C86.5523 69 87 68.5523 87 68C87 67.4477 86.5523 67 86 67H74Z" fill="#12131A"/>
<path fill-rule="evenodd" clip-rule="evenodd" d="M23 58C23 57.4477 23.4477 57 24 57H40C40.5523 57 41 57.4477 41 58C41 58.5523 40.5523 59 40 59H24C23.4477 59 23 58.5523 23 58ZM23 66C23 65.4477 23.4477 65 24 65H40C40.5523 65 41 65.4477 41 66C41 66.5523 40.5523 67 40 67H24C23.4477 67 23 66.5523 23 66ZM24 73C23.4477 73 23 73.4477 23 74C23 74.5523 23.4477 75 24 75H40C40.5523 75 41 74.5523 41 74C41 73.4477 40.5523 73 40 73H24ZM23 62C23 61.4477 23.4477 61 24 61H40C40.5523 61 41 61.4477 41 62C41 62.5523 40.5523 63 40 63H24C23.4477 63 23 62.5523 23 62ZM24 69C23.4477 69 23 69.4477 23 70C23 70.5523 23.4477 71 24 71H40C40.5523 71 41 70.5523 41 70C41 69.4477 40.5523 69 40 69H24Z" fill="#12131A"/>
<path d="M7.33789 5.76074H4.48145V14H3.33887V5.76074H0.482422V4.75781H7.33789V5.76074ZM11.9463 14.127C11.4639 14.127 11.0195 14.0444 10.6133 13.8794C10.2113 13.7144 9.86637 13.4837 9.57861 13.1875C9.29085 12.8913 9.06657 12.54 8.90576 12.1338C8.74495 11.7275 8.66455 11.2853 8.66455 10.8071V10.5405C8.66455 9.98617 8.75342 9.49105 8.93115 9.05518C9.10889 8.61507 9.34587 8.24268 9.64209 7.93799C9.93408 7.63753 10.2663 7.4069 10.6387 7.24609C11.0153 7.08529 11.4004 7.00488 11.7939 7.00488C12.2891 7.00488 12.7207 7.09163 13.0889 7.26514C13.4613 7.43441 13.7702 7.66927 14.0156 7.96973C14.2611 8.27441 14.443 8.632 14.5615 9.04248C14.6842 9.45296 14.7456 9.8973 14.7456 10.3755V10.9023H9.83887V10.9468C9.86849 11.2811 9.93408 11.5752 10.0356 11.8291C10.1414 12.083 10.2853 12.3073 10.4673 12.502C10.6535 12.7093 10.8778 12.8722 11.1401 12.9907C11.4025 13.1092 11.6924 13.1685 12.0098 13.1685C12.4287 13.1685 12.8011 13.0838 13.127 12.9146C13.4528 12.7453 13.7236 12.521 13.9395 12.2417L14.6567 12.8003C14.4282 13.1473 14.0854 13.4562 13.6284 13.7271C13.1756 13.9937 12.6149 14.127 11.9463 14.127ZM11.7939 7.96973C11.557 7.96973 11.3327 8.01416 11.1211 8.10303C10.9095 8.18766 10.7191 8.3125 10.5498 8.47754C10.3805 8.64681 10.2367 8.85417 10.1182 9.09961C10.0039 9.34082 9.9235 9.62012 9.87695 9.9375H13.5713V9.88037C13.5713 9.66878 13.5311 9.44238 13.4507 9.20117C13.3703 8.95573 13.2581 8.74414 13.1143 8.56641C12.9704 8.38867 12.7884 8.24479 12.5684 8.13477C12.3525 8.02474 12.0944 7.96973 11.7939 7.96973ZM19.5571 9.67725L21.3916 7.13184H22.769L20.2109 10.5278L22.8389 14H21.4805L19.5825 11.3848L17.6846 14H16.3135L18.9414 10.5278L16.3833 7.13184H17.7417L19.5571 9.67725ZM27.3076 5.46875V7.13184H29.9229V8.03955H27.3076V11.772C27.3076 12.0386 27.3415 12.2586 27.4092 12.4321C27.4769 12.6056 27.57 12.7432 27.6885 12.8447C27.807 12.9505 27.9424 13.0246 28.0947 13.0669C28.2513 13.1092 28.4163 13.1304 28.5898 13.1304C28.7168 13.1304 28.848 13.124 28.9834 13.1113C29.1188 13.0944 29.2521 13.0754 29.3833 13.0542C29.5103 13.033 29.6287 13.0119 29.7388 12.9907C29.853 12.9653 29.9461 12.9442 30.0181 12.9272L30.1831 13.7588C30.0858 13.818 29.9673 13.8709 29.8276 13.9175C29.688 13.9598 29.5356 13.9958 29.3706 14.0254C29.2056 14.0592 29.0299 14.0846 28.8438 14.1016C28.6618 14.1185 28.4798 14.127 28.2979 14.127C27.9932 14.127 27.7075 14.0846 27.4409 14C27.1785 13.9111 26.95 13.7715 26.7554 13.5811C26.5607 13.3949 26.4062 13.1536 26.292 12.8574C26.182 12.557 26.127 12.1951 26.127 11.772V8.03955H24.3242V7.13184H26.127V5.46875H27.3076ZM44.5542 11.6069H41.4692L40.7266 14H39.5522L42.5356 4.75781H43.5195L46.4521 14H45.2842L44.5542 11.6069ZM41.7866 10.585H44.2432L43.0244 6.57324L41.7866 10.585ZM48.1343 4.25H51.6445V12.9844H53.8853V14H48.1343V12.9844H50.4702V5.27197H48.1343V4.25ZM55.9419 7.13184H59.4521V12.9844H61.6929V14H55.9419V12.9844H58.2778V8.15381H55.9419V7.13184ZM58.1255 5.3291C58.1255 5.22754 58.1403 5.13232 58.1699 5.04346C58.2038 4.95459 58.2546 4.87842 58.3223 4.81494C58.3773 4.75993 58.4471 4.71761 58.5317 4.68799C58.6206 4.65413 58.7201 4.63721 58.8301 4.63721C58.9401 4.63721 59.0374 4.65413 59.1221 4.68799C59.2067 4.71761 59.2765 4.75993 59.3315 4.81494C59.3993 4.87419 59.45 4.94824 59.4839 5.03711C59.5177 5.12598 59.5347 5.22331 59.5347 5.3291C59.5347 5.51953 59.4754 5.67822 59.3569 5.80518C59.2384 5.93213 59.0628 5.99561 58.8301 5.99561C58.5931 5.99561 58.4154 5.93213 58.2969 5.80518C58.1826 5.67822 58.1255 5.51953 58.1255 5.3291ZM63.3496 10.5088C63.3496 9.99674 63.411 9.52702 63.5337 9.09961C63.6606 8.66797 63.8426 8.29769 64.0796 7.98877C64.3166 7.67985 64.6043 7.43864 64.9429 7.26514C65.2814 7.09163 65.6644 7.00488 66.0918 7.00488C66.3669 7.00488 66.6187 7.03662 66.8472 7.1001C67.0799 7.16357 67.2894 7.25667 67.4756 7.37939C67.5771 7.44287 67.6724 7.51693 67.7612 7.60156C67.8543 7.6862 67.9411 7.7793 68.0215 7.88086L68.0786 7.13184H69.145V13.854C69.145 14.3068 69.0731 14.7088 68.9292 15.0601C68.7896 15.4113 68.5928 15.7096 68.3389 15.9551C68.0807 16.2005 67.7739 16.3867 67.4185 16.5137C67.063 16.6406 66.6694 16.7041 66.2378 16.7041C66.0601 16.7041 65.8569 16.6829 65.6284 16.6406C65.3999 16.6025 65.1693 16.5369 64.9365 16.4438C64.6995 16.355 64.471 16.2344 64.251 16.082C64.0352 15.9297 63.849 15.7414 63.6924 15.5171L64.3018 14.8125C64.4456 14.986 64.5938 15.132 64.7461 15.2505C64.8984 15.3732 65.0529 15.4705 65.2095 15.5425C65.366 15.6144 65.5226 15.6652 65.6792 15.6948C65.8358 15.7287 65.9924 15.7456 66.1489 15.7456C66.4282 15.7456 66.68 15.7054 66.9043 15.625C67.1286 15.5446 67.3211 15.4261 67.4819 15.2695C67.6385 15.1172 67.7591 14.9268 67.8438 14.6982C67.9284 14.4697 67.9707 14.2074 67.9707 13.9111V13.3208C67.8818 13.4224 67.7866 13.5155 67.6851 13.6001C67.5877 13.6847 67.4819 13.7588 67.3677 13.8223C67.1899 13.9196 66.9932 13.9937 66.7773 14.0444C66.5615 14.0994 66.3288 14.127 66.0791 14.127C65.6602 14.127 65.2814 14.0381 64.9429 13.8604C64.6043 13.6826 64.3187 13.4372 64.0859 13.124C63.849 12.8109 63.667 12.4427 63.54 12.0195C63.4131 11.5921 63.3496 11.133 63.3496 10.6421V10.5088ZM64.5239 10.6421C64.5239 10.9764 64.5578 11.2938 64.6255 11.5942C64.6974 11.8947 64.8096 12.1592 64.9619 12.3877C65.11 12.6162 65.3005 12.7982 65.5332 12.9336C65.766 13.0648 66.0452 13.1304 66.3711 13.1304C66.5742 13.1304 66.7562 13.1071 66.917 13.0605C67.082 13.0098 67.2301 12.9399 67.3613 12.8511C67.4883 12.7622 67.6025 12.6564 67.7041 12.5337C67.8057 12.411 67.8945 12.2756 67.9707 12.1274V8.979C67.8945 8.83512 67.8057 8.70394 67.7041 8.58545C67.6025 8.46696 67.4862 8.36328 67.355 8.27441C67.2238 8.18978 67.0778 8.12419 66.917 8.07764C66.7562 8.02686 66.5785 8.00146 66.3838 8.00146C66.0537 8.00146 65.7702 8.06917 65.5332 8.20459C65.3005 8.34001 65.11 8.52197 64.9619 8.75049C64.8096 8.98324 64.6974 9.25195 64.6255 9.55664C64.5578 9.8571 64.5239 10.1745 64.5239 10.5088V10.6421ZM71.373 14V7.13184H72.4268L72.5093 8.14746C72.6108 8.00358 72.7209 7.8724 72.8394 7.75391C72.9621 7.63118 73.0911 7.52539 73.2266 7.43652C73.4297 7.30111 73.6497 7.19743 73.8867 7.12549C74.1279 7.04932 74.3818 7.00911 74.6484 7.00488C75.0081 7.00488 75.334 7.05566 75.626 7.15723C75.9222 7.25879 76.174 7.41748 76.3813 7.6333C76.5887 7.84912 76.7474 8.12419 76.8574 8.4585C76.9717 8.78857 77.0288 9.18213 77.0288 9.63916V14H75.8545V9.66455C75.8545 9.35986 75.8206 9.10173 75.7529 8.89014C75.6852 8.67855 75.5858 8.50716 75.4546 8.37598C75.3192 8.24479 75.1541 8.14958 74.9595 8.09033C74.769 8.03109 74.549 8.00146 74.2993 8.00146C74.0835 8.00146 73.8825 8.0332 73.6963 8.09668C73.5101 8.15592 73.3387 8.23844 73.1821 8.34424C73.0552 8.43734 72.9367 8.54525 72.8267 8.66797C72.7209 8.79069 72.6278 8.92611 72.5474 9.07422V14H71.373ZM91.3237 4.75781H92.5234V11.188C92.515 11.6154 92.4325 12.009 92.2759 12.3687C92.1235 12.7284 91.9141 13.0373 91.6475 13.2954C91.3809 13.5578 91.0656 13.763 90.7017 13.9111C90.342 14.055 89.9484 14.127 89.521 14.127C89.0894 14.127 88.6958 14.0614 88.3403 13.9302C87.9891 13.799 87.6844 13.6107 87.4263 13.3652C87.1639 13.124 86.9544 12.832 86.7979 12.4893C86.6413 12.1423 86.5439 11.755 86.5059 11.3276H87.6992C87.7119 11.5858 87.7627 11.8249 87.8516 12.0449C87.9447 12.265 88.0695 12.4554 88.2261 12.6162C88.3826 12.7812 88.5688 12.9082 88.7847 12.9971C89.0047 13.0859 89.2502 13.1304 89.521 13.1304C89.8003 13.1304 90.05 13.0796 90.27 12.978C90.4901 12.8722 90.6784 12.7305 90.835 12.5527C90.9873 12.375 91.1037 12.1698 91.1841 11.937C91.2687 11.7 91.3153 11.4504 91.3237 11.188V4.75781ZM99.3218 14L99.252 13.0542C99.0234 13.3927 98.7378 13.6572 98.395 13.8477C98.0522 14.0339 97.6566 14.127 97.208 14.127C96.8483 14.127 96.5225 14.0719 96.2305 13.9619C95.9385 13.8477 95.6888 13.672 95.4814 13.4351C95.2741 13.1981 95.1133 12.8976 94.999 12.5337C94.889 12.1655 94.834 11.7254 94.834 11.2134V7.13184H96.0083V11.2261C96.0083 11.5985 96.0379 11.9074 96.0972 12.1528C96.1564 12.3983 96.2453 12.5929 96.3638 12.7368C96.4823 12.8849 96.6261 12.9886 96.7954 13.0479C96.9689 13.1071 97.1678 13.1367 97.3921 13.1367C97.6545 13.1367 97.8893 13.1071 98.0967 13.0479C98.304 12.9844 98.4839 12.8976 98.6362 12.7876C98.7632 12.6987 98.8732 12.5929 98.9663 12.4702C99.0636 12.3433 99.144 12.2057 99.2075 12.0576V7.13184H100.388V14H99.3218ZM107.167 12.1782C107.167 12.0386 107.14 11.9137 107.085 11.8037C107.03 11.6895 106.937 11.5858 106.806 11.4927C106.674 11.3996 106.501 11.3149 106.285 11.2388C106.069 11.1584 105.801 11.0864 105.479 11.0229C105.085 10.9425 104.726 10.8452 104.4 10.731C104.078 10.6167 103.803 10.4792 103.575 10.3184C103.342 10.1618 103.162 9.9777 103.035 9.76611C102.908 9.55029 102.845 9.30062 102.845 9.01709C102.845 8.73779 102.91 8.47754 103.042 8.23633C103.173 7.99089 103.357 7.77718 103.594 7.59521C103.831 7.41325 104.112 7.26937 104.438 7.16357C104.768 7.05778 105.13 7.00488 105.523 7.00488C105.947 7.00488 106.327 7.0599 106.666 7.16992C107.005 7.27995 107.292 7.43229 107.529 7.62695C107.766 7.82161 107.948 8.05013 108.075 8.3125C108.206 8.57064 108.272 8.84993 108.272 9.15039H107.098C107.098 9.00228 107.06 8.8584 106.983 8.71875C106.907 8.57487 106.801 8.44792 106.666 8.33789C106.531 8.22786 106.366 8.139 106.171 8.07129C105.98 8.00358 105.765 7.96973 105.523 7.96973C105.274 7.96973 105.054 7.99723 104.863 8.05225C104.677 8.10726 104.523 8.18132 104.4 8.27441C104.273 8.36751 104.178 8.47542 104.114 8.59814C104.051 8.72087 104.019 8.84782 104.019 8.979C104.019 9.11442 104.044 9.23503 104.095 9.34082C104.146 9.44661 104.235 9.54183 104.362 9.62646C104.485 9.7111 104.65 9.78727 104.857 9.85498C105.069 9.92269 105.335 9.98828 105.657 10.0518C106.08 10.1406 106.459 10.2443 106.793 10.3628C107.127 10.4771 107.409 10.6146 107.637 10.7754C107.866 10.9404 108.039 11.1309 108.158 11.3467C108.28 11.5625 108.342 11.8122 108.342 12.0957C108.342 12.4004 108.272 12.6776 108.132 12.9272C107.997 13.1769 107.806 13.3906 107.561 13.5684C107.316 13.7461 107.021 13.8836 106.679 13.981C106.336 14.0783 105.961 14.127 105.555 14.127C105.09 14.127 104.675 14.0656 104.311 13.9429C103.947 13.8159 103.64 13.6488 103.391 13.4414C103.137 13.2383 102.942 13.0013 102.807 12.7305C102.675 12.4596 102.61 12.1782 102.61 11.8862H103.784C103.801 12.1274 103.865 12.3306 103.975 12.4956C104.089 12.6606 104.231 12.7939 104.4 12.8955C104.565 12.9971 104.749 13.069 104.952 13.1113C105.155 13.1536 105.356 13.1748 105.555 13.1748C105.868 13.1748 106.141 13.1388 106.374 13.0669C106.607 12.9907 106.789 12.887 106.92 12.7559C107 12.6755 107.062 12.5866 107.104 12.4893C107.146 12.3919 107.167 12.2882 107.167 12.1782ZM113.191 5.46875V7.13184H115.807V8.03955H113.191V11.772C113.191 12.0386 113.225 12.2586 113.293 12.4321C113.361 12.6056 113.454 12.7432 113.572 12.8447C113.691 12.9505 113.826 13.0246 113.979 13.0669C114.135 13.1092 114.3 13.1304 114.474 13.1304C114.601 13.1304 114.732 13.124 114.867 13.1113C115.003 13.0944 115.136 13.0754 115.267 13.0542C115.394 13.033 115.513 13.0119 115.623 12.9907C115.737 12.9653 115.83 12.9442 115.902 12.9272L116.067 13.7588C115.97 13.818 115.851 13.8709 115.711 13.9175C115.572 13.9598 115.419 13.9958 115.254 14.0254C115.089 14.0592 114.914 14.0846 114.728 14.1016C114.546 14.1185 114.364 14.127 114.182 14.127C113.877 14.127 113.591 14.0846 113.325 14C113.062 13.9111 112.834 13.7715 112.639 13.5811C112.444 13.3949 112.29 13.1536 112.176 12.8574C112.066 12.557 112.011 12.1951 112.011 11.772V8.03955H110.208V7.13184H112.011V5.46875H113.191ZM118.403 7.13184H121.913V12.9844H124.154V14H118.403V12.9844H120.739V8.15381H118.403V7.13184ZM120.586 5.3291C120.586 5.22754 120.601 5.13232 120.631 5.04346C120.665 4.95459 120.715 4.87842 120.783 4.81494C120.838 4.75993 120.908 4.71761 120.993 4.68799C121.082 4.65413 121.181 4.63721 121.291 4.63721C121.401 4.63721 121.498 4.65413 121.583 4.68799C121.668 4.71761 121.737 4.75993 121.792 4.81494C121.86 4.87419 121.911 4.94824 121.945 5.03711C121.979 5.12598 121.996 5.22331 121.996 5.3291C121.996 5.51953 121.936 5.67822 121.818 5.80518C121.699 5.93213 121.524 5.99561 121.291 5.99561C121.054 5.99561 120.876 5.93213 120.758 5.80518C120.644 5.67822 120.586 5.51953 120.586 5.3291ZM127.778 14V8.03955H125.887V7.13184H127.778V6.64941C127.778 6.20931 127.842 5.82422 127.969 5.49414C128.1 5.15983 128.284 4.88053 128.521 4.65625C128.754 4.43197 129.035 4.2627 129.365 4.14844C129.695 4.03418 130.063 3.97705 130.47 3.97705C130.639 3.97705 130.806 3.98763 130.971 4.00879C131.136 4.02572 131.299 4.04899 131.46 4.07861C131.566 4.09977 131.672 4.12305 131.777 4.14844C131.883 4.1696 131.991 4.19499 132.101 4.22461L131.961 5.1958C131.788 5.13656 131.585 5.08577 131.352 5.04346C131.124 4.99691 130.878 4.97363 130.616 4.97363C130.349 4.97363 130.112 5.00749 129.905 5.0752C129.702 5.13867 129.532 5.236 129.397 5.36719C129.253 5.5026 129.143 5.67822 129.067 5.89404C128.995 6.10986 128.959 6.36165 128.959 6.64941V7.13184H131.606V8.03955H128.959V14H127.778ZM134.386 16.7739C134.276 16.7739 134.147 16.7612 133.999 16.7358C133.851 16.7104 133.739 16.6893 133.663 16.6724L133.853 15.7139C133.959 15.7223 134.062 15.7287 134.164 15.7329C134.27 15.7414 134.352 15.7456 134.412 15.7456C134.572 15.7456 134.718 15.7012 134.85 15.6123C134.985 15.5234 135.106 15.4176 135.211 15.2949C135.313 15.1722 135.4 15.0452 135.472 14.9141C135.548 14.7829 135.607 14.675 135.649 14.5903L136.119 13.6763L133.161 7.13184H134.475L136.36 11.5625L136.665 12.394L136.989 11.5879L138.76 7.13184H140.074L136.589 15.0601C136.508 15.2378 136.405 15.4261 136.278 15.625C136.155 15.8239 136.005 16.008 135.827 16.1772C135.649 16.3465 135.442 16.4883 135.205 16.6025C134.968 16.7168 134.695 16.7739 134.386 16.7739Z" fill="#696C80"/>
</svg>
