<svg width="160" height="98" viewBox="0 0 160 98" fill="none" xmlns="http://www.w3.org/2000/svg">
<rect x="0.5" y="34.5" width="159" height="63" rx="4.5" stroke="#9747FF" stroke-dasharray="10 5"/>
<path d="M119 61.8C119 60.1198 119 59.2798 119.327 58.638C119.615 58.0735 120.074 57.6146 120.638 57.327C121.28 57 122.12 57 123.8 57H132.2C133.88 57 134.72 57 135.362 57.327C135.926 57.6146 136.385 58.0735 136.673 58.638C137 59.2798 137 60.1198 137 61.8V70.2C137 71.8802 137 72.7202 136.673 73.362C136.385 73.9265 135.926 74.3854 135.362 74.673C134.72 75 133.88 75 132.2 75H123.8C122.12 75 121.28 75 120.638 74.673C120.074 74.3854 119.615 73.9265 119.327 73.362C119 72.7202 119 71.8802 119 70.2V61.8Z" fill="#BABDCC"/>
<path d="M135 60C135 59.4477 134.552 59 134 59H122C121.448 59 121 59.4477 121 60C121 60.5523 121.448 61 122 61H134C134.552 61 135 60.5523 135 60Z" fill="#12131A"/>
<path d="M134 63C134.552 63 135 63.4477 135 64C135 64.5523 134.552 65 134 65H128C127.448 65 127 64.5523 127 64C127 63.4477 127.448 63 128 63H134Z" fill="#12131A"/>
<path d="M134 71C134.552 71 135 71.4477 135 72C135 72.5523 134.552 73 134 73H128C127.448 73 127 72.5523 127 72C127 71.4477 127.448 71 128 71H134Z" fill="#12131A"/>
<path d="M134 67C134.552 67 135 67.4477 135 68C135 68.5523 134.552 69 134 69H122C121.448 69 121 68.5523 121 68C121 67.4477 121.448 67 122 67H134Z" fill="#12131A"/>
<path fill-rule="evenodd" clip-rule="evenodd" d="M89 61.8C89 60.1198 89 59.2798 88.673 58.638C88.3854 58.0735 87.9265 57.6146 87.362 57.327C86.7202 57 85.8802 57 84.2 57H75.8C74.1198 57 73.2798 57 72.638 57.327C72.0735 57.6146 71.6146 58.0735 71.327 58.638C71 59.2798 71 60.1198 71 61.8V70.2C71 71.8802 71 72.7202 71.327 73.362C71.6146 73.9265 72.0735 74.3854 72.638 74.673C73.2798 75 74.1198 75 75.8 75H84.2C85.8802 75 86.7202 75 87.362 74.673C87.9265 74.3854 88.3854 73.9265 88.673 73.362C89 72.7202 89 71.8802 89 70.2V61.8ZM87 64C87 63.4477 86.5523 63 86 63H80C79.4477 63 79 63.4477 79 64C79 64.5523 79.4477 65 80 65H86C86.5523 65 87 64.5523 87 64ZM86 71C86.5523 71 87 71.4477 87 72C87 72.5523 86.5523 73 86 73H80C79.4477 73 79 72.5523 79 72C79 71.4477 79.4477 71 80 71H86ZM87 60C87 59.4477 86.5523 59 86 59H74C73.4477 59 73 59.4477 73 60C73 60.5523 73.4477 61 74 61H86C86.5523 61 87 60.5523 87 60ZM86 67C86.5523 67 87 67.4477 87 68C87 68.5523 86.5523 69 86 69H74C73.4477 69 73 68.5523 73 68C73 67.4477 73.4477 67 74 67H86Z" fill="#12131A"/>
<path d="M41 58C41 57.4477 40.5523 57 40 57H24C23.4477 57 23 57.4477 23 58C23 58.5523 23.4477 59 24 59H40C40.5523 59 41 58.5523 41 58Z" fill="#12131A"/>
<path d="M41 66C41 65.4477 40.5523 65 40 65H24C23.4477 65 23 65.4477 23 66C23 66.5523 23.4477 67 24 67H40C40.5523 67 41 66.5523 41 66Z" fill="#12131A"/>
<path d="M40 73C40.5523 73 41 73.4477 41 74C41 74.5523 40.5523 75 40 75H24C23.4477 75 23 74.5523 23 74C23 73.4477 23.4477 73 24 73H40Z" fill="#12131A"/>
<path d="M41 62C41 61.4477 40.5523 61 40 61H32C31.4477 61 31 61.4477 31 62C31 62.5523 31.4477 63 32 63H40C40.5523 63 41 62.5523 41 62Z" fill="#12131A"/>
<path d="M40 69C40.5523 69 41 69.4477 41 70C41 70.5523 40.5523 71 40 71H32C31.4477 71 31 70.5523 31 70C31 69.4477 31.4477 69 32 69H40Z" fill="#12131A"/>
<path d="M7.33789 5.76074H4.48145V14H3.33887V5.76074H0.482422V4.75781H7.33789V5.76074ZM11.9463 14.127C11.4639 14.127 11.0195 14.0444 10.6133 13.8794C10.2113 13.7144 9.86637 13.4837 9.57861 13.1875C9.29085 12.8913 9.06657 12.54 8.90576 12.1338C8.74495 11.7275 8.66455 11.2853 8.66455 10.8071V10.5405C8.66455 9.98617 8.75342 9.49105 8.93115 9.05518C9.10889 8.61507 9.34587 8.24268 9.64209 7.93799C9.93408 7.63753 10.2663 7.4069 10.6387 7.24609C11.0153 7.08529 11.4004 7.00488 11.7939 7.00488C12.2891 7.00488 12.7207 7.09163 13.0889 7.26514C13.4613 7.43441 13.7702 7.66927 14.0156 7.96973C14.2611 8.27441 14.443 8.632 14.5615 9.04248C14.6842 9.45296 14.7456 9.8973 14.7456 10.3755V10.9023H9.83887V10.9468C9.86849 11.2811 9.93408 11.5752 10.0356 11.8291C10.1414 12.083 10.2853 12.3073 10.4673 12.502C10.6535 12.7093 10.8778 12.8722 11.1401 12.9907C11.4025 13.1092 11.6924 13.1685 12.0098 13.1685C12.4287 13.1685 12.8011 13.0838 13.127 12.9146C13.4528 12.7453 13.7236 12.521 13.9395 12.2417L14.6567 12.8003C14.4282 13.1473 14.0854 13.4562 13.6284 13.7271C13.1756 13.9937 12.6149 14.127 11.9463 14.127ZM11.7939 7.96973C11.557 7.96973 11.3327 8.01416 11.1211 8.10303C10.9095 8.18766 10.7191 8.3125 10.5498 8.47754C10.3805 8.64681 10.2367 8.85417 10.1182 9.09961C10.0039 9.34082 9.9235 9.62012 9.87695 9.9375H13.5713V9.88037C13.5713 9.66878 13.5311 9.44238 13.4507 9.20117C13.3703 8.95573 13.2581 8.74414 13.1143 8.56641C12.9704 8.38867 12.7884 8.24479 12.5684 8.13477C12.3525 8.02474 12.0944 7.96973 11.7939 7.96973ZM19.5571 9.67725L21.3916 7.13184H22.769L20.2109 10.5278L22.8389 14H21.4805L19.5825 11.3848L17.6846 14H16.3135L18.9414 10.5278L16.3833 7.13184H17.7417L19.5571 9.67725ZM27.3076 5.46875V7.13184H29.9229V8.03955H27.3076V11.772C27.3076 12.0386 27.3415 12.2586 27.4092 12.4321C27.4769 12.6056 27.57 12.7432 27.6885 12.8447C27.807 12.9505 27.9424 13.0246 28.0947 13.0669C28.2513 13.1092 28.4163 13.1304 28.5898 13.1304C28.7168 13.1304 28.848 13.124 28.9834 13.1113C29.1188 13.0944 29.2521 13.0754 29.3833 13.0542C29.5103 13.033 29.6287 13.0119 29.7388 12.9907C29.853 12.9653 29.9461 12.9442 30.0181 12.9272L30.1831 13.7588C30.0858 13.818 29.9673 13.8709 29.8276 13.9175C29.688 13.9598 29.5356 13.9958 29.3706 14.0254C29.2056 14.0592 29.0299 14.0846 28.8438 14.1016C28.6618 14.1185 28.4798 14.127 28.2979 14.127C27.9932 14.127 27.7075 14.0846 27.4409 14C27.1785 13.9111 26.95 13.7715 26.7554 13.5811C26.5607 13.3949 26.4062 13.1536 26.292 12.8574C26.182 12.557 26.127 12.1951 26.127 11.772V8.03955H24.3242V7.13184H26.127V5.46875H27.3076ZM44.5542 11.6069H41.4692L40.7266 14H39.5522L42.5356 4.75781H43.5195L46.4521 14H45.2842L44.5542 11.6069ZM41.7866 10.585H44.2432L43.0244 6.57324L41.7866 10.585ZM48.1343 4.25H51.6445V12.9844H53.8853V14H48.1343V12.9844H50.4702V5.27197H48.1343V4.25ZM55.9419 7.13184H59.4521V12.9844H61.6929V14H55.9419V12.9844H58.2778V8.15381H55.9419V7.13184ZM58.1255 5.3291C58.1255 5.22754 58.1403 5.13232 58.1699 5.04346C58.2038 4.95459 58.2546 4.87842 58.3223 4.81494C58.3773 4.75993 58.4471 4.71761 58.5317 4.68799C58.6206 4.65413 58.7201 4.63721 58.8301 4.63721C58.9401 4.63721 59.0374 4.65413 59.1221 4.68799C59.2067 4.71761 59.2765 4.75993 59.3315 4.81494C59.3993 4.87419 59.45 4.94824 59.4839 5.03711C59.5177 5.12598 59.5347 5.22331 59.5347 5.3291C59.5347 5.51953 59.4754 5.67822 59.3569 5.80518C59.2384 5.93213 59.0628 5.99561 58.8301 5.99561C58.5931 5.99561 58.4154 5.93213 58.2969 5.80518C58.1826 5.67822 58.1255 5.51953 58.1255 5.3291ZM63.3496 10.5088C63.3496 9.99674 63.411 9.52702 63.5337 9.09961C63.6606 8.66797 63.8426 8.29769 64.0796 7.98877C64.3166 7.67985 64.6043 7.43864 64.9429 7.26514C65.2814 7.09163 65.6644 7.00488 66.0918 7.00488C66.3669 7.00488 66.6187 7.03662 66.8472 7.1001C67.0799 7.16357 67.2894 7.25667 67.4756 7.37939C67.5771 7.44287 67.6724 7.51693 67.7612 7.60156C67.8543 7.6862 67.9411 7.7793 68.0215 7.88086L68.0786 7.13184H69.145V13.854C69.145 14.3068 69.0731 14.7088 68.9292 15.0601C68.7896 15.4113 68.5928 15.7096 68.3389 15.9551C68.0807 16.2005 67.7739 16.3867 67.4185 16.5137C67.063 16.6406 66.6694 16.7041 66.2378 16.7041C66.0601 16.7041 65.8569 16.6829 65.6284 16.6406C65.3999 16.6025 65.1693 16.5369 64.9365 16.4438C64.6995 16.355 64.471 16.2344 64.251 16.082C64.0352 15.9297 63.849 15.7414 63.6924 15.5171L64.3018 14.8125C64.4456 14.986 64.5938 15.132 64.7461 15.2505C64.8984 15.3732 65.0529 15.4705 65.2095 15.5425C65.366 15.6144 65.5226 15.6652 65.6792 15.6948C65.8358 15.7287 65.9924 15.7456 66.1489 15.7456C66.4282 15.7456 66.68 15.7054 66.9043 15.625C67.1286 15.5446 67.3211 15.4261 67.4819 15.2695C67.6385 15.1172 67.7591 14.9268 67.8438 14.6982C67.9284 14.4697 67.9707 14.2074 67.9707 13.9111V13.3208C67.8818 13.4224 67.7866 13.5155 67.6851 13.6001C67.5877 13.6847 67.4819 13.7588 67.3677 13.8223C67.1899 13.9196 66.9932 13.9937 66.7773 14.0444C66.5615 14.0994 66.3288 14.127 66.0791 14.127C65.6602 14.127 65.2814 14.0381 64.9429 13.8604C64.6043 13.6826 64.3187 13.4372 64.0859 13.124C63.849 12.8109 63.667 12.4427 63.54 12.0195C63.4131 11.5921 63.3496 11.133 63.3496 10.6421V10.5088ZM64.5239 10.6421C64.5239 10.9764 64.5578 11.2938 64.6255 11.5942C64.6974 11.8947 64.8096 12.1592 64.9619 12.3877C65.11 12.6162 65.3005 12.7982 65.5332 12.9336C65.766 13.0648 66.0452 13.1304 66.3711 13.1304C66.5742 13.1304 66.7562 13.1071 66.917 13.0605C67.082 13.0098 67.2301 12.9399 67.3613 12.8511C67.4883 12.7622 67.6025 12.6564 67.7041 12.5337C67.8057 12.411 67.8945 12.2756 67.9707 12.1274V8.979C67.8945 8.83512 67.8057 8.70394 67.7041 8.58545C67.6025 8.46696 67.4862 8.36328 67.355 8.27441C67.2238 8.18978 67.0778 8.12419 66.917 8.07764C66.7562 8.02686 66.5785 8.00146 66.3838 8.00146C66.0537 8.00146 65.7702 8.06917 65.5332 8.20459C65.3005 8.34001 65.11 8.52197 64.9619 8.75049C64.8096 8.98324 64.6974 9.25195 64.6255 9.55664C64.5578 9.8571 64.5239 10.1745 64.5239 10.5088V10.6421ZM71.373 14V7.13184H72.4268L72.5093 8.14746C72.6108 8.00358 72.7209 7.8724 72.8394 7.75391C72.9621 7.63118 73.0911 7.52539 73.2266 7.43652C73.4297 7.30111 73.6497 7.19743 73.8867 7.12549C74.1279 7.04932 74.3818 7.00911 74.6484 7.00488C75.0081 7.00488 75.334 7.05566 75.626 7.15723C75.9222 7.25879 76.174 7.41748 76.3813 7.6333C76.5887 7.84912 76.7474 8.12419 76.8574 8.4585C76.9717 8.78857 77.0288 9.18213 77.0288 9.63916V14H75.8545V9.66455C75.8545 9.35986 75.8206 9.10173 75.7529 8.89014C75.6852 8.67855 75.5858 8.50716 75.4546 8.37598C75.3192 8.24479 75.1541 8.14958 74.9595 8.09033C74.769 8.03109 74.549 8.00146 74.2993 8.00146C74.0835 8.00146 73.8825 8.0332 73.6963 8.09668C73.5101 8.15592 73.3387 8.23844 73.1821 8.34424C73.0552 8.43734 72.9367 8.54525 72.8267 8.66797C72.7209 8.79069 72.6278 8.92611 72.5474 9.07422V14H71.373ZM90.0479 10.2295H88.2007V14H87.0327V4.75781H89.7432C90.1748 4.76628 90.5811 4.82764 90.9619 4.94189C91.3428 5.05615 91.6771 5.22754 91.9648 5.45605C92.2484 5.68457 92.4705 5.97233 92.6313 6.31934C92.7964 6.66211 92.8789 7.06624 92.8789 7.53174C92.8789 7.83219 92.8345 8.10726 92.7456 8.35693C92.661 8.60661 92.5425 8.83301 92.3901 9.03613C92.2378 9.23926 92.0558 9.41911 91.8442 9.57568C91.6326 9.73226 91.3999 9.86556 91.146 9.97559L93.1074 13.9238L93.1011 14H91.8633L90.0479 10.2295ZM88.2007 9.26465H89.7749C90.0373 9.26042 90.2848 9.22021 90.5176 9.14404C90.7503 9.06364 90.9556 8.94938 91.1333 8.80127C91.3068 8.65316 91.4443 8.47331 91.5459 8.26172C91.6475 8.0459 91.6982 7.79834 91.6982 7.51904C91.6982 7.22282 91.6496 6.96468 91.5522 6.74463C91.4549 6.52035 91.3195 6.33203 91.146 6.17969C90.9725 6.03158 90.7651 5.91943 90.5239 5.84326C90.2869 5.76709 90.0267 5.72689 89.7432 5.72266H88.2007V9.26465ZM94.98 7.13184H98.4902V12.9844H100.731V14H94.98V12.9844H97.3159V8.15381H94.98V7.13184ZM97.1636 5.3291C97.1636 5.22754 97.1784 5.13232 97.208 5.04346C97.2419 4.95459 97.2926 4.87842 97.3604 4.81494C97.4154 4.75993 97.4852 4.71761 97.5698 4.68799C97.6587 4.65413 97.7581 4.63721 97.8682 4.63721C97.9782 4.63721 98.0755 4.65413 98.1602 4.68799C98.2448 4.71761 98.3146 4.75993 98.3696 4.81494C98.4373 4.87419 98.4881 4.94824 98.522 5.03711C98.5558 5.12598 98.5728 5.22331 98.5728 5.3291C98.5728 5.51953 98.5135 5.67822 98.395 5.80518C98.2765 5.93213 98.1009 5.99561 97.8682 5.99561C97.6312 5.99561 97.4535 5.93213 97.335 5.80518C97.2207 5.67822 97.1636 5.51953 97.1636 5.3291ZM102.388 10.5088C102.388 9.99674 102.449 9.52702 102.572 9.09961C102.699 8.66797 102.881 8.29769 103.118 7.98877C103.355 7.67985 103.642 7.43864 103.981 7.26514C104.319 7.09163 104.702 7.00488 105.13 7.00488C105.405 7.00488 105.657 7.03662 105.885 7.1001C106.118 7.16357 106.327 7.25667 106.514 7.37939C106.615 7.44287 106.71 7.51693 106.799 7.60156C106.892 7.6862 106.979 7.7793 107.06 7.88086L107.117 7.13184H108.183V13.854C108.183 14.3068 108.111 14.7088 107.967 15.0601C107.828 15.4113 107.631 15.7096 107.377 15.9551C107.119 16.2005 106.812 16.3867 106.457 16.5137C106.101 16.6406 105.708 16.7041 105.276 16.7041C105.098 16.7041 104.895 16.6829 104.667 16.6406C104.438 16.6025 104.207 16.5369 103.975 16.4438C103.738 16.355 103.509 16.2344 103.289 16.082C103.073 15.9297 102.887 15.7414 102.73 15.5171L103.34 14.8125C103.484 14.986 103.632 15.132 103.784 15.2505C103.937 15.3732 104.091 15.4705 104.248 15.5425C104.404 15.6144 104.561 15.6652 104.717 15.6948C104.874 15.7287 105.03 15.7456 105.187 15.7456C105.466 15.7456 105.718 15.7054 105.942 15.625C106.167 15.5446 106.359 15.4261 106.52 15.2695C106.677 15.1172 106.797 14.9268 106.882 14.6982C106.966 14.4697 107.009 14.2074 107.009 13.9111V13.3208C106.92 13.4224 106.825 13.5155 106.723 13.6001C106.626 13.6847 106.52 13.7588 106.406 13.8223C106.228 13.9196 106.031 13.9937 105.815 14.0444C105.6 14.0994 105.367 14.127 105.117 14.127C104.698 14.127 104.319 14.0381 103.981 13.8604C103.642 13.6826 103.357 13.4372 103.124 13.124C102.887 12.8109 102.705 12.4427 102.578 12.0195C102.451 11.5921 102.388 11.133 102.388 10.6421V10.5088ZM103.562 10.6421C103.562 10.9764 103.596 11.2938 103.664 11.5942C103.736 11.8947 103.848 12.1592 104 12.3877C104.148 12.6162 104.339 12.7982 104.571 12.9336C104.804 13.0648 105.083 13.1304 105.409 13.1304C105.612 13.1304 105.794 13.1071 105.955 13.0605C106.12 13.0098 106.268 12.9399 106.399 12.8511C106.526 12.7622 106.641 12.6564 106.742 12.5337C106.844 12.411 106.933 12.2756 107.009 12.1274V8.979C106.933 8.83512 106.844 8.70394 106.742 8.58545C106.641 8.46696 106.524 8.36328 106.393 8.27441C106.262 8.18978 106.116 8.12419 105.955 8.07764C105.794 8.02686 105.617 8.00146 105.422 8.00146C105.092 8.00146 104.808 8.06917 104.571 8.20459C104.339 8.34001 104.148 8.52197 104 8.75049C103.848 8.98324 103.736 9.25195 103.664 9.55664C103.596 9.8571 103.562 10.1745 103.562 10.5088V10.6421ZM111.585 8.15381C111.679 8.01416 111.782 7.88721 111.896 7.77295C112.011 7.65446 112.131 7.55078 112.258 7.46191C112.461 7.3138 112.684 7.20166 112.925 7.12549C113.17 7.04932 113.431 7.00911 113.706 7.00488C114.065 7.00488 114.391 7.05778 114.683 7.16357C114.979 7.26514 115.231 7.42594 115.438 7.646C115.646 7.86605 115.805 8.14535 115.915 8.48389C116.029 8.8182 116.086 9.21598 116.086 9.67725V14H114.912V9.66455C114.912 9.39372 114.88 9.15674 114.816 8.95361C114.753 8.74626 114.66 8.57487 114.537 8.43945C114.406 8.29134 114.241 8.18132 114.042 8.10938C113.843 8.0332 113.615 7.99723 113.356 8.00146C113.145 8.00146 112.944 8.03109 112.753 8.09033C112.563 8.14958 112.387 8.23421 112.227 8.34424C112.1 8.42887 111.981 8.52832 111.871 8.64258C111.765 8.7526 111.67 8.87533 111.585 9.01074V14H110.411V4.25H111.585V8.15381ZM120.999 5.46875V7.13184H123.614V8.03955H120.999V11.772C120.999 12.0386 121.033 12.2586 121.101 12.4321C121.168 12.6056 121.261 12.7432 121.38 12.8447C121.498 12.9505 121.634 13.0246 121.786 13.0669C121.943 13.1092 122.108 13.1304 122.281 13.1304C122.408 13.1304 122.539 13.124 122.675 13.1113C122.81 13.0944 122.944 13.0754 123.075 13.0542C123.202 13.033 123.32 13.0119 123.43 12.9907C123.544 12.9653 123.638 12.9442 123.709 12.9272L123.875 13.7588C123.777 13.818 123.659 13.8709 123.519 13.9175C123.379 13.9598 123.227 13.9958 123.062 14.0254C122.897 14.0592 122.721 14.0846 122.535 14.1016C122.353 14.1185 122.171 14.127 121.989 14.127C121.685 14.127 121.399 14.0846 121.132 14C120.87 13.9111 120.641 13.7715 120.447 13.5811C120.252 13.3949 120.098 13.1536 119.983 12.8574C119.873 12.557 119.818 12.1951 119.818 11.772V8.03955H118.016V7.13184H119.818V5.46875H120.999Z" fill="#696C80"/>
</svg>
