<svg width="160" height="98" viewBox="0 0 160 98" fill="none" xmlns="http://www.w3.org/2000/svg">
<rect x="0.5" y="34.5" width="159" height="63" rx="4.5" stroke="#9747FF" stroke-dasharray="10 5"/>
<path d="M119 61.8C119 60.1198 119 59.2798 119.327 58.638C119.615 58.0735 120.074 57.6146 120.638 57.327C121.28 57 122.12 57 123.8 57H132.2C133.88 57 134.72 57 135.362 57.327C135.926 57.6146 136.385 58.0735 136.673 58.638C137 59.2798 137 60.1198 137 61.8V70.2C137 71.8802 137 72.7202 136.673 73.362C136.385 73.9265 135.926 74.3854 135.362 74.673C134.72 75 133.88 75 132.2 75H123.8C122.12 75 121.28 75 120.638 74.673C120.074 74.3854 119.615 73.9265 119.327 73.362C119 72.7202 119 71.8802 119 70.2V61.8Z" fill="#BABDCC"/>
<path fill-rule="evenodd" clip-rule="evenodd" d="M121 60C121 59.4477 121.448 59 122 59H134C134.552 59 135 59.4477 135 60C135 60.5523 134.552 61 134 61H122C121.448 61 121 60.5523 121 60ZM125 63C124.448 63 124 63.4477 124 64C124 64.5523 124.448 65 125 65H131C131.552 65 132 64.5523 132 64C132 63.4477 131.552 63 131 63H125ZM125 71C124.448 71 124 71.4477 124 72C124 72.5523 124.448 73 125 73H131C131.552 73 132 72.5523 132 72C132 71.4477 131.552 71 131 71H125ZM122 67C121.448 67 121 67.4477 121 68C121 68.5523 121.448 69 122 69H134C134.552 69 135 68.5523 135 68C135 67.4477 134.552 67 134 67H122Z" fill="#12131A"/>
<path fill-rule="evenodd" clip-rule="evenodd" d="M71 61.8C71 60.1198 71 59.2798 71.327 58.638C71.6146 58.0735 72.0735 57.6146 72.638 57.327C73.2798 57 74.1198 57 75.8 57H84.2C85.8802 57 86.7202 57 87.362 57.327C87.9265 57.6146 88.3854 58.0735 88.673 58.638C89 59.2798 89 60.1198 89 61.8V70.2C89 71.8802 89 72.7202 88.673 73.362C88.3854 73.9265 87.9265 74.3854 87.362 74.673C86.7202 75 85.8802 75 84.2 75H75.8C74.1198 75 73.2798 75 72.638 74.673C72.0735 74.3854 71.6146 73.9265 71.327 73.362C71 72.7202 71 71.8802 71 70.2V61.8ZM76 64C76 63.4477 76.4477 63 77 63H83C83.5523 63 84 63.4477 84 64C84 64.5523 83.5523 65 83 65H77C76.4477 65 76 64.5523 76 64ZM77 71C76.4477 71 76 71.4477 76 72C76 72.5523 76.4477 73 77 73H83C83.5523 73 84 72.5523 84 72C84 71.4477 83.5523 71 83 71H77ZM73 60C73 59.4477 73.4477 59 74 59H86C86.5523 59 87 59.4477 87 60C87 60.5523 86.5523 61 86 61H74C73.4477 61 73 60.5523 73 60ZM74 67C73.4477 67 73 67.4477 73 68C73 68.5523 73.4477 69 74 69H86C86.5523 69 87 68.5523 87 68C87 67.4477 86.5523 67 86 67H74Z" fill="#12131A"/>
<path fill-rule="evenodd" clip-rule="evenodd" d="M23 58C23 57.4477 23.4477 57 24 57H40C40.5523 57 41 57.4477 41 58C41 58.5523 40.5523 59 40 59H24C23.4477 59 23 58.5523 23 58ZM23 66C23 65.4477 23.4477 65 24 65H40C40.5523 65 41 65.4477 41 66C41 66.5523 40.5523 67 40 67H24C23.4477 67 23 66.5523 23 66ZM24 73C23.4477 73 23 73.4477 23 74C23 74.5523 23.4477 75 24 75H40C40.5523 75 41 74.5523 41 74C41 73.4477 40.5523 73 40 73H24ZM27 62C27 61.4477 27.4477 61 28 61H36C36.5523 61 37 61.4477 37 62C37 62.5523 36.5523 63 36 63H28C27.4477 63 27 62.5523 27 62ZM28 69C27.4477 69 27 69.4477 27 70C27 70.5523 27.4477 71 28 71H36C36.5523 71 37 70.5523 37 70C37 69.4477 36.5523 69 36 69H28Z" fill="#12131A"/>
<path d="M7.33789 5.76074H4.48145V14H3.33887V5.76074H0.482422V4.75781H7.33789V5.76074ZM11.9463 14.127C11.4639 14.127 11.0195 14.0444 10.6133 13.8794C10.2113 13.7144 9.86637 13.4837 9.57861 13.1875C9.29085 12.8913 9.06657 12.54 8.90576 12.1338C8.74495 11.7275 8.66455 11.2853 8.66455 10.8071V10.5405C8.66455 9.98617 8.75342 9.49105 8.93115 9.05518C9.10889 8.61507 9.34587 8.24268 9.64209 7.93799C9.93408 7.63753 10.2663 7.4069 10.6387 7.24609C11.0153 7.08529 11.4004 7.00488 11.7939 7.00488C12.2891 7.00488 12.7207 7.09163 13.0889 7.26514C13.4613 7.43441 13.7702 7.66927 14.0156 7.96973C14.2611 8.27441 14.443 8.632 14.5615 9.04248C14.6842 9.45296 14.7456 9.8973 14.7456 10.3755V10.9023H9.83887V10.9468C9.86849 11.2811 9.93408 11.5752 10.0356 11.8291C10.1414 12.083 10.2853 12.3073 10.4673 12.502C10.6535 12.7093 10.8778 12.8722 11.1401 12.9907C11.4025 13.1092 11.6924 13.1685 12.0098 13.1685C12.4287 13.1685 12.8011 13.0838 13.127 12.9146C13.4528 12.7453 13.7236 12.521 13.9395 12.2417L14.6567 12.8003C14.4282 13.1473 14.0854 13.4562 13.6284 13.7271C13.1756 13.9937 12.6149 14.127 11.9463 14.127ZM11.7939 7.96973C11.557 7.96973 11.3327 8.01416 11.1211 8.10303C10.9095 8.18766 10.7191 8.3125 10.5498 8.47754C10.3805 8.64681 10.2367 8.85417 10.1182 9.09961C10.0039 9.34082 9.9235 9.62012 9.87695 9.9375H13.5713V9.88037C13.5713 9.66878 13.5311 9.44238 13.4507 9.20117C13.3703 8.95573 13.2581 8.74414 13.1143 8.56641C12.9704 8.38867 12.7884 8.24479 12.5684 8.13477C12.3525 8.02474 12.0944 7.96973 11.7939 7.96973ZM19.5571 9.67725L21.3916 7.13184H22.769L20.2109 10.5278L22.8389 14H21.4805L19.5825 11.3848L17.6846 14H16.3135L18.9414 10.5278L16.3833 7.13184H17.7417L19.5571 9.67725ZM27.3076 5.46875V7.13184H29.9229V8.03955H27.3076V11.772C27.3076 12.0386 27.3415 12.2586 27.4092 12.4321C27.4769 12.6056 27.57 12.7432 27.6885 12.8447C27.807 12.9505 27.9424 13.0246 28.0947 13.0669C28.2513 13.1092 28.4163 13.1304 28.5898 13.1304C28.7168 13.1304 28.848 13.124 28.9834 13.1113C29.1188 13.0944 29.2521 13.0754 29.3833 13.0542C29.5103 13.033 29.6287 13.0119 29.7388 12.9907C29.853 12.9653 29.9461 12.9442 30.0181 12.9272L30.1831 13.7588C30.0858 13.818 29.9673 13.8709 29.8276 13.9175C29.688 13.9598 29.5356 13.9958 29.3706 14.0254C29.2056 14.0592 29.0299 14.0846 28.8438 14.1016C28.6618 14.1185 28.4798 14.127 28.2979 14.127C27.9932 14.127 27.7075 14.0846 27.4409 14C27.1785 13.9111 26.95 13.7715 26.7554 13.5811C26.5607 13.3949 26.4062 13.1536 26.292 12.8574C26.182 12.557 26.127 12.1951 26.127 11.772V8.03955H24.3242V7.13184H26.127V5.46875H27.3076ZM44.5542 11.6069H41.4692L40.7266 14H39.5522L42.5356 4.75781H43.5195L46.4521 14H45.2842L44.5542 11.6069ZM41.7866 10.585H44.2432L43.0244 6.57324L41.7866 10.585ZM48.1343 4.25H51.6445V12.9844H53.8853V14H48.1343V12.9844H50.4702V5.27197H48.1343V4.25ZM55.9419 7.13184H59.4521V12.9844H61.6929V14H55.9419V12.9844H58.2778V8.15381H55.9419V7.13184ZM58.1255 5.3291C58.1255 5.22754 58.1403 5.13232 58.1699 5.04346C58.2038 4.95459 58.2546 4.87842 58.3223 4.81494C58.3773 4.75993 58.4471 4.71761 58.5317 4.68799C58.6206 4.65413 58.7201 4.63721 58.8301 4.63721C58.9401 4.63721 59.0374 4.65413 59.1221 4.68799C59.2067 4.71761 59.2765 4.75993 59.3315 4.81494C59.3993 4.87419 59.45 4.94824 59.4839 5.03711C59.5177 5.12598 59.5347 5.22331 59.5347 5.3291C59.5347 5.51953 59.4754 5.67822 59.3569 5.80518C59.2384 5.93213 59.0628 5.99561 58.8301 5.99561C58.5931 5.99561 58.4154 5.93213 58.2969 5.80518C58.1826 5.67822 58.1255 5.51953 58.1255 5.3291ZM63.3496 10.5088C63.3496 9.99674 63.411 9.52702 63.5337 9.09961C63.6606 8.66797 63.8426 8.29769 64.0796 7.98877C64.3166 7.67985 64.6043 7.43864 64.9429 7.26514C65.2814 7.09163 65.6644 7.00488 66.0918 7.00488C66.3669 7.00488 66.6187 7.03662 66.8472 7.1001C67.0799 7.16357 67.2894 7.25667 67.4756 7.37939C67.5771 7.44287 67.6724 7.51693 67.7612 7.60156C67.8543 7.6862 67.9411 7.7793 68.0215 7.88086L68.0786 7.13184H69.145V13.854C69.145 14.3068 69.0731 14.7088 68.9292 15.0601C68.7896 15.4113 68.5928 15.7096 68.3389 15.9551C68.0807 16.2005 67.7739 16.3867 67.4185 16.5137C67.063 16.6406 66.6694 16.7041 66.2378 16.7041C66.0601 16.7041 65.8569 16.6829 65.6284 16.6406C65.3999 16.6025 65.1693 16.5369 64.9365 16.4438C64.6995 16.355 64.471 16.2344 64.251 16.082C64.0352 15.9297 63.849 15.7414 63.6924 15.5171L64.3018 14.8125C64.4456 14.986 64.5938 15.132 64.7461 15.2505C64.8984 15.3732 65.0529 15.4705 65.2095 15.5425C65.366 15.6144 65.5226 15.6652 65.6792 15.6948C65.8358 15.7287 65.9924 15.7456 66.1489 15.7456C66.4282 15.7456 66.68 15.7054 66.9043 15.625C67.1286 15.5446 67.3211 15.4261 67.4819 15.2695C67.6385 15.1172 67.7591 14.9268 67.8438 14.6982C67.9284 14.4697 67.9707 14.2074 67.9707 13.9111V13.3208C67.8818 13.4224 67.7866 13.5155 67.6851 13.6001C67.5877 13.6847 67.4819 13.7588 67.3677 13.8223C67.1899 13.9196 66.9932 13.9937 66.7773 14.0444C66.5615 14.0994 66.3288 14.127 66.0791 14.127C65.6602 14.127 65.2814 14.0381 64.9429 13.8604C64.6043 13.6826 64.3187 13.4372 64.0859 13.124C63.849 12.8109 63.667 12.4427 63.54 12.0195C63.4131 11.5921 63.3496 11.133 63.3496 10.6421V10.5088ZM64.5239 10.6421C64.5239 10.9764 64.5578 11.2938 64.6255 11.5942C64.6974 11.8947 64.8096 12.1592 64.9619 12.3877C65.11 12.6162 65.3005 12.7982 65.5332 12.9336C65.766 13.0648 66.0452 13.1304 66.3711 13.1304C66.5742 13.1304 66.7562 13.1071 66.917 13.0605C67.082 13.0098 67.2301 12.9399 67.3613 12.8511C67.4883 12.7622 67.6025 12.6564 67.7041 12.5337C67.8057 12.411 67.8945 12.2756 67.9707 12.1274V8.979C67.8945 8.83512 67.8057 8.70394 67.7041 8.58545C67.6025 8.46696 67.4862 8.36328 67.355 8.27441C67.2238 8.18978 67.0778 8.12419 66.917 8.07764C66.7562 8.02686 66.5785 8.00146 66.3838 8.00146C66.0537 8.00146 65.7702 8.06917 65.5332 8.20459C65.3005 8.34001 65.11 8.52197 64.9619 8.75049C64.8096 8.98324 64.6974 9.25195 64.6255 9.55664C64.5578 9.8571 64.5239 10.1745 64.5239 10.5088V10.6421ZM71.373 14V7.13184H72.4268L72.5093 8.14746C72.6108 8.00358 72.7209 7.8724 72.8394 7.75391C72.9621 7.63118 73.0911 7.52539 73.2266 7.43652C73.4297 7.30111 73.6497 7.19743 73.8867 7.12549C74.1279 7.04932 74.3818 7.00911 74.6484 7.00488C75.0081 7.00488 75.334 7.05566 75.626 7.15723C75.9222 7.25879 76.174 7.41748 76.3813 7.6333C76.5887 7.84912 76.7474 8.12419 76.8574 8.4585C76.9717 8.78857 77.0288 9.18213 77.0288 9.63916V14H75.8545V9.66455C75.8545 9.35986 75.8206 9.10173 75.7529 8.89014C75.6852 8.67855 75.5858 8.50716 75.4546 8.37598C75.3192 8.24479 75.1541 8.14958 74.9595 8.09033C74.769 8.03109 74.549 8.00146 74.2993 8.00146C74.0835 8.00146 73.8825 8.0332 73.6963 8.09668C73.5101 8.15592 73.3387 8.23844 73.1821 8.34424C73.0552 8.43734 72.9367 8.54525 72.8267 8.66797C72.7209 8.79069 72.6278 8.92611 72.5474 9.07422V14H71.373ZM92.9741 11.2197C92.9191 11.6471 92.8091 12.0407 92.644 12.4004C92.479 12.7559 92.2653 13.0605 92.0029 13.3145C91.7363 13.5726 91.4211 13.7736 91.0571 13.9175C90.6974 14.0571 90.2954 14.127 89.8511 14.127C89.4702 14.127 89.1232 14.0741 88.8101 13.9683C88.5011 13.8582 88.2261 13.708 87.9849 13.5176C87.7394 13.3271 87.5278 13.1029 87.3501 12.8447C87.1766 12.5866 87.0327 12.3052 86.9185 12.0005C86.8 11.6958 86.7111 11.3763 86.6519 11.042C86.5968 10.7077 86.5672 10.3691 86.563 10.0264V8.73779C86.5672 8.39502 86.5968 8.05648 86.6519 7.72217C86.7111 7.38786 86.8 7.06836 86.9185 6.76367C87.0327 6.45898 87.1766 6.17757 87.3501 5.91943C87.5278 5.65706 87.7394 5.43066 87.9849 5.24023C88.2261 5.0498 88.5011 4.90169 88.8101 4.7959C89.119 4.68587 89.466 4.63086 89.8511 4.63086C90.3123 4.63086 90.7249 4.7028 91.0889 4.84668C91.4528 4.98633 91.766 5.18522 92.0283 5.44336C92.2907 5.70573 92.5002 6.01888 92.6567 6.38281C92.8175 6.74674 92.9233 7.14876 92.9741 7.58887H91.7998C91.7617 7.30957 91.6961 7.04932 91.603 6.80811C91.5099 6.56689 91.3851 6.35531 91.2285 6.17334C91.0719 5.99137 90.8794 5.84961 90.6509 5.74805C90.4266 5.64225 90.16 5.58936 89.8511 5.58936C89.5718 5.58936 89.3242 5.6359 89.1084 5.729C88.8968 5.81787 88.7148 5.94059 88.5625 6.09717C88.4059 6.25374 88.2747 6.43571 88.1689 6.64307C88.0674 6.85042 87.9849 7.07048 87.9214 7.30322C87.8579 7.53597 87.8114 7.77507 87.7817 8.02051C87.7563 8.26172 87.7437 8.49658 87.7437 8.7251V10.0264C87.7437 10.2549 87.7563 10.4919 87.7817 10.7373C87.8114 10.9785 87.8579 11.2155 87.9214 11.4482C87.9849 11.6852 88.0674 11.9074 88.1689 12.1147C88.2705 12.3221 88.3996 12.5041 88.5562 12.6606C88.7127 12.8215 88.8968 12.9484 89.1084 13.0415C89.32 13.1304 89.5675 13.1748 89.8511 13.1748C90.16 13.1748 90.4266 13.1261 90.6509 13.0288C90.8794 12.9315 91.0719 12.7939 91.2285 12.6162C91.3851 12.4427 91.5099 12.2375 91.603 12.0005C91.6961 11.7593 91.7617 11.499 91.7998 11.2197H92.9741ZM97.8301 14.127C97.3477 14.127 96.9033 14.0444 96.4971 13.8794C96.0951 13.7144 95.7502 13.4837 95.4624 13.1875C95.1746 12.8913 94.9504 12.54 94.7896 12.1338C94.6287 11.7275 94.5483 11.2853 94.5483 10.8071V10.5405C94.5483 9.98617 94.6372 9.49105 94.8149 9.05518C94.9927 8.61507 95.2297 8.24268 95.5259 7.93799C95.8179 7.63753 96.1501 7.4069 96.5225 7.24609C96.8991 7.08529 97.2842 7.00488 97.6777 7.00488C98.1729 7.00488 98.6045 7.09163 98.9727 7.26514C99.3451 7.43441 99.654 7.66927 99.8994 7.96973C100.145 8.27441 100.327 8.632 100.445 9.04248C100.568 9.45296 100.629 9.8973 100.629 10.3755V10.9023H95.7227V10.9468C95.7523 11.2811 95.8179 11.5752 95.9194 11.8291C96.0252 12.083 96.1691 12.3073 96.3511 12.502C96.5373 12.7093 96.7616 12.8722 97.0239 12.9907C97.2863 13.1092 97.5762 13.1685 97.8936 13.1685C98.3125 13.1685 98.6849 13.0838 99.0107 12.9146C99.3366 12.7453 99.6074 12.521 99.8232 12.2417L100.541 12.8003C100.312 13.1473 99.9692 13.4562 99.5122 13.7271C99.0594 13.9937 98.4987 14.127 97.8301 14.127ZM97.6777 7.96973C97.4408 7.96973 97.2165 8.01416 97.0049 8.10303C96.7933 8.18766 96.6029 8.3125 96.4336 8.47754C96.2643 8.64681 96.1204 8.85417 96.002 9.09961C95.8877 9.34082 95.8073 9.62012 95.7607 9.9375H99.4551V9.88037C99.4551 9.66878 99.4149 9.44238 99.3345 9.20117C99.2541 8.95573 99.1419 8.74414 98.998 8.56641C98.8542 8.38867 98.6722 8.24479 98.4521 8.13477C98.2363 8.02474 97.9782 7.96973 97.6777 7.96973ZM102.604 14V7.13184H103.657L103.74 8.14746C103.841 8.00358 103.951 7.8724 104.07 7.75391C104.193 7.63118 104.322 7.52539 104.457 7.43652C104.66 7.30111 104.88 7.19743 105.117 7.12549C105.358 7.04932 105.612 7.00911 105.879 7.00488C106.239 7.00488 106.564 7.05566 106.856 7.15723C107.153 7.25879 107.404 7.41748 107.612 7.6333C107.819 7.84912 107.978 8.12419 108.088 8.4585C108.202 8.78857 108.259 9.18213 108.259 9.63916V14H107.085V9.66455C107.085 9.35986 107.051 9.10173 106.983 8.89014C106.916 8.67855 106.816 8.50716 106.685 8.37598C106.55 8.24479 106.385 8.14958 106.19 8.09033C106 8.03109 105.779 8.00146 105.53 8.00146C105.314 8.00146 105.113 8.0332 104.927 8.09668C104.741 8.15592 104.569 8.23844 104.413 8.34424C104.286 8.43734 104.167 8.54525 104.057 8.66797C103.951 8.79069 103.858 8.92611 103.778 9.07422V14H102.604ZM113.191 5.46875V7.13184H115.807V8.03955H113.191V11.772C113.191 12.0386 113.225 12.2586 113.293 12.4321C113.361 12.6056 113.454 12.7432 113.572 12.8447C113.691 12.9505 113.826 13.0246 113.979 13.0669C114.135 13.1092 114.3 13.1304 114.474 13.1304C114.601 13.1304 114.732 13.124 114.867 13.1113C115.003 13.0944 115.136 13.0754 115.267 13.0542C115.394 13.033 115.513 13.0119 115.623 12.9907C115.737 12.9653 115.83 12.9442 115.902 12.9272L116.067 13.7588C115.97 13.818 115.851 13.8709 115.711 13.9175C115.572 13.9598 115.419 13.9958 115.254 14.0254C115.089 14.0592 114.914 14.0846 114.728 14.1016C114.546 14.1185 114.364 14.127 114.182 14.127C113.877 14.127 113.591 14.0846 113.325 14C113.062 13.9111 112.834 13.7715 112.639 13.5811C112.444 13.3949 112.29 13.1536 112.176 12.8574C112.066 12.557 112.011 12.1951 112.011 11.772V8.03955H110.208V7.13184H112.011V5.46875H113.191ZM121.253 14.127C120.771 14.127 120.326 14.0444 119.92 13.8794C119.518 13.7144 119.173 13.4837 118.885 13.1875C118.597 12.8913 118.373 12.54 118.212 12.1338C118.052 11.7275 117.971 11.2853 117.971 10.8071V10.5405C117.971 9.98617 118.06 9.49105 118.238 9.05518C118.416 8.61507 118.653 8.24268 118.949 7.93799C119.241 7.63753 119.573 7.4069 119.945 7.24609C120.322 7.08529 120.707 7.00488 121.101 7.00488C121.596 7.00488 122.027 7.09163 122.396 7.26514C122.768 7.43441 123.077 7.66927 123.322 7.96973C123.568 8.27441 123.75 8.632 123.868 9.04248C123.991 9.45296 124.052 9.8973 124.052 10.3755V10.9023H119.146V10.9468C119.175 11.2811 119.241 11.5752 119.342 11.8291C119.448 12.083 119.592 12.3073 119.774 12.502C119.96 12.7093 120.184 12.8722 120.447 12.9907C120.709 13.1092 120.999 13.1685 121.316 13.1685C121.735 13.1685 122.108 13.0838 122.434 12.9146C122.759 12.7453 123.03 12.521 123.246 12.2417L123.963 12.8003C123.735 13.1473 123.392 13.4562 122.935 13.7271C122.482 13.9937 121.922 14.127 121.253 14.127ZM121.101 7.96973C120.864 7.96973 120.639 8.01416 120.428 8.10303C120.216 8.18766 120.026 8.3125 119.856 8.47754C119.687 8.64681 119.543 8.85417 119.425 9.09961C119.311 9.34082 119.23 9.62012 119.184 9.9375H122.878V9.88037C122.878 9.66878 122.838 9.44238 122.757 9.20117C122.677 8.95573 122.565 8.74414 122.421 8.56641C122.277 8.38867 122.095 8.24479 121.875 8.13477C121.659 8.02474 121.401 7.96973 121.101 7.96973ZM130.527 7.00488C130.743 7.00488 130.967 7.01969 131.2 7.04932C131.437 7.07894 131.614 7.11914 131.733 7.16992L131.574 8.31885C131.346 8.26807 131.128 8.2321 130.92 8.21094C130.717 8.18555 130.504 8.17285 130.279 8.17285C129.992 8.17285 129.731 8.20882 129.499 8.28076C129.266 8.34847 129.063 8.45003 128.889 8.58545C128.733 8.70394 128.595 8.84993 128.477 9.02344C128.362 9.19271 128.267 9.38314 128.191 9.59473V14H127.01V7.13184H128.127L128.178 8.05225L128.185 8.22363C128.464 7.84701 128.798 7.55078 129.188 7.33496C129.581 7.11491 130.028 7.00488 130.527 7.00488Z" fill="#696C80"/>
</svg>
