<svg width="160" height="98" viewBox="0 0 160 98" fill="none" xmlns="http://www.w3.org/2000/svg">
<rect x="0.5" y="34.5" width="159" height="63" rx="4.5" stroke="#9747FF" stroke-dasharray="10 5"/>
<path d="M118 66C118 62.6863 120.686 60 124 60H132C135.314 60 138 62.6863 138 66C138 69.3137 135.314 72 132 72H124C120.686 72 118 69.3137 118 66Z" fill="#BABDCC"/>
<path d="M135 66C135 67.6569 133.657 69 132 69C130.343 69 129 67.6569 129 66C129 64.3431 130.343 63 132 63C133.657 63 135 64.3431 135 66Z" fill="#12131A"/>
<path fill-rule="evenodd" clip-rule="evenodd" d="M76 60C72.6863 60 70 62.6863 70 66C70 69.3137 72.6863 72 76 72H84C87.3137 72 90 69.3137 90 66C90 62.6863 87.3137 60 84 60H76ZM84 69C85.6569 69 87 67.6569 87 66C87 64.3431 85.6569 63 84 63C82.3431 63 81 64.3431 81 66C81 67.6569 82.3431 69 84 69Z" fill="#12131A"/>
<path fill-rule="evenodd" clip-rule="evenodd" d="M22 66C22 62.6863 24.6863 60 28 60H36C39.3137 60 42 62.6863 42 66C42 69.3137 39.3137 72 36 72H28C24.6863 72 22 69.3137 22 66ZM28 62C25.7909 62 24 63.7909 24 66C24 68.2091 25.7909 70 28 70H36C38.2091 70 40 68.2091 40 66C40 63.7909 38.2091 62 36 62H28Z" fill="#12131A"/>
<path d="M38 66C38 67.1046 37.1046 68 36 68C34.8954 68 34 67.1046 34 66C34 64.8954 34.8954 64 36 64C37.1046 64 38 64.8954 38 66Z" fill="#12131A"/>
<path d="M7.33789 5.76074H4.48145V14H3.33887V5.76074H0.482422V4.75781H7.33789V5.76074ZM8.58203 10.5024C8.58203 10.0073 8.65397 9.54818 8.79785 9.125C8.94173 8.69759 9.14909 8.32731 9.41992 8.01416C9.68652 7.70101 10.0124 7.45557 10.3975 7.27783C10.7826 7.09587 11.2163 7.00488 11.6987 7.00488C12.1854 7.00488 12.6213 7.09587 13.0063 7.27783C13.3957 7.45557 13.7257 7.70101 13.9966 8.01416C14.2632 8.32731 14.4684 8.69759 14.6123 9.125C14.7562 9.54818 14.8281 10.0073 14.8281 10.5024V10.6421C14.8281 11.1372 14.7562 11.5964 14.6123 12.0195C14.4684 12.4427 14.2632 12.8109 13.9966 13.124C13.7257 13.4372 13.3978 13.6826 13.0127 13.8604C12.6276 14.0381 12.1938 14.127 11.7114 14.127C11.2248 14.127 10.7868 14.0381 10.3975 13.8604C10.0124 13.6826 9.68652 13.4372 9.41992 13.124C9.14909 12.8109 8.94173 12.4427 8.79785 12.0195C8.65397 11.5964 8.58203 11.1372 8.58203 10.6421V10.5024ZM9.75635 10.6421C9.75635 10.9806 9.79655 11.3044 9.87695 11.6133C9.95736 11.918 10.0801 12.1867 10.2451 12.4194C10.4059 12.6522 10.609 12.8363 10.8545 12.9717C11.0999 13.1071 11.3856 13.1748 11.7114 13.1748C12.033 13.1748 12.3145 13.1071 12.5557 12.9717C12.8011 12.8363 13.0063 12.6522 13.1714 12.4194C13.3322 12.1867 13.4528 11.918 13.5332 11.6133C13.6136 11.3044 13.6538 10.9806 13.6538 10.6421V10.5024C13.6538 10.1681 13.6115 9.84863 13.5269 9.54395C13.4465 9.23503 13.3258 8.96419 13.165 8.73145C13 8.4987 12.7948 8.31462 12.5493 8.1792C12.3081 8.03955 12.0246 7.96973 11.6987 7.96973C11.3729 7.96973 11.0894 8.03955 10.8481 8.1792C10.6069 8.31462 10.4059 8.4987 10.2451 8.73145C10.0801 8.96419 9.95736 9.23503 9.87695 9.54395C9.79655 9.84863 9.75635 10.1681 9.75635 10.5024V10.6421ZM16.5039 10.5088C16.5039 9.99674 16.5653 9.52702 16.688 9.09961C16.8149 8.66797 16.9969 8.29769 17.2339 7.98877C17.4709 7.67985 17.7586 7.43864 18.0972 7.26514C18.4357 7.09163 18.8187 7.00488 19.2461 7.00488C19.5212 7.00488 19.7729 7.03662 20.0015 7.1001C20.2342 7.16357 20.4437 7.25667 20.6299 7.37939C20.7314 7.44287 20.8267 7.51693 20.9155 7.60156C21.0086 7.6862 21.0954 7.7793 21.1758 7.88086L21.2329 7.13184H22.2993V13.854C22.2993 14.3068 22.2274 14.7088 22.0835 15.0601C21.9438 15.4113 21.7471 15.7096 21.4932 15.9551C21.235 16.2005 20.9282 16.3867 20.5728 16.5137C20.2173 16.6406 19.8237 16.7041 19.3921 16.7041C19.2144 16.7041 19.0112 16.6829 18.7827 16.6406C18.5542 16.6025 18.3236 16.5369 18.0908 16.4438C17.8538 16.355 17.6253 16.2344 17.4053 16.082C17.1895 15.9297 17.0033 15.7414 16.8467 15.5171L17.4561 14.8125C17.5999 14.986 17.748 15.132 17.9004 15.2505C18.0527 15.3732 18.2072 15.4705 18.3638 15.5425C18.5203 15.6144 18.6769 15.6652 18.8335 15.6948C18.9901 15.7287 19.1466 15.7456 19.3032 15.7456C19.5825 15.7456 19.8343 15.7054 20.0586 15.625C20.2829 15.5446 20.4754 15.4261 20.6362 15.2695C20.7928 15.1172 20.9134 14.9268 20.998 14.6982C21.0827 14.4697 21.125 14.2074 21.125 13.9111V13.3208C21.0361 13.4224 20.9409 13.5155 20.8394 13.6001C20.742 13.6847 20.6362 13.7588 20.522 13.8223C20.3442 13.9196 20.1475 13.9937 19.9316 14.0444C19.7158 14.0994 19.4831 14.127 19.2334 14.127C18.8145 14.127 18.4357 14.0381 18.0972 13.8604C17.7586 13.6826 17.473 13.4372 17.2402 13.124C17.0033 12.8109 16.8213 12.4427 16.6943 12.0195C16.5674 11.5921 16.5039 11.133 16.5039 10.6421V10.5088ZM17.6782 10.6421C17.6782 10.9764 17.7121 11.2938 17.7798 11.5942C17.8517 11.8947 17.9639 12.1592 18.1162 12.3877C18.2643 12.6162 18.4548 12.7982 18.6875 12.9336C18.9202 13.0648 19.1995 13.1304 19.5254 13.1304C19.7285 13.1304 19.9105 13.1071 20.0713 13.0605C20.2363 13.0098 20.3844 12.9399 20.5156 12.8511C20.6426 12.7622 20.7568 12.6564 20.8584 12.5337C20.96 12.411 21.0488 12.2756 21.125 12.1274V8.979C21.0488 8.83512 20.96 8.70394 20.8584 8.58545C20.7568 8.46696 20.6405 8.36328 20.5093 8.27441C20.3781 8.18978 20.2321 8.12419 20.0713 8.07764C19.9105 8.02686 19.7327 8.00146 19.5381 8.00146C19.208 8.00146 18.9245 8.06917 18.6875 8.20459C18.4548 8.34001 18.2643 8.52197 18.1162 8.75049C17.9639 8.98324 17.8517 9.25195 17.7798 9.55664C17.7121 9.8571 17.6782 10.1745 17.6782 10.5088V10.6421ZM24.3115 10.5088C24.3115 9.99674 24.3729 9.52702 24.4956 9.09961C24.6226 8.66797 24.8045 8.29769 25.0415 7.98877C25.2785 7.67985 25.5662 7.43864 25.9048 7.26514C26.2433 7.09163 26.6263 7.00488 27.0537 7.00488C27.3288 7.00488 27.5806 7.03662 27.8091 7.1001C28.0418 7.16357 28.2513 7.25667 28.4375 7.37939C28.5391 7.44287 28.6343 7.51693 28.7231 7.60156C28.8162 7.6862 28.903 7.7793 28.9834 7.88086L29.0405 7.13184H30.1069V13.854C30.1069 14.3068 30.035 14.7088 29.8911 15.0601C29.7515 15.4113 29.5547 15.7096 29.3008 15.9551C29.0426 16.2005 28.7358 16.3867 28.3804 16.5137C28.0249 16.6406 27.6313 16.7041 27.1997 16.7041C27.022 16.7041 26.8188 16.6829 26.5903 16.6406C26.3618 16.6025 26.1312 16.5369 25.8984 16.4438C25.6615 16.355 25.4329 16.2344 25.2129 16.082C24.9971 15.9297 24.8109 15.7414 24.6543 15.5171L25.2637 14.8125C25.4076 14.986 25.5557 15.132 25.708 15.2505C25.8604 15.3732 26.0148 15.4705 26.1714 15.5425C26.328 15.6144 26.4845 15.6652 26.6411 15.6948C26.7977 15.7287 26.9543 15.7456 27.1108 15.7456C27.3901 15.7456 27.6419 15.7054 27.8662 15.625C28.0905 15.5446 28.283 15.4261 28.4438 15.2695C28.6004 15.1172 28.721 14.9268 28.8057 14.6982C28.8903 14.4697 28.9326 14.2074 28.9326 13.9111V13.3208C28.8438 13.4224 28.7485 13.5155 28.647 13.6001C28.5496 13.6847 28.4438 13.7588 28.3296 13.8223C28.1519 13.9196 27.9551 13.9937 27.7393 14.0444C27.5234 14.0994 27.2907 14.127 27.041 14.127C26.6221 14.127 26.2433 14.0381 25.9048 13.8604C25.5662 13.6826 25.2806 13.4372 25.0479 13.124C24.8109 12.8109 24.6289 12.4427 24.502 12.0195C24.375 11.5921 24.3115 11.133 24.3115 10.6421V10.5088ZM25.4858 10.6421C25.4858 10.9764 25.5197 11.2938 25.5874 11.5942C25.6593 11.8947 25.7715 12.1592 25.9238 12.3877C26.0719 12.6162 26.2624 12.7982 26.4951 12.9336C26.7279 13.0648 27.0072 13.1304 27.333 13.1304C27.5361 13.1304 27.7181 13.1071 27.8789 13.0605C28.0439 13.0098 28.1921 12.9399 28.3232 12.8511C28.4502 12.7622 28.5645 12.6564 28.666 12.5337C28.7676 12.411 28.8564 12.2756 28.9326 12.1274V8.979C28.8564 8.83512 28.7676 8.70394 28.666 8.58545C28.5645 8.46696 28.4481 8.36328 28.3169 8.27441C28.1857 8.18978 28.0397 8.12419 27.8789 8.07764C27.7181 8.02686 27.5404 8.00146 27.3457 8.00146C27.0156 8.00146 26.7321 8.06917 26.4951 8.20459C26.2624 8.34001 26.0719 8.52197 25.9238 8.75049C25.7715 8.98324 25.6593 9.25195 25.5874 9.55664C25.5197 9.8571 25.4858 10.1745 25.4858 10.5088V10.6421ZM32.519 4.25H36.0293V12.9844H38.27V14H32.519V12.9844H34.855V5.27197H32.519V4.25ZM43.1768 14.127C42.6943 14.127 42.25 14.0444 41.8438 13.8794C41.4417 13.7144 41.0968 13.4837 40.8091 13.1875C40.5213 12.8913 40.297 12.54 40.1362 12.1338C39.9754 11.7275 39.895 11.2853 39.895 10.8071V10.5405C39.895 9.98617 39.9839 9.49105 40.1616 9.05518C40.3394 8.61507 40.5763 8.24268 40.8726 7.93799C41.1646 7.63753 41.4967 7.4069 41.8691 7.24609C42.2458 7.08529 42.6309 7.00488 43.0244 7.00488C43.5195 7.00488 43.9512 7.09163 44.3193 7.26514C44.6917 7.43441 45.0007 7.66927 45.2461 7.96973C45.4915 8.27441 45.6735 8.632 45.792 9.04248C45.9147 9.45296 45.9761 9.8973 45.9761 10.3755V10.9023H41.0693V10.9468C41.099 11.2811 41.1646 11.5752 41.2661 11.8291C41.3719 12.083 41.5158 12.3073 41.6978 12.502C41.884 12.7093 42.1082 12.8722 42.3706 12.9907C42.633 13.1092 42.9229 13.1685 43.2402 13.1685C43.6592 13.1685 44.0316 13.0838 44.3574 12.9146C44.6833 12.7453 44.9541 12.521 45.1699 12.2417L45.8872 12.8003C45.6587 13.1473 45.3159 13.4562 44.8589 13.7271C44.4061 13.9937 43.8454 14.127 43.1768 14.127ZM43.0244 7.96973C42.7874 7.96973 42.5632 8.01416 42.3516 8.10303C42.14 8.18766 41.9495 8.3125 41.7803 8.47754C41.611 8.64681 41.4671 8.85417 41.3486 9.09961C41.2344 9.34082 41.154 9.62012 41.1074 9.9375H44.8018V9.88037C44.8018 9.66878 44.7616 9.44238 44.6812 9.20117C44.6007 8.95573 44.4886 8.74414 44.3447 8.56641C44.2008 8.38867 44.0189 8.24479 43.7988 8.13477C43.583 8.02474 43.3249 7.96973 43.0244 7.96973ZM61.769 9.91211C61.7648 10.2422 61.7352 10.5765 61.6802 10.915C61.6294 11.2493 61.549 11.5731 61.439 11.8862C61.3289 12.1994 61.1872 12.4914 61.0137 12.7622C60.8444 13.033 60.6413 13.27 60.4043 13.4731C60.1673 13.6763 59.8944 13.8371 59.5854 13.9556C59.2808 14.0698 58.938 14.127 58.5571 14.127C58.1763 14.127 57.8314 14.0698 57.5225 13.9556C57.2178 13.8371 56.9469 13.6763 56.71 13.4731C56.473 13.27 56.2677 13.033 56.0942 12.7622C55.9207 12.4871 55.779 12.193 55.6689 11.8799C55.5547 11.5667 55.4701 11.243 55.415 10.9087C55.36 10.5744 55.3304 10.2422 55.3262 9.91211V8.8584C55.3304 8.52832 55.3579 8.19613 55.4087 7.86182C55.4637 7.52327 55.5483 7.19743 55.6626 6.88428C55.7726 6.57113 55.9123 6.27913 56.0815 6.0083C56.255 5.73324 56.4603 5.49202 56.6973 5.28467C56.9342 5.08154 57.2051 4.92285 57.5098 4.80859C57.8187 4.6901 58.1636 4.63086 58.5444 4.63086C58.9253 4.63086 59.2702 4.6901 59.5791 4.80859C59.888 4.92285 60.161 5.08154 60.3979 5.28467C60.6349 5.48779 60.8381 5.72689 61.0073 6.00195C61.1808 6.27279 61.3247 6.56478 61.439 6.87793C61.549 7.19108 61.6294 7.51693 61.6802 7.85547C61.7352 8.19401 61.7648 8.52832 61.769 8.8584V9.91211ZM60.6074 8.8457C60.6032 8.62565 60.5884 8.39714 60.563 8.16016C60.5376 7.91895 60.4953 7.67985 60.436 7.44287C60.3726 7.21012 60.29 6.98796 60.1885 6.77637C60.0869 6.56055 59.96 6.37012 59.8076 6.20508C59.6553 6.04427 59.4754 5.91732 59.2681 5.82422C59.0607 5.72689 58.8195 5.67822 58.5444 5.67822C58.2736 5.67822 58.0345 5.72689 57.8271 5.82422C57.6198 5.92155 57.4399 6.05062 57.2876 6.21143C57.1353 6.37646 57.0083 6.56689 56.9067 6.78271C56.8052 6.9943 56.7248 7.21647 56.6655 7.44922C56.6021 7.6862 56.5555 7.92529 56.5259 8.1665C56.5005 8.40348 56.4857 8.62988 56.4814 8.8457V9.91211C56.4857 10.1279 56.5005 10.3564 56.5259 10.5977C56.5555 10.8389 56.6021 11.0758 56.6655 11.3086C56.729 11.5456 56.8115 11.772 56.9131 11.9878C57.0146 12.2036 57.1416 12.3919 57.2939 12.5527C57.4463 12.7178 57.6261 12.849 57.8335 12.9463C58.0409 13.0436 58.2821 13.0923 58.5571 13.0923C58.8322 13.0923 59.0734 13.0436 59.2808 12.9463C59.4924 12.849 59.6743 12.7178 59.8267 12.5527C59.9748 12.3919 60.0975 12.2057 60.1948 11.9941C60.2964 11.7783 60.3789 11.5519 60.4424 11.3149C60.5016 11.0822 60.5418 10.8452 60.563 10.604C60.5884 10.3628 60.6032 10.1322 60.6074 9.91211V8.8457ZM63.5654 14V7.13184H64.6191L64.7017 8.14746C64.8032 8.00358 64.9132 7.8724 65.0317 7.75391C65.1545 7.63118 65.2835 7.52539 65.4189 7.43652C65.6221 7.30111 65.8421 7.19743 66.0791 7.12549C66.3203 7.04932 66.5742 7.00911 66.8408 7.00488C67.2005 7.00488 67.5264 7.05566 67.8184 7.15723C68.1146 7.25879 68.3664 7.41748 68.5737 7.6333C68.7811 7.84912 68.9398 8.12419 69.0498 8.4585C69.1641 8.78857 69.2212 9.18213 69.2212 9.63916V14H68.0469V9.66455C68.0469 9.35986 68.013 9.10173 67.9453 8.89014C67.8776 8.67855 67.7782 8.50716 67.647 8.37598C67.5116 8.24479 67.3465 8.14958 67.1519 8.09033C66.9614 8.03109 66.7414 8.00146 66.4917 8.00146C66.2759 8.00146 66.0749 8.0332 65.8887 8.09668C65.7025 8.15592 65.5311 8.23844 65.3745 8.34424C65.2476 8.43734 65.1291 8.54525 65.019 8.66797C64.9132 8.79069 64.8201 8.92611 64.7397 9.07422V14H63.5654Z" fill="#696C80"/>
</svg>
