<svg width="160" height="98" viewBox="0 0 160 98" fill="none" xmlns="http://www.w3.org/2000/svg">
<path d="M7.33789 5.76074H4.48145V14H3.33887V5.76074H0.482422V4.75781H7.33789V5.76074ZM13.4126 7.00488C13.6284 7.00488 13.8527 7.01969 14.0854 7.04932C14.3224 7.07894 14.5002 7.11914 14.6187 7.16992L14.46 8.31885C14.2314 8.26807 14.0135 8.2321 13.8062 8.21094C13.603 8.18555 13.3893 8.17285 13.165 8.17285C12.8773 8.17285 12.617 8.20882 12.3843 8.28076C12.1515 8.34847 11.9484 8.45003 11.7749 8.58545C11.6183 8.70394 11.4808 8.84993 11.3623 9.02344C11.248 9.19271 11.1528 9.38314 11.0767 9.59473V14H9.896V7.13184H11.0132L11.064 8.05225L11.0703 8.22363C11.3496 7.84701 11.6839 7.55078 12.0732 7.33496C12.4668 7.11491 12.9132 7.00488 13.4126 7.00488ZM19.7539 14.127C19.2715 14.127 18.8271 14.0444 18.4209 13.8794C18.0189 13.7144 17.674 13.4837 17.3862 13.1875C17.0985 12.8913 16.8742 12.54 16.7134 12.1338C16.5526 11.7275 16.4722 11.2853 16.4722 10.8071V10.5405C16.4722 9.98617 16.561 9.49105 16.7388 9.05518C16.9165 8.61507 17.1535 8.24268 17.4497 7.93799C17.7417 7.63753 18.0739 7.4069 18.4463 7.24609C18.8229 7.08529 19.208 7.00488 19.6016 7.00488C20.0967 7.00488 20.5283 7.09163 20.8965 7.26514C21.2689 7.43441 21.5778 7.66927 21.8232 7.96973C22.0687 8.27441 22.2507 8.632 22.3691 9.04248C22.4919 9.45296 22.5532 9.8973 22.5532 10.3755V10.9023H17.6465V10.9468C17.6761 11.2811 17.7417 11.5752 17.8433 11.8291C17.9491 12.083 18.0929 12.3073 18.2749 12.502C18.4611 12.7093 18.6854 12.8722 18.9478 12.9907C19.2101 13.1092 19.5 13.1685 19.8174 13.1685C20.2363 13.1685 20.6087 13.0838 20.9346 12.9146C21.2604 12.7453 21.5312 12.521 21.7471 12.2417L22.4644 12.8003C22.2358 13.1473 21.8931 13.4562 21.436 13.7271C20.9832 13.9937 20.4225 14.127 19.7539 14.127ZM19.6016 7.96973C19.3646 7.96973 19.1403 8.01416 18.9287 8.10303C18.7171 8.18766 18.5267 8.3125 18.3574 8.47754C18.1882 8.64681 18.0443 8.85417 17.9258 9.09961C17.8115 9.34082 17.7311 9.62012 17.6846 9.9375H21.3789V9.88037C21.3789 9.66878 21.3387 9.44238 21.2583 9.20117C21.1779 8.95573 21.0658 8.74414 20.9219 8.56641C20.778 8.38867 20.596 8.24479 20.376 8.13477C20.1602 8.02474 19.902 7.96973 19.6016 7.96973ZM24.7114 4.25H28.2217V12.9844H30.4624V14H24.7114V12.9844H27.0474V5.27197H24.7114V4.25ZM32.519 4.25H36.0293V12.9844H38.27V14H32.519V12.9844H34.855V5.27197H32.519V4.25ZM39.8125 10.5024C39.8125 10.0073 39.8844 9.54818 40.0283 9.125C40.1722 8.69759 40.3796 8.32731 40.6504 8.01416C40.917 7.70101 41.2428 7.45557 41.6279 7.27783C42.013 7.09587 42.4468 7.00488 42.9292 7.00488C43.4159 7.00488 43.8517 7.09587 44.2368 7.27783C44.6261 7.45557 44.9562 7.70101 45.2271 8.01416C45.4937 8.32731 45.6989 8.69759 45.8428 9.125C45.9867 9.54818 46.0586 10.0073 46.0586 10.5024V10.6421C46.0586 11.1372 45.9867 11.5964 45.8428 12.0195C45.6989 12.4427 45.4937 12.8109 45.2271 13.124C44.9562 13.4372 44.6283 13.6826 44.2432 13.8604C43.8581 14.0381 43.4243 14.127 42.9419 14.127C42.4552 14.127 42.0173 14.0381 41.6279 13.8604C41.2428 13.6826 40.917 13.4372 40.6504 13.124C40.3796 12.8109 40.1722 12.4427 40.0283 12.0195C39.8844 11.5964 39.8125 11.1372 39.8125 10.6421V10.5024ZM40.9868 10.6421C40.9868 10.9806 41.027 11.3044 41.1074 11.6133C41.1878 11.918 41.3105 12.1867 41.4756 12.4194C41.6364 12.6522 41.8395 12.8363 42.085 12.9717C42.3304 13.1071 42.616 13.1748 42.9419 13.1748C43.2635 13.1748 43.5449 13.1071 43.7861 12.9717C44.0316 12.8363 44.2368 12.6522 44.4019 12.4194C44.5627 12.1867 44.6833 11.918 44.7637 11.6133C44.8441 11.3044 44.8843 10.9806 44.8843 10.6421V10.5024C44.8843 10.1681 44.842 9.84863 44.7573 9.54395C44.6769 9.23503 44.5563 8.96419 44.3955 8.73145C44.2305 8.4987 44.0252 8.31462 43.7798 8.1792C43.5386 8.03955 43.255 7.96973 42.9292 7.96973C42.6034 7.96973 42.3198 8.03955 42.0786 8.1792C41.8374 8.31462 41.6364 8.4987 41.4756 8.73145C41.3105 8.96419 41.1878 9.23503 41.1074 9.54395C41.027 9.84863 40.9868 10.1681 40.9868 10.5024V10.6421Z" fill="#696C80"/>
<rect x="0.5" y="34.5" width="159" height="63" rx="4.5" stroke="#9747FF" stroke-dasharray="10 5"/>
<path d="M119 61.8C119 60.1198 119 59.2798 119.327 58.638C119.615 58.0735 120.074 57.6146 120.638 57.327C121.28 57 122.12 57 123.8 57H132.2C133.88 57 134.72 57 135.362 57.327C135.926 57.6146 136.385 58.0735 136.673 58.638C137 59.2798 137 60.1198 137 61.8V70.2C137 71.8802 137 72.7202 136.673 73.362C136.385 73.9265 135.926 74.3854 135.362 74.673C134.72 75 133.88 75 132.2 75H123.8C122.12 75 121.28 75 120.638 74.673C120.074 74.3854 119.615 73.9265 119.327 73.362C119 72.7202 119 71.8802 119 70.2V61.8Z" fill="#BABDCC"/>
<path fill-rule="evenodd" clip-rule="evenodd" d="M122.109 60.546C122 60.7599 122 61.0399 122 61.6V70.4C122 70.9601 122 71.2401 122.109 71.454C122.205 71.6422 122.358 71.7951 122.546 71.891C122.76 72 123.04 72 123.6 72H125.4C125.96 72 126.24 72 126.454 71.891C126.642 71.7951 126.795 71.6422 126.891 71.454C127 71.2401 127 70.9601 127 70.4V61.6C127 61.0399 127 60.7599 126.891 60.546C126.795 60.3578 126.642 60.2049 126.454 60.109C126.24 60 125.96 60 125.4 60H123.6C123.04 60 122.76 60 122.546 60.109C122.358 60.2049 122.205 60.3578 122.109 60.546ZM129.109 60.546C129 60.7599 129 61.0399 129 61.6V64.4C129 64.9601 129 65.2401 129.109 65.454C129.205 65.6422 129.358 65.7951 129.546 65.891C129.76 66 130.04 66 130.6 66H132.4C132.96 66 133.24 66 133.454 65.891C133.642 65.7951 133.795 65.6422 133.891 65.454C134 65.2401 134 64.9601 134 64.4V61.6C134 61.0399 134 60.7599 133.891 60.546C133.795 60.3578 133.642 60.2049 133.454 60.109C133.24 60 132.96 60 132.4 60H130.6C130.04 60 129.76 60 129.546 60.109C129.358 60.2049 129.205 60.3578 129.109 60.546Z" fill="#12131A"/>
<path fill-rule="evenodd" clip-rule="evenodd" d="M71 61.8C71 60.1198 71 59.2798 71.327 58.638C71.6146 58.0735 72.0735 57.6146 72.638 57.327C73.2798 57 74.1198 57 75.8 57H84.2C85.8802 57 86.7202 57 87.362 57.327C87.9265 57.6146 88.3854 58.0735 88.673 58.638C89 59.2798 89 60.1198 89 61.8V70.2C89 71.8802 89 72.7202 88.673 73.362C88.3854 73.9265 87.9265 74.3854 87.362 74.673C86.7202 75 85.8802 75 84.2 75H75.8C74.1198 75 73.2798 75 72.638 74.673C72.0735 74.3854 71.6146 73.9265 71.327 73.362C71 72.7202 71 71.8802 71 70.2V61.8ZM74 61.6C74 61.0399 74 60.7599 74.109 60.546C74.2049 60.3578 74.3578 60.2049 74.546 60.109C74.7599 60 75.0399 60 75.6 60H77.4C77.9601 60 78.2401 60 78.454 60.109C78.6422 60.2049 78.7951 60.3578 78.891 60.546C79 60.7599 79 61.0399 79 61.6V70.4C79 70.9601 79 71.2401 78.891 71.454C78.7951 71.6422 78.6422 71.7951 78.454 71.891C78.2401 72 77.9601 72 77.4 72H75.6C75.0399 72 74.7599 72 74.546 71.891C74.3578 71.7951 74.2049 71.6422 74.109 71.454C74 71.2401 74 70.9601 74 70.4V61.6ZM81.109 60.546C81 60.7599 81 61.0399 81 61.6V64.4C81 64.9601 81 65.2401 81.109 65.454C81.2049 65.6422 81.3578 65.7951 81.546 65.891C81.7599 66 82.0399 66 82.6 66H84.4C84.9601 66 85.2401 66 85.454 65.891C85.6422 65.7951 85.7951 65.6422 85.891 65.454C86 65.2401 86 64.9601 86 64.4V61.6C86 61.0399 86 60.7599 85.891 60.546C85.7951 60.3578 85.6422 60.2049 85.454 60.109C85.2401 60 84.9601 60 84.4 60H82.6C82.0399 60 81.7599 60 81.546 60.109C81.3578 60.2049 81.2049 60.3578 81.109 60.546Z" fill="#12131A"/>
<path fill-rule="evenodd" clip-rule="evenodd" d="M28.7587 57H35.2413C36.0463 57 36.7106 57 37.2518 57.0442C37.8139 57.0901 38.3306 57.1887 38.816 57.436C39.5686 57.8195 40.1805 58.4314 40.564 59.184C40.8113 59.6694 40.9099 60.1861 40.9558 60.7482C41 61.2894 41 61.9537 41 62.7587V69.2413C41 70.0463 41 70.7106 40.9558 71.2518C40.9099 71.8139 40.8113 72.3306 40.564 72.816C40.1805 73.5686 39.5686 74.1805 38.816 74.564C38.3306 74.8113 37.8139 74.9099 37.2518 74.9558C36.7106 75 36.0463 75 35.2413 75H28.7587C27.9537 75 27.2894 75 26.7482 74.9558C26.1861 74.9099 25.6694 74.8113 25.184 74.564C24.4314 74.1805 23.8195 73.5686 23.436 72.816C23.1887 72.3306 23.0901 71.8139 23.0442 71.2518C23 70.7106 23 70.0463 23 69.2413V62.7587C23 61.9537 23 61.2894 23.0442 60.7482C23.0901 60.1861 23.1887 59.6694 23.436 59.184C23.8195 58.4314 24.4314 57.8195 25.184 57.436C25.6694 57.1887 26.1861 57.0901 26.7482 57.0442C27.2894 57 27.9537 57 28.7587 57ZM26.911 59.0376C26.4726 59.0734 26.2484 59.1383 26.092 59.218C25.7157 59.4097 25.4097 59.7157 25.218 60.092C25.1383 60.2484 25.0734 60.4726 25.0376 60.911C25.0008 61.3611 25 61.9434 25 62.8V69.2C25 70.0566 25.0008 70.6389 25.0376 71.089C25.0734 71.5274 25.1383 71.7516 25.218 71.908C25.4097 72.2843 25.7157 72.5903 26.092 72.782C26.2484 72.8617 26.4726 72.9266 26.911 72.9624C27.3611 72.9992 27.9434 73 28.8 73H35.2C36.0566 73 36.6389 72.9992 37.089 72.9624C37.5274 72.9266 37.7516 72.8617 37.908 72.782C38.2843 72.5903 38.5903 72.2843 38.782 71.908C38.8617 71.7516 38.9266 71.5274 38.9624 71.089C38.9992 70.6389 39 70.0566 39 69.2V62.8C39 61.9434 38.9992 61.3611 38.9624 60.911C38.9266 60.4726 38.8617 60.2484 38.782 60.092C38.5903 59.7157 38.2843 59.4097 37.908 59.218C37.7516 59.1383 37.5274 59.0734 37.089 59.0376C36.6389 59.0008 36.0566 59 35.2 59H28.8C27.9434 59 27.3611 59.0008 26.911 59.0376Z" fill="#12131A"/>
<path fill-rule="evenodd" clip-rule="evenodd" d="M27.109 61.546C27 61.7599 27 62.0399 27 62.6V69.4C27 69.9601 27 70.2401 27.109 70.454C27.2049 70.6422 27.3578 70.7951 27.546 70.891C27.7599 71 28.0399 71 28.6 71H29.4C29.9601 71 30.2401 71 30.454 70.891C30.6422 70.7951 30.7951 70.6422 30.891 70.454C31 70.2401 31 69.9601 31 69.4V62.6C31 62.0399 31 61.7599 30.891 61.546C30.7951 61.3578 30.6422 61.2049 30.454 61.109C30.2401 61 29.9601 61 29.4 61H28.6C28.0399 61 27.7599 61 27.546 61.109C27.3578 61.2049 27.2049 61.3578 27.109 61.546ZM33.109 61.546C33 61.7599 33 62.0399 33 62.6V64.4C33 64.9601 33 65.2401 33.109 65.454C33.2049 65.6422 33.3578 65.7951 33.546 65.891C33.7599 66 34.0399 66 34.6 66H35.4C35.9601 66 36.2401 66 36.454 65.891C36.6422 65.7951 36.7951 65.6422 36.891 65.454C37 65.2401 37 64.9601 37 64.4V62.6C37 62.0399 37 61.7599 36.891 61.546C36.7951 61.3578 36.6422 61.2049 36.454 61.109C36.2401 61 35.9601 61 35.4 61H34.6C34.0399 61 33.7599 61 33.546 61.109C33.3578 61.2049 33.2049 61.3578 33.109 61.546Z" fill="#12131A"/>
</svg>
