<svg width="160" height="98" viewBox="0 0 160 98" fill="none" xmlns="http://www.w3.org/2000/svg">
<rect x="0.5" y="34.5" width="159" height="63" rx="4.5" stroke="#9747FF" stroke-dasharray="10 5"/>
<path fill-rule="evenodd" clip-rule="evenodd" d="M120 73C120 70.2386 122.239 68 125 68H131C133.761 68 136 70.2386 136 73C136 74.6569 134.657 76 133 76H123C121.343 76 120 74.6569 120 73Z" fill="#BABDCC"/>
<path d="M128 56C125.239 56 123 58.2386 123 61C123 63.7614 125.239 66 128 66C130.761 66 133 63.7614 133 61C133 58.2386 130.761 56 128 56Z" fill="#12131A"/>
<path d="M77 68C74.2386 68 72 70.2386 72 73C72 74.6569 73.3431 76 75 76H85C86.6569 76 88 74.6569 88 73C88 70.2386 85.7614 68 83 68H77Z" fill="#12131A"/>
<path d="M80 56C77.2386 56 75 58.2386 75 61C75 63.7614 77.2386 66 80 66C82.7614 66 85 63.7614 85 61C85 58.2386 82.7614 56 80 56Z" fill="#12131A"/>
<path fill-rule="evenodd" clip-rule="evenodd" d="M29 70C27.3431 70 26 71.3431 26 73C26 73.5523 26.4477 74 27 74H37C37.5523 74 38 73.5523 38 73C38 71.3431 36.6569 70 35 70H29ZM24 73C24 70.2386 26.2386 68 29 68H35C37.7614 68 40 70.2386 40 73C40 74.6569 38.6569 76 37 76H27C25.3431 76 24 74.6569 24 73Z" fill="#12131A"/>
<path fill-rule="evenodd" clip-rule="evenodd" d="M32 58C30.3431 58 29 59.3431 29 61C29 62.6569 30.3431 64 32 64C33.6569 64 35 62.6569 35 61C35 59.3431 33.6569 58 32 58ZM27 61C27 58.2386 29.2386 56 32 56C34.7614 56 37 58.2386 37 61C37 63.7614 34.7614 66 32 66C29.2386 66 27 63.7614 27 61Z" fill="#12131A"/>
<path d="M6.90625 4.75781L6.91895 11.0166C6.91895 11.4482 6.84277 11.8524 6.69043 12.229C6.53809 12.6056 6.32861 12.9336 6.06201 13.2129C5.79541 13.4964 5.47803 13.7207 5.10986 13.8857C4.7417 14.0465 4.33757 14.127 3.89746 14.127C3.44889 14.127 3.04053 14.0465 2.67236 13.8857C2.3042 13.7249 1.98893 13.5028 1.72656 13.2192C1.46419 12.9399 1.25895 12.612 1.11084 12.2354C0.962728 11.8545 0.886556 11.4482 0.882324 11.0166L0.89502 4.75781H2.01221L2.0376 11.0166C2.04183 11.2917 2.08415 11.5562 2.16455 11.8101C2.24919 12.064 2.36979 12.2882 2.52637 12.4829C2.67871 12.6776 2.86914 12.8341 3.09766 12.9526C3.3304 13.0711 3.59701 13.1304 3.89746 13.1304C4.19792 13.1304 4.4624 13.0732 4.69092 12.959C4.91943 12.8405 5.11198 12.6818 5.26855 12.4829C5.4209 12.2882 5.53727 12.064 5.61768 11.8101C5.69808 11.5562 5.74251 11.2917 5.75098 11.0166L5.77002 4.75781H6.90625ZM13.4761 12.1782C13.4761 12.0386 13.4486 11.9137 13.3936 11.8037C13.3385 11.6895 13.2454 11.5858 13.1143 11.4927C12.9831 11.3996 12.8096 11.3149 12.5938 11.2388C12.3779 11.1584 12.1092 11.0864 11.7876 11.0229C11.394 10.9425 11.0343 10.8452 10.7085 10.731C10.3869 10.6167 10.1118 10.4792 9.8833 10.3184C9.65055 10.1618 9.4707 9.9777 9.34375 9.76611C9.2168 9.55029 9.15332 9.30062 9.15332 9.01709C9.15332 8.73779 9.21891 8.47754 9.3501 8.23633C9.48128 7.99089 9.66536 7.77718 9.90234 7.59521C10.1393 7.41325 10.4207 7.26937 10.7466 7.16357C11.0767 7.05778 11.4385 7.00488 11.832 7.00488C12.2552 7.00488 12.6361 7.0599 12.9746 7.16992C13.3132 7.27995 13.6009 7.43229 13.8379 7.62695C14.0749 7.82161 14.2568 8.05013 14.3838 8.3125C14.515 8.57064 14.5806 8.84993 14.5806 9.15039H13.4062C13.4062 9.00228 13.3682 8.8584 13.292 8.71875C13.2158 8.57487 13.11 8.44792 12.9746 8.33789C12.8392 8.22786 12.6742 8.139 12.4795 8.07129C12.2891 8.00358 12.0732 7.96973 11.832 7.96973C11.5824 7.96973 11.3623 7.99723 11.1719 8.05225C10.9857 8.10726 10.8312 8.18132 10.7085 8.27441C10.5815 8.36751 10.4863 8.47542 10.4229 8.59814C10.3594 8.72087 10.3276 8.84782 10.3276 8.979C10.3276 9.11442 10.353 9.23503 10.4038 9.34082C10.4546 9.44661 10.5435 9.54183 10.6704 9.62646C10.7931 9.7111 10.9582 9.78727 11.1655 9.85498C11.3771 9.92269 11.6437 9.98828 11.9653 10.0518C12.3885 10.1406 12.7673 10.2443 13.1016 10.3628C13.4359 10.4771 13.7173 10.6146 13.9458 10.7754C14.1743 10.9404 14.3478 11.1309 14.4663 11.3467C14.589 11.5625 14.6504 11.8122 14.6504 12.0957C14.6504 12.4004 14.5806 12.6776 14.4409 12.9272C14.3055 13.1769 14.1151 13.3906 13.8696 13.5684C13.6242 13.7461 13.3301 13.8836 12.9873 13.981C12.6445 14.0783 12.27 14.127 11.8638 14.127C11.3983 14.127 10.9836 14.0656 10.6196 13.9429C10.2557 13.8159 9.94889 13.6488 9.69922 13.4414C9.44531 13.2383 9.25065 13.0013 9.11523 12.7305C8.98405 12.4596 8.91846 12.1782 8.91846 11.8862H10.0928C10.1097 12.1274 10.1732 12.3306 10.2832 12.4956C10.3975 12.6606 10.5392 12.7939 10.7085 12.8955C10.8735 12.9971 11.0576 13.069 11.2607 13.1113C11.4639 13.1536 11.6649 13.1748 11.8638 13.1748C12.1769 13.1748 12.4499 13.1388 12.6826 13.0669C12.9154 12.9907 13.0973 12.887 13.2285 12.7559C13.3089 12.6755 13.3703 12.5866 13.4126 12.4893C13.4549 12.3919 13.4761 12.2882 13.4761 12.1782ZM19.7539 14.127C19.2715 14.127 18.8271 14.0444 18.4209 13.8794C18.0189 13.7144 17.674 13.4837 17.3862 13.1875C17.0985 12.8913 16.8742 12.54 16.7134 12.1338C16.5526 11.7275 16.4722 11.2853 16.4722 10.8071V10.5405C16.4722 9.98617 16.561 9.49105 16.7388 9.05518C16.9165 8.61507 17.1535 8.24268 17.4497 7.93799C17.7417 7.63753 18.0739 7.4069 18.4463 7.24609C18.8229 7.08529 19.208 7.00488 19.6016 7.00488C20.0967 7.00488 20.5283 7.09163 20.8965 7.26514C21.2689 7.43441 21.5778 7.66927 21.8232 7.96973C22.0687 8.27441 22.2507 8.632 22.3691 9.04248C22.4919 9.45296 22.5532 9.8973 22.5532 10.3755V10.9023H17.6465V10.9468C17.6761 11.2811 17.7417 11.5752 17.8433 11.8291C17.9491 12.083 18.0929 12.3073 18.2749 12.502C18.4611 12.7093 18.6854 12.8722 18.9478 12.9907C19.2101 13.1092 19.5 13.1685 19.8174 13.1685C20.2363 13.1685 20.6087 13.0838 20.9346 12.9146C21.2604 12.7453 21.5312 12.521 21.7471 12.2417L22.4644 12.8003C22.2358 13.1473 21.8931 13.4562 21.436 13.7271C20.9832 13.9937 20.4225 14.127 19.7539 14.127ZM19.6016 7.96973C19.3646 7.96973 19.1403 8.01416 18.9287 8.10303C18.7171 8.18766 18.5267 8.3125 18.3574 8.47754C18.1882 8.64681 18.0443 8.85417 17.9258 9.09961C17.8115 9.34082 17.7311 9.62012 17.6846 9.9375H21.3789V9.88037C21.3789 9.66878 21.3387 9.44238 21.2583 9.20117C21.1779 8.95573 21.0658 8.74414 20.9219 8.56641C20.778 8.38867 20.596 8.24479 20.376 8.13477C20.1602 8.02474 19.902 7.96973 19.6016 7.96973ZM29.0278 7.00488C29.2437 7.00488 29.4679 7.01969 29.7007 7.04932C29.9377 7.07894 30.1154 7.11914 30.2339 7.16992L30.0752 8.31885C29.8467 8.26807 29.6287 8.2321 29.4214 8.21094C29.2183 8.18555 29.0046 8.17285 28.7803 8.17285C28.4925 8.17285 28.2323 8.20882 27.9995 8.28076C27.7668 8.34847 27.5636 8.45003 27.3901 8.58545C27.2336 8.70394 27.096 8.84993 26.9775 9.02344C26.8633 9.19271 26.7681 9.38314 26.6919 9.59473V14H25.5112V7.13184H26.6284L26.6792 8.05225L26.6855 8.22363C26.9648 7.84701 27.2992 7.55078 27.6885 7.33496C28.082 7.11491 28.5285 7.00488 29.0278 7.00488Z" fill="#696C80"/>
</svg>
