<svg width="160" height="98" viewBox="0 0 160 98" fill="none" xmlns="http://www.w3.org/2000/svg">
<rect x="0.5" y="34.5" width="159" height="63" rx="4.5" stroke="#9747FF" stroke-dasharray="10 5"/>
<path d="M121 59H135V73H121V59Z" fill="#BABDCC"/>
<path fill-rule="evenodd" clip-rule="evenodd" d="M119 59C119 57.8954 119.895 57 121 57C122.105 57 123 57.8954 123 59C123 60.1046 122.105 61 121 61C119.895 61 119 60.1046 119 59ZM135 57C133.895 57 133 57.8954 133 59C133 60.1046 133.895 61 135 61C136.105 61 137 60.1046 137 59C137 57.8954 136.105 57 135 57ZM135 71C133.895 71 133 71.8954 133 73C133 74.1046 133.895 75 135 75C136.105 75 137 74.1046 137 73C137 71.8954 136.105 71 135 71ZM121 71C119.895 71 119 71.8954 119 73C119 74.1046 119.895 75 121 75C122.105 75 123 74.1046 123 73C123 71.8954 122.105 71 121 71Z" fill="#12131A"/>
<path fill-rule="evenodd" clip-rule="evenodd" d="M83.0308 59.499C82.9967 59.225 82.7761 59 82.5 59H77.5C77.2239 59 77.0033 59.225 76.9692 59.499C76.7439 61.3092 75.3092 62.7439 73.499 62.9692C73.225 63.0033 73 63.2239 73 63.5V68.5C73 68.7761 73.225 68.9967 73.499 69.0308C75.3092 69.2561 76.7439 70.6908 76.9692 72.501C77.0033 72.775 77.2239 73 77.5 73H82.5C82.7761 73 82.9967 72.775 83.0308 72.501C83.2561 70.6908 84.6908 69.2561 86.501 69.0308C86.775 68.9967 87 68.7761 87 68.5V63.5C87 63.2239 86.775 63.0033 86.501 62.9692C84.6908 62.7439 83.2561 61.3092 83.0308 59.499Z" fill="#12131A"/>
<path fill-rule="evenodd" clip-rule="evenodd" d="M71 59C71 57.8954 71.8954 57 73 57C74.1046 57 75 57.8954 75 59C75 60.1046 74.1046 61 73 61C71.8954 61 71 60.1046 71 59ZM87 57C85.8954 57 85 57.8954 85 59C85 60.1046 85.8954 61 87 61C88.1046 61 89 60.1046 89 59C89 57.8954 88.1046 57 87 57ZM87 71C85.8954 71 85 71.8954 85 73C85 74.1046 85.8954 75 87 75C88.1046 75 89 74.1046 89 73C89 71.8954 88.1046 71 87 71ZM73 71C71.8954 71 71 71.8954 71 73C71 74.1046 71.8954 75 73 75C74.1046 75 75 74.1046 75 73C75 71.8954 74.1046 71 73 71Z" fill="#12131A"/>
<path fill-rule="evenodd" clip-rule="evenodd" d="M36 59C36.5523 59 37 59.4477 37 60C37 60.5523 36.5523 61 36 61L28 61C27.4477 61 27 60.5523 27 60C27 59.4477 27.4477 59 28 59H36ZM26 61C25.4477 61 25 61.4477 25 62V70C25 70.5523 25.4477 71 26 71C26.5523 71 27 70.5523 27 70V62C27 61.4477 26.5523 61 26 61ZM38 61C37.4477 61 37 61.4477 37 62V70C37 70.5523 37.4477 71 38 71C38.5523 71 39 70.5523 39 70V62C39 61.4477 38.5523 61 38 61ZM37 72C37 71.4477 36.5523 71 36 71H28C27.4477 71 27 71.4477 27 72C27 72.5523 27.4477 73 28 73H36C36.5523 73 37 72.5523 37 72Z" fill="#12131A"/>
<path fill-rule="evenodd" clip-rule="evenodd" d="M26 61C25.4477 61 25 60.5523 25 60C25 59.4477 25.4477 59 26 59C26.5523 59 27 59.4477 27 60C27 60.5523 26.5523 61 26 61ZM23 60C23 58.3431 24.3431 57 26 57C27.6569 57 29 58.3431 29 60C29 61.6569 27.6569 63 26 63C24.3431 63 23 61.6569 23 60ZM38 61C37.4477 61 37 60.5523 37 60C37 59.4477 37.4477 59 38 59C38.5523 59 39 59.4477 39 60C39 60.5523 38.5523 61 38 61ZM35 60C35 58.3431 36.3431 57 38 57C39.6569 57 41 58.3431 41 60C41 61.6569 39.6569 63 38 63C36.3431 63 35 61.6569 35 60ZM25 72C25 72.5523 25.4477 73 26 73C26.5523 73 27 72.5523 27 72C27 71.4477 26.5523 71 26 71C25.4477 71 25 71.4477 25 72ZM26 69C24.3431 69 23 70.3431 23 72C23 73.6569 24.3431 75 26 75C27.6569 75 29 73.6569 29 72C29 70.3431 27.6569 69 26 69ZM38 73C37.4477 73 37 72.5523 37 72C37 71.4477 37.4477 71 38 71C38.5523 71 39 71.4477 39 72C39 72.5523 38.5523 73 38 73ZM35 72C35 70.3431 36.3431 69 38 69C39.6569 69 41 70.3431 41 72C41 73.6569 39.6569 75 38 75C36.3431 75 35 73.6569 35 72Z" fill="#12131A"/>
<path d="M3.37061 14L0.450684 4.75781H1.70752L3.73877 11.6577L3.87207 12.1084L4.01172 11.645L6.05566 4.75781H7.30615L4.39258 14H3.37061ZM11.9463 14.127C11.4639 14.127 11.0195 14.0444 10.6133 13.8794C10.2113 13.7144 9.86637 13.4837 9.57861 13.1875C9.29085 12.8913 9.06657 12.54 8.90576 12.1338C8.74495 11.7275 8.66455 11.2853 8.66455 10.8071V10.5405C8.66455 9.98617 8.75342 9.49105 8.93115 9.05518C9.10889 8.61507 9.34587 8.24268 9.64209 7.93799C9.93408 7.63753 10.2663 7.4069 10.6387 7.24609C11.0153 7.08529 11.4004 7.00488 11.7939 7.00488C12.2891 7.00488 12.7207 7.09163 13.0889 7.26514C13.4613 7.43441 13.7702 7.66927 14.0156 7.96973C14.2611 8.27441 14.443 8.632 14.5615 9.04248C14.6842 9.45296 14.7456 9.8973 14.7456 10.3755V10.9023H9.83887V10.9468C9.86849 11.2811 9.93408 11.5752 10.0356 11.8291C10.1414 12.083 10.2853 12.3073 10.4673 12.502C10.6535 12.7093 10.8778 12.8722 11.1401 12.9907C11.4025 13.1092 11.6924 13.1685 12.0098 13.1685C12.4287 13.1685 12.8011 13.0838 13.127 12.9146C13.4528 12.7453 13.7236 12.521 13.9395 12.2417L14.6567 12.8003C14.4282 13.1473 14.0854 13.4562 13.6284 13.7271C13.1756 13.9937 12.6149 14.127 11.9463 14.127ZM11.7939 7.96973C11.557 7.96973 11.3327 8.01416 11.1211 8.10303C10.9095 8.18766 10.7191 8.3125 10.5498 8.47754C10.3805 8.64681 10.2367 8.85417 10.1182 9.09961C10.0039 9.34082 9.9235 9.62012 9.87695 9.9375H13.5713V9.88037C13.5713 9.66878 13.5311 9.44238 13.4507 9.20117C13.3703 8.95573 13.2581 8.74414 13.1143 8.56641C12.9704 8.38867 12.7884 8.24479 12.5684 8.13477C12.3525 8.02474 12.0944 7.96973 11.7939 7.96973ZM19.646 13.1748C19.8576 13.1748 20.0628 13.141 20.2617 13.0732C20.4648 13.0055 20.6447 12.9103 20.8013 12.7876C20.9578 12.6691 21.0827 12.5295 21.1758 12.3687C21.2731 12.2036 21.3239 12.0259 21.3281 11.8354H22.439C22.4347 12.1401 22.3543 12.4321 22.1978 12.7114C22.0454 12.9865 21.8402 13.2277 21.582 13.4351C21.3239 13.6466 21.0277 13.8159 20.6934 13.9429C20.359 14.0656 20.0099 14.127 19.646 14.127C19.1255 14.127 18.6706 14.0339 18.2812 13.8477C17.8919 13.6615 17.5682 13.4097 17.3101 13.0923C17.0477 12.7791 16.8509 12.4173 16.7197 12.0068C16.5885 11.5921 16.5229 11.1562 16.5229 10.6992V10.4326C16.5229 9.97982 16.5885 9.54606 16.7197 9.13135C16.8509 8.71663 17.0477 8.35059 17.3101 8.0332C17.5682 7.72005 17.8919 7.47038 18.2812 7.28418C18.6706 7.09798 19.1255 7.00488 19.646 7.00488C20.0522 7.00488 20.4246 7.07048 20.7632 7.20166C21.106 7.32861 21.4022 7.50212 21.6519 7.72217C21.8973 7.94645 22.0898 8.21094 22.2295 8.51562C22.3691 8.82031 22.439 9.14616 22.439 9.49316H21.3281C21.3239 9.28581 21.2773 9.09115 21.1885 8.90918C21.1038 8.72298 20.9875 8.56006 20.8394 8.42041C20.6912 8.28076 20.5135 8.17074 20.3062 8.09033C20.103 8.00993 19.883 7.96973 19.646 7.96973C19.2821 7.96973 18.9753 8.04378 18.7256 8.19189C18.4801 8.33577 18.2812 8.52409 18.1289 8.75684C17.9766 8.99382 17.8665 9.2583 17.7988 9.55029C17.7354 9.84229 17.7036 10.1364 17.7036 10.4326V10.6992C17.7036 10.9997 17.7354 11.298 17.7988 11.5942C17.8665 11.8862 17.9766 12.1486 18.1289 12.3813C18.277 12.6183 18.4738 12.8109 18.7192 12.959C18.9689 13.1029 19.2778 13.1748 19.646 13.1748ZM27.3076 5.46875V7.13184H29.9229V8.03955H27.3076V11.772C27.3076 12.0386 27.3415 12.2586 27.4092 12.4321C27.4769 12.6056 27.57 12.7432 27.6885 12.8447C27.807 12.9505 27.9424 13.0246 28.0947 13.0669C28.2513 13.1092 28.4163 13.1304 28.5898 13.1304C28.7168 13.1304 28.848 13.124 28.9834 13.1113C29.1188 13.0944 29.2521 13.0754 29.3833 13.0542C29.5103 13.033 29.6287 13.0119 29.7388 12.9907C29.853 12.9653 29.9461 12.9442 30.0181 12.9272L30.1831 13.7588C30.0858 13.818 29.9673 13.8709 29.8276 13.9175C29.688 13.9598 29.5356 13.9958 29.3706 14.0254C29.2056 14.0592 29.0299 14.0846 28.8438 14.1016C28.6618 14.1185 28.4798 14.127 28.2979 14.127C27.9932 14.127 27.7075 14.0846 27.4409 14C27.1785 13.9111 26.95 13.7715 26.7554 13.5811C26.5607 13.3949 26.4062 13.1536 26.292 12.8574C26.182 12.557 26.127 12.1951 26.127 11.772V8.03955H24.3242V7.13184H26.127V5.46875H27.3076ZM32.0049 10.5024C32.0049 10.0073 32.0768 9.54818 32.2207 9.125C32.3646 8.69759 32.5719 8.32731 32.8428 8.01416C33.1094 7.70101 33.4352 7.45557 33.8203 7.27783C34.2054 7.09587 34.6392 7.00488 35.1216 7.00488C35.6082 7.00488 36.0441 7.09587 36.4292 7.27783C36.8185 7.45557 37.1486 7.70101 37.4194 8.01416C37.686 8.32731 37.8913 8.69759 38.0352 9.125C38.179 9.54818 38.251 10.0073 38.251 10.5024V10.6421C38.251 11.1372 38.179 11.5964 38.0352 12.0195C37.8913 12.4427 37.686 12.8109 37.4194 13.124C37.1486 13.4372 36.8206 13.6826 36.4355 13.8604C36.0505 14.0381 35.6167 14.127 35.1343 14.127C34.6476 14.127 34.2096 14.0381 33.8203 13.8604C33.4352 13.6826 33.1094 13.4372 32.8428 13.124C32.5719 12.8109 32.3646 12.4427 32.2207 12.0195C32.0768 11.5964 32.0049 11.1372 32.0049 10.6421V10.5024ZM33.1792 10.6421C33.1792 10.9806 33.2194 11.3044 33.2998 11.6133C33.3802 11.918 33.5029 12.1867 33.668 12.4194C33.8288 12.6522 34.0319 12.8363 34.2773 12.9717C34.5228 13.1071 34.8084 13.1748 35.1343 13.1748C35.4559 13.1748 35.7373 13.1071 35.9785 12.9717C36.224 12.8363 36.4292 12.6522 36.5942 12.4194C36.755 12.1867 36.8757 11.918 36.9561 11.6133C37.0365 11.3044 37.0767 10.9806 37.0767 10.6421V10.5024C37.0767 10.1681 37.0343 9.84863 36.9497 9.54395C36.8693 9.23503 36.7487 8.96419 36.5879 8.73145C36.4229 8.4987 36.2176 8.31462 35.9722 8.1792C35.731 8.03955 35.4474 7.96973 35.1216 7.96973C34.7957 7.96973 34.5122 8.03955 34.271 8.1792C34.0298 8.31462 33.8288 8.4987 33.668 8.73145C33.5029 8.96419 33.3802 9.23503 33.2998 9.54395C33.2194 9.84863 33.1792 10.1681 33.1792 10.5024V10.6421ZM44.6431 7.00488C44.8589 7.00488 45.0832 7.01969 45.3159 7.04932C45.5529 7.07894 45.7306 7.11914 45.8491 7.16992L45.6904 8.31885C45.4619 8.26807 45.244 8.2321 45.0366 8.21094C44.8335 8.18555 44.6198 8.17285 44.3955 8.17285C44.1077 8.17285 43.8475 8.20882 43.6147 8.28076C43.382 8.34847 43.1789 8.45003 43.0054 8.58545C42.8488 8.70394 42.7113 8.84993 42.5928 9.02344C42.4785 9.19271 42.3833 9.38314 42.3071 9.59473V14H41.1265V7.13184H42.2437L42.2944 8.05225L42.3008 8.22363C42.5801 7.84701 42.9144 7.55078 43.3037 7.33496C43.6973 7.11491 44.1437 7.00488 44.6431 7.00488ZM60.8423 9.72803H56.9829V13.0034H61.4834V14H55.8086V4.75781H61.4263V5.76074H56.9829V8.73145H60.8423V9.72803ZM63.3433 10.5088C63.3433 9.99674 63.4067 9.52702 63.5337 9.09961C63.6649 8.66797 63.8511 8.29769 64.0923 7.98877C64.3293 7.67985 64.617 7.43864 64.9556 7.26514C65.2941 7.09163 65.6729 7.00488 66.0918 7.00488C66.5023 7.00488 66.8599 7.07471 67.1646 7.21436C67.4735 7.34977 67.7401 7.54867 67.9644 7.81104V4.25H69.1387V14H68.0596L68.0088 13.2764C67.7803 13.5557 67.5073 13.7673 67.1899 13.9111C66.8726 14.055 66.5023 14.127 66.0791 14.127C65.6644 14.127 65.2878 14.0381 64.9492 13.8604C64.6149 13.6826 64.3293 13.4372 64.0923 13.124C63.8553 12.8109 63.6712 12.4427 63.54 12.0195C63.4089 11.5921 63.3433 11.133 63.3433 10.6421V10.5088ZM64.5176 10.6421C64.5176 10.9764 64.5535 11.2938 64.6255 11.5942C64.6974 11.8947 64.8096 12.1592 64.9619 12.3877C65.11 12.6162 65.3005 12.7982 65.5332 12.9336C65.766 13.0648 66.0452 13.1304 66.3711 13.1304C66.7646 13.1304 67.0905 13.0415 67.3486 12.8638C67.6068 12.686 67.812 12.4469 67.9644 12.1465V8.95996C67.812 8.68066 67.6068 8.45215 67.3486 8.27441C67.0905 8.09245 66.7689 8.00146 66.3838 8.00146C66.0537 8.00146 65.7702 8.06917 65.5332 8.20459C65.3005 8.34001 65.11 8.52197 64.9619 8.75049C64.8096 8.98324 64.6974 9.25195 64.6255 9.55664C64.5535 9.8571 64.5176 10.1745 64.5176 10.5088V10.6421ZM71.5571 7.13184H75.0674V12.9844H77.3081V14H71.5571V12.9844H73.8931V8.15381H71.5571V7.13184ZM73.7407 5.3291C73.7407 5.22754 73.7555 5.13232 73.7852 5.04346C73.819 4.95459 73.8698 4.87842 73.9375 4.81494C73.9925 4.75993 74.0623 4.71761 74.147 4.68799C74.2358 4.65413 74.3353 4.63721 74.4453 4.63721C74.5553 4.63721 74.6527 4.65413 74.7373 4.68799C74.8219 4.71761 74.8918 4.75993 74.9468 4.81494C75.0145 4.87419 75.0653 4.94824 75.0991 5.03711C75.133 5.12598 75.1499 5.22331 75.1499 5.3291C75.1499 5.51953 75.0907 5.67822 74.9722 5.80518C74.8537 5.93213 74.6781 5.99561 74.4453 5.99561C74.2083 5.99561 74.0306 5.93213 73.9121 5.80518C73.7979 5.67822 73.7407 5.51953 73.7407 5.3291ZM81.9609 5.46875V7.13184H84.5762V8.03955H81.9609V11.772C81.9609 12.0386 81.9948 12.2586 82.0625 12.4321C82.1302 12.6056 82.2233 12.7432 82.3418 12.8447C82.4603 12.9505 82.5957 13.0246 82.748 13.0669C82.9046 13.1092 83.0697 13.1304 83.2432 13.1304C83.3701 13.1304 83.5013 13.124 83.6367 13.1113C83.7721 13.0944 83.9054 13.0754 84.0366 13.0542C84.1636 13.033 84.2821 13.0119 84.3921 12.9907C84.5063 12.9653 84.5994 12.9442 84.6714 12.9272L84.8364 13.7588C84.7391 13.818 84.6206 13.8709 84.481 13.9175C84.3413 13.9598 84.189 13.9958 84.0239 14.0254C83.8589 14.0592 83.6833 14.0846 83.4971 14.1016C83.3151 14.1185 83.1331 14.127 82.9512 14.127C82.6465 14.127 82.3608 14.0846 82.0942 14C81.8319 13.9111 81.6034 13.7715 81.4087 13.5811C81.214 13.3949 81.0596 13.1536 80.9453 12.8574C80.8353 12.557 80.7803 12.1951 80.7803 11.772V8.03955H78.9775V7.13184H80.7803V5.46875H81.9609ZM99.6328 11.6641C99.6328 11.3805 99.5672 11.1414 99.436 10.9468C99.3091 10.7521 99.144 10.5871 98.9409 10.4517C98.7378 10.3205 98.5135 10.2104 98.2681 10.1216C98.0269 10.0327 97.7941 9.95231 97.5698 9.88037C97.244 9.77458 96.9118 9.64762 96.5732 9.49951C96.2389 9.34717 95.9342 9.1652 95.6592 8.95361C95.3799 8.73779 95.1514 8.48389 94.9736 8.19189C94.8001 7.89567 94.7134 7.54867 94.7134 7.15088C94.7134 6.75309 94.8001 6.39762 94.9736 6.08447C95.1514 5.77132 95.382 5.50684 95.6655 5.29102C95.9491 5.0752 96.2707 4.91227 96.6304 4.80225C96.9901 4.68799 97.3519 4.63086 97.7158 4.63086C98.1178 4.63086 98.505 4.69857 98.8774 4.83398C99.2498 4.96517 99.5799 5.15137 99.8677 5.39258C100.155 5.63379 100.386 5.92578 100.56 6.26855C100.733 6.61133 100.824 6.9943 100.833 7.41748H99.6265C99.5926 7.15088 99.527 6.90967 99.4297 6.69385C99.3324 6.4738 99.2033 6.28548 99.0425 6.12891C98.8817 5.97233 98.6891 5.85173 98.4648 5.76709C98.2448 5.67822 97.9951 5.63379 97.7158 5.63379C97.4915 5.63379 97.2715 5.66553 97.0557 5.729C96.8441 5.79248 96.6558 5.8877 96.4907 6.01465C96.3215 6.1416 96.186 6.29818 96.0845 6.48438C95.9871 6.67057 95.9385 6.88639 95.9385 7.13184C95.9427 7.39844 96.0104 7.62484 96.1416 7.81104C96.2728 7.993 96.4399 8.14746 96.6431 8.27441C96.842 8.40137 97.0578 8.50716 97.2905 8.5918C97.5275 8.67643 97.7497 8.75049 97.957 8.81396C98.2998 8.91976 98.6426 9.04883 98.9854 9.20117C99.3281 9.34928 99.6413 9.53971 99.9248 9.77246C100.204 9.98828 100.428 10.2528 100.598 10.5659C100.771 10.8791 100.858 11.2409 100.858 11.6514C100.858 12.0661 100.765 12.4279 100.579 12.7368C100.397 13.0457 100.16 13.3018 99.8677 13.5049C99.5757 13.7122 99.2456 13.8688 98.8774 13.9746C98.5093 14.0762 98.1411 14.127 97.7729 14.127C97.3328 14.127 96.8991 14.0529 96.4717 13.9048C96.0485 13.7567 95.6803 13.543 95.3672 13.2637C95.0879 13.0225 94.8657 12.741 94.7007 12.4194C94.5399 12.0936 94.4531 11.7318 94.4404 11.334H95.6401C95.6782 11.6217 95.7565 11.8778 95.875 12.1021C95.9935 12.3221 96.1458 12.5083 96.332 12.6606C96.5182 12.8172 96.7319 12.9357 96.9731 13.0161C97.2186 13.0923 97.4852 13.1304 97.7729 13.1304C98.0015 13.1304 98.2257 13.1029 98.4458 13.0479C98.6701 12.9886 98.869 12.8976 99.0425 12.7749C99.216 12.6564 99.3577 12.5062 99.4678 12.3242C99.5778 12.138 99.6328 11.918 99.6328 11.6641ZM102.388 10.5088C102.388 9.99674 102.449 9.52702 102.572 9.09961C102.694 8.66797 102.874 8.29769 103.111 7.98877C103.348 7.67985 103.638 7.43864 103.981 7.26514C104.328 7.09163 104.722 7.00488 105.162 7.00488C105.407 7.00488 105.636 7.03027 105.847 7.08105C106.063 7.13184 106.26 7.20801 106.438 7.30957C106.552 7.37305 106.66 7.4471 106.761 7.53174C106.863 7.61637 106.958 7.70947 107.047 7.81104L107.098 7.13184H108.177V16.6406H107.002V13.3779C106.901 13.4837 106.793 13.5789 106.679 13.6636C106.569 13.7482 106.448 13.8201 106.317 13.8794C106.152 13.9598 105.972 14.0212 105.777 14.0635C105.583 14.1058 105.373 14.127 105.149 14.127C104.713 14.127 104.324 14.0381 103.981 13.8604C103.642 13.6826 103.355 13.4372 103.118 13.124C102.881 12.8109 102.699 12.4427 102.572 12.0195C102.449 11.5921 102.388 11.133 102.388 10.6421V10.5088ZM103.562 10.6421C103.562 10.9764 103.598 11.2959 103.67 11.6006C103.746 11.9053 103.86 12.174 104.013 12.4067C104.165 12.6395 104.358 12.8257 104.59 12.9653C104.827 13.1007 105.109 13.1685 105.435 13.1685C105.617 13.1685 105.784 13.1473 105.936 13.105C106.088 13.0627 106.228 13.0055 106.355 12.9336C106.49 12.8532 106.611 12.7559 106.717 12.6416C106.823 12.5231 106.918 12.394 107.002 12.2544V8.86475C106.922 8.73356 106.829 8.61507 106.723 8.50928C106.622 8.39925 106.507 8.30404 106.38 8.22363C106.249 8.14323 106.105 8.08187 105.949 8.03955C105.796 7.993 105.629 7.96973 105.447 7.96973C105.121 7.96973 104.84 8.03955 104.603 8.1792C104.366 8.31885 104.171 8.50505 104.019 8.73779C103.862 8.97477 103.746 9.24561 103.67 9.55029C103.598 9.85498 103.562 10.1745 103.562 10.5088V10.6421ZM114.937 14L114.867 13.0542C114.639 13.3927 114.353 13.6572 114.01 13.8477C113.667 14.0339 113.272 14.127 112.823 14.127C112.464 14.127 112.138 14.0719 111.846 13.9619C111.554 13.8477 111.304 13.672 111.097 13.4351C110.889 13.1981 110.729 12.8976 110.614 12.5337C110.504 12.1655 110.449 11.7254 110.449 11.2134V7.13184H111.624V11.2261C111.624 11.5985 111.653 11.9074 111.712 12.1528C111.772 12.3983 111.861 12.5929 111.979 12.7368C112.097 12.8849 112.241 12.9886 112.411 13.0479C112.584 13.1071 112.783 13.1367 113.007 13.1367C113.27 13.1367 113.505 13.1071 113.712 13.0479C113.919 12.9844 114.099 12.8976 114.251 12.7876C114.378 12.6987 114.488 12.5929 114.582 12.4702C114.679 12.3433 114.759 12.2057 114.823 12.0576V7.13184H116.003V14H114.937ZM122.732 14C122.685 13.9111 122.647 13.8011 122.618 13.6699C122.592 13.5345 122.573 13.3949 122.561 13.251C122.442 13.3695 122.309 13.4816 122.161 13.5874C122.017 13.6932 121.858 13.7863 121.685 13.8667C121.507 13.9471 121.319 14.0106 121.12 14.0571C120.921 14.1037 120.709 14.127 120.485 14.127C120.121 14.127 119.791 14.0741 119.495 13.9683C119.203 13.8625 118.955 13.7186 118.752 13.5366C118.545 13.3589 118.384 13.1473 118.27 12.9019C118.16 12.6522 118.104 12.3835 118.104 12.0957C118.104 11.7191 118.179 11.389 118.327 11.1055C118.479 10.8219 118.693 10.585 118.968 10.3945C119.243 10.2083 119.573 10.0687 119.958 9.97559C120.347 9.88249 120.781 9.83594 121.259 9.83594H122.542V9.29639C122.542 9.08903 122.503 8.90283 122.427 8.73779C122.351 8.57275 122.243 8.43099 122.104 8.3125C121.964 8.19824 121.792 8.10938 121.589 8.0459C121.39 7.98242 121.166 7.95068 120.917 7.95068C120.684 7.95068 120.474 7.98031 120.288 8.03955C120.106 8.0988 119.952 8.17708 119.825 8.27441C119.698 8.37174 119.598 8.48812 119.526 8.62354C119.459 8.75472 119.425 8.89225 119.425 9.03613H118.244C118.248 8.78646 118.312 8.54102 118.435 8.2998C118.562 8.05859 118.743 7.84066 118.98 7.646C119.213 7.45557 119.497 7.30111 119.831 7.18262C120.17 7.06413 120.553 7.00488 120.98 7.00488C121.369 7.00488 121.731 7.05355 122.065 7.15088C122.4 7.24398 122.69 7.38574 122.935 7.57617C123.176 7.77083 123.367 8.01204 123.506 8.2998C123.646 8.58757 123.716 8.92399 123.716 9.30908V12.502C123.716 12.7305 123.737 12.9738 123.779 13.2319C123.822 13.4858 123.881 13.708 123.957 13.8984V14H122.732ZM120.656 13.105C120.885 13.105 121.098 13.0754 121.297 13.0161C121.496 12.9569 121.678 12.8786 121.843 12.7812C122.004 12.6839 122.144 12.5739 122.262 12.4512C122.381 12.3242 122.474 12.193 122.542 12.0576V10.6675H121.45C121.043 10.6675 120.688 10.7035 120.383 10.7754C120.083 10.8431 119.844 10.9489 119.666 11.0928C119.539 11.1943 119.442 11.3149 119.374 11.4546C119.311 11.5942 119.279 11.7529 119.279 11.9307C119.279 12.0999 119.306 12.2565 119.361 12.4004C119.421 12.5443 119.507 12.667 119.622 12.7686C119.736 12.8743 119.88 12.9569 120.053 13.0161C120.227 13.0754 120.428 13.105 120.656 13.105ZM130.527 7.00488C130.743 7.00488 130.967 7.01969 131.2 7.04932C131.437 7.07894 131.614 7.11914 131.733 7.16992L131.574 8.31885C131.346 8.26807 131.128 8.2321 130.92 8.21094C130.717 8.18555 130.504 8.17285 130.279 8.17285C129.992 8.17285 129.731 8.20882 129.499 8.28076C129.266 8.34847 129.063 8.45003 128.889 8.58545C128.733 8.70394 128.595 8.84993 128.477 9.02344C128.362 9.19271 128.267 9.38314 128.191 9.59473V14H127.01V7.13184H128.127L128.178 8.05225L128.185 8.22363C128.464 7.84701 128.798 7.55078 129.188 7.33496C129.581 7.11491 130.028 7.00488 130.527 7.00488ZM136.868 14.127C136.386 14.127 135.941 14.0444 135.535 13.8794C135.133 13.7144 134.788 13.4837 134.5 13.1875C134.213 12.8913 133.988 12.54 133.828 12.1338C133.667 11.7275 133.586 11.2853 133.586 10.8071V10.5405C133.586 9.98617 133.675 9.49105 133.853 9.05518C134.031 8.61507 134.268 8.24268 134.564 7.93799C134.856 7.63753 135.188 7.4069 135.561 7.24609C135.937 7.08529 136.322 7.00488 136.716 7.00488C137.211 7.00488 137.643 7.09163 138.011 7.26514C138.383 7.43441 138.692 7.66927 138.938 7.96973C139.183 8.27441 139.365 8.632 139.483 9.04248C139.606 9.45296 139.667 9.8973 139.667 10.3755V10.9023H134.761V10.9468C134.79 11.2811 134.856 11.5752 134.958 11.8291C135.063 12.083 135.207 12.3073 135.389 12.502C135.575 12.7093 135.8 12.8722 136.062 12.9907C136.324 13.1092 136.614 13.1685 136.932 13.1685C137.351 13.1685 137.723 13.0838 138.049 12.9146C138.375 12.7453 138.646 12.521 138.861 12.2417L139.579 12.8003C139.35 13.1473 139.007 13.4562 138.55 13.7271C138.097 13.9937 137.537 14.127 136.868 14.127ZM136.716 7.96973C136.479 7.96973 136.255 8.01416 136.043 8.10303C135.831 8.18766 135.641 8.3125 135.472 8.47754C135.302 8.64681 135.159 8.85417 135.04 9.09961C134.926 9.34082 134.845 9.62012 134.799 9.9375H138.493V9.88037C138.493 9.66878 138.453 9.44238 138.373 9.20117C138.292 8.95573 138.18 8.74414 138.036 8.56641C137.892 8.38867 137.71 8.24479 137.49 8.13477C137.274 8.02474 137.016 7.96973 136.716 7.96973Z" fill="#696C80"/>
</svg>
