<svg width="160" height="98" viewBox="0 0 160 98" fill="none" xmlns="http://www.w3.org/2000/svg">
<rect x="0.5" y="34.5" width="159" height="63" rx="4.5" stroke="#9747FF" stroke-dasharray="10 5"/>
<path d="M120 64.8C120 63.1198 120 62.2798 120.327 61.638C120.615 61.0735 121.074 60.6146 121.638 60.327C122.28 60 123.12 60 124.8 60H131.2C132.88 60 133.72 60 134.362 60.327C134.926 60.6146 135.385 61.0735 135.673 61.638C136 62.2798 136 63.1198 136 64.8V71.2C136 72.8802 136 73.7202 135.673 74.362C135.385 74.9265 134.926 75.3854 134.362 75.673C133.72 76 132.88 76 131.2 76H124.8C123.12 76 122.28 76 121.638 75.673C121.074 75.3854 120.615 74.9265 120.327 74.362C120 73.7202 120 72.8802 120 71.2V64.8Z" fill="#BABDCC"/>
<path d="M126 66.0031C126 65.2055 126.888 64.7289 127.553 65.1698L130.551 67.1582C131.153 67.5577 131.153 68.4421 130.551 68.8416L127.553 70.8301C126.888 71.2709 126 70.7943 126 69.9967V66.0031Z" fill="#12131A"/>
<path d="M122 57C122 57.5523 122.448 58 123 58H133C133.552 58 134 57.5523 134 57C134 56.4477 133.552 56 133 56H123C122.448 56 122 56.4477 122 57Z" fill="#12131A"/>
<path fill-rule="evenodd" clip-rule="evenodd" d="M72.327 61.638C72 62.2798 72 63.1198 72 64.8L72 71.2C72 72.8802 72 73.7202 72.327 74.362C72.6146 74.9265 73.0735 75.3854 73.638 75.673C74.2798 76 75.1198 76 76.8 76H83.2C84.8802 76 85.7202 76 86.362 75.673C86.9265 75.3854 87.3854 74.9265 87.673 74.362C88 73.7202 88 72.8802 88 71.2V64.8C88 63.1198 88 62.2798 87.673 61.638C87.3854 61.0735 86.9265 60.6146 86.362 60.327C85.7202 60 84.8802 60 83.2 60L76.8 60C75.1198 60 74.2798 60 73.638 60.327C73.0735 60.6146 72.6146 61.0735 72.327 61.638ZM79.5527 65.1699C78.888 64.7291 78 65.2057 78 66.0033V69.9968C78 70.7944 78.888 71.2711 79.5527 70.8302L82.5509 68.8418C83.1532 68.4423 83.1532 67.5578 82.5509 67.1583L79.5527 65.1699Z" fill="#12131A"/>
<path d="M74 57C74 57.5523 74.4477 58 75 58H85C85.5523 58 86 57.5523 86 57C86 56.4477 85.5523 56 85 56H75C74.4477 56 74 56.4477 74 57Z" fill="#12131A"/>
<path fill-rule="evenodd" clip-rule="evenodd" d="M29.7587 60H34.2413C35.0463 60 35.7106 60 36.2518 60.0442C36.8139 60.0901 37.3306 60.1887 37.816 60.436C38.5686 60.8195 39.1805 61.4314 39.564 62.184C39.8113 62.6694 39.9099 63.1861 39.9558 63.7482C40 64.2894 40 64.9537 40 65.7587V70.2413C40 71.0463 40 71.7106 39.9558 72.2518C39.9099 72.8139 39.8113 73.3306 39.564 73.816C39.1805 74.5686 38.5686 75.1805 37.816 75.564C37.3306 75.8113 36.8139 75.9099 36.2518 75.9558C35.7106 76 35.0463 76 34.2413 76H29.7587C28.9537 76 28.2894 76 27.7482 75.9558C27.1861 75.9099 26.6694 75.8113 26.184 75.564C25.4314 75.1805 24.8195 74.5686 24.436 73.816C24.1887 73.3306 24.0901 72.8139 24.0442 72.2518C24 71.7106 24 71.0463 24 70.2413V65.7587C24 64.9537 24 64.2894 24.0442 63.7482C24.0901 63.1861 24.1887 62.6694 24.436 62.184C24.8195 61.4314 25.4314 60.8195 26.184 60.436C26.6694 60.1887 27.1861 60.0901 27.7482 60.0442C28.2894 60 28.9537 60 29.7587 60ZM27.911 62.0376C27.4726 62.0734 27.2484 62.1383 27.092 62.218C26.7157 62.4097 26.4097 62.7157 26.218 63.092C26.1383 63.2484 26.0734 63.4726 26.0376 63.911C26.0008 64.3611 26 64.9434 26 65.8V70.2C26 71.0566 26.0008 71.6389 26.0376 72.089C26.0734 72.5274 26.1383 72.7516 26.218 72.908C26.4097 73.2843 26.7157 73.5903 27.092 73.782C27.2484 73.8617 27.4726 73.9266 27.911 73.9624C28.3611 73.9992 28.9434 74 29.8 74H34.2C35.0566 74 35.6389 73.9992 36.089 73.9624C36.5274 73.9266 36.7516 73.8617 36.908 73.782C37.2843 73.5903 37.5903 73.2843 37.782 72.908C37.8617 72.7516 37.9266 72.5274 37.9624 72.089C37.9992 71.6389 38 71.0566 38 70.2V65.8C38 64.9434 37.9992 64.3611 37.9624 63.911C37.9266 63.4726 37.8617 63.2484 37.782 63.092C37.5903 62.7157 37.2843 62.4097 36.908 62.218C36.7516 62.1383 36.5274 62.0734 36.089 62.0376C35.6389 62.0008 35.0566 62 34.2 62H29.8C28.9434 62 28.3611 62.0008 27.911 62.0376Z" fill="#12131A"/>
<path d="M30 66.0031C30 65.2055 30.888 64.7289 31.5527 65.1698L34.5509 67.1582C35.1532 67.5577 35.1532 68.4421 34.5509 68.8416L31.5527 70.8301C30.888 71.2709 30 70.7943 30 69.9967V66.0031Z" fill="#12131A"/>
<path d="M26 57C26 57.5523 26.4477 58 27 58H37C37.5523 58 38 57.5523 38 57C38 56.4477 37.5523 56 37 56H27C26.4477 56 26 56.4477 26 57Z" fill="#12131A"/>
<path d="M3.37061 14L0.450684 4.75781H1.70752L3.73877 11.6577L3.87207 12.1084L4.01172 11.645L6.05566 4.75781H7.30615L4.39258 14H3.37061ZM9.09619 7.13184H12.6064V12.9844H14.8472V14H9.09619V12.9844H11.4321V8.15381H9.09619V7.13184ZM11.2798 5.3291C11.2798 5.22754 11.2946 5.13232 11.3242 5.04346C11.3581 4.95459 11.4089 4.87842 11.4766 4.81494C11.5316 4.75993 11.6014 4.71761 11.686 4.68799C11.7749 4.65413 11.8743 4.63721 11.9844 4.63721C12.0944 4.63721 12.1917 4.65413 12.2764 4.68799C12.361 4.71761 12.4308 4.75993 12.4858 4.81494C12.5535 4.87419 12.6043 4.94824 12.6382 5.03711C12.672 5.12598 12.689 5.22331 12.689 5.3291C12.689 5.51953 12.6297 5.67822 12.5112 5.80518C12.3927 5.93213 12.2171 5.99561 11.9844 5.99561C11.7474 5.99561 11.5697 5.93213 11.4512 5.80518C11.3369 5.67822 11.2798 5.51953 11.2798 5.3291ZM16.4976 10.5088C16.4976 9.99674 16.561 9.52702 16.688 9.09961C16.8192 8.66797 17.0054 8.29769 17.2466 7.98877C17.4836 7.67985 17.7713 7.43864 18.1099 7.26514C18.4484 7.09163 18.8271 7.00488 19.2461 7.00488C19.6566 7.00488 20.0142 7.07471 20.3188 7.21436C20.6278 7.34977 20.8944 7.54867 21.1187 7.81104V4.25H22.293V14H21.2139L21.1631 13.2764C20.9346 13.5557 20.6616 13.7673 20.3442 13.9111C20.0269 14.055 19.6566 14.127 19.2334 14.127C18.8187 14.127 18.4421 14.0381 18.1035 13.8604C17.7692 13.6826 17.4836 13.4372 17.2466 13.124C17.0096 12.8109 16.8255 12.4427 16.6943 12.0195C16.5632 11.5921 16.4976 11.133 16.4976 10.6421V10.5088ZM17.6719 10.6421C17.6719 10.9764 17.7078 11.2938 17.7798 11.5942C17.8517 11.8947 17.9639 12.1592 18.1162 12.3877C18.2643 12.6162 18.4548 12.7982 18.6875 12.9336C18.9202 13.0648 19.1995 13.1304 19.5254 13.1304C19.9189 13.1304 20.2448 13.0415 20.5029 12.8638C20.7611 12.686 20.9663 12.4469 21.1187 12.1465V8.95996C20.9663 8.68066 20.7611 8.45215 20.5029 8.27441C20.2448 8.09245 19.9232 8.00146 19.5381 8.00146C19.208 8.00146 18.9245 8.06917 18.6875 8.20459C18.4548 8.34001 18.2643 8.52197 18.1162 8.75049C17.9639 8.98324 17.8517 9.25195 17.7798 9.55664C17.7078 9.8571 17.6719 10.1745 17.6719 10.5088V10.6421ZM27.5615 14.127C27.0791 14.127 26.6348 14.0444 26.2285 13.8794C25.8265 13.7144 25.4816 13.4837 25.1938 13.1875C24.9061 12.8913 24.6818 12.54 24.521 12.1338C24.3602 11.7275 24.2798 11.2853 24.2798 10.8071V10.5405C24.2798 9.98617 24.3687 9.49105 24.5464 9.05518C24.7241 8.61507 24.9611 8.24268 25.2573 7.93799C25.5493 7.63753 25.8815 7.4069 26.2539 7.24609C26.6305 7.08529 27.0156 7.00488 27.4092 7.00488C27.9043 7.00488 28.3359 7.09163 28.7041 7.26514C29.0765 7.43441 29.3854 7.66927 29.6309 7.96973C29.8763 8.27441 30.0583 8.632 30.1768 9.04248C30.2995 9.45296 30.3608 9.8973 30.3608 10.3755V10.9023H25.4541V10.9468C25.4837 11.2811 25.5493 11.5752 25.6509 11.8291C25.7567 12.083 25.9006 12.3073 26.0825 12.502C26.2687 12.7093 26.493 12.8722 26.7554 12.9907C27.0177 13.1092 27.3076 13.1685 27.625 13.1685C28.0439 13.1685 28.4163 13.0838 28.7422 12.9146C29.068 12.7453 29.3389 12.521 29.5547 12.2417L30.272 12.8003C30.0435 13.1473 29.7007 13.4562 29.2437 13.7271C28.7909 13.9937 28.2301 14.127 27.5615 14.127ZM27.4092 7.96973C27.1722 7.96973 26.9479 8.01416 26.7363 8.10303C26.5247 8.18766 26.3343 8.3125 26.165 8.47754C25.9958 8.64681 25.8519 8.85417 25.7334 9.09961C25.6191 9.34082 25.5387 9.62012 25.4922 9.9375H29.1865V9.88037C29.1865 9.66878 29.1463 9.44238 29.0659 9.20117C28.9855 8.95573 28.8734 8.74414 28.7295 8.56641C28.5856 8.38867 28.4036 8.24479 28.1836 8.13477C27.9678 8.02474 27.7096 7.96973 27.4092 7.96973ZM32.0049 10.5024C32.0049 10.0073 32.0768 9.54818 32.2207 9.125C32.3646 8.69759 32.5719 8.32731 32.8428 8.01416C33.1094 7.70101 33.4352 7.45557 33.8203 7.27783C34.2054 7.09587 34.6392 7.00488 35.1216 7.00488C35.6082 7.00488 36.0441 7.09587 36.4292 7.27783C36.8185 7.45557 37.1486 7.70101 37.4194 8.01416C37.686 8.32731 37.8913 8.69759 38.0352 9.125C38.179 9.54818 38.251 10.0073 38.251 10.5024V10.6421C38.251 11.1372 38.179 11.5964 38.0352 12.0195C37.8913 12.4427 37.686 12.8109 37.4194 13.124C37.1486 13.4372 36.8206 13.6826 36.4355 13.8604C36.0505 14.0381 35.6167 14.127 35.1343 14.127C34.6476 14.127 34.2096 14.0381 33.8203 13.8604C33.4352 13.6826 33.1094 13.4372 32.8428 13.124C32.5719 12.8109 32.3646 12.4427 32.2207 12.0195C32.0768 11.5964 32.0049 11.1372 32.0049 10.6421V10.5024ZM33.1792 10.6421C33.1792 10.9806 33.2194 11.3044 33.2998 11.6133C33.3802 11.918 33.5029 12.1867 33.668 12.4194C33.8288 12.6522 34.0319 12.8363 34.2773 12.9717C34.5228 13.1071 34.8084 13.1748 35.1343 13.1748C35.4559 13.1748 35.7373 13.1071 35.9785 12.9717C36.224 12.8363 36.4292 12.6522 36.5942 12.4194C36.755 12.1867 36.8757 11.918 36.9561 11.6133C37.0365 11.3044 37.0767 10.9806 37.0767 10.6421V10.5024C37.0767 10.1681 37.0343 9.84863 36.9497 9.54395C36.8693 9.23503 36.7487 8.96419 36.5879 8.73145C36.4229 8.4987 36.2176 8.31462 35.9722 8.1792C35.731 8.03955 35.4474 7.96973 35.1216 7.96973C34.7957 7.96973 34.5122 8.03955 34.271 8.1792C34.0298 8.31462 33.8288 8.4987 33.668 8.73145C33.5029 8.96419 33.3802 9.23503 33.2998 9.54395C33.2194 9.84863 33.1792 10.1681 33.1792 10.5024V10.6421ZM49.2769 13.0034H53.7964V14H48.1025V4.75781H49.2769V13.0034ZM55.9419 7.13184H59.4521V12.9844H61.6929V14H55.9419V12.9844H58.2778V8.15381H55.9419V7.13184ZM58.1255 5.3291C58.1255 5.22754 58.1403 5.13232 58.1699 5.04346C58.2038 4.95459 58.2546 4.87842 58.3223 4.81494C58.3773 4.75993 58.4471 4.71761 58.5317 4.68799C58.6206 4.65413 58.7201 4.63721 58.8301 4.63721C58.9401 4.63721 59.0374 4.65413 59.1221 4.68799C59.2067 4.71761 59.2765 4.75993 59.3315 4.81494C59.3993 4.87419 59.45 4.94824 59.4839 5.03711C59.5177 5.12598 59.5347 5.22331 59.5347 5.3291C59.5347 5.51953 59.4754 5.67822 59.3569 5.80518C59.2384 5.93213 59.0628 5.99561 58.8301 5.99561C58.5931 5.99561 58.4154 5.93213 58.2969 5.80518C58.1826 5.67822 58.1255 5.51953 58.1255 5.3291ZM69.3862 10.6421C69.3862 10.9425 69.363 11.2324 69.3164 11.5117C69.2741 11.7868 69.2106 12.0449 69.126 12.2861C69.0117 12.6035 68.8615 12.8892 68.6753 13.1431C68.4933 13.3927 68.2733 13.6001 68.0151 13.7651C67.8289 13.8794 67.6237 13.9683 67.3994 14.0317C67.1794 14.0952 66.9403 14.127 66.6821 14.127C66.3859 14.127 66.1151 14.091 65.8696 14.019C65.6284 13.9471 65.4105 13.8434 65.2158 13.708C65.1227 13.6403 65.0339 13.5662 64.9492 13.4858C64.8646 13.4054 64.7842 13.3166 64.708 13.2192L64.6509 14H63.5718V4.25H64.7461V7.86816C64.8434 7.74544 64.9513 7.63542 65.0698 7.53809C65.1883 7.43652 65.3153 7.34977 65.4507 7.27783C65.62 7.18896 65.8062 7.12126 66.0093 7.07471C66.2124 7.02816 66.4325 7.00488 66.6694 7.00488C66.9657 7.00488 67.2386 7.04508 67.4883 7.12549C67.738 7.20589 67.9644 7.31803 68.1675 7.46191C68.3494 7.59733 68.5124 7.76237 68.6562 7.95703C68.8001 8.14746 68.9271 8.36117 69.0371 8.59814C69.1514 8.86475 69.2381 9.16097 69.2974 9.48682C69.3566 9.80843 69.3862 10.1491 69.3862 10.5088V10.6421ZM68.2119 10.5088C68.2119 10.293 68.1971 10.0835 68.1675 9.88037C68.1421 9.67301 68.1019 9.47835 68.0469 9.29639C67.9707 9.0721 67.8713 8.86686 67.7485 8.68066C67.6258 8.49447 67.4756 8.34847 67.2979 8.24268C67.1751 8.1665 67.0376 8.10726 66.8853 8.06494C66.7329 8.02262 66.5636 8.00146 66.3774 8.00146C66.1743 8.00146 65.9881 8.02897 65.8188 8.08398C65.6496 8.13477 65.4993 8.20671 65.3682 8.2998C65.2327 8.39714 65.1121 8.51139 65.0063 8.64258C64.9048 8.76953 64.818 8.90918 64.7461 9.06152V12.064C64.8223 12.2163 64.9111 12.3581 65.0127 12.4893C65.1185 12.6162 65.2391 12.7284 65.3745 12.8257C65.5099 12.923 65.6623 12.9992 65.8315 13.0542C66.0008 13.105 66.187 13.1304 66.3901 13.1304C66.5848 13.1304 66.7625 13.1071 66.9233 13.0605C67.0841 13.0098 67.228 12.9378 67.355 12.8447C67.5243 12.7262 67.666 12.576 67.7803 12.394C67.8945 12.2121 67.9855 12.009 68.0532 11.7847C68.1082 11.6154 68.1484 11.4334 68.1738 11.2388C68.1992 11.0441 68.2119 10.8452 68.2119 10.6421V10.5088ZM75.8735 7.00488C76.0894 7.00488 76.3136 7.01969 76.5464 7.04932C76.7834 7.07894 76.9611 7.11914 77.0796 7.16992L76.9209 8.31885C76.6924 8.26807 76.4744 8.2321 76.2671 8.21094C76.064 8.18555 75.8503 8.17285 75.626 8.17285C75.3382 8.17285 75.078 8.20882 74.8452 8.28076C74.6125 8.34847 74.4093 8.45003 74.2358 8.58545C74.0793 8.70394 73.9417 8.84993 73.8232 9.02344C73.709 9.19271 73.6138 9.38314 73.5376 9.59473V14H72.3569V7.13184H73.4741L73.5249 8.05225L73.5312 8.22363C73.8105 7.84701 74.1449 7.55078 74.5342 7.33496C74.9277 7.11491 75.3742 7.00488 75.8735 7.00488ZM83.6938 14C83.6473 13.9111 83.6092 13.8011 83.5796 13.6699C83.5542 13.5345 83.5352 13.3949 83.5225 13.251C83.404 13.3695 83.2707 13.4816 83.1226 13.5874C82.9787 13.6932 82.82 13.7863 82.6465 13.8667C82.4688 13.9471 82.2804 14.0106 82.0815 14.0571C81.8826 14.1037 81.6711 14.127 81.4468 14.127C81.0828 14.127 80.7528 14.0741 80.4565 13.9683C80.1646 13.8625 79.917 13.7186 79.7139 13.5366C79.5065 13.3589 79.3457 13.1473 79.2314 12.9019C79.1214 12.6522 79.0664 12.3835 79.0664 12.0957C79.0664 11.7191 79.1405 11.389 79.2886 11.1055C79.4409 10.8219 79.6546 10.585 79.9297 10.3945C80.2048 10.2083 80.5348 10.0687 80.9199 9.97559C81.3092 9.88249 81.743 9.83594 82.2212 9.83594H83.5034V9.29639C83.5034 9.08903 83.4653 8.90283 83.3892 8.73779C83.313 8.57275 83.2051 8.43099 83.0654 8.3125C82.9258 8.19824 82.7544 8.10938 82.5513 8.0459C82.3524 7.98242 82.1281 7.95068 81.8784 7.95068C81.6457 7.95068 81.4362 7.98031 81.25 8.03955C81.068 8.0988 80.9136 8.17708 80.7866 8.27441C80.6597 8.37174 80.5602 8.48812 80.4883 8.62354C80.4206 8.75472 80.3867 8.89225 80.3867 9.03613H79.2061C79.2103 8.78646 79.2738 8.54102 79.3965 8.2998C79.5234 8.05859 79.7054 7.84066 79.9424 7.646C80.1751 7.45557 80.4587 7.30111 80.793 7.18262C81.1315 7.06413 81.5145 7.00488 81.9419 7.00488C82.3312 7.00488 82.693 7.05355 83.0273 7.15088C83.3617 7.24398 83.6515 7.38574 83.897 7.57617C84.1382 7.77083 84.3286 8.01204 84.4683 8.2998C84.6079 8.58757 84.6777 8.92399 84.6777 9.30908V12.502C84.6777 12.7305 84.6989 12.9738 84.7412 13.2319C84.7835 13.4858 84.8428 13.708 84.9189 13.8984V14H83.6938ZM81.6182 13.105C81.8467 13.105 82.0604 13.0754 82.2593 13.0161C82.4582 12.9569 82.6401 12.8786 82.8052 12.7812C82.966 12.6839 83.1056 12.5739 83.2241 12.4512C83.3426 12.3242 83.4357 12.193 83.5034 12.0576V10.6675H82.4116C82.0054 10.6675 81.6499 10.7035 81.3452 10.7754C81.0448 10.8431 80.8057 10.9489 80.6279 11.0928C80.501 11.1943 80.4036 11.3149 80.3359 11.4546C80.2725 11.5942 80.2407 11.7529 80.2407 11.9307C80.2407 12.0999 80.2682 12.2565 80.3232 12.4004C80.3825 12.5443 80.4692 12.667 80.5835 12.7686C80.6978 12.8743 80.8416 12.9569 81.0151 13.0161C81.1886 13.0754 81.3896 13.105 81.6182 13.105ZM91.4888 7.00488C91.7046 7.00488 91.9289 7.01969 92.1616 7.04932C92.3986 7.07894 92.5763 7.11914 92.6948 7.16992L92.5361 8.31885C92.3076 8.26807 92.0897 8.2321 91.8823 8.21094C91.6792 8.18555 91.4655 8.17285 91.2412 8.17285C90.9535 8.17285 90.6932 8.20882 90.4604 8.28076C90.2277 8.34847 90.0246 8.45003 89.8511 8.58545C89.6945 8.70394 89.557 8.84993 89.4385 9.02344C89.3242 9.19271 89.229 9.38314 89.1528 9.59473V14H87.9722V7.13184H89.0894L89.1401 8.05225L89.1465 8.22363C89.4258 7.84701 89.7601 7.55078 90.1494 7.33496C90.543 7.11491 90.9894 7.00488 91.4888 7.00488ZM95.3481 16.7739C95.2381 16.7739 95.109 16.7612 94.9609 16.7358C94.8128 16.7104 94.7007 16.6893 94.6245 16.6724L94.8149 15.7139C94.9207 15.7223 95.0244 15.7287 95.126 15.7329C95.2318 15.7414 95.3143 15.7456 95.3735 15.7456C95.5343 15.7456 95.6803 15.7012 95.8115 15.6123C95.9469 15.5234 96.0675 15.4176 96.1733 15.2949C96.2749 15.1722 96.3617 15.0452 96.4336 14.9141C96.5098 14.7829 96.569 14.675 96.6113 14.5903L97.0811 13.6763L94.123 7.13184H95.437L97.3223 11.5625L97.627 12.394L97.9507 11.5879L99.7217 7.13184H101.036L97.5508 15.0601C97.4704 15.2378 97.3667 15.4261 97.2397 15.625C97.117 15.8239 96.9668 16.008 96.7891 16.1772C96.6113 16.3465 96.404 16.4883 96.167 16.6025C95.93 16.7168 95.6571 16.7739 95.3481 16.7739Z" fill="#696C80"/>
</svg>
