<svg width="160" height="98" viewBox="0 0 160 98" fill="none" xmlns="http://www.w3.org/2000/svg">
<rect x="0.5" y="34.5" width="159" height="63" rx="4.5" stroke="#9747FF" stroke-dasharray="10 5"/>
<path d="M119 63.4C119 61.1598 119 60.0397 119.436 59.184C119.819 58.4314 120.431 57.8195 121.184 57.436C122.04 57 123.16 57 125.4 57H130.6C132.84 57 133.96 57 134.816 57.436C135.569 57.8195 136.181 58.4314 136.564 59.184C137 60.0397 137 61.1598 137 63.4V68.6C137 70.8402 137 71.9603 136.564 72.816C136.181 73.5686 135.569 74.1805 134.816 74.564C133.96 75 132.84 75 130.6 75H125.4C123.16 75 122.04 75 121.184 74.564C120.431 74.1805 119.819 73.5686 119.436 72.816C119 71.9603 119 70.8402 119 68.6V63.4Z" fill="#BABDCC"/>
<path fill-rule="evenodd" clip-rule="evenodd" d="M124 61C123.448 61 123 61.4477 123 62C123 62.5523 123.448 63 124 63H128C128.552 63 129 62.5523 129 62C129 61.4477 128.552 61 128 61H124ZM125 66C125 65.4477 125.448 65 126 65H130C130.552 65 131 65.4477 131 66C131 66.5523 130.552 67 130 67H126C125.448 67 125 66.5523 125 66ZM127 70C127 69.4477 127.448 69 128 69H132C132.552 69 133 69.4477 133 70C133 70.5523 132.552 71 132 71H128C127.448 71 127 70.5523 127 70Z" fill="#12131A"/>
<path fill-rule="evenodd" clip-rule="evenodd" d="M71.436 59.184C71 60.0397 71 61.1598 71 63.4V68.6C71 70.8402 71 71.9603 71.436 72.816C71.8195 73.5686 72.4314 74.1805 73.184 74.564C74.0397 75 75.1598 75 77.4 75H82.6C84.8402 75 85.9603 75 86.816 74.564C87.5686 74.1805 88.1805 73.5686 88.564 72.816C89 71.9603 89 70.8402 89 68.6V63.4C89 61.1598 89 60.0397 88.564 59.184C88.1805 58.4314 87.5686 57.8195 86.816 57.436C85.9603 57 84.8402 57 82.6 57H77.4C75.1598 57 74.0397 57 73.184 57.436C72.4314 57.8195 71.8195 58.4314 71.436 59.184ZM80 69C79.4477 69 79 69.4477 79 70C79 70.5523 79.4477 71 80 71H84C84.5523 71 85 70.5523 85 70C85 69.4477 84.5523 69 84 69H80ZM77 66C77 65.4477 77.4477 65 78 65H82C82.5523 65 83 65.4477 83 66C83 66.5523 82.5523 67 82 67H78C77.4477 67 77 66.5523 77 66ZM76 61C75.4477 61 75 61.4477 75 62C75 62.5523 75.4477 63 76 63H80C80.5523 63 81 62.5523 81 62C81 61.4477 80.5523 61 80 61H76Z" fill="#12131A"/>
<path fill-rule="evenodd" clip-rule="evenodd" d="M28 61C27.4477 61 27 61.4477 27 62C27 62.5523 27.4477 63 28 63H32C32.5523 63 33 62.5523 33 62C33 61.4477 32.5523 61 32 61H28ZM29 66C29 65.4477 29.4477 65 30 65H34C34.5523 65 35 65.4477 35 66C35 66.5523 34.5523 67 34 67H30C29.4477 67 29 66.5523 29 66ZM31 70C31 69.4477 31.4477 69 32 69H36C36.5523 69 37 69.4477 37 70C37 70.5523 36.5523 71 36 71H32C31.4477 71 31 70.5523 31 70Z" fill="#12131A"/>
<path fill-rule="evenodd" clip-rule="evenodd" d="M30.3572 57H33.6428C34.7266 57 35.6007 57 36.3086 57.0578C37.0375 57.1174 37.6777 57.2432 38.27 57.545C39.2108 58.0243 39.9757 58.7892 40.455 59.73C40.7568 60.3223 40.8826 60.9625 40.9422 61.6914C41 62.3993 41 63.2734 41 64.3572V67.6428C41 68.7266 41 69.6008 40.9422 70.3086C40.8826 71.0375 40.7568 71.6777 40.455 72.27C39.9757 73.2108 39.2108 73.9757 38.27 74.455C37.6777 74.7568 37.0375 74.8826 36.3086 74.9422C35.6008 75 34.7266 75 33.6428 75H30.3572C29.2734 75 28.3993 75 27.6914 74.9422C26.9625 74.8826 26.3223 74.7568 25.73 74.455C24.7892 73.9757 24.0243 73.2108 23.545 72.27C23.2432 71.6777 23.1174 71.0375 23.0578 70.3086C23 69.6007 23 68.7266 23 67.6428V64.3572C23 63.2734 23 62.3993 23.0578 61.6914C23.1174 60.9625 23.2432 60.3223 23.545 59.73C24.0243 58.7892 24.7892 58.0243 25.73 57.545C26.3223 57.2432 26.9625 57.1174 27.6914 57.0578C28.3993 57 29.2734 57 30.3572 57ZM27.8542 59.0512C27.2491 59.1006 26.9014 59.1928 26.638 59.327C26.0735 59.6146 25.6146 60.0735 25.327 60.638C25.1928 60.9014 25.1006 61.2491 25.0512 61.8542C25.0008 62.4711 25 63.2634 25 64.4V67.6C25 68.7366 25.0008 69.5289 25.0512 70.1458C25.1006 70.7509 25.1928 71.0986 25.327 71.362C25.6146 71.9265 26.0735 72.3854 26.638 72.673C26.9014 72.8072 27.2491 72.8994 27.8542 72.9488C28.4711 72.9992 29.2634 73 30.4 73H33.6C34.7366 73 35.5289 72.9992 36.1458 72.9488C36.7509 72.8994 37.0986 72.8072 37.362 72.673C37.9265 72.3854 38.3854 71.9265 38.673 71.362C38.8072 71.0986 38.8994 70.7509 38.9488 70.1458C38.9992 69.5289 39 68.7366 39 67.6V64.4C39 63.2634 38.9992 62.4711 38.9488 61.8542C38.8994 61.2491 38.8072 60.9014 38.673 60.638C38.3854 60.0735 37.9265 59.6146 37.362 59.327C37.0986 59.1928 36.7509 59.1006 36.1458 59.0512C35.5289 59.0008 34.7366 59 33.6 59H30.4C29.2634 59 28.4711 59.0008 27.8542 59.0512Z" fill="#12131A"/>
<path d="M3.37061 14L0.450684 4.75781H1.70752L3.73877 11.6577L3.87207 12.1084L4.01172 11.645L6.05566 4.75781H7.30615L4.39258 14H3.37061ZM9.09619 7.13184H12.6064V12.9844H14.8472V14H9.09619V12.9844H11.4321V8.15381H9.09619V7.13184ZM11.2798 5.3291C11.2798 5.22754 11.2946 5.13232 11.3242 5.04346C11.3581 4.95459 11.4089 4.87842 11.4766 4.81494C11.5316 4.75993 11.6014 4.71761 11.686 4.68799C11.7749 4.65413 11.8743 4.63721 11.9844 4.63721C12.0944 4.63721 12.1917 4.65413 12.2764 4.68799C12.361 4.71761 12.4308 4.75993 12.4858 4.81494C12.5535 4.87419 12.6043 4.94824 12.6382 5.03711C12.672 5.12598 12.689 5.22331 12.689 5.3291C12.689 5.51953 12.6297 5.67822 12.5112 5.80518C12.3927 5.93213 12.2171 5.99561 11.9844 5.99561C11.7474 5.99561 11.5697 5.93213 11.4512 5.80518C11.3369 5.67822 11.2798 5.51953 11.2798 5.3291ZM19.7539 14.127C19.2715 14.127 18.8271 14.0444 18.4209 13.8794C18.0189 13.7144 17.674 13.4837 17.3862 13.1875C17.0985 12.8913 16.8742 12.54 16.7134 12.1338C16.5526 11.7275 16.4722 11.2853 16.4722 10.8071V10.5405C16.4722 9.98617 16.561 9.49105 16.7388 9.05518C16.9165 8.61507 17.1535 8.24268 17.4497 7.93799C17.7417 7.63753 18.0739 7.4069 18.4463 7.24609C18.8229 7.08529 19.208 7.00488 19.6016 7.00488C20.0967 7.00488 20.5283 7.09163 20.8965 7.26514C21.2689 7.43441 21.5778 7.66927 21.8232 7.96973C22.0687 8.27441 22.2507 8.632 22.3691 9.04248C22.4919 9.45296 22.5532 9.8973 22.5532 10.3755V10.9023H17.6465V10.9468C17.6761 11.2811 17.7417 11.5752 17.8433 11.8291C17.9491 12.083 18.0929 12.3073 18.2749 12.502C18.4611 12.7093 18.6854 12.8722 18.9478 12.9907C19.2101 13.1092 19.5 13.1685 19.8174 13.1685C20.2363 13.1685 20.6087 13.0838 20.9346 12.9146C21.2604 12.7453 21.5312 12.521 21.7471 12.2417L22.4644 12.8003C22.2358 13.1473 21.8931 13.4562 21.436 13.7271C20.9832 13.9937 20.4225 14.127 19.7539 14.127ZM19.6016 7.96973C19.3646 7.96973 19.1403 8.01416 18.9287 8.10303C18.7171 8.18766 18.5267 8.3125 18.3574 8.47754C18.1882 8.64681 18.0443 8.85417 17.9258 9.09961C17.8115 9.34082 17.7311 9.62012 17.6846 9.9375H21.3789V9.88037C21.3789 9.66878 21.3387 9.44238 21.2583 9.20117C21.1779 8.95573 21.0658 8.74414 20.9219 8.56641C20.778 8.38867 20.596 8.24479 20.376 8.13477C20.1602 8.02474 19.902 7.96973 19.6016 7.96973ZM25.1875 14L23.7275 7.13184H24.7686L25.5684 11.5117L25.708 12.4956L25.8794 11.5117L26.9775 7.13184H27.7329L28.8247 11.5117L29.0088 12.5908L29.1802 11.5117L29.9419 7.13184H30.9829L29.5229 14H28.5962L27.5234 9.7915L27.3457 8.7251L27.1743 9.7915L26.1143 14H25.1875ZM46.376 5.76074H43.5195V14H42.377V5.76074H39.5205V4.75781H46.376V5.76074ZM48.1343 7.13184H51.6445V12.9844H53.8853V14H48.1343V12.9844H50.4702V8.15381H48.1343V7.13184ZM50.3179 5.3291C50.3179 5.22754 50.3327 5.13232 50.3623 5.04346C50.3962 4.95459 50.4469 4.87842 50.5146 4.81494C50.5697 4.75993 50.6395 4.71761 50.7241 4.68799C50.813 4.65413 50.9124 4.63721 51.0225 4.63721C51.1325 4.63721 51.2298 4.65413 51.3145 4.68799C51.3991 4.71761 51.4689 4.75993 51.5239 4.81494C51.5916 4.87419 51.6424 4.94824 51.6763 5.03711C51.7101 5.12598 51.7271 5.22331 51.7271 5.3291C51.7271 5.51953 51.6678 5.67822 51.5493 5.80518C51.4308 5.93213 51.2552 5.99561 51.0225 5.99561C50.7855 5.99561 50.6077 5.93213 50.4893 5.80518C50.375 5.67822 50.3179 5.51953 50.3179 5.3291ZM56.2974 7.13184L56.3291 7.7793C56.4688 7.53809 56.6507 7.34977 56.875 7.21436C57.1035 7.07894 57.3786 7.00911 57.7002 7.00488C57.8822 7.00488 58.0451 7.02604 58.189 7.06836C58.3371 7.10645 58.4661 7.16357 58.5762 7.23975C58.6566 7.29899 58.7285 7.37093 58.792 7.45557C58.8597 7.5402 58.9168 7.63542 58.9634 7.74121C59.0226 7.64388 59.0924 7.5529 59.1729 7.46826C59.2533 7.38363 59.34 7.30957 59.4331 7.24609C59.5516 7.17415 59.6828 7.11702 59.8267 7.07471C59.9748 7.03239 60.1356 7.00911 60.3091 7.00488C60.5461 7.00488 60.7598 7.04085 60.9502 7.11279C61.1406 7.1805 61.3014 7.28206 61.4326 7.41748C61.5765 7.56982 61.6865 7.76872 61.7627 8.01416C61.8389 8.25537 61.877 8.54102 61.877 8.87109V14H60.7598V8.8584C60.7598 8.71452 60.7428 8.58757 60.709 8.47754C60.6751 8.36751 60.6265 8.27653 60.563 8.20459C60.4953 8.13688 60.4106 8.0861 60.3091 8.05225C60.2118 8.01839 60.0975 8.00146 59.9663 8.00146C59.8267 8.00146 59.7061 8.02051 59.6045 8.05859C59.5029 8.09668 59.4183 8.14746 59.3506 8.21094C59.2829 8.27865 59.23 8.35693 59.1919 8.4458C59.1538 8.53044 59.1284 8.62565 59.1157 8.73145C59.1157 8.7526 59.1157 8.77376 59.1157 8.79492C59.1157 8.81185 59.1157 8.83301 59.1157 8.8584V14H57.9985V8.85205C57.9985 8.70817 57.9816 8.58122 57.9478 8.47119C57.9181 8.36117 57.8695 8.27018 57.8018 8.19824C57.7383 8.13053 57.6579 8.08187 57.5605 8.05225C57.4674 8.01839 57.3574 8.00146 57.2305 8.00146C57.0908 8.00146 56.9681 8.01839 56.8623 8.05225C56.7607 8.08187 56.674 8.1263 56.6021 8.18555C56.547 8.2321 56.4984 8.28499 56.4561 8.34424C56.418 8.40348 56.3862 8.46696 56.3608 8.53467V14H55.2437V7.13184H56.2974ZM66.5996 14.127C66.1172 14.127 65.6729 14.0444 65.2666 13.8794C64.8646 13.7144 64.5197 13.4837 64.2319 13.1875C63.9442 12.8913 63.7199 12.54 63.5591 12.1338C63.3983 11.7275 63.3179 11.2853 63.3179 10.8071V10.5405C63.3179 9.98617 63.4067 9.49105 63.5845 9.05518C63.7622 8.61507 63.9992 8.24268 64.2954 7.93799C64.5874 7.63753 64.9196 7.4069 65.292 7.24609C65.6686 7.08529 66.0537 7.00488 66.4473 7.00488C66.9424 7.00488 67.374 7.09163 67.7422 7.26514C68.1146 7.43441 68.4235 7.66927 68.6689 7.96973C68.9144 8.27441 69.0964 8.632 69.2148 9.04248C69.3376 9.45296 69.3989 9.8973 69.3989 10.3755V10.9023H64.4922V10.9468C64.5218 11.2811 64.5874 11.5752 64.689 11.8291C64.7948 12.083 64.9386 12.3073 65.1206 12.502C65.3068 12.7093 65.5311 12.8722 65.7935 12.9907C66.0558 13.1092 66.3457 13.1685 66.6631 13.1685C67.082 13.1685 67.4544 13.0838 67.7803 12.9146C68.1061 12.7453 68.377 12.521 68.5928 12.2417L69.3101 12.8003C69.0815 13.1473 68.7388 13.4562 68.2817 13.7271C67.8289 13.9937 67.2682 14.127 66.5996 14.127ZM66.4473 7.96973C66.2103 7.96973 65.986 8.01416 65.7744 8.10303C65.5628 8.18766 65.3724 8.3125 65.2031 8.47754C65.0339 8.64681 64.89 8.85417 64.7715 9.09961C64.6572 9.34082 64.5768 9.62012 64.5303 9.9375H68.2246V9.88037C68.2246 9.66878 68.1844 9.44238 68.104 9.20117C68.0236 8.95573 67.9115 8.74414 67.7676 8.56641C67.6237 8.38867 67.4417 8.24479 67.2217 8.13477C67.0059 8.02474 66.7477 7.96973 66.4473 7.96973ZM71.5571 4.25H75.0674V12.9844H77.3081V14H71.5571V12.9844H73.8931V5.27197H71.5571V4.25ZM79.3647 7.13184H82.875V12.9844H85.1157V14H79.3647V12.9844H81.7007V8.15381H79.3647V7.13184ZM81.5483 5.3291C81.5483 5.22754 81.5632 5.13232 81.5928 5.04346C81.6266 4.95459 81.6774 4.87842 81.7451 4.81494C81.8001 4.75993 81.87 4.71761 81.9546 4.68799C82.0435 4.65413 82.1429 4.63721 82.2529 4.63721C82.363 4.63721 82.4603 4.65413 82.5449 4.68799C82.6296 4.71761 82.6994 4.75993 82.7544 4.81494C82.8221 4.87419 82.8729 4.94824 82.9067 5.03711C82.9406 5.12598 82.9575 5.22331 82.9575 5.3291C82.9575 5.51953 82.8983 5.67822 82.7798 5.80518C82.6613 5.93213 82.4857 5.99561 82.2529 5.99561C82.016 5.99561 81.8382 5.93213 81.7197 5.80518C81.6055 5.67822 81.5483 5.51953 81.5483 5.3291ZM86.9883 14V7.13184H88.042L88.1245 8.14746C88.2261 8.00358 88.3361 7.8724 88.4546 7.75391C88.5773 7.63118 88.7064 7.52539 88.8418 7.43652C89.0449 7.30111 89.265 7.19743 89.502 7.12549C89.7432 7.04932 89.9971 7.00911 90.2637 7.00488C90.6234 7.00488 90.9492 7.05566 91.2412 7.15723C91.5374 7.25879 91.7892 7.41748 91.9966 7.6333C92.2039 7.84912 92.3626 8.12419 92.4727 8.4585C92.5869 8.78857 92.644 9.18213 92.644 9.63916V14H91.4697V9.66455C91.4697 9.35986 91.4359 9.10173 91.3682 8.89014C91.3005 8.67855 91.201 8.50716 91.0698 8.37598C90.9344 8.24479 90.7694 8.14958 90.5747 8.09033C90.3843 8.03109 90.1642 8.00146 89.9146 8.00146C89.6987 8.00146 89.4977 8.0332 89.3115 8.09668C89.1253 8.15592 88.9539 8.23844 88.7974 8.34424C88.6704 8.43734 88.5519 8.54525 88.4419 8.66797C88.3361 8.79069 88.243 8.92611 88.1626 9.07422V14H86.9883ZM97.8301 14.127C97.3477 14.127 96.9033 14.0444 96.4971 13.8794C96.0951 13.7144 95.7502 13.4837 95.4624 13.1875C95.1746 12.8913 94.9504 12.54 94.7896 12.1338C94.6287 11.7275 94.5483 11.2853 94.5483 10.8071V10.5405C94.5483 9.98617 94.6372 9.49105 94.8149 9.05518C94.9927 8.61507 95.2297 8.24268 95.5259 7.93799C95.8179 7.63753 96.1501 7.4069 96.5225 7.24609C96.8991 7.08529 97.2842 7.00488 97.6777 7.00488C98.1729 7.00488 98.6045 7.09163 98.9727 7.26514C99.3451 7.43441 99.654 7.66927 99.8994 7.96973C100.145 8.27441 100.327 8.632 100.445 9.04248C100.568 9.45296 100.629 9.8973 100.629 10.3755V10.9023H95.7227V10.9468C95.7523 11.2811 95.8179 11.5752 95.9194 11.8291C96.0252 12.083 96.1691 12.3073 96.3511 12.502C96.5373 12.7093 96.7616 12.8722 97.0239 12.9907C97.2863 13.1092 97.5762 13.1685 97.8936 13.1685C98.3125 13.1685 98.6849 13.0838 99.0107 12.9146C99.3366 12.7453 99.6074 12.521 99.8232 12.2417L100.541 12.8003C100.312 13.1473 99.9692 13.4562 99.5122 13.7271C99.0594 13.9937 98.4987 14.127 97.8301 14.127ZM97.6777 7.96973C97.4408 7.96973 97.2165 8.01416 97.0049 8.10303C96.7933 8.18766 96.6029 8.3125 96.4336 8.47754C96.2643 8.64681 96.1204 8.85417 96.002 9.09961C95.8877 9.34082 95.8073 9.62012 95.7607 9.9375H99.4551V9.88037C99.4551 9.66878 99.4149 9.44238 99.3345 9.20117C99.2541 8.95573 99.1419 8.74414 98.998 8.56641C98.8542 8.38867 98.6722 8.24479 98.4521 8.13477C98.2363 8.02474 97.9782 7.96973 97.6777 7.96973Z" fill="#696C80"/>
</svg>
