<svg width="160" height="98" viewBox="0 0 160 98" fill="none" xmlns="http://www.w3.org/2000/svg">
<rect x="0.5" y="34.5" width="159" height="63" rx="4.5" stroke="#9747FF" stroke-dasharray="10 5"/>
<path d="M119 63.4C119 61.1598 119 60.0397 119.436 59.184C119.819 58.4314 120.431 57.8195 121.184 57.436C122.04 57 123.16 57 125.4 57H130.6C132.84 57 133.96 57 134.816 57.436C135.569 57.8195 136.181 58.4314 136.564 59.184C137 60.0397 137 61.1598 137 63.4V68.6C137 70.8402 137 71.9603 136.564 72.816C136.181 73.5686 135.569 74.1805 134.816 74.564C133.96 75 132.84 75 130.6 75H125.4C123.16 75 122.04 75 121.184 74.564C120.431 74.1805 119.819 73.5686 119.436 72.816C119 71.9603 119 70.8402 119 68.6V63.4Z" fill="#BABDCC"/>
<path fill-rule="evenodd" clip-rule="evenodd" d="M125 62C125 61.4477 124.552 61 124 61C123.448 61 123 61.4477 123 62V68C123 68.5523 123.448 69 124 69C124.552 69 125 68.5523 125 68V62ZM128 61C128.552 61 129 61.4477 129 62V70C129 70.5523 128.552 71 128 71C127.448 71 127 70.5523 127 70V62C127 61.4477 127.448 61 128 61ZM132 61C132.552 61 133 61.4477 133 62V66C133 66.5523 132.552 67 132 67C131.448 67 131 66.5523 131 66V62C131 61.4477 131.448 61 132 61Z" fill="#12131A"/>
<path fill-rule="evenodd" clip-rule="evenodd" d="M71.436 59.184C71 60.0397 71 61.1598 71 63.4V68.6C71 70.8402 71 71.9603 71.436 72.816C71.8195 73.5686 72.4314 74.1805 73.184 74.564C74.0397 75 75.1598 75 77.4 75H82.6C84.8402 75 85.9603 75 86.816 74.564C87.5686 74.1805 88.1805 73.5686 88.564 72.816C89 71.9603 89 70.8402 89 68.6V63.4C89 61.1598 89 60.0397 88.564 59.184C88.1805 58.4314 87.5686 57.8195 86.816 57.436C85.9603 57 84.8402 57 82.6 57H77.4C75.1598 57 74.0397 57 73.184 57.436C72.4314 57.8195 71.8195 58.4314 71.436 59.184ZM85 62C85 61.4477 84.5523 61 84 61C83.4477 61 83 61.4477 83 62V66C83 66.5523 83.4477 67 84 67C84.5523 67 85 66.5523 85 66V62ZM80 61C80.5523 61 81 61.4477 81 62V70C81 70.5523 80.5523 71 80 71C79.4477 71 79 70.5523 79 70V62C79 61.4477 79.4477 61 80 61ZM77 62C77 61.4477 76.5523 61 76 61C75.4477 61 75 61.4477 75 62V68C75 68.5523 75.4477 69 76 69C76.5523 69 77 68.5523 77 68V62Z" fill="#12131A"/>
<path fill-rule="evenodd" clip-rule="evenodd" d="M29 62C29 61.4477 28.5523 61 28 61C27.4477 61 27 61.4477 27 62V68C27 68.5523 27.4477 69 28 69C28.5523 69 29 68.5523 29 68V62ZM32 61C32.5523 61 33 61.4477 33 62V70C33 70.5523 32.5523 71 32 71C31.4477 71 31 70.5523 31 70V62C31 61.4477 31.4477 61 32 61ZM36 61C36.5523 61 37 61.4477 37 62V66C37 66.5523 36.5523 67 36 67C35.4477 67 35 66.5523 35 66V62C35 61.4477 35.4477 61 36 61Z" fill="#12131A"/>
<path fill-rule="evenodd" clip-rule="evenodd" d="M30.3572 57H33.6428C34.7266 57 35.6007 57 36.3086 57.0578C37.0375 57.1174 37.6777 57.2432 38.27 57.545C39.2108 58.0243 39.9757 58.7892 40.455 59.73C40.7568 60.3223 40.8826 60.9625 40.9422 61.6914C41 62.3993 41 63.2734 41 64.3572V67.6428C41 68.7266 41 69.6008 40.9422 70.3086C40.8826 71.0375 40.7568 71.6777 40.455 72.27C39.9757 73.2108 39.2108 73.9757 38.27 74.455C37.6777 74.7568 37.0375 74.8826 36.3086 74.9422C35.6008 75 34.7266 75 33.6428 75H30.3572C29.2734 75 28.3993 75 27.6914 74.9422C26.9625 74.8826 26.3223 74.7568 25.73 74.455C24.7892 73.9757 24.0243 73.2108 23.545 72.27C23.2432 71.6777 23.1174 71.0375 23.0578 70.3086C23 69.6007 23 68.7266 23 67.6428V64.3572C23 63.2734 23 62.3993 23.0578 61.6914C23.1174 60.9625 23.2432 60.3223 23.545 59.73C24.0243 58.7892 24.7892 58.0243 25.73 57.545C26.3223 57.2432 26.9625 57.1174 27.6914 57.0578C28.3993 57 29.2734 57 30.3572 57ZM27.8542 59.0512C27.2491 59.1006 26.9014 59.1928 26.638 59.327C26.0735 59.6146 25.6146 60.0735 25.327 60.638C25.1928 60.9014 25.1006 61.2491 25.0512 61.8542C25.0008 62.4711 25 63.2634 25 64.4V67.6C25 68.7366 25.0008 69.5289 25.0512 70.1458C25.1006 70.7509 25.1928 71.0986 25.327 71.362C25.6146 71.9265 26.0735 72.3854 26.638 72.673C26.9014 72.8072 27.2491 72.8994 27.8542 72.9488C28.4711 72.9992 29.2634 73 30.4 73H33.6C34.7366 73 35.5289 72.9992 36.1458 72.9488C36.7509 72.8994 37.0986 72.8072 37.362 72.673C37.9265 72.3854 38.3854 71.9265 38.673 71.362C38.8072 71.0986 38.8994 70.7509 38.9488 70.1458C38.9992 69.5289 39 68.7366 39 67.6V64.4C39 63.2634 38.9992 62.4711 38.9488 61.8542C38.8994 61.2491 38.8072 60.9014 38.673 60.638C38.3854 60.0735 37.9265 59.6146 37.362 59.327C37.0986 59.1928 36.7509 59.1006 36.1458 59.0512C35.5289 59.0008 34.7366 59 33.6 59H30.4C29.2634 59 28.4711 59.0008 27.8542 59.0512Z" fill="#12131A"/>
<path d="M3.37061 14L0.450684 4.75781H1.70752L3.73877 11.6577L3.87207 12.1084L4.01172 11.645L6.05566 4.75781H7.30615L4.39258 14H3.37061ZM9.09619 7.13184H12.6064V12.9844H14.8472V14H9.09619V12.9844H11.4321V8.15381H9.09619V7.13184ZM11.2798 5.3291C11.2798 5.22754 11.2946 5.13232 11.3242 5.04346C11.3581 4.95459 11.4089 4.87842 11.4766 4.81494C11.5316 4.75993 11.6014 4.71761 11.686 4.68799C11.7749 4.65413 11.8743 4.63721 11.9844 4.63721C12.0944 4.63721 12.1917 4.65413 12.2764 4.68799C12.361 4.71761 12.4308 4.75993 12.4858 4.81494C12.5535 4.87419 12.6043 4.94824 12.6382 5.03711C12.672 5.12598 12.689 5.22331 12.689 5.3291C12.689 5.51953 12.6297 5.67822 12.5112 5.80518C12.3927 5.93213 12.2171 5.99561 11.9844 5.99561C11.7474 5.99561 11.5697 5.93213 11.4512 5.80518C11.3369 5.67822 11.2798 5.51953 11.2798 5.3291ZM19.7539 14.127C19.2715 14.127 18.8271 14.0444 18.4209 13.8794C18.0189 13.7144 17.674 13.4837 17.3862 13.1875C17.0985 12.8913 16.8742 12.54 16.7134 12.1338C16.5526 11.7275 16.4722 11.2853 16.4722 10.8071V10.5405C16.4722 9.98617 16.561 9.49105 16.7388 9.05518C16.9165 8.61507 17.1535 8.24268 17.4497 7.93799C17.7417 7.63753 18.0739 7.4069 18.4463 7.24609C18.8229 7.08529 19.208 7.00488 19.6016 7.00488C20.0967 7.00488 20.5283 7.09163 20.8965 7.26514C21.2689 7.43441 21.5778 7.66927 21.8232 7.96973C22.0687 8.27441 22.2507 8.632 22.3691 9.04248C22.4919 9.45296 22.5532 9.8973 22.5532 10.3755V10.9023H17.6465V10.9468C17.6761 11.2811 17.7417 11.5752 17.8433 11.8291C17.9491 12.083 18.0929 12.3073 18.2749 12.502C18.4611 12.7093 18.6854 12.8722 18.9478 12.9907C19.2101 13.1092 19.5 13.1685 19.8174 13.1685C20.2363 13.1685 20.6087 13.0838 20.9346 12.9146C21.2604 12.7453 21.5312 12.521 21.7471 12.2417L22.4644 12.8003C22.2358 13.1473 21.8931 13.4562 21.436 13.7271C20.9832 13.9937 20.4225 14.127 19.7539 14.127ZM19.6016 7.96973C19.3646 7.96973 19.1403 8.01416 18.9287 8.10303C18.7171 8.18766 18.5267 8.3125 18.3574 8.47754C18.1882 8.64681 18.0443 8.85417 17.9258 9.09961C17.8115 9.34082 17.7311 9.62012 17.6846 9.9375H21.3789V9.88037C21.3789 9.66878 21.3387 9.44238 21.2583 9.20117C21.1779 8.95573 21.0658 8.74414 20.9219 8.56641C20.778 8.38867 20.596 8.24479 20.376 8.13477C20.1602 8.02474 19.902 7.96973 19.6016 7.96973ZM25.1875 14L23.7275 7.13184H24.7686L25.5684 11.5117L25.708 12.4956L25.8794 11.5117L26.9775 7.13184H27.7329L28.8247 11.5117L29.0088 12.5908L29.1802 11.5117L29.9419 7.13184H30.9829L29.5229 14H28.5962L27.5234 9.7915L27.3457 8.7251L27.1743 9.7915L26.1143 14H25.1875ZM40.1299 14V4.75781H42.8784C43.2593 4.76204 43.6317 4.81283 43.9956 4.91016C44.3595 5.00326 44.6833 5.14925 44.9668 5.34814C45.2503 5.54704 45.4767 5.80094 45.646 6.10986C45.8153 6.41878 45.8978 6.78906 45.8936 7.2207C45.8893 7.46191 45.8491 7.68197 45.7729 7.88086C45.701 8.07975 45.6016 8.25749 45.4746 8.41406C45.3434 8.57487 45.1974 8.71029 45.0366 8.82031C44.88 8.93034 44.6896 9.03402 44.4653 9.13135V9.15039C44.6981 9.2054 44.9224 9.30485 45.1382 9.44873C45.354 9.59261 45.5317 9.7513 45.6714 9.9248C45.8195 10.1152 45.9338 10.3289 46.0142 10.5659C46.0988 10.8029 46.1411 11.0589 46.1411 11.334C46.1453 11.7656 46.0628 12.1465 45.8936 12.4766C45.7243 12.8066 45.4979 13.0817 45.2144 13.3018C44.9308 13.526 44.6029 13.6974 44.2305 13.8159C43.8623 13.9344 43.4814 13.9958 43.0879 14H40.1299ZM41.3105 9.67725V13.0034H43.1196C43.3651 12.9992 43.5978 12.959 43.8179 12.8828C44.0379 12.8024 44.2326 12.6924 44.4019 12.5527C44.5711 12.4131 44.7044 12.2417 44.8018 12.0386C44.9033 11.8354 44.9541 11.6048 44.9541 11.3467C44.9583 11.0843 44.9139 10.8516 44.8208 10.6484C44.7319 10.4453 44.6071 10.2718 44.4463 10.1279C44.2855 9.98828 44.0972 9.88037 43.8813 9.8042C43.6655 9.72803 43.4328 9.68571 43.1831 9.67725H41.3105ZM41.3105 8.69971H42.9482C43.1683 8.69548 43.3841 8.66162 43.5957 8.59814C43.8073 8.53044 43.9956 8.43311 44.1606 8.30615C44.3257 8.18343 44.459 8.03109 44.5605 7.84912C44.6621 7.66715 44.7129 7.45557 44.7129 7.21436C44.7129 6.95622 44.6621 6.73617 44.5605 6.5542C44.4632 6.37223 44.332 6.22201 44.167 6.10352C43.9977 5.98926 43.8031 5.90462 43.583 5.84961C43.3672 5.7946 43.145 5.76497 42.9165 5.76074H41.3105V8.69971ZM47.6201 10.5024C47.6201 10.0073 47.6921 9.54818 47.8359 9.125C47.9798 8.69759 48.1872 8.32731 48.458 8.01416C48.7246 7.70101 49.0505 7.45557 49.4355 7.27783C49.8206 7.09587 50.2544 7.00488 50.7368 7.00488C51.2235 7.00488 51.6593 7.09587 52.0444 7.27783C52.4338 7.45557 52.7638 7.70101 53.0347 8.01416C53.3013 8.32731 53.5065 8.69759 53.6504 9.125C53.7943 9.54818 53.8662 10.0073 53.8662 10.5024V10.6421C53.8662 11.1372 53.7943 11.5964 53.6504 12.0195C53.5065 12.4427 53.3013 12.8109 53.0347 13.124C52.7638 13.4372 52.4359 13.6826 52.0508 13.8604C51.6657 14.0381 51.2319 14.127 50.7495 14.127C50.2629 14.127 49.8249 14.0381 49.4355 13.8604C49.0505 13.6826 48.7246 13.4372 48.458 13.124C48.1872 12.8109 47.9798 12.4427 47.8359 12.0195C47.6921 11.5964 47.6201 11.1372 47.6201 10.6421V10.5024ZM48.7944 10.6421C48.7944 10.9806 48.8346 11.3044 48.915 11.6133C48.9954 11.918 49.1182 12.1867 49.2832 12.4194C49.444 12.6522 49.6471 12.8363 49.8926 12.9717C50.138 13.1071 50.4237 13.1748 50.7495 13.1748C51.0711 13.1748 51.3525 13.1071 51.5938 12.9717C51.8392 12.8363 52.0444 12.6522 52.2095 12.4194C52.3703 12.1867 52.4909 11.918 52.5713 11.6133C52.6517 11.3044 52.6919 10.9806 52.6919 10.6421V10.5024C52.6919 10.1681 52.6496 9.84863 52.5649 9.54395C52.4845 9.23503 52.3639 8.96419 52.2031 8.73145C52.0381 8.4987 51.8328 8.31462 51.5874 8.1792C51.3462 8.03955 51.0627 7.96973 50.7368 7.96973C50.411 7.96973 50.1274 8.03955 49.8862 8.1792C49.645 8.31462 49.444 8.4987 49.2832 8.73145C49.1182 8.96419 48.9954 9.23503 48.915 9.54395C48.8346 9.84863 48.7944 10.1681 48.7944 10.5024V10.6421ZM60.271 14C60.2244 13.9111 60.1864 13.8011 60.1567 13.6699C60.1313 13.5345 60.1123 13.3949 60.0996 13.251C59.9811 13.3695 59.8478 13.4816 59.6997 13.5874C59.5558 13.6932 59.3971 13.7863 59.2236 13.8667C59.0459 13.9471 58.8576 14.0106 58.6587 14.0571C58.4598 14.1037 58.2482 14.127 58.0239 14.127C57.66 14.127 57.3299 14.0741 57.0337 13.9683C56.7417 13.8625 56.4941 13.7186 56.291 13.5366C56.0837 13.3589 55.9229 13.1473 55.8086 12.9019C55.6986 12.6522 55.6436 12.3835 55.6436 12.0957C55.6436 11.7191 55.7176 11.389 55.8657 11.1055C56.0181 10.8219 56.2318 10.585 56.5068 10.3945C56.7819 10.2083 57.112 10.0687 57.4971 9.97559C57.8864 9.88249 58.3201 9.83594 58.7983 9.83594H60.0806V9.29639C60.0806 9.08903 60.0425 8.90283 59.9663 8.73779C59.8901 8.57275 59.7822 8.43099 59.6426 8.3125C59.5029 8.19824 59.3315 8.10938 59.1284 8.0459C58.9295 7.98242 58.7052 7.95068 58.4556 7.95068C58.2228 7.95068 58.0133 7.98031 57.8271 8.03955C57.6452 8.0988 57.4907 8.17708 57.3638 8.27441C57.2368 8.37174 57.1374 8.48812 57.0654 8.62354C56.9977 8.75472 56.9639 8.89225 56.9639 9.03613H55.7832C55.7874 8.78646 55.8509 8.54102 55.9736 8.2998C56.1006 8.05859 56.2826 7.84066 56.5195 7.646C56.7523 7.45557 57.0358 7.30111 57.3701 7.18262C57.7087 7.06413 58.0916 7.00488 58.519 7.00488C58.9084 7.00488 59.2702 7.05355 59.6045 7.15088C59.9388 7.24398 60.2287 7.38574 60.4741 7.57617C60.7153 7.77083 60.9058 8.01204 61.0454 8.2998C61.1851 8.58757 61.2549 8.92399 61.2549 9.30908V12.502C61.2549 12.7305 61.276 12.9738 61.3184 13.2319C61.3607 13.4858 61.4199 13.708 61.4961 13.8984V14H60.271ZM58.1953 13.105C58.4238 13.105 58.6375 13.0754 58.8364 13.0161C59.0353 12.9569 59.2173 12.8786 59.3823 12.7812C59.5431 12.6839 59.6828 12.5739 59.8013 12.4512C59.9198 12.3242 60.0129 12.193 60.0806 12.0576V10.6675H58.9888C58.5825 10.6675 58.2271 10.7035 57.9224 10.7754C57.6219 10.8431 57.3828 10.9489 57.2051 11.0928C57.0781 11.1943 56.9808 11.3149 56.9131 11.4546C56.8496 11.5942 56.8179 11.7529 56.8179 11.9307C56.8179 12.0999 56.8454 12.2565 56.9004 12.4004C56.9596 12.5443 57.0464 12.667 57.1606 12.7686C57.2749 12.8743 57.4188 12.9569 57.5923 13.0161C57.7658 13.0754 57.9668 13.105 58.1953 13.105ZM68.0659 7.00488C68.2817 7.00488 68.506 7.01969 68.7388 7.04932C68.9757 7.07894 69.1535 7.11914 69.272 7.16992L69.1133 8.31885C68.8848 8.26807 68.6668 8.2321 68.4595 8.21094C68.2563 8.18555 68.0426 8.17285 67.8184 8.17285C67.5306 8.17285 67.2703 8.20882 67.0376 8.28076C66.8049 8.34847 66.6017 8.45003 66.4282 8.58545C66.2716 8.70394 66.1341 8.84993 66.0156 9.02344C65.9014 9.19271 65.8062 9.38314 65.73 9.59473V14H64.5493V7.13184H65.6665L65.7173 8.05225L65.7236 8.22363C66.0029 7.84701 66.3372 7.55078 66.7266 7.33496C67.1201 7.11491 67.5666 7.00488 68.0659 7.00488ZM71.1509 10.5088C71.1509 9.99674 71.2144 9.52702 71.3413 9.09961C71.4725 8.66797 71.6587 8.29769 71.8999 7.98877C72.1369 7.67985 72.4246 7.43864 72.7632 7.26514C73.1017 7.09163 73.4805 7.00488 73.8994 7.00488C74.3099 7.00488 74.6675 7.07471 74.9722 7.21436C75.2811 7.34977 75.5477 7.54867 75.772 7.81104V4.25H76.9463V14H75.8672L75.8164 13.2764C75.5879 13.5557 75.3149 13.7673 74.9976 13.9111C74.6802 14.055 74.3099 14.127 73.8867 14.127C73.472 14.127 73.0954 14.0381 72.7568 13.8604C72.4225 13.6826 72.1369 13.4372 71.8999 13.124C71.6629 12.8109 71.4788 12.4427 71.3477 12.0195C71.2165 11.5921 71.1509 11.133 71.1509 10.6421V10.5088ZM72.3252 10.6421C72.3252 10.9764 72.3612 11.2938 72.4331 11.5942C72.505 11.8947 72.6172 12.1592 72.7695 12.3877C72.9176 12.6162 73.1081 12.7982 73.3408 12.9336C73.5736 13.0648 73.8529 13.1304 74.1787 13.1304C74.5723 13.1304 74.8981 13.0415 75.1562 12.8638C75.4144 12.686 75.6196 12.4469 75.772 12.1465V8.95996C75.6196 8.68066 75.4144 8.45215 75.1562 8.27441C74.8981 8.09245 74.5765 8.00146 74.1914 8.00146C73.8613 8.00146 73.5778 8.06917 73.3408 8.20459C73.1081 8.34001 72.9176 8.52197 72.7695 8.75049C72.6172 8.98324 72.505 9.25195 72.4331 9.55664C72.3612 9.8571 72.3252 10.1745 72.3252 10.5088V10.6421Z" fill="#696C80"/>
</svg>
