<svg width="160" height="98" viewBox="0 0 160 98" fill="none" xmlns="http://www.w3.org/2000/svg">
<rect x="0.5" y="34.5" width="159" height="63" rx="4.5" stroke="#9747FF" stroke-dasharray="10 5"/>
<path d="M119 63.4C119 61.1598 119 60.0397 119.436 59.184C119.819 58.4314 120.431 57.8195 121.184 57.436C122.04 57 123.16 57 125.4 57H130.6C132.84 57 133.96 57 134.816 57.436C135.569 57.8195 136.181 58.4314 136.564 59.184C137 60.0397 137 61.1598 137 63.4V68.6C137 70.8402 137 71.9603 136.564 72.816C136.181 73.5686 135.569 74.1805 134.816 74.564C133.96 75 132.84 75 130.6 75H125.4C123.16 75 122.04 75 121.184 74.564C120.431 74.1805 119.819 73.5686 119.436 72.816C119 71.9603 119 70.8402 119 68.6V63.4Z" fill="#BABDCC"/>
<path fill-rule="evenodd" clip-rule="evenodd" d="M125 70L125 75H127L127 70H137V68H127V64H137V62H127L127 57H125L125 62H119V64H125V68H119V70H125Z" fill="#12131A"/>
<path fill-rule="evenodd" clip-rule="evenodd" d="M71.436 59.184C71.1749 59.6964 71.0702 60.3036 71.0281 61.1894C71.0152 61.4631 71.0087 61.6 71.0612 61.7121C71.1064 61.8085 71.1865 61.8925 71.2807 61.9422C71.3902 62 71.5323 62 71.8165 62H76.2C76.48 62 76.62 62 76.727 61.9455C76.8211 61.8976 76.8976 61.8211 76.9455 61.727C77 61.62 77 61.48 77 61.2L77 57.8007C77 57.5201 77 57.3798 76.9449 57.2723C76.8966 57.1784 76.8185 57.101 76.7241 57.0536C76.6161 56.9995 76.477 57.0008 76.1988 57.0033C74.7283 57.017 73.871 57.086 73.184 57.436C72.4314 57.8195 71.8195 58.4314 71.436 59.184ZM79.8 57C79.52 57 79.38 57 79.273 57.0545C79.1789 57.1024 79.1024 57.1789 79.0545 57.273C79 57.38 79 57.52 79 57.8L79 61.2C79 61.48 79 61.62 79.0545 61.727C79.1024 61.8211 79.1789 61.8976 79.273 61.9455C79.38 62 79.52 62 79.8 62H88.1835C88.4677 62 88.6098 62 88.7193 61.9422C88.8135 61.8925 88.8936 61.8085 88.9388 61.7121C88.9913 61.6 88.9848 61.4631 88.9718 61.1894C88.9298 60.3036 88.8251 59.6964 88.564 59.184C88.1805 58.4314 87.5686 57.8195 86.816 57.436C85.9603 57 84.8402 57 82.6 57H79.8ZM89 64.8C89 64.52 89 64.38 88.9455 64.273C88.8976 64.1789 88.8211 64.1024 88.727 64.0545C88.62 64 88.48 64 88.2 64H79.8C79.52 64 79.38 64 79.273 64.0545C79.1789 64.1024 79.1024 64.1789 79.0545 64.273C79 64.38 79 64.52 79 64.8V67.2C79 67.48 79 67.62 79.0545 67.727C79.1024 67.8211 79.1789 67.8976 79.273 67.9455C79.38 68 79.52 68 79.8 68H88.2C88.48 68 88.62 68 88.727 67.9455C88.8211 67.8976 88.8976 67.8211 88.9455 67.727C89 67.62 89 67.48 89 67.2V64.8ZM88.9718 70.8106C88.9848 70.5369 88.9913 70.4 88.9388 70.2879C88.8936 70.1915 88.8135 70.1075 88.7193 70.0578C88.6098 70 88.4677 70 88.1835 70H79.8C79.52 70 79.38 70 79.273 70.0545C79.1789 70.1024 79.1024 70.1789 79.0545 70.273C79 70.38 79 70.52 79 70.8L79 74.2C79 74.48 79 74.62 79.0545 74.727C79.1024 74.8211 79.1789 74.8976 79.273 74.9455C79.38 75 79.52 75 79.8 75H82.6C84.8402 75 85.9603 75 86.816 74.564C87.5686 74.1805 88.1805 73.5686 88.564 72.816C88.8251 72.3036 88.9298 71.6964 88.9718 70.8106ZM76.1988 74.9967C76.477 74.9992 76.6161 75.0005 76.7241 74.9464C76.8185 74.899 76.8966 74.8216 76.9449 74.7277C77 74.6202 77 74.4799 77 74.1993L77 70.8C77 70.52 77 70.38 76.9455 70.273C76.8976 70.1789 76.8211 70.1024 76.727 70.0545C76.62 70 76.48 70 76.2 70H71.8165C71.5323 70 71.3902 70 71.2807 70.0578C71.1865 70.1075 71.1064 70.1915 71.0612 70.2879C71.0087 70.4 71.0152 70.5369 71.0281 70.8106C71.0702 71.6964 71.1749 72.3036 71.436 72.816C71.8195 73.5686 72.4314 74.1805 73.184 74.564C73.871 74.914 74.7283 74.983 76.1988 74.9967ZM71 67.2C71 67.48 71 67.62 71.0545 67.727C71.1024 67.8211 71.1789 67.8976 71.273 67.9455C71.38 68 71.52 68 71.8 68H76.2C76.48 68 76.62 68 76.727 67.9455C76.8211 67.8976 76.8976 67.8211 76.9455 67.727C77 67.62 77 67.48 77 67.2V64.8C77 64.52 77 64.38 76.9455 64.273C76.8976 64.1789 76.8211 64.1024 76.727 64.0545C76.62 64 76.48 64 76.2 64H71.8C71.52 64 71.38 64 71.273 64.0545C71.1789 64.1024 71.1024 64.1789 71.0545 64.273C71 64.38 71 64.52 71 64.8V67.2Z" fill="#12131A"/>
<path fill-rule="evenodd" clip-rule="evenodd" d="M29 70V74H31V70H40V68H31L31 64H40V62H31V58H29V62H24V64H29L29 68H24V70H29Z" fill="#12131A"/>
<path fill-rule="evenodd" clip-rule="evenodd" d="M30.3572 57H33.6428C34.7266 57 35.6007 57 36.3086 57.0578C37.0375 57.1174 37.6777 57.2432 38.27 57.545C39.2108 58.0243 39.9757 58.7892 40.455 59.73C40.7568 60.3223 40.8826 60.9625 40.9422 61.6914C41 62.3993 41 63.2734 41 64.3572V67.6428C41 68.7266 41 69.6008 40.9422 70.3086C40.8826 71.0375 40.7568 71.6777 40.455 72.27C39.9757 73.2108 39.2108 73.9757 38.27 74.455C37.6777 74.7568 37.0375 74.8826 36.3086 74.9422C35.6008 75 34.7266 75 33.6428 75H30.3572C29.2734 75 28.3993 75 27.6914 74.9422C26.9625 74.8826 26.3223 74.7568 25.73 74.455C24.7892 73.9757 24.0243 73.2108 23.545 72.27C23.2432 71.6777 23.1174 71.0375 23.0578 70.3086C23 69.6007 23 68.7266 23 67.6428V64.3572C23 63.2734 23 62.3993 23.0578 61.6914C23.1174 60.9625 23.2432 60.3223 23.545 59.73C24.0243 58.7892 24.7892 58.0243 25.73 57.545C26.3223 57.2432 26.9625 57.1174 27.6914 57.0578C28.3993 57 29.2734 57 30.3572 57ZM27.8542 59.0512C27.2491 59.1006 26.9014 59.1928 26.638 59.327C26.0735 59.6146 25.6146 60.0735 25.327 60.638C25.1928 60.9014 25.1006 61.2491 25.0512 61.8542C25.0008 62.4711 25 63.2634 25 64.4V67.6C25 68.7366 25.0008 69.5289 25.0512 70.1458C25.1006 70.7509 25.1928 71.0986 25.327 71.362C25.6146 71.9265 26.0735 72.3854 26.638 72.673C26.9014 72.8072 27.2491 72.8994 27.8542 72.9488C28.4711 72.9992 29.2634 73 30.4 73H33.6C34.7366 73 35.5289 72.9992 36.1458 72.9488C36.7509 72.8994 37.0986 72.8072 37.362 72.673C37.9265 72.3854 38.3854 71.9265 38.673 71.362C38.8072 71.0986 38.8994 70.7509 38.9488 70.1458C38.9992 69.5289 39 68.7366 39 67.6V64.4C39 63.2634 38.9992 62.4711 38.9488 61.8542C38.8994 61.2491 38.8072 60.9014 38.673 60.638C38.3854 60.0735 37.9265 59.6146 37.362 59.327C37.0986 59.1928 36.7509 59.1006 36.1458 59.0512C35.5289 59.0008 34.7366 59 33.6 59H30.4C29.2634 59 28.4711 59.0008 27.8542 59.0512Z" fill="#12131A"/>
<path d="M3.37061 14L0.450684 4.75781H1.70752L3.73877 11.6577L3.87207 12.1084L4.01172 11.645L6.05566 4.75781H7.30615L4.39258 14H3.37061ZM9.09619 7.13184H12.6064V12.9844H14.8472V14H9.09619V12.9844H11.4321V8.15381H9.09619V7.13184ZM11.2798 5.3291C11.2798 5.22754 11.2946 5.13232 11.3242 5.04346C11.3581 4.95459 11.4089 4.87842 11.4766 4.81494C11.5316 4.75993 11.6014 4.71761 11.686 4.68799C11.7749 4.65413 11.8743 4.63721 11.9844 4.63721C12.0944 4.63721 12.1917 4.65413 12.2764 4.68799C12.361 4.71761 12.4308 4.75993 12.4858 4.81494C12.5535 4.87419 12.6043 4.94824 12.6382 5.03711C12.672 5.12598 12.689 5.22331 12.689 5.3291C12.689 5.51953 12.6297 5.67822 12.5112 5.80518C12.3927 5.93213 12.2171 5.99561 11.9844 5.99561C11.7474 5.99561 11.5697 5.93213 11.4512 5.80518C11.3369 5.67822 11.2798 5.51953 11.2798 5.3291ZM19.7539 14.127C19.2715 14.127 18.8271 14.0444 18.4209 13.8794C18.0189 13.7144 17.674 13.4837 17.3862 13.1875C17.0985 12.8913 16.8742 12.54 16.7134 12.1338C16.5526 11.7275 16.4722 11.2853 16.4722 10.8071V10.5405C16.4722 9.98617 16.561 9.49105 16.7388 9.05518C16.9165 8.61507 17.1535 8.24268 17.4497 7.93799C17.7417 7.63753 18.0739 7.4069 18.4463 7.24609C18.8229 7.08529 19.208 7.00488 19.6016 7.00488C20.0967 7.00488 20.5283 7.09163 20.8965 7.26514C21.2689 7.43441 21.5778 7.66927 21.8232 7.96973C22.0687 8.27441 22.2507 8.632 22.3691 9.04248C22.4919 9.45296 22.5532 9.8973 22.5532 10.3755V10.9023H17.6465V10.9468C17.6761 11.2811 17.7417 11.5752 17.8433 11.8291C17.9491 12.083 18.0929 12.3073 18.2749 12.502C18.4611 12.7093 18.6854 12.8722 18.9478 12.9907C19.2101 13.1092 19.5 13.1685 19.8174 13.1685C20.2363 13.1685 20.6087 13.0838 20.9346 12.9146C21.2604 12.7453 21.5312 12.521 21.7471 12.2417L22.4644 12.8003C22.2358 13.1473 21.8931 13.4562 21.436 13.7271C20.9832 13.9937 20.4225 14.127 19.7539 14.127ZM19.6016 7.96973C19.3646 7.96973 19.1403 8.01416 18.9287 8.10303C18.7171 8.18766 18.5267 8.3125 18.3574 8.47754C18.1882 8.64681 18.0443 8.85417 17.9258 9.09961C17.8115 9.34082 17.7311 9.62012 17.6846 9.9375H21.3789V9.88037C21.3789 9.66878 21.3387 9.44238 21.2583 9.20117C21.1779 8.95573 21.0658 8.74414 20.9219 8.56641C20.778 8.38867 20.596 8.24479 20.376 8.13477C20.1602 8.02474 19.902 7.96973 19.6016 7.96973ZM25.1875 14L23.7275 7.13184H24.7686L25.5684 11.5117L25.708 12.4956L25.8794 11.5117L26.9775 7.13184H27.7329L28.8247 11.5117L29.0088 12.5908L29.1802 11.5117L29.9419 7.13184H30.9829L29.5229 14H28.5962L27.5234 9.7915L27.3457 8.7251L27.1743 9.7915L26.1143 14H25.1875ZM46.376 5.76074H43.5195V14H42.377V5.76074H39.5205V4.75781H46.376V5.76074ZM52.4634 14C52.4168 13.9111 52.3787 13.8011 52.3491 13.6699C52.3237 13.5345 52.3047 13.3949 52.292 13.251C52.1735 13.3695 52.0402 13.4816 51.8921 13.5874C51.7482 13.6932 51.5895 13.7863 51.416 13.8667C51.2383 13.9471 51.05 14.0106 50.8511 14.0571C50.6522 14.1037 50.4406 14.127 50.2163 14.127C49.8524 14.127 49.5223 14.0741 49.2261 13.9683C48.9341 13.8625 48.6865 13.7186 48.4834 13.5366C48.276 13.3589 48.1152 13.1473 48.001 12.9019C47.891 12.6522 47.8359 12.3835 47.8359 12.0957C47.8359 11.7191 47.91 11.389 48.0581 11.1055C48.2104 10.8219 48.4242 10.585 48.6992 10.3945C48.9743 10.2083 49.3044 10.0687 49.6895 9.97559C50.0788 9.88249 50.5125 9.83594 50.9907 9.83594H52.2729V9.29639C52.2729 9.08903 52.2349 8.90283 52.1587 8.73779C52.0825 8.57275 51.9746 8.43099 51.835 8.3125C51.6953 8.19824 51.5239 8.10938 51.3208 8.0459C51.1219 7.98242 50.8976 7.95068 50.6479 7.95068C50.4152 7.95068 50.2057 7.98031 50.0195 8.03955C49.8376 8.0988 49.6831 8.17708 49.5562 8.27441C49.4292 8.37174 49.3298 8.48812 49.2578 8.62354C49.1901 8.75472 49.1562 8.89225 49.1562 9.03613H47.9756C47.9798 8.78646 48.0433 8.54102 48.166 8.2998C48.293 8.05859 48.4749 7.84066 48.7119 7.646C48.9447 7.45557 49.2282 7.30111 49.5625 7.18262C49.901 7.06413 50.284 7.00488 50.7114 7.00488C51.1007 7.00488 51.4626 7.05355 51.7969 7.15088C52.1312 7.24398 52.4211 7.38574 52.6665 7.57617C52.9077 7.77083 53.0981 8.01204 53.2378 8.2998C53.3774 8.58757 53.4473 8.92399 53.4473 9.30908V12.502C53.4473 12.7305 53.4684 12.9738 53.5107 13.2319C53.5531 13.4858 53.6123 13.708 53.6885 13.8984V14H52.4634ZM50.3877 13.105C50.6162 13.105 50.8299 13.0754 51.0288 13.0161C51.2277 12.9569 51.4097 12.8786 51.5747 12.7812C51.7355 12.6839 51.8752 12.5739 51.9937 12.4512C52.1121 12.3242 52.2052 12.193 52.2729 12.0576V10.6675H51.1812C50.7749 10.6675 50.4194 10.7035 50.1147 10.7754C49.8143 10.8431 49.5752 10.9489 49.3975 11.0928C49.2705 11.1943 49.1732 11.3149 49.1055 11.4546C49.042 11.5942 49.0103 11.7529 49.0103 11.9307C49.0103 12.0999 49.0378 12.2565 49.0928 12.4004C49.152 12.5443 49.2388 12.667 49.353 12.7686C49.4673 12.8743 49.6112 12.9569 49.7847 13.0161C49.9582 13.0754 50.1592 13.105 50.3877 13.105ZM61.5786 10.6421C61.5786 10.9425 61.5553 11.2324 61.5088 11.5117C61.4665 11.7868 61.403 12.0449 61.3184 12.2861C61.2041 12.6035 61.0539 12.8892 60.8677 13.1431C60.6857 13.3927 60.4657 13.6001 60.2075 13.7651C60.0213 13.8794 59.8161 13.9683 59.5918 14.0317C59.3717 14.0952 59.1326 14.127 58.8745 14.127C58.5783 14.127 58.3075 14.091 58.062 14.019C57.8208 13.9471 57.6029 13.8434 57.4082 13.708C57.3151 13.6403 57.2262 13.5662 57.1416 13.4858C57.057 13.4054 56.9766 13.3166 56.9004 13.2192L56.8433 14H55.7642V4.25H56.9385V7.86816C57.0358 7.74544 57.1437 7.63542 57.2622 7.53809C57.3807 7.43652 57.5076 7.34977 57.6431 7.27783C57.8123 7.18896 57.9985 7.12126 58.2017 7.07471C58.4048 7.02816 58.6248 7.00488 58.8618 7.00488C59.158 7.00488 59.431 7.04508 59.6807 7.12549C59.9303 7.20589 60.1567 7.31803 60.3599 7.46191C60.5418 7.59733 60.7048 7.76237 60.8486 7.95703C60.9925 8.14746 61.1195 8.36117 61.2295 8.59814C61.3438 8.86475 61.4305 9.16097 61.4897 9.48682C61.549 9.80843 61.5786 10.1491 61.5786 10.5088V10.6421ZM60.4043 10.5088C60.4043 10.293 60.3895 10.0835 60.3599 9.88037C60.3345 9.67301 60.2943 9.47835 60.2393 9.29639C60.1631 9.0721 60.0636 8.86686 59.9409 8.68066C59.8182 8.49447 59.668 8.34847 59.4902 8.24268C59.3675 8.1665 59.23 8.10726 59.0776 8.06494C58.9253 8.02262 58.756 8.00146 58.5698 8.00146C58.3667 8.00146 58.1805 8.02897 58.0112 8.08398C57.842 8.13477 57.6917 8.20671 57.5605 8.2998C57.4251 8.39714 57.3045 8.51139 57.1987 8.64258C57.0972 8.76953 57.0104 8.90918 56.9385 9.06152V12.064C57.0146 12.2163 57.1035 12.3581 57.2051 12.4893C57.3109 12.6162 57.4315 12.7284 57.5669 12.8257C57.7023 12.923 57.8547 12.9992 58.0239 13.0542C58.1932 13.105 58.3794 13.1304 58.5825 13.1304C58.7772 13.1304 58.9549 13.1071 59.1157 13.0605C59.2765 13.0098 59.4204 12.9378 59.5474 12.8447C59.7166 12.7262 59.8584 12.576 59.9727 12.394C60.0869 12.2121 60.1779 12.009 60.2456 11.7847C60.3006 11.6154 60.3408 11.4334 60.3662 11.2388C60.3916 11.0441 60.4043 10.8452 60.4043 10.6421V10.5088ZM63.7495 4.25H67.2598V12.9844H69.5005V14H63.7495V12.9844H66.0854V5.27197H63.7495V4.25ZM74.4072 14.127C73.9248 14.127 73.4805 14.0444 73.0742 13.8794C72.6722 13.7144 72.3273 13.4837 72.0396 13.1875C71.7518 12.8913 71.5275 12.54 71.3667 12.1338C71.2059 11.7275 71.1255 11.2853 71.1255 10.8071V10.5405C71.1255 9.98617 71.2144 9.49105 71.3921 9.05518C71.5698 8.61507 71.8068 8.24268 72.103 7.93799C72.395 7.63753 72.7272 7.4069 73.0996 7.24609C73.4762 7.08529 73.8613 7.00488 74.2549 7.00488C74.75 7.00488 75.1816 7.09163 75.5498 7.26514C75.9222 7.43441 76.2311 7.66927 76.4766 7.96973C76.722 8.27441 76.904 8.632 77.0225 9.04248C77.1452 9.45296 77.2065 9.8973 77.2065 10.3755V10.9023H72.2998V10.9468C72.3294 11.2811 72.395 11.5752 72.4966 11.8291C72.6024 12.083 72.7463 12.3073 72.9282 12.502C73.1144 12.7093 73.3387 12.8722 73.6011 12.9907C73.8634 13.1092 74.1533 13.1685 74.4707 13.1685C74.8896 13.1685 75.262 13.0838 75.5879 12.9146C75.9137 12.7453 76.1846 12.521 76.4004 12.2417L77.1177 12.8003C76.8892 13.1473 76.5464 13.4562 76.0894 13.7271C75.6366 13.9937 75.0758 14.127 74.4072 14.127ZM74.2549 7.96973C74.0179 7.96973 73.7936 8.01416 73.582 8.10303C73.3704 8.18766 73.18 8.3125 73.0107 8.47754C72.8415 8.64681 72.6976 8.85417 72.5791 9.09961C72.4648 9.34082 72.3844 9.62012 72.3379 9.9375H76.0322V9.88037C76.0322 9.66878 75.992 9.44238 75.9116 9.20117C75.8312 8.95573 75.7191 8.74414 75.5752 8.56641C75.4313 8.38867 75.2493 8.24479 75.0293 8.13477C74.8135 8.02474 74.5553 7.96973 74.2549 7.96973Z" fill="#696C80"/>
</svg>
