<svg width="160" height="98" viewBox="0 0 160 98" fill="none" xmlns="http://www.w3.org/2000/svg">
<rect x="0.5" y="34.5" width="159" height="63" rx="4.5" stroke="#9747FF" stroke-dasharray="10 5"/>
<path d="M119 63.4C119 61.1598 119 60.0397 119.436 59.184C119.819 58.4314 120.431 57.8195 121.184 57.436C122.04 57 123.16 57 125.4 57H130.6C132.84 57 133.96 57 134.816 57.436C135.569 57.8195 136.181 58.4314 136.564 59.184C137 60.0397 137 61.1598 137 63.4V68.6C137 70.8402 137 71.9603 136.564 72.816C136.181 73.5686 135.569 74.1805 134.816 74.564C133.96 75 132.84 75 130.6 75H125.4C123.16 75 122.04 75 121.184 74.564C120.431 74.1805 119.819 73.5686 119.436 72.816C119 71.9603 119 70.8402 119 68.6V63.4Z" fill="#BABDCC"/>
<path fill-rule="evenodd" clip-rule="evenodd" d="M124 57V75H126L126 57H124ZM130 57L130 75H132V57H130Z" fill="#12131A"/>
<path fill-rule="evenodd" clip-rule="evenodd" d="M71 63.4C71 61.1598 71 60.0397 71.436 59.184C71.8195 58.4314 72.4314 57.8195 73.184 57.436C73.6964 57.1749 74.3036 57.0702 75.1894 57.0281C75.4631 57.0152 75.6 57.0087 75.7121 57.0612C75.8085 57.1064 75.8925 57.1865 75.9422 57.2807C76 57.3902 76 57.5323 76 57.8165L76 74.1835C76 74.4677 76 74.6098 75.9422 74.7193C75.8925 74.8135 75.8085 74.8936 75.7121 74.9388C75.6 74.9913 75.4631 74.9848 75.1894 74.9718C74.3036 74.9298 73.6964 74.8251 73.184 74.564C72.4314 74.1805 71.8195 73.5686 71.436 72.816C71 71.9603 71 70.8402 71 68.6V63.4ZM78 74.2C78 74.48 78 74.62 78.0545 74.727C78.1024 74.8211 78.1789 74.8976 78.273 74.9455C78.38 75 78.52 75 78.8 75H81.2C81.48 75 81.62 75 81.727 74.9455C81.8211 74.8976 81.8976 74.8211 81.9455 74.727C82 74.62 82 74.48 82 74.2L82 57.8C82 57.52 82 57.38 81.9455 57.273C81.8976 57.1789 81.8211 57.1024 81.727 57.0545C81.62 57 81.48 57 81.2 57H78.8C78.52 57 78.38 57 78.273 57.0545C78.1789 57.1024 78.1024 57.1789 78.0545 57.273C78 57.38 78 57.52 78 57.8L78 74.2ZM84.8106 74.9718C84.5369 74.9848 84.4 74.9913 84.2879 74.9388C84.1914 74.8936 84.1075 74.8135 84.0578 74.7193C84 74.6098 84 74.4677 84 74.1835L84 57.8165C84 57.5323 84 57.3902 84.0578 57.2807C84.1075 57.1865 84.1915 57.1064 84.2879 57.0612C84.4 57.0087 84.5369 57.0152 84.8106 57.0281C85.6964 57.0702 86.3036 57.1749 86.816 57.436C87.5686 57.8195 88.1805 58.4314 88.564 59.184C89 60.0397 89 61.1598 89 63.4V68.6C89 70.8402 89 71.9603 88.564 72.816C88.1805 73.5686 87.5686 74.1805 86.816 74.564C86.3036 74.8251 85.6964 74.9298 84.8106 74.9718Z" fill="#12131A"/>
<path fill-rule="evenodd" clip-rule="evenodd" d="M28 58V74H30L30 58H28ZM34 58L34 74H36V58H34Z" fill="#12131A"/>
<path fill-rule="evenodd" clip-rule="evenodd" d="M30.3572 57H33.6428C34.7266 57 35.6007 57 36.3086 57.0578C37.0375 57.1174 37.6777 57.2432 38.27 57.545C39.2108 58.0243 39.9757 58.7892 40.455 59.73C40.7568 60.3223 40.8826 60.9625 40.9422 61.6914C41 62.3993 41 63.2734 41 64.3572V67.6428C41 68.7266 41 69.6008 40.9422 70.3086C40.8826 71.0375 40.7568 71.6777 40.455 72.27C39.9757 73.2108 39.2108 73.9757 38.27 74.455C37.6777 74.7568 37.0375 74.8826 36.3086 74.9422C35.6008 75 34.7266 75 33.6428 75H30.3572C29.2734 75 28.3993 75 27.6914 74.9422C26.9625 74.8826 26.3223 74.7568 25.73 74.455C24.7892 73.9757 24.0243 73.2108 23.545 72.27C23.2432 71.6777 23.1174 71.0375 23.0578 70.3086C23 69.6007 23 68.7266 23 67.6428V64.3572C23 63.2734 23 62.3993 23.0578 61.6914C23.1174 60.9625 23.2432 60.3223 23.545 59.73C24.0243 58.7892 24.7892 58.0243 25.73 57.545C26.3223 57.2432 26.9625 57.1174 27.6914 57.0578C28.3993 57 29.2734 57 30.3572 57ZM27.8542 59.0512C27.2491 59.1006 26.9014 59.1928 26.638 59.327C26.0735 59.6146 25.6146 60.0735 25.327 60.638C25.1928 60.9014 25.1006 61.2491 25.0512 61.8542C25.0008 62.4711 25 63.2634 25 64.4V67.6C25 68.7366 25.0008 69.5289 25.0512 70.1458C25.1006 70.7509 25.1928 71.0986 25.327 71.362C25.6146 71.9265 26.0735 72.3854 26.638 72.673C26.9014 72.8072 27.2491 72.8994 27.8542 72.9488C28.4711 72.9992 29.2634 73 30.4 73H33.6C34.7366 73 35.5289 72.9992 36.1458 72.9488C36.7509 72.8994 37.0986 72.8072 37.362 72.673C37.9265 72.3854 38.3854 71.9265 38.673 71.362C38.8072 71.0986 38.8994 70.7509 38.9488 70.1458C38.9992 69.5289 39 68.7366 39 67.6V64.4C39 63.2634 38.9992 62.4711 38.9488 61.8542C38.8994 61.2491 38.8072 60.9014 38.673 60.638C38.3854 60.0735 37.9265 59.6146 37.362 59.327C37.0986 59.1928 36.7509 59.1006 36.1458 59.0512C35.5289 59.0008 34.7366 59 33.6 59H30.4C29.2634 59 28.4711 59.0008 27.8542 59.0512Z" fill="#12131A"/>
<path d="M3.37061 14L0.450684 4.75781H1.70752L3.73877 11.6577L3.87207 12.1084L4.01172 11.645L6.05566 4.75781H7.30615L4.39258 14H3.37061ZM9.09619 7.13184H12.6064V12.9844H14.8472V14H9.09619V12.9844H11.4321V8.15381H9.09619V7.13184ZM11.2798 5.3291C11.2798 5.22754 11.2946 5.13232 11.3242 5.04346C11.3581 4.95459 11.4089 4.87842 11.4766 4.81494C11.5316 4.75993 11.6014 4.71761 11.686 4.68799C11.7749 4.65413 11.8743 4.63721 11.9844 4.63721C12.0944 4.63721 12.1917 4.65413 12.2764 4.68799C12.361 4.71761 12.4308 4.75993 12.4858 4.81494C12.5535 4.87419 12.6043 4.94824 12.6382 5.03711C12.672 5.12598 12.689 5.22331 12.689 5.3291C12.689 5.51953 12.6297 5.67822 12.5112 5.80518C12.3927 5.93213 12.2171 5.99561 11.9844 5.99561C11.7474 5.99561 11.5697 5.93213 11.4512 5.80518C11.3369 5.67822 11.2798 5.51953 11.2798 5.3291ZM19.7539 14.127C19.2715 14.127 18.8271 14.0444 18.4209 13.8794C18.0189 13.7144 17.674 13.4837 17.3862 13.1875C17.0985 12.8913 16.8742 12.54 16.7134 12.1338C16.5526 11.7275 16.4722 11.2853 16.4722 10.8071V10.5405C16.4722 9.98617 16.561 9.49105 16.7388 9.05518C16.9165 8.61507 17.1535 8.24268 17.4497 7.93799C17.7417 7.63753 18.0739 7.4069 18.4463 7.24609C18.8229 7.08529 19.208 7.00488 19.6016 7.00488C20.0967 7.00488 20.5283 7.09163 20.8965 7.26514C21.2689 7.43441 21.5778 7.66927 21.8232 7.96973C22.0687 8.27441 22.2507 8.632 22.3691 9.04248C22.4919 9.45296 22.5532 9.8973 22.5532 10.3755V10.9023H17.6465V10.9468C17.6761 11.2811 17.7417 11.5752 17.8433 11.8291C17.9491 12.083 18.0929 12.3073 18.2749 12.502C18.4611 12.7093 18.6854 12.8722 18.9478 12.9907C19.2101 13.1092 19.5 13.1685 19.8174 13.1685C20.2363 13.1685 20.6087 13.0838 20.9346 12.9146C21.2604 12.7453 21.5312 12.521 21.7471 12.2417L22.4644 12.8003C22.2358 13.1473 21.8931 13.4562 21.436 13.7271C20.9832 13.9937 20.4225 14.127 19.7539 14.127ZM19.6016 7.96973C19.3646 7.96973 19.1403 8.01416 18.9287 8.10303C18.7171 8.18766 18.5267 8.3125 18.3574 8.47754C18.1882 8.64681 18.0443 8.85417 17.9258 9.09961C17.8115 9.34082 17.7311 9.62012 17.6846 9.9375H21.3789V9.88037C21.3789 9.66878 21.3387 9.44238 21.2583 9.20117C21.1779 8.95573 21.0658 8.74414 20.9219 8.56641C20.778 8.38867 20.596 8.24479 20.376 8.13477C20.1602 8.02474 19.902 7.96973 19.6016 7.96973ZM25.1875 14L23.7275 7.13184H24.7686L25.5684 11.5117L25.708 12.4956L25.8794 11.5117L26.9775 7.13184H27.7329L28.8247 11.5117L29.0088 12.5908L29.1802 11.5117L29.9419 7.13184H30.9829L29.5229 14H28.5962L27.5234 9.7915L27.3457 8.7251L27.1743 9.7915L26.1143 14H25.1875ZM46.1284 11.2197C46.0734 11.6471 45.9634 12.0407 45.7983 12.4004C45.6333 12.7559 45.4196 13.0605 45.1572 13.3145C44.8906 13.5726 44.5754 13.7736 44.2114 13.9175C43.8517 14.0571 43.4497 14.127 43.0054 14.127C42.6245 14.127 42.2775 14.0741 41.9644 13.9683C41.6554 13.8582 41.3804 13.708 41.1392 13.5176C40.8937 13.3271 40.6821 13.1029 40.5044 12.8447C40.3309 12.5866 40.187 12.3052 40.0728 12.0005C39.9543 11.6958 39.8654 11.3763 39.8062 11.042C39.7511 10.7077 39.7215 10.3691 39.7173 10.0264V8.73779C39.7215 8.39502 39.7511 8.05648 39.8062 7.72217C39.8654 7.38786 39.9543 7.06836 40.0728 6.76367C40.187 6.45898 40.3309 6.17757 40.5044 5.91943C40.6821 5.65706 40.8937 5.43066 41.1392 5.24023C41.3804 5.0498 41.6554 4.90169 41.9644 4.7959C42.2733 4.68587 42.6203 4.63086 43.0054 4.63086C43.4666 4.63086 43.8792 4.7028 44.2432 4.84668C44.6071 4.98633 44.9202 5.18522 45.1826 5.44336C45.445 5.70573 45.6545 6.01888 45.811 6.38281C45.9718 6.74674 46.0776 7.14876 46.1284 7.58887H44.9541C44.916 7.30957 44.8504 7.04932 44.7573 6.80811C44.6642 6.56689 44.5394 6.35531 44.3828 6.17334C44.2262 5.99137 44.0337 5.84961 43.8052 5.74805C43.5809 5.64225 43.3143 5.58936 43.0054 5.58936C42.7261 5.58936 42.4785 5.6359 42.2627 5.729C42.0511 5.81787 41.8691 5.94059 41.7168 6.09717C41.5602 6.25374 41.429 6.43571 41.3232 6.64307C41.2217 6.85042 41.1392 7.07048 41.0757 7.30322C41.0122 7.53597 40.9657 7.77507 40.936 8.02051C40.9106 8.26172 40.8979 8.49658 40.8979 8.7251V10.0264C40.8979 10.2549 40.9106 10.4919 40.936 10.7373C40.9657 10.9785 41.0122 11.2155 41.0757 11.4482C41.1392 11.6852 41.2217 11.9074 41.3232 12.1147C41.4248 12.3221 41.5539 12.5041 41.7104 12.6606C41.867 12.8215 42.0511 12.9484 42.2627 13.0415C42.4743 13.1304 42.7218 13.1748 43.0054 13.1748C43.3143 13.1748 43.5809 13.1261 43.8052 13.0288C44.0337 12.9315 44.2262 12.7939 44.3828 12.6162C44.5394 12.4427 44.6642 12.2375 44.7573 12.0005C44.8504 11.7593 44.916 11.499 44.9541 11.2197H46.1284ZM47.6201 10.5024C47.6201 10.0073 47.6921 9.54818 47.8359 9.125C47.9798 8.69759 48.1872 8.32731 48.458 8.01416C48.7246 7.70101 49.0505 7.45557 49.4355 7.27783C49.8206 7.09587 50.2544 7.00488 50.7368 7.00488C51.2235 7.00488 51.6593 7.09587 52.0444 7.27783C52.4338 7.45557 52.7638 7.70101 53.0347 8.01416C53.3013 8.32731 53.5065 8.69759 53.6504 9.125C53.7943 9.54818 53.8662 10.0073 53.8662 10.5024V10.6421C53.8662 11.1372 53.7943 11.5964 53.6504 12.0195C53.5065 12.4427 53.3013 12.8109 53.0347 13.124C52.7638 13.4372 52.4359 13.6826 52.0508 13.8604C51.6657 14.0381 51.2319 14.127 50.7495 14.127C50.2629 14.127 49.8249 14.0381 49.4355 13.8604C49.0505 13.6826 48.7246 13.4372 48.458 13.124C48.1872 12.8109 47.9798 12.4427 47.8359 12.0195C47.6921 11.5964 47.6201 11.1372 47.6201 10.6421V10.5024ZM48.7944 10.6421C48.7944 10.9806 48.8346 11.3044 48.915 11.6133C48.9954 11.918 49.1182 12.1867 49.2832 12.4194C49.444 12.6522 49.6471 12.8363 49.8926 12.9717C50.138 13.1071 50.4237 13.1748 50.7495 13.1748C51.0711 13.1748 51.3525 13.1071 51.5938 12.9717C51.8392 12.8363 52.0444 12.6522 52.2095 12.4194C52.3703 12.1867 52.4909 11.918 52.5713 11.6133C52.6517 11.3044 52.6919 10.9806 52.6919 10.6421V10.5024C52.6919 10.1681 52.6496 9.84863 52.5649 9.54395C52.4845 9.23503 52.3639 8.96419 52.2031 8.73145C52.0381 8.4987 51.8328 8.31462 51.5874 8.1792C51.3462 8.03955 51.0627 7.96973 50.7368 7.96973C50.411 7.96973 50.1274 8.03955 49.8862 8.1792C49.645 8.31462 49.444 8.4987 49.2832 8.73145C49.1182 8.96419 48.9954 9.23503 48.915 9.54395C48.8346 9.84863 48.7944 10.1681 48.7944 10.5024V10.6421ZM55.9419 4.25H59.4521V12.9844H61.6929V14H55.9419V12.9844H58.2778V5.27197H55.9419V4.25ZM68.0913 14L68.0215 13.0542C67.793 13.3927 67.5073 13.6572 67.1646 13.8477C66.8218 14.0339 66.4261 14.127 65.9775 14.127C65.6178 14.127 65.292 14.0719 65 13.9619C64.708 13.8477 64.4583 13.672 64.251 13.4351C64.0436 13.1981 63.8828 12.8976 63.7686 12.5337C63.6585 12.1655 63.6035 11.7254 63.6035 11.2134V7.13184H64.7778V11.2261C64.7778 11.5985 64.8075 11.9074 64.8667 12.1528C64.9259 12.3983 65.0148 12.5929 65.1333 12.7368C65.2518 12.8849 65.3957 12.9886 65.5649 13.0479C65.7384 13.1071 65.9373 13.1367 66.1616 13.1367C66.424 13.1367 66.6589 13.1071 66.8662 13.0479C67.0736 12.9844 67.2534 12.8976 67.4058 12.7876C67.5327 12.6987 67.6427 12.5929 67.7358 12.4702C67.8332 12.3433 67.9136 12.2057 67.9771 12.0576V7.13184H69.1577V14H68.0913ZM71.9126 7.13184L71.9443 7.7793C72.084 7.53809 72.266 7.34977 72.4902 7.21436C72.7188 7.07894 72.9938 7.00911 73.3154 7.00488C73.4974 7.00488 73.6603 7.02604 73.8042 7.06836C73.9523 7.10645 74.0814 7.16357 74.1914 7.23975C74.2718 7.29899 74.3438 7.37093 74.4072 7.45557C74.4749 7.5402 74.5321 7.63542 74.5786 7.74121C74.6379 7.64388 74.7077 7.5529 74.7881 7.46826C74.8685 7.38363 74.9552 7.30957 75.0483 7.24609C75.1668 7.17415 75.298 7.11702 75.4419 7.07471C75.59 7.03239 75.7508 7.00911 75.9243 7.00488C76.1613 7.00488 76.375 7.04085 76.5654 7.11279C76.7559 7.1805 76.9167 7.28206 77.0479 7.41748C77.1917 7.56982 77.3018 7.76872 77.3779 8.01416C77.4541 8.25537 77.4922 8.54102 77.4922 8.87109V14H76.375V8.8584C76.375 8.71452 76.3581 8.58757 76.3242 8.47754C76.2904 8.36751 76.2417 8.27653 76.1782 8.20459C76.1105 8.13688 76.0259 8.0861 75.9243 8.05225C75.827 8.01839 75.7127 8.00146 75.5815 8.00146C75.4419 8.00146 75.3213 8.02051 75.2197 8.05859C75.1182 8.09668 75.0335 8.14746 74.9658 8.21094C74.8981 8.27865 74.8452 8.35693 74.8071 8.4458C74.769 8.53044 74.7437 8.62565 74.731 8.73145C74.731 8.7526 74.731 8.77376 74.731 8.79492C74.731 8.81185 74.731 8.83301 74.731 8.8584V14H73.6138V8.85205C73.6138 8.70817 73.5968 8.58122 73.563 8.47119C73.5334 8.36117 73.4847 8.27018 73.417 8.19824C73.3535 8.13053 73.2731 8.08187 73.1758 8.05225C73.0827 8.01839 72.9727 8.00146 72.8457 8.00146C72.7061 8.00146 72.5833 8.01839 72.4775 8.05225C72.376 8.08187 72.2892 8.1263 72.2173 8.18555C72.1623 8.2321 72.1136 8.28499 72.0713 8.34424C72.0332 8.40348 72.0015 8.46696 71.9761 8.53467V14H70.8589V7.13184H71.9126ZM79.1807 14V7.13184H80.2344L80.3169 8.14746C80.4185 8.00358 80.5285 7.8724 80.647 7.75391C80.7697 7.63118 80.8988 7.52539 81.0342 7.43652C81.2373 7.30111 81.4574 7.19743 81.6943 7.12549C81.9355 7.04932 82.1895 7.00911 82.4561 7.00488C82.8158 7.00488 83.1416 7.05566 83.4336 7.15723C83.7298 7.25879 83.9816 7.41748 84.189 7.6333C84.3963 7.84912 84.555 8.12419 84.665 8.4585C84.7793 8.78857 84.8364 9.18213 84.8364 9.63916V14H83.6621V9.66455C83.6621 9.35986 83.6283 9.10173 83.5605 8.89014C83.4928 8.67855 83.3934 8.50716 83.2622 8.37598C83.1268 8.24479 82.9618 8.14958 82.7671 8.09033C82.5767 8.03109 82.3566 8.00146 82.1069 8.00146C81.8911 8.00146 81.6901 8.0332 81.5039 8.09668C81.3177 8.15592 81.1463 8.23844 80.9897 8.34424C80.8628 8.43734 80.7443 8.54525 80.6343 8.66797C80.5285 8.79069 80.4354 8.92611 80.355 9.07422V14H79.1807Z" fill="#696C80"/>
</svg>
