<svg width="160" height="98" viewBox="0 0 160 98" fill="none" xmlns="http://www.w3.org/2000/svg">
<rect x="0.5" y="34.5" width="159" height="63" rx="4.5" stroke="#9747FF" stroke-dasharray="10 5"/>
<path fill-rule="evenodd" clip-rule="evenodd" d="M129 56H127V60.083C126.088 60.2359 125.246 60.5945 124.523 61.1094L121.636 58.2222L120.222 59.6364L123.109 62.5237C122.594 63.2466 122.236 64.0884 122.083 65H118V67H122.083C122.236 67.9116 122.594 68.7534 123.109 69.4763L120.222 72.3637L121.636 73.7779L124.523 70.8906C125.246 71.4055 126.088 71.7641 127 71.917V76H129V71.917C129.912 71.7641 130.754 71.4056 131.476 70.8908L134.364 73.7785L135.778 72.3643L132.891 69.4766C133.406 68.7537 133.764 67.9117 133.917 67H138V65H133.917C133.764 64.0883 133.405 63.2462 132.891 62.5233L135.778 59.6359L134.364 58.2217L131.476 61.1091C130.753 60.5944 129.912 60.2359 129 60.083V56Z" fill="#BABDCC"/>
<path fill-rule="evenodd" clip-rule="evenodd" d="M135.778 61.0504C136.169 60.6598 136.169 60.0267 135.778 59.6362L134.364 58.2219C133.973 57.8314 133.34 57.8314 132.95 58.2219C132.559 58.6125 132.559 59.2456 132.95 59.6362L134.364 61.0504C134.754 61.4409 135.388 61.4409 135.778 61.0504ZM130 57.0005C130 56.4482 129.552 56.0005 129 56.0005H127C126.448 56.0005 126 56.4482 126 57.0005C126 57.5528 126.448 58.0005 127 58.0005L129 58.0005C129.552 58.0005 130 57.5528 130 57.0005ZM137 68.0005C137.552 68.0005 138 67.5528 138 67.0005V65.0005C138 64.4482 137.552 64.0005 137 64.0005C136.448 64.0005 136 64.4482 136 65.0005V67.0005C136 67.5528 136.448 68.0005 137 68.0005ZM119 68.0005C119.552 68.0005 120 67.5528 120 67.0005V65.0005C120 64.4482 119.552 64.0005 119 64.0005C118.448 64.0005 118 64.4482 118 65.0005L118 67.0005C118 67.5528 118.448 68.0005 119 68.0005ZM129 74.0005C129.552 74.0005 130 74.4482 130 75.0005C130 75.5528 129.552 76.0005 129 76.0005H127C126.448 76.0005 126 75.5528 126 75.0005C126 74.4482 126.448 74.0005 127 74.0005H129ZM121.636 61.0512C121.246 61.4417 120.612 61.4417 120.222 61.0512C119.831 60.6607 119.831 60.0275 120.222 59.637L121.636 58.2228C122.027 57.8322 122.66 57.8322 123.05 58.2228C123.441 58.6133 123.441 59.2465 123.05 59.637L121.636 61.0512ZM132.95 73.7787C133.341 74.1693 133.974 74.1693 134.364 73.7787L135.778 72.3645C136.169 71.974 136.169 71.3408 135.778 70.9503C135.388 70.5598 134.755 70.5598 134.364 70.9503L132.95 72.3645C132.559 72.755 132.559 73.3882 132.95 73.7787ZM123.05 72.3647C123.441 72.7552 123.441 73.3884 123.05 73.7789C122.66 74.1694 122.027 74.1694 121.636 73.7789L120.222 72.3647C119.831 71.9741 119.831 71.341 120.222 70.9505C120.612 70.5599 121.246 70.5599 121.636 70.9505L123.05 72.3647Z" fill="#12131A"/>
<path fill-rule="evenodd" clip-rule="evenodd" d="M87.7782 59.6364L86.364 58.2222L83.4764 61.1097C82.7535 60.5949 81.9116 60.2364 80.9999 60.0834V56.0005L78.9999 56.0005V60.0834C78.0882 60.2364 77.2462 60.595 76.5232 61.1099L73.636 58.2227L72.2217 59.6369L75.109 62.5242C74.5943 63.2471 74.2358 64.0889 74.0829 65.0005H69.9999L69.9999 67.0005L74.0829 67.0005C74.2358 67.9121 74.5944 68.754 75.1092 69.477L72.2219 72.3642L73.6361 73.7784L76.5234 70.8912C77.2463 71.406 78.0883 71.7646 78.9999 71.9175V76.0005H80.9999V71.9175C81.9115 71.7646 82.7534 71.4061 83.4762 70.8914L86.3638 73.779L87.778 72.3647L84.8905 69.4773C85.4054 68.7543 85.764 67.9122 85.917 67.0005H89.9999V65.0005H85.917C85.764 64.0888 85.4055 63.2468 84.8906 62.5239L87.7782 59.6364Z" fill="#12131A"/>
<path fill-rule="evenodd" clip-rule="evenodd" d="M87.7781 61.0504C88.1686 60.6598 88.1686 60.0267 87.7781 59.6362L86.3639 58.2219C85.9734 57.8314 85.3402 57.8314 84.9497 58.2219C84.5592 58.6125 84.5592 59.2456 84.9497 59.6362L86.3639 61.0504C86.7544 61.4409 87.3876 61.4409 87.7781 61.0504ZM82.0001 57.0005C82.0001 56.4482 81.5524 56.0005 81.0001 56.0005H79.0001C78.4478 56.0005 78.0001 56.4482 78.0001 57.0005C78.0001 57.5528 78.4478 58.0005 79.0001 58.0005L81.0001 58.0005C81.5524 58.0005 82.0001 57.5528 82.0001 57.0005ZM89.0001 68.0005C89.5524 68.0005 90.0001 67.5528 90.0001 67.0005V65.0005C90.0001 64.4482 89.5524 64.0005 89.0001 64.0005C88.4478 64.0005 88.0001 64.4482 88.0001 65.0005V67.0005C88.0001 67.5528 88.4478 68.0005 89.0001 68.0005ZM71.0001 68.0005C71.5524 68.0005 72.0001 67.5528 72.0001 67.0005V65.0005C72.0001 64.4482 71.5524 64.0005 71.0001 64.0005C70.4478 64.0005 70.0001 64.4482 70.0001 65.0005L70.0001 67.0005C70.0001 67.5528 70.4478 68.0005 71.0001 68.0005ZM81.0001 74.0005C81.5524 74.0005 82.0001 74.4482 82.0001 75.0005C82.0001 75.5528 81.5524 76.0005 81.0001 76.0005H79.0001C78.4478 76.0005 78.0001 75.5528 78.0001 75.0005C78.0001 74.4482 78.4478 74.0005 79.0001 74.0005H81.0001ZM73.6362 61.0512C73.2457 61.4417 72.6125 61.4417 72.222 61.0512C71.8314 60.6607 71.8314 60.0275 72.222 59.637L73.6362 58.2228C74.0267 57.8322 74.6599 57.8322 75.0504 58.2228C75.4409 58.6133 75.4409 59.2465 75.0504 59.637L73.6362 61.0512ZM84.95 73.7787C85.3405 74.1693 85.9737 74.1693 86.3642 73.7787L87.7784 72.3645C88.1689 71.974 88.169 71.3408 87.7784 70.9503C87.3879 70.5598 86.7547 70.5598 86.3642 70.9503L84.95 72.3645C84.5595 72.755 84.5595 73.3882 84.95 73.7787ZM75.0503 72.3647C75.4409 72.7552 75.4409 73.3884 75.0503 73.7789C74.6598 74.1694 74.0267 74.1694 73.6361 73.7789L72.2219 72.3647C71.8314 71.9741 71.8314 71.341 72.2219 70.9505C72.6124 70.5599 73.2456 70.5599 73.6361 70.9505L75.0503 72.3647Z" fill="#12131A"/>
<path fill-rule="evenodd" clip-rule="evenodd" d="M39.7782 59.6364L38.364 58.2222L35.4764 61.1097C34.7535 60.5949 33.9116 60.2364 32.9999 60.0834V56.0005L30.9999 56.0005V60.0834C30.0882 60.2364 29.2462 60.595 28.5232 61.1099L25.636 58.2227L24.2217 59.6369L27.109 62.5242C26.5943 63.2471 26.2358 64.0889 26.0829 65.0005H21.9999L21.9999 67.0005L26.0829 67.0005C26.2358 67.9121 26.5944 68.754 27.1092 69.477L24.2219 72.3642L25.6361 73.7784L28.5234 70.8912C29.2463 71.406 30.0883 71.7646 30.9999 71.9175V76.0005H32.9999V71.9175C33.9115 71.7646 34.7534 71.4061 35.4762 70.8914L38.3638 73.779L39.778 72.3647L36.8905 69.4773C37.4054 68.7543 37.764 67.9122 37.917 67.0005H41.9999V65.0005H37.917C37.764 64.0888 37.4055 63.2468 36.8906 62.5239L39.7782 59.6364ZM29.1397 68.7967L29.2037 68.8607C29.9249 69.5659 30.9116 70.0005 31.9999 70.0005C34.2084 70.0005 35.9988 68.2107 35.9999 66.0025V65.9985C35.9988 63.7903 34.2084 62.0005 31.9999 62.0005C30.9117 62.0005 29.9249 62.4351 29.2037 63.1402L29.1397 63.2043C28.4345 63.9254 27.9999 64.9122 27.9999 66.0005C27.9999 67.0888 28.4346 68.0756 29.1397 68.7967Z" fill="#12131A"/>
<path fill-rule="evenodd" clip-rule="evenodd" d="M39.7781 61.0504C40.1686 60.6598 40.1686 60.0267 39.7781 59.6362L38.3639 58.2219C37.9734 57.8314 37.3402 57.8314 36.9497 58.2219C36.5592 58.6125 36.5592 59.2456 36.9497 59.6362L38.3639 61.0504C38.7544 61.4409 39.3876 61.4409 39.7781 61.0504ZM34.0001 57.0005C34.0001 56.4482 33.5524 56.0005 33.0001 56.0005H31.0001C30.4478 56.0005 30.0001 56.4482 30.0001 57.0005C30.0001 57.5528 30.4478 58.0005 31.0001 58.0005L33.0001 58.0005C33.5524 58.0005 34.0001 57.5528 34.0001 57.0005ZM41.0001 68.0005C41.5524 68.0005 42.0001 67.5528 42.0001 67.0005V65.0005C42.0001 64.4482 41.5524 64.0005 41.0001 64.0005C40.4478 64.0005 40.0001 64.4482 40.0001 65.0005V67.0005C40.0001 67.5528 40.4478 68.0005 41.0001 68.0005ZM23.0001 68.0005C23.5524 68.0005 24.0001 67.5528 24.0001 67.0005V65.0005C24.0001 64.4482 23.5524 64.0005 23.0001 64.0005C22.4478 64.0005 22.0001 64.4482 22.0001 65.0005L22.0001 67.0005C22.0001 67.5528 22.4478 68.0005 23.0001 68.0005ZM33.0001 74.0005C33.5524 74.0005 34.0001 74.4482 34.0001 75.0005C34.0001 75.5528 33.5524 76.0005 33.0001 76.0005H31.0001C30.4478 76.0005 30.0001 75.5528 30.0001 75.0005C30.0001 74.4482 30.4478 74.0005 31.0001 74.0005H33.0001ZM25.6362 61.0512C25.2457 61.4417 24.6125 61.4417 24.222 61.0512C23.8314 60.6607 23.8314 60.0275 24.222 59.637L25.6362 58.2228C26.0267 57.8322 26.6599 57.8322 27.0504 58.2228C27.4409 58.6133 27.4409 59.2465 27.0504 59.637L25.6362 61.0512ZM36.95 73.7787C37.3405 74.1693 37.9737 74.1693 38.3642 73.7787L39.7784 72.3645C40.1689 71.974 40.169 71.3408 39.7784 70.9503C39.3879 70.5598 38.7547 70.5598 38.3642 70.9503L36.95 72.3645C36.5595 72.755 36.5595 73.3882 36.95 73.7787ZM27.0503 72.3647C27.4409 72.7552 27.4409 73.3884 27.0503 73.7789C26.6598 74.1694 26.0267 74.1694 25.6361 73.7789L24.2219 72.3647C23.8314 71.9741 23.8314 71.341 24.2219 70.9505C24.6124 70.5599 25.2456 70.5599 25.6361 70.9505L27.0503 72.3647Z" fill="#12131A"/>
<path d="M3.37061 14L0.450684 4.75781H1.70752L3.73877 11.6577L3.87207 12.1084L4.01172 11.645L6.05566 4.75781H7.30615L4.39258 14H3.37061ZM9.09619 7.13184H12.6064V12.9844H14.8472V14H9.09619V12.9844H11.4321V8.15381H9.09619V7.13184ZM11.2798 5.3291C11.2798 5.22754 11.2946 5.13232 11.3242 5.04346C11.3581 4.95459 11.4089 4.87842 11.4766 4.81494C11.5316 4.75993 11.6014 4.71761 11.686 4.68799C11.7749 4.65413 11.8743 4.63721 11.9844 4.63721C12.0944 4.63721 12.1917 4.65413 12.2764 4.68799C12.361 4.71761 12.4308 4.75993 12.4858 4.81494C12.5535 4.87419 12.6043 4.94824 12.6382 5.03711C12.672 5.12598 12.689 5.22331 12.689 5.3291C12.689 5.51953 12.6297 5.67822 12.5112 5.80518C12.3927 5.93213 12.2171 5.99561 11.9844 5.99561C11.7474 5.99561 11.5697 5.93213 11.4512 5.80518C11.3369 5.67822 11.2798 5.51953 11.2798 5.3291ZM21.2202 7.00488C21.436 7.00488 21.6603 7.01969 21.8931 7.04932C22.13 7.07894 22.3078 7.11914 22.4263 7.16992L22.2676 8.31885C22.0391 8.26807 21.8211 8.2321 21.6138 8.21094C21.4106 8.18555 21.1969 8.17285 20.9727 8.17285C20.6849 8.17285 20.4246 8.20882 20.1919 8.28076C19.9591 8.34847 19.756 8.45003 19.5825 8.58545C19.4259 8.70394 19.2884 8.84993 19.1699 9.02344C19.0557 9.19271 18.9604 9.38314 18.8843 9.59473V14H17.7036V7.13184H18.8208L18.8716 8.05225L18.8779 8.22363C19.1572 7.84701 19.4915 7.55078 19.8809 7.33496C20.2744 7.11491 20.7209 7.00488 21.2202 7.00488ZM29.0532 14L28.9834 13.0542C28.7549 13.3927 28.4692 13.6572 28.1265 13.8477C27.7837 14.0339 27.388 14.127 26.9395 14.127C26.5798 14.127 26.2539 14.0719 25.9619 13.9619C25.6699 13.8477 25.4202 13.672 25.2129 13.4351C25.0055 13.1981 24.8447 12.8976 24.7305 12.5337C24.6204 12.1655 24.5654 11.7254 24.5654 11.2134V7.13184H25.7397V11.2261C25.7397 11.5985 25.7694 11.9074 25.8286 12.1528C25.8879 12.3983 25.9767 12.5929 26.0952 12.7368C26.2137 12.8849 26.3576 12.9886 26.5269 13.0479C26.7004 13.1071 26.8993 13.1367 27.1235 13.1367C27.3859 13.1367 27.6208 13.1071 27.8281 13.0479C28.0355 12.9844 28.2153 12.8976 28.3677 12.7876C28.4946 12.6987 28.6047 12.5929 28.6978 12.4702C28.7951 12.3433 28.8755 12.2057 28.939 12.0576V7.13184H30.1196V14H29.0532ZM36.8989 12.1782C36.8989 12.0386 36.8714 11.9137 36.8164 11.8037C36.7614 11.6895 36.6683 11.5858 36.5371 11.4927C36.4059 11.3996 36.2324 11.3149 36.0166 11.2388C35.8008 11.1584 35.5321 11.0864 35.2104 11.0229C34.8169 10.9425 34.4572 10.8452 34.1313 10.731C33.8097 10.6167 33.5347 10.4792 33.3062 10.3184C33.0734 10.1618 32.8936 9.9777 32.7666 9.76611C32.6396 9.55029 32.5762 9.30062 32.5762 9.01709C32.5762 8.73779 32.6418 8.47754 32.7729 8.23633C32.9041 7.99089 33.0882 7.77718 33.3252 7.59521C33.5622 7.41325 33.8436 7.26937 34.1694 7.16357C34.4995 7.05778 34.8613 7.00488 35.2549 7.00488C35.6781 7.00488 36.0589 7.0599 36.3975 7.16992C36.736 7.27995 37.0238 7.43229 37.2607 7.62695C37.4977 7.82161 37.6797 8.05013 37.8066 8.3125C37.9378 8.57064 38.0034 8.84993 38.0034 9.15039H36.8291C36.8291 9.00228 36.791 8.8584 36.7148 8.71875C36.6387 8.57487 36.5329 8.44792 36.3975 8.33789C36.262 8.22786 36.097 8.139 35.9023 8.07129C35.7119 8.00358 35.4961 7.96973 35.2549 7.96973C35.0052 7.96973 34.7852 7.99723 34.5947 8.05225C34.4085 8.10726 34.2541 8.18132 34.1313 8.27441C34.0044 8.36751 33.9092 8.47542 33.8457 8.59814C33.7822 8.72087 33.7505 8.84782 33.7505 8.979C33.7505 9.11442 33.7759 9.23503 33.8267 9.34082C33.8774 9.44661 33.9663 9.54183 34.0933 9.62646C34.216 9.7111 34.381 9.78727 34.5884 9.85498C34.8 9.92269 35.0666 9.98828 35.3882 10.0518C35.8114 10.1406 36.1901 10.2443 36.5244 10.3628C36.8587 10.4771 37.1401 10.6146 37.3687 10.7754C37.5972 10.9404 37.7707 11.1309 37.8892 11.3467C38.0119 11.5625 38.0732 11.8122 38.0732 12.0957C38.0732 12.4004 38.0034 12.6776 37.8638 12.9272C37.7284 13.1769 37.5379 13.3906 37.2925 13.5684C37.047 13.7461 36.7529 13.8836 36.4102 13.981C36.0674 14.0783 35.6929 14.127 35.2866 14.127C34.8211 14.127 34.4064 14.0656 34.0425 13.9429C33.6785 13.8159 33.3717 13.6488 33.1221 13.4414C32.8682 13.2383 32.6735 13.0013 32.5381 12.7305C32.4069 12.4596 32.3413 12.1782 32.3413 11.8862H33.5156C33.5326 12.1274 33.596 12.3306 33.7061 12.4956C33.8203 12.6606 33.9621 12.7939 34.1313 12.8955C34.2964 12.9971 34.4805 13.069 34.6836 13.1113C34.8867 13.1536 35.0877 13.1748 35.2866 13.1748C35.5998 13.1748 35.8727 13.1388 36.1055 13.0669C36.3382 12.9907 36.5202 12.887 36.6514 12.7559C36.7318 12.6755 36.7931 12.5866 36.8354 12.4893C36.8778 12.3919 36.8989 12.2882 36.8989 12.1782Z" fill="#696C80"/>
</svg>
