<svg width="160" height="98" viewBox="0 0 160 98" fill="none" xmlns="http://www.w3.org/2000/svg">
<rect x="0.5" y="34.5" width="159" height="63" rx="4.5" stroke="#9747FF" stroke-dasharray="10 5"/>
<path d="M118.171 61.6785C118.292 59.8169 119.728 58.3355 121.59 58.2094C123.214 58.0993 125.4 58 128 58C130.6 58 132.786 58.0993 134.41 58.2094C136.272 58.3355 137.708 59.8169 137.829 61.6785C137.919 63.0685 138 64.6796 138 66C138 67.3204 137.919 68.9315 137.829 70.3215C137.708 72.1831 136.272 73.6645 134.41 73.7906C132.786 73.9007 130.6 74 128 74C125.4 74 123.214 73.9007 121.59 73.7906C119.728 73.6645 118.292 72.1831 118.171 70.3215C118.081 68.9315 118 67.3204 118 66C118 64.6796 118.081 63.0685 118.171 61.6785Z" fill="#BABDCC"/>
<path d="M126 64.0017C126 63.2044 126.887 62.7277 127.552 63.1679L130.545 65.1499C131.155 65.5532 131.155 66.4475 130.545 66.8508L127.552 68.8326C126.887 69.2727 126 68.796 126 67.9987V64.0017Z" fill="#12131A"/>
<path fill-rule="evenodd" clip-rule="evenodd" d="M73.5897 58.2094C71.7285 58.3355 70.2921 59.8169 70.1711 61.6785C70.0807 63.0685 70 64.6796 70 66C70 67.3204 70.0807 68.9315 70.1711 70.3215C70.2921 72.1831 71.7285 73.6645 73.5897 73.7906C75.2143 73.9007 77.4003 74 80 74C82.5997 74 84.7857 73.9007 86.4103 73.7906C88.2715 73.6645 89.7078 72.1831 89.8289 70.3215C89.9193 68.9315 90 67.3204 90 66C90 64.6796 89.9193 63.0685 89.8289 61.6785C89.7078 59.8169 88.2715 58.3355 86.4103 58.2094C84.7857 58.0993 82.5997 58 80 58C77.4003 58 75.2143 58.0993 73.5897 58.2094ZM79.5521 63.1678C78.8873 62.7276 78 63.2043 78 64.0016V67.9987C78 68.7959 78.8873 69.2726 79.552 68.8325L82.5454 66.8507C83.1546 66.4474 83.1547 65.5531 82.5455 65.1498L79.5521 63.1678Z" fill="#12131A"/>
<path fill-rule="evenodd" clip-rule="evenodd" d="M32 60C29.4507 60 27.3102 60.0974 25.7249 60.2048C24.8933 60.2612 24.2248 60.9172 24.1669 61.8083C24.0773 63.1857 24 64.7453 24 66C24 67.2547 24.0773 68.8143 24.1669 70.1917C24.2248 71.0828 24.8933 71.7388 25.7249 71.7952C27.3102 71.9026 29.4507 72 32 72C34.5493 72 36.6898 71.9026 38.2751 71.7952C39.1067 71.7388 39.7752 71.0828 39.8331 70.1917C39.9227 68.8143 40 67.2547 40 66C40 64.7453 39.9227 63.1857 39.8331 61.8083C39.7752 60.9172 39.1067 60.2612 38.2751 60.2048C36.6898 60.0974 34.5493 60 32 60ZM25.5897 58.2094C23.7285 58.3355 22.2921 59.8169 22.1711 61.6785C22.0807 63.0685 22 64.6796 22 66C22 67.3204 22.0807 68.9315 22.1711 70.3215C22.2921 72.1831 23.7285 73.6645 25.5897 73.7906C27.2143 73.9007 29.4003 74 32 74C34.5997 74 36.7857 73.9007 38.4103 73.7906C40.2715 73.6645 41.7078 72.1831 41.8289 70.3215C41.9193 68.9315 42 67.3204 42 66C42 64.6796 41.9193 63.0685 41.8289 61.6785C41.7078 59.8169 40.2715 58.3355 38.4103 58.2094C36.7857 58.0993 34.5997 58 32 58C29.4003 58 27.2143 58.0993 25.5897 58.2094Z" fill="#12131A"/>
<path d="M30 64.0014C30 63.2042 30.8873 62.7275 31.5521 63.1676L34.5455 65.1496C35.1547 65.553 35.1546 66.4473 34.5454 66.8506L31.552 68.8323C30.8873 69.2724 30 68.7957 30 67.9985V64.0014Z" fill="#12131A"/>
<path d="M3.82764 9.39795L5.93506 4.75781H7.26807L4.39258 10.5532L4.37354 14H3.28174L3.2627 10.5532L0.387207 4.75781H1.72656L3.82764 9.39795ZM8.58203 10.5024C8.58203 10.0073 8.65397 9.54818 8.79785 9.125C8.94173 8.69759 9.14909 8.32731 9.41992 8.01416C9.68652 7.70101 10.0124 7.45557 10.3975 7.27783C10.7826 7.09587 11.2163 7.00488 11.6987 7.00488C12.1854 7.00488 12.6213 7.09587 13.0063 7.27783C13.3957 7.45557 13.7257 7.70101 13.9966 8.01416C14.2632 8.32731 14.4684 8.69759 14.6123 9.125C14.7562 9.54818 14.8281 10.0073 14.8281 10.5024V10.6421C14.8281 11.1372 14.7562 11.5964 14.6123 12.0195C14.4684 12.4427 14.2632 12.8109 13.9966 13.124C13.7257 13.4372 13.3978 13.6826 13.0127 13.8604C12.6276 14.0381 12.1938 14.127 11.7114 14.127C11.2248 14.127 10.7868 14.0381 10.3975 13.8604C10.0124 13.6826 9.68652 13.4372 9.41992 13.124C9.14909 12.8109 8.94173 12.4427 8.79785 12.0195C8.65397 11.5964 8.58203 11.1372 8.58203 10.6421V10.5024ZM9.75635 10.6421C9.75635 10.9806 9.79655 11.3044 9.87695 11.6133C9.95736 11.918 10.0801 12.1867 10.2451 12.4194C10.4059 12.6522 10.609 12.8363 10.8545 12.9717C11.0999 13.1071 11.3856 13.1748 11.7114 13.1748C12.033 13.1748 12.3145 13.1071 12.5557 12.9717C12.8011 12.8363 13.0063 12.6522 13.1714 12.4194C13.3322 12.1867 13.4528 11.918 13.5332 11.6133C13.6136 11.3044 13.6538 10.9806 13.6538 10.6421V10.5024C13.6538 10.1681 13.6115 9.84863 13.5269 9.54395C13.4465 9.23503 13.3258 8.96419 13.165 8.73145C13 8.4987 12.7948 8.31462 12.5493 8.1792C12.3081 8.03955 12.0246 7.96973 11.6987 7.96973C11.3729 7.96973 11.0894 8.03955 10.8481 8.1792C10.6069 8.31462 10.4059 8.4987 10.2451 8.73145C10.0801 8.96419 9.95736 9.23503 9.87695 9.54395C9.79655 9.84863 9.75635 10.1681 9.75635 10.5024V10.6421ZM21.2456 14L21.1758 13.0542C20.9473 13.3927 20.6616 13.6572 20.3188 13.8477C19.9761 14.0339 19.5804 14.127 19.1318 14.127C18.7721 14.127 18.4463 14.0719 18.1543 13.9619C17.8623 13.8477 17.6126 13.672 17.4053 13.4351C17.1979 13.1981 17.0371 12.8976 16.9229 12.5337C16.8128 12.1655 16.7578 11.7254 16.7578 11.2134V7.13184H17.9321V11.2261C17.9321 11.5985 17.9618 11.9074 18.021 12.1528C18.0802 12.3983 18.1691 12.5929 18.2876 12.7368C18.4061 12.8849 18.55 12.9886 18.7192 13.0479C18.8927 13.1071 19.0916 13.1367 19.3159 13.1367C19.5783 13.1367 19.8132 13.1071 20.0205 13.0479C20.2279 12.9844 20.4077 12.8976 20.5601 12.7876C20.687 12.6987 20.797 12.5929 20.8901 12.4702C20.9875 12.3433 21.0679 12.2057 21.1313 12.0576V7.13184H22.312V14H21.2456ZM30.7607 5.76074H27.9043V14H26.7617V5.76074H23.9053V4.75781H30.7607V5.76074ZM36.8608 14L36.791 13.0542C36.5625 13.3927 36.2769 13.6572 35.9341 13.8477C35.5913 14.0339 35.1956 14.127 34.7471 14.127C34.3874 14.127 34.0615 14.0719 33.7695 13.9619C33.4775 13.8477 33.2279 13.672 33.0205 13.4351C32.8132 13.1981 32.6523 12.8976 32.5381 12.5337C32.4281 12.1655 32.373 11.7254 32.373 11.2134V7.13184H33.5474V11.2261C33.5474 11.5985 33.577 11.9074 33.6362 12.1528C33.6955 12.3983 33.7843 12.5929 33.9028 12.7368C34.0213 12.8849 34.1652 12.9886 34.3345 13.0479C34.508 13.1071 34.7069 13.1367 34.9312 13.1367C35.1935 13.1367 35.4284 13.1071 35.6357 13.0479C35.8431 12.9844 36.0229 12.8976 36.1753 12.7876C36.3022 12.6987 36.4123 12.5929 36.5054 12.4702C36.6027 12.3433 36.6831 12.2057 36.7466 12.0576V7.13184H37.9272V14H36.8608ZM45.9634 10.6421C45.9634 10.9425 45.9401 11.2324 45.8936 11.5117C45.8512 11.7868 45.7878 12.0449 45.7031 12.2861C45.5889 12.6035 45.4386 12.8892 45.2524 13.1431C45.0705 13.3927 44.8504 13.6001 44.5923 13.7651C44.4061 13.8794 44.2008 13.9683 43.9766 14.0317C43.7565 14.0952 43.5174 14.127 43.2593 14.127C42.9631 14.127 42.6922 14.091 42.4468 14.019C42.2056 13.9471 41.9876 13.8434 41.793 13.708C41.6999 13.6403 41.611 13.5662 41.5264 13.4858C41.4417 13.4054 41.3613 13.3166 41.2852 13.2192L41.228 14H40.1489V4.25H41.3232V7.86816C41.4206 7.74544 41.5285 7.63542 41.647 7.53809C41.7655 7.43652 41.8924 7.34977 42.0278 7.27783C42.1971 7.18896 42.3833 7.12126 42.5864 7.07471C42.7896 7.02816 43.0096 7.00488 43.2466 7.00488C43.5428 7.00488 43.8158 7.04508 44.0654 7.12549C44.3151 7.20589 44.5415 7.31803 44.7446 7.46191C44.9266 7.59733 45.0895 7.76237 45.2334 7.95703C45.3773 8.14746 45.5042 8.36117 45.6143 8.59814C45.7285 8.86475 45.8153 9.16097 45.8745 9.48682C45.9338 9.80843 45.9634 10.1491 45.9634 10.5088V10.6421ZM44.7891 10.5088C44.7891 10.293 44.7743 10.0835 44.7446 9.88037C44.7192 9.67301 44.679 9.47835 44.624 9.29639C44.5479 9.0721 44.4484 8.86686 44.3257 8.68066C44.203 8.49447 44.0527 8.34847 43.875 8.24268C43.7523 8.1665 43.6147 8.10726 43.4624 8.06494C43.3101 8.02262 43.1408 8.00146 42.9546 8.00146C42.7515 8.00146 42.5653 8.02897 42.396 8.08398C42.2267 8.13477 42.0765 8.20671 41.9453 8.2998C41.8099 8.39714 41.6893 8.51139 41.5835 8.64258C41.4819 8.76953 41.3952 8.90918 41.3232 9.06152V12.064C41.3994 12.2163 41.4883 12.3581 41.5898 12.4893C41.6956 12.6162 41.8162 12.7284 41.9517 12.8257C42.0871 12.923 42.2394 12.9992 42.4087 13.0542C42.578 13.105 42.7642 13.1304 42.9673 13.1304C43.1619 13.1304 43.3397 13.1071 43.5005 13.0605C43.6613 13.0098 43.8052 12.9378 43.9321 12.8447C44.1014 12.7262 44.2432 12.576 44.3574 12.394C44.4717 12.2121 44.5627 12.009 44.6304 11.7847C44.6854 11.6154 44.7256 11.4334 44.751 11.2388C44.7764 11.0441 44.7891 10.8452 44.7891 10.6421V10.5088ZM50.9844 14.127C50.502 14.127 50.0576 14.0444 49.6514 13.8794C49.2493 13.7144 48.9045 13.4837 48.6167 13.1875C48.3289 12.8913 48.1047 12.54 47.9438 12.1338C47.783 11.7275 47.7026 11.2853 47.7026 10.8071V10.5405C47.7026 9.98617 47.7915 9.49105 47.9692 9.05518C48.147 8.61507 48.384 8.24268 48.6802 7.93799C48.9722 7.63753 49.3044 7.4069 49.6768 7.24609C50.0534 7.08529 50.4385 7.00488 50.832 7.00488C51.3271 7.00488 51.7588 7.09163 52.127 7.26514C52.4993 7.43441 52.8083 7.66927 53.0537 7.96973C53.2992 8.27441 53.4811 8.632 53.5996 9.04248C53.7223 9.45296 53.7837 9.8973 53.7837 10.3755V10.9023H48.877V10.9468C48.9066 11.2811 48.9722 11.5752 49.0737 11.8291C49.1795 12.083 49.3234 12.3073 49.5054 12.502C49.6916 12.7093 49.9159 12.8722 50.1782 12.9907C50.4406 13.1092 50.7305 13.1685 51.0479 13.1685C51.4668 13.1685 51.8392 13.0838 52.165 12.9146C52.4909 12.7453 52.7617 12.521 52.9775 12.2417L53.6948 12.8003C53.4663 13.1473 53.1235 13.4562 52.6665 13.7271C52.2137 13.9937 51.653 14.127 50.9844 14.127ZM50.832 7.96973C50.5951 7.96973 50.3708 8.01416 50.1592 8.10303C49.9476 8.18766 49.7572 8.3125 49.5879 8.47754C49.4186 8.64681 49.2747 8.85417 49.1562 9.09961C49.042 9.34082 48.9616 9.62012 48.915 9.9375H52.6094V9.88037C52.6094 9.66878 52.5692 9.44238 52.4888 9.20117C52.4084 8.95573 52.2962 8.74414 52.1523 8.56641C52.0085 8.38867 51.8265 8.24479 51.6064 8.13477C51.3906 8.02474 51.1325 7.96973 50.832 7.96973Z" fill="#696C80"/>
</svg>
