<svg width="24" height="24" viewBox="0 0 24 24" fill="none" xmlns="http://www.w3.org/2000/svg">
<path d="M12 12V14.25M12 12C9.38469 11.9862 8.25 11.25 8.25 11.25M12 12C14.3433 11.9907 15.75 11.25 15.75 11.25M12 12V9.75M12 14.25C12 14.25 10.5312 15.5477 9.75 18M12 14.25C12 14.25 13.5307 15.4638 14.25 18M12 9.75C10.7574 9.75 9.75 8.74264 9.75 7.5C9.75 6.25736 10.7574 5.25 12 5.25C13.2426 5.25 14.25 6.25736 14.25 7.5C14.25 8.74264 13.2426 9.75 12 9.75ZM12 21.75C6.61522 21.75 2.25 17.3848 2.25 12C2.25 6.61522 6.61522 2.25 12 2.25C17.3848 2.25 21.75 6.61522 21.75 12C21.75 17.3848 17.3848 21.75 12 21.75Z" stroke="black" stroke-width="1.5" stroke-linecap="round" stroke-linejoin="round"/>
</svg>
