<svg width="24" height="24" viewBox="0 0 24 24" fill="none" xmlns="http://www.w3.org/2000/svg">
<path d="M12 15.75V12M12 15.75C10.402 17.9707 9.78121 19.2977 9 21.75M12 15.75C13.5431 17.9346 14.2807 19.2138 15 21.75M6 11.25C8.11028 11.7799 9.38469 11.9862 12 12M12 9.75C14.0711 9.75 15.75 8.07107 15.75 6C15.75 3.92893 14.0711 2.25 12 2.25C9.92893 2.25 8.25 3.92893 8.25 6C8.25 8.07107 9.92893 9.75 12 9.75ZM12 9.75V12M12 12C14.3433 11.9907 15.7176 11.9089 18 11.25" stroke="black" stroke-width="1.5" stroke-miterlimit="1.78829" stroke-linecap="round" stroke-linejoin="round"/>
</svg>
