<svg width="24" height="24" viewBox="0 0 24 24" fill="none" xmlns="http://www.w3.org/2000/svg">
<path d="M15.75 9C15.75 11.0711 12.7279 12.75 9 12.75C5.27208 12.75 2.25 11.0711 2.25 9M15.75 9C15.75 6.92893 12.7279 5.25 9 5.25M15.75 9V12.75M9 5.25C5.27208 5.25 2.25 6.92893 2.25 9M9 5.25H21.75V12.75H15.75M2.25 9V15C2.25 17.0711 5.27208 18.75 9 18.75C12.7279 18.75 15.75 17.0711 15.75 15V12.75M9 9.75C9 9.75 7.5 9.75 7.5 9C7.5 8.25 9 8.25 9 8.25C9 8.25 10.5 8.25 10.5 9C10.5 9.75 9 9.75 9 9.75Z" stroke="black" stroke-width="1.5" stroke-linecap="round" stroke-linejoin="round"/>
</svg>
