<svg width="24" height="24" viewBox="0 0 24 24" fill="none" xmlns="http://www.w3.org/2000/svg">
<path d="M6 15.75V12.75M6 12.75V10.5C6 9.25736 7.00736 8.25 8.25 8.25C9.49264 8.25 10.5 9.25736 10.5 10.5V12.75M6 12.75H10.5M10.5 12.75V15.75M2.25 18.75V5.25C2.25 4.42157 2.92157 3.75 3.75 3.75H20.25C21.0784 3.75 21.75 4.42157 21.75 5.25V18.75C21.75 19.5784 21.0784 20.25 20.25 20.25H3.75C2.92157 20.25 2.25 19.5784 2.25 18.75ZM13.5 15.75V8.25H14.25C16.3211 8.25 18 9.92893 18 12C18 14.0711 16.3211 15.75 14.25 15.75H13.5Z" stroke="black" stroke-width="1.5" stroke-linecap="round" stroke-linejoin="round"/>
</svg>
