<svg width="24" height="24" viewBox="0 0 24 24" fill="none" xmlns="http://www.w3.org/2000/svg">
<path d="M14.25 19.5H21M14.25 19.5C14.25 20.7426 13.2426 21.75 12 21.75C10.7574 21.75 9.75 20.7426 9.75 19.5M14.25 19.5C14.25 18.2574 13.2426 17.25 12 17.25M9.75 19.5H3M9.75 19.5C9.75 18.2574 10.7574 17.25 12 17.25M12 17.25V14.25M12 14.25H5.25C4.42157 14.25 3.75 13.5784 3.75 12.75V3.75C3.75 2.92157 4.42157 2.25 5.25 2.25H18.75C19.5784 2.25 20.25 2.92157 20.25 3.75V12.75C20.25 13.5784 19.5784 14.25 18.75 14.25H12ZM7.5 11.25V9M7.5 9V6.75C7.5 5.92157 8.17157 5.25 9 5.25C9.82843 5.25 10.5 5.92157 10.5 6.75V9M7.5 9H10.5M10.5 9V11.25M13.5 11.25H15M15 11.25H16.5M15 11.25V5.25M15 5.25H13.5M15 5.25H16.5" stroke="black" stroke-width="1.5" stroke-linecap="round" stroke-linejoin="round"/>
</svg>
