<svg width="24" height="24" viewBox="0 0 24 24" fill="none" xmlns="http://www.w3.org/2000/svg">
<path d="M9.75 9.75H6L5.3906 8.8359C4.8342 8.0013 3.89751 7.5 2.89445 7.5H2.25L3 11.25L2.25 12L3 12.75L2.25 16.5H2.89445C3.89751 16.5 4.8342 15.9987 5.3906 15.1641L6 14.25H9.75L7.5 21.75H8.79521C9.85236 21.75 10.8315 21.1936 11.3725 20.2854L14.7 14.7M9.75 9.75L2.25 2.25M9.75 9.75L14.7 14.7M18.6372 14.1372C19.4566 13.9502 20.2143 13.5357 20.818 12.932L21.75 12L20.818 11.068C19.9741 10.2241 18.8295 9.75 17.636 9.75H15L11.3739 3.70651C10.8317 2.8029 9.85522 2.25 8.80143 2.25H7.5L7.82143 3.32143M14.7 14.7L21.75 21.75" stroke="black" stroke-width="1.5" stroke-miterlimit="1.78829" stroke-linecap="round" stroke-linejoin="round"/>
</svg>
