<svg width="24" height="24" viewBox="0 0 24 24" fill="none" xmlns="http://www.w3.org/2000/svg">
<path d="M20.818 11.068L21.75 12L20.818 12.932C19.9741 13.7759 18.8295 14.25 17.636 14.25H15L11.3739 20.2935C10.8317 21.1971 9.85522 21.75 8.80143 21.75H7.5L9.75 14.25H6L5.3906 15.1641C4.8342 15.9987 3.89751 16.5 2.89445 16.5H2.25L3 12.75L2.25 12L3 11.25L2.25 7.5H2.89445C3.89751 7.5 4.8342 8.0013 5.3906 8.8359L6 9.75H9.75L7.5 2.25H8.80143C9.85522 2.25 10.8317 2.8029 11.3739 3.70651L15 9.75H17.636C18.8295 9.75 19.9741 10.2241 20.818 11.068Z" stroke="black" stroke-width="1.5" stroke-miterlimit="1.78829" stroke-linecap="round" stroke-linejoin="round"/>
</svg>
