<svg width="24" height="24" viewBox="0 0 24 24" fill="none" xmlns="http://www.w3.org/2000/svg">
<path d="M6.16633 18.5834L3.74996 20.9998M10.3311 4.66866C7.42644 5.26538 5.07877 7.38876 4.16352 10.1633C3.89517 10.9769 3.74996 11.8464 3.74996 12.7498C3.74996 15.0279 4.67337 17.0904 6.16633 18.5834M6.16633 18.5834C7.64868 20.0658 9.69252 20.9866 11.9515 20.9996M19.8364 10.1633L21.4393 8.56043C22.0251 7.97465 22.0251 7.0249 21.4393 6.43911L17.5606 2.56043C16.9748 1.97465 16.0251 1.97465 15.4393 2.56043L13.5 4.49977L13.6624 4.66221M20.1714 11.6069C20.1026 11.1102 19.9896 10.6276 19.8364 10.1633C18.7513 6.87391 15.6529 4.49977 12 4.49977C11.4282 4.49977 10.8701 4.55793 10.3311 4.66866M10.3311 4.66866L10.5 4.49977L8.56062 2.56043C7.97483 1.97465 7.02508 1.97465 6.4393 2.56043L2.56062 6.43911C1.97483 7.0249 1.97483 7.97465 2.56062 8.56043L4.16352 10.1633M16.5 10.5L12 14.25L8.25 11.25M18.375 22.5V18.375M18.375 18.375V14.25M18.375 18.375H22.5M18.375 18.375H14.25" stroke="black" stroke-width="1.5" stroke-miterlimit="1.78829" stroke-linecap="round" stroke-linejoin="round"/>
</svg>
