<svg width="24" height="24" viewBox="0 0 24 24" fill="none" xmlns="http://www.w3.org/2000/svg">
<path d="M17.8336 18.5834L20.25 20.9998M10.3311 4.66866C10.8701 4.55793 11.4283 4.49977 12 4.49977C15.653 4.49977 18.7514 6.87391 19.8365 10.1633C20.1048 10.9769 20.25 11.8464 20.25 12.7498C20.25 15.028 19.3266 17.0905 17.8336 18.5834M17.8336 18.5834C16.3407 20.0764 14.2782 20.9998 12 20.9998C9.72184 20.9998 7.65934 20.0764 6.16639 18.5834M6.16639 18.5834L3.75002 20.9998M10.3311 4.66866C7.4265 5.26538 5.07883 7.38876 4.16358 10.1633C3.89523 10.9769 3.75002 11.8464 3.75002 12.7498C3.75002 15.028 4.67343 17.0905 6.16639 18.5834M19.8365 10.1633L21.4394 8.56043C22.0251 7.97465 22.0251 7.0249 21.4394 6.43911L17.5607 2.56043C16.9749 1.97465 16.0251 1.97465 15.4394 2.56043L13.5 4.49977L13.6625 4.66221M10.3311 4.66866L10.5 4.49977L8.56068 2.56043C7.97489 1.97465 7.02514 1.97465 6.43936 2.56043L2.56068 6.43911C1.97489 7.0249 1.97489 7.97465 2.56068 8.56043L4.16358 10.1633M16.5001 10.5L12 14.25L8.25006 11.25" stroke="black" stroke-width="1.5" stroke-linecap="round" stroke-linejoin="round"/>
</svg>
