<svg width="24" height="24" viewBox="0 0 24 24" fill="none" xmlns="http://www.w3.org/2000/svg">
<path d="M18 18.4966V18.75C18 19.5784 17.3284 20.25 16.5 20.25H3.75C2.92157 20.25 2.25 19.5784 2.25 18.75V5.25C2.25 4.42157 2.92157 3.75 3.75 3.75H16.5C17.3284 3.75 18 4.42157 18 5.25V5.50337M18 18.4966V5.50337M18 18.4966C20.2418 17.1998 21.75 14.7761 21.75 12C21.75 9.22394 20.2418 6.80015 18 5.50337M10.5 14.25C10.5 15.4926 9.49264 16.5 8.25 16.5C7.00736 16.5 6 15.4926 6 14.25C6 13.0074 7.00736 12 8.25 12C9.49264 12 10.5 13.0074 10.5 14.25ZM10.5 14.25V7.5L11.159 7.71967C12.1777 8.05923 13.2896 7.98022 14.25 7.5" stroke="black" stroke-width="1.5" stroke-linecap="round" stroke-linejoin="round"/>
</svg>
