<svg width="24" height="24" viewBox="0 0 24 24" fill="none" xmlns="http://www.w3.org/2000/svg">
<path d="M2.25 12H21.7503M15.7503 7.5H17.2503C18.0787 7.5 18.7503 8.17157 18.7503 9V15C18.7503 15.8284 18.0787 16.5 17.2503 16.5H15.7503C14.9219 16.5 14.2503 15.8284 14.2503 15V9C14.2503 8.17157 14.9219 7.5 15.7503 7.5ZM8.25032 3.75H6.75032C5.92189 3.75 5.25032 4.42157 5.25032 5.25V18.75C5.25032 19.5784 5.92189 20.25 6.75032 20.25H8.25032C9.07874 20.25 9.75032 19.5784 9.75032 18.75V5.25C9.75032 4.42157 9.07874 3.75 8.25032 3.75Z" stroke="black" stroke-width="1.5" stroke-linecap="round" stroke-linejoin="round"/>
</svg>
