<svg width="24" height="24" viewBox="0 0 24 24" fill="none" xmlns="http://www.w3.org/2000/svg">
<path d="M12 2.24976V21.7501M16.5 15.7501V17.2501C16.5 18.0785 15.8284 18.7501 15 18.7501H9C8.17157 18.7501 7.5 18.0785 7.5 17.2501V15.7501C7.5 14.9216 8.17157 14.2501 9 14.2501H15C15.8284 14.2501 16.5 14.9216 16.5 15.7501ZM20.25 8.25007V6.75007C20.25 5.92165 19.5784 5.25007 18.75 5.25007H5.25C4.42157 5.25007 3.75 5.92165 3.75 6.75007V8.25007C3.75 9.0785 4.42157 9.75007 5.25 9.75007H18.75C19.5784 9.75007 20.25 9.0785 20.25 8.25007Z" stroke="black" stroke-width="1.5" stroke-linecap="round" stroke-linejoin="round"/>
</svg>
