<svg width="24" height="24" viewBox="0 0 24 24" fill="none" xmlns="http://www.w3.org/2000/svg">
<path d="M2.25 2.25H21.75M15.75 5.25H17.25C18.0784 5.25 18.75 5.92157 18.75 6.75V12.75C18.75 13.5784 18.0784 14.25 17.25 14.25H15.75C14.9216 14.25 14.25 13.5784 14.25 12.75V6.75C14.25 5.92157 14.9216 5.25 15.75 5.25ZM8.25 5.25H6.75C5.92157 5.25 5.25 5.92157 5.25 6.75V20.25C5.25 21.0784 5.92157 21.75 6.75 21.75H8.25C9.07843 21.75 9.75 21.0784 9.75 20.25V6.75C9.75 5.92157 9.07843 5.25 8.25 5.25Z" stroke="black" stroke-width="1.5" stroke-linecap="round" stroke-linejoin="round"/>
</svg>
