<svg width="24" height="24" viewBox="0 0 24 24" fill="none" xmlns="http://www.w3.org/2000/svg">
<path d="M2.25 21.75H21.75M15.75 18.75H17.25C18.0784 18.75 18.75 18.0784 18.75 17.25V11.25C18.75 10.4216 18.0784 9.75 17.25 9.75H15.75C14.9216 9.75 14.25 10.4216 14.25 11.25V17.25C14.25 18.0784 14.9216 18.75 15.75 18.75ZM8.25 18.75H6.75C5.92157 18.75 5.25 18.0784 5.25 17.25V3.75C5.25 2.92157 5.92157 2.25 6.75 2.25H8.25C9.07843 2.25 9.75 2.92157 9.75 3.75V17.25C9.75 18.0784 9.07843 18.75 8.25 18.75Z" stroke="black" stroke-width="1.5" stroke-linecap="round" stroke-linejoin="round"/>
</svg>
