<svg width="24" height="24" viewBox="0 0 24 24" fill="none" xmlns="http://www.w3.org/2000/svg">
<path d="M20.25 18C20.25 19.2426 19.2426 20.25 18 20.25C16.7574 20.25 15.75 19.2426 15.75 18M20.25 18C20.25 16.7574 19.2426 15.75 18 15.75C16.7574 15.75 15.75 16.7574 15.75 18M20.25 18C21.0784 18 21.75 17.3284 21.75 16.5V13.1655C21.75 12.8936 21.6761 12.6269 21.5362 12.3937L19.937 9.72826C19.6659 9.27645 19.1776 9 18.6507 9H15.75M15.75 18H9M15.75 18V9M9 18C9 19.2426 7.99264 20.25 6.75 20.25C5.50736 20.25 4.5 19.2426 4.5 18M9 18C9 16.7574 7.99264 15.75 6.75 15.75C5.50736 15.75 4.5 16.7574 4.5 18M4.5 18H3.75C2.92157 18 2.25 17.3284 2.25 16.5V5.25C2.25 4.42157 2.92157 3.75 3.75 3.75H14.25C15.0784 3.75 15.75 4.42157 15.75 5.25V9M7.5 12.75H10.5V11.25H12V8.25H10.5V6.75H7.5V8.25H6V11.25H7.5V12.75Z" stroke="black" stroke-width="1.5" stroke-linecap="round" stroke-linejoin="round"/>
</svg>
