<svg width="24" height="24" viewBox="0 0 24 24" fill="none" xmlns="http://www.w3.org/2000/svg">
<path d="M9.75 12.75H10.5M10.5 12.75H13.5M10.5 12.75V7.5H13.5V9M13.5 12.75V9M13.5 12.75H16.5M13.5 9H16.5V12.75M16.5 12.75H17.25M8.1967 15.8033C9.55393 17.1605 11.4289 18 13.5 18C17.6421 18 21 14.6421 21 10.5C21 6.35786 17.6421 3 13.5 3C9.35786 3 6 6.35786 6 10.5C6 12.5711 6.83947 14.4461 8.1967 15.8033ZM8.1967 15.8033L3 21" stroke="black" stroke-width="1.5" stroke-miterlimit="1.78829" stroke-linecap="round" stroke-linejoin="round"/>
</svg>
