<svg width="24" height="24" viewBox="0 0 24 24" fill="none" xmlns="http://www.w3.org/2000/svg">
<path d="M12 21.75V9.75M3.75 14.25L6.75 12.75L6.03497 15.6101C5.63624 17.205 6.84252 18.75 8.48651 18.75C9.28189 18.75 10.0309 19.1245 10.5081 19.7608L12 21.75L13.4919 19.7608C13.9691 19.1245 14.7181 18.75 15.5135 18.75C17.1575 18.75 18.3638 17.205 17.965 15.6101L17.25 12.75L20.25 14.25M12 9.75V6.75M12 9.75H8.25M12 9.75H15.75M12 6.75C10.7574 6.75 9.75 5.74264 9.75 4.5C9.75 3.25736 10.7574 2.25 12 2.25C13.2426 2.25 14.25 3.25736 14.25 4.5C14.25 5.74264 13.2426 6.75 12 6.75Z" stroke="black" stroke-width="1.5" stroke-miterlimit="1.78829" stroke-linecap="round" stroke-linejoin="round"/>
</svg>
