<svg width="24" height="24" viewBox="0 0 24 24" fill="none" xmlns="http://www.w3.org/2000/svg">
<path d="M21.75 10.5C21.75 11.7269 21.1608 12.8158 20.25 13.5C20.2499 15.3141 18.9616 16.8275 17.25 17.175M17.25 17.175C17.0077 17.2242 16.7568 17.25 16.5 17.25C15.6558 17.25 14.8767 16.971 14.25 16.5003C13.6233 16.971 12.8442 17.25 12 17.25C11.1558 17.25 10.3767 16.971 9.75 16.5003C9.12325 16.971 8.34421 17.25 7.5 17.25C7.24315 17.25 6.99233 17.2242 6.75 17.175C5.0384 16.8276 3.75013 15.3144 3.75 13.5003C2.83916 12.8161 2.25 11.7269 2.25 10.5C2.25 9.27314 2.83917 8.18415 3.75 7.5C3.75015 5.42906 5.42902 3.75 7.5 3.75C8.3442 3.75 9.12325 4.02896 9.75 4.49973C10.3767 4.02896 11.1558 3.75 12 3.75C12.8442 3.75 13.6233 4.02896 14.25 4.49973C14.8767 4.02896 15.6558 3.75 16.5 3.75C18.571 3.75 20.2499 5.42878 20.25 7.49973C21.1608 8.18388 21.75 9.27314 21.75 10.5M21.75 10.5V17.25M6.75 17.175V20.25M9.75 16.5003L9.75 20.25M14.25 16.5003L14.25 20.25M17.25 17.175V20.25M7.5 9V12C7.5 12.8284 8.17157 13.5 9 13.5C9.82842 13.5 10.5 12.8284 10.5 12V9M6 9.75L7.5 9H10.5L12 9.75" stroke="black" stroke-width="1.5" stroke-linecap="round" stroke-linejoin="round"/>
</svg>
