<svg width="24" height="24" viewBox="0 0 24 24" fill="none" xmlns="http://www.w3.org/2000/svg">
<path d="M18.75 18C18.75 14.6863 16.0637 12 12.75 12H8.25M18.75 18V20.25M18.75 18L19.034 17.716C19.3324 17.4176 19.7371 17.25 20.159 17.25C21.0377 17.25 21.75 17.9623 21.75 18.841V19.409C21.75 20.2877 21.0377 21 20.159 21C19.7371 21 19.3324 20.8324 19.034 20.534L18.75 20.25M8.25 10.5H3.75M8.25 10.5V6C8.25 4.34315 9.59315 3 11.25 3V7.5C11.25 9.15685 9.90685 10.5 8.25 10.5ZM8.25 10.5V12M3.75 10.5V6C3.75 4.34315 5.09315 3 6.75 3V7.5C6.75 9.15685 5.40685 10.5 3.75 10.5ZM3.75 10.5V14.0313M8.25 12V14.25C8.25 15.4926 7.24264 16.5 6 16.5C4.75736 16.5 3.75 15.4926 3.75 14.25V14.0313M3.75 14.0313C2.81645 15.089 2.25 16.4783 2.25 18V21H5.25M18.75 20.25V21H11.25M11.25 21V20.25C11.25 19.0074 12.2574 18 13.5 18H15M11.25 21H8.25M5.25 21V19.5M5.25 21H8.25M8.25 21V19.5" stroke="black" stroke-width="1.5" stroke-linecap="round" stroke-linejoin="round"/>
</svg>
