<svg width="24" height="24" viewBox="0 0 24 24" fill="none" xmlns="http://www.w3.org/2000/svg">
<path d="M10.5 9V12.75M10.5 9C10.5 8.17157 11.1716 7.5 12 7.5C12.8284 7.5 13.5 8.17157 13.5 9M10.5 9V8.25M10.5 12.75V15.75M10.5 12.75H8.25M10.5 15.75C10.5 16.5784 11.1716 17.25 12 17.25C12.8284 17.25 13.5 16.5784 13.5 15.75M10.5 15.75C10.5 18.2353 8.48528 20.25 6 20.25H3.75V17.25C3.75 14.7647 5.76472 12.75 8.25 12.75M13.5 15.75V12.75M13.5 15.75C13.5 18.2353 15.5147 20.25 18 20.25H20.25V17.25C20.25 14.7647 18.2353 12.75 15.75 12.75M13.5 12.75V9M13.5 12.75H15.75M13.5 9V8.25M15.75 12.75H17.25C19.7353 12.75 21.75 10.7353 21.75 8.25V3.75H18C15.5147 3.75 13.5 5.76472 13.5 8.25M13.5 8.25V3.75M8.25 12.75H6.75C4.26472 12.75 2.25 10.7353 2.25 8.25V3.75H6C8.48528 3.75 10.5 5.76472 10.5 8.25M10.5 8.25V3.75" stroke="black" stroke-width="1.5" stroke-linecap="round" stroke-linejoin="round"/>
</svg>
