<svg width="24" height="24" viewBox="0 0 24 24" fill="none" xmlns="http://www.w3.org/2000/svg">
<path d="M16.9767 2.25C19.4017 3.86238 21 6.61954 21 9.75C21 12.2353 19.9926 14.4853 18.364 16.114M7.02331 2.25C4.59826 3.86238 3 6.61954 3 9.75C3 12.2353 4.00736 14.4853 5.63604 16.114M15.3178 4.75C16.9345 5.82492 18 7.66303 18 9.75C18 11.4069 17.3284 12.9069 16.2426 13.9926M8.68221 4.75C7.06551 5.82492 6 7.66303 6 9.75C6 11.4069 6.67157 12.9069 7.75736 13.9926M12.8951 12.6142C12.6124 12.7024 12.3117 12.75 12 12.75C11.6883 12.75 11.3876 12.7024 11.1049 12.6142M12.8951 12.6142C13.3636 12.468 13.7827 12.2099 14.1213 11.8713C14.6642 11.3284 15 10.5784 15 9.75C15 8.70651 14.4672 7.78746 13.6589 7.25C13.1837 6.93408 12.6134 6.75 12 6.75C11.3866 6.75 10.8163 6.93408 10.3411 7.25C9.53275 7.78746 9 8.70651 9 9.75C9 10.5784 9.33579 11.3284 9.87868 11.8713C10.2173 12.2099 10.6364 12.468 11.1049 12.6142M14.8125 18.75L13.8538 15.6821L12.8951 12.6142M9.1875 18.75L10.1462 15.6821L11.1049 12.6142M9.1875 18.75L8.25 21.75H15.75L14.8125 18.75M9.1875 18.75H14.8125M10.1462 15.6821H13.8538" stroke="black" stroke-width="1.5" stroke-miterlimit="1.78829" stroke-linecap="round" stroke-linejoin="round"/>
</svg>
