<svg width="24" height="24" viewBox="0 0 24 24" fill="none" xmlns="http://www.w3.org/2000/svg">
<path d="M15.557 6.08447C14.9391 3.87257 12.909 2.25 10.5 2.25C7.95747 2.25 5.83708 4.05737 5.35352 6.45743M15.557 6.08447C15.6003 6.07661 15.6438 6.06928 15.6875 6.06249C15.9523 6.02135 16.2237 6 16.5 6C19.3995 6 21.75 8.35051 21.75 11.25C21.75 11.7712 21.674 12.2747 21.5326 12.75M15.557 6.08447C14.9223 6.19958 14.3275 6.42876 13.7943 6.75M5.35352 6.45743L5.38612 6.44293C6.03286 6.15812 6.74797 6 7.5 6C8.48975 6 9.41553 6.27389 10.2057 6.75M5.35352 6.45743C3.52418 7.278 2.25 9.1152 2.25 11.25C2.25 12.719 2.85335 14.0471 3.82576 15M13.5 19.5V16.5H15C15.8284 16.5 16.5 17.1716 16.5 18C16.5 18.8284 15.8284 19.5 15 19.5H13.5ZM13.5 19.5V22.5M19.5 16.5H21M21 16.5H22.5M21 16.5V22.5M21 22.5H19.5M21 22.5H22.5M7.5 22.5V19.5M7.5 19.5V18C7.5 17.1716 8.17157 16.5 9 16.5C9.82843 16.5 10.5 17.1716 10.5 18V19.5M7.5 19.5H10.5M10.5 19.5V22.5" stroke="black" stroke-width="1.5" stroke-linecap="round" stroke-linejoin="round"/>
</svg>
