<svg width="24" height="24" viewBox="0 0 24 24" fill="none" xmlns="http://www.w3.org/2000/svg">
<path d="M15.7096 6.9647C15.9015 6.9647 16.2286 6.99404 16.6909 7.05271C17.1533 7.11138 17.6592 7.27901 18.2088 7.55561C18.7671 7.82382 19.273 8.27224 19.7266 8.90087C19.7004 8.92602 19.5739 9.01821 19.3471 9.17747C19.1203 9.32834 18.8674 9.55464 18.5882 9.85638C18.3091 10.1497 18.0648 10.5269 17.8555 10.9879C17.6461 11.4405 17.5414 11.9811 17.5414 12.6098C17.5414 13.3306 17.6723 13.9425 17.934 14.4454C18.2044 14.9483 18.5141 15.3548 18.863 15.6649C19.2207 15.9666 19.5347 16.1887 19.8051 16.3312C20.0843 16.4737 20.2326 16.5492 20.25 16.5575C20.2413 16.5911 20.1279 16.8886 19.9098 17.4502C19.7004 18.0118 19.3515 18.6362 18.863 19.3235C18.4356 19.9186 17.9732 20.4676 17.476 20.9705C16.9875 21.4734 16.3987 21.7249 15.7096 21.7249C15.2472 21.7249 14.8678 21.662 14.5712 21.5363C14.2746 21.4022 13.9693 21.2722 13.6552 21.1465C13.3412 21.0124 12.9181 20.9454 12.386 20.9454C11.8713 20.9454 11.4395 21.0124 11.0906 21.1465C10.7504 21.2806 10.4233 21.4147 10.1092 21.5488C9.80393 21.6829 9.44191 21.75 9.0232 21.75C8.3864 21.75 7.82811 21.5069 7.34833 21.0208C6.86856 20.5347 6.37569 19.9521 5.86975 19.2732C5.28529 18.4686 4.7837 17.4879 4.36499 16.3312C3.955 15.1662 3.75 13.9927 3.75 12.8109C3.75 11.5453 3.99861 10.485 4.49584 9.63008C4.99306 8.76676 5.62986 8.11718 6.40623 7.68133C7.19132 7.2371 8.00258 7.01499 8.84001 7.01499C9.28489 7.01499 9.70361 7.08623 10.0962 7.22872C10.4887 7.36283 10.8551 7.50113 11.1953 7.64362C11.5442 7.78611 11.8582 7.85735 12.1374 7.85735C12.4078 7.85735 12.7218 7.78191 13.0795 7.63104C13.4372 7.48017 13.8384 7.33349 14.2833 7.19101C14.7282 7.04014 15.2036 6.9647 15.7096 6.9647ZM14.9899 5.36799C14.6497 5.76193 14.2222 6.093 13.7076 6.36122C13.1929 6.62105 12.7044 6.75097 12.2421 6.75097C12.1461 6.75097 12.0545 6.74259 11.9673 6.72582C11.9586 6.70068 11.9498 6.65458 11.9411 6.58752C11.9324 6.52047 11.928 6.44923 11.928 6.37379C11.928 5.87089 12.0414 5.38475 12.2682 4.91538C12.495 4.43762 12.7524 4.04368 13.0402 3.73356C13.4066 3.31447 13.869 2.96663 14.4272 2.69004C14.9855 2.41344 15.5176 2.26676 16.0236 2.25C16.0498 2.35896 16.0628 2.48888 16.0628 2.63975C16.0628 3.14265 15.9625 3.63298 15.7619 4.11074C15.5613 4.58011 15.3039 4.99919 14.9899 5.36799Z" stroke="black" stroke-width="1.5" stroke-linecap="round" stroke-linejoin="round"/>
</svg>
