<svg width="24" height="24" viewBox="0 0 24 24" fill="none" xmlns="http://www.w3.org/2000/svg">
<path d="M21 9V4.5C21 3.67157 20.3284 3 19.5 3H15C14.1716 3 13.5 3.67157 13.5 4.5V9C13.5 9.82843 14.1716 10.5 15 10.5H19.5C20.3284 10.5 21 9.82843 21 9Z" stroke="black" stroke-width="1.5" stroke-miterlimit="1.78829" stroke-linecap="round" stroke-linejoin="round"/>
<path d="M10.5 9V4.5C10.5 3.67157 9.82843 3 9 3H4.5C3.67157 3 3 3.67157 3 4.5V9C3 9.82843 3.67157 10.5 4.5 10.5H9C9.82843 10.5 10.5 9.82843 10.5 9Z" stroke="black" stroke-width="1.5" stroke-miterlimit="1.78829" stroke-linecap="round" stroke-linejoin="round"/>
<path d="M3 19.5V15C3 14.1716 3.67157 13.5 4.5 13.5H9C9.82843 13.5 10.5 14.1716 10.5 15V19.5C10.5 20.3284 9.82843 21 9 21H4.5C3.67157 21 3 20.3284 3 19.5Z" stroke="black" stroke-width="1.5" stroke-miterlimit="1.78829" stroke-linecap="round" stroke-linejoin="round"/>
<path d="M13.5 19.5V15C13.5 14.1716 14.1716 13.5 15 13.5H19.5C20.3284 13.5 21 14.1716 21 15V19.5C21 20.3284 20.3284 21 19.5 21H15C14.1716 21 13.5 20.3284 13.5 19.5Z" stroke="black" stroke-width="1.5" stroke-miterlimit="1.78829" stroke-linecap="round" stroke-linejoin="round"/>
</svg>
