<svg width="24" height="24" viewBox="0 0 24 24" fill="none" xmlns="http://www.w3.org/2000/svg">
<path d="M17.25 18.6542V18.75C17.25 19.5785 16.5784 20.25 15.75 20.25H3.75C2.92157 20.25 2.25 19.5785 2.25 18.75V6.75004H16.1956M16.1956 6.75004L17.25 18.6542L17.2708 18.8885C17.3439 19.7137 18.0721 20.3234 18.8973 20.2503L20.3914 20.118C21.2166 20.0449 21.8263 19.3167 21.7532 18.4915L20.5671 5.10184C20.4885 4.28237 19.7631 3.67854 18.9417 3.7513L17.4475 3.88366C16.6223 3.95675 16.0126 4.68496 16.0857 5.51016L16.1956 6.75004ZM7.5 15H12C12.8284 15 13.5 14.3285 13.5 13.5C13.5 12.6716 12.8284 12 12 12H7.5C6.67157 12 6 12.6716 6 13.5C6 14.3285 6.67157 15 7.5 15Z" stroke="black" stroke-width="1.5" stroke-linecap="round" stroke-linejoin="round"/>
</svg>
