<svg width="24" height="24" viewBox="0 0 24 24" fill="none" xmlns="http://www.w3.org/2000/svg">
<path d="M3.75 8.25V18.75C3.75 19.5784 4.42157 20.25 5.25 20.25H11.6341M3.75 8.25H20.25M3.75 8.25C2.92157 8.25 2.25 7.57843 2.25 6.75V5.25C2.25 4.42157 2.92157 3.75 3.75 3.75H20.25C21.0784 3.75 21.75 4.42157 21.75 5.25V6.75C21.75 7.57843 21.0784 8.25 20.25 8.25M20.25 8.25V11.6341M11.9516 15H9.75C8.92157 15 8.25 14.3284 8.25 13.5C8.25 12.6716 8.92157 12 9.75 12H14.25C14.4241 12 14.5913 12.0297 14.7468 12.0842M18.75 14.25V19.5M16.5 16.5L18.75 14.25L21 16.5M15 20.25V21C15 21.8284 15.6716 22.5 16.5 22.5H21C21.8284 22.5 22.5 21.8284 22.5 21V20.25" stroke="black" stroke-width="1.5" stroke-miterlimit="1.78829" stroke-linecap="round" stroke-linejoin="round"/>
</svg>
