<svg width="24" height="24" viewBox="0 0 24 24" fill="none" xmlns="http://www.w3.org/2000/svg">
<path d="M3.75 8.25V18.75C3.75 19.5784 4.42157 20.25 5.25 20.25H18.75C19.5784 20.25 20.25 19.5784 20.25 18.75V8.25M3.75 8.25H20.25M3.75 8.25C2.92157 8.25 2.25 7.57843 2.25 6.75V5.25C2.25 4.42157 2.92157 3.75 3.75 3.75H20.25C21.0784 3.75 21.75 4.42157 21.75 5.25V6.75C21.75 7.57843 21.0784 8.25 20.25 8.25M9.75 15H14.25C15.0784 15 15.75 14.3284 15.75 13.5C15.75 12.6716 15.0784 12 14.25 12H9.75C8.92157 12 8.25 12.6716 8.25 13.5C8.25 14.3284 8.92157 15 9.75 15Z" stroke="black" stroke-width="1.5" stroke-linecap="round" stroke-linejoin="round"/>
</svg>
