<svg width="24" height="24" viewBox="0 0 24 24" fill="none" xmlns="http://www.w3.org/2000/svg">
<path d="M2.25 12V19.5C2.25 20.3284 2.92157 21 3.75 21H5.25C6.07843 21 6.75 20.3284 6.75 19.5V12C6.75 11.1716 6.07843 10.5 5.25 10.5H3.75C2.92157 10.5 2.25 11.1716 2.25 12Z" stroke="black" stroke-width="1.5" stroke-linecap="round" stroke-linejoin="round"/>
<path d="M12.75 17.25H11.25C10.4216 17.25 9.75 16.5784 9.75 15.75V8.25C9.75 7.42157 10.4216 6.75 11.25 6.75H12.75C13.5784 6.75 14.25 7.42157 14.25 8.25V15.75C14.25 16.5784 13.5784 17.25 12.75 17.25Z" stroke="black" stroke-width="1.5" stroke-linecap="round" stroke-linejoin="round"/>
<path d="M20.25 13.5H18.75C17.9216 13.5 17.25 12.8284 17.25 12V4.5C17.25 3.67157 17.9216 3 18.75 3H20.25C21.0784 3 21.75 3.67157 21.75 4.5V12C21.75 12.8284 21.0784 13.5 20.25 13.5Z" stroke="black" stroke-width="1.5" stroke-linecap="round" stroke-linejoin="round"/>
</svg>
