<svg width="24" height="24" viewBox="0 0 24 24" fill="none" xmlns="http://www.w3.org/2000/svg">
<path d="M9 14.25C6.10051 14.25 3.75 11.8995 3.75 9C3.75 6.10051 6.10051 3.75 9 3.75C10.1154 3.75 11.1496 4.09786 12 4.69102C13.3601 5.63973 14.25 7.21594 14.25 9C14.25 10.7841 13.3601 12.3603 12 13.309C11.1496 13.9021 10.1154 14.25 9 14.25ZM9 14.25H6.75C4.26472 14.25 2.25 16.2647 2.25 18.75C2.25 19.5784 2.92157 20.25 3.75 20.25H14.25C15.0784 20.25 15.75 19.5784 15.75 18.75C15.75 16.5203 14.1283 14.6693 12 14.3122C11.7561 14.2713 11.5055 14.25 11.25 14.25H9ZM19.3352 9.56679C19.0225 9.98776 18.75 10.7214 18.75 12C18.75 15.3057 19.1547 18.2067 19.3696 19.5137C19.4403 19.944 19.8139 20.2501 20.25 20.2501C20.6861 20.2501 21.0597 19.944 21.1304 19.5137C21.3453 18.2067 21.75 15.3058 21.75 12C21.75 10.8157 21.5162 10.0989 21.2332 9.66509M21.2332 9.66509C21.6182 9.52312 21.9291 9.21286 22.0642 8.80762L22.1106 8.66826C22.3257 8.02308 21.977 7.32571 21.3318 7.11064C20.7214 6.90717 20.3705 6.26803 20.5266 5.64379L21 3.75L19.1795 4.84234C18.0675 5.50953 17.6041 6.88512 18.0857 8.08916L18.2103 8.40088C18.4229 8.9323 18.8325 9.3444 19.3352 9.56679C19.6033 9.6854 19.8978 9.75005 20.2031 9.75005H20.7566C20.9227 9.75005 21.0836 9.72029 21.2332 9.66509Z" stroke="black" stroke-width="1.5" stroke-linecap="round" stroke-linejoin="round"/>
</svg>
