<svg width="24" height="24" viewBox="0 0 24 24" fill="none" xmlns="http://www.w3.org/2000/svg">
<path d="M19.5 11.25V9.75C19.5 5.60786 16.1421 2.25 12 2.25C7.85786 2.25 4.5 5.60786 4.5 9.75V11.25H7.75606M12 14.25C10.0407 14.25 8.37381 12.9978 7.75606 11.25M12 14.25C14.4853 14.25 16.5 12.2353 16.5 9.75C16.5 7.26472 14.4853 5.25 12 5.25C9.51472 5.25 7.5 7.26472 7.5 9.75C7.5 10.276 7.59023 10.7808 7.75606 11.25M12 14.25H14.25C17.5637 14.25 20.25 16.9363 20.25 20.25C20.25 21.0784 19.5784 21.75 18.75 21.75H5.25C4.42157 21.75 3.75 21.0784 3.75 20.25C3.75 16.9363 6.43629 14.25 9.75 14.25H12ZM7.75606 11.25H11.25" stroke="black" stroke-width="1.5" stroke-linecap="round" stroke-linejoin="round"/>
</svg>
