<svg width="24" height="24" viewBox="0 0 24 24" fill="none" xmlns="http://www.w3.org/2000/svg">
<path d="M16.3452 12C16.3452 17.3848 14.4051 21.75 12.0119 21.75C9.61862 21.75 7.67852 17.3848 7.67852 12C7.67852 6.61522 9.61862 2.25 12.0119 2.25C14.4051 2.25 16.3452 6.61522 16.3452 12Z" stroke="black" stroke-width="1.5" stroke-linecap="round" stroke-linejoin="round"/>
<path d="M14.1785 15.753C9.5152 18.4454 4.76475 18.9478 3.56813 16.8752C2.37152 14.8026 5.18186 10.9398 9.84522 8.24744C14.5086 5.55506 19.259 5.05262 20.4556 7.12522C21.6522 9.19782 18.8419 13.0606 14.1785 15.753Z" stroke="black" stroke-width="1.5" stroke-linecap="round" stroke-linejoin="round"/>
<path d="M9.84522 15.753C5.18186 13.0606 2.37152 9.19782 3.56813 7.12522C4.76475 5.05262 9.5152 5.55506 14.1785 8.24744C18.8419 10.9398 21.6522 14.8026 20.4556 16.8752C19.259 18.9478 14.5086 18.4454 9.84522 15.753Z" stroke="black" stroke-width="1.5" stroke-linecap="round" stroke-linejoin="round"/>
</svg>
