<svg width="24" height="24" viewBox="0 0 24 24" fill="none" xmlns="http://www.w3.org/2000/svg">
<path d="M6.75 13.5V9.14448C6.75 8.6505 6.34955 8.25005 5.85556 8.25005C5.48982 8.25005 5.16093 8.47272 5.0251 8.8123L3.15 13.5M6.75 13.5V15.75M6.75 13.5H3.15M16.5 6.75005C16.5 6.75005 18.75 8.25005 18.75 12C18.75 15.75 16.5 17.25 16.5 17.25M2.25 15.75L3.15 13.5M18.75 4.5C18.75 4.5 21.75 6.40567 21.75 12C21.75 17.5944 18.75 19.5 18.75 19.5M9.75 15.75V8.25005H11.25C12.9069 8.25005 14.25 9.59319 14.25 12C14.25 14.4069 12.9069 15.75 11.25 15.75H9.75Z" stroke="black" stroke-width="1.5" stroke-linecap="round" stroke-linejoin="round"/>
</svg>
