<svg width="24" height="24" viewBox="0 0 24 24" fill="none" xmlns="http://www.w3.org/2000/svg">
<g clip-path="url(#clip0_610_63)">
<path d="M6.75 13.5V9.14444C6.75 8.65045 6.34955 8.25 5.85556 8.25C5.48982 8.25 5.16093 8.47267 5.0251 8.81225L3.15 13.5M6.75 13.5V15.75M6.75 13.5H3.15M9.75 9.75V15.75H11.25C12.4 15.75 13.3988 15.103 13.9023 13.9023M9.75 9.75L0.75 0.75M9.75 9.75L13.9023 13.9023M16.5 6.75C16.5 6.75 18.75 8.25 18.75 12C18.75 12.7604 18.6575 13.4283 18.51 14.01M16.9054 16.9054C16.6649 17.1401 16.5 17.25 16.5 17.25M16.9054 16.9054L13.9023 13.9023M16.9054 16.9054L19.165 19.165M2.25 15.75L3.15 13.5M18.75 4.49995C18.75 4.49995 21.75 6.40562 21.75 12C21.75 13.8814 21.4107 15.3455 20.9604 16.4604M19.165 19.165C18.9139 19.3959 18.75 19.5 18.75 19.5M19.165 19.165L23.25 23.25" stroke="black" stroke-width="1.5" stroke-linecap="round" stroke-linejoin="round"/>
</g>
<defs>
<clipPath id="clip0_610_63">
<rect width="24" height="24" fill="white"/>
</clipPath>
</defs>
</svg>
