<svg width="24" height="24" viewBox="0 0 24 24" fill="none" xmlns="http://www.w3.org/2000/svg">
<path d="M8.25 8.25V7.5C8.25 6.67157 8.92157 6 9.75 6C10.5784 6 11.25 6.67157 11.25 7.5V8.25M8.25 8.25V9C8.25 9.82843 8.92157 10.5 9.75 10.5C10.5784 10.5 11.25 9.82843 11.25 9V8.25M8.25 8.25L3 7.5M3 7.5V4.5C3 3.67157 3.67157 3 4.5 3H15C15.8284 3 16.5 3.67157 16.5 4.5V6M3 7.5V12C3 12.8284 3.67157 13.5 4.5 13.5M11.25 8.25L16.5 7.5M16.5 7.5V12C16.5 12.8284 15.8284 13.5 15 13.5M16.5 7.5V6M15 13.5V16.5M15 13.5H4.5M15 16.5H4.5M15 16.5C15.8284 16.5 16.5 17.1716 16.5 18V18.75M4.5 13.5V16.5M4.5 16.5C3.67157 16.5 3 17.1716 3 18V19.5C3 20.3284 3.67157 21 4.5 21H15C15.8284 21 16.5 20.3284 16.5 19.5V18.75M16.5 6L17.4875 4.02492C17.8016 3.39678 18.4436 3 19.1459 3C20.1699 3 21 3.83011 21 4.8541V10.6647C21 12.4943 20.3455 14.2636 19.1548 15.6528L16.5 18.75" stroke="black" stroke-width="1.5" stroke-linecap="round" stroke-linejoin="round"/>
</svg>
