<svg width="24" height="24" viewBox="0 0 24 24" fill="none" xmlns="http://www.w3.org/2000/svg">
<path d="M17.25 7.5V5.25C17.25 4.42157 16.5784 3.75 15.75 3.75H3.75C2.92157 3.75 2.25 4.42157 2.25 5.25V18.75C2.25 19.5784 2.92157 20.25 3.75 20.25H15.75C16.5784 20.25 17.25 19.5784 17.25 18.75V16.5M17.25 7.5H20.25C21.0784 7.5 21.75 8.17157 21.75 9V15C21.75 15.8284 21.0784 16.5 20.25 16.5H17.25M17.25 7.5H14.25C13.4216 7.5 12.75 8.17157 12.75 9V15C12.75 15.8284 13.4216 16.5 14.25 16.5H17.25" stroke="black" stroke-width="1.5" stroke-linecap="round" stroke-linejoin="round"/>
</svg>
