<svg width="24" height="24" viewBox="0 0 24 24" fill="none" xmlns="http://www.w3.org/2000/svg">
<path d="M16.028 7.26546L17.4875 4.02492C17.8016 3.39678 18.4436 3 19.1459 3C20.1699 3 21 3.83011 21 4.8541V10.6647C21 12.4943 20.3455 14.2636 19.1548 15.6528L16.5 18.75M16.028 7.26546C15.0385 4.76701 12.6006 3 9.75 3C6.02208 3 3 6.02208 3 9.75V21H16.5V18.75M16.028 7.26546C16.3326 8.03442 16.5 8.87266 16.5 9.75V18.75M6 17.25H12M12 17.25H13.5M12 17.25V18M6 12V9.75C6 7.67893 7.67893 6 9.75 6C11.8211 6 13.5 7.67893 13.5 9.75V12H14.25" stroke="black" stroke-width="1.5" stroke-linecap="round" stroke-linejoin="round"/>
</svg>
