<svg width="24" height="24" viewBox="0 0 24 24" fill="none" xmlns="http://www.w3.org/2000/svg">
<path d="M20.861 8.83056C21.4373 9.74904 21.7706 10.8355 21.7706 11.9999C21.7706 13.1332 21.4548 14.1929 20.9064 15.0955C20.8801 15.1388 20.8864 15.1945 20.9222 15.2303L21.1073 15.4155C21.7433 16.0515 21.7433 17.0825 21.1073 17.7185C20.4714 18.3544 19.4403 18.3544 18.8044 17.7185L18.4969 17.411C18.464 17.378 18.4138 17.3699 18.3718 17.3899C17.5928 17.7623 16.7206 17.9708 15.7996 17.9708H13.737C13.677 17.9708 13.6284 18.0194 13.6284 18.0794V18.6885C13.6284 19.5879 12.8993 20.317 12 20.317C11.1006 20.317 10.3715 19.5879 10.3715 18.6885V18.0794C10.3715 18.0194 10.3229 17.9708 10.263 17.9708H8.20035C7.27938 17.9708 6.4071 17.7623 5.62816 17.3899C5.58616 17.3698 5.53598 17.378 5.50307 17.4109L5.19554 17.7184C4.5596 18.3544 3.52853 18.3544 2.89259 17.7184C2.25665 17.0825 2.25665 16.0514 2.89259 15.4155L3.07777 15.2303C3.11357 15.1945 3.11978 15.1388 3.0935 15.0955C2.54514 14.1928 2.22937 13.1332 2.22937 11.9999C2.22937 10.8355 2.56263 9.74907 3.13896 8.8306M20.861 8.83056L21.1073 8.58419C21.7433 7.94825 21.7433 6.91718 21.1073 6.28124C20.4714 5.64529 19.4403 5.64529 18.8044 6.28124L18.4418 6.64382M20.861 8.83056L19.731 9.96051M18.4418 6.64382C17.6453 6.25012 16.7483 6.02888 15.7996 6.02888L13.737 6.02898C13.677 6.02899 13.6284 5.98038 13.6284 5.92042V5.31129C13.6284 4.41194 12.8993 3.68286 12 3.68286C11.1006 3.68286 10.3715 4.41194 10.3715 5.31129V5.92042C10.3715 5.98038 10.3229 6.02899 10.263 6.02898L8.20035 6.02888C7.25168 6.02888 6.35467 6.25015 5.55813 6.64386M18.4418 6.64382L17.4281 7.65755M3.13896 8.8306L2.89259 8.58422C2.25665 7.94828 2.25665 6.91721 2.89259 6.28127C3.52853 5.64533 4.5596 5.64533 5.19554 6.28127L5.55813 6.64386M3.13896 8.8306L4.26891 9.96054M5.55813 6.64386L6.57186 7.65759M8.20035 10.4641C7.56785 10.6877 7.11468 11.2909 7.11467 11.9999C7.11465 12.8993 7.84373 13.6284 8.7431 13.6284C9.45212 13.6284 10.0553 13.1752 10.2789 12.5428M15.2568 12.1025C15.8751 12.3336 16.3153 12.9296 16.3152 13.6284C16.3152 14.5278 15.5862 15.2568 14.6868 15.2568C13.9778 15.2568 13.3746 14.8037 13.151 14.1712" stroke="black" stroke-width="1.5" stroke-linecap="round" stroke-linejoin="round"/>
</svg>
