<svg width="24" height="24" viewBox="0 0 24 24" fill="none" xmlns="http://www.w3.org/2000/svg">
<path d="M12.0001 12V18.75M12.0001 12L18 8.66674M12.0001 12L6.00013 8.66676M6.00013 8.66676L12.0001 5.33348L18 8.66674V15.4167L12.0001 18.75L6.00013 15.4168V8.66676ZM21 6.75V4.5C21 3.67157 20.3284 3 19.5 3H17.25M21 17.25V19.5C21 20.3284 20.3284 21 19.5 21H17.25M3 6.75V4.5C3 3.67157 3.67157 3 4.5 3H6.75M3 17.25V19.5C3 20.3284 3.67157 21 4.5 21H6.75" stroke="black" stroke-width="1.5" stroke-linecap="round" stroke-linejoin="round"/>
</svg>
