<svg width="24" height="24" viewBox="0 0 24 24" fill="none" xmlns="http://www.w3.org/2000/svg">
<path d="M6.75 3H4.5C3.67157 3 3 3.67157 3 4.5V6.75M17.25 3H19.5C20.3284 3 21 3.67157 21 4.5V6.75M3 17.25V19.5C3 20.3284 3.67157 21 4.5 21H6.75M7.49816 17.1971C7.49938 17.2146 7.5 17.2322 7.5 17.25C7.5 17.6642 7.16421 18 6.75 18C6.33579 18 6 17.6642 6 17.25C6 16.8358 6.33579 16.5 6.75 16.5C7.14643 16.5 7.47102 16.8076 7.49816 17.1971ZM7.49816 17.1971C9.28809 16.9417 10.787 15.7835 11.5189 14.1985M11.5189 14.1985C10.5074 13.9781 9.75 13.0775 9.75 12C9.75 10.7574 10.7574 9.75 12 9.75C12.1651 9.75 12.3261 9.76779 12.4811 9.80155M11.5189 14.1985C11.6739 14.2322 11.8349 14.25 12 14.25C13.2426 14.25 14.25 13.2426 14.25 12C14.25 10.9225 13.4926 10.0219 12.4811 9.80155M16.5018 6.8029C16.5006 6.78543 16.5 6.76779 16.5 6.75C16.5 6.33579 16.8358 6 17.25 6C17.6642 6 18 6.33579 18 6.75C18 7.16421 17.6642 7.5 17.25 7.5C16.8536 7.5 16.529 7.19243 16.5018 6.8029ZM16.5018 6.8029C14.7119 7.05829 13.213 8.21649 12.4811 9.80155M18.375 22.5V18.375M18.375 18.375V14.25M18.375 18.375H22.5M18.375 18.375H14.25" stroke="black" stroke-width="1.5" stroke-miterlimit="1.78829" stroke-linecap="round" stroke-linejoin="round"/>
</svg>
