<svg width="24" height="24" viewBox="0 0 24 24" fill="none" xmlns="http://www.w3.org/2000/svg">
<path d="M5.25 17.2502H4.92116C4.23286 17.2502 3.63289 17.7186 3.46595 18.3864L3.01994 20.1704C3.0067 20.2234 3 20.2778 3 20.3324C3 20.7012 3.29898 21.0002 3.66779 21.0002L11.9445 20.9856M5.25 17.2502V8.25016M5.25 17.2502H9.75M5.25 8.25016H4.30756C3.58542 8.25016 3 7.66474 3 6.9426C3 6.37978 3.36014 5.88011 3.89407 5.70214L11.5257 3.15827C11.8336 3.05564 12.1664 3.05564 12.4743 3.15827L20.1059 5.70214C20.6399 5.88011 21 6.37978 21 6.9426C21 7.66474 20.4146 8.25016 19.6924 8.25016H18.75M5.25 8.25016H9.75M9.75 17.2502V8.25016M9.75 17.2502H11.2912M9.75 8.25016H14.25M14.25 8.25016H18.75M14.25 8.25016V12.3867M18.75 8.25016V11.2912M15.75 22.5L19.125 19.125M19.125 19.125L22.5 15.75M19.125 19.125L22.5 22.5M19.125 19.125L15.75 15.75" stroke="black" stroke-width="1.5" stroke-miterlimit="1.78829" stroke-linecap="round" stroke-linejoin="round"/>
</svg>
