<svg width="24" height="24" viewBox="0 0 24 24" fill="none" xmlns="http://www.w3.org/2000/svg">
<path d="M5.25 17.25H4.92116C4.23286 17.25 3.63289 17.7185 3.46595 18.3862L3.01994 20.1703C3.0067 20.2233 3 20.2776 3 20.3322C3 20.7011 3.29898 21 3.66779 21H20.3322C20.701 21 21 20.7011 21 20.3322C21 20.2776 20.9933 20.2233 20.9801 20.1703L20.534 18.3862C20.3671 17.7185 19.7671 17.25 19.0788 17.25H18.75M5.25 17.25V8.25004M5.25 17.25H9.75M5.25 8.25004H4.30756C3.58542 8.25004 3 7.66462 3 6.94248C3 6.37966 3.36014 5.87999 3.89407 5.70201L11.5257 3.15815C11.8336 3.05552 12.1664 3.05552 12.4743 3.15815L20.1059 5.70201C20.6399 5.87999 21 6.37966 21 6.94248C21 7.66462 20.4146 8.25004 19.6924 8.25004H18.75M5.25 8.25004H9.75M9.75 17.25V8.25004M9.75 17.25H14.25M9.75 8.25004H14.25M14.25 17.25V8.25004M14.25 17.25H18.75M14.25 8.25004H18.75M18.75 17.25V8.25004" stroke="black" stroke-width="1.5" stroke-linecap="round" stroke-linejoin="round"/>
</svg>
