<svg width="24" height="24" viewBox="0 0 24 24" fill="none" xmlns="http://www.w3.org/2000/svg">
<path d="M5.25 17.2502H4.92116C4.23286 17.2502 3.63289 17.7186 3.46595 18.3864L3.01994 20.1704C3.0067 20.2234 3 20.2778 3 20.3324C3 20.7012 3.29898 21.0002 3.66779 21.0002L11.9445 20.9856M5.25 17.2502V8.25016M5.25 17.2502H9.75M5.25 8.25016H4.30756C3.58542 8.25016 3 7.66474 3 6.9426C3 6.37978 3.36014 5.88011 3.89407 5.70214L11.5257 3.15827C11.8336 3.05564 12.1664 3.05564 12.4743 3.15827L20.1059 5.70214C20.6399 5.88011 21 6.37978 21 6.9426C21 7.66474 20.4146 8.25016 19.6924 8.25016H18.75M5.25 8.25016H9.75M9.75 17.2502V8.25016M9.75 17.2502H11.2912M9.75 8.25016H14.25M14.25 8.25016H18.75M14.25 8.25016V12.3867M18.75 8.25016V11.2912M18.3741 20.85C17.0072 20.85 15.8991 19.7419 15.8991 18.375C15.8991 17.0081 17.0072 15.9 18.3741 15.9M18.3741 20.85C19.741 20.85 20.8491 19.7419 20.8491 18.375C20.8491 17.0081 19.741 15.9 18.3741 15.9M18.3741 20.85V22.5M18.3741 15.9V14.25M22.5073 18.3668H20.8573M15.9073 18.3667H14.2573M21.305 21.2862L20.1383 20.1195M16.6381 16.6193L15.4713 15.4525M15.4713 21.2979L16.6381 20.1312M20.1383 16.631L21.305 15.4643" stroke="black" stroke-width="1.5" stroke-miterlimit="1.78829" stroke-linecap="round" stroke-linejoin="round"/>
</svg>
