<svg width="24" height="24" viewBox="0 0 24 24" fill="none" xmlns="http://www.w3.org/2000/svg">
<path d="M14.25 20.25H16.6287C17.0265 20.25 17.4107 20.0943 17.6804 19.8018C19.1649 18.1922 20.2767 16.2966 20.9598 14.25C21.4784 12.6961 21.75 11.0551 21.75 9.38604C21.75 8.75862 21.2414 8.25 20.614 8.25H17.25M17.25 8.25H12M17.25 8.25V8.95331C17.25 10.7447 17.0386 12.5222 16.6254 14.25M17.25 8.25C17.25 5.76472 15.2353 3.75 12.75 3.75H11.25C8.76472 3.75 6.75 5.76472 6.75 8.25M9.375 20.25H7.37132C6.9735 20.25 6.58928 20.0943 6.31957 19.8018C4.8351 18.1922 3.72335 16.2966 3.04023 14.25C2.52157 12.6961 2.25 11.0551 2.25 9.38604C2.25 8.75862 2.75862 8.25 3.38604 8.25H6.75M6.75 8.25H12M6.75 8.25V9.13032C6.75 10.8565 6.92972 12.572 7.28279 14.25M12 8.25V14.25M14.25 20.25H12M14.25 20.25C15.3271 18.365 16.1245 16.3439 16.6254 14.25M12 20.25H9.375M12 20.25V14.25M9.375 20.25C8.42068 18.3414 7.71927 16.3244 7.28279 14.25M3.04023 14.25H7.28279M7.28279 14.25H12M12 14.25H16.6254M16.6254 14.25H20.9598" stroke="black" stroke-width="1.5" stroke-linecap="round" stroke-linejoin="round"/>
</svg>
