<svg width="24" height="24" viewBox="0 0 24 24" fill="none" xmlns="http://www.w3.org/2000/svg">
<path d="M17.25 8.25H20.614C21.2414 8.25 21.75 8.75862 21.75 9.38604C21.75 10.3433 21.6607 11.2913 21.4866 12.219M17.25 8.25H12M17.25 8.25V8.95331C17.25 9.74119 17.2091 10.5264 17.1282 11.3058M17.25 8.25C17.25 5.76472 15.2353 3.75 12.75 3.75H11.25C8.76472 3.75 6.75 5.76472 6.75 8.25M9.375 20.25H7.37132C6.9735 20.25 6.58928 20.0943 6.31957 19.8018C4.8351 18.1922 3.72335 16.2966 3.04023 14.25C2.52157 12.6961 2.25 11.0551 2.25 9.38604C2.25 8.75862 2.75862 8.25 3.38604 8.25H6.75M6.75 8.25H12M6.75 8.25V9.13032C6.75 10.8565 6.92972 12.572 7.28279 14.25M12 8.25V14.25M9.375 20.25C8.42068 18.3414 7.71927 16.3244 7.28279 14.25M9.375 20.25H11.6341M3.04023 14.25H7.28279M7.28279 14.25H12M12 14.25H12.3867M12 14.25V14.9046M14.25 18.75L17.1439 21.6439C17.2025 21.7025 17.2975 21.7025 17.3561 21.6439L22.2656 16.7344" stroke="black" stroke-width="1.5" stroke-miterlimit="1.78829" stroke-linecap="round" stroke-linejoin="round"/>
</svg>
