<svg width="24" height="24" viewBox="0 0 24 24" fill="none" xmlns="http://www.w3.org/2000/svg">
<path d="M12 7.5V6.75M12 7.5C12 8.32843 11.3284 9 10.5 9H8.25C7.42157 9 6.75 8.32843 6.75 7.5V6.75C6.75 5.92157 7.42157 5.25 8.25 5.25H10.5C11.3284 5.25 12 5.92157 12 6.75M12 7.5C12 8.32843 12.6716 9 13.5 9H15.75C16.5784 9 17.25 8.32843 17.25 7.5V6.75C17.25 5.92157 16.5784 5.25 15.75 5.25H13.5C12.6716 5.25 12 5.92157 12 6.75M3.75 3.75V20.25C3.75 21.0784 4.42157 21.75 5.25 21.75H18.75C19.5784 21.75 20.25 21.0784 20.25 20.25V3.75C20.25 2.92157 19.5784 2.25 18.75 2.25H5.25C4.42157 2.25 3.75 2.92157 3.75 3.75Z" stroke="black" stroke-width="1.5" stroke-linecap="round" stroke-linejoin="round"/>
</svg>
