<svg width="24" height="24" viewBox="0 0 24 24" fill="none" xmlns="http://www.w3.org/2000/svg">
<path fill-rule="evenodd" clip-rule="evenodd" d="M6 3.75V20.25C6 21.0784 6.67157 21.75 7.5 21.75H16.5C17.3284 21.75 18 21.0784 18 20.25V3.75C18 2.92157 17.3284 2.25 16.5 2.25H7.5C6.67157 2.25 6 2.92157 6 3.75ZM9 7.5V6.75C9 5.92157 9.67157 5.25 10.5 5.25H13.5C14.3284 5.25 15 5.92157 15 6.75V7.5C15 8.32843 14.3284 9 13.5 9H10.5C9.67157 9 9 8.32843 9 7.5Z" stroke="black" stroke-width="1.5" stroke-linecap="round" stroke-linejoin="round"/>
</svg>
