<svg width="24" height="24" viewBox="0 0 24 24" fill="none" xmlns="http://www.w3.org/2000/svg">
<path d="M2.25 18.75V20.25M2.25 18.75H12.75M2.25 18.75V15M12.75 18.75V20.25M12.75 18.75V16.5C12.75 15.6716 12.0784 15 11.25 15H2.25M2.25 11.25V15M17.25 16.5V20.25H21.75V16.5M17.25 16.5H21.75M17.25 16.5V12M21.75 16.5V12M17.25 12V5.25H21.75V12M17.25 12H21.75M6.75 6.75V3.75H12.75V8.25M6.75 6.75V11.25H12.75V8.25M6.75 6.75C9 8.25 10.35 8.25 12.75 8.25" stroke="black" stroke-width="1.5" stroke-linecap="round" stroke-linejoin="round"/>
</svg>
