<svg width="24" height="24" viewBox="0 0 24 24" fill="none" xmlns="http://www.w3.org/2000/svg">
<path d="M9.00002 18.75H15M9.00002 18.75C9.00002 20.4069 10.3432 21.75 12 21.75C13.6569 21.75 15 20.4069 15 18.75M9.00002 18.75H3.75C4.72808 17.2829 5.25 15.5591 5.25 13.7958V12C5.25 10.136 6.00552 8.44854 7.22703 7.22703M15 18.75H18.75M10.0087 5.54851C9.84354 5.23541 9.75002 4.87863 9.75002 4.5C9.75002 3.25736 10.7574 2.25 12 2.25C13.2427 2.25 14.25 3.25736 14.25 4.5C14.25 4.87863 14.1565 5.23542 13.9913 5.54852C16.7472 6.39818 18.75 8.9652 18.75 12V13.7958C18.75 13.9516 18.7541 14.1071 18.7622 14.2622M2.25 2.25L7.22703 7.22703M7.22703 7.22703L18.75 18.75M18.75 18.75L21.75 21.75" stroke="black" stroke-width="1.5" stroke-linecap="round" stroke-linejoin="round"/>
</svg>
