<svg width="24" height="24" viewBox="0 0 24 24" fill="none" xmlns="http://www.w3.org/2000/svg">
<path d="M12 20.7635C12.2612 20.7635 12.5223 20.6954 12.7558 20.5592L20.2558 16.1842C20.7167 15.9154 21 15.422 21 14.8885V10.5001L17.6323 6.75016L12 3.47314L6.36772 6.75016L3 10.5001L3.00003 14.8885C3.00003 15.422 3.28339 15.9154 3.74422 16.1842L11.2442 20.5592C11.4777 20.6954 11.7389 20.7635 12 20.7635ZM3 10.5001L12 15.75M12 20.7635V15.75M12 15.75L21 10.5001M12 15.75L12 10.0272M12 10.0272L17.6323 6.75016M12 10.0272L6.36772 6.75016" stroke="black" stroke-width="1.5" stroke-miterlimit="1.78829" stroke-linecap="round" stroke-linejoin="round"/>
</svg>
