<svg width="24" height="24" viewBox="0 0 24 24" fill="none" xmlns="http://www.w3.org/2000/svg">
<path d="M6.75 17.25L9.31066 14.6893C9.59196 14.408 9.9735 14.25 10.3713 14.25H15.75M6.75 17.25H3.75C2.92157 17.25 2.25 16.5784 2.25 15.75V13.5C2.25 8.11522 6.61522 3.75 12 3.75C17.3848 3.75 21.75 8.11522 21.75 13.5V14.145C21.75 14.203 21.703 14.25 21.645 14.25H15.75M6.75 17.25L11.4084 19.5792C12.1493 19.9497 13.0503 19.6493 13.4208 18.9084L15.75 14.25M15.75 9C16.4461 9.40874 16.7547 9.76123 17.25 10.5" stroke="black" stroke-width="1.5" stroke-linecap="round" stroke-linejoin="round"/>
</svg>
