<svg width="24" height="24" viewBox="0 0 24 24" fill="none" xmlns="http://www.w3.org/2000/svg">
<path d="M14.8659 18.0664C16.5591 17.0867 17.6983 15.2559 17.6983 13.159M6.36694 13.159C6.36694 15.2559 7.50609 17.0867 9.1993 18.0664M9.1993 8.25155C10.0327 7.76932 11.0004 7.49332 12.0326 7.49332C13.0648 7.49332 14.0324 7.76932 14.8659 8.25155M19.427 20.0816C18.0144 20.8954 16.2184 20.9547 14.705 20.081C12.7695 18.9636 11.9246 16.6827 12.5435 14.6317M21.7879 15.9924C21.7864 14.3621 20.9398 12.7771 19.4264 11.9033C17.4597 10.7679 15.0157 11.2081 13.5562 12.8324M4.63824 20.0815C6.0508 20.8953 7.84683 20.9546 9.3602 20.0809C11.2956 18.9635 12.1406 16.6827 11.5218 14.6318M2.27734 15.9923C2.2788 14.362 3.12545 12.777 4.63882 11.9032C6.60546 10.7678 9.04944 11.208 10.5089 12.8322M9.67169 3.40405C8.26058 4.22043 7.31121 5.74618 7.31121 7.49368C7.31121 9.71388 8.84368 11.5761 10.9085 12.0804M14.3935 3.40405C15.8046 4.22043 16.754 5.74618 16.754 7.49368C16.754 9.71389 15.2215 11.5762 13.1566 12.0804M13.1566 12.0804C13.3534 12.2854 13.4947 12.5441 13.5562 12.8324C13.5788 12.9378 13.5906 13.0472 13.5906 13.1594C13.5906 13.8409 13.153 14.4203 12.5435 14.6317C12.3834 14.6873 12.2115 14.7174 12.0326 14.7174C11.8537 14.7174 11.6818 14.6873 11.5218 14.6318M13.1566 12.0804C12.8731 11.7851 12.4743 11.6013 12.0326 11.6013C11.5909 11.6013 11.1921 11.7851 10.9085 12.0804C10.7118 12.2854 10.5705 12.544 10.5089 12.8322C10.4864 12.9377 10.4745 13.0472 10.4745 13.1594C10.4745 13.841 10.9122 14.4203 11.5218 14.6318" stroke="black" stroke-width="1.5" stroke-linecap="round" stroke-linejoin="round"/>
</svg>
