<svg width="24" height="24" viewBox="0 0 24 24" fill="none" xmlns="http://www.w3.org/2000/svg">
<path d="M9.75 17.25C9.75 17.25 8.25 19.2647 8.25 21.75H18.75C18.75 19.2647 17.25 17.25 17.25 17.25M9.75 17.25L6.75 5.25M9.75 17.25H13.5M6.75 5.25V3.75C6.75 2.92157 7.42157 2.25 8.25 2.25H18.75C19.5784 2.25 20.25 2.92157 20.25 3.75V5.25L17.25 17.25M17.25 17.25H13.5M6.75 5.25H20.25M6.75 5.25C5.09315 5.25 3.75 6.59315 3.75 8.25V14.25M13.5 17.25V9.75" stroke="black" stroke-width="1.5" stroke-linecap="round" stroke-linejoin="round"/>
</svg>
