<svg width="24" height="24" viewBox="0 0 24 24" fill="none" xmlns="http://www.w3.org/2000/svg">
<path d="M21.75 18.75H21.6213C21.2235 18.75 20.842 18.908 20.5607 19.1893L19.9393 19.8107C19.658 20.092 19.2765 20.25 18.8787 20.25H18.6213C18.2235 20.25 17.842 20.092 17.5607 19.8107L17.2749 19.5249M2.25 19.5L2.56066 19.1893C2.84196 18.908 3.2235 18.75 3.62132 18.75H3.87868C4.2765 18.75 4.65804 18.908 4.93934 19.1893L5.56066 19.8107C5.84197 20.092 6.2235 20.25 6.62132 20.25H6.87868C7.2765 20.25 7.65804 20.092 7.93934 19.8107L8.56066 19.1893C8.84196 18.908 9.2235 18.75 9.62132 18.75H9.87868C10.2765 18.75 10.658 18.908 10.9393 19.1893L11.5607 19.8107C11.842 20.092 12.2235 20.25 12.6213 20.25H12.8787C13.2765 20.25 13.658 20.092 13.9393 19.8107L14.5607 19.1893C14.842 18.908 15.2235 18.75 15.6213 18.75H15.8787C16.2765 18.75 16.658 18.908 16.9393 19.1893L17.2749 19.5249M2.25 9.75H15M15 9.75H20.2418C21.3912 9.75 22.1135 10.9898 21.5467 11.9898L17.2749 19.5249M15 9.75L11.6893 6.43934C11.408 6.15803 11.0265 6 10.6287 6H8.87132C8.4735 6 8.09196 5.84196 7.81066 5.56066L6.43934 4.18934C6.15804 3.90804 5.7765 3.75 5.37868 3.75H2.25M2.25 12.75V13.5M5.25 12.75V13.5M8.25 12.75V13.5M11.25 12.75V13.5" stroke="black" stroke-width="1.5" stroke-miterlimit="1.78829" stroke-linecap="round" stroke-linejoin="round"/>
</svg>
