<svg width="24" height="24" viewBox="0 0 24 24" fill="none" xmlns="http://www.w3.org/2000/svg">
<path d="M12 3V8.25M15 5.25L12 8.25L9 5.25M6 16.5C9.96449 17.251 14.0355 17.251 18 16.5M2.25 11.7997V17.6523C2.25 18.3059 2.67237 18.8878 3.30178 19.0641C4.19393 19.3141 5.09418 19.5249 6 19.6965C9.96449 20.4475 14.0355 20.4475 18 19.6965C18.9058 19.5249 19.8061 19.3141 20.6982 19.0641C21.3276 18.8878 21.75 18.3059 21.75 17.6523V11.7997C21.75 10.785 20.7626 10.0626 19.7778 10.3075C14.6707 11.5772 9.3293 11.5772 4.22215 10.3075C3.23742 10.0626 2.25 10.785 2.25 11.7997Z" stroke="black" stroke-width="1.5" stroke-linecap="round" stroke-linejoin="round"/>
</svg>
