<svg width="24" height="24" viewBox="0 0 24 24" fill="none" xmlns="http://www.w3.org/2000/svg">
<path d="M12 15L15 12L17.2688 9.73116C17.7439 10.2062 18.4001 10.5 19.125 10.5C20.5747 10.5 21.75 9.32475 21.75 7.875C21.75 6.42525 20.5747 5.25 19.125 5.25C18.9868 5.25 18.8512 5.26068 18.7188 5.28125M18.7188 5.28125C18.7393 5.14884 18.75 5.01317 18.75 4.875C18.75 3.42525 17.5747 2.25 16.125 2.25C14.6753 2.25 13.5 3.42525 13.5 4.875C13.5 5.59987 13.7938 6.25612 14.2688 6.73116L12 9M18.7188 5.28125C17.9805 5.39594 17.344 5.8183 16.9444 6.41312M7.05559 17.5869C6.65602 18.1817 6.01952 18.6041 5.28125 18.7188C5.14884 18.7393 5.01317 18.75 4.875 18.75C3.42525 18.75 2.25 17.5747 2.25 16.125C2.25 14.6753 3.42525 13.5 4.875 13.5C5.59987 13.5 6.25612 13.7938 6.73116 14.2688L9 12L12 9M5.28125 18.7188C5.26068 18.8512 5.25 18.9868 5.25 19.125C5.25 20.5747 6.42525 21.75 7.875 21.75C9.32475 21.75 10.5 20.5747 10.5 19.125C10.5 18.4001 10.2062 17.7439 9.73116 17.2688L12 15M5.28125 5.28125C5.14884 5.26068 5.01317 5.25 4.875 5.25C3.42525 5.25 2.25 6.42525 2.25 7.875C2.25 9.32475 3.42525 10.5 4.875 10.5C5.59987 10.5 6.25612 10.2062 6.73115 9.73116L9 12M5.28125 5.28125C5.26068 5.14884 5.25 5.01317 5.25 4.875C5.25 3.42525 6.42525 2.25 7.875 2.25C9.32475 2.25 10.5 3.42525 10.5 4.875C10.5 5.59987 10.2062 6.25612 9.73116 6.73116L12 9M5.28125 5.28125C6.01952 5.39594 6.65602 5.8183 7.05559 6.41312M16.9444 17.5869C17.344 18.1817 17.9805 18.6041 18.7188 18.7188C18.8512 18.7393 18.9868 18.75 19.125 18.75C20.5747 18.75 21.75 17.5747 21.75 16.125C21.75 14.6753 20.5747 13.5 19.125 13.5C18.4001 13.5 17.7439 13.7938 17.2688 14.2688L15 12M18.7188 18.7188C18.7393 18.8512 18.75 18.9868 18.75 19.125C18.75 20.5747 17.5747 21.75 16.125 21.75C14.6753 21.75 13.5 20.5747 13.5 19.125C13.5 18.4001 13.7938 17.7439 14.2688 17.2688L12 15" stroke="black" stroke-width="1.5" stroke-linecap="round" stroke-linejoin="round"/>
</svg>
