<svg width="24" height="24" viewBox="0 0 24 24" fill="none" xmlns="http://www.w3.org/2000/svg">
<path d="M5.28125 18.7188C5.14884 18.7393 5.01317 18.75 4.875 18.75C3.42525 18.75 2.25 17.5747 2.25 16.125C2.25 14.6753 3.42525 13.5 4.875 13.5C5.59987 13.5 6.25612 13.7938 6.73116 14.2688L7.5 13.5H13.5L9.73116 17.2688C10.2062 17.7439 10.5 18.4001 10.5 19.125C10.5 20.5747 9.32475 21.75 7.875 21.75C6.42525 21.75 5.25 20.5747 5.25 19.125C5.25 18.9868 5.26068 18.8512 5.28125 18.7188ZM5.28125 18.7188C6.01952 18.6041 6.65602 18.1817 7.05559 17.5869M19.2079 5.93937C19.3411 5.95377 19.4749 5.97857 19.6084 6.01433C21.0087 6.38955 21.8397 7.82894 21.4645 9.22929C21.0893 10.6296 19.6499 11.4607 18.2496 11.0854C17.5494 10.8978 16.9915 10.4442 16.6556 9.86239L15.5513 10.5L9.75571 8.94709L14.5343 6.18815C14.1984 5.60636 14.0845 4.89643 14.2721 4.19625C14.6473 2.7959 16.0867 1.96487 17.487 2.3401C18.8874 2.71532 19.7184 4.1547 19.3432 5.55505C19.3074 5.68851 19.262 5.8168 19.2079 5.93937ZM19.2079 5.93937C18.4651 5.85908 17.7409 6.1023 17.201 6.57344M17.25 18L18 20.25M19.5 15.75L21.75 16.5M6.75 6L6 3.75M4.5 8.25L2.25 7.5" stroke="black" stroke-width="1.5" stroke-linecap="round" stroke-linejoin="round"/>
</svg>
