<svg width="24" height="24" viewBox="0 0 24 24" fill="none" xmlns="http://www.w3.org/2000/svg">
<path d="M18.7188 5.28125C18.8512 5.26068 18.9868 5.25 19.125 5.25C20.5747 5.25 21.75 6.42525 21.75 7.875C21.75 9.32475 20.5747 10.5 19.125 10.5C18.4001 10.5 17.7439 10.2062 17.2688 9.73116L9.73116 17.2688C10.2062 17.7439 10.5 18.4001 10.5 19.125C10.5 20.5747 9.32475 21.75 7.875 21.75C6.42525 21.75 5.25 20.5747 5.25 19.125C5.25 18.9868 5.26068 18.8512 5.28125 18.7188M7.05559 17.5869C6.65602 18.1817 6.01952 18.6041 5.28125 18.7188C5.14884 18.7393 5.01317 18.75 4.875 18.75C3.42525 18.75 2.25 17.5747 2.25 16.125C2.25 14.6753 3.42525 13.5 4.875 13.5C5.59987 13.5 6.25612 13.7938 6.73116 14.2688L14.2688 6.73116C13.7938 6.25612 13.5 5.59987 13.5 4.875C13.5 3.42525 14.6753 2.25 16.125 2.25C17.5747 2.25 18.75 3.42525 18.75 4.875C18.75 5.01317 18.7393 5.14884 18.7188 5.28125M18.7188 5.28125C17.9805 5.39594 17.344 5.8183 16.9444 6.41312" stroke="black" stroke-width="1.5" stroke-linecap="round" stroke-linejoin="round"/>
</svg>
