<svg width="24" height="24" viewBox="0 0 24 24" fill="none" xmlns="http://www.w3.org/2000/svg">
<path d="M15 5.25L16.8107 7.06066C17.092 7.34196 17.25 7.7235 17.25 8.12132V9.87868C17.25 10.2765 17.092 10.658 16.8107 10.9393C16.2249 11.5251 16.2249 12.4749 16.8107 13.0607C17.092 13.342 17.25 13.7235 17.25 14.1213V20.25C17.25 21.0784 16.5784 21.75 15.75 21.75H8.25C7.42157 21.75 6.75 21.0784 6.75 20.25V14.1213C6.75 13.7235 6.90804 13.342 7.18934 13.0607C7.77513 12.4749 7.77513 11.5251 7.18934 10.9393C6.90804 10.658 6.75 10.2765 6.75 9.87868V8.12132C6.75 7.7235 6.90804 7.34196 7.18934 7.06066L9 5.25M15 5.25V2.25H9V5.25M15 5.25H9" stroke="black" stroke-width="1.5" stroke-linecap="round" stroke-linejoin="round"/>
</svg>
