<svg width="24" height="24" viewBox="0 0 24 24" fill="none" xmlns="http://www.w3.org/2000/svg">
<path d="M18.75 16.5V7.5M18.75 16.5C17.5074 16.5 16.5 17.5074 16.5 18.75M18.75 16.5C19.9926 16.5 21 17.5074 21 18.75C21 19.9926 19.9926 21 18.75 21C17.5074 21 16.5 19.9926 16.5 18.75M18.75 7.5C17.5074 7.5 16.5 6.49264 16.5 5.25M18.75 7.5C19.9926 7.5 21 6.49264 21 5.25C21 4.00736 19.9926 3 18.75 3C17.5074 3 16.5 4.00736 16.5 5.25M16.5 5.25H7.5M7.5 5.25C7.5 6.49264 6.49264 7.5 5.25 7.5M7.5 5.25C7.5 4.00736 6.49264 3 5.25 3C4.00736 3 3 4.00736 3 5.25C3 6.49264 4.00736 7.5 5.25 7.5M5.25 7.5V16.5M5.25 16.5C4.00736 16.5 3 17.5074 3 18.75C3 19.9926 4.00736 21 5.25 21C6.49264 21 7.5 19.9926 7.5 18.75M5.25 16.5C6.49264 16.5 7.5 17.5074 7.5 18.75M7.5 18.75H16.5" stroke="black" stroke-width="1.5" stroke-linecap="round" stroke-linejoin="round"/>
</svg>
