<svg width="24" height="24" viewBox="0 0 24 24" fill="none" xmlns="http://www.w3.org/2000/svg">
<path d="M2.25 7.49988H4.5M2.25 11.9999H4.5M2.25 16.4999H4.5M8.46022 7.61667L11.625 9.37488L15 11.2499M15 11.2499L21.5397 7.61658M15 11.2499V20.0339M11.625 9.37488L18.375 5.62488M15 20.0339C14.749 20.0339 14.4981 19.971 14.2715 19.8452L9.02154 16.9285C8.54534 16.664 8.25 16.162 8.25 15.6173V8.38249C8.25 8.10806 8.32495 7.84449 8.46022 7.61667C8.59347 7.39226 8.78523 7.20253 9.02154 7.07125L14.2715 4.15458C14.7246 3.9029 15.2754 3.9029 15.7285 4.15458L18.375 5.62488M15 20.0339C15.251 20.0339 15.5019 19.971 15.7285 19.8452L20.9785 16.9285C21.4547 16.664 21.75 16.162 21.75 15.6173V8.38249C21.75 8.10802 21.675 7.84443 21.5397 7.61658C21.4065 7.39221 21.2147 7.20251 20.9785 7.07125L18.375 5.62488" stroke="black" stroke-width="1.5" stroke-linecap="round" stroke-linejoin="round"/>
</svg>
