<svg width="24" height="24" viewBox="0 0 24 24" fill="none" xmlns="http://www.w3.org/2000/svg">
<path d="M12.0001 4.36612L14.5716 2.86599L21.7576 7.0579L19.1862 8.55794M12.0001 4.36612L9.42846 2.86597L2.24219 7.0579L4.81369 8.55794M12.0001 4.36612L4.81369 8.55794M12.0001 4.36612L19.1862 8.55794M12.0001 12.75L4.81369 8.55794M12.0001 12.75L19.1862 8.55794M12.0001 12.75L14.5714 14.25L19.1862 11.5579M12.0001 12.75L9.42866 14.25L4.81369 11.5579M12.0001 12.75V20.7634M4.81369 8.55794L2.24219 10.0579L4.81369 11.5579M19.1862 8.55794L21.7576 10.0579L19.1862 11.5579M19.1862 11.5579V15.9464C19.1862 16.4799 18.9029 16.9732 18.4421 17.2421L12.7559 20.5591C12.5224 20.6953 12.2612 20.7634 12.0001 20.7634C11.7389 20.7634 11.4778 20.6953 11.2442 20.5591L5.55788 17.2421C5.09705 16.9732 4.81369 16.4799 4.81369 15.9464V11.5579" stroke="black" stroke-width="1.5" stroke-miterlimit="1.78829" stroke-linecap="round" stroke-linejoin="round"/>
</svg>
