<svg width="24" height="24" viewBox="0 0 24 24" fill="none" xmlns="http://www.w3.org/2000/svg">
<path d="M3.19853 7.61581C3.327 7.39161 3.51332 7.20058 3.74419 7.0659L11.2442 2.6909C11.7112 2.41846 12.2888 2.41846 12.7558 2.6909L20.2558 7.0659C20.4867 7.20058 20.673 7.39161 20.8015 7.61581C20.9294 7.83912 21 8.09535 21 8.36157V15.6385C21 16.172 20.7166 16.6653 20.2558 16.9341L12.7558 21.3091C12.5223 21.4454 12.2611 21.5135 12 21.5135M20.8015 7.61581L12 12.75M12 12.75L3.19853 7.61581M12 12.75V21.5135M3.19853 7.61581C3.07056 7.83912 3 8.09535 3 8.36157V15.6385C3 16.172 3.28337 16.6653 3.74419 16.9341L11.2442 21.3091C11.4777 21.4454 11.7389 21.5135 12 21.5135" stroke="black" stroke-width="1.5" stroke-miterlimit="1.78829" stroke-linecap="round" stroke-linejoin="round"/>
</svg>
