<svg width="24" height="24" viewBox="0 0 24 24" fill="none" xmlns="http://www.w3.org/2000/svg">
<path d="M15.75 22.5L19.125 19.125M19.125 19.125L22.5 15.75M19.125 19.125L22.5 22.5M19.125 19.125L15.75 15.75M6.14181 10.5776C4.44763 10.1679 4.27884 8.27237 4.55632 7.31048C4.96071 5.90859 6.19999 4.88793 7.66667 4.88793C7.69544 4.88793 7.72412 4.88836 7.7527 4.88921C8.1637 4.90136 8.57382 4.75907 8.89564 4.49027C9.45045 4.02688 10.1528 3.75 10.9167 3.75C11.6995 3.75 12.4165 4.04142 12.9769 4.5261C13.421 4.91029 14.0477 5.07328 14.6118 4.95433C14.8181 4.91083 15.0315 4.88793 15.25 4.88793C16.7166 4.88793 17.9548 5.90875 18.3593 7.31048M18.3593 7.31048C19.6944 7.73493 20.6667 9.03662 20.6667 10.5776C20.6667 10.6078 20.6662 10.6379 20.6654 10.6678C20.6535 11.0997 20.7884 11.5305 21.0445 11.8685C21.0857 11.9229 21.1254 11.9787 21.1635 12.0357M18.3593 7.31048C16.9963 6.92687 15.5147 7.60383 15.2816 9.03868C15.246 9.25771 15.0785 9.43966 14.867 9.43966C14.7654 9.43966 14.6685 9.39595 14.5928 9.32475C13.204 8.01776 11.1387 8.65225 10.8744 10.5776M11.6073 20.1726C11.3848 20.2233 11.1537 20.25 10.9167 20.25C10.4868 20.25 10.0771 20.1614 9.70206 20.0015C9.27019 19.8173 8.77148 19.8173 8.33961 20.0015C7.96458 20.1614 7.55487 20.25 7.125 20.25C5.3647 20.25 3.93176 18.7802 3.87712 16.9451M3.87712 16.9451C2.90558 16.3549 2.25 15.2551 2.25 13.9914C2.25 13.6029 2.3127 13.2302 2.42718 12.8827C2.55409 12.4975 2.55409 12.0714 2.42718 11.6862C2.3127 11.3388 2.25 10.966 2.25 10.5776C2.25 9.03699 3.22169 7.73525 4.55632 7.31048M3.87712 16.9451C3.87669 16.2287 4.1583 15.1174 5.06694 14.4633M12.4563 14.148C12.315 14.0898 12.1631 14.0373 12 13.9914C10.9167 13.8017 9.29167 13.9914 8.75 15.6983" stroke="black" stroke-width="1.5" stroke-miterlimit="1.78829" stroke-linecap="round" stroke-linejoin="round"/>
</svg>
