<svg width="24" height="24" viewBox="0 0 24 24" fill="none" xmlns="http://www.w3.org/2000/svg">
<path d="M14.25 19.5H21M14.25 19.5C14.25 20.7426 13.2426 21.75 12 21.75C10.7574 21.75 9.75 20.7426 9.75 19.5M14.25 19.5C14.25 18.2574 13.2426 17.25 12 17.25M9.75 19.5H3M9.75 19.5C9.75 18.2574 10.7574 17.25 12 17.25M12 17.25V14.1085M16.8918 4.83944C16.5806 3.82 15.6281 3.07759 14.5 3.07759C14.3319 3.07759 14.1678 3.09424 14.0091 3.12587C13.5752 3.21239 13.0931 3.09385 12.7514 2.81444C12.3204 2.46194 11.7688 2.25 11.1667 2.25C10.579 2.25 10.0388 2.45136 9.61203 2.78838C9.36448 2.98387 9.049 3.08735 8.73285 3.07851C8.71086 3.0779 8.6888 3.07759 8.66667 3.07759C7.53845 3.07759 6.58516 3.81988 6.27409 4.83944M16.8918 4.83944C17.9188 5.14813 18.6667 6.09481 18.6667 7.21552C18.6667 7.23747 18.6663 7.25935 18.6657 7.28115C18.6566 7.59522 18.7603 7.90853 18.9573 8.15437C19.2969 8.57814 19.5 9.11455 19.5 9.69828C19.5 11.0695 18.3807 12.181 17 12.181C16.9776 12.181 16.9554 12.1807 16.9332 12.1801C16.6169 12.171 16.3013 12.274 16.0537 12.4697C15.6272 12.8069 15.0876 13.0086 14.5 13.0086C14.1243 13.0086 13.7691 12.9241 13.4494 12.7767M16.8918 4.83944C15.8433 4.56045 14.7036 5.05279 14.5243 6.09631C14.4968 6.19674 14.2195 6.38412 13.9945 6.30436C13.1501 5.5531 11.9807 5.68385 11.4271 6.46301M13.4494 12.7767C13.0597 13.6444 12.1852 14.25 11.1667 14.25C10.836 14.25 10.5208 14.1856 10.2324 14.0692C9.90015 13.9353 9.51653 13.9353 9.18432 14.0693C8.89583 14.1856 8.58067 14.25 8.25 14.25C6.89592 14.25 5.79366 13.181 5.75163 11.8464M13.4494 12.7767C13.6859 12.2335 13.854 11.2628 13.3225 10.5259M5.75163 11.8464C5.00429 11.4172 4.5 10.6173 4.5 9.69828C4.5 9.41577 4.54823 9.1447 4.63629 8.892C4.73391 8.61184 4.73391 8.30195 4.63629 8.0218C4.54823 7.76909 4.5 7.49802 4.5 7.21552C4.5 6.09509 5.24745 5.14837 6.27409 4.83944M5.75163 11.8464C5.75141 11.499 5.84766 11.0238 6.11909 10.6047M6.27409 4.83944C6.00867 5.70937 6.27409 7.62931 8.66667 7.21552M13.3225 10.5259C13.0669 10.1715 12.6494 9.8711 12 9.69828C11.2233 9.56971 10.0845 9.68081 9.59603 10.7018M13.3225 10.5259C13.6009 9.18699 14.7446 8.38962 16.0537 8.79081" stroke="black" stroke-width="1.5" stroke-linecap="round" stroke-linejoin="round"/>
</svg>
