<svg width="24" height="24" viewBox="0 0 24 24" fill="none" xmlns="http://www.w3.org/2000/svg">
<path d="M7.64883 5.26025L10.3459 11.9569C10.357 11.9845 10.357 12.0156 10.3459 12.0433L7.64883 18.7399M7.64883 5.26025H2.38286C2.30538 5.26025 2.25284 5.3418 2.28263 5.41579L4.91701 11.9569C4.92815 11.9845 4.92815 12.0156 4.91701 12.0433L2.28263 18.5844C2.25284 18.6584 2.30538 18.7399 2.38286 18.7399H7.64883M7.64883 5.26025H13.6206M7.64883 18.7399H13.6206M13.6206 5.26025H18.977C19.0208 5.26025 19.0604 5.28752 19.0772 5.32938L21.7464 11.9569C21.7575 11.9845 21.7575 12.0156 21.7464 12.0433L19.0772 18.6708C19.0604 18.7126 19.0208 18.7399 18.977 18.7399H13.6206M13.6206 5.26025L16.3176 11.9569C16.3287 11.9845 16.3287 12.0156 16.3176 12.0433L13.6206 18.7399" stroke="black" stroke-width="1.5" stroke-miterlimit="1.78829" stroke-linecap="round" stroke-linejoin="round"/>
</svg>
