<svg width="24" height="24" viewBox="0 0 24 24" fill="none" xmlns="http://www.w3.org/2000/svg">
<path d="M6.75 6.75H3.75C2.92157 6.75 2.25 7.42157 2.25 8.25V12M6.75 6.75L7.49567 4.88583C7.95126 3.74685 9.05439 3 10.2811 3H13.7189C14.9456 3 16.0487 3.74685 16.5043 4.88583L17.25 6.75M6.75 6.75H17.25M17.25 6.75H20.25C21.0784 6.75 21.75 7.42157 21.75 8.25V12M13.5 12.75V12C13.5 11.1716 12.8284 10.5 12 10.5C11.1716 10.5 10.5 11.1716 10.5 12V12.75M13.5 12.75V13.5C13.5 14.3284 12.8284 15 12 15C11.1716 15 10.5 14.3284 10.5 13.5V12.75M13.5 12.75L21.75 12M21.75 12V18.75C21.75 19.5784 21.0784 20.25 20.25 20.25H3.75C2.92157 20.25 2.25 19.5784 2.25 18.75V12M10.5 12.75L2.25 12" stroke="black" stroke-width="1.5" stroke-linecap="round" stroke-linejoin="round"/>
</svg>
