<svg width="24" height="24" viewBox="0 0 24 24" fill="none" xmlns="http://www.w3.org/2000/svg">
<path d="M12 5.25L12 2.25M12 18.75L12 21.75M18.7575 11.9925L21.7575 11.9925M5.2575 11.9925L2.2575 11.9925M16.7858 16.7678L18.9071 18.8892M7.23983 7.22191L5.11852 5.10058M7.23984 16.7784L5.11852 18.8998M16.7858 7.2325L18.9071 5.11118M12 15.75C9.92894 15.75 8.25001 14.0711 8.25001 12C8.25001 9.92893 9.92894 8.25 12 8.25C14.0711 8.25 15.75 9.92893 15.75 12C15.75 14.0711 14.0711 15.75 12 15.75Z" stroke="black" stroke-width="1.5" stroke-miterlimit="1.78829" stroke-linecap="round" stroke-linejoin="round"/>
</svg>
