<svg width="24" height="24" viewBox="0 0 24 24" fill="none" xmlns="http://www.w3.org/2000/svg">
<path d="M6.75 12C6.75 9.10051 9.1005 6.75 12 6.75M6.75 12C6.75 14.8995 9.1005 17.25 12 17.25M6.75 12H10.125M12 6.75C14.8995 6.75 17.25 9.10051 17.25 12M12 6.75C10.9645 6.75 10.125 9.10051 10.125 12M12 6.75C13.0355 6.75 13.875 9.10051 13.875 12M12 17.25C14.8995 17.25 17.25 14.8995 17.25 12M12 17.25C10.9645 17.25 10.125 14.8995 10.125 12M12 17.25C13.0355 17.25 13.875 14.8995 13.875 12M17.25 12H13.875M13.875 12H10.125M5.25 3.75H18.75C20.4069 3.75 21.75 5.09315 21.75 6.75V17.25C21.75 18.9069 20.4069 20.25 18.75 20.25H5.25C3.59315 20.25 2.25 18.9069 2.25 17.25V6.75C2.25 5.09315 3.59315 3.75 5.25 3.75Z" stroke="black" stroke-width="1.5" stroke-miterlimit="1.78829" stroke-linecap="round" stroke-linejoin="round"/>
</svg>
