<svg width="24" height="24" viewBox="0 0 24 24" fill="none" xmlns="http://www.w3.org/2000/svg">
<path d="M8.99994 12.75C8.99994 12.75 8.84656 10.6026 9.02535 8.25M8.99994 12.75C9.41416 12.75 9.74994 13.0858 9.74994 13.5C9.74994 13.9142 9.41416 14.25 8.99994 14.25C8.58573 14.25 8.24994 13.9142 8.24994 13.5C8.24994 13.0858 8.58573 12.75 8.99994 12.75ZM9.02535 8.25C9.24192 5.40048 9.94583 2.25 11.9999 2.25C14.0541 2.25 14.758 5.40048 14.9745 8.25M9.02535 8.25H5.52063C4.59373 8.25 3.88866 9.0823 4.04104 9.9966L5.79104 20.4966C5.91159 21.2199 6.53738 21.75 7.27063 21.75H16.7293C17.4625 21.75 18.0883 21.2199 18.2088 20.4966L19.9588 9.9966C20.1112 9.0823 19.4062 8.25 18.4793 8.25H14.9745M9.02535 8.25H14.9745" stroke="black" stroke-width="1.5" stroke-linecap="round" stroke-linejoin="round"/>
</svg>
