<svg width="24" height="24" viewBox="0 0 24 24" fill="none" xmlns="http://www.w3.org/2000/svg">
<path d="M12 18V13.5M15.75 18V10.5M8.25 18V16.5M16.5 4.5V5.25C16.5 6.07843 15.8284 6.75 15 6.75H9C8.17157 6.75 7.5 6.07843 7.5 5.25V4.5M16.5 4.5V3.75C16.5 2.92157 15.8284 2.25 15 2.25H9C8.17157 2.25 7.5 2.92157 7.5 3.75V4.5M16.5 4.5H18.75C19.5784 4.5 20.25 5.17157 20.25 6V20.25C20.25 21.0784 19.5784 21.75 18.75 21.75H5.25C4.42157 21.75 3.75 21.0784 3.75 20.25V6C3.75 5.17157 4.42157 4.5 5.25 4.5H7.5" stroke="black" stroke-width="1.5" stroke-linecap="round" stroke-linejoin="round"/>
</svg>
