<svg width="24" height="24" viewBox="0 0 24 24" fill="none" xmlns="http://www.w3.org/2000/svg">
<path d="M14.6517 4.84835C13.973 4.16973 13.0355 3.75 12 3.75C10.9645 3.75 10.027 4.16973 9.34835 4.84835C8.66973 5.52697 8.25 6.46447 8.25 7.5V8.25M8.25 8.25H15.75M8.25 8.25C7.42157 8.25 6.75 8.92157 6.75 9.75M15.75 8.25V7.5C15.75 6.46447 15.3303 5.52697 14.6517 4.84835M15.75 8.25C16.5784 8.25 17.25 8.92157 17.25 9.75M14.6517 4.84835L17.25 2.25M9.34835 4.84835L6.75 2.25M21.75 9.75L21.3642 10.7146C21.2022 11.1196 20.9847 11.491 20.7226 11.8216M19.5 5.25V5.54584C19.5 7.23525 18.6557 8.81288 17.25 9.75M2.25 9.75L2.63583 10.7146C3.30875 12.3969 4.9381 13.5 6.75 13.5M6.75 9.75V13.5M6.75 9.75C5.34432 8.81288 4.5 7.23525 4.5 5.54584V5.25M6.75 13.5V15.75M6.75 15.75V16.5C6.75 19.3995 9.10051 21.75 12 21.75C12.127 21.75 12.253 21.7455 12.3777 21.7366M6.75 15.75C4.9114 16.6693 3.75 18.5485 3.75 20.6041V21.75M17.25 9.75V11.2912M14.25 18.75L17.1439 21.6439C17.2025 21.7025 17.2975 21.7025 17.3561 21.6439L22.2656 16.7344" stroke="black" stroke-width="1.5" stroke-miterlimit="1.78829" stroke-linecap="round" stroke-linejoin="round"/>
</svg>
