<svg width="24" height="24" viewBox="0 0 24 24" fill="none" xmlns="http://www.w3.org/2000/svg">
<path d="M14.6517 4.84835C13.973 4.16973 13.0355 3.75 12 3.75C10.9645 3.75 10.027 4.16973 9.34835 4.84835C8.66973 5.52697 8.25 6.46447 8.25 7.5V8.25M8.25 8.25H15.75M8.25 8.25C7.42157 8.25 6.75 8.92157 6.75 9.75M15.75 8.25V7.5C15.75 6.46447 15.3303 5.52697 14.6517 4.84835M15.75 8.25C16.5784 8.25 17.25 8.92157 17.25 9.75M14.6517 4.84835L17.25 2.25M9.34835 4.84835L6.75 2.25M17.25 15.75V16.5C17.25 19.3995 14.8995 21.75 12 21.75C9.10051 21.75 6.75 19.3995 6.75 16.5V15.75M17.25 15.75V13.5M17.25 15.75C19.0886 16.6693 20.25 18.5485 20.25 20.6041V21.75M17.25 13.5V9.75M17.25 13.5C19.0619 13.5 20.6913 12.3969 21.3642 10.7146L21.75 9.75M17.25 9.75C18.6557 8.81288 19.5 7.23525 19.5 5.54584V5.25M2.25 9.75L2.63583 10.7146C3.30875 12.3969 4.9381 13.5 6.75 13.5M6.75 9.75V13.5M6.75 9.75C5.34432 8.81288 4.5 7.23525 4.5 5.54584V5.25M6.75 13.5V15.75M6.75 15.75C4.9114 16.6693 3.75 18.5485 3.75 20.6041V21.75" stroke="black" stroke-width="1.5" stroke-linecap="round" stroke-linejoin="round"/>
</svg>
