<svg width="24" height="24" viewBox="0 0 24 24" fill="none" xmlns="http://www.w3.org/2000/svg">
<path d="M12 8.25H19.5C20.3284 8.25 21 8.92157 21 9.75V19.5C21 20.3284 20.3284 21 19.5 21H18.15C18.0672 21 18 20.9328 18 20.85V18C18 17.1716 17.3284 16.5 16.5 16.5C15.6716 16.5 15 17.1716 15 18V20.85C15 20.9328 14.9328 21 14.85 21H12M12 8.25V4.5C12 3.67157 11.3284 3 10.5 3H4.5C3.67157 3 3 3.67157 3 4.5V19.5C3 20.3284 3.67157 21 4.5 21H5.85C5.93284 21 6 20.9328 6 20.85V18C6 17.1716 6.67157 16.5 7.5 16.5C8.32843 16.5 9 17.1716 9 18V20.85C9 20.9328 9.06716 21 9.15 21H12M12 8.25V21M15 13.5V12M18 13.5V12M9 13.5V12M6 13.5V12M9 8.25V6.75M6 8.25V6.75" stroke="black" stroke-width="1.5" stroke-miterlimit="1.78829" stroke-linecap="round" stroke-linejoin="round"/>
</svg>
