<svg width="24" height="24" viewBox="0 0 24 24" fill="none" xmlns="http://www.w3.org/2000/svg">
<path d="M12 8.99995V6.177C12 5.60884 11.679 5.08945 11.1708 4.83536L8.17082 3.33536C7.74853 3.12422 7.25147 3.12422 6.82918 3.33536L3.82918 4.83536C3.321 5.08945 3 5.60884 3 6.177V19.5C3 20.3284 3.67157 21 4.5 21H5.85C5.93284 21 6 20.9328 6 20.8499V18C6 17.1715 6.67157 16.5 7.5 16.5C8.32843 16.5 9 17.1715 9 18V20.8499C9 20.9328 9.06716 21 9.15 21H12M12 8.99995V21M12 8.99995L15.8292 7.08536C16.2515 6.87422 16.7485 6.87422 17.1708 7.08536L20.1708 8.58536C20.679 8.83945 21 9.35884 21 9.927V19.5C21 20.3284 20.3284 21 19.5 21H18.15C18.0672 21 18 20.9328 18 20.8499V18C18 17.1715 17.3284 16.5 16.5 16.5C15.6716 16.5 15 17.1715 15 18V20.8499C15 20.9328 14.9328 21 14.85 21H12M6 8.99995C6 8.17152 6.67157 7.49995 7.5 7.49995C8.32843 7.49995 9 8.17152 9 8.99995C9 9.82838 8.32843 10.5 7.5 10.5C6.67157 10.5 6 9.82838 6 8.99995ZM16.5 13.5C15.6716 13.5 15 12.8284 15 12C15 11.1715 15.6716 10.5 16.5 10.5C17.3284 10.5 18 11.1715 18 12C18 12.8284 17.3284 13.5 16.5 13.5Z" stroke="black" stroke-width="1.5" stroke-miterlimit="1.78829" stroke-linecap="round" stroke-linejoin="round"/>
</svg>
