<svg width="24" height="24" viewBox="0 0 24 24" fill="none" xmlns="http://www.w3.org/2000/svg">
<path d="M21.75 11.25V6.75C21.75 5.92157 21.0784 5.25 20.25 5.25H18.75M18.75 5.25V17.25C18.75 18.0784 18.0784 18.75 17.25 18.75H15.75M18.75 5.25C18.75 4.42157 18.0784 3.75 17.25 3.75H2.25M15.75 18.75V6.75H11.25M15.75 18.75H11.25M11.25 6.75V18.75M11.25 6.75V12.75H2.25M11.25 6.75H2.25M11.25 18.75H9.62197M9.62197 18.75C9.31309 19.6239 8.47966 20.25 7.5 20.25C6.52034 20.25 5.68691 19.6239 5.37803 18.75M9.62197 18.75C9.70488 18.5154 9.75 18.263 9.75 18C9.75 16.7574 8.74264 15.75 7.5 15.75C6.25736 15.75 5.25 16.7574 5.25 18C5.25 18.263 5.29512 18.5154 5.37803 18.75M5.37803 18.75H2.25" stroke="black" stroke-width="1.5" stroke-miterlimit="1.78829" stroke-linecap="round" stroke-linejoin="round"/>
</svg>
