<svg width="24" height="24" viewBox="0 0 24 24" fill="none" xmlns="http://www.w3.org/2000/svg">
<path d="M6 8.25V14.25C6 15.7849 6.69803 17.3197 8.4512 18.1404M6 8.25C4.75736 8.25 3.75 7.24264 3.75 6V2.25H8.25V6C8.25 7.24264 7.24264 8.25 6 8.25ZM18 11.25V17.25C18 17.25 18 21.75 12.75 21.75C10.3844 21.75 8.95142 20.1178 8.4512 18.1404M18 11.25C19.2426 11.25 20.25 10.2426 20.25 9V5.25H15.75V9C15.75 10.2426 16.7574 11.25 18 11.25ZM8.4512 18.1404C8.31707 17.6101 8.25 17.0551 8.25 16.5C8.25 13.5 9.76104 12 11.625 12C13.489 12 15 13.511 15 15.375C15 17.239 13.489 18.75 11.625 18.75C10.3139 18.75 9.26804 18.5227 8.4512 18.1404Z" stroke="black" stroke-width="1.5" stroke-linecap="round" stroke-linejoin="round"/>
</svg>
