<svg width="24" height="24" viewBox="0 0 24 24" fill="none" xmlns="http://www.w3.org/2000/svg">
<path d="M17.25 4.5H19.5C20.3284 4.5 21 5.17157 21 6V9.75M17.25 4.5H6.75M17.25 4.5V6.75M17.25 4.5V2.25M6.75 4.5H4.5C3.67157 4.5 3 5.17157 3 6V9.75M6.75 4.5V6.75M6.75 4.5V2.25M3 9.75V19.5C3 20.3284 3.67157 21 4.5 21H12M3 9.75H21M21 9.75V11.9516M22.5 22.5L20.4116 20.4116M20.4116 20.4116C21.0648 19.7584 21.4688 18.8561 21.4688 17.8594C21.4688 15.866 19.8528 14.25 17.8594 14.25C15.866 14.25 14.25 15.866 14.25 17.8594C14.25 19.8528 15.866 21.4688 17.8594 21.4688C18.8561 21.4688 19.7584 21.0648 20.4116 20.4116Z" stroke="black" stroke-width="1.5" stroke-miterlimit="1.78829" stroke-linecap="round" stroke-linejoin="round"/>
</svg>
