<svg width="24" height="24" viewBox="0 0 24 24" fill="none" xmlns="http://www.w3.org/2000/svg">
<path d="M17.25 4.5H19.5C20.3284 4.5 21 5.17157 21 6V9.75M17.25 4.5H6.75M17.25 4.5V6.75M17.25 4.5V2.25M6.75 4.5H4.5C3.67157 4.5 3 5.17157 3 6V9.75M6.75 4.5V6.75M6.75 4.5V2.25M3 9.75V19.5C3 20.3284 3.67157 21 4.5 21H12M3 9.75H21M21 9.75V11.9516M19.5 14.25L22.5 17.25L18.4393 21.3107C18.158 21.592 17.7765 21.75 17.3787 21.75H15V19.3713C15 18.9735 15.158 18.592 15.4393 18.3107L19.5 14.25Z" stroke="black" stroke-width="1.5" stroke-linecap="round" stroke-linejoin="round"/>
</svg>
