<svg width="24" height="24" viewBox="0 0 24 24" fill="none" xmlns="http://www.w3.org/2000/svg">
<path d="M17.25 4.5H19.5C20.3284 4.5 21 5.17157 21 6V19.5C21 20.3284 20.3284 21 19.5 21H4.5C3.67157 21 3 20.3284 3 19.5V6C3 5.17157 3.67157 4.5 4.5 4.5H6.75M17.25 4.5H6.75M17.25 4.5V6.75M17.25 4.5V2.25M6.75 4.5V6.75M6.75 4.5V2.25M9 13.5001H8.25M9 13.5001C9 13.5001 10.5 13.5001 10.5 15.3751C10.5 17.2501 8.25 17.2501 8.25 17.2501C8.25 17.2501 6 17.2501 6 15.3751M9 13.5001C9 13.5001 10.5 13.5001 10.5 11.6251C10.5 9.70738 8.25 9.75008 8.25 9.75008C8.25 9.75008 6 9.75008 6 11.6251M18 12V15.0001C18 16.2427 16.9926 17.2501 15.75 17.2501C14.5074 17.2501 13.5 16.2427 13.5 15.0001V12C13.5 10.7574 14.5074 9.75 15.75 9.75C16.9926 9.75 18 10.7574 18 12Z" stroke="black" stroke-width="1.5" stroke-linecap="round" stroke-linejoin="round"/>
</svg>
