<svg width="24" height="24" viewBox="0 0 24 24" fill="none" xmlns="http://www.w3.org/2000/svg">
<path d="M17.25 4.5H19.5C20.3284 4.5 21 5.17157 21 6V9.75M17.25 4.5H6.75M17.25 4.5V6.75M17.25 4.5V2.25M6.75 4.5H4.5C3.67157 4.5 3 5.17157 3 6V9.75M6.75 4.5V6.75M6.75 4.5V2.25M3 9.75V19.5C3 20.3284 3.67157 21 4.5 21H19.5C20.3284 21 21 20.3284 21 19.5V9.75M3 9.75H21M6.75 17.25V16.5M12 16.5V17.25M17.25 16.5V17.25M6.75 12.75V13.5M12 12.75V13.5M17.25 12.75V13.5" stroke="black" stroke-width="1.5" stroke-linecap="round" stroke-linejoin="round"/>
</svg>
