<svg width="24" height="24" viewBox="0 0 24 24" fill="none" xmlns="http://www.w3.org/2000/svg">
<path d="M17.25 4.5H19.5C20.3284 4.5 21 5.17157 21 6V9.75M17.25 4.5H6.75M17.25 4.5V6.75M17.25 4.5V2.25M6.75 4.5H4.5C3.67157 4.5 3 5.17157 3 6V9.75M6.75 4.5V6.75M6.75 4.5V2.25M3 9.75V19.5C3 20.3284 3.67157 21 4.5 21H12M3 9.75H21M21 9.75V11.9516M14.25 18.75L17.1439 21.6439C17.2025 21.7025 17.2975 21.7025 17.3561 21.6439L22.2656 16.7344" stroke="black" stroke-width="1.5" stroke-miterlimit="1.78829" stroke-linecap="round" stroke-linejoin="round"/>
</svg>
