<svg width="24" height="24" viewBox="0 0 24 24" fill="none" xmlns="http://www.w3.org/2000/svg">
<path d="M20.25 20.25H3.75C2.92157 20.25 2.25 19.5784 2.25 18.75V7.5C2.25 6.67157 2.92157 6 3.75 6H6.12868C6.5265 6 6.90804 5.84196 7.18934 5.56066L8.56066 4.18934C8.84196 3.90804 9.2235 3.75 9.62132 3.75H14.3787C14.7765 3.75 15.158 3.90804 15.4393 4.18934L16.8107 5.56066C17.092 5.84196 17.4735 6 17.8713 6H20.25C21.0784 6 21.75 6.67157 21.75 7.5V18.75C21.75 19.5784 21.0784 20.25 20.25 20.25Z" stroke="black" stroke-width="1.5" stroke-linecap="round" stroke-linejoin="round"/>
<path d="M12 8.25C14.4853 8.25 16.5 10.2647 16.5 12.75C16.5 15.2353 14.4853 17.25 12 17.25C9.51472 17.25 7.5 15.2353 7.5 12.75C7.5 10.2647 9.51472 8.25 12 8.25Z" stroke="black" stroke-width="1.5" stroke-linecap="round" stroke-linejoin="round"/>
</svg>
