<svg width="24" height="24" viewBox="0 0 24 24" fill="none" xmlns="http://www.w3.org/2000/svg">
<path d="M3 4.5H6M16.5 4.5H21.75V8.25M16.5 4.5H9V7.5H3.75C2.92157 7.5 2.25 8.17157 2.25 9V18C2.25 18.8284 2.92157 19.5 3.75 19.5H20.25C21.0784 19.5 21.75 18.8284 21.75 18V8.25M16.5 4.5V8.25H21.75M9 13.125C9 11.261 10.511 9.75 12.375 9.75C14.239 9.75 15.75 11.261 15.75 13.125C15.75 14.989 14.239 16.5 12.375 16.5C10.511 16.5 9 14.989 9 13.125Z" stroke="black" stroke-width="1.5" stroke-linecap="round" stroke-linejoin="round"/>
</svg>
