<svg width="24" height="24" viewBox="0 0 24 24" fill="none" xmlns="http://www.w3.org/2000/svg">
<path d="M19.5 18.7499V17.2498M19.5 18.7499C19.9142 18.7499 20.25 19.0857 20.25 19.4999M19.5 18.7499C19.0858 18.7499 18.75 19.0857 18.75 19.4999M20.25 19.4999H21.75M20.25 19.4999C20.25 19.9141 19.9142 20.2499 19.5 20.2499M19.5 20.2499V21.7499M19.5 20.2499C19.0858 20.2499 18.75 19.9141 18.75 19.4999M18.75 19.4999H17.25M11.25 8.99977L11.6894 8.56043C12.2751 7.97465 12.2751 7.0249 11.6894 6.43911L8.56068 3.31043C7.97489 2.72465 7.02514 2.72465 6.43936 3.31043L3.31068 6.43911C2.72489 7.0249 2.72489 7.97465 3.31068 8.56043L6.43936 11.6891C7.02515 12.2749 7.97489 12.2749 8.56068 11.6891L9.00002 11.2498M11.25 8.99977L15 10.4998L10.5 14.9998L9.00002 11.2498M11.25 8.99977L9.00002 11.2498M15 14.9998L16.5 16.4998" stroke="black" stroke-width="1.5" stroke-linecap="round" stroke-linejoin="round"/>
</svg>
