<svg width="24" height="24" viewBox="0 0 24 24" fill="none" xmlns="http://www.w3.org/2000/svg">
<path d="M20.25 20.25H3.75C2.92157 20.25 2.25 19.5784 2.25 18.75V7.5C2.25 6.67157 2.92157 6 3.75 6H6M20.25 20.25L15.5349 15.5349M20.25 20.25L21.75 21.75M21.75 17.25V7.5C21.75 6.67157 21.0784 6 20.25 6H17.8713C17.4735 6 17.092 5.84196 16.8107 5.56066L15.4393 4.18934C15.158 3.90804 14.7765 3.75 14.3787 3.75H9.62132C9.25393 3.75 8.90044 3.88478 8.62695 4.12695M2.25 2.25L6 6M6 6L9.21506 9.21506M15.5349 15.5349C14.7109 16.5795 13.4337 17.25 12 17.25C9.51472 17.25 7.5 15.2353 7.5 12.75C7.5 11.3163 8.17051 10.0391 9.21506 9.21506M15.5349 15.5349L9.21506 9.21506M16.4244 11.9244C16.0864 10.1011 14.6489 8.66364 12.8256 8.32556" stroke="black" stroke-width="1.5" stroke-linecap="round" stroke-linejoin="round"/>
</svg>
