<svg width="24" height="24" viewBox="0 0 24 24" fill="none" xmlns="http://www.w3.org/2000/svg">
<path fill-rule="evenodd" clip-rule="evenodd" d="M4.5 3.75V20.25C4.5 21.0784 5.17157 21.75 6 21.75H18C18.8284 21.75 19.5 21.0784 19.5 20.25V3.75C19.5 2.92157 18.8284 2.25 18 2.25H6C5.17157 2.25 4.5 2.92157 4.5 3.75ZM7.5 8.25V6.75C7.5 5.92157 8.17157 5.25 9 5.25C9.82843 5.25 10.5 5.92157 10.5 6.75V8.25C10.5 9.07843 9.82843 9.75 9 9.75C8.17157 9.75 7.5 9.07843 7.5 8.25ZM7.5 17.25V15.75C7.5 14.9216 8.17157 14.25 9 14.25C9.82843 14.25 10.5 14.9216 10.5 15.75V17.25C10.5 18.0784 9.82843 18.75 9 18.75C8.17157 18.75 7.5 18.0784 7.5 17.25ZM16.5 17.25V15.75C16.5 14.9216 15.8284 14.25 15 14.25C14.1716 14.25 13.5 14.9216 13.5 15.75V17.25C13.5 18.0784 14.1716 18.75 15 18.75C15.8284 18.75 16.5 18.0784 16.5 17.25ZM16.5 6.75V8.25C16.5 9.07843 15.8284 9.75 15 9.75C14.1716 9.75 13.5 9.07843 13.5 8.25V6.75C13.5 5.92157 14.1716 5.25 15 5.25C15.8284 5.25 16.5 5.92157 16.5 6.75Z" stroke="black" stroke-width="1.5" stroke-linecap="round" stroke-linejoin="round"/>
</svg>
