<svg width="24" height="24" viewBox="0 0 24 24" fill="none" xmlns="http://www.w3.org/2000/svg">
<path d="M10.5 13.5C10.5 14.3284 9.82843 15 9 15C8.17157 15 7.5 14.3284 7.5 13.5V10.5C7.5 9.67157 8.17157 9 9 9C9.82843 9 10.5 9.67157 10.5 10.5M16.5 13.5C16.5 14.3284 15.8284 15 15 15C14.1716 15 13.5 14.3284 13.5 13.5V10.5C13.5 9.67157 14.1716 9 15 9C15.8284 9 16.5 9.67157 16.5 10.5M5.25 3.75H18.75C20.4069 3.75 21.75 5.09315 21.75 6.75V17.25C21.75 18.9069 20.4069 20.25 18.75 20.25H5.25C3.59315 20.25 2.25 18.9069 2.25 17.25V6.75C2.25 5.09315 3.59315 3.75 5.25 3.75Z" stroke="black" stroke-width="1.5" stroke-linecap="round" stroke-linejoin="round"/>
</svg>
