<svg width="24" height="24" viewBox="0 0 24 24" fill="none" xmlns="http://www.w3.org/2000/svg">
<g clip-path="url(#clip0_610_44)">
<path d="M8.25 3.75H18.75C20.4069 3.75 21.75 5.09315 21.75 6.75V17.25M19.9849 19.9849C19.6083 20.1552 19.1902 20.25 18.75 20.25H5.25C3.59315 20.25 2.25 18.9069 2.25 17.25V6.75C2.25 5.53335 2.97425 4.48586 4.01513 4.01513M19.9849 19.9849L15 15M19.9849 19.9849L23.25 23.25M4.01513 4.01513L0.75 0.75M4.01513 4.01513L9 9M10.5 13.5C10.5 14.3284 9.82843 15 9 15C8.17157 15 7.5 14.3284 7.5 13.5V10.5C7.5 9.67157 8.17157 9 9 9M9 9C9.82843 9 10.5 9.67157 10.5 10.5M9 9L10.5 10.5M10.5 10.5L13.5 13.5M13.5 13.5C13.5 14.3284 14.1716 15 15 15M13.5 13.5L15 15M13.9393 9.43934C14.2108 9.16789 14.5858 9 15 9C15.8284 9 16.5 9.67157 16.5 10.5" stroke="black" stroke-width="1.5" stroke-linecap="round" stroke-linejoin="round"/>
</g>
<defs>
<clipPath id="clip0_610_44">
<rect width="24" height="24" fill="white"/>
</clipPath>
</defs>
</svg>
