<svg width="24" height="24" viewBox="0 0 24 24" fill="none" xmlns="http://www.w3.org/2000/svg">
<path d="M19.5 17.25H20.25C21.0784 17.25 21.75 16.5784 21.75 15.75V12.1771C21.75 11.6089 21.429 11.0895 20.9208 10.8354L19.1972 9.97361C18.9069 9.82846 18.6715 9.59308 18.5264 9.30279L16.9146 6.07918C16.6605 5.571 16.1411 5.25 15.5729 5.25H6.17705C5.60889 5.25 5.0895 5.571 4.83541 6.07918L2.40836 10.9333C2.30422 11.1416 2.25 11.3712 2.25 11.6041V15.75C2.25 16.5784 2.92157 17.25 3.75 17.25H4.5M19.5 17.25C19.5 18.4926 18.4926 19.5 17.25 19.5C16.0074 19.5 15 18.4926 15 17.25M19.5 17.25C19.5 16.0074 18.4926 15 17.25 15C16.0074 15 15 16.0074 15 17.25M4.5 17.25C4.5 16.0074 5.50736 15 6.75 15C7.99264 15 9 16.0074 9 17.25M4.5 17.25C4.5 18.4926 5.50736 19.5 6.75 19.5C7.99264 19.5 9 18.4926 9 17.25M9 17.25H15" stroke="black" stroke-width="1.5" stroke-miterlimit="1.78829" stroke-linecap="round" stroke-linejoin="round"/>
</svg>
