<svg width="24" height="24" viewBox="0 0 24 24" fill="none" xmlns="http://www.w3.org/2000/svg">
<path d="M7.75 14.25L6.5 6.75L6.2089 5.0034C6.08835 4.28012 5.46257 3.75 4.72931 3.75H2.25M8.25 17.25C9.07843 17.25 9.75 17.9216 9.75 18.75C9.75 19.5784 9.07843 20.25 8.25 20.25C7.42157 20.25 6.75 19.5784 6.75 18.75C6.75 17.9216 7.42157 17.25 8.25 17.25ZM8.25 17.25L7.75 14.25M8.25 17.25H11.2912M7.75 14.25H12.3867M6.5 6.75H19.9203C20.8669 6.75 21.5768 7.61599 21.3912 8.54418L20.7346 11.8269M22.5 18.375H15.75" stroke="black" stroke-width="1.5" stroke-miterlimit="1.78829" stroke-linecap="round" stroke-linejoin="round"/>
</svg>
