<svg width="24" height="24" viewBox="0 0 24 24" fill="none" xmlns="http://www.w3.org/2000/svg">
<path d="M14.6517 14.6517C15.3303 13.973 15.75 13.0355 15.75 12C15.75 9.92893 14.0711 8.25 12 8.25C9.92893 8.25 8.25 9.92893 8.25 12C8.25 13.0355 8.66973 13.973 9.34835 14.6517M18.8943 18.8943C20.6587 17.1299 21.75 14.6924 21.75 12C21.75 6.61522 17.3848 2.25 12 2.25C6.61522 2.25 2.25 6.61522 2.25 12C2.25 14.6924 3.34131 17.1299 5.10571 18.8943M16.773 16.773C17.9945 15.5515 18.75 13.864 18.75 12C18.75 8.27208 15.7279 5.25 12 5.25C8.27208 5.25 5.25 8.27208 5.25 12C5.25 13.864 6.00552 15.5515 7.22703 16.773M7.5 21L12 16.5L16.5 21H7.5Z" stroke="black" stroke-width="1.5" stroke-miterlimit="1.78829" stroke-linecap="round" stroke-linejoin="round"/>
</svg>
