<svg width="24" height="24" viewBox="0 0 24 24" fill="none" xmlns="http://www.w3.org/2000/svg">
<path d="M18.8943 5.10571C17.1299 3.34131 14.6924 2.25 12 2.25C6.61522 2.25 2.25 6.61522 2.25 12C2.25 17.3848 6.61522 21.75 12 21.75C14.6924 21.75 17.1299 20.6587 18.8943 18.8943M18.8943 5.10571C20.6587 6.87011 21.75 9.30761 21.75 12C21.75 14.6924 20.6587 17.1299 18.8943 18.8943M18.8943 5.10571L14.6517 9.34835M14.6517 9.34835C13.973 8.66973 13.0355 8.25 12 8.25C9.92893 8.25 8.25 9.92893 8.25 12C8.25 14.0711 9.92893 15.75 12 15.75C13.0355 15.75 13.973 15.3303 14.6517 14.6517M14.6517 9.34835C15.3303 10.027 15.75 10.9645 15.75 12C15.75 13.0355 15.3303 13.973 14.6517 14.6517M18.8943 18.8943L14.6517 14.6517" stroke="black" stroke-width="1.5" stroke-linecap="round" stroke-linejoin="round"/>
</svg>
