<svg width="24" height="24" viewBox="0 0 24 24" fill="none" xmlns="http://www.w3.org/2000/svg">
<path d="M6.75 15.75H5.25C4.42157 15.75 3.75 15.0784 3.75 14.25V5.25C3.75 3.59315 5.09315 2.25 6.75 2.25H17.25C18.9069 2.25 20.25 3.59315 20.25 5.25V14.25C20.25 15.0784 19.5784 15.75 18.75 15.75H17.25M6.75 15.75V20.25C6.75 21.0784 7.42157 21.75 8.25 21.75C9.07843 21.75 9.75 21.0784 9.75 20.25V15.75M6.75 15.75H9.75M9.75 15.75H14.25M14.25 15.75V20.25C14.25 21.0784 14.9216 21.75 15.75 21.75C16.5784 21.75 17.25 21.0784 17.25 20.25V15.75M14.25 15.75H17.25M13.5 6L10.5 9H13.5L10.5 12" stroke="black" stroke-width="1.5" stroke-linecap="round" stroke-linejoin="round"/>
</svg>
