<svg width="24" height="24" viewBox="0 0 24 24" fill="none" xmlns="http://www.w3.org/2000/svg">
<path d="M16.5 13.5C16.5 11.0147 14.4853 9 12 9H7.75606M16.5 13.5C16.5 13.7868 16.4732 14.0674 16.4219 14.3393C16.0287 16.4235 14.1984 18 12 18L9 18.0001C7.58359 19.8886 5.36068 21.0001 3 21.0001L3.44842 20.3274C4.1341 19.2989 4.5 18.0904 4.5 16.8542C3.57937 16.0302 3 14.8328 3 13.5C3 11.0147 5.01472 9 7.5 9H7.75606M16.5 13.5C17.8015 14.5112 19.3148 15.0001 21 15.0001L20.5516 14.3274C19.8659 13.2989 19.5 12.0904 19.5 10.8542C20.4206 10.0302 21 8.83276 21 7.5C21 5.01472 18.9853 3 16.5 3H12C9.51472 3 7.5 5.01472 7.5 7.5C7.5 7.78683 7.52684 8.0674 7.57814 8.33933C7.6209 8.56602 7.68067 8.7867 7.75606 9" stroke="black" stroke-width="1.5" stroke-linecap="round" stroke-linejoin="round"/>
</svg>
