<svg width="24" height="24" viewBox="0 0 24 24" fill="none" xmlns="http://www.w3.org/2000/svg">
<path d="M9 21H15M9 21H5.25M9 21V17.25M15 21V18.75M15 21H17.25M15 3H9M15 3H18.75M15 3V6.75M9 3V5.25M9 3H6.75M21 15V9M21 15H18.75M21 15V17.25M21 9H17.25M21 9V5.25M3 9V15M3 9H5.25M3 9V6.75M3 15V18.75M3 15H6.75M3 18.75V19.5C3 20.3284 3.67157 21 4.5 21H5.25M3 18.75L6.75 15M6.75 15H9M5.25 21L9 17.25M9 17.25V15M9 12.75V15M9 12.75L12.75 9M9 12.75V9M9 15H11.25M12.75 9H15M12.75 9H9M11.25 15L15 11.25M11.25 15H15M15 11.25V9M15 11.25V15M15 9H17.25M15 9V6.75M17.25 9L21 5.25M21 5.25V4.5C21 3.67157 20.3284 3 19.5 3H18.75M18.75 3L15 6.75M9 5.25V9M9 5.25L5.25 9M9 9H5.25M3 6.75V4.5C3 3.67157 3.67157 3 4.5 3H6.75M3 6.75L6.75 3M15 18.75V15M15 18.75L18.75 15M15 15H18.75M21 17.25V19.5C21 20.3284 20.3284 21 19.5 21H17.25M21 17.25L17.25 21" stroke="black" stroke-width="1.5" stroke-linecap="round" stroke-linejoin="round"/>
</svg>
