<svg width="24" height="24" viewBox="0 0 24 24" fill="none" xmlns="http://www.w3.org/2000/svg">
<path d="M18.75 18V15.932C18.75 15.6188 18.7309 15.3076 18.6933 15C18.4863 13.3061 17.7192 11.7192 16.5 10.5C17.7192 9.28078 18.4863 7.69393 18.6933 6C18.7309 5.69235 18.75 5.38117 18.75 5.06802V4.5C18.75 3.25736 17.7426 2.25 16.5 2.25C15.2574 2.25 14.25 3.25736 14.25 4.5V6M14.25 6C14.25 7.24264 13.2426 8.25 12 8.25C10.7574 8.25 9.75 7.24264 9.75 6V4.5C9.75 3.25736 8.74264 2.25 7.5 2.25C6.25736 2.25 5.25 3.25736 5.25 4.5V5.06802C5.25 7.10541 6.05935 9.05935 7.5 10.5C6.05935 11.9407 5.25 13.8946 5.25 15.932V19.5C5.25 20.7426 6.25736 21.75 7.5 21.75C8.74264 21.75 9.75 20.7426 9.75 19.5V15C9.75 13.7574 10.7574 12.75 12 12.75C13.2426 12.75 14.25 13.7574 14.25 15M14.25 6H18.6933M14.25 15V18M14.25 15H18.6933M14.25 18V19.5C14.25 20.7426 15.2574 21.75 16.5 21.75C17.7426 21.75 18.75 20.7426 18.75 19.5V18M14.25 18H18.75" stroke="black" stroke-width="1.5" stroke-linecap="round" stroke-linejoin="round"/>
</svg>
