<svg width="24" height="24" viewBox="0 0 24 24" fill="none" xmlns="http://www.w3.org/2000/svg">
<path d="M16.5 4.5V5.25C16.5 6.07843 15.8284 6.75 15 6.75H9C8.17157 6.75 7.5 6.07843 7.5 5.25V4.5M16.5 4.5V3.75C16.5 2.92157 15.8284 2.25 15 2.25H9C8.17157 2.25 7.5 2.92157 7.5 3.75V4.5M16.5 4.5H18.75C19.5784 4.5 20.25 5.17157 20.25 6V11.6341M7.5 4.5H5.25C4.42157 4.5 3.75 5.17157 3.75 6V20.25C3.75 21.0784 4.42157 21.75 5.25 21.75H12.3867M15.75 22.5L19.125 19.125M19.125 19.125L22.5 15.75M19.125 19.125L22.5 22.5M19.125 19.125L15.75 15.75" stroke="black" stroke-width="1.5" stroke-miterlimit="1.78829" stroke-linecap="round" stroke-linejoin="round"/>
</svg>
