<svg width="24" height="24" viewBox="0 0 24 24" fill="none" xmlns="http://www.w3.org/2000/svg">
<path d="M5.38612 10.1929C5.29708 9.80969 5.25 9.41034 5.25 9C5.25 6.10051 7.60051 3.75 10.5 3.75C13.3995 3.75 15.75 6.10051 15.75 9C15.75 9.27634 15.7286 9.54769 15.6875 9.81249M5.38612 10.1929C6.03286 9.90812 6.74797 9.75 7.5 9.75C8.48975 9.75 9.41553 10.0239 10.2057 10.5M5.38612 10.1929C3.53934 11.0062 2.25 12.8525 2.25 15C2.25 17.8995 4.60051 20.25 7.5 20.25H11.6341M15.6875 9.81249C15.9523 9.77135 16.2237 9.75 16.5 9.75C18.1919 9.75 19.6969 10.5503 20.657 11.793M15.6875 9.81249C15.0039 9.9187 14.3639 10.1568 13.7943 10.5M18.3743 20.85C17.0074 20.85 15.8993 19.7419 15.8993 18.375C15.8993 17.0081 17.0074 15.9 18.3743 15.9M18.3743 20.85C19.7412 20.85 20.8493 19.7419 20.8493 18.375C20.8493 17.0081 19.7412 15.9 18.3743 15.9M18.3743 20.85V22.5M18.3743 15.9V14.25M22.5075 18.3668H20.8575M15.9075 18.3667H14.2575M21.3052 21.2862L20.1384 20.1195M16.6383 16.6193L15.4715 15.4525M15.4715 21.2979L16.6383 20.1312M20.1384 16.631L21.3052 15.4643" stroke="black" stroke-width="1.5" stroke-miterlimit="1.78829" stroke-linecap="round" stroke-linejoin="round"/>
</svg>
