<svg width="24" height="24" viewBox="0 0 24 24" fill="none" xmlns="http://www.w3.org/2000/svg">
<path d="M5.35352 11.7074C5.83708 9.30738 7.95747 7.5 10.5 7.5C11.7587 7.5 12.914 7.94299 13.8184 8.68156M5.35352 11.7074L5.38612 11.6929C6.03286 11.4081 6.74797 11.25 7.5 11.25C8.48975 11.25 9.41553 11.5239 10.2057 12M13.7943 12C14.3275 11.6788 14.9223 11.4496 15.557 11.3345C15.6003 11.3266 15.6438 11.3193 15.6875 11.3125C15.9523 11.2714 16.2237 11.25 16.5 11.25C17.0212 11.25 17.5247 11.326 18 11.4674C20.1686 12.1128 21.75 14.1217 21.75 16.5C21.75 19.3995 19.3995 21.75 16.5 21.75H7.5C4.60051 21.75 2.25 19.3995 2.25 16.5C2.25 14.3652 3.52418 12.528 5.35352 11.7074M15.557 11.3345C15.2619 10.2783 14.6449 9.35651 13.8184 8.68156M12.75 4.5H10.5M18 9.75V11.4674M14.25 8.25L13.8184 8.68156M15.75 4.5C15.75 3.25736 16.7574 2.25 18 2.25C19.2426 2.25 20.25 3.25736 20.25 4.5C20.25 5.74264 19.2426 6.75 18 6.75C16.7574 6.75 15.75 5.74264 15.75 4.5Z" stroke="black" stroke-width="1.5" stroke-linecap="round" stroke-linejoin="round"/>
</svg>
