<svg width="24" height="24" viewBox="0 0 24 24" fill="none" xmlns="http://www.w3.org/2000/svg">
<path d="M15.557 6.08447C14.9391 3.87257 12.909 2.25 10.5 2.25C7.95747 2.25 5.83708 4.05737 5.35352 6.45743M15.557 6.08447C15.6003 6.07661 15.6438 6.06928 15.6875 6.06249C15.9523 6.02135 16.2237 6 16.5 6C19.3995 6 21.75 8.35051 21.75 11.25C21.75 14.1495 19.3995 16.5 16.5 16.5H7.5C4.60051 16.5 2.25 14.1495 2.25 11.25C2.25 9.1152 3.52418 7.278 5.35352 6.45743M15.557 6.08447C14.9223 6.19958 14.3275 6.42876 13.7943 6.75M5.35352 6.45743L5.38612 6.44293C6.03286 6.15812 6.74797 6 7.5 6C8.48975 6 9.41553 6.27389 10.2057 6.75M8.25 19.5L10.5 21.75M8.25 21.75L10.5 19.5M18.75 19.5L21 21.75M18.75 21.75L21 19.5M14.25 19.5L15 21.75M3.75 19.5L4.5 21.75" stroke="black" stroke-width="1.5" stroke-linecap="round" stroke-linejoin="round"/>
</svg>
