<svg width="24" height="24" viewBox="0 0 24 24" fill="none" xmlns="http://www.w3.org/2000/svg">
<path d="M5.38612 10.1929C5.29708 9.80969 5.25 9.41034 5.25 9C5.25 6.10051 7.60051 3.75 10.5 3.75C13.3995 3.75 15.75 6.10051 15.75 9C15.75 9.27634 15.7286 9.54769 15.6875 9.81249M5.38612 10.1929C6.03286 9.90812 6.74797 9.75 7.5 9.75C8.48975 9.75 9.41553 10.0239 10.2057 10.5M5.38612 10.1929C3.53934 11.0062 2.25 12.8525 2.25 15C2.25 17.8995 4.60051 20.25 7.5 20.25H16.5C19.3995 20.25 21.75 17.8995 21.75 15C21.75 12.1005 19.3995 9.75 16.5 9.75C16.2237 9.75 15.9523 9.77135 15.6875 9.81249M15.6875 9.81249C15.0039 9.9187 14.3639 10.1568 13.7943 10.5" stroke="black" stroke-width="1.5" stroke-miterlimit="1.78829" stroke-linecap="round" stroke-linejoin="round"/>
</svg>
