<svg width="24" height="24" viewBox="0 0 24 24" fill="none" xmlns="http://www.w3.org/2000/svg">
<path d="M16.1276 18L16.8827 12L17.044 10.6823C17.1535 9.78825 16.4559 9 15.5551 9H3.9492C3.04695 9 2.34887 9.79077 2.46078 10.6861L3.58578 19.6861C3.67961 20.4367 4.31771 21 5.0742 21H14.427C15.183 21 15.8208 20.4374 15.9152 19.6873L16.1276 18ZM16.8827 12H18.75C20.4069 12 21.75 13.3431 21.75 15C21.75 16.6569 20.4069 18 18.75 18H16.1276M5.25003 3C6.3204 3.71358 6.3204 5.28642 5.25003 6M9.00003 3C10.0704 3.71358 10.0704 5.28642 9.00003 6M12.75 3C13.8204 3.71358 13.8204 5.28642 12.75 6" stroke="black" stroke-width="1.5" stroke-linecap="round" stroke-linejoin="round"/>
</svg>
