<svg width="24" height="24" viewBox="0 0 24 24" fill="none" xmlns="http://www.w3.org/2000/svg">
<path d="M18.75 16.5L21.75 17.25M16.5 18.75L17.25 21.75M7.5 5.25L6.75 2.25M5.25 7.5L2.25 6.75M13.5 16.125C13.5 13.0184 10.9816 10.5 7.875 10.5C4.7684 10.5 2.25 13.0184 2.25 16.125C2.25 19.2316 4.7684 21.75 7.875 21.75C10.9816 21.75 13.5 19.2316 13.5 16.125ZM21.75 7.875C21.75 4.7684 19.2316 2.25 16.125 2.25C13.0184 2.25 10.5 4.7684 10.5 7.875C10.5 10.9816 13.0184 13.5 16.125 13.5C19.2316 13.5 21.75 10.9816 21.75 7.875Z" stroke="black" stroke-width="1.5" stroke-linecap="round" stroke-linejoin="round"/>
</svg>
