<svg width="24" height="24" viewBox="0 0 24 24" fill="none" xmlns="http://www.w3.org/2000/svg">
<path d="M21.75 7.5C21.75 10.3995 17.3848 12.75 12 12.75C6.61522 12.75 2.25 10.3995 2.25 7.5M21.75 7.5C21.75 4.60051 17.3848 2.25 12 2.25C6.61522 2.25 2.25 4.60051 2.25 7.5M21.75 7.5V12M2.25 7.5V12M21.75 12C21.75 14.8995 17.3848 17.25 12 17.25C6.61522 17.25 2.25 14.8995 2.25 12M21.75 12V16.5C21.75 19.3995 17.3848 21.75 12 21.75C6.61522 21.75 2.25 19.3995 2.25 16.5V12" stroke="black" stroke-width="1.5" stroke-linecap="round" stroke-linejoin="round"/>
</svg>
