<svg width="24" height="24" viewBox="0 0 24 24" fill="none" xmlns="http://www.w3.org/2000/svg">
<path d="M3 16.5V4.5C3 3.67157 3.67157 3 4.5 3H10.5C11.3284 3 12 3.67157 12 4.5V5.63604M3 16.5C3 17.1102 3.12143 17.6919 3.34145 18.2225M3 16.5C3 15.2648 3.49764 14.1459 4.30336 13.3327M3 16.5C3 15.3548 3.43445 14.2095 4.30336 13.3327M3 16.5C3 17.0862 3.11382 17.6723 3.34145 18.2225M3.34145 18.2225C3.56683 18.766 3.89566 19.2558 4.30336 19.6673M3.34145 18.2225C3.55856 18.7473 3.8792 19.2392 4.30336 19.6673M4.31951 13.3165C5.13373 12.5031 6.25812 12 7.5 12L18.364 12H19.5C20.3284 12 21 12.6716 21 13.5V19.5C21 20.3284 20.3284 21 19.5 21H7.5C6.24989 21 5.11883 20.4902 4.30336 19.6673M4.30336 19.6673C4.30824 19.6722 4.31312 19.6771 4.31802 19.682M4.31951 13.3165C4.31411 13.3219 4.30873 13.3273 4.30336 13.3327M4.31951 13.3165L4.31802 13.318C4.31312 13.3229 4.30824 13.3278 4.30336 13.3327M4.31951 13.3165L12 5.63604M18.364 12L19.1673 11.1967C19.753 10.6109 19.753 9.66117 19.1673 9.07538L14.9246 4.83274C14.3388 4.24695 13.3891 4.24695 12.8033 4.83274L12 5.63604M8.25 16.5C8.25 16.0858 7.91421 15.75 7.5 15.75C7.08579 15.75 6.75 16.0858 6.75 16.5C6.75 16.9142 7.08579 17.25 7.5 17.25C7.91421 17.25 8.25 16.9142 8.25 16.5Z" stroke="black" stroke-width="1.5" stroke-linecap="round" stroke-linejoin="round"/>
</svg>
