<svg width="24" height="24" viewBox="0 0 24 24" fill="none" xmlns="http://www.w3.org/2000/svg">
<path d="M18.75 12.75H21M18.75 12.75H16.5M18.75 12.75V16.5L12 18.75M5.25 17.25V21L12 18.75M5.25 17.25H3M5.25 17.25H7.5M3.75 14.25V11.25M3.75 11.25V9.75C3.75 8.92157 4.42157 8.25 5.25 8.25C6.07843 8.25 6.75 8.92157 6.75 9.75V11.25M3.75 11.25H6.75M6.75 11.25V14.25M17.25 6.75V3.75H18.75C19.5784 3.75 20.25 4.42157 20.25 5.25C20.25 6.07843 19.5784 6.75 18.75 6.75M17.25 6.75V9.75H18.75C19.5784 9.75 20.25 9.07843 20.25 8.25C20.25 7.42157 19.5784 6.75 18.75 6.75M17.25 6.75H18.75M12 18.75V6.75" stroke="black" stroke-width="1.5" stroke-linecap="round" stroke-linejoin="round"/>
</svg>
