<svg width="24" height="24" viewBox="0 0 24 24" fill="none" xmlns="http://www.w3.org/2000/svg">
<path d="M19.0356 18.75C20.2198 17.516 21.0825 15.9711 21.4891 14.25C21.6597 13.5277 21.75 12.7744 21.75 12C21.75 11.2256 21.6597 10.4723 21.4891 9.75C21.0825 8.02887 20.2198 6.48399 19.0356 5.25C17.2612 3.40099 14.765 2.25 12 2.25C6.61522 2.25 2.25 6.61522 2.25 12C2.25 17.3848 6.61522 21.75 12 21.75C14.765 21.75 17.2612 20.599 19.0356 18.75ZM19.0356 5.25H12M21.4891 9.75H12M21.4891 14.25H12M19.0356 18.75H12" stroke="black" stroke-width="1.5" stroke-linecap="round" stroke-linejoin="round"/>
</svg>
