<svg width="24" height="24" viewBox="0 0 24 24" fill="none" xmlns="http://www.w3.org/2000/svg">
<path d="M5.15001 5.17145C4.45858 6.02705 3.8961 7.01304 3.41071 8.0209C2.7951 9.29919 2.25 10.4862 2.25 12C2.25 13.8309 2.92289 15.371 3.8007 16.8347C4.75967 18.4336 5.57871 19.8425 7.25688 20.6747C8.56045 21.3212 10.4463 21.75 12 21.75C13.3289 21.75 14.512 21.373 15.6664 20.8916C16.8288 20.4068 17.9523 19.8067 18.8954 19.0184M5.15001 5.17145L2.25 2.25M21.6069 21.75L18.8954 19.0184L5.15001 5.17145M7.62366 3.12366C7.70127 3.08529 7.77998 3.04837 7.85981 3.01293C9.0677 2.47678 10.5933 2.25 12 2.25C12.3075 2.25 12.7135 2.34786 12.9567 2.57236C12.3813 3.41467 12.3206 4.15061 12.3206 5.24771C12.3206 6.34481 12.5108 7.17859 13.0863 8.0209C14.0317 9.40472 15.4608 10.1971 17.2632 10.1971C18.8304 10.1971 20.3675 9.69342 21.1861 8.72426C21.5512 9.74806 21.6069 10.8508 21.6069 12C21.6069 13.5156 21.4442 15.0697 20.8902 16.3902M10.5 17.25C10.5 16.8358 10.1642 16.5 9.75 16.5C9.33579 16.5 9 16.8358 9 17.25C9 17.6642 9.33579 18 9.75 18C10.1642 18 10.5 17.6642 10.5 17.25ZM9 9.75C9 9.33579 8.66421 9 8.25 9C7.83579 9 7.5 9.33579 7.5 9.75C7.5 10.1642 7.83579 10.5 8.25 10.5C8.66421 10.5 9 10.1642 9 9.75Z" stroke="black" stroke-width="1.5" stroke-linecap="round" stroke-linejoin="round"/>
</svg>
