<svg width="24" height="24" viewBox="0 0 24 24" fill="none" xmlns="http://www.w3.org/2000/svg">
<path d="M15 13.5C15.4142 13.5 15.75 13.8358 15.75 14.25C15.75 14.6642 15.4142 15 15 15C14.5858 15 14.25 14.6642 14.25 14.25C14.25 13.8358 14.5858 13.5 15 13.5Z" stroke="black" stroke-width="1.5" stroke-linecap="round" stroke-linejoin="round"/>
<path d="M9.75 16.5C10.1642 16.5 10.5 16.8358 10.5 17.25C10.5 17.6642 10.1642 18 9.75 18C9.33579 18 9 17.6642 9 17.25C9 16.8358 9.33579 16.5 9.75 16.5Z" stroke="black" stroke-width="1.5" stroke-linecap="round" stroke-linejoin="round"/>
<path d="M8.25 9C8.66421 9 9 9.33579 9 9.75C9 10.1642 8.66421 10.5 8.25 10.5C7.83579 10.5 7.5 10.1642 7.5 9.75C7.5 9.33579 7.83579 9 8.25 9Z" stroke="black" stroke-width="1.5" stroke-linecap="round" stroke-linejoin="round"/>
</svg>
