<svg width="24" height="24" viewBox="0 0 24 24" fill="none" xmlns="http://www.w3.org/2000/svg">
<path d="M14.25 7.25522C14.9319 6.93127 15.6948 6.75 16.5 6.75C16.7385 6.75 16.9732 6.7659 17.2033 6.7967C19.7702 7.14037 21.75 9.33899 21.75 12C21.75 13.6856 20.9556 15.1857 19.7208 16.1463M17.2033 6.7967C16.8596 4.22975 14.661 2.25 12 2.25C9.33899 2.25 7.14037 4.22975 6.7967 6.7967M9.75 7.25522C9.06806 6.93127 8.3052 6.75 7.5 6.75C7.26152 6.75 7.02675 6.7659 6.7967 6.7967C4.22975 7.14037 2.25 9.33899 2.25 12C2.25 13.6856 3.0444 15.1857 4.27924 16.1463M11.9419 21.7183C8.03128 22.8774 4.354 19.897 4.27924 16.1463C4.26719 15.542 4.34865 14.9178 4.53769 14.2877C6.18925 13.7922 7.80024 14.0358 9.11705 14.7647M11.9419 21.7183C9.30202 20.2614 8.36039 17.297 9.11705 14.7647C9.54211 13.3422 10.5031 12.056 12 11.25C13.4969 12.056 14.4579 13.3422 14.883 14.7647C15.6396 17.297 14.698 20.2614 12.0581 21.7183M11.9419 21.7183C11.9612 21.729 11.9806 21.7395 12 21.75C12.0194 21.7395 12.0388 21.729 12.0581 21.7183M11.9419 21.7183C11.9487 21.7163 11.9555 21.7143 11.9623 21.7123M12.0581 21.7183C15.9687 22.8774 19.646 19.897 19.7208 16.1463C19.7328 15.542 19.6513 14.9178 19.4623 14.2877C17.8108 13.7922 16.1998 14.0358 14.883 14.7647M12.0581 21.7183C12.0513 21.7163 12.0445 21.7143 12.0377 21.7123" stroke="black" stroke-width="1.5" stroke-linecap="round" stroke-linejoin="round"/>
</svg>
