<svg width="24" height="24" viewBox="0 0 24 24" fill="none" xmlns="http://www.w3.org/2000/svg">
<path d="M9.75 20.25H3.75C2.92157 20.25 2.25 19.5784 2.25 18.75V17.25C2.25 16.7779 2.48187 16.3422 2.81947 16.0121C5.06018 13.8215 5.06018 10.1785 2.81947 7.9879C2.48187 7.65785 2.25 7.22214 2.25 6.75V5.25C2.25 4.42157 2.92157 3.75 3.75 3.75H9.75M9.75 20.25H20.25C21.0784 20.25 21.75 19.5784 21.75 18.75V17.25C21.75 16.7779 21.5181 16.3422 21.1805 16.0121C18.9398 13.8215 18.9398 10.1785 21.1805 7.9879C21.5181 7.65785 21.75 7.22214 21.75 6.75V5.25C21.75 4.42157 21.0784 3.75 20.25 3.75H9.75M9.75 20.25V18.75M9.75 3.75V5.25M9.75 9V9.75M9.75 14.25V15" stroke="black" stroke-width="1.5" stroke-linecap="round" stroke-linejoin="round"/>
</svg>
