<svg width="24" height="24" viewBox="0 0 24 24" fill="none" xmlns="http://www.w3.org/2000/svg">
<path d="M8.25 15.75L15.75 8.25M21.75 18.75V17.25C21.75 16.7779 21.5181 16.3422 21.1805 16.0121C18.9398 13.8215 18.9398 10.1785 21.1805 7.9879C21.5181 7.65785 21.75 7.22214 21.75 6.75V5.25C21.75 4.42157 21.0784 3.75 20.25 3.75H3.75C2.92157 3.75 2.25 4.42157 2.25 5.25V6.75C2.25 7.22214 2.48187 7.65785 2.81947 7.9879C5.06018 10.1785 5.06018 13.8215 2.81947 16.0121C2.48187 16.3422 2.25 16.7779 2.25 17.25V18.75C2.25 19.5784 2.92157 20.25 3.75 20.25H20.25C21.0784 20.25 21.75 19.5784 21.75 18.75ZM16.5 15C16.5 14.1716 15.8284 13.5 15 13.5C14.1716 13.5 13.5 14.1716 13.5 15C13.5 15.8284 14.1716 16.5 15 16.5C15.8284 16.5 16.5 15.8284 16.5 15ZM10.5 9C10.5 8.17157 9.82843 7.5 9 7.5C8.17157 7.5 7.5 8.17157 7.5 9C7.5 9.82843 8.17157 10.5 9 10.5C9.82843 10.5 10.5 9.82843 10.5 9Z" stroke="black" stroke-width="1.5" stroke-linecap="round" stroke-linejoin="round"/>
</svg>
