<svg width="24" height="24" viewBox="0 0 24 24" fill="none" xmlns="http://www.w3.org/2000/svg">
<path d="M16.5 19.5H18C18.8284 19.5 19.5 18.8284 19.5 18V16.5M16.5 19.5H13.5M16.5 19.5V21M13.5 19.5H10.5M13.5 19.5V21M10.5 19.5H7.5M10.5 19.5V21M7.5 19.5H6C5.17157 19.5 4.5 18.8284 4.5 18V16.5M7.5 19.5V21M4.5 16.5V13.5M4.5 16.5H3M4.5 13.5V10.5M4.5 13.5H3M4.5 10.5V7.5M4.5 10.5H3M4.5 7.5V6C4.5 5.17157 5.17157 4.5 6 4.5H7.5M4.5 7.5H3M7.5 4.5V3M7.5 4.5H10.5M10.5 4.5V3M10.5 4.5H13.5M13.5 4.5V3M13.5 4.5H16.5M16.5 4.5H18C18.8284 4.5 19.5 5.17157 19.5 6V7.5M16.5 4.5V3M19.5 7.5V10.5M19.5 7.5H21M19.5 10.5V13.5M19.5 10.5H21M19.5 13.5V16.5M19.5 13.5H21M19.5 16.5H21M8.25 9.75V14.25C8.25 15.0784 8.92157 15.75 9.75 15.75H14.25C15.0784 15.75 15.75 15.0784 15.75 14.25V9.75C15.75 8.92157 15.0784 8.25 14.25 8.25H9.75C8.92157 8.25 8.25 8.92157 8.25 9.75Z" stroke="black" stroke-width="1.5" stroke-linecap="round" stroke-linejoin="round"/>
</svg>
