<svg width="24" height="24" viewBox="0 0 24 24" fill="none" xmlns="http://www.w3.org/2000/svg">
<path d="M21.75 9V7.5C21.75 5.84315 20.4069 4.5 18.75 4.5H5.25C3.59315 4.5 2.25 5.84315 2.25 7.5V9M21.75 9H2.25M21.75 9V12.3867M2.25 9V16.5C2.25 18.1569 3.59315 19.5 5.25 19.5H11.4173M22.5 18.375H15.75M6.75 12.75H8.25C9.07843 12.75 9.75 13.4216 9.75 14.25C9.75 15.0784 9.07843 15.75 8.25 15.75H6.75C5.92157 15.75 5.25 15.0784 5.25 14.25C5.25 13.4216 5.92157 12.75 6.75 12.75Z" stroke="black" stroke-width="1.5" stroke-miterlimit="1.78829" stroke-linecap="round" stroke-linejoin="round"/>
</svg>
