<svg width="24" height="24" viewBox="0 0 24 24" fill="none" xmlns="http://www.w3.org/2000/svg">
<path fill-rule="evenodd" clip-rule="evenodd" d="M3.75 18.75H20.25C21.0784 18.75 21.75 18.0784 21.75 17.25V9L18.75 5.25L15.75 9L12 5.25L8.25 9L5.25 5.25L2.25 9V17.25C2.25 18.0784 2.92157 18.75 3.75 18.75ZM6 13.5C6.41421 13.5 6.75 13.8358 6.75 14.25C6.75 14.6642 6.41421 15 6 15C5.58579 15 5.25 14.6642 5.25 14.25C5.25 13.8358 5.58579 13.5 6 13.5ZM18 13.5C18.4142 13.5 18.75 13.8358 18.75 14.25C18.75 14.6642 18.4142 15 18 15C17.5858 15 17.25 14.6642 17.25 14.25C17.25 13.8358 17.5858 13.5 18 13.5ZM9.75 13.5C9.75 14.7426 10.7574 15.75 12 15.75C13.2426 15.75 14.25 14.7426 14.25 13.5C14.25 12.2574 13.2426 11.25 12 11.25C10.7574 11.25 9.75 12.2574 9.75 13.5Z" stroke="black" stroke-width="1.5" stroke-linecap="round" stroke-linejoin="round"/>
</svg>
