<svg width="24" height="24" viewBox="0 0 24 24" fill="none" xmlns="http://www.w3.org/2000/svg">
<path d="M20.25 8.25H3.75M20.25 8.25C21.0784 8.25 21.75 7.57843 21.75 6.75C21.75 5.92157 21.0784 5.25 20.25 5.25H8.84398C8.46366 5.25 8.09892 5.09892 7.82999 4.82999L7.18934 4.18934C6.90804 3.90804 6.5265 3.75 6.12868 3.75H3.75C2.92157 3.75 2.25 4.42157 2.25 5.25V6.75C2.25 7.57843 2.92157 8.25 3.75 8.25M20.25 8.25L12 13.3571M3.75 8.25L12 13.3571M17.5866 16.8155L12 13.3571M17.5866 16.8155C17.3732 17.1596 17.25 17.5654 17.25 18C17.25 19.2426 18.2574 20.25 19.5 20.25C20.7426 20.25 21.75 19.2426 21.75 18C21.75 16.7574 20.7426 15.75 19.5 15.75C18.692 15.75 17.9834 16.1759 17.5866 16.8155ZM12 13.3571L6.41336 16.8155M6.41336 16.8155C6.62678 17.1596 6.75 17.5654 6.75 18C6.75 19.2426 5.74264 20.25 4.5 20.25C3.25736 20.25 2.25 19.2426 2.25 18C2.25 16.7574 3.25736 15.75 4.5 15.75C5.30803 15.75 6.01658 16.1759 6.41336 16.8155Z" stroke="black" stroke-width="1.5" stroke-linecap="round" stroke-linejoin="round"/>
</svg>
