<svg width="24" height="24" viewBox="0 0 24 24" fill="none" xmlns="http://www.w3.org/2000/svg">
<path d="M7.37132 8.87132C6.82843 9.41421 6.07843 9.75 5.25 9.75C3.59315 9.75 2.25 8.40685 2.25 6.75C2.25 5.09315 3.59315 3.75 5.25 3.75C6.90685 3.75 8.25 5.09315 8.25 6.75C8.25 7.57843 7.91421 8.32843 7.37132 8.87132ZM7.37132 8.87132L10.5 12M10.5 12L15.75 17.25M10.5 12L7.37132 15.1287M10.5 12L15.75 6.75M11.25 6.75V5.25C11.25 4.42157 11.9216 3.75 12.75 3.75H18.1287C18.5265 3.75 18.908 3.90803 19.1893 4.18934L21.3107 6.31066C21.592 6.59196 21.75 6.97349 21.75 7.37132V18.75C21.75 19.5784 21.0784 20.25 20.25 20.25H12.75C11.9216 20.25 11.25 19.5784 11.25 18.75V17.25M7.37132 15.1287C7.91421 15.6716 8.25 16.4216 8.25 17.25C8.25 18.9069 6.90685 20.25 5.25 20.25C3.59315 20.25 2.25 18.9069 2.25 17.25C2.25 15.5931 3.59315 14.25 5.25 14.25C6.07843 14.25 6.82843 14.5858 7.37132 15.1287Z" stroke="black" stroke-width="1.5" stroke-linecap="round" stroke-linejoin="round"/>
</svg>
