<svg width="24" height="24" viewBox="0 0 24 24" fill="none" xmlns="http://www.w3.org/2000/svg">
<path d="M2.25 3.75024V8.25024C2.25 9.07867 2.92157 9.75024 3.75 9.75024M5.25 3.75024V8.25024C5.25 9.07867 4.57843 9.75024 3.75 9.75024M3.75 9.75024V20.2501M21.75 14.2502V3.75024C20.9216 3.75024 20.25 4.42182 20.25 5.25024V12.7502C20.25 13.5787 20.9216 14.2502 21.75 14.2502ZM21.75 14.2502V20.2501M17.25 13.1252C17.25 10.4329 15.0674 8.25024 12.375 8.25024C9.68261 8.25024 7.5 10.4329 7.5 13.1252C7.5 15.8176 9.68261 18.0002 12.375 18.0002C15.0674 18.0002 17.25 15.8176 17.25 13.1252Z" stroke="black" stroke-width="1.5" stroke-linecap="round" stroke-linejoin="round"/>
</svg>
