<svg width="24" height="24" viewBox="0 0 24 24" fill="none" xmlns="http://www.w3.org/2000/svg">
<path fill-rule="evenodd" clip-rule="evenodd" d="M3.75 3.75V20.25C3.75 21.0784 4.42157 21.75 5.25 21.75H18.75C19.5784 21.75 20.25 21.0784 20.25 20.25V3.75C20.25 2.92157 19.5784 2.25 18.75 2.25H5.25C4.42157 2.25 3.75 2.92157 3.75 3.75ZM13.875 5.25H10.125C9.91789 5.25 9.75 5.41789 9.75 5.625C9.75 5.83211 9.91789 6 10.125 6H13.875C14.0821 6 14.25 5.83211 14.25 5.625C14.25 5.41789 14.0821 5.25 13.875 5.25Z" stroke="black" stroke-width="1.5" stroke-linecap="round" stroke-linejoin="round"/>
</svg>
