<svg width="24" height="24" viewBox="0 0 24 24" fill="none" xmlns="http://www.w3.org/2000/svg">
<path d="M17.8713 16.3713C18.4142 15.8284 18.75 15.0784 18.75 14.25C18.75 13.4216 18.4142 12.6716 17.8713 12.1287M17.8713 16.3713C17.3284 16.9142 16.5784 17.25 15.75 17.25C14.0931 17.25 12.75 15.9069 12.75 14.25C12.75 12.5931 14.0931 11.25 15.75 11.25C16.5784 11.25 17.3284 11.5858 17.8713 12.1287M17.8713 16.3713L15.75 14.25L17.8713 12.1287M6 14.25V17.25M9 17.25V11.25M2.25 8.25V17.25C2.25 18.9069 3.59315 20.25 5.25 20.25H18.75C20.4069 20.25 21.75 18.9069 21.75 17.25V8.25M2.25 8.25V6.75C2.25 5.09315 3.59315 3.75 5.25 3.75H18.75C20.4069 3.75 21.75 5.09315 21.75 6.75V8.25M2.25 8.25H21.75" stroke="black" stroke-width="1.5" stroke-linecap="round" stroke-linejoin="round"/>
</svg>
