<svg width="24" height="24" viewBox="0 0 24 24" fill="none" xmlns="http://www.w3.org/2000/svg">
<path d="M2.25 7.5C2.25 10.3995 6.61522 12.75 12 12.75C12.6433 12.75 13.272 12.7165 13.8805 12.6524M2.25 7.5C2.25 4.60051 6.61522 2.25 12 2.25C17.3848 2.25 21.75 4.60051 21.75 7.5M2.25 7.5V12M21.75 7.5C21.75 8.99005 20.5972 10.3351 18.7456 11.2907M21.75 7.5V12.3867M2.25 12V16.5C2.25 19.3995 6.61522 21.75 12 21.75C12.1286 21.75 12.2566 21.7487 12.384 21.746M2.25 12C2.25 14.7714 6.23811 17.0413 11.2927 17.2364M16.5 18V16.875C16.5 15.4253 17.6753 14.25 19.125 14.25C20.5747 14.25 21.75 15.4253 21.75 16.875V18M16.5 18H21.75M16.5 18C16.0858 18 15.75 18.3358 15.75 18.75V21C15.75 21.8284 16.4216 22.5 17.25 22.5H21C21.8284 22.5 22.5 21.8284 22.5 21V18.75C22.5 18.3358 22.1642 18 21.75 18" stroke="black" stroke-width="1.5" stroke-miterlimit="1.78829" stroke-linecap="round" stroke-linejoin="round"/>
</svg>
