<svg width="24" height="24" viewBox="0 0 24 24" fill="none" xmlns="http://www.w3.org/2000/svg">
<path d="M2.25 7.5C2.25 10.3995 6.61522 12.75 12 12.75C12.6433 12.75 13.272 12.7165 13.8805 12.6524M2.25 7.5C2.25 4.60051 6.61522 2.25 12 2.25C17.3848 2.25 21.75 4.60051 21.75 7.5M2.25 7.5V12M21.75 7.5C21.75 8.99005 20.5972 10.3351 18.7456 11.2907M21.75 7.5V12.3867M2.25 12V16.5C2.25 19.3995 6.61522 21.75 12 21.75C12.1286 21.75 12.2566 21.7487 12.384 21.746M2.25 12C2.25 14.7714 6.23811 17.0413 11.2927 17.2364M19.5 14.25L22.5 17.25L18.4393 21.3107C18.158 21.592 17.7765 21.75 17.3787 21.75H15V19.3713C15 18.9735 15.158 18.592 15.4393 18.3107L19.5 14.25Z" stroke="black" stroke-width="1.5" stroke-linecap="round" stroke-linejoin="round"/>
</svg>
