<svg width="24" height="24" viewBox="0 0 24 24" fill="none" xmlns="http://www.w3.org/2000/svg">
<path d="M2.25 7.5C2.25 10.3995 6.61522 12.75 12 12.75C12.6433 12.75 13.272 12.7165 13.8805 12.6524M2.25 7.5C2.25 4.60051 6.61522 2.25 12 2.25C17.3848 2.25 21.75 4.60051 21.75 7.5M2.25 7.5V12M21.75 7.5C21.75 8.99005 20.5972 10.3351 18.7456 11.2907M21.75 7.5V12.3867M2.25 12V16.5C2.25 19.3995 6.61522 21.75 12 21.75C12.1286 21.75 12.2566 21.7487 12.384 21.746M2.25 12C2.25 14.7714 6.23811 17.0413 11.2927 17.2364M18.3743 20.85C17.0074 20.85 15.8993 19.7419 15.8993 18.375C15.8993 17.0081 17.0074 15.9 18.3743 15.9M18.3743 20.85C19.7412 20.85 20.8493 19.7419 20.8493 18.375C20.8493 17.0081 19.7412 15.9 18.3743 15.9M18.3743 20.85V22.5M18.3743 15.9V14.25M22.5075 18.3668H20.8575M15.9075 18.3667H14.2575M21.3052 21.2862L20.1384 20.1195M16.6383 16.6193L15.4715 15.4525M15.4715 21.2979L16.6383 20.1312M20.1384 16.631L21.3052 15.4643" stroke="black" stroke-width="1.5" stroke-miterlimit="1.78829" stroke-linecap="round" stroke-linejoin="round"/>
</svg>
