<svg width="24" height="24" viewBox="0 0 24 24" fill="none" xmlns="http://www.w3.org/2000/svg">
<path d="M5.25 9V3.75C5.25 2.92157 5.92157 2.25 6.75 2.25H11.25C12.0784 2.25 12.75 2.92157 12.75 3.75V4.5M20.25 9V13.5C20.25 14.3284 19.5784 15 18.75 15H17.25C14.7647 15 12.75 17.0147 12.75 19.5V20.25C12.75 21.0784 12.0784 21.75 11.25 21.75H6.75C5.92157 21.75 5.25 21.0784 5.25 20.25V19.5C5.25 12.8726 10.6226 7.5 17.25 7.5H18.75C19.5784 7.5 20.25 8.17157 20.25 9Z" stroke="black" stroke-width="1.5" stroke-linecap="round" stroke-linejoin="round"/>
</svg>
