<svg width="24" height="24" viewBox="0 0 24 24" fill="none" xmlns="http://www.w3.org/2000/svg">
<path d="M16.5833 6.75L17.25 9.75L18.75 16.5M12 15.75L9 10.5M17.25 9.75L12 15.75L5.25 16.5L9 10.5M9 10.5L17.25 9.75M9 10.5H8.25M16.5833 6.75H17.0729C18.1758 6.75 19.2636 6.49322 20.25 6M16.5833 6.75H15.9271C14.8242 6.75 13.7364 6.49322 12.75 6M8.25 10.5H2.25M8.25 10.5L9.75 4.5H3.75M5.25 7.5H2.25M15.75 16.5C15.75 18.1569 17.0931 19.5 18.75 19.5C20.4069 19.5 21.75 18.1569 21.75 16.5C21.75 14.8431 20.4069 13.5 18.75 13.5C17.0931 13.5 15.75 14.8431 15.75 16.5ZM2.25 16.5C2.25 18.1569 3.59315 19.5 5.25 19.5C6.90685 19.5 8.25 18.1569 8.25 16.5C8.25 14.8431 6.90685 13.5 5.25 13.5C3.59315 13.5 2.25 14.8431 2.25 16.5Z" stroke="black" stroke-width="1.5" stroke-miterlimit="1.78829" stroke-linecap="round" stroke-linejoin="round"/>
</svg>
