<svg width="24" height="24" viewBox="0 0 24 24" fill="none" xmlns="http://www.w3.org/2000/svg">
<path d="M20.25 18C20.25 19.2426 19.2426 20.25 18 20.25C16.7574 20.25 15.75 19.2426 15.75 18M20.25 18C20.25 16.7574 19.2426 15.75 18 15.75C16.7574 15.75 15.75 16.7574 15.75 18M20.25 18C21.0784 18 21.75 17.3284 21.75 16.5V13.1655C21.75 12.8936 21.6761 12.6269 21.5362 12.3937L19.937 9.72826C19.6659 9.27645 19.1776 9 18.6507 9H15.6711M15.75 18H14.25M9 18C9 19.2426 7.99264 20.25 6.75 20.25C5.50736 20.25 4.5 19.2426 4.5 18M9 18C9 16.7574 7.99264 15.75 6.75 15.75C5.50736 15.75 4.5 16.7574 4.5 18M9 18H14.25M4.5 18H4.00542C3.0837 18 2.38003 17.1765 2.52378 16.2661L3.07895 12.75M14.25 18L15.6711 9L16.2262 5.48394C16.37 4.5735 15.6663 3.75 14.7446 3.75H4.5M8.25 6.75H3M2.25 9.75H7.5" stroke="black" stroke-width="1.5" stroke-miterlimit="1.78829" stroke-linecap="round" stroke-linejoin="round"/>
</svg>
