<svg width="24" height="24" viewBox="0 0 24 24" fill="none" xmlns="http://www.w3.org/2000/svg">
<path d="M5.10571 18.8943C6.87011 20.6587 9.30761 21.75 12 21.75C17.3848 21.75 21.75 17.3848 21.75 12C21.75 9.30761 20.6587 6.87011 18.8943 5.10571M5.10571 18.8943C3.34131 17.1299 2.25 14.6924 2.25 12C2.25 6.61522 6.61522 2.25 12 2.25C14.6924 2.25 17.1299 3.34131 18.8943 5.10571M5.10571 18.8943L3 21M5.10571 18.8943L18.8943 5.10571M18.8943 5.10571L21 3M16.5 12L17.25 12.75M18.75 9.75L19.5 10.5M14.25 14.25L15 15M12 16.5L12.75 17.25M9.74999 18.75L10.5 19.5M18 15.75L18.75 16.5M15.75 18L16.5 18.75M13.5 20.25L14.25 21M20.25 13.5L21 14.25" stroke="black" stroke-width="1.5" stroke-linecap="round" stroke-linejoin="round"/>
</svg>
