<svg width="24" height="24" viewBox="0 0 24 24" fill="none" xmlns="http://www.w3.org/2000/svg">
<path d="M18 11.25V9.75C18 8.92157 17.3284 8.25 16.5 8.25H12C11.1716 8.25 10.5 8.92157 10.5 9.75V15.75M18 11.25H20.25M18 11.25C17.1716 11.25 16.5 11.9216 16.5 12.75V18.75C16.5 19.3052 16.8016 19.79 17.25 20.0493M10.5 15.75V18.75C10.5 19.5784 11.1716 20.25 12 20.25M10.5 15.75H3.75C2.92157 15.75 2.25 15.0784 2.25 14.25V5.25C2.25 4.42157 2.92157 3.75 3.75 3.75H18.75C19.5784 3.75 20.25 4.42157 20.25 5.25V11.25M5.25 20.25H12M12 20.25H16.5C16.7732 20.25 17.0294 20.177 17.25 20.0493M20.25 11.25C21.0784 11.25 21.75 11.9216 21.75 12.75V18.75C21.75 19.5784 21.0784 20.25 20.25 20.25H18C17.7268 20.25 17.4706 20.177 17.25 20.0493" stroke="black" stroke-width="1.5" stroke-linecap="round" stroke-linejoin="round"/>
</svg>
