<svg width="24" height="24" viewBox="0 0 24 24" fill="none" xmlns="http://www.w3.org/2000/svg">
<path d="M12 20.25V12M12 12H10.5M12 12H13.5M15.75 20.25V15.75H21.75M21.75 15.75V9.75M21.75 15.75V20.25M8.25 20.25V15.75H2.25M2.25 15.75V9.75M2.25 15.75V20.25M10.5 12H6M10.5 12L10.1767 11.515C9.4925 10.4887 9.62781 9.12218 10.5 8.25H12M13.5 12H18M13.5 12L13.8233 11.515C14.5075 10.4887 14.3722 9.12218 13.5 8.25H12M12 8.25C12 7.25 12.45 4.95 14.25 3.75M12 8.25C12 7.5 11.55 5.85 9.75 5.25M14.25 3.75V4.5M14.25 3.75H15M14.25 3.75V3M14.25 3.75H13.5M9.75 5.25V4.5M9.75 5.25H9M9.75 5.25V6M9.75 5.25H10.5" stroke="black" stroke-width="1.5" stroke-linecap="round" stroke-linejoin="round"/>
</svg>
