<svg width="24" height="24" viewBox="0 0 24 24" fill="none" xmlns="http://www.w3.org/2000/svg">
<path d="M8.25 15.75L15.75 8.25M18.8943 5.10562C17.9088 4.12012 16.5112 3.7978 15.2562 4.13868C14.6098 3.01026 13.3937 2.25 12 2.25C10.6063 2.25 9.39018 3.0103 8.74377 4.13875C7.48874 3.7979 6.0912 4.12022 5.10571 5.10571C4.12022 6.0912 3.7979 7.48874 4.13876 8.74377C3.0103 9.39018 2.25 10.6063 2.25 12C2.25 13.3937 3.01028 14.6098 4.13872 15.2562C3.7979 16.5112 4.12022 17.9087 5.1057 18.8942C6.09118 19.8797 7.48871 20.202 8.74372 19.8612C9.39012 20.9897 10.6063 21.75 12 21.75C13.3937 21.75 14.6098 20.9897 15.2562 19.8612C16.5113 20.2021 17.9088 19.8798 18.8943 18.8943C19.8798 17.9088 20.2021 16.5113 19.8612 15.2562C20.9897 14.6098 21.75 13.3937 21.75 12C21.75 10.6063 20.9897 9.39016 19.8612 8.74375C20.2021 7.48871 19.8798 6.09114 18.8943 5.10562ZM13.5 15C13.5 14.1716 14.1716 13.5 15 13.5C15.8284 13.5 16.5 14.1716 16.5 15C16.5 15.8284 15.8284 16.5 15 16.5C14.1716 16.5 13.5 15.8284 13.5 15ZM10.5 9C10.5 8.17157 9.82843 7.5 9 7.5C8.17157 7.5 7.5 8.17157 7.5 9C7.5 9.82843 8.17157 10.5 9 10.5C9.82843 10.5 10.5 9.82843 10.5 9Z" stroke="black" stroke-width="1.5" stroke-linecap="round" stroke-linejoin="round"/>
</svg>
