<svg width="24" height="24" viewBox="0 0 24 24" fill="none" xmlns="http://www.w3.org/2000/svg">
<path d="M10.5 2.25V3.78039M10.5 3.78039V11.833M10.5 3.78039C10.6633 3.76029 10.8291 3.75 10.9966 3.75H12.6967C12.9713 3.75 13.2397 3.77386 13.5 3.81952M10.5 3.78039C9.04548 3.95932 7.78384 4.91543 7.22996 6.30012C6.24033 8.77419 7.864 11.5091 10.5 11.833M10.5 11.833V20.1805M10.5 11.833C10.5162 11.835 10.5324 11.8369 10.5486 11.8387L13.4514 12.1613C13.4677 12.1631 13.4839 12.165 13.5 12.167M10.5 20.1805V21.75M10.5 20.1805C10.7603 20.2261 11.0287 20.25 11.3033 20.25H13.0034C13.1709 20.25 13.3367 20.2397 13.5 20.2196M10.5 20.1805C8.10688 19.7608 6.39298 17.4991 6.74997 15M13.5 2.25V3.81952M13.5 3.81952V12.167M13.5 3.81952C15.8931 4.23925 17.607 6.50094 17.25 9M13.5 12.167V20.2196M13.5 12.167C16.136 12.4909 17.7597 15.2258 16.7701 17.6999C16.2162 19.0846 14.9545 20.0407 13.5 20.2196M13.5 20.2196V21.75" stroke="black" stroke-width="1.5" stroke-linecap="round" stroke-linejoin="round"/>
</svg>
