<svg width="24" height="24" viewBox="0 0 24 24" fill="none" xmlns="http://www.w3.org/2000/svg">
<path d="M15.75 18.7499L13.5 16.4999L11.25 18.7499M15.75 18.7499L13.5 20.9999L11.25 18.7499M15.75 18.7499L21.75 18.75M11.25 18.7499H6.74999M12 12L9.74999 9.75L7.49999 12M12 12L9.74999 14.25L7.49999 12M12 12H15M7.49999 12H6.74999M19.5 12L17.25 9.75L15 12M19.5 12L17.25 14.25L15 12M19.5 12H21.75M13.5 5.25L11.25 3L8.99999 5.25M13.5 5.25L11.25 7.5L8.99999 5.25M13.5 5.25H16.5M8.99999 5.25H6.74999M21 5.25L18.75 3L16.5 5.25M21 5.25L18.75 7.5L16.5 5.25M21 5.25H21.75M3 18C3.41421 18 3.75 18.3358 3.75 18.75C3.75 19.1642 3.41421 19.5 3 19.5C2.58579 19.5 2.25 19.1642 2.25 18.75C2.25 18.3358 2.58579 18 3 18ZM3 11.25C3.41421 11.25 3.75 11.5858 3.75 12C3.75 12.4142 3.41421 12.75 3 12.75C2.58579 12.75 2.25 12.4142 2.25 12C2.25 11.5858 2.58579 11.25 3 11.25ZM3 4.5C3.41421 4.5 3.75 4.83579 3.75 5.25C3.75 5.66421 3.41421 6 3 6C2.58579 6 2.25 5.66421 2.25 5.25C2.25 4.83579 2.58579 4.5 3 4.5Z" stroke="black" stroke-width="1.5" stroke-linecap="round" stroke-linejoin="round"/>
</svg>
