<svg width="24" height="24" viewBox="0 0 24 24" fill="none" xmlns="http://www.w3.org/2000/svg">
<path d="M13.5 13.4999L11.25 15.7499L9.00002 17.9999L3 20.9999L6.00002 14.9999L12 8.99986L11.8364 8.50888C11.477 7.43084 11.7576 6.2423 12.5612 5.4388L14.8859 3.1142C16.0575 1.9427 17.957 1.94273 19.1285 3.11428L20.8859 4.87164C22.0575 6.04324 22.0574 7.94279 20.8858 9.11435L18.5611 11.4389C17.7576 12.2423 16.5691 12.5229 15.4911 12.1636L15 11.9999L13.5 13.4999ZM9.00002 17.9999L8.25 17.2498M11.25 15.7499L10.5 14.9999M13.5 13.4999L12.75 12.7499" stroke="black" stroke-width="1.5" stroke-linecap="round" stroke-linejoin="round"/>
</svg>
