<svg width="24" height="24" viewBox="0 0 24 24" fill="none" xmlns="http://www.w3.org/2000/svg">
<path d="M7.5 4.49996V3.75016C7.5 2.92173 8.17157 2.25016 9 2.25016L20.25 2.25C21.0784 2.24999 21.75 2.92156 21.75 3.75V15.0002C21.75 15.8286 21.0784 16.5002 20.25 16.5002L19.5 16.5M9.375 18V14.625M9.375 14.625V11.25M9.375 14.625H12.75M9.375 14.625H6M2.25 9.00027V20.2503C2.25 21.0787 2.92157 21.7503 3.75 21.7503H15C15.8284 21.7503 16.5 21.0787 16.5 20.2503V9.00027C16.5 8.17184 15.8284 7.50027 15 7.50027H3.75C2.92157 7.50027 2.25 8.17184 2.25 9.00027Z" stroke="black" stroke-width="1.5" stroke-linecap="round" stroke-linejoin="round"/>
</svg>
