<svg width="24" height="24" viewBox="0 0 24 24" fill="none" xmlns="http://www.w3.org/2000/svg">
<path d="M7.5 4.49998V3.75018C7.5 2.92175 8.17157 2.25018 9 2.25018L15.1287 2.25C15.5265 2.24999 15.908 2.40802 16.1894 2.68934L21.3107 7.81064C21.592 8.09195 21.75 8.47348 21.75 8.8713V15.0002C21.75 15.8286 21.0784 16.5002 20.25 16.5002L19.5 16.5M9 18V15.0002M9 15.0002V12M9 15.0002H12M9 15.0002H6M2.25 9.00029V20.2503C2.25 21.0787 2.92157 21.7503 3.75 21.7503H15C15.8284 21.7503 16.5 21.0787 16.5 20.2503V14.1214C16.5 13.7236 16.342 13.3421 16.0607 13.0608L10.9394 7.93945C10.658 7.65813 10.2765 7.5001 9.87865 7.50011L3.75 7.50029C2.92157 7.50029 2.25 8.17186 2.25 9.00029Z" stroke="black" stroke-width="1.5" stroke-linecap="round" stroke-linejoin="round"/>
</svg>
