<svg width="24" height="24" viewBox="0 0 24 24" fill="none" xmlns="http://www.w3.org/2000/svg">
<path d="M19.5 12.75V19.5C19.5 20.3284 18.8284 21 18 21H4.5C3.67157 21 3 20.3284 3 19.5V6.00002C3 5.17159 3.67157 4.50002 4.5 4.50002H11.25M8.25 15.75V13.3713C8.25 12.9735 8.40804 12.592 8.68934 12.3107L17.6893 3.31068C18.2751 2.72489 19.2249 2.72489 19.8107 3.31068L20.6893 4.18936C21.2751 4.77515 21.2751 5.72489 20.6893 6.31068L11.6893 15.3107C11.408 15.592 11.0265 15.75 10.6287 15.75H8.25Z" stroke="black" stroke-width="1.5" stroke-linecap="round" stroke-linejoin="round"/>
</svg>
