<svg width="24" height="24" viewBox="0 0 24 24" fill="none" xmlns="http://www.w3.org/2000/svg">
<path d="M15.75 6V18M18 8.25L15.75 6L13.5 8.25M13.5 15.75L15.75 18L18 15.75M8.25 12.75C9.49264 12.75 10.5 11.7426 10.5 10.5C10.5 9.25736 9.49264 8.25 8.25 8.25C7.00736 8.25 6 9.25736 6 10.5C6 11.7426 7.00736 12.75 8.25 12.75ZM8.25 12.75C7.00736 12.75 6 13.7574 6 15V15.75M8.25 12.75C9.49264 12.75 10.5 13.7574 10.5 15V15.75M21 4.5V19.5C21 20.3284 20.3284 21 19.5 21H4.5C3.67157 21 3 20.3284 3 19.5V4.5C3 3.67157 3.67157 3 4.5 3H19.5C20.3284 3 21 3.67157 21 4.5Z" stroke="black" stroke-width="1.5" stroke-miterlimit="1.78829" stroke-linecap="round" stroke-linejoin="round"/>
</svg>
