<svg width="24" height="24" viewBox="0 0 24 24" fill="none" xmlns="http://www.w3.org/2000/svg">
<path d="M12 21.75C6.61522 21.75 2.25 17.3848 2.25 12C2.25 6.61522 6.61522 2.25 12 2.25C17.3848 2.25 21.75 6.61522 21.75 12M9.75 15C10.9926 16.2426 13.0074 16.2426 14.25 15M22.5 19.5H19.5M19.5 19.5H16.5M19.5 19.5V16.5M19.5 19.5V22.5M8.25 12C8.25 11.5858 7.91421 11.25 7.5 11.25C7.08579 11.25 6.75 11.5858 6.75 12C6.75 12.4142 7.08579 12.75 7.5 12.75C7.91421 12.75 8.25 12.4142 8.25 12ZM17.25 12C17.25 11.5858 16.9142 11.25 16.5 11.25C16.0858 11.25 15.75 11.5858 15.75 12C15.75 12.4142 16.0858 12.75 16.5 12.75C16.9142 12.75 17.25 12.4142 17.25 12Z" stroke="black" stroke-width="1.5" stroke-linecap="round" stroke-linejoin="round"/>
</svg>
