<svg width="24" height="24" viewBox="0 0 24 24" fill="none" xmlns="http://www.w3.org/2000/svg">
<path d="M18.75 17.25H15.75V20.25H21.75V17.25H18.75ZM18.75 17.25V12.75M18.75 9.75V5.25M18.75 9.75H20.25C21.0784 9.75 21.75 9.07843 21.75 8.25V6.75M18.75 9.75V12.75M18.75 12.75H17.25C16.4216 12.75 15.75 12.0784 15.75 11.25V9.75M8.25 11.25V12.75M3.75 3.75H9.75C10.5784 3.75 11.25 4.42157 11.25 5.25V18.75C11.25 19.5784 10.5784 20.25 9.75 20.25H3.75C2.92157 20.25 2.25 19.5784 2.25 18.75V5.25C2.25 4.42157 2.92157 3.75 3.75 3.75Z" stroke="black" stroke-width="1.5" stroke-linecap="round" stroke-linejoin="round"/>
</svg>
