<svg width="24" height="24" viewBox="0 0 24 24" fill="none" xmlns="http://www.w3.org/2000/svg">
<path d="M6 13.5L4.5 15C3.25736 16.2427 3.25736 18.2574 4.5 19.5C5.74264 20.7427 7.75736 20.7427 9 19.5L10.5 18M10.5 18L6 13.5M10.5 18C10.9142 18.4142 11.5858 18.4142 12 18L13.5 16.5M15.75 14.25L18 12L21.4393 8.56068C22.0251 7.97489 22.0251 7.02514 21.4393 6.43936L17.5607 2.56068C16.9749 1.97489 16.0251 1.97489 15.4393 2.56068L5.25 12.75L6 13.5M4.5 19.5L2.25 21.75M13.5 16.5L11.25 14.25M13.5 16.5L15.75 14.25M15.75 14.25L13.5 12M18 12L15.75 9.75002" stroke="black" stroke-width="1.5" stroke-linecap="round" stroke-linejoin="round"/>
</svg>
