<svg width="24" height="24" viewBox="0 0 24 24" fill="none" xmlns="http://www.w3.org/2000/svg">
<path d="M16.5 6H18.2238C18.5644 6 18.8949 6.11592 19.1609 6.3287L21.0359 7.8287C21.7865 8.42918 21.7865 9.57082 21.0359 10.1713L19.1609 11.6713C18.8949 11.8841 18.5644 12 18.2238 12H16.5M16.5 6H15.75C14.9216 6 14.25 6.67157 14.25 7.5V10.5C14.25 11.3284 14.9216 12 15.75 12H16.5M16.5 6V3.75M16.5 12V20.25M4.5 12H6.22383C6.56444 12 6.8949 12.1159 7.16087 12.3287L9.03587 13.8287C9.78648 14.4292 9.78648 15.5708 9.03587 16.1713L7.16087 17.6713C6.8949 17.8841 6.56444 18 6.22383 18H4.5M4.5 12H3.75C2.92157 12 2.25 12.6716 2.25 13.5V16.5C2.25 17.3284 2.92157 18 3.75 18H4.5M4.5 12V3.75M4.5 18V20.25M7.5 9H9M7.5 5.25H9M19.5 18.75H21M19.5 15H21" stroke="black" stroke-width="1.5" stroke-miterlimit="1.78829" stroke-linecap="round" stroke-linejoin="round"/>
</svg>
