<svg width="24" height="24" viewBox="0 0 24 24" fill="none" xmlns="http://www.w3.org/2000/svg">
<path d="M7.89767 13.8523C8.12298 14.3505 8.43637 14.8004 8.81799 15.182C9.19961 15.5636 9.64945 15.877 10.1477 16.1023C10.7126 16.3578 11.3397 16.5001 12 16.5001C14.4853 16.5001 16.5 14.4853 16.5 12.0001C16.5 11.3397 16.3578 10.7126 16.1023 10.1477C15.6517 9.15131 14.8487 8.34834 13.8523 7.89773C13.2874 7.64227 12.6603 7.50006 12 7.50006C9.51472 7.50006 7.5 9.51478 7.5 12.0001C7.5 12.6603 7.64221 13.2874 7.89767 13.8523ZM13.8523 7.89773L7.89767 13.8523M16.1023 10.1477L10.1477 16.1023M21.2112 11.3073L21.75 12.0001C17.1643 19.055 6.8357 19.055 2.25 12.0001C6.67764 5.3586 16.3107 5.00664 21.2112 11.3073Z" stroke="black" stroke-width="1.5" stroke-linecap="round" stroke-linejoin="round"/>
</svg>
