<svg width="24" height="24" viewBox="0 0 24 24" fill="none" xmlns="http://www.w3.org/2000/svg">
<path d="M12 7.50006C14.4853 7.50006 16.5 9.51478 16.5 12.0001M15.182 15.182C14.3677 15.9964 13.2427 16.5001 12 16.5001C9.51472 16.5001 7.5 14.4853 7.5 12.0001C7.5 10.7574 8.00369 9.63239 8.81805 8.81805M15.182 15.182L8.81805 8.81805M15.182 15.182L16.4267 16.4267M8.81805 8.81805L7.62605 7.62605M11.3117 6.81168C14.9631 6.6036 18.7057 8.08595 21.2112 11.3073L21.75 12.0001C21.0428 13.0881 20.199 14.0083 19.2607 14.7607M7.62605 7.62605C5.52766 8.46178 3.63438 9.92348 2.25 12.0001C5.46967 16.9534 11.5204 18.4289 16.4267 16.4267M7.62605 7.62605L2.25 2.25M16.4267 16.4267L21.75 21.75" stroke="black" stroke-width="1.5" stroke-linecap="round" stroke-linejoin="round"/>
</svg>
