<svg width="24" height="24" viewBox="0 0 24 24" fill="none" xmlns="http://www.w3.org/2000/svg">
<path d="M3.75 4.66615C4.47737 5.64369 6.32453 6.55217 8.00246 6.16312M8.00246 6.16312C8.63138 6.0173 9.23651 5.6892 9.75 5.11412C11.75 2.87424 9.05384 0.985818 7.75 3.32221C7.29784 4.13246 7.45903 5.21747 8.00246 6.16312ZM8.00246 6.16312C8.66088 7.30885 9.88041 8.25 11.25 8.25M3.75 18.75C4.70053 18.75 5.95946 18.6151 7.37777 18.2768M7.37777 18.2768C11.5549 17.2806 17.1146 14.5208 20.25 8.25M20.25 8.25C16.5 9 15.75 10.5 9.75 12.7501C6.72464 13.8846 6.91851 16.9346 7.37777 18.2768C8.16851 19.4346 9 21.7501 12 21.7501V20.2501L14.25 21.0001C16.75 19.5001 21.45 14.25 20.25 8.25Z" stroke="black" stroke-width="1.5" stroke-linecap="round" stroke-linejoin="round"/>
</svg>
