<svg width="24" height="24" viewBox="0 0 24 24" fill="none" xmlns="http://www.w3.org/2000/svg">
<path d="M7.5 22.5V19.5M7.5 19.5V18C7.5 17.1716 8.17157 16.5 9 16.5C9.82843 16.5 10.5 17.1716 10.5 18V19.5M7.5 19.5H10.5M10.5 19.5V22.5M4.5 16.5L3 19.5M3 19.5L1.5 22.5M3 19.5L1.5 16.5M19.5 16.5V22.5H22.5M13.5 22.5V16.5L15 19.5L16.5 16.5V22.5M20.25 9.75H14.25C13.4216 9.75 12.75 9.07843 12.75 8.25V2.25M20.25 12.75V9.75L12.75 2.25H5.25C4.42157 2.25 3.75 2.92157 3.75 3.75V12.75" stroke="black" stroke-width="1.5" stroke-linecap="round" stroke-linejoin="round"/>
</svg>
