<svg width="24" height="24" viewBox="0 0 24 24" fill="none" xmlns="http://www.w3.org/2000/svg">
<path d="M16.5 21C16.5 21.8284 15.8284 22.5 15 22.5C14.1716 22.5 13.5 21.8284 13.5 21V18C13.5 17.1716 14.1716 16.5 15 16.5C15.8284 16.5 16.5 17.1716 16.5 18M19.5 16.5V16.7574C19.5 17.553 19.8161 18.3161 20.3787 18.8787L21 19.5M21 19.5L21.6213 20.1213C22.1839 20.6839 22.5 21.447 22.5 22.2426V22.5M21 19.5L20.3787 20.1213C19.8161 20.6839 19.5 21.447 19.5 22.2426V22.5M21 19.5L21.6213 18.8787C22.1839 18.3161 22.5 17.553 22.5 16.7574V16.5M20.25 9.75H14.25C13.4216 9.75 12.75 9.07843 12.75 8.25V2.25M20.25 12.75V9.75L12.75 2.25H5.25C4.42157 2.25 3.75 2.92157 3.75 3.75V12.75M7.5 21V18C7.5 17.1716 8.17157 16.5 9 16.5C9.82843 16.5 10.5 17.1716 10.5 18V21C10.5 21.8284 9.82843 22.5 9 22.5C8.17157 22.5 7.5 21.8284 7.5 21ZM1.5 22.5V16.5H3C3.82843 16.5 4.5 17.1716 4.5 18V21C4.5 21.8284 3.82843 22.5 3 22.5H1.5Z" stroke="black" stroke-width="1.5" stroke-linecap="round" stroke-linejoin="round"/>
</svg>
