<svg width="24" height="24" viewBox="0 0 24 24" fill="none" xmlns="http://www.w3.org/2000/svg">
<path d="M12 7.5H13.875C14.9105 7.5 15.75 8.33947 15.75 9.375C15.75 10.4105 14.9105 11.25 13.875 11.25M12 7.5H10.125C9.08947 7.5 8.25 8.33947 8.25 9.375C8.25 10.4105 9.08947 11.25 10.125 11.25M12 7.5V11.25M10.125 11.25H12M10.125 11.25C9.08947 11.25 8.25 12.0895 8.25 13.125C8.25 14.1605 9.08947 15 10.125 15M12 11.25H13.875M12 11.25V13.125M13.875 11.25C14.9105 11.25 15.75 12.0895 15.75 13.125C15.75 14.1605 14.9105 15 13.875 15C12.8395 15 12 14.1605 12 13.125M13.875 11.25C12.8395 11.25 12 12.0895 12 13.125M10.125 15H12M10.125 15C9.08947 15 8.25 15.8395 8.25 16.875C8.25 17.9105 9.08947 18.75 10.125 18.75C11.1605 18.75 12 17.9105 12 16.875V15M12 15V13.125M3.75 3.75V20.25C3.75 21.0784 4.42157 21.75 5.25 21.75H18.75C19.5784 21.75 20.25 21.0784 20.25 20.25V8.87132C20.25 8.4735 20.092 8.09196 19.8107 7.81066L14.6893 2.68934C14.408 2.40803 14.0265 2.25 13.6287 2.25H5.25C4.42157 2.25 3.75 2.92157 3.75 3.75Z" stroke="black" stroke-width="1.5" stroke-linecap="round" stroke-linejoin="round"/>
</svg>
