<svg width="24" height="24" viewBox="0 0 24 24" fill="none" xmlns="http://www.w3.org/2000/svg">
<path d="M11.8713 13.6287C12.4142 14.1716 12.75 14.9216 12.75 15.75C12.75 17.4069 11.4069 18.75 9.75 18.75C8.09315 18.75 6.75 17.4069 6.75 15.75C6.75 14.0931 8.09315 12.75 9.75 12.75C10.5784 12.75 11.3284 13.0858 11.8713 13.6287ZM11.8713 13.6287L15 10.5M15 10.5L16.5 9M15 10.5L16.5 12M3.75 3.75V20.25C3.75 21.0784 4.42157 21.75 5.25 21.75H18.75C19.5784 21.75 20.25 21.0784 20.25 20.25L20.25 8.87132C20.25 8.4735 20.092 8.09196 19.8107 7.81066L14.6893 2.68934C14.408 2.40803 14.0265 2.25 13.6287 2.25H5.25C4.42157 2.25 3.75 2.92157 3.75 3.75Z" stroke="black" stroke-width="1.5" stroke-linecap="round" stroke-linejoin="round"/>
</svg>
