<svg width="24" height="24" viewBox="0 0 24 24" fill="none" xmlns="http://www.w3.org/2000/svg">
<path d="M19.5 16.5H21M21 16.5H22.5M21 16.5V22.5M21 22.5H19.5M21 22.5H22.5M13.5 22.5V19.5M13.5 19.5V18C13.5 17.1716 14.1716 16.5 15 16.5C15.8284 16.5 16.5 17.1716 16.5 18V19.5M13.5 19.5H16.5M16.5 19.5V22.5M20.25 9.75H14.25C13.4216 9.75 12.75 9.07843 12.75 8.25V2.25M20.25 12.75V9.75L12.75 2.25H5.25C4.42157 2.25 3.75 2.92157 3.75 3.75V20.25C3.75 21.0784 4.42157 21.75 5.25 21.75H9.75" stroke="black" stroke-width="1.5" stroke-linecap="round" stroke-linejoin="round"/>
</svg>
