<svg width="24" height="24" viewBox="0 0 24 24" fill="none" xmlns="http://www.w3.org/2000/svg">
<path d="M14.25 12.75L12 14.25L10.5 13.5M5.25 21.75H18.75C19.5784 21.75 20.25 21.0784 20.25 20.25L20.25 8.87132C20.25 8.4735 20.092 8.09196 19.8107 7.81066L14.6893 2.68934C14.408 2.40803 14.0265 2.25 13.6287 2.25H5.25C4.42157 2.25 3.75 2.92157 3.75 3.75V20.25C3.75 21.0784 4.42157 21.75 5.25 21.75ZM17.25 13.5C17.25 10.6005 14.8995 8.25 12 8.25C9.10051 8.25 6.75 10.6005 6.75 13.5C6.75 16.3995 9.10051 18.75 12 18.75C14.8995 18.75 17.25 16.3995 17.25 13.5Z" stroke="black" stroke-width="1.5" stroke-linecap="round" stroke-linejoin="round"/>
</svg>
