<svg width="24" height="24" viewBox="0 0 24 24" fill="none" xmlns="http://www.w3.org/2000/svg">
<path d="M20.25 9.75H14.25C13.4216 9.75 12.75 9.07843 12.75 8.25V2.25M20.25 12.75V9.75L12.75 2.25H5.25C4.42157 2.25 3.75 2.92157 3.75 3.75V22.5M7.5 21.75C7.5 21.75 8.25 22.5 9.10943 22.5C9.87742 22.5 10.5 21.8774 10.5 21.1094C10.5 20.5827 10.2024 20.1012 9.73131 19.8657L8.26869 19.1343C7.79758 18.8988 7.5 18.4173 7.5 17.8906C7.5 17.1226 8.12258 16.5 8.89057 16.5C9.73131 16.5 10.5 17.25 10.5 17.25M15 16.5V22.5M15 16.5H13.5M15 16.5H16.5M19.5 16.5V22.5H22.5" stroke="black" stroke-width="1.5" stroke-linecap="round" stroke-linejoin="round"/>
</svg>
