<svg width="24" height="24" viewBox="0 0 24 24" fill="none" xmlns="http://www.w3.org/2000/svg">
<path d="M19.5 16.5L20.157 21.7558C20.2101 22.1809 20.5715 22.5 21 22.5C21.4285 22.5 21.7899 22.1809 21.843 21.7558L22.5 16.5M13.5 21.75C13.5 21.75 14.25 22.5 15.1094 22.5C15.8774 22.5 16.5 21.8774 16.5 21.1094C16.5 20.5827 16.2024 20.1012 15.7313 19.8657L14.2687 19.1343C13.7976 18.8988 13.5 18.4173 13.5 17.8906C13.5 17.1226 14.1226 16.5 14.8906 16.5C15.7313 16.5 16.5 17.25 16.5 17.25M10.5 21C10.5 21.8284 9.82843 22.5 9 22.5C8.17157 22.5 7.5 21.8284 7.5 21V18C7.5 17.1716 8.17157 16.5 9 16.5C9.82843 16.5 10.5 17.1716 10.5 18M20.25 9.75H14.25C13.4216 9.75 12.75 9.07843 12.75 8.25V2.25M20.25 12.75V9.75L12.75 2.25H5.25C4.42157 2.25 3.75 2.92157 3.75 3.75V21.75" stroke="black" stroke-width="1.5" stroke-linecap="round" stroke-linejoin="round"/>
</svg>
