<svg width="24" height="24" viewBox="0 0 24 24" fill="none" xmlns="http://www.w3.org/2000/svg">
<path d="M7.5 19.5V16.5H9C9.82843 16.5 10.5 17.1716 10.5 18C10.5 18.8284 9.82843 19.5 9 19.5H7.5ZM7.5 19.5V22.5M22.5 16.5H19.5V19.5M19.5 19.5V22.5M19.5 19.5H21.75M20.25 9.75H14.25C13.4216 9.75 12.75 9.07843 12.75 8.25V2.25M20.25 12.75V9.75L12.75 2.25H5.25C4.42157 2.25 3.75 2.92157 3.75 3.75V21.75M13.5 22.5V16.5H15C15.8284 16.5 16.5 17.1716 16.5 18V21C16.5 21.8284 15.8284 22.5 15 22.5H13.5Z" stroke="black" stroke-width="1.5" stroke-linecap="round" stroke-linejoin="round"/>
</svg>
