<svg width="24" height="24" viewBox="0 0 24 24" fill="none" xmlns="http://www.w3.org/2000/svg">
<path d="M12.75 2.25H5.25C4.42157 2.25 3.75 2.92157 3.75 3.75V21.75M12.75 2.25H18.75C19.5784 2.25 20.25 2.92157 20.25 3.75V12.75M12.75 2.25V3M11.25 4.5V5.25M12.75 6.75V7.5M11.25 9V9.75M12.75 11.25V12M19.5 19.5V16.5H21C21.8284 16.5 22.5 17.1716 22.5 18C22.5 18.8284 21.8284 19.5 21 19.5M19.5 19.5V22.5M19.5 19.5H21M21 19.5L22.5 22.5M7.5 19.5V16.5H9C9.82843 16.5 10.5 17.1716 10.5 18C10.5 18.8284 9.82843 19.5 9 19.5M7.5 19.5V22.5M7.5 19.5H9M9 19.5L10.5 22.5M13.5 22.5V19.5M13.5 19.5V18C13.5 17.1716 14.1716 16.5 15 16.5C15.8284 16.5 16.5 17.1716 16.5 18V19.5M13.5 19.5H16.5M16.5 19.5V22.5" stroke="black" stroke-width="1.5" stroke-linecap="round" stroke-linejoin="round"/>
</svg>
