<svg width="24" height="24" viewBox="0 0 24 24" fill="none" xmlns="http://www.w3.org/2000/svg">
<path d="M20.25 9.75H14.25C13.4216 9.75 12.75 9.07843 12.75 8.25V2.25M20.25 11.6341V9.75L12.75 2.25H5.25C4.42157 2.25 3.75 2.92157 3.75 3.75V20.25C3.75 21.0784 4.42157 21.75 5.25 21.75H12.3867M16.5 18V16.875C16.5 15.4253 17.6753 14.25 19.125 14.25C20.5747 14.25 21.75 15.4253 21.75 16.875V18M16.5 18H21.75M16.5 18C16.0858 18 15.75 18.3358 15.75 18.75V21C15.75 21.8284 16.4216 22.5 17.25 22.5H21C21.8284 22.5 22.5 21.8284 22.5 21V18.75C22.5 18.3358 22.1642 18 21.75 18" stroke="black" stroke-width="1.5" stroke-miterlimit="1.78829" stroke-linecap="round" stroke-linejoin="round"/>
</svg>
