<svg width="24" height="24" viewBox="0 0 24 24" fill="none" xmlns="http://www.w3.org/2000/svg">
<path d="M7.5 16.5V22.5H10.5M1.5 16.5V16.7574C1.5 17.553 1.81607 18.3161 2.37868 18.8787L3 19.5M3 19.5L3.62132 20.1213C4.18393 20.6839 4.5 21.447 4.5 22.2426V22.5M3 19.5L2.37868 20.1213C1.81607 20.6839 1.5 21.447 1.5 22.2426V22.5M3 19.5L3.62132 18.8787C4.18393 18.3161 4.5 17.553 4.5 16.7574V16.5M13.5 21.75C13.5 21.75 14.25 22.5 15.1094 22.5C15.8774 22.5 16.5 21.8774 16.5 21.1094C16.5 20.5827 16.2024 20.1012 15.7313 19.8657L14.2687 19.1343C13.7976 18.8988 13.5 18.4173 13.5 17.8906C13.5 17.1226 14.1226 16.5 14.8906 16.5C15.7313 16.5 16.5 17.25 16.5 17.25M19.5 16.5V16.7574C19.5 17.553 19.8161 18.3161 20.3787 18.8787L21 19.5M21 19.5L21.6213 20.1213C22.1839 20.6839 22.5 21.447 22.5 22.2426V22.5M21 19.5L20.3787 20.1213C19.8161 20.6839 19.5 21.447 19.5 22.2426V22.5M21 19.5L21.6213 18.8787C22.1839 18.3161 22.5 17.553 22.5 16.7574V16.5M20.25 9.75H14.25C13.4216 9.75 12.75 9.07843 12.75 8.25V2.25M20.25 12.75V9.75L12.75 2.25H5.25C4.42157 2.25 3.75 2.92157 3.75 3.75V12.75" stroke="black" stroke-width="1.5" stroke-linecap="round" stroke-linejoin="round"/>
</svg>
