<svg width="24" height="24" viewBox="0 0 24 24" fill="none" xmlns="http://www.w3.org/2000/svg">
<path d="M13.5 16.5H15M15 16.5H16.5M15 16.5V22.5M15 22.5H13.5M15 22.5H16.5M19.5 19.5V16.5H21C21.8284 16.5 22.5 17.1716 22.5 18C22.5 18.8284 21.8284 19.5 21 19.5H19.5ZM19.5 19.5V22.5M7.5 16.5H10.5L7.5 22.5H10.5M12.75 2.25H5.25C4.42157 2.25 3.75 2.92157 3.75 3.75V21.75M12.75 2.25H18.75C19.5784 2.25 20.25 2.92157 20.25 3.75V12.75M12.75 2.25V3M11.25 4.5V5.25M12.75 6.75V7.5M11.25 9V9.75M12.75 11.25V12" stroke="black" stroke-width="1.5" stroke-linecap="round" stroke-linejoin="round"/>
</svg>
