<svg width="24" height="24" viewBox="0 0 24 24" fill="none" xmlns="http://www.w3.org/2000/svg">
<path d="M22.5 21C22.5 21.8284 21.8284 22.5 21 22.5C20.1716 22.5 19.5 21.8284 19.5 21V18C19.5 17.1716 20.1716 16.5 21 16.5C21.8284 16.5 22.5 17.1716 22.5 18M20.25 9.75H14.25C13.4216 9.75 12.75 9.07843 12.75 8.25V2.25M20.25 12.75V9.75L12.75 2.25H5.25C4.42157 2.25 3.75 2.92157 3.75 3.75V21.75M13.5 21V18C13.5 17.1716 14.1716 16.5 15 16.5C15.8284 16.5 16.5 17.1716 16.5 18V21C16.5 21.8284 15.8284 22.5 15 22.5C14.1716 22.5 13.5 21.8284 13.5 21ZM7.5 22.5V16.5H9C9.82843 16.5 10.5 17.1716 10.5 18V21C10.5 21.8284 9.82843 22.5 9 22.5H7.5Z" stroke="black" stroke-width="1.5" stroke-linecap="round" stroke-linejoin="round"/>
</svg>
