<svg width="24" height="24" viewBox="0 0 24 24" fill="none" xmlns="http://www.w3.org/2000/svg">
<path d="M19.5 16.5V22.5H22.5M13.5 22.5V16.5L15 19.5L16.5 16.5V22.5M7.5 16.5V16.7574C7.5 17.553 7.81607 18.3161 8.37868 18.8787L9 19.5M9 19.5L9.62132 20.1213C10.1839 20.6839 10.5 21.447 10.5 22.2426V22.5M9 19.5L8.37868 20.1213C7.81607 20.6839 7.5 21.447 7.5 22.2426V22.5M9 19.5L9.62132 18.8787C10.1839 18.3161 10.5 17.553 10.5 16.7574V16.5M20.25 9.75H14.25C13.4216 9.75 12.75 9.07843 12.75 8.25V2.25M20.25 12.75V9.75L12.75 2.25H5.25C4.42157 2.25 3.75 2.92157 3.75 3.75V21.75" stroke="black" stroke-width="1.5" stroke-linecap="round" stroke-linejoin="round"/>
</svg>
