<svg width="24" height="24" viewBox="0 0 24 24" fill="none" xmlns="http://www.w3.org/2000/svg">
<path d="M20.25 9.75H14.25C13.4216 9.75 12.75 9.07843 12.75 8.25V2.25M20.25 12.75V9.75L12.75 2.25H5.25C4.42157 2.25 3.75 2.92157 3.75 3.75V12.75M19.5 22.5V16.5L22.5 22.5V16.5M7.5 21.75C7.5 21.75 8.25 22.5 9.10943 22.5C9.87742 22.5 10.5 21.8774 10.5 21.1094C10.5 20.5827 10.2024 20.1012 9.73131 19.8657L8.26869 19.1343C7.79758 18.8988 7.5 18.4173 7.5 17.8906C7.5 17.1226 8.12258 16.5 8.89057 16.5C9.73131 16.5 10.5 17.25 10.5 17.25M1.5 16.5H4.5V21C4.5 21.8284 3.82843 22.5 3 22.5C2.17157 22.5 1.5 21.8284 1.5 21M13.5 21V18C13.5 17.1716 14.1716 16.5 15 16.5C15.8284 16.5 16.5 17.1716 16.5 18V21C16.5 21.8284 15.8284 22.5 15 22.5C14.1716 22.5 13.5 21.8284 13.5 21Z" stroke="black" stroke-width="1.5" stroke-linecap="round" stroke-linejoin="round"/>
</svg>
