<svg width="24" height="24" viewBox="0 0 24 24" fill="none" xmlns="http://www.w3.org/2000/svg">
<path d="M11.25 7.5V6C11.25 5.17157 10.5784 4.5 9.75 4.5H9C9 3.67157 8.32843 3 7.5 3H6C5.17157 3 4.5 3.67157 4.5 4.5H3.75C2.92157 4.5 2.25 5.17157 2.25 6V19.5C2.25 20.3284 2.92157 21 3.75 21H9.75C10.5784 21 11.25 20.3284 11.25 19.5V18M11.25 7.5H12.75C13.5784 7.5 14.2255 8.19 14.4966 8.97284C15.1066 10.7348 16.7805 12 18.75 12C20.4069 12 21.75 13.3431 21.75 15V18H11.25M11.25 7.5H6.75V18H11.25" stroke="black" stroke-width="1.5" stroke-linecap="round" stroke-linejoin="round"/>
</svg>
