<svg width="24" height="24" viewBox="0 0 24 24" fill="none" xmlns="http://www.w3.org/2000/svg">
<path d="M2.25 7.5V16.5M2.25 7.5H6M2.25 7.5V3.75H6M2.25 16.5H6M2.25 16.5V20.25H6M6 7.5V3.75M6 7.5H6.75M6 3.75H9.75M9.75 3.75V7.5M9.75 3.75H13.5M9.75 7.5H13.5M9.75 7.5H6.75M13.5 7.5V3.75M13.5 7.5H17.25M13.5 3.75H17.25M17.25 7.5V3.75M17.25 7.5H18.75M17.25 3.75H21M21.75 3.75H21M21 3.75V7.5M21 7.5H18.75M21 7.5H21.75V16.5H21M6.75 7.5V16.5M6.75 16.5H6M6.75 16.5H9.75M18.75 7.5V16.5M18.75 16.5H17.25M18.75 16.5H21M6 20.25V16.5M6 20.25H9.75M9.75 20.25V16.5M9.75 20.25H13.5M9.75 16.5H13.5M13.5 20.25V16.5M13.5 20.25H17.25M13.5 16.5H17.25M17.25 20.25V16.5M17.25 20.25H21M21 20.25H21.75M21 20.25V16.5" stroke="black" stroke-width="1.5" stroke-linecap="round" stroke-linejoin="round"/>
</svg>
