<svg width="24" height="24" viewBox="0 0 24 24" fill="none" xmlns="http://www.w3.org/2000/svg">
<path d="M2.25 8.27906V5.25C2.25 4.42157 2.92157 3.75 3.75 3.75H20.25C21.0784 3.75 21.75 4.42157 21.75 5.25V8.37868C21.75 8.7765 21.592 9.15803 21.3107 9.43934L16.1893 14.5607C15.908 14.842 15.75 15.2235 15.75 15.6213V16.7895C15.75 17.3576 15.429 17.877 14.9208 18.1311L10.8354 20.1738C10.3367 20.4232 9.75 20.0605 9.75 19.503V15.7209C9.75 15.2653 9.54287 14.8343 9.18704 14.5496L2.81296 9.45037C2.45713 9.16571 2.25 8.73474 2.25 8.27906Z" stroke="black" stroke-width="1.5" stroke-linecap="round" stroke-linejoin="round"/>
</svg>
