<svg width="24" height="24" viewBox="0 0 24 24" fill="none" xmlns="http://www.w3.org/2000/svg">
<path d="M6.00024 21.7502C5.7918 21.3536 5.59806 20.9621 5.42035 20.5691C1.74912 14.0353 3.96496 3.16688 12.0001 2.25023C16.8171 1.70071 20.1873 4.94771 19.5001 9.75023C19.0663 12.7826 19.3342 15.7884 19.6822 18.2117C19.9508 20.0812 18.5542 21.7502 16.6655 21.7502C15.246 21.7502 13.989 20.7885 13.6659 19.4062C13.3003 17.8423 13.1154 16.5754 13.1249 14.2501C13.1323 12.4608 13.5017 10.6687 13.5617 9.53378C13.5933 8.93543 13.3693 8.2377 12.7775 8.14406C11.7404 7.97996 10.772 8.91858 10.3335 9.8726C9.26435 12.1981 9.60511 16.9141 11.2499 18.7501M8.99994 6.71063C9.98063 5.6906 11.2475 5.11956 12.7503 5.25002C17.2978 5.6448 16.5003 10.5 16.5003 10.5C16.5003 10.5 16.3127 11.8126 16.2189 13.5001C16.1667 14.4379 16.1435 15.4916 16.1976 16.5001C16.2408 17.3063 16.3333 18.0837 16.4999 18.7501M7.54492 9.00012C5.98865 12.7172 6.4536 18.3252 9.75008 21.7502" stroke="black" stroke-width="1.5" stroke-linecap="round" stroke-linejoin="round"/>
</svg>
