<svg width="24" height="24" viewBox="0 0 24 24" fill="none" xmlns="http://www.w3.org/2000/svg">
<path d="M2.25 9V3.75H3.75M2.25 9V15M2.25 9H5.25M21.75 9V3.75H15.75M21.75 9V15M21.75 9H18.75M21.75 17.25V15M21.75 15H19.5M2.25 15V20.25H8.25M2.25 15H5.25M8.25 20.25V15M8.25 20.25H15.75M8.25 15H12M8.25 15H5.25M15.75 20.25H20.25M15.75 20.25V15.75M20.25 20.25L15.75 15.75M20.25 20.25L21.75 21.75M15.75 15.75L15 15M15 15H12M15 15L12 12M12 15V12M12 12L9 9M18.75 9V14.25M18.75 9H15.75M5.25 15V9M5.25 9H8.25M8.25 9H9M8.25 9V8.25M9 9L8.25 8.25M3.75 3.75L2.25 2.25M3.75 3.75L8.25 8.25M13.5 9H15.75M15.75 9V3.75M15.75 3.75H8.25" stroke="black" stroke-width="1.5" stroke-linecap="round" stroke-linejoin="round"/>
</svg>
