<svg width="24" height="24" viewBox="0 0 24 24" fill="none" xmlns="http://www.w3.org/2000/svg">
<path d="M2.25 9V3.75H8.25M2.25 9V15M2.25 9H5.25M21.75 9V3.75H15.75M21.75 9V15M21.75 9H18.75M21.75 15V20.25H15.75M21.75 15H18.75M2.25 15V20.25H8.25M2.25 15H5.25M8.25 20.25V15M8.25 20.25H15.75M8.25 15H12M8.25 15H5.25M15.75 20.25V15M15.75 15H12M15.75 15H18.75M12 15V9M12 9H8.25M12 9H15.75M18.75 15V9M18.75 9H15.75M5.25 15V9M5.25 9H8.25M8.25 9V3.75M8.25 3.75H15.75M15.75 9V3.75" stroke="black" stroke-width="1.5" stroke-linecap="round" stroke-linejoin="round"/>
</svg>
