<svg width="24" height="24" viewBox="0 0 24 24" fill="none" xmlns="http://www.w3.org/2000/svg">
<path d="M9.0294 4.82834C7.85406 3.94288 6.17608 4.03533 5.10571 5.10571C4.03533 6.17608 3.94288 7.85406 4.82834 9.0294M9.0294 4.82834C9.23438 3.37113 10.4863 2.25 12 2.25C13.5138 2.25 14.7657 3.37123 14.9706 4.82854M9.0294 4.82834L10.8516 9.22764M14.9706 4.82854C16.146 3.9431 17.8239 4.03557 18.8943 5.10593C19.9646 6.17625 20.0571 7.85409 19.1718 9.02942M14.9706 4.82854L13.1484 9.22765M19.1718 9.02942C20.6289 9.23446 21.75 10.4863 21.75 12C21.75 13.5137 20.6289 14.7656 19.1717 14.9706M19.1718 9.02942L14.7724 10.8517M19.1717 14.9706C20.0571 16.1459 19.9647 17.8239 18.8943 18.8943C17.8239 19.9647 16.1459 20.0571 14.9706 19.1717M19.1717 14.9706L14.7724 13.1484M14.9706 19.1717C14.7656 20.6289 13.5137 21.75 12 21.75C10.4863 21.75 9.23449 20.629 9.02943 19.1719M14.9706 19.1717L13.1484 14.7724M9.02943 19.1719C7.85409 20.0573 6.17609 19.9649 5.10571 18.8945C4.03527 17.8241 3.94287 16.146 4.82849 14.9706M9.02943 19.1719L10.8517 14.7724M4.82849 14.9706C3.37121 14.7657 2.25 13.5138 2.25 12C2.25 10.4863 3.37113 9.23438 4.82834 9.0294M4.82849 14.9706L9.22765 13.1484M4.82834 9.0294L9.22764 10.8516M9.22764 10.8516C9.08096 11.2054 9 11.5932 9 12C9 12.4068 9.08096 12.7947 9.22765 13.1484M9.22764 10.8516C9.53173 10.1183 10.1183 9.53173 10.8516 9.22764M14.7724 10.8517C14.4683 10.1183 13.8817 9.53176 13.1484 9.22765C12.7947 9.08096 12.4068 9 12 9C11.5932 9 11.2054 9.08096 10.8516 9.22764M9.22765 13.1484C9.53175 13.8817 10.1183 14.4683 10.8517 14.7724C11.2054 14.919 11.5932 15 12 15C12.4068 15 12.7946 14.919 13.1484 14.7724C13.8817 14.4683 14.4683 13.8817 14.7724 13.1484C14.919 12.7946 15 12.4068 15 12C15 11.5932 14.919 11.2054 14.7724 10.8517" stroke="black" stroke-width="1.5" stroke-linecap="round" stroke-linejoin="round"/>
</svg>
