<svg width="24" height="24" viewBox="0 0 24 24" fill="none" xmlns="http://www.w3.org/2000/svg">
<path d="M7.81058 6.05008C7.06762 5.95107 6.29551 5.89332 5.51531 5.85963C4.58482 5.81946 3.64283 5.81352 2.7251 5.81265C2.4627 5.8124 2.25 6.01499 2.25 6.26478C2.25 6.30681 2.25615 6.34862 2.26828 6.38903L3.06401 9.04018C3.2432 9.6372 3.36598 10.2483 3.43088 10.8661L3.6621 13.0671C3.97614 16.0565 5.99728 18.5233 8.75 19.627C9.75207 20.0288 10.8511 20.25 12 20.25C16.305 20.25 19.9095 17.1447 20.3379 13.0671L20.5691 10.8661C20.634 10.2483 20.7568 9.6372 20.936 9.04019L21.7317 6.38903C21.7438 6.34862 21.75 6.30681 21.75 6.26478C21.75 6.01499 21.5373 5.8124 21.2749 5.81265C20.3572 5.81352 19.4152 5.81946 18.4847 5.85963C17.7045 5.89332 16.9324 5.95107 16.1894 6.05008M7.81058 6.05008C8.4709 6.13808 9.1082 6.25866 9.70767 6.42391C10.5631 6.65972 11.3416 6.98647 12 7.43925C13.3271 8.35183 14.1667 9.77636 14.1667 12C14.1667 21.678 8.75 19.627 8.75 19.627M12 7.43925C13.1198 6.66919 14.5868 6.26365 16.1894 6.05008M16.1894 6.05008C15.9974 5.53211 15.6219 5.06741 15.1157 4.69357C14.3278 4.11175 13.2231 3.75 12 3.75C10.7769 3.75 9.67222 4.11175 8.88432 4.69357C8.37805 5.06741 8.00259 5.53211 7.81058 6.05008" stroke="black" stroke-width="1.5" stroke-linecap="round" stroke-linejoin="round"/>
</svg>
