<svg width="24" height="24" viewBox="0 0 24 24" fill="none" xmlns="http://www.w3.org/2000/svg">
<path d="M7.89034 7.89047C5.50651 5.50664 1.53802 7.97833 2.62622 11.1691L2.79278 11.6575C2.86852 11.8796 2.86852 12.1205 2.79278 12.3426L2.62622 12.831C1.53802 16.0217 5.50651 18.4934 7.89034 16.1096M9.87871 9.87884L7.89034 7.89047C5.50651 5.50664 7.97828 1.53814 11.1691 2.62634L11.6575 2.79291C11.8795 2.86864 12.1204 2.86864 12.3425 2.79291L12.8309 2.62634C16.0217 1.53814 18.4934 5.50664 16.1096 7.89047L14.1212 9.87884M9.8785 14.1214L7.89034 16.1096C5.50651 18.4934 7.97829 22.4619 11.1691 21.3737L11.6575 21.2072C11.8795 21.1314 12.1205 21.1314 12.3425 21.2072L12.8309 21.3737C16.0217 22.4619 18.4934 18.4934 16.1096 16.1096M16.1096 7.89047C18.4934 5.50664 22.4619 7.97833 21.3737 11.1691L21.2071 11.6575C21.1314 11.8796 21.1314 12.1205 21.2071 12.3426L21.3737 12.831C22.4619 16.0217 18.4934 18.4934 16.1096 16.1096M16.1096 16.1096L14.1214 14.1214M9.8785 14.1214C10.4214 14.6644 11.1715 15.0002 11.9999 15.0002C12.8284 15.0002 13.5785 14.6644 14.1214 14.1214C14.6642 13.5785 14.9999 12.8286 14.9999 12.0002C14.9999 11.1718 14.6641 10.4217 14.1212 9.87884M14.1212 9.87884C13.5783 9.336 12.8283 9.00024 11.9999 9.00024C11.1716 9.00024 10.4216 9.336 9.87871 9.87884M9.87871 9.87884C9.33576 10.4217 8.99994 11.1718 8.99994 12.0002C8.99994 12.8286 9.33568 13.5786 9.8785 14.1214" stroke="black" stroke-width="1.5" stroke-linecap="round" stroke-linejoin="round"/>
</svg>
