<svg width="24" height="24" viewBox="0 0 24 24" fill="none" xmlns="http://www.w3.org/2000/svg">
<path d="M9.0294 4.82834C7.85406 3.94288 6.17608 4.03533 5.10571 5.10571C4.03533 6.17608 3.94288 7.85406 4.82834 9.0294M9.0294 4.82834C9.23438 3.37113 10.4863 2.25 12 2.25C13.5138 2.25 14.7657 3.37123 14.9706 4.82854M9.0294 4.82834L9.99039 7.14836M14.9706 4.82854C16.146 3.9431 17.8239 4.03557 18.8943 5.10593C19.9646 6.17625 20.0571 7.85409 19.1718 9.02942M14.9706 4.82854L14.0097 7.14839M19.1718 9.02942C20.6289 9.23446 21.75 10.4863 21.75 12C21.75 13.5137 20.6289 14.7656 19.1717 14.9706M19.1718 9.02942L16.8517 9.99043M19.1717 14.9706C20.0571 16.1459 19.9647 17.8239 18.8943 18.8943C17.8239 19.9647 16.1459 20.0571 14.9706 19.1717M19.1717 14.9706L16.8516 14.0096M14.9706 19.1717C14.7656 20.6289 13.5137 21.75 12 21.75C10.4863 21.75 9.23449 20.629 9.02943 19.1719M14.9706 19.1717L14.0096 16.8516M9.02943 19.1719C7.85409 20.0573 6.17609 19.9649 5.10571 18.8945C4.03527 17.8241 3.94287 16.146 4.82849 14.9706M9.02943 19.1719L9.99045 16.8517M4.82849 14.9706C3.37121 14.7657 2.25 13.5138 2.25 12C2.25 10.4863 3.37113 9.23438 4.82834 9.0294M4.82849 14.9706L7.14838 14.0097M4.82834 9.0294L7.14836 9.99039M14.0097 7.14839C13.3907 6.89168 12.7119 6.75 12 6.75C11.2882 6.75 10.6094 6.89167 9.99039 7.14836M14.0097 7.14839C15.293 7.68057 16.3195 8.7071 16.8517 9.99043M16.8517 9.99043C17.1083 10.6094 17.25 11.2882 17.25 12C17.25 12.7118 17.1083 13.3906 16.8516 14.0096M16.8516 14.0096C16.3195 15.2929 15.2929 16.3195 14.0096 16.8516M14.0096 16.8516C13.3906 17.1083 12.7118 17.25 12 17.25C11.2882 17.25 10.6094 17.1083 9.99045 16.8517M9.99045 16.8517C8.70711 16.3195 7.68057 15.293 7.14838 14.0097M7.14838 14.0097C6.89168 13.3906 6.75 12.7119 6.75 12C6.75 11.2882 6.89167 10.6094 7.14836 9.99039M7.14836 9.99039C7.68053 8.70706 8.70706 7.68053 9.99039 7.14836" stroke="black" stroke-width="1.5" stroke-linecap="round" stroke-linejoin="round"/>
</svg>
