<svg width="24" height="24" viewBox="0 0 24 24" fill="none" xmlns="http://www.w3.org/2000/svg">
<path d="M12 8.25L12 6.18817C12 2.81692 7.44607 1.75852 5.95932 4.78422L5.73176 5.24735C5.62828 5.45793 5.45793 5.62828 5.24734 5.73176L4.78422 5.95932C1.75852 7.44607 2.81692 12 6.18816 12M12 6.18817C12 2.81692 16.5539 1.75857 18.0407 4.78427L18.2682 5.2474C18.3717 5.45798 18.5421 5.62833 18.7527 5.73181L19.2158 5.95938C22.2415 7.44613 21.1831 12 17.8118 12M12 15.75L12 17.8118C12 21.1831 7.44614 22.2415 5.95939 19.2158L5.73182 18.7527C5.62835 18.5421 5.45799 18.3717 5.24741 18.2682L4.78429 18.0407C1.75859 16.5539 2.81692 12 6.18816 12M6.18816 12H8.25M17.8118 12C21.1831 12 22.2415 16.5539 19.2158 18.0407L18.7527 18.2682C18.5421 18.3717 18.3717 18.5421 18.2682 18.7527L18.0407 19.2158C16.5539 22.2415 12 21.1831 12 17.8118M17.8118 12H15.75" stroke="black" stroke-width="1.5" stroke-linecap="round" stroke-linejoin="round"/>
</svg>
