<svg width="24" height="24" viewBox="0 0 24 24" fill="none" xmlns="http://www.w3.org/2000/svg">
<path d="M12 14.25H6.75L7.5 15.75C6.16667 17.5278 6.16667 19.9722 7.5 21.75H16.5C17.8333 19.9722 17.8333 17.5278 16.5 15.75L17.25 14.25H12ZM12 14.25V9M12 9C12 10.2426 10.9926 11.25 9.75 11.25C8.50736 11.25 7.5 10.2426 7.5 9C7.5 7.75736 8.50736 6.75 9.75 6.75M12 9C12 10.2426 13.0074 11.25 14.25 11.25C15.4926 11.25 16.5 10.2426 16.5 9C16.5 7.75736 15.4926 6.75 14.25 6.75M12 9C10.7574 9 9.75 7.99264 9.75 6.75M12 9C13.2426 9 14.25 7.99264 14.25 6.75M12 4.5C12 3.25736 10.9926 2.25 9.75 2.25C8.50736 2.25 7.5 3.25736 7.5 4.5C7.5 5.74264 8.50736 6.75 9.75 6.75M12 4.5C12 3.25736 13.0074 2.25 14.25 2.25C15.4926 2.25 16.5 3.25736 16.5 4.5C16.5 5.74264 15.4926 6.75 14.25 6.75M12 4.5C10.7574 4.5 9.75 5.50736 9.75 6.75M12 4.5C13.2426 4.5 14.25 5.50736 14.25 6.75" stroke="black" stroke-width="1.5" stroke-linecap="round" stroke-linejoin="round"/>
</svg>
