<svg width="24" height="24" viewBox="0 0 24 24" fill="none" xmlns="http://www.w3.org/2000/svg">
<path d="M21.75 12.3867V8.25C21.75 7.42157 21.0784 6.75 20.25 6.75H13.9926C13.197 6.75 12.4339 6.43393 11.8713 5.87132L10.6287 4.62868C10.0661 4.06607 9.30301 3.75 8.50736 3.75H3.75C2.92157 3.75 2.25 4.42157 2.25 5.25V18.75C2.25 19.5784 2.92157 20.25 3.75 20.25H11.6341M18.75 19.875C20.3033 19.875 21.5625 18.6158 21.5625 17.0625C21.5625 15.5092 20.3033 14.25 18.75 14.25C17.1967 14.25 15.9375 15.5092 15.9375 17.0625C15.9375 18.6158 17.1967 19.875 18.75 19.875ZM18.75 19.875H19.875C21.3247 19.875 22.5 21.0503 22.5 22.5M18.75 19.875H17.625C16.1753 19.875 15 21.0503 15 22.5" stroke="black" stroke-width="1.5" stroke-linecap="round" stroke-linejoin="round"/>
</svg>
