<svg width="24" height="24" viewBox="0 0 24 24" fill="none" xmlns="http://www.w3.org/2000/svg">
<path d="M21.75 12.3867V8.25C21.75 7.42157 21.0784 6.75 20.25 6.75H13.9926C13.197 6.75 12.4339 6.43393 11.8713 5.87132L10.6287 4.62868C10.0661 4.06607 9.30301 3.75 8.50736 3.75H3.75C2.92157 3.75 2.25 4.42157 2.25 5.25V18.75C2.25 19.5784 2.92157 20.25 3.75 20.25H11.6341M22.5 22.5L20.4116 20.4116M20.4116 20.4116C21.0648 19.7584 21.4688 18.8561 21.4688 17.8594C21.4688 15.866 19.8528 14.25 17.8594 14.25C15.866 14.25 14.25 15.866 14.25 17.8594C14.25 19.8528 15.866 21.4688 17.8594 21.4688C18.8561 21.4688 19.7584 21.0648 20.4116 20.4116Z" stroke="black" stroke-width="1.5" stroke-miterlimit="1.78829" stroke-linecap="round" stroke-linejoin="round"/>
</svg>
