<svg width="24" height="24" viewBox="0 0 24 24" fill="none" xmlns="http://www.w3.org/2000/svg">
<path d="M21.75 12.3867V8.25C21.75 7.42157 21.0784 6.75 20.25 6.75H13.9926C13.197 6.75 12.4339 6.43393 11.8713 5.87132L10.6287 4.62868C10.0661 4.06607 9.30301 3.75 8.50736 3.75H3.75C2.92157 3.75 2.25 4.42157 2.25 5.25V18.75C2.25 19.5784 2.92157 20.25 3.75 20.25H11.6341M18.3741 20.85C17.0072 20.85 15.8991 19.7419 15.8991 18.375C15.8991 17.0081 17.0072 15.9 18.3741 15.9M18.3741 20.85C19.741 20.85 20.8491 19.7419 20.8491 18.375C20.8491 17.0081 19.741 15.9 18.3741 15.9M18.3741 20.85V22.5M18.3741 15.9V14.25M22.5073 18.3668H20.8573M15.9073 18.3667H14.2573M21.305 21.2862L20.1383 20.1195M16.6381 16.6193L15.4713 15.4525M15.4713 21.2979L16.6381 20.1312M20.1383 16.631L21.305 15.4643" stroke="black" stroke-width="1.5" stroke-miterlimit="1.78829" stroke-linecap="round" stroke-linejoin="round"/>
</svg>
