<svg width="24" height="24" viewBox="0 0 24 24" fill="none" xmlns="http://www.w3.org/2000/svg">
<path d="M9.69853 20.25C12.4335 18.523 14.25 15.4736 14.25 12C14.25 8.52635 12.4335 5.47697 9.69853 3.75M2.25 17.5639C2.94482 17.8451 3.70433 18 4.5 18C7.81371 18 10.5 15.3137 10.5 12C10.5 8.68629 7.81371 6 4.5 6C3.70433 6 2.94482 6.15488 2.25 6.43614M15.1867 20.25C16.9505 17.9686 18 15.1069 18 12C18 8.89315 16.9505 6.03142 15.1867 3.75M19.653 20.25C20.9901 17.7993 21.75 14.9884 21.75 12C21.75 9.01162 20.9901 6.20072 19.653 3.75M6.75 12C6.75 10.7574 5.74264 9.75 4.5 9.75C3.25736 9.75 2.25 10.7574 2.25 12C2.25 13.2426 3.25736 14.25 4.5 14.25C5.74264 14.25 6.75 13.2426 6.75 12Z" stroke="black" stroke-width="1.5" stroke-linecap="round" stroke-linejoin="round"/>
</svg>
