<svg width="24" height="24" viewBox="0 0 24 24" fill="none" xmlns="http://www.w3.org/2000/svg">
<path d="M2.25 18.75V5.25C2.25 4.42157 2.92157 3.75 3.75 3.75H8.25C9.07843 3.75 9.75 4.42157 9.75 5.25V18.75C9.75 19.5784 9.07843 20.25 8.25 20.25H3.75C2.92157 20.25 2.25 19.5784 2.25 18.75Z" stroke="black" stroke-width="1.5" stroke-linecap="round" stroke-linejoin="round"/>
<path d="M14.25 15.75V8.25C14.25 7.42157 14.9216 6.75 15.75 6.75H20.25C21.0784 6.75 21.75 7.42157 21.75 8.25V15.75C21.75 16.5784 21.0784 17.25 20.25 17.25H15.75C14.9216 17.25 14.25 16.5784 14.25 15.75Z" stroke="black" stroke-width="1.5" stroke-linecap="round" stroke-linejoin="round"/>
</svg>
