<svg width="24" height="24" viewBox="0 0 24 24" fill="none" xmlns="http://www.w3.org/2000/svg">
<path d="M8.1094 14.149C9.09975 14.824 9.75 15.961 9.75 17.2499C9.75 19.321 8.07107 20.9999 6 20.9999C3.92893 20.9999 2.25 19.321 2.25 17.2499C2.25 15.1788 3.92893 13.4999 6 13.4999C6.78217 13.4999 7.5084 13.7394 8.1094 14.149ZM8.1094 14.149C10.5 11.2498 12 7.49976 12 2.9999M12 2.9999C9.63447 2.57713 4.82274 3.03526 4.5 8.2499C6.25 8.99994 10.2 9.00001 12 2.9999C12.7147 7.40419 13.4023 8.89749 16.0361 11.8047M16.0361 11.8047C14.9644 12.4647 14.25 13.6489 14.25 14.9999C14.25 17.071 15.9289 18.7499 18 18.7499C20.0711 18.7499 21.75 17.071 21.75 14.9999C21.75 12.9288 20.0711 11.2499 18 11.2499C17.2799 11.2499 16.6073 11.4528 16.0361 11.8047Z" stroke="black" stroke-width="1.5" stroke-linecap="round" stroke-linejoin="round"/>
</svg>
