<svg width="24" height="24" viewBox="0 0 24 24" fill="none" xmlns="http://www.w3.org/2000/svg">
<path d="M14.5063 4.11601C14.5063 4.11601 28.1153 7.93204 13.8864 20.8685C12.8221 21.8362 11.1781 21.8362 10.1137 20.8685C-4.11514 7.93204 9.49397 4.11601 9.49397 4.11601M14.5063 4.11601L14.2501 4.50024L15.7501 8.25024L12.0001 6.75024L8.25012 8.25024L9.75012 4.50024L9.49397 4.11601M14.5063 4.11601L15.7501 2.25024L12.0001 3.00024L8.25012 2.25024L9.49397 4.11601M8.25006 11.2502V12.0002M15.7501 11.2502V12.0002M12.0001 12.0002V12.7502M9.75006 15.7502V16.5002M14.2501 15.7502V16.5002" stroke="black" stroke-width="1.5" stroke-linecap="round" stroke-linejoin="round"/>
</svg>
