<svg width="24" height="24" viewBox="0 0 24 24" fill="none" xmlns="http://www.w3.org/2000/svg">
<path d="M12 7.88409C9.37832 8.81072 7.5 11.311 7.5 14.25C7.5 15.6376 7.9187 16.9274 8.63666 18M12 7.88409C12.2294 7.80301 12.4645 7.73398 12.7045 7.67776M12 7.88409C11.2962 7.63535 10.5389 7.5 9.75 7.5C6.02208 7.5 3 10.5221 3 14.25C3 17.9779 6.02208 21 9.75 21C10.5389 21 11.2962 20.8647 12 20.6159C12.7038 20.8647 13.4611 21 14.25 21C17.9779 21 21 17.9779 21 14.25C21 10.5221 17.9779 7.5 14.25 7.5C13.7182 7.5 13.2008 7.56149 12.7045 7.67776M12 7.88409L11.8779 7.57834M12 7.88409C11.9565 7.78975 11.9156 7.68742 11.8779 7.57834M12 7.88409C12.2483 7.82151 12.4829 7.7525 12.7045 7.67776M12.7045 7.67776C16.4977 6.39804 16.4586 3.43675 15.75 2.25C11.5108 2.25 11.2651 5.80522 11.8779 7.57834M11.8779 7.57834L9.75 2.25" stroke="black" stroke-width="1.5" stroke-linecap="round" stroke-linejoin="round"/>
</svg>
