<svg width="24" height="24" viewBox="0 0 24 24" fill="none" xmlns="http://www.w3.org/2000/svg">
<path d="M12 8.11704C12.8884 7.88604 13.6426 7.5573 14.274 7.167C17.5122 6.3578 21 7.65816 21 12.4852C21 18.3062 17.6187 23.1015 12.4946 21.4037C12.1755 21.298 11.8244 21.298 11.5054 21.4037C6.38126 23.1015 3 18.3062 3 12.4852C3 6.47897 8.39996 5.93294 12 8.11704ZM14.274 7.167C13.4829 7.36468 12.7068 7.68825 12 8.11704M14.274 7.167C16.1567 6.00307 16.9466 4.29171 16.9448 2.99248C16.9442 2.47192 16.3852 2.14578 15.8326 2.28038C11.9732 3.22051 11.8144 6.76587 12 8.11704M12 8.11704L9.60002 3.74884" stroke="black" stroke-width="1.5" stroke-linecap="round" stroke-linejoin="round"/>
</svg>
