<svg width="24" height="24" viewBox="0 0 24 24" fill="none" xmlns="http://www.w3.org/2000/svg">
<path d="M4.5 6V20.25C4.5 21.0784 5.17157 21.75 6 21.75H16.4999C17.3284 21.75 17.9999 21.0784 17.9999 20.25L18 10.3713C18 9.9735 17.842 9.59196 17.5607 9.31066L17.25 9M4.5 6V3.75C4.5 2.92157 5.17157 2.25 6 2.25H8.2144C8.70643 2.25 9.16718 2.49131 9.44739 2.89576L11.5981 6M4.5 6H11.5981M17.25 9L19.5 6.75L18.375 5.625M17.25 9L15 6.75M15 6.75L14.6893 6.43934C14.408 6.15804 14.0265 6 13.6287 6H11.5981M15 6.75L17.25 4.5L18.375 5.625M18.375 5.625L19.0607 4.93934C19.342 4.65804 19.7235 4.5 20.1213 4.5H21.75M15 11.25L11.25 15M11.25 15L7.5 18.75M11.25 15L15 18.75M11.25 15L7.5 11.25" stroke="black" stroke-width="1.5" stroke-linecap="round" stroke-linejoin="round"/>
</svg>
