<svg width="24" height="24" viewBox="0 0 24 24" fill="none" xmlns="http://www.w3.org/2000/svg">
<g clip-path="url(#clip0_597_2053)">
<path d="M4.5 6V20.25C4.5 21.0784 5.17157 21.75 6 21.75H16.4999C17.3284 21.75 17.9999 21.0784 17.9999 20.25L18 18M4.5 6V4.5M4.5 6H6M18 18L13.125 13.125M18 18L23.25 23.25M18 13.5L18 10.3713C18 9.9735 17.842 9.59196 17.5607 9.31066L17.25 9M17.25 9L19.5 6.75L18.375 5.625M17.25 9L15 6.75M15 6.75L14.6893 6.43934C14.408 6.15804 14.0265 6 13.6287 6H11.5981L9.44739 2.89576C9.16718 2.49131 8.70643 2.25 8.2144 2.25H6.75M15 6.75L17.25 4.5L18.375 5.625M4.5 4.5L0.75 0.75M4.5 4.5L6 6M6 6L13.125 13.125M18.375 5.625L19.0607 4.93934C19.342 4.65804 19.7235 4.5 20.1213 4.5H21.75M13.125 13.125L11.25 15M11.25 15L7.5 18.75M11.25 15L15 18.75M11.25 15L7.5 11.25" stroke="black" stroke-width="1.5" stroke-linecap="round" stroke-linejoin="round"/>
</g>
<defs>
<clipPath id="clip0_597_2053">
<rect width="24" height="24" fill="white"/>
</clipPath>
</defs>
</svg>
