<svg width="24" height="24" viewBox="0 0 24 24" fill="none" xmlns="http://www.w3.org/2000/svg">
<path d="M18.75 17.25H20.25C21.0784 17.25 21.75 16.5784 21.75 15.75V6.75C21.75 5.92157 21.0784 5.25 20.25 5.25H15.75M18.75 17.25V20.25M18.75 17.25H15.75M5.25 17.25H3.75C2.92157 17.25 2.25 16.5784 2.25 15.75V6.75C2.25 5.92157 2.92157 5.25 3.75 5.25H8.25M5.25 17.25V20.25M5.25 17.25H8.25M8.25 5.25H15.75M8.25 5.25V11.25M8.25 17.25H15.75M8.25 17.25V11.25M15.75 5.25V11.25M15.75 17.25V11.25M18.75 9.75V12.75M5.25 9.75V12.75M8.25 11.25H15.75" stroke="black" stroke-width="1.5" stroke-linecap="round" stroke-linejoin="round"/>
</svg>
