<svg width="24" height="24" viewBox="0 0 24 24" fill="none" xmlns="http://www.w3.org/2000/svg">
<path d="M8.25 9V10.5M8.25 10.5V12M8.25 10.5H6.75M8.25 10.5H9.75M15 9V9.75M17.25 11.25V12M3.87396 8.00814L2.29378 15.9617C2.03228 17.278 2.9704 18.5369 4.3539 18.7264C5.11726 18.8309 5.88741 18.5848 6.43266 18.062L9.54145 15.0815C9.74253 14.8887 10.0153 14.7804 10.2996 14.7804H13.7004C13.9847 14.7804 14.2575 14.8887 14.4585 15.0815L17.5673 18.062C18.1126 18.5848 18.8827 18.8309 19.6461 18.7264C21.0296 18.5369 21.9677 17.278 21.7062 15.9617L20.126 8.00814C20.0722 7.7371 19.9078 7.49647 19.6635 7.35058C14.974 4.54981 9.02598 4.54981 4.3365 7.35058C4.09223 7.49647 3.9278 7.7371 3.87396 8.00814Z" stroke="black" stroke-width="1.5" stroke-linecap="round" stroke-linejoin="round"/>
</svg>
