<svg width="24" height="24" viewBox="0 0 24 24" fill="none" xmlns="http://www.w3.org/2000/svg">
<path d="M8.625 9.375L11.25 6.75L7.93934 3.43934C7.65804 3.15804 7.2765 3 6.87868 3H3.75C2.92157 3 2.25 3.67157 2.25 4.5V7.62868C2.25 8.0265 2.40803 8.40803 2.68934 8.68934L6 12L8.625 9.375ZM8.625 9.375L12 12.75M12 12.75L16.5 17.25M12 12.75L3.75 21M12 12.75L16.875 7.875M16.5 17.25H19.5L21 18.75L18 21.75L16.5 20.25V17.25ZM16.875 7.875L15.75 6.75M16.875 7.875L18 9M21.75 9.75L20.25 11.25L18 9M15 3L13.5 4.5L15.75 6.75M15.75 6.75L17.25 5.25M18 9L19.5 7.5" stroke="black" stroke-width="1.5" stroke-linecap="round" stroke-linejoin="round"/>
</svg>
