<svg width="24" height="24" viewBox="0 0 24 24" fill="none" xmlns="http://www.w3.org/2000/svg">
<path d="M20.25 9.75H14.25C13.4216 9.75 12.75 9.07843 12.75 8.25V2.25M20.25 12.75V9.75L12.75 2.25H5.25C4.42157 2.25 3.75 2.92157 3.75 3.75V12.75M10.5 16.5L7.5 19.5L10.5 22.5M13.5 22.5L16.5 16.5M19.5 16.5L22.5 19.5L19.5 22.5M3.75 20.25H4.5V21C4.5 21.8284 3.82843 22.5 3 22.5C2.17157 22.5 1.5 21.8284 1.5 21V18C1.5 17.1716 2.17157 16.5 3 16.5C3.82843 16.5 4.5 17.1716 4.5 18" stroke="black" stroke-width="1.5" stroke-linecap="round" stroke-linejoin="round"/>
</svg>
