<svg width="24" height="24" viewBox="0 0 24 24" fill="none" xmlns="http://www.w3.org/2000/svg">
<path fill-rule="evenodd" clip-rule="evenodd" d="M5.10572 18.8945C4.22704 18.0158 4.22704 16.5912 5.10572 15.7125L5.34891 15.4693C5.14624 15.0815 4.97649 14.6739 4.84335 14.25H4.5C3.25736 14.25 2.25 13.2426 2.25 12C2.25 10.7574 3.25736 9.75 4.5 9.75H4.84335C4.97647 9.32616 5.14621 8.91853 5.34884 8.53082L5.10571 8.28769C4.22703 7.40901 4.22703 5.98439 5.10571 5.10571C5.98439 4.22703 7.40901 4.22703 8.28769 5.10571L8.53083 5.34884C8.91853 5.14621 9.32616 4.97647 9.75 4.84335V4.5C9.75 3.25736 10.7574 2.25 12 2.25C13.2426 2.25 14.25 3.25736 14.25 4.5V4.84335C14.6739 4.97649 15.0815 5.14624 15.4693 5.3489L15.7123 5.10587C16.591 4.22719 18.0156 4.2272 18.8943 5.10587C19.773 5.98455 19.773 7.40917 18.8943 8.28786L18.6512 8.53094C18.8538 8.91861 19.0235 9.3262 19.1566 9.75H19.5C20.7426 9.75 21.75 10.7574 21.75 12C21.75 13.2426 20.7426 14.25 19.5 14.25H19.1566C19.0235 14.6738 18.8538 15.0815 18.6512 15.4692L18.8943 15.7123C19.773 16.591 19.773 18.0156 18.8943 18.8943C18.0156 19.773 16.591 19.773 15.7123 18.8943L15.4692 18.6512C15.0815 18.8538 14.6738 19.0235 14.25 19.1566V19.5C14.25 20.7426 13.2426 21.75 12 21.75C10.7574 21.75 9.75 20.7426 9.75 19.5V19.1566C9.3262 19.0235 8.91861 18.8538 8.53094 18.6512L8.2877 18.8945C7.40902 19.7731 5.9844 19.7731 5.10572 18.8945ZM12 8.25C14.0711 8.25 15.75 9.92893 15.75 12C15.75 14.0711 14.0711 15.75 12 15.75C9.92893 15.75 8.25 14.0711 8.25 12C8.25 9.92893 9.92893 8.25 12 8.25Z" stroke="black" stroke-width="1.5" stroke-linecap="round" stroke-linejoin="round"/>
</svg>
