<svg width="24" height="24" viewBox="0 0 24 24" fill="none" xmlns="http://www.w3.org/2000/svg">
<path d="M18.75 13.5V20.25C18.75 21.0784 18.0784 21.75 17.25 21.75H14.25M18.75 13.5H14.25M12 8.99999H14.25L18.75 9C19.5784 9 20.25 9.67157 20.25 10.5V12C20.25 12.8284 19.5784 13.5 18.75 13.5M5.25 13.5V20.25C5.25 21.0784 5.92157 21.75 6.75 21.75H9.75M12 8.99999H9.75L5.25 9C4.42157 9 3.75 9.67157 3.75 10.5V12C3.75 12.8284 4.42157 13.5 5.25 13.5H9.75M12 8.99999C12 8.99999 15.0001 -0.000218779 18 3.00014C20.9998 6.00034 12 8.99999 12 8.99999ZM12 8.99999C12 8.99999 8.99995 -0.000302821 6 3.00006C3.00021 6.00026 12 8.99999 12 8.99999ZM14.25 8.99999V13.5M14.25 13.5H9.75M14.25 13.5V21.75M9.75 8.99999V13.5M9.75 13.5V21.75M9.75 21.75H14.25" stroke="black" stroke-width="1.5" stroke-linecap="round" stroke-linejoin="round"/>
</svg>
