<svg width="24" height="24" viewBox="0 0 24 24" fill="none" xmlns="http://www.w3.org/2000/svg">
<path d="M5.25 16.5C6.49264 16.5 7.5 17.5074 7.5 18.75C7.5 19.9926 6.49264 21 5.25 21C4.00736 21 3 19.9926 3 18.75C3 17.5074 4.00736 16.5 5.25 16.5ZM5.25 16.5V7.5M5.25 7.5C6.49264 7.5 7.5 6.49264 7.5 5.25C7.5 4.00736 6.49264 3 5.25 3C4.00736 3 3 4.00736 3 5.25C3 6.49264 4.00736 7.5 5.25 7.5ZM18.75 16.5V8.25C18.75 6.59315 17.4069 5.25 15.75 5.25H10.5M18.75 16.5C17.5074 16.5 16.5 17.5074 16.5 18.75C16.5 19.9926 17.5074 21 18.75 21C19.9926 21 21 19.9926 21 18.75C21 17.5074 19.9926 16.5 18.75 16.5ZM13.5 8.25L10.5 5.25L13.5 2.25" stroke="black" stroke-width="1.5" stroke-linecap="round" stroke-linejoin="round"/>
</svg>
