<svg width="24" height="24" viewBox="0 0 24 24" fill="none" xmlns="http://www.w3.org/2000/svg">
<path d="M6 17.25C7.24264 17.25 8.25 18.2574 8.25 19.5C8.25 20.7426 7.24264 21.75 6 21.75C4.75736 21.75 3.75 20.7426 3.75 19.5C3.75 18.2574 4.75736 17.25 6 17.25ZM6 17.25V9M6 6.75C7.24264 6.75 8.25 5.74264 8.25 4.5C8.25 3.25736 7.24264 2.25 6 2.25C4.75736 2.25 3.75 3.25736 3.75 4.5C3.75 5.74264 4.75736 6.75 6 6.75ZM6 6.75V9M6 9C6 10.6569 7.34315 12 9 12H15C16.6569 12 18 13.3431 18 15V17.25M18 17.25C16.7574 17.25 15.75 18.2574 15.75 19.5C15.75 20.7426 16.7574 21.75 18 21.75C19.2426 21.75 20.25 20.7426 20.25 19.5C20.25 18.2574 19.2426 17.25 18 17.25Z" stroke="black" stroke-width="1.5" stroke-linecap="round" stroke-linejoin="round"/>
</svg>
