<svg width="24" height="24" viewBox="0 0 24 24" fill="none" xmlns="http://www.w3.org/2000/svg">
<path d="M6 6.75C7.24264 6.75 8.25 5.74264 8.25 4.5C8.25 3.25736 7.24264 2.25 6 2.25C4.75736 2.25 3.75 3.25736 3.75 4.5C3.75 5.74264 4.75736 6.75 6 6.75ZM6 6.75V9.0001C6 10.657 7.34315 12.0001 9 12.0001C10.6569 12.0001 12 13.3432 12 15.0001M12 17.2501C13.2426 17.2501 14.25 18.2575 14.25 19.5001C14.25 20.7427 13.2426 21.7501 12 21.7501C10.7574 21.7501 9.75 20.7427 9.75 19.5001C9.75 18.2575 10.7574 17.2501 12 17.2501ZM12 17.2501V15.0001M18 6.75C16.7574 6.75 15.75 5.74264 15.75 4.5C15.75 3.25736 16.7574 2.25 18 2.25C19.2426 2.25 20.25 3.25736 20.25 4.5C20.25 5.74264 19.2426 6.75 18 6.75ZM18 6.75V9.0001C18 10.657 16.6569 12.0001 15 12.0001C13.3431 12.0001 12 13.3432 12 15.0001" stroke="black" stroke-width="1.5" stroke-linecap="round" stroke-linejoin="round"/>
</svg>
