<svg width="24" height="24" viewBox="0 0 24 24" fill="none" xmlns="http://www.w3.org/2000/svg">
<path d="M9.43797 13.5C9.63866 13.9593 9.75 14.4667 9.75 15C9.75 17.0711 8.07107 18.75 6 18.75C3.92893 18.75 2.25 17.0711 2.25 15C2.25 14.2179 2.48944 13.4917 2.89901 12.8907C3.574 11.9003 4.71106 11.25 6 11.25C7.53774 11.25 8.8593 12.1756 9.43797 13.5ZM2.89901 12.8907L5.25 5.25C6.45093 5.74138 6.96862 6.2038 7.5 7.5M21.101 12.8907C21.5106 13.4917 21.75 14.2179 21.75 15C21.75 17.0711 20.0711 18.75 18 18.75C15.9289 18.75 14.25 17.0711 14.25 15C14.25 14.4667 14.3613 13.9593 14.562 13.5M21.101 12.8907C20.426 11.9003 19.2889 11.25 18 11.25C16.4623 11.25 15.1407 12.1756 14.562 13.5M21.101 12.8907L18.75 5.25C17.5491 5.74138 17.0314 6.2038 16.5 7.5M9.43797 13.5C9.79198 13.25 10.8 12.75 12 12.75C13.2 12.75 14.208 13.25 14.562 13.5" stroke="black" stroke-width="1.5" stroke-linecap="round" stroke-linejoin="round"/>
</svg>
