<svg width="24" height="24" viewBox="0 0 24 24" fill="none" xmlns="http://www.w3.org/2000/svg">
<path d="M2.25 12C2.25 6.61522 6.61522 2.25 12 2.25M2.25 12C2.25 17.3848 6.61522 21.75 12 21.75M2.25 12H7.5M12 2.25C17.3848 2.25 21.75 6.61522 21.75 12M12 2.25C9.51472 2.25 7.5 6.61522 7.5 12M12 2.25C14.4853 2.25 16.5 6.61522 16.5 12M12 21.75C17.3848 21.75 21.75 17.3848 21.75 12M12 21.75C9.51472 21.75 7.5 17.3848 7.5 12M12 21.75C14.4853 21.75 16.5 17.3848 16.5 12M21.75 12H16.5M7.5 12H16.5" stroke="black" stroke-width="1.5" stroke-miterlimit="1.78829" stroke-linecap="round" stroke-linejoin="round"/>
</svg>
