<svg width="24" height="24" viewBox="0 0 24 24" fill="none" xmlns="http://www.w3.org/2000/svg">
<path d="M12 2.25C6.61522 2.25 2.25 6.61522 2.25 12C2.25 17.3848 6.61522 21.75 12 21.75M12 2.25C14.697 2.25 17.1383 3.34508 18.9034 5.11486M12 2.25V3.75M12 21.75C14.6969 21.75 17.1381 20.655 18.9033 18.8853M12 21.75V20.25M18.9033 18.8853C20.6624 17.1216 21.75 14.6878 21.75 12L21.75 11.9925M18.9033 18.8853L18.9071 18.8892M18.9033 18.8853L17.8464 17.8285M21.75 11.9925C21.748 9.30773 20.6608 6.87689 18.9034 5.11486M21.75 11.9925H21.7575M21.75 11.9925H20.2575M18.9034 5.11486L17.8464 6.17184M18.9034 5.11486L18.9071 5.11118M3.7575 11.9925H2.2575M6.17917 6.16124L5.11851 5.10058M5.11851 18.8998L6.17917 17.8391M12 13.5L15.75 15L12 7.5L8.25 15L12 13.5Z" stroke="black" stroke-width="1.5" stroke-miterlimit="1.78829" stroke-linecap="round" stroke-linejoin="round"/>
</svg>
