<svg width="24" height="24" viewBox="0 0 24 24" fill="none" xmlns="http://www.w3.org/2000/svg">
<path d="M2.25 3.75V6M2.25 6H20.25C21.0784 6 21.75 6.67157 21.75 7.5V15C21.75 15.8284 21.0784 16.5 20.25 16.5H15.75M2.25 6V16.5M2.25 16.5V20.25M2.25 16.5H5.25M5.25 16.5V18C5.25 18.8284 5.92157 19.5 6.75 19.5H14.25C15.0784 19.5 15.75 18.8284 15.75 18V16.5M5.25 16.5H15.75M18.75 11.25C18.75 10.0074 17.7426 9 16.5 9C15.2574 9 14.25 10.0074 14.25 11.25C14.25 12.4926 15.2574 13.5 16.5 13.5C17.7426 13.5 18.75 12.4926 18.75 11.25ZM10.5 11.25C10.5 10.0074 9.49264 9 8.25 9C7.00736 9 6 10.0074 6 11.25C6 12.4926 7.00736 13.5 8.25 13.5C9.49264 13.5 10.5 12.4926 10.5 11.25Z" stroke="black" stroke-width="1.5" stroke-linecap="round" stroke-linejoin="round"/>
</svg>
