<svg width="24" height="24" viewBox="0 0 24 24" fill="none" xmlns="http://www.w3.org/2000/svg">
<path d="M2.25 3.75V18.75C2.25 19.5784 2.92157 20.25 3.75 20.25H21.75M6 8.25H9.57295C10.1411 8.25 10.6605 8.571 10.9146 9.07918L12.15 11.55M12.15 11.55L13.9146 15.0792C14.4133 16.0765 15.7872 16.2004 16.4562 15.3084L16.8 14.85C17.0833 14.4723 17.5279 14.25 18 14.25H21.75M12.15 11.55L10.1819 14.9942C9.91482 15.4616 9.4178 15.75 8.87952 15.75H6M12.15 11.55L15.3181 6.00579C15.5852 5.53843 16.0822 5.25 16.6205 5.25H21.75" stroke="black" stroke-width="1.5" stroke-linecap="round" stroke-linejoin="round"/>
</svg>
