<svg width="24" height="24" viewBox="0 0 24 24" fill="none" xmlns="http://www.w3.org/2000/svg">
<path d="M12 2.25V4.5M15.75 3V5.25M8.25 3V5.25M12.75 15.75H13.5V16.5C13.5 17.3284 12.8284 18 12 18C11.1716 18 10.5 17.3284 10.5 16.5V13.5C10.5 12.6716 11.1716 12 12 12C12.8284 12 13.5 12.6716 13.5 13.5M18.75 15C18.75 18.7279 15.7279 21.75 12 21.75C8.27208 21.75 5.25 18.7279 5.25 15C5.25 11.2721 8.27208 8.25 12 8.25C15.7279 8.25 18.75 11.2721 18.75 15Z" stroke="black" stroke-width="1.5" stroke-linecap="round" stroke-linejoin="round"/>
</svg>
