<svg width="24" height="24" viewBox="0 0 24 24" fill="none" xmlns="http://www.w3.org/2000/svg">
<path d="M2.25 20.25V12M2.25 12V3.75M2.25 12H12.75M12.75 20.25V12M12.75 12V3.75M20.25 16.5H19.5M20.25 16.5C20.25 16.5 21.75 16.5 21.75 18.375C21.75 20.25 19.5 20.25 19.5 20.25C19.5 20.25 17.25 20.25 17.25 18.375M20.25 16.5C20.25 16.5 21.75 16.5 21.75 14.625C21.75 12.7073 19.5 12.75 19.5 12.75C19.5 12.75 17.25 12.75 17.25 14.625" stroke="black" stroke-width="1.5" stroke-linecap="round" stroke-linejoin="round"/>
</svg>
