<svg width="24" height="24" viewBox="0 0 24 24" fill="none" xmlns="http://www.w3.org/2000/svg">
<path d="M12 6.75C11.5858 6.75 11.25 7.08579 11.25 7.5C11.25 7.91421 11.5858 8.25 12 8.25C12.4142 8.25 12.75 7.91421 12.75 7.5C12.75 7.08579 12.4142 6.75 12 6.75Z" stroke="black" stroke-width="1.5" stroke-miterlimit="1.78829" stroke-linecap="round" stroke-linejoin="round"/>
<path d="M21 6.75C20.5858 6.75 20.25 7.08579 20.25 7.5C20.25 7.91421 20.5858 8.25 21 8.25C21.4142 8.25 21.75 7.91421 21.75 7.5C21.75 7.08579 21.4142 6.75 21 6.75Z" stroke="black" stroke-width="1.5" stroke-miterlimit="1.78829" stroke-linecap="round" stroke-linejoin="round"/>
<path d="M3 6.75C2.58579 6.75 2.25 7.08579 2.25 7.5C2.25 7.91421 2.58579 8.25 3 8.25C3.41421 8.25 3.75 7.91421 3.75 7.5C3.75 7.08579 3.41421 6.75 3 6.75Z" stroke="black" stroke-width="1.5" stroke-miterlimit="1.78829" stroke-linecap="round" stroke-linejoin="round"/>
<path d="M12 15.75C11.5858 15.75 11.25 16.0858 11.25 16.5C11.25 16.9142 11.5858 17.25 12 17.25C12.4142 17.25 12.75 16.9142 12.75 16.5C12.75 16.0858 12.4142 15.75 12 15.75Z" stroke="black" stroke-width="1.5" stroke-miterlimit="1.78829" stroke-linecap="round" stroke-linejoin="round"/>
<path d="M21 15.75C20.5858 15.75 20.25 16.0858 20.25 16.5C20.25 16.9142 20.5858 17.25 21 17.25C21.4142 17.25 21.75 16.9142 21.75 16.5C21.75 16.0858 21.4142 15.75 21 15.75Z" stroke="black" stroke-width="1.5" stroke-miterlimit="1.78829" stroke-linecap="round" stroke-linejoin="round"/>
<path d="M3 15.75C2.58579 15.75 2.25 16.0858 2.25 16.5C2.25 16.9142 2.58579 17.25 3 17.25C3.41421 17.25 3.75 16.9142 3.75 16.5C3.75 16.0858 3.41421 15.75 3 15.75Z" stroke="black" stroke-width="1.5" stroke-miterlimit="1.78829" stroke-linecap="round" stroke-linejoin="round"/>
</svg>
