<svg width="24" height="24" viewBox="0 0 24 24" fill="none" xmlns="http://www.w3.org/2000/svg">
<path d="M6.75 12C6.75 12.4142 7.08579 12.75 7.5 12.75C7.91421 12.75 8.25 12.4142 8.25 12C8.25 11.5858 7.91421 11.25 7.5 11.25C7.08579 11.25 6.75 11.5858 6.75 12Z" stroke="black" stroke-width="1.5" stroke-miterlimit="1.78829" stroke-linecap="round" stroke-linejoin="round"/>
<path d="M6.75 3C6.75 3.41421 7.08579 3.75 7.5 3.75C7.91421 3.75 8.25 3.41421 8.25 3C8.25 2.58579 7.91421 2.25 7.5 2.25C7.08579 2.25 6.75 2.58579 6.75 3Z" stroke="black" stroke-width="1.5" stroke-miterlimit="1.78829" stroke-linecap="round" stroke-linejoin="round"/>
<path d="M6.75 21C6.75 21.4142 7.08579 21.75 7.5 21.75C7.91421 21.75 8.25 21.4142 8.25 21C8.25 20.5858 7.91421 20.25 7.5 20.25C7.08579 20.25 6.75 20.5858 6.75 21Z" stroke="black" stroke-width="1.5" stroke-miterlimit="1.78829" stroke-linecap="round" stroke-linejoin="round"/>
<path d="M15.75 12C15.75 12.4142 16.0858 12.75 16.5 12.75C16.9142 12.75 17.25 12.4142 17.25 12C17.25 11.5858 16.9142 11.25 16.5 11.25C16.0858 11.25 15.75 11.5858 15.75 12Z" stroke="black" stroke-width="1.5" stroke-miterlimit="1.78829" stroke-linecap="round" stroke-linejoin="round"/>
<path d="M15.75 3C15.75 3.41421 16.0858 3.75 16.5 3.75C16.9142 3.75 17.25 3.41421 17.25 3C17.25 2.58579 16.9142 2.25 16.5 2.25C16.0858 2.25 15.75 2.58579 15.75 3Z" stroke="black" stroke-width="1.5" stroke-miterlimit="1.78829" stroke-linecap="round" stroke-linejoin="round"/>
<path d="M15.75 21C15.75 21.4142 16.0858 21.75 16.5 21.75C16.9142 21.75 17.25 21.4142 17.25 21C17.25 20.5858 16.9142 20.25 16.5 20.25C16.0858 20.25 15.75 20.5858 15.75 21Z" stroke="black" stroke-width="1.5" stroke-miterlimit="1.78829" stroke-linecap="round" stroke-linejoin="round"/>
</svg>
