<svg width="24" height="24" viewBox="0 0 24 24" fill="none" xmlns="http://www.w3.org/2000/svg">
<path d="M12.7501 6.00002C10.0002 5.10075 7.14804 4.91662 4.5224 5.72928C4.03503 5.88012 3.6896 6.30238 3.58955 6.80266L2.4748 12.3765C2.34215 13.0398 2.66981 13.7097 3.27479 14.0123L5.25008 15L5.8996 15.375M12.7501 6.00002L16.3765 11.2547C15.8709 11.9373 14.4986 13.0665 13.1381 11.5523L11.0117 9.29763C10.8404 10.0007 9.423 11.8764 7.84815 12L5.8996 15.375M12.7501 6.00002C14.9066 5.04399 17.3571 5.05698 19.4883 5.72712C19.9702 5.87867 20.3097 6.29837 20.4088 6.79378L21.5269 12.3842C21.5338 12.4185 21.5367 12.4942 21.5351 12.5292C21.4684 13.9611 19.697 14.7231 18.9269 15.9322C17.7201 17.827 16.8567 18.942 14.8465 20.409C14.6474 20.5593 14.2601 20.7462 13.6474 20.6208C12.6919 20.4252 12.4858 19.4288 12.4858 19.4288C12.2867 19.5791 11.8993 19.766 11.2866 19.6406C10.3312 19.445 10.1251 18.4486 10.1251 18.4486C10.1251 18.4486 9.4133 18.9037 8.62508 18.4486C7.83685 17.9935 7.87508 17.1495 7.87508 17.1495C7.87508 17.1495 7.08682 17.7618 6.22636 17.0494C5.36591 16.337 5.8996 15.375 5.8996 15.375" stroke="black" stroke-width="1.5" stroke-linecap="round" stroke-linejoin="round"/>
</svg>
