<svg width="24" height="24" viewBox="0 0 24 24" fill="none" xmlns="http://www.w3.org/2000/svg">
<path d="M12 9.75L20.1558 13.5142C21.1276 13.9628 21.75 14.9354 21.75 16.0058C21.75 17.5214 20.5214 18.75 19.0058 18.75H4.99418C3.47861 18.75 2.25 17.5214 2.25 16.0058C2.25 14.9354 2.87236 13.9628 3.84421 13.5142L12 9.75ZM12 9.75V9.43585C12 8.72767 12.4532 8.09895 13.125 7.875C13.7968 7.65105 14.25 7.02233 14.25 6.31415V5.92927C14.25 4.72569 13.2743 3.75 12.0707 3.75H12C10.7574 3.75 9.75 4.75736 9.75 6" stroke="black" stroke-width="1.5" stroke-linecap="round" stroke-linejoin="round"/>
</svg>
