<svg width="24" height="24" viewBox="0 0 24 24" fill="none" xmlns="http://www.w3.org/2000/svg">
<path d="M8.5428 14.4511C7.44393 13.4888 6.75 12.0754 6.75 10.5C6.75 7.60051 9.10051 5.25 12 5.25C14.8995 5.25 17.25 7.60051 17.25 10.5C17.25 13.3995 14.8995 15.75 12 15.75C11.6475 15.75 11.3032 15.7153 10.9702 15.649M10.9702 15.649L11.7252 11.874C11.7566 11.7168 11.6844 11.5571 11.5455 11.4769C11.391 11.3877 11.1948 11.4202 11.0773 11.5545L8.5428 14.4511L7.64141 15.4812C7.11537 16.0824 7.05854 16.9628 7.50166 17.6275C7.94303 18.2895 8.77369 18.5754 9.52856 18.3238C10.1293 18.1236 10.5766 17.6168 10.7008 16.9959L10.9702 15.649ZM5.25 2.25H18.75C19.5784 2.25 20.25 2.92157 20.25 3.75V20.25C20.25 21.0784 19.5784 21.75 18.75 21.75H5.25C4.42157 21.75 3.75 21.0784 3.75 20.25V3.75C3.75 2.92157 4.42157 2.25 5.25 2.25Z" stroke="black" stroke-width="1.5" stroke-linecap="round" stroke-linejoin="round"/>
</svg>
