<svg width="24" height="24" viewBox="0 0 24 24" fill="none" xmlns="http://www.w3.org/2000/svg">
<path d="M21.0009 16.5C21.0009 19.3995 16.9715 21.75 12.0009 21.75C7.03035 21.75 3.00092 19.3995 3.00092 16.5M21.0009 16.5C21.0009 14.2143 18.4969 12.2698 15.0018 11.5489M21.0009 16.5C21.0009 11.5294 16.9706 7.5 12 7.5C7.02944 7.5 3.00092 11.5294 3.00092 16.5M3.00092 16.5C3.00092 14.2143 5.50494 12.2698 9.00008 11.5489M12.0009 3.75V2.25M17.25 5.25L18 3.75M6.75 5.25L6 3.75M3 8.25L2.25 7.5M21 8.25L21.75 7.5" stroke="black" stroke-width="1.5" stroke-linecap="round" stroke-linejoin="round"/>
</svg>
