<svg width="24" height="24" viewBox="0 0 24 24" fill="none" xmlns="http://www.w3.org/2000/svg">
<path d="M20.049 13.4998C21.2938 13.9148 21.9699 15.257 21.5623 16.5042L20.5891 19.4822C20.1806 20.7324 18.8326 21.4113 17.5848 20.9954C16.3474 20.5829 15.6753 19.2486 16.0805 18.0087L17.0623 15.0042C17.4685 13.7613 18.8085 13.0863 20.049 13.4998ZM20.049 13.4998C21.4557 8.25 18.75 3 12 3C5.25 3 2.54427 8.25 3.95096 13.4998M3.95096 13.4998C2.70618 13.9148 2.0301 15.257 2.43768 16.5042L3.41086 19.4822C3.81943 20.7324 5.16738 21.4113 6.41519 20.9954C7.65263 20.5829 8.32472 19.2486 7.91954 18.0087L6.93768 15.0042C6.5315 13.7613 5.19145 13.0863 3.95096 13.4998Z" stroke="black" stroke-width="1.5" stroke-linecap="round" stroke-linejoin="round"/>
</svg>
