<svg width="24" height="24" viewBox="0 0 24 24" fill="none" xmlns="http://www.w3.org/2000/svg">
<path d="M21.052 11.9778C21.4889 11.045 21.75 10.072 21.75 9.07868C21.75 2.47352 14.0302 2.25783 12.1681 7.05799C12.113 7.20006 11.887 7.20006 11.8319 7.05799C9.96977 2.25782 2.25 2.47337 2.25 9.07854C2.25 14.156 9.07316 18.7028 11.3037 20.0535C11.4029 20.1136 11.5071 20.1599 11.614 20.1924M18.3741 20.85C17.0072 20.85 15.8991 19.7419 15.8991 18.375C15.8991 17.0081 17.0072 15.9 18.3741 15.9M18.3741 20.85C19.741 20.85 20.8491 19.7419 20.8491 18.375C20.8491 17.0081 19.741 15.9 18.3741 15.9M18.3741 20.85V22.5M18.3741 15.9V14.25M22.5073 18.3668H20.8573M15.9073 18.3668H14.2573M21.305 21.2862L20.1383 20.1195M16.6381 16.6193L15.4713 15.4525M15.4713 21.2979L16.6381 20.1312M20.1383 16.631L21.305 15.4643" stroke="black" stroke-width="1.5" stroke-miterlimit="1.78829" stroke-linecap="round" stroke-linejoin="round"/>
</svg>
