<svg width="24" height="24" viewBox="0 0 24 24" fill="none" xmlns="http://www.w3.org/2000/svg">
<path d="M6.83773 10.1746C5.9238 11.6994 5.66001 13.5937 6.34992 15.4447L7.22011 17.7794C8.10758 20.1605 10.4614 21.75 13.1 21.75C15.7387 21.75 18.0924 20.1605 18.9799 17.7794L19.8501 15.4447C20.9891 12.3888 19.5288 9.50245 16.835 8.06805M6.83773 10.1746C5.24216 9.10143 3.75 9.10143 3.75 9.10143M6.83773 10.1746C7.21638 9.54285 7.70663 8.97455 8.28689 8.49903M15.2612 5.55871C14.9365 5.79202 14.625 6.05683 14.3363 6.35741C12.2794 8.49933 9.09086 11.306 8.28689 8.49903C8.22411 8.27984 8.1819 8.05249 8.16238 7.81901M8.16238 7.81901C8.15414 7.72048 8.14994 7.62087 8.14994 7.52032C8.14994 6.73472 8.4062 6.00647 8.84299 5.40813M8.16238 7.81901C5.86247 6.46631 3.75 6.46631 3.75 6.46631M16.835 8.06805C15.9663 8.76974 15.3 9.91575 15.85 12.0238L15.9287 12.2123C16.5629 13.7317 16.3247 15.4579 15.3 16.7671M16.835 8.06805C18.4623 6.75372 20.25 6.75372 20.25 6.75372M15.2612 5.55871C17.666 3.83119 20.25 3.83119 20.25 3.83119M8.84299 5.40813C9.29144 4.79382 9.93018 4.31645 10.6773 4.05456C11.0897 3.90997 11.5352 3.83107 12 3.83107C12.4597 3.83107 12.9007 3.9083 13.3094 4.04996C14.1223 4.33165 14.8079 4.86812 15.2612 5.55871M10.6773 4.05456L9.99831 2.25M13.3094 4.04996L13.9983 2.25M8.84299 5.40813L7.04995 4.20132" stroke="black" stroke-width="1.5" stroke-linecap="round" stroke-linejoin="round"/>
</svg>
