<svg width="24" height="24" viewBox="0 0 24 24" fill="none" xmlns="http://www.w3.org/2000/svg">
<path d="M5.25 9.75V9C5.25 7.90954 5.50858 6.87947 5.96777 5.96777M5.25 17.25L5.75658 18.7697C6.34984 20.5495 8.01541 21.75 9.89146 21.75C12.2986 21.75 14.25 19.7986 14.25 17.3915V16.6583C14.25 15.9692 14.4077 15.301 14.699 14.699M8.3057 8.3057C8.2691 8.51278 8.25 8.72578 8.25 8.94317V9.70384C8.25 10.5578 9.02477 11.2119 9.67031 11.7709C10.2234 12.2498 10.5 12.9647 10.5 13.5C10.5 14.3816 9.75 15.75 8.25 15.75M8.3057 8.3057L14.699 14.699M8.3057 8.3057L5.96777 5.96777M10.1988 5.6988C10.7272 5.41263 11.3317 5.25 11.9714 5.25C13.5091 5.25 14.8465 6.17557 15.4332 7.5M14.699 14.699L21.75 21.75M16.9453 12.4453C18.0773 11.5987 18.75 10.2647 18.75 8.84167C18.75 5.20119 15.7988 2.25 12.1583 2.25H12C10.5188 2.25 9.14903 2.72709 8.03598 3.53598M5.96777 5.96777L2.25 2.25" stroke="black" stroke-width="1.5" stroke-linecap="round" stroke-linejoin="round"/>
</svg>
