<svg width="24" height="24" viewBox="0 0 24 24" fill="none" xmlns="http://www.w3.org/2000/svg">
<path d="M12.3587 21.7079C10.0285 21.4417 8.0235 19.9349 7.22011 17.7794L6.34992 15.4447C5.66001 13.5937 5.9238 11.6994 6.83773 10.1746M6.83773 10.1746C5.24216 9.10143 3.75 9.10143 3.75 9.10143M6.83773 10.1746C7.21638 9.54285 7.70663 8.97455 8.28689 8.49903M8.28689 8.49903C8.22411 8.27984 8.1819 8.05249 8.16238 7.81901M8.28689 8.49903C9.09086 11.306 12.2794 8.49933 14.3363 6.35741C14.625 6.05683 14.9365 5.79202 15.2612 5.55871M8.16238 7.81901C8.15414 7.72048 8.14994 7.62087 8.14994 7.52032C8.14994 6.73472 8.4062 6.00647 8.84299 5.40813M8.16238 7.81901C5.86247 6.46631 3.75 6.46631 3.75 6.46631M16.835 8.06805C18.3135 8.85531 19.4204 10.0799 19.9299 11.5299M16.835 8.06805C16.0219 8.72484 15.3861 9.77091 15.7591 11.6309M16.835 8.06805C18.4623 6.75372 20.25 6.75372 20.25 6.75372M15.2612 5.55871C17.666 3.83119 20.25 3.83119 20.25 3.83119M8.84299 5.40813C9.29144 4.79382 9.93018 4.31645 10.6773 4.05456C11.0897 3.90997 11.5352 3.83107 12 3.83107C12.4597 3.83107 12.9007 3.9083 13.3094 4.04996C14.1223 4.33165 14.8079 4.86812 15.2612 5.55871M10.6773 4.05456L9.99831 2.25M13.3094 4.04996L13.9983 2.25M8.84299 5.40813L7.04995 4.20132M22.5 22.5L20.4116 20.4116M20.4116 20.4116C21.0648 19.7584 21.4688 18.8561 21.4688 17.8594C21.4688 15.866 19.8528 14.25 17.8594 14.25C15.866 14.25 14.25 15.866 14.25 17.8594C14.25 19.8528 15.866 21.4688 17.8594 21.4688C18.8561 21.4688 19.7584 21.0648 20.4116 20.4116Z" stroke="black" stroke-width="1.5" stroke-miterlimit="1.78829" stroke-linecap="round" stroke-linejoin="round"/>
</svg>
