<svg width="24" height="24" viewBox="0 0 24 24" fill="none" xmlns="http://www.w3.org/2000/svg">
<path d="M5.25 9.75V9C5.25 5.27208 8.27208 2.25 12 2.25H12.1583C15.7988 2.25 18.75 5.20119 18.75 8.84167C18.75 10.3463 17.998 11.7513 16.7462 12.5859L16.2538 12.9141C15.002 13.7487 14.25 15.1537 14.25 16.6583V17.3915C14.25 19.7986 12.2986 21.75 9.89146 21.75C8.01541 21.75 6.34984 20.5495 5.75658 18.7697L5.25 17.25M8.25 15.75C9.75 15.75 10.5 14.3816 10.5 13.5C10.5 12.9647 10.2234 12.2498 9.67031 11.7709C9.02477 11.2119 8.25 10.5578 8.25 9.70384V8.94317C8.25 6.90349 9.93169 5.25 11.9714 5.25C13.5091 5.25 14.8465 6.17557 15.4332 7.5" stroke="black" stroke-width="1.5" stroke-linecap="round" stroke-linejoin="round"/>
</svg>
