<svg width="24" height="24" viewBox="0 0 24 24" fill="none" xmlns="http://www.w3.org/2000/svg">
<path d="M21.052 11.9778C21.4889 11.045 21.75 10.072 21.75 9.07868C21.75 2.47352 14.0302 2.25783 12.1681 7.05799C12.113 7.20006 11.887 7.20006 11.8319 7.05799C9.96977 2.25782 2.25 2.47337 2.25 9.07854C2.25 14.156 9.07316 18.7028 11.3037 20.0535C11.4029 20.1136 11.5071 20.1599 11.614 20.1924M18.75 19.875C20.3033 19.875 21.5625 18.6158 21.5625 17.0625C21.5625 15.5092 20.3033 14.25 18.75 14.25C17.1967 14.25 15.9375 15.5092 15.9375 17.0625C15.9375 18.6158 17.1967 19.875 18.75 19.875ZM18.75 19.875H19.875C21.3247 19.875 22.5 21.0503 22.5 22.5M18.75 19.875H17.625C16.1753 19.875 15 21.0503 15 22.5" stroke="black" stroke-width="1.5" stroke-linecap="round" stroke-linejoin="round"/>
</svg>
