<svg width="24" height="24" viewBox="0 0 24 24" fill="none" xmlns="http://www.w3.org/2000/svg">
<path d="M3 9.76384V19.5C3 20.3284 3.67157 21 4.5 21H6.75C7.57843 21 8.25 20.3284 8.25 19.5V14.25C8.25 13.4216 8.92157 12.75 9.75 12.75H14.25C15.0784 12.75 15.75 13.4216 15.75 14.25V19.5C15.75 20.3284 16.4216 21 17.25 21H19.5C20.3284 21 21 20.3284 21 19.5V9.76384C21 9.28393 20.7704 8.833 20.3823 8.55073L13.3566 3.44113C12.9623 3.15443 12.4874 3 12 3C11.5126 3 11.0377 3.15443 10.6434 3.44113L3.61774 8.55073C3.22963 8.833 3 9.28393 3 9.76384Z" stroke="black" stroke-width="1.5" stroke-miterlimit="1.78829" stroke-linecap="round" stroke-linejoin="round"/>
</svg>
