<svg width="24" height="24" viewBox="0 0 24 24" fill="none" xmlns="http://www.w3.org/2000/svg">
<path fill-rule="evenodd" clip-rule="evenodd" d="M3.75 20.25V19.1041C3.75 17.0485 4.9114 15.1693 6.75 14.25L9.07918 13.0854C9.4903 12.8798 9.75 12.4596 9.75 12C9.75 11.5404 9.4903 11.1202 9.07918 10.9146L6.75 9.75C4.9114 8.8307 3.75 6.95151 3.75 4.8959V3.75C3.75 2.92157 4.42157 2.25 5.25 2.25H18.75C19.5784 2.25 20.25 2.92157 20.25 3.75V4.8959C20.25 6.95151 19.0886 8.8307 17.25 9.75L14.9208 10.9146C14.5097 11.1202 14.25 11.5404 14.25 12C14.25 12.4596 14.5097 12.8798 14.9208 13.0854L17.25 14.25C19.0886 15.1693 20.25 17.0485 20.25 19.1041V20.25C20.25 21.0784 19.5784 21.75 18.75 21.75H5.25C4.42157 21.75 3.75 21.0784 3.75 20.25ZM9.51887 16.5H9.57295C10.6008 16.5 11.5404 15.9193 12 15C12.4596 15.9193 13.3992 16.5 14.4271 16.5H14.4811C15.6868 16.5 16.7572 17.2715 17.1384 18.4153L17.25 18.75H6.75L6.86158 18.4153C7.24284 17.2715 8.31322 16.5 9.51887 16.5Z" stroke="black" stroke-width="1.5" stroke-linecap="round" stroke-linejoin="round"/>
</svg>
