<svg width="24" height="24" viewBox="0 0 24 24" fill="none" xmlns="http://www.w3.org/2000/svg">
<path fill-rule="evenodd" clip-rule="evenodd" d="M3.75 3.75V4.8959C3.75 6.95151 4.9114 8.8307 6.75 9.75L9.07918 10.9146C9.4903 11.1202 9.75 11.5404 9.75 12C9.75 12.4596 9.4903 12.8798 9.07918 13.0854L6.75 14.25C4.9114 15.1693 3.75 17.0485 3.75 19.1041V20.25C3.75 21.0784 4.42157 21.75 5.25 21.75H18.75C19.5784 21.75 20.25 21.0784 20.25 20.25V19.1041C20.25 17.0485 19.0886 15.1693 17.25 14.25L14.9208 13.0854C14.5097 12.8798 14.25 12.4596 14.25 12C14.25 11.5404 14.5097 11.1202 14.9208 10.9146L17.25 9.75C19.0886 8.8307 20.25 6.95151 20.25 4.8959V3.75C20.25 2.92157 19.5784 2.25 18.75 2.25H5.25C4.42157 2.25 3.75 2.92157 3.75 3.75ZM9.51887 7.5H9.57295C10.6008 7.5 11.5404 8.0807 12 9C12.4596 8.0807 13.3992 7.5 14.4271 7.5H14.4811C15.6868 7.5 16.7572 6.72851 17.1384 5.58473L17.25 5.25H6.75L6.86158 5.58473C7.24284 6.72851 8.31322 7.5 9.51887 7.5Z" stroke="black" stroke-width="1.5" stroke-linecap="round" stroke-linejoin="round"/>
</svg>
