<svg width="24" height="24" viewBox="0 0 24 24" fill="none" xmlns="http://www.w3.org/2000/svg">
<path d="M17.25 7.5V21.75H14.25V17.25C14.25 16.4216 13.5784 15.75 12.75 15.75H11.25C10.4216 15.75 9.75 16.4216 9.75 17.25V21.75H6.75V7.5M17.25 7.5L19.5 9.75M17.25 7.5L15.75 6M6.75 7.5L12 2.25L15.75 6M6.75 7.5L4.5 9.75M15.75 6V2.25M12 8.25C10.7574 8.25 9.75 9.25736 9.75 10.5C9.75 11.7426 10.7574 12.75 12 12.75C13.2426 12.75 14.25 11.7426 14.25 10.5C14.25 9.25736 13.2426 8.25 12 8.25Z" stroke="black" stroke-width="1.5" stroke-linecap="round" stroke-linejoin="round"/>
</svg>
