<svg width="24" height="24" viewBox="0 0 24 24" fill="none" xmlns="http://www.w3.org/2000/svg">
<path d="M3.75 15V20.25C3.75 21.0784 4.42157 21.75 5.25 21.75H18.75C19.5784 21.75 20.25 21.0784 20.25 20.25V15.75M3.75 15V3.75C3.75 2.92157 4.42157 2.25 5.25 2.25H18.75C19.5784 2.25 20.25 2.92157 20.25 3.75V15.75M3.75 15C3.75 15 4.5 14.25 6.75 14.25C9.75 14.25 11.25 17.25 15 17.25C18 17.25 19.5 16.5 20.25 15.75M16.5 8.25C16.5 7.00736 15.4926 6 14.25 6C13.0074 6 12 7.00736 12 8.25C12 9.49264 13.0074 10.5 14.25 10.5C15.4926 10.5 16.5 9.49264 16.5 8.25Z" stroke="black" stroke-width="1.5" stroke-linecap="round" stroke-linejoin="round"/>
</svg>
