<svg width="24" height="24" viewBox="0 0 24 24" fill="none" xmlns="http://www.w3.org/2000/svg">
<path d="M11.9516 21H4.5C3.67157 21 3 20.3284 3 19.5V11.25M3 11.25V4.5C3 3.67157 3.67157 3 4.5 3H19.5C20.3284 3 21 3.67157 21 4.5V11.25H15.75M3 11.25H8.25V12C8.25 13.9497 9.73789 15.5518 11.6401 15.733M18.75 14.25V19.5M16.5 17.25L18.75 19.5L21 17.25M15 20.25V21C15 21.8284 15.6716 22.5 16.5 22.5H21C21.8284 22.5 22.5 21.8284 22.5 21V20.25" stroke="black" stroke-width="1.5" stroke-miterlimit="1.78829" stroke-linecap="round" stroke-linejoin="round"/>
</svg>
