<svg width="24" height="24" viewBox="0 0 24 24" fill="none" xmlns="http://www.w3.org/2000/svg">
<path d="M20.1183 15.6183C19.8274 14.6705 19.0795 13.9227 18.1317 13.6317M18.9631 18.9631C18.4774 19.3016 17.8869 19.5 17.25 19.5C15.5931 19.5 14.25 18.1569 14.25 16.5C14.25 16.2411 14.2828 15.9897 14.3445 15.75M18.9631 18.9631L14.7869 14.7869M18.9631 18.9631L21.75 21.75M9.65549 15.75C9.71719 15.9897 9.75 16.2411 9.75 16.5C9.75 18.1569 8.40685 19.5 6.75 19.5C5.09315 19.5 3.75 18.1569 3.75 16.5C3.75 14.8432 5.09315 13.5 6.75 13.5C8.14788 13.5 9.32245 14.4561 9.65549 15.75ZM9.65549 15.75C9.93699 15.5 10.8 15 12 15C13.2 15 14.063 15.5 14.3445 15.75M14.3445 15.75C14.4345 15.4002 14.5861 15.0751 14.7869 14.7869M14.7869 14.7869L11.2434 11.2434M2.25 9.75003C2.80165 10.0259 4.06843 10.4538 6 10.7822C6.46217 10.8607 6.9624 10.9336 7.5 10.9973C8.59477 11.127 9.84452 11.2187 11.2434 11.2434M11.2434 11.2434L7.1592 7.1592M21.75 9.75003C21.1984 10.0259 19.9316 10.4538 18 10.7822C17.5378 10.8607 17.0376 10.9336 16.5 10.9973C16.2084 11.0318 15.9058 11.0637 15.5923 11.0923M6 10.7822L7.1592 7.1592M7.1592 7.1592L2.25 2.25M10.0859 5.37728C10.6466 5.73276 11.2966 6.00003 12 6.00003C12.7034 6.00003 13.3534 5.73276 13.9141 5.37728C14.8626 4.77598 16.1575 5.02359 16.4997 6.09318L18 10.7822" stroke="black" stroke-width="1.5" stroke-linecap="round" stroke-linejoin="round"/>
</svg>
