<svg width="24" height="24" viewBox="0 0 24 24" fill="none" xmlns="http://www.w3.org/2000/svg">
<path d="M9.65549 15.75C9.71719 15.9897 9.75 16.2411 9.75 16.5C9.75 18.1569 8.40685 19.5 6.75 19.5C5.09315 19.5 3.75 18.1569 3.75 16.5C3.75 14.8432 5.09315 13.5 6.75 13.5C8.14788 13.5 9.32245 14.4561 9.65549 15.75ZM9.65549 15.75C9.93699 15.5 10.8 15 12 15C13.2 15 14.063 15.5 14.3445 15.75M14.3445 15.75C14.2828 15.9897 14.25 16.2411 14.25 16.5C14.25 18.1569 15.5931 19.5 17.25 19.5C18.9069 19.5 20.25 18.1569 20.25 16.5C20.25 14.8432 18.9069 13.5 17.25 13.5C15.8521 13.5 14.6775 14.4561 14.3445 15.75ZM21.75 9.75003C21.1984 10.0259 19.9316 10.4538 18 10.7822C17.5378 10.8607 17.0376 10.9336 16.5 10.9973C15.2115 11.1499 13.7083 11.25 12 11.25C10.2917 11.25 8.7885 11.1499 7.5 10.9973C6.9624 10.9336 6.46217 10.8607 6 10.7822C4.06843 10.4538 2.80165 10.0259 2.25 9.75003M6 10.7822L7.50029 6.09318C7.84251 5.02359 9.13739 4.77598 10.0859 5.37728C10.6466 5.73276 11.2966 6.00003 12 6.00003C12.7034 6.00003 13.3534 5.73276 13.9141 5.37728C14.8626 4.77598 16.1575 5.02359 16.4997 6.09318L18 10.7822" stroke="black" stroke-width="1.5" stroke-linecap="round" stroke-linejoin="round"/>
</svg>
