<svg width="24" height="24" viewBox="0 0 24 24" fill="none" xmlns="http://www.w3.org/2000/svg">
<path d="M21 18.75V19.5C21 20.3284 20.3284 21 19.5 21H4.5C3.67157 21 3 20.3284 3 19.5V18.75M21 18.75V14.25M21 18.75L17.5607 15.3107C16.9749 14.7249 16.0251 14.7249 15.4393 15.3107L13.0607 17.6893C12.4749 18.2751 11.5251 18.2751 10.9393 17.6893L8.56066 15.3107C7.97487 14.7249 7.02513 14.7249 6.43934 15.3107L3 18.75M21 14.25V9.75M21 14.25L17.5607 10.8107C16.9749 10.2249 16.0251 10.2249 15.4393 10.8107L13.0607 13.1893C12.4749 13.7751 11.5251 13.7751 10.9393 13.1893L8.56066 10.8107C7.97487 10.2249 7.02513 10.2249 6.43934 10.8107L3 14.25M21 9.75V4.5C21 3.67157 20.3284 3 19.5 3H4.5C3.67157 3 3 3.67157 3 4.5V9.75M21 9.75L17.5607 6.31066C16.9749 5.72487 16.0251 5.72487 15.4393 6.31066L13.0607 8.68934C12.4749 9.27513 11.5251 9.27513 10.9393 8.68934L8.56066 6.31066C7.97487 5.72487 7.02513 5.72487 6.43934 6.31066L3 9.75M3 9.75V14.25M3 14.25V18.75" stroke="black" stroke-width="1.5" stroke-linecap="round" stroke-linejoin="round"/>
</svg>
