<svg width="24" height="24" viewBox="0 0 24 24" fill="none" xmlns="http://www.w3.org/2000/svg">
<path d="M18.75 14.25L17.6109 13.1109M17.6109 13.1109C17.9671 12.7546 18.1875 12.2624 18.1875 11.7188C18.1875 10.6314 17.3061 9.75 16.2188 9.75C15.1314 9.75 14.25 10.6314 14.25 11.7188C14.25 12.8061 15.1314 13.6875 16.2188 13.6875C16.7624 13.6875 17.2546 13.4671 17.6109 13.1109ZM21.75 8.25V15.75C21.75 16.5784 21.0784 17.25 20.25 17.25H3.75C2.92157 17.25 2.25 16.5784 2.25 15.75V8.25C2.25 7.42157 2.92157 6.75 3.75 6.75H20.25C21.0784 6.75 21.75 7.42157 21.75 8.25Z" stroke="black" stroke-width="1.5" stroke-linecap="round" stroke-linejoin="round"/>
</svg>
