<svg width="24" height="24" viewBox="0 0 24 24" fill="none" xmlns="http://www.w3.org/2000/svg">
<path d="M7.50007 9.75V11.987M7.50007 11.987V11.9957M7.50007 11.987L7.50757 11.9913M7.50007 11.987L5.56277 10.8685M7.50007 11.9957V14.25M7.50007 11.9957L7.50757 11.9913M7.50007 11.9957L5.55542 13.1184M9.45988 13.1185L7.50757 11.9913M7.50757 11.9913L9.45253 10.8684M14.6947 9.75V11.987M14.6947 11.987V11.9957M14.6947 11.987L14.7021 11.9913M14.6947 11.987L12.7573 10.8685M14.6947 11.9957V14.25M14.6947 11.9957L14.7021 11.9913M14.6947 11.9957L12.75 13.1184M16.6545 13.1185L14.7021 11.9913M14.7021 11.9913L16.6471 10.8684M21.75 8.25V15.75C21.75 16.5784 21.0784 17.25 20.25 17.25H3.75C2.92157 17.25 2.25 16.5784 2.25 15.75V8.25C2.25 7.42157 2.92157 6.75 3.75 6.75H20.25C21.0784 6.75 21.75 7.42157 21.75 8.25Z" stroke="black" stroke-width="1.5" stroke-linecap="round" stroke-linejoin="round"/>
</svg>
