<svg width="24" height="24" viewBox="0 0 24 24" fill="none" xmlns="http://www.w3.org/2000/svg">
<path d="M16.5 7.5H19.5C19.9142 7.5 20.2892 7.66789 20.5607 7.93934C20.8321 8.21079 21 8.58579 21 9V19.5C21 20.3284 20.3284 21 19.5 21H9C8.58579 21 8.21079 20.8321 7.93934 20.5607C7.66789 20.2892 7.5 19.9142 7.5 19.5V16.5M16.5 7.5V4.5C16.5 3.67157 15.8284 3 15 3H4.5C3.67157 3 3 3.67157 3 4.5V15C3 15.8284 3.67157 16.5 4.5 16.5H7.5M16.5 7.5L7.5 16.5M16.5 7.5V12M16.5 7.5H12M7.5 16.5V12M7.5 16.5H12M16.5 12V15C16.5 15.8284 15.8284 16.5 15 16.5H12M16.5 12L12 16.5M12 7.5H9C8.17157 7.5 7.5 8.17157 7.5 9V12M12 7.5L7.5 12" stroke="black" stroke-width="1.5" stroke-linecap="round" stroke-linejoin="round"/>
</svg>
