<svg width="24" height="24" viewBox="0 0 24 24" fill="none" xmlns="http://www.w3.org/2000/svg">
<path d="M6.75 10.5C6.75 7.60051 9.10051 5.25 12 5.25M6.75 10.5C6.75 13.3995 9.10051 15.75 12 15.75M6.75 10.5H10.125M12 5.25C14.8995 5.25 17.25 7.60051 17.25 10.5M12 5.25C10.9645 5.25 10.125 7.60051 10.125 10.5M12 5.25C13.0355 5.25 13.875 7.60051 13.875 10.5M12 15.75C14.8995 15.75 17.25 13.3995 17.25 10.5M12 15.75C10.9645 15.75 10.125 13.3995 10.125 10.5M12 15.75C13.0355 15.75 13.875 13.3995 13.875 10.5M17.25 10.5H13.875M13.875 10.5H10.125M12 21.75L17.6024 16.5395C23.086 11.4395 19.4831 2.25 12 2.25C4.51692 2.25 0.914006 11.4395 6.39755 16.5395L12 21.75Z" stroke="black" stroke-width="1.5" stroke-miterlimit="1.78829" stroke-linecap="round" stroke-linejoin="round"/>
</svg>
