<svg width="24" height="24" viewBox="0 0 24 24" fill="none" xmlns="http://www.w3.org/2000/svg">
<path d="M15.4168 17.7823L12.8542 19.9506C12.3824 20.3498 11.6176 20.3498 11.1458 19.9506L8.58321 17.7823M15.4168 17.7823L12 14.8911M15.4168 6.21774L18.8336 9.10887L21.3962 11.2772C21.8679 11.6764 21.8679 12.3236 21.3962 12.7228L18.8336 14.8911L15.4168 17.7823M8.58321 17.7823L5.16641 14.8911L2.60382 12.7228C2.13206 12.3236 2.13206 11.6764 2.60382 11.2772L5.16641 9.10887M5.16641 9.10887L8.58321 12M15.4168 6.21774L12.8542 4.04939C12.3824 3.6502 11.6176 3.6502 11.1458 4.04939L8.58321 6.21774L5.16641 9.10887M12 14.8911L8.58321 12M12 14.8911L15.4168 12M12 14.8911L8.58321 17.7823M8.58321 12L5.16641 14.8911M8.58321 12L12 9.10887M8.58321 6.21774L12 9.10887M18.8336 14.8911L15.4168 12M12 9.10887L15.4168 12M12 9.10887L15.4168 6.21774M15.4168 12L18.8336 9.10887" stroke="black" stroke-width="1.5" stroke-linecap="round" stroke-linejoin="round"/>
</svg>
