<svg width="24" height="24" viewBox="0 0 24 24" fill="none" xmlns="http://www.w3.org/2000/svg">
<path d="M7.5 7.5L7.60728 7.23179C8.44844 5.12891 10.4851 3.75 12.75 3.75M7.5 7.5H18M7.5 7.5H6.75C5.09315 7.5 3.75 8.84315 3.75 10.5V15M7.5 7.5V20.25C7.5 21.0784 8.17157 21.75 9 21.75H16.5C17.3284 21.75 18 21.0784 18 20.25V10.8541C18 10.6212 18.0542 10.3916 18.1584 10.1833L19.5 7.5H18M18 7.5L17.8927 7.23179C17.0516 5.12891 15.0149 3.75 12.75 3.75M12.75 3.75C12.3358 3.75 12 3.41421 12 3C12 2.58579 12.3358 2.25 12.75 2.25C13.1642 2.25 13.5 2.58579 13.5 3C13.5 3.41421 13.1642 3.75 12.75 3.75Z" stroke="black" stroke-width="1.5" stroke-linecap="round" stroke-linejoin="round"/>
</svg>
