<svg width="24" height="24" viewBox="0 0 24 24" fill="none" xmlns="http://www.w3.org/2000/svg">
<path fill-rule="evenodd" clip-rule="evenodd" d="M7.5 11.2501C4.60051 11.2501 2.25 13.6006 2.25 16.5001C2.25 19.3996 4.60051 21.7501 7.5 21.7501C10.3995 21.7501 12.75 19.3996 12.75 16.5001C12.75 15.4339 12.4322 14.442 11.8862 13.6139L17.25 8.25L19.5 10.5001L21.75 8.25009L19.5 6.00015L21 4.5L18.75 2.25L9.3968 11.6032C8.80849 11.3752 8.16885 11.2501 7.5 11.2501ZM6.75 16.5C7.16421 16.5 7.5 16.8358 7.5 17.25C7.5 17.6642 7.16421 18 6.75 18C6.33579 18 6 17.6642 6 17.25C6 16.8358 6.33579 16.5 6.75 16.5Z" stroke="black" stroke-width="1.5" stroke-miterlimit="1.78829" stroke-linecap="round" stroke-linejoin="round"/>
</svg>
