<svg width="24" height="24" viewBox="0 0 24 24" fill="none" xmlns="http://www.w3.org/2000/svg">
<path d="M16.5 17.25H13.5M16.5 13.5H13.5M16.5 9.75H13.5M17.25 2.91147V2.25H6.75V2.91147C6.75 3.46291 6.87839 4.00678 7.125 4.5C7.37161 4.99322 7.5 5.53709 7.5 6.08853V9.0418C7.5 9.50753 7.39156 9.96687 7.18328 10.3834L4.06672 16.6166C3.85844 17.0331 3.75 17.4925 3.75 17.9582V18.75C3.75 20.4069 5.09315 21.75 6.75 21.75H17.25C18.9069 21.75 20.25 20.4069 20.25 18.75V17.9582C20.25 17.4925 20.1416 17.0331 19.9333 16.6166L16.8167 10.3834C16.6084 9.96687 16.5 9.50753 16.5 9.0418V6.08853C16.5 5.53709 16.6284 4.99322 16.875 4.5C17.1216 4.00678 17.25 3.46291 17.25 2.91147Z" stroke="black" stroke-width="1.5" stroke-linecap="round" stroke-linejoin="round"/>
</svg>
