<svg width="24" height="24" viewBox="0 0 24 24" fill="none" xmlns="http://www.w3.org/2000/svg">
<path d="M12 2.25V6.75M12 6.75C8.27208 6.75 5.25 9.77208 5.25 13.5C5.25 13.9142 5.58579 14.25 6 14.25H9.75M12 6.75C15.7279 6.75 18.75 9.77208 18.75 13.5C18.75 13.9142 18.4142 14.25 18 14.25H14.25M9.75 14.25V15C9.75 16.2426 10.7574 17.25 12 17.25C13.2426 17.25 14.25 16.2426 14.25 15V14.25M9.75 14.25H14.25M12 21.75V20.25M8.08846 18.9115L6.75 20.25M15.9115 18.9115L17.25 20.25" stroke="black" stroke-width="1.5" stroke-linecap="round" stroke-linejoin="round"/>
</svg>
