<svg width="24" height="24" viewBox="0 0 24 24" fill="none" xmlns="http://www.w3.org/2000/svg">
<path d="M6.5129 7.24355L9.9871 5.50645M6.5129 7.24355C6.66462 7.54639 6.75 7.88822 6.75 8.25C6.75 8.61178 6.66462 8.95361 6.5129 9.25645M6.5129 7.24355C6.1435 6.50619 5.38086 6 4.5 6C3.25736 6 2.25 7.00736 2.25 8.25C2.25 9.49264 3.25736 10.5 4.5 10.5M14.0129 5.50645C13.6435 6.24381 12.8809 6.75 12 6.75C11.1191 6.75 10.3565 6.24381 9.9871 5.50645C9.83538 5.20361 9.75 4.86178 9.75 4.5C9.75 3.25736 10.7574 2.25 12 2.25C13.2426 2.25 14.25 3.25736 14.25 4.5C14.25 4.86178 14.1646 5.20361 14.0129 5.50645ZM14.0129 5.50645L17.4871 7.24355M17.4871 7.24355C17.3354 7.54639 17.25 7.88822 17.25 8.25C17.25 8.61178 17.3354 8.95361 17.4871 9.25645M17.4871 7.24355C17.8565 6.50619 18.6191 6 19.5 6C20.7426 6 21.75 7.00736 21.75 8.25C21.75 9.49264 20.7426 10.5 19.5 10.5M19.5 10.5V13.5M19.5 10.5C18.6191 10.5 17.8565 9.99381 17.4871 9.25645M19.5 13.5C20.7426 13.5 21.75 14.5074 21.75 15.75C21.75 16.9926 20.7426 18 19.5 18C18.6191 18 17.8565 17.4938 17.4871 16.7565M19.5 13.5C18.2574 13.5 17.25 14.5074 17.25 15.75C17.25 16.1118 17.3354 16.4536 17.4871 16.7565M17.4871 16.7565L14.0129 18.4935M12 17.25C12.8809 17.25 13.6435 17.7562 14.0129 18.4935C14.1646 18.7964 14.25 19.1382 14.25 19.5C14.25 20.7426 13.2426 21.75 12 21.75C10.7574 21.75 9.75 20.7426 9.75 19.5C9.75 19.1382 9.83538 18.7964 9.9871 18.4935C10.3565 17.7562 11.1191 17.25 12 17.25ZM9.9871 18.4935L6.5129 16.7565M4.5 13.5C5.74264 13.5 6.75 14.5074 6.75 15.75C6.75 16.1118 6.66462 16.4536 6.5129 16.7565C6.1435 17.4938 5.38086 18 4.5 18C3.25736 18 2.25 16.9926 2.25 15.75C2.25 14.5074 3.25736 13.5 4.5 13.5ZM4.5 13.5V10.5M4.5 10.5C5.38086 10.5 6.1435 9.99381 6.5129 9.25645M6.5129 9.25645L9.9871 10.9935M9.9871 10.9935C9.83538 11.2964 9.75 11.6382 9.75 12C9.75 13.2426 10.7574 14.25 12 14.25M9.9871 10.9935C10.3565 10.2562 11.1191 9.75 12 9.75C12.8809 9.75 13.6435 10.2562 14.0129 10.9935M14.0129 10.9935L17.4871 9.25645M14.0129 10.9935C14.1646 11.2964 14.25 11.6382 14.25 12C14.25 13.2426 13.2426 14.25 12 14.25M12 14.25V17.25" stroke="black" stroke-width="1.5" stroke-linecap="round" stroke-linejoin="round"/>
</svg>
