<svg width="24" height="24" viewBox="0 0 24 24" fill="none" xmlns="http://www.w3.org/2000/svg">
<path d="M2.25 20.25H8.25M8.25 20.25C9.07843 20.25 9.75 19.5784 9.75 18.75C9.75 17.9216 9.07843 17.25 8.25 17.25H2.25M8.25 20.25H9.75M9.75 20.25C11.4069 20.25 12.75 18.9069 12.75 17.25C12.75 15.5931 11.4069 14.25 9.75 14.25H2.25M9.75 20.25H11.25C13.7353 20.25 15.75 18.2353 15.75 15.75C15.75 13.2647 13.7353 11.25 11.25 11.25H2.25M18.75 20.25V3.75M21.75 6.75L18.75 3.75L15.75 6.75" stroke="black" stroke-width="1.5" stroke-linecap="round" stroke-linejoin="round"/>
</svg>
