<svg width="24" height="24" viewBox="0 0 24 24" fill="none" xmlns="http://www.w3.org/2000/svg">
<path d="M2.25 18.75V5.25C2.25 4.42157 2.92157 3.75 3.75 3.75H5.25C6.07843 3.75 6.75 4.42157 6.75 5.25V18.75C6.75 19.5784 6.07843 20.25 5.25 20.25H3.75C2.92157 20.25 2.25 19.5784 2.25 18.75Z" stroke="black" stroke-width="1.5" stroke-linecap="round" stroke-linejoin="round"/>
<path d="M9.75 18.75V5.25C9.75 4.42157 10.4216 3.75 11.25 3.75H12.75C13.5784 3.75 14.25 4.42157 14.25 5.25V18.75C14.25 19.5784 13.5784 20.25 12.75 20.25H11.25C10.4216 20.25 9.75 19.5784 9.75 18.75Z" stroke="black" stroke-width="1.5" stroke-linecap="round" stroke-linejoin="round"/>
<path d="M17.25 18.75V5.25C17.25 4.42157 17.9216 3.75 18.75 3.75H20.25C21.0784 3.75 21.75 4.42157 21.75 5.25V18.75C21.75 19.5784 21.0784 20.25 20.25 20.25H18.75C17.9216 20.25 17.25 19.5784 17.25 18.75Z" stroke="black" stroke-width="1.5" stroke-linecap="round" stroke-linejoin="round"/>
</svg>
