<svg width="24" height="24" viewBox="0 0 24 24" fill="none" xmlns="http://www.w3.org/2000/svg">
<path d="M3 10.5V4.5C3 3.67157 3.67157 3 4.5 3H9C9.82843 3 10.5 3.67157 10.5 4.5V10.5C10.5 11.3284 9.82843 12 9 12H4.5C3.67157 12 3 11.3284 3 10.5Z" stroke="black" stroke-width="1.5" stroke-linecap="round" stroke-linejoin="round"/>
<path d="M13.5 6V4.5C13.5 3.67157 14.1716 3 15 3H19.5C20.3284 3 21 3.67157 21 4.5V6C21 6.82843 20.3284 7.5 19.5 7.5H15C14.1716 7.5 13.5 6.82843 13.5 6Z" stroke="black" stroke-width="1.5" stroke-linecap="round" stroke-linejoin="round"/>
<path d="M19.5 10.5H15C14.1716 10.5 13.5 11.1716 13.5 12V19.5C13.5 20.3284 14.1716 21 15 21H19.5C20.3284 21 21 20.3284 21 19.5V12C21 11.1716 20.3284 10.5 19.5 10.5Z" stroke="black" stroke-width="1.5" stroke-linecap="round" stroke-linejoin="round"/>
<path d="M3 19.5V16.5C3 15.6716 3.67157 15 4.5 15H9C9.82843 15 10.5 15.6716 10.5 16.5V19.5C10.5 20.3284 9.82843 21 9 21H4.5C3.67157 21 3 20.3284 3 19.5Z" stroke="black" stroke-width="1.5" stroke-linecap="round" stroke-linejoin="round"/>
</svg>
