<svg width="24" height="24" viewBox="0 0 24 24" fill="none" xmlns="http://www.w3.org/2000/svg">
<path d="M5.25 2.25H18.75C19.5784 2.25 20.25 2.92157 20.25 3.75V5.25C20.25 6.07843 19.5784 6.75 18.75 6.75H5.25C4.42157 6.75 3.75 6.07843 3.75 5.25V3.75C3.75 2.92157 4.42157 2.25 5.25 2.25Z" stroke="black" stroke-width="1.5" stroke-linecap="round" stroke-linejoin="round"/>
<path d="M5.25 9.75H18.75C19.5784 9.75 20.25 10.4216 20.25 11.25V12.75C20.25 13.5784 19.5784 14.25 18.75 14.25H5.25C4.42157 14.25 3.75 13.5784 3.75 12.75V11.25C3.75 10.4216 4.42157 9.75 5.25 9.75Z" stroke="black" stroke-width="1.5" stroke-linecap="round" stroke-linejoin="round"/>
<path d="M5.25 17.25H18.75C19.5784 17.25 20.25 17.9216 20.25 18.75V20.25C20.25 21.0784 19.5784 21.75 18.75 21.75H5.25C4.42157 21.75 3.75 21.0784 3.75 20.25V18.75C3.75 17.9216 4.42157 17.25 5.25 17.25Z" stroke="black" stroke-width="1.5" stroke-linecap="round" stroke-linejoin="round"/>
</svg>
