<svg width="24" height="24" viewBox="0 0 24 24" fill="none" xmlns="http://www.w3.org/2000/svg">
<path d="M7.5 12.75C7.60836 12.1642 7.62619 11.836 7.5 11.25M16.5 12.7501C16.3917 12.1643 16.3738 11.8361 16.5 11.2501M16.5 7.5C15.9155 7.41504 15.5036 7.33209 15 7.12046M7.5 7.5C8.08448 7.41504 8.4964 7.33209 9 7.12046M16.5 16.5C15.9155 16.585 15.5036 16.6679 15 16.8795M7.5 16.5C8.08447 16.585 8.4964 16.6679 9 16.8795M2.25 8.25L3.75 3.75L4.69244 4.06415C6.81698 4.77233 9.15632 4.04157 10.5 2.25H13.5C14.8437 4.04157 17.183 4.77233 19.3076 4.06415L20.25 3.75L21.75 8.25C18.808 9.88445 18.808 14.1155 21.75 15.75L20.25 20.25L19.3076 19.9359C17.183 19.2277 14.8437 19.9584 13.5 21.75H10.5C9.15632 19.9584 6.81698 19.2277 4.69244 19.9359L3.75 20.25L2.25 15.75C5.19202 14.1155 5.19202 9.88445 2.25 8.25Z" stroke="black" stroke-width="1.5" stroke-linecap="round" stroke-linejoin="round"/>
</svg>
