<svg width="24" height="24" viewBox="0 0 24 24" fill="none" xmlns="http://www.w3.org/2000/svg">
<path d="M17.25 17.25L15.8399 18.5191C12.6531 21.3872 7.65313 20.7049 5.3513 17.0878C4.791 16.2073 4.43667 15.2117 4.31473 14.1752L3 3L14.1752 4.31473C15.2117 4.43667 16.2073 4.791 17.0878 5.3513C20.7049 7.65313 21.3872 12.6531 18.5191 15.8399L17.25 17.25ZM3 3L10.5 10.5M21 21L17.25 17.25M17.25 17.25L15 15M15 15V9M15 15L10.5 10.5M15 15H9M10.5 10.5V7.5M10.5 10.5H7.5" stroke="black" stroke-width="1.5" stroke-linecap="round" stroke-linejoin="round"/>
</svg>
