<svg width="24" height="24" viewBox="0 0 24 24" fill="none" xmlns="http://www.w3.org/2000/svg">
<path d="M21.75 7.5V6C21.75 5.17157 21.0784 4.5 20.25 4.5H3.75C2.92157 4.5 2.25 5.17157 2.25 6V7.5M21.75 7.5L12 12.75L2.25 7.5M21.75 7.5V12.3867M2.25 7.5V18C2.25 18.8284 2.92157 19.5 3.75 19.5H11.4173M19.5 14.25L22.5 17.25L18.4393 21.3107C18.158 21.592 17.7765 21.75 17.3787 21.75H15V19.3713C15 18.9735 15.158 18.592 15.4393 18.3107L19.5 14.25Z" stroke="black" stroke-width="1.5" stroke-linecap="round" stroke-linejoin="round"/>
</svg>
