<svg width="24" height="24" viewBox="0 0 24 24" fill="none" xmlns="http://www.w3.org/2000/svg">
<path d="M8.25 7.5H5.25C3.59315 7.5 2.25 8.84315 2.25 10.5V16.5H21.75V10.5C21.75 8.84315 20.4069 7.5 18.75 7.5H15.75M8.25 7.5V8.25C8.25 9.49264 9.25736 10.5 10.5 10.5H13.5C14.7426 10.5 15.75 9.49264 15.75 8.25V7.5M8.25 7.5H15.75M6.75 12.75C6.75 12.3358 6.41421 12 6 12C5.58579 12 5.25 12.3358 5.25 12.75C5.25 13.1642 5.58579 13.5 6 13.5C6.41421 13.5 6.75 13.1642 6.75 12.75ZM17.25 12.75C17.25 13.1642 17.5858 13.5 18 13.5C18.4142 13.5 18.75 13.1642 18.75 12.75C18.75 12.3358 18.4142 12 18 12C17.5858 12 17.25 12.3358 17.25 12.75Z" stroke="black" stroke-width="1.5" stroke-linecap="round" stroke-linejoin="round"/>
</svg>
