<svg width="24" height="24" viewBox="0 0 24 24" fill="none" xmlns="http://www.w3.org/2000/svg">
<path d="M9.75 17.25V18.75C9.75 19.5784 10.4216 20.25 11.25 20.25H12.75C13.5784 20.25 14.25 19.5784 14.25 18.75V17.25M9.75 17.25H14.25M9.75 17.25V15.1771C9.75 14.6089 9.41765 14.1036 8.96002 13.7669C7.58508 12.7552 6.75 11.139 6.75 9.3959V9C6.75 6.10051 9.10051 3.75 12 3.75C14.8995 3.75 17.25 6.1005 17.25 9V9.3959C17.25 11.139 16.4149 12.7552 15.04 13.7669C14.5824 14.1036 14.25 14.6089 14.25 15.1771V17.25M21 4.5L19.5 5.25M21.75 9.75H20.25M19.5 14.25L21 15M3.75 9.75H2.25M4.5 5.25L3 4.5M4.5 14.25L3 15" stroke="black" stroke-width="1.5" stroke-linecap="round" stroke-linejoin="round"/>
</svg>
