<svg width="24" height="24" viewBox="0 0 24 24" fill="none" xmlns="http://www.w3.org/2000/svg">
<path d="M12 6.00003V2.99976M12 21V17.9998M21 11.9998H21.75M2.25 11.9998H3M7.5 5.99948V5.24976M3.75 6.74976L2.25 5.24976M16.5 5.99948V5.24976M21.75 18.7498L20.25 17.2498M21.75 5.24976L20.25 6.74976M3.75 17.2498L2.25 18.7498M7.5 18.7495V17.9998M16.5 18.7495V17.9998M6 10.5V13.5C6 14.3285 6.67157 15 7.5 15H16.5C17.3284 15 18 14.3285 18 13.5V10.5C18 9.6716 17.3284 9.00003 16.5 9.00003H7.5C6.67157 9.00003 6 9.6716 6 10.5Z" stroke="black" stroke-width="1.5" stroke-linecap="round" stroke-linejoin="round"/>
</svg>
