<svg width="24" height="24" viewBox="0 0 24 24" fill="none" xmlns="http://www.w3.org/2000/svg">
<path d="M9.75 18.75V20.25C9.75 21.0784 10.4216 21.75 11.25 21.75H12.75C13.5784 21.75 14.25 21.0784 14.25 20.25V18.75M9.75 18.75H14.25M9.75 18.75V17.3717C9.75 16.4032 9.10589 15.5751 8.28955 15.0541C6.42671 13.865 5.25 11.7889 5.25 9.50658V9C5.25 5.27208 8.27208 2.25 12 2.25C15.7279 2.25 18.75 5.27208 18.75 9V9.50658C18.75 11.7889 17.5733 13.865 15.7104 15.0541C14.8941 15.5751 14.25 16.4032 14.25 17.3717V18.75" stroke="black" stroke-width="1.5" stroke-linecap="round" stroke-linejoin="round"/>
</svg>
