<svg width="24" height="24" viewBox="0 0 24 24" fill="none" xmlns="http://www.w3.org/2000/svg">
<path d="M12 21.75C16.9706 21.75 21 19.3995 21 16.5C21 15.9788 20.8698 15.4753 20.6273 15M3.48924 14.7882C3.44791 14.8582 3.40905 14.9288 3.3727 15C3.13021 15.4753 3 15.9788 3 16.5C3 19.3995 7.02944 21.75 12 21.75M12 21.75V9.75M3.3727 15L3.48924 14.7882M7.5 7.5L3.48924 14.7882M3.48924 14.7882C4.38145 13.2785 6.42096 12.0805 9 11.5487M20.6273 15L20.5108 14.7882M20.6273 15C20.591 14.9288 20.5521 14.8582 20.5108 14.7882M16.5 7.5L20.5108 14.7882M20.5108 14.7882C19.6185 13.2785 17.579 12.0805 15 11.5487M14.25 4.5C14.25 3.25736 13.2426 2.25 12 2.25C10.7574 2.25 9.75 3.25736 9.75 4.5C9.75 5.74264 10.7574 6.75 12 6.75C13.2426 6.75 14.25 5.74264 14.25 4.5Z" stroke="black" stroke-width="1.5" stroke-linecap="round" stroke-linejoin="round"/>
</svg>
