<svg width="24" height="24" viewBox="0 0 24 24" fill="none" xmlns="http://www.w3.org/2000/svg">
<path d="M8.24983 15.7498L15.7498 8.24983M19.9605 11.5392L20.2498 11.2498C22.3209 9.17877 22.3209 5.8209 20.2498 3.74983C18.1788 1.67876 14.8209 1.67877 12.7498 3.74984L12.2525 4.24717C11.5931 4.90655 11.0963 5.7104 10.8014 6.59504L10.4998 7.49983M11.539 19.9607L11.2498 20.2498C9.17877 22.3209 5.8209 22.3209 3.74983 20.2498C1.67877 18.1788 1.67877 14.8209 3.74984 12.7498L4.24717 12.2525C4.90655 11.5931 5.7104 11.0963 6.59504 10.8014L7.49983 10.4998M18.3741 20.85C17.0072 20.85 15.8991 19.7419 15.8991 18.375C15.8991 17.0081 17.0072 15.9 18.3741 15.9M18.3741 20.85C19.741 20.85 20.8491 19.7419 20.8491 18.375C20.8491 17.0081 19.741 15.9 18.3741 15.9M18.3741 20.85V22.5M18.3741 15.9V14.25M22.5073 18.3668H20.8573M15.9073 18.3667H14.2573M21.305 21.2862L20.1383 20.1195M16.6381 16.6193L15.4713 15.4525M15.4713 21.2979L16.6381 20.1312M20.1383 16.631L21.305 15.4643" stroke="black" stroke-width="1.5" stroke-miterlimit="1.78829" stroke-linecap="round" stroke-linejoin="round"/>
</svg>
