<svg width="24" height="24" viewBox="0 0 24 24" fill="none" xmlns="http://www.w3.org/2000/svg">
<path d="M8.25008 15.7498L15.7501 8.24983M19.9607 11.5392L20.2501 11.2498C22.3211 9.17877 22.3211 5.8209 20.2501 3.74983C18.179 1.67876 14.8211 1.67877 12.7501 3.74984L12.2527 4.24717C11.5934 4.90655 11.0966 5.7104 10.8017 6.59504L10.5001 7.49983M11.5392 19.9607L11.2501 20.2498C9.17901 22.3209 5.82115 22.3209 3.75008 20.2498C1.67901 18.1788 1.67901 14.8209 3.75008 12.7498L4.24742 12.2525C4.9068 11.5931 5.71064 11.0963 6.59529 10.8014L7.50008 10.4998M18.3751 22.5V18.375M18.3751 18.375V14.25M18.3751 18.375H22.5001M18.3751 18.375H14.2501" stroke="black" stroke-width="1.5" stroke-miterlimit="1.78829" stroke-linecap="round" stroke-linejoin="round"/>
</svg>
