<svg width="24" height="24" viewBox="0 0 24 24" fill="none" xmlns="http://www.w3.org/2000/svg">
<path d="M10.5001 7.49983L10.8017 6.59504C11.0966 5.7104 11.5934 4.90655 12.2527 4.24717L12.7501 3.74984C14.8211 1.67877 18.179 1.67876 20.2501 3.74983C22.3211 5.8209 22.3211 9.17877 20.2501 11.2498L19.7527 11.7472C19.0934 12.4066 18.2895 12.9034 17.4049 13.1982L16.5001 13.4998M13.5001 16.4998L13.1985 17.4046C12.9036 18.2893 12.4068 19.0931 11.7474 19.7525L11.2501 20.2498C9.17901 22.3209 5.82115 22.3209 3.75008 20.2498C1.67901 18.1788 1.67901 14.8209 3.75008 12.7498L4.24742 12.2525C4.9068 11.5931 5.71064 11.0963 6.59529 10.8014L7.50008 10.4998M16.5001 18.75L18.0001 21.75M18.7501 16.4998L21.7501 17.25M7.50008 5.25L6.75006 2.25M5.25006 7.49983L2.25006 6.75" stroke="black" stroke-width="1.5" stroke-linecap="round" stroke-linejoin="round"/>
</svg>
