<svg width="24" height="24" viewBox="0 0 24 24" fill="none" xmlns="http://www.w3.org/2000/svg">
<path d="M8.24996 15.7501L15.75 8.25008M10.5 7.50008L10.8016 6.59529C11.0964 5.71064 11.5932 4.9068 12.2526 4.24742L12.75 3.75008C14.821 1.67901 18.1789 1.67901 20.25 3.75008C22.321 5.82115 22.321 9.17901 20.25 11.2501L19.7526 11.7474C19.0932 12.4068 18.2894 12.9036 17.4047 13.1985L16.5 13.5001M13.5 16.5001L13.1984 17.4049C12.9035 18.2895 12.4067 19.0934 11.7473 19.7527L11.25 20.2501C9.17889 22.3211 5.82102 22.3211 3.74996 20.2501C1.67889 18.179 1.67889 14.8211 3.74996 12.7501L4.2473 12.2527C4.90667 11.5934 5.71052 11.0966 6.59517 10.8017L7.49996 10.5001" stroke="black" stroke-width="1.5" stroke-linecap="round" stroke-linejoin="round"/>
</svg>
