<svg width="24" height="24" viewBox="0 0 24 24" fill="none" xmlns="http://www.w3.org/2000/svg">
<path d="M10.5 3.75H21.75M10.5 12H21.75M10.5 20.25H21.75M2.25 20.25C2.25 19.8358 2.58579 19.5 3 19.5C3.41421 19.5 3.75 19.8358 3.75 20.25C3.75 20.6642 3.41421 21 3 21C2.58579 21 2.25 20.6642 2.25 20.25ZM2.25 12C2.25 11.5858 2.58579 11.25 3 11.25C3.41421 11.25 3.75 11.5858 3.75 12C3.75 12.4142 3.41421 12.75 3 12.75C2.58579 12.75 2.25 12.4142 2.25 12ZM2.25 3.75C2.25 3.33579 2.58579 3 3 3C3.41421 3 3.75 3.33579 3.75 3.75C3.75 4.16421 3.41421 4.5 3 4.5C2.58579 4.5 2.25 4.16421 2.25 3.75Z" stroke="black" stroke-width="1.5" stroke-linecap="round" stroke-linejoin="round"/>
</svg>
