<svg width="24" height="24" viewBox="0 0 24 24" fill="none" xmlns="http://www.w3.org/2000/svg">
<path d="M11.9047 15.0521L7.62646 19.3724C7.03794 19.9667 6.26518 20.2969 5.46284 20.2969C3.70475 20.2969 2.27954 18.7437 2.27954 16.8277V10.6029C2.27954 8.09505 3.87783 5.92365 6.12424 5.37961C6.76305 5.22491 7.42378 5.21093 8.06761 5.33851L12.9742 6.31073M11.9047 15.0521H11.926M11.9047 15.0521C10.6213 11.3224 12.0829 7.67049 12.9742 6.31073M12.9742 6.31073L17.6561 5.80048C18.0957 5.75258 18.5396 5.7959 18.9645 5.92818L20.3092 6.34691C21.3008 6.65567 21.9088 7.74233 21.7066 8.8444C21.5943 9.45612 21.2446 9.98493 20.7476 10.2944L19.0761 11.3353M14.25 18.75L17.1439 21.6439C17.2025 21.7025 17.2975 21.7025 17.356 21.6439L22.2656 16.7344" stroke="black" stroke-width="1.5" stroke-miterlimit="1.78829" stroke-linecap="round" stroke-linejoin="round"/>
</svg>
