<svg width="24" height="24" viewBox="0 0 24 24" fill="none" xmlns="http://www.w3.org/2000/svg">
<path d="M11.9047 15.0521L7.62646 19.3724C7.03794 19.9667 6.26518 20.2969 5.46284 20.2969C3.70475 20.2969 2.27954 18.7437 2.27954 16.8277V10.6029C2.27954 8.09505 3.87783 5.92365 6.12424 5.37961C6.76305 5.22491 7.42378 5.21093 8.06761 5.33851L12.9742 6.31073M11.9047 15.0521H13.1966C14.7459 15.0521 16.2112 14.2845 17.1791 12.966L17.4061 12.6569C17.6576 12.3142 17.9663 12.0265 18.3158 11.8088L20.7476 10.2944C21.2446 9.98493 21.5943 9.45612 21.7066 8.8444C21.9088 7.74233 21.3008 6.65567 20.3092 6.34691L18.9645 5.92818C18.5396 5.7959 18.0957 5.75258 17.6561 5.80048L12.9742 6.31073M11.9047 15.0521C10.6213 11.3224 12.0829 7.67049 12.9742 6.31073" stroke="black" stroke-width="1.5" stroke-linecap="round" stroke-linejoin="round"/>
</svg>
