<svg width="24" height="24" viewBox="0 0 24 24" fill="none" xmlns="http://www.w3.org/2000/svg">
<path d="M5.25 20.25V9.75M5.25 9.75H8.25L7.09189 6.27566C6.88771 5.66315 6.31451 5.25 5.66886 5.25H4.83114C4.18549 5.25 3.61228 5.66315 3.40811 6.27566L2.25 9.75H5.25ZM20.25 14.25C19.4216 14.25 18.75 14.9216 18.75 15.75V17.25H12V15.75C12 14.9216 11.3284 14.25 10.5 14.25M20.25 14.25C21.0784 14.25 21.75 14.9216 21.75 15.75V20.25H9V15.75C9 14.9216 9.67157 14.25 10.5 14.25M20.25 14.25V12.75C20.25 11.9216 19.5784 11.25 18.75 11.25H12C11.1716 11.25 10.5 11.9216 10.5 12.75V14.25M12.75 3.75V8.25H20.25V3.75H12.75Z" stroke="black" stroke-width="1.5" stroke-linecap="round" stroke-linejoin="round"/>
</svg>
