<svg width="24" height="24" viewBox="0 0 24 24" fill="none" xmlns="http://www.w3.org/2000/svg">
<path d="M12 15L5.25 10.5M12 15L18.75 10.5M12 15V21M6.30882 17.2059L5.25 16.5V10.5L12 6M17.6912 17.2059L18.75 16.5V10.5L12 6M12 6V10.5M12 6V2.25M6.30882 17.2059L12 21L17.6912 17.2059M17.6912 17.2059L15.75 15.75M17.6912 17.2059L21.75 20.25M6.30882 17.2059L8.25 15.75M6.30882 17.2059L2.25 20.25M19.5 20.626L21.75 20.25L21.4227 18M4.5 20.626L2.25 20.25L2.57728 18M10.5 3.75L12 2.25L13.5 3.75" stroke="black" stroke-width="1.5" stroke-linecap="round" stroke-linejoin="round"/>
</svg>
