<svg width="24" height="24" viewBox="0 0 24 24" fill="none" xmlns="http://www.w3.org/2000/svg">
<path d="M12.4009 14.2287C12.2692 14.2428 12.1354 14.25 12 14.25C9.93221 14.25 8.25594 12.5711 8.25594 10.5C8.25594 8.42893 9.93221 6.75 12 6.75C14.0678 6.75 15.7441 8.42893 15.7441 10.5C15.7441 10.9235 15.6739 11.3307 15.5447 11.7104M20.1825 11.6106C20.7767 7.03157 17.3978 2.25 12 2.25C4.51692 2.25 0.914006 11.4395 6.39755 16.5395L12 21.75L12.2422 21.5247M15.75 22.5L19.125 19.125M19.125 19.125L22.5 15.75M19.125 19.125L22.5 22.5M19.125 19.125L15.75 15.75" stroke="black" stroke-width="1.5" stroke-miterlimit="1.78829" stroke-linecap="round" stroke-linejoin="round"/>
</svg>
