<svg width="24" height="24" viewBox="0 0 24 24" fill="none" xmlns="http://www.w3.org/2000/svg">
<path d="M12 12.75C9.93221 12.75 8.25594 11.0711 8.25594 9C8.25594 6.92893 9.93221 5.25 12 5.25C14.0678 5.25 15.7441 6.92893 15.7441 9C15.7441 11.0711 14.0678 12.75 12 12.75ZM12 12.75H13.1327C15.4066 12.75 17.25 14.5934 17.25 16.8673M12 12.75H10.8673C8.59336 12.75 6.75 14.5934 6.75 16.8673M6.75 16.8673L6.39755 16.5395C0.914006 11.4395 4.51692 2.25 12 2.25C19.4831 2.25 23.086 11.4395 17.6024 16.5395L17.25 16.8673L12 21.75L6.75 16.8673Z" stroke="black" stroke-width="1.5" stroke-miterlimit="1.78829" stroke-linecap="round" stroke-linejoin="round"/>
</svg>
