<svg width="24" height="24" viewBox="0 0 24 24" fill="none" xmlns="http://www.w3.org/2000/svg">
<path d="M7.5 9.75H6C5.17157 9.75 4.5 10.4216 4.5 11.25V20.25C4.5 21.0784 5.17157 21.75 6 21.75H12.3867M7.5 9.75V6.75C7.5 4.26472 9.51472 2.25 12 2.25C14.4853 2.25 16.5 4.26472 16.5 6.75V9.75M7.5 9.75H16.5M16.5 9.75H18C18.8284 9.75 19.5 10.4216 19.5 11.25V11.4173M18 17.25H15.75M15.75 17.25H15M15.75 17.25V16.5C15.75 15.2574 16.8761 14.25 18.375 14.25C19.8739 14.25 21 15.2574 21 16.5M15.75 17.25V19.5M18 19.5H15.75M15.75 19.5H15M15.75 19.5V20.25C15.75 21.4926 16.8761 22.5 18.375 22.5C19.8739 22.5 21 21.4926 21 20.25" stroke="black" stroke-width="1.5" stroke-linecap="round" stroke-linejoin="round"/>
</svg>
