<svg width="24" height="24" viewBox="0 0 24 24" fill="none" xmlns="http://www.w3.org/2000/svg">
<path d="M14.25 18.75L17.1439 21.6439C17.2025 21.7025 17.2975 21.7025 17.3561 21.6439L22.2656 16.7344M7.5 9.75H6C5.17157 9.75 4.5 10.4216 4.5 11.25V20.25C4.5 21.0784 5.17157 21.75 6 21.75H12.3867M7.5 9.75V6.75C7.5 4.26472 9.51472 2.25 12 2.25C14.4853 2.25 16.5 4.26472 16.5 6.75V9.75M7.5 9.75H16.5M16.5 9.75H18C18.8284 9.75 19.5 10.4216 19.5 11.25V11.4173" stroke="black" stroke-width="1.5" stroke-miterlimit="1.78829" stroke-linecap="round" stroke-linejoin="round"/>
</svg>
