<svg width="24" height="24" viewBox="0 0 24 24" fill="none" xmlns="http://www.w3.org/2000/svg">
<path d="M15 21H4.5C3.67157 21 3 20.3284 3 19.5V13.5C3 12.6716 3.67157 12 4.5 12H6M15 21C15.8284 21 16.5 20.3284 16.5 19.5V13.5C16.5 12.6716 15.8284 12 15 12H13.5M15 21H19.5C20.3284 21 21 20.3284 21 19.5V7.5C21 6.67157 20.3284 6 19.5 6H18.75M13.5 12L12.4146 9.82918C12.1605 9.321 11.6411 9 11.0729 9H10.5M13.5 12H6M6 12L7.08541 9.82918C7.3395 9.321 7.85889 9 8.42705 9H10.5M18.75 6V4.5C18.75 3.67157 18.0784 3 17.25 3H14.25C13.4216 3 12.75 3.67157 12.75 4.5V6M18.75 6H12.75M12.75 6H12C11.1716 6 10.5 6.67157 10.5 7.5V9" stroke="black" stroke-width="1.5" stroke-linecap="round" stroke-linejoin="round"/>
</svg>
