<svg width="24" height="24" viewBox="0 0 24 24" fill="none" xmlns="http://www.w3.org/2000/svg">
<path d="M13.3523 12.4656L13.2665 12.1315C13.1338 11.6157 12.6571 11.2538 12.1102 11.2538C11.4519 11.2538 10.9183 11.7726 10.9183 12.4125C10.9183 12.4125 10.9243 12.9642 10.9183 13.3177C10.8791 15.641 10.1592 19.2219 10.1592 19.2219C10.0004 20.4568 8.74597 21.263 7.51511 20.9211L7.4049 20.8905C4.5315 20.0923 3.00005 17.4124 3 14.507C2.99996 12.2859 3.42024 10.7382 3.86081 9.13964C4.17407 8.00303 4.46456 7.12706 4.84091 6.28114C5.61214 4.54765 5.92598 3.75398 7.38244 3.28197C7.86809 3.12458 8.3948 3.36888 8.57454 3.8349L9.58614 6.45757C9.74146 6.86028 10.1374 7.12706 10.5798 7.12706L11.9795 7.12706L13.4547 7.12706C13.9417 7.12706 14.3662 6.80485 14.4843 6.34554L15.0853 4.00802C15.2271 3.45682 15.8102 3.12936 16.3721 3.28545C18.0535 3.7525 18.3212 5.07768 19.2306 6.60899C19.4082 6.90799 20.0756 8.15883 20.285 8.91877C20.5864 10.0122 20.7629 10.936 20.8651 11.8865M11.9795 7.12706V3M22.5 22.5L20.4116 20.4116M20.4116 20.4116C21.0648 19.7584 21.4688 18.8561 21.4688 17.8594C21.4688 15.866 19.8528 14.25 17.8594 14.25C15.866 14.25 14.25 15.866 14.25 17.8594C14.25 19.8528 15.866 21.4688 17.8594 21.4688C18.8561 21.4688 19.7584 21.0648 20.4116 20.4116Z" stroke="black" stroke-width="1.5" stroke-miterlimit="1.78829" stroke-linecap="round" stroke-linejoin="round"/>
</svg>
