<svg width="24" height="24" viewBox="0 0 24 24" fill="none" xmlns="http://www.w3.org/2000/svg">
<path d="M3 15V19.5C3 20.3284 3.67157 21 4.5 21H8.625C9.24632 21 9.75 20.4963 9.75 19.875V15M3 15V12C3 7.02944 7.02944 3 12 3C16.9706 3 21 7.02944 21 12V15M3 15H9.75M9.75 15V12C9.75 10.7574 10.7574 9.75 12 9.75C13.2426 9.75 14.25 10.7574 14.25 12V15M14.25 15V19.875C14.25 20.4963 14.7537 21 15.375 21H19.5C20.3284 21 21 20.3284 21 19.5V15M14.25 15H21" stroke="black" stroke-width="1.5" stroke-linecap="round" stroke-linejoin="round"/>
</svg>
