<svg width="24" height="24" viewBox="0 0 24 24" fill="none" xmlns="http://www.w3.org/2000/svg">
<path d="M18.267 10.8745L21.75 12.7499L18.2679 14.625M5.73214 10.875L12 14.25L18.161 10.9325C18.1965 10.9134 18.2318 10.8941 18.267 10.8745C19.4238 10.2314 20.425 9.34084 21.1988 8.26581L21.75 7.49995L12 2.25L11.4488 3.01586C10.6515 4.12357 9.61269 5.03545 8.41101 5.68251L2.25 8.99995L5.73214 10.875ZM18.2679 14.625L12 18L5.73214 14.625M18.2679 14.625L21.75 16.4999L12 21.75L2.25 16.4999L5.73214 14.625M5.73214 14.625L2.25 12.7499L5.73214 10.875" stroke="black" stroke-width="1.5" stroke-miterlimit="1.78829" stroke-linecap="round" stroke-linejoin="round"/>
</svg>
