<svg width="24" height="24" viewBox="0 0 24 24" fill="none" xmlns="http://www.w3.org/2000/svg">
<path d="M21 6.75V4.5C21 3.67157 20.3284 3 19.5 3H17.25M6.75 3H4.5C3.67157 3 3 3.67157 3 4.5V6.75M3 17.25V19.5C3 20.3284 3.67157 21 4.5 21H6.75M17.25 21H19.5C20.3284 21 21 20.3284 21 19.5V17.25M15.75 12C15.75 14.0711 14.071 15.75 12 15.75M12 18.75C8.27208 18.75 5.25 15.7279 5.25 12C5.25 8.27208 8.27208 5.25 12 5.25C15.7279 5.25 18.75 8.27208 18.75 12C18.75 15.7279 15.7279 18.75 12 18.75Z" stroke="black" stroke-width="1.5" stroke-linecap="round" stroke-linejoin="round"/>
</svg>
