<svg width="24" height="24" viewBox="0 0 24 24" fill="none" xmlns="http://www.w3.org/2000/svg">
<path d="M7.5 15.5705C8.0225 15.7654 8.60288 15.7594 9.12184 15.5526C9.40813 15.4385 9.81035 15.6051 9.93212 15.8882C10.2766 16.6892 11.0728 17.25 12 17.25C12.9272 17.25 13.7234 16.6892 14.0679 15.8882C14.1897 15.6051 14.5918 15.4385 14.8781 15.5526C15.1572 15.6638 15.454 15.7169 15.75 15.712C16.0045 15.7078 16.2584 15.6606 16.5 15.5705M7.5 15.5705C7.20702 15.4613 6.93225 15.2888 6.6967 15.0533C6.04107 14.3977 5.87464 13.4381 6.1974 12.6282C6.31149 12.3419 6.14489 11.9397 5.86178 11.8179C5.06083 11.4734 4.5 10.6772 4.5 9.75C4.5 8.82281 5.06083 8.02661 5.86176 7.68212C6.14488 7.56035 6.31147 7.15815 6.19738 6.87185C5.87461 6.06191 6.04104 5.10233 6.69667 4.4467C7.3523 3.79108 8.31187 3.62464 9.12181 3.94741C9.40812 4.06151 9.81034 3.8949 9.93211 3.61178C10.2766 2.81083 11.0728 2.25 12 2.25C12.9272 2.25 13.7234 2.81083 14.0679 3.61177C14.1897 3.89489 14.5919 4.06149 14.8782 3.9474C15.6881 3.62464 16.6477 3.79107 17.3033 4.4467C17.9589 5.10232 18.1254 6.0619 17.8026 6.87183C17.6885 7.15813 17.8551 7.56035 18.1382 7.68212C18.9392 8.0266 19.5 8.82281 19.5 9.75C19.5 10.6772 18.9392 11.4734 18.1382 11.8179C17.8551 11.9397 17.6885 12.3419 17.8026 12.6282C18.1253 13.4381 17.9589 14.3977 17.3033 15.0533C17.0677 15.2888 16.793 15.4612 16.5 15.5705M7.5 15.5705V21.75L12 20.25L16.5 21.75V15.5705M12.1394 6.6475L12.9713 8.33308C12.9835 8.35784 13.0071 8.375 13.0344 8.37897L15.0275 8.66858C15.0963 8.67858 15.1238 8.76313 15.074 8.81166L13.6318 10.2175C13.612 10.2367 13.603 10.2645 13.6077 10.2917L13.9481 12.2768C13.9599 12.3453 13.888 12.3975 13.8264 12.3652L12.0438 11.428C12.0193 11.4151 11.9901 11.4151 11.9657 11.428L10.183 12.3652C10.1215 12.3975 10.0496 12.3453 10.0613 12.2768L10.4018 10.2917C10.4064 10.2645 10.3974 10.2367 10.3776 10.2175L8.93542 8.81166C8.88564 8.76313 8.91311 8.67858 8.98191 8.66858L10.975 8.37897C11.0023 8.375 11.0259 8.35784 11.0382 8.33308L11.8704 6.64747C11.9254 6.53601 12.0844 6.53602 12.1394 6.6475Z" stroke="black" stroke-width="1.5" stroke-linecap="round" stroke-linejoin="round"/>
</svg>
