<svg width="24" height="24" viewBox="0 0 24 24" fill="none" xmlns="http://www.w3.org/2000/svg">
<path d="M6.75 5.25H5.25C4.42157 5.25 3.75 5.92157 3.75 6.75V20.25C3.75 21.0784 4.42157 21.75 5.25 21.75H18.75C19.5784 21.75 20.25 21.0784 20.25 20.25V6.75C20.25 5.92157 19.5784 5.25 18.75 5.25H17.25M6.75 5.25L7.42082 3.90836C7.929 2.89201 8.96779 2.25 10.1041 2.25H13.8959C15.0322 2.25 16.071 2.89201 16.5792 3.90836L17.25 5.25M6.75 5.25H17.25M9.75 8.25H14.25V11.25H17.25V15.75H14.25V18.75H9.75V15.75H6.75V11.25H9.75V8.25Z" stroke="black" stroke-width="1.5" stroke-linecap="round" stroke-linejoin="round"/>
</svg>
