<svg width="24" height="24" viewBox="0 0 24 24" fill="none" xmlns="http://www.w3.org/2000/svg">
<path d="M11.25 15H15.2958C15.592 15 15.8815 15.0877 16.1279 15.2519L20.105 17.9033C20.1995 17.9664 20.3106 18 20.4243 18C20.7423 18 21 17.7423 21 17.4243V3.57569C21 3.25775 20.7423 3 20.4243 3C20.3106 3 20.1995 3.03364 20.105 3.09669L16.1279 5.74808C15.8815 5.91234 15.592 6 15.2958 6H6C4.34315 6 3 7.34315 3 9V12C3 13.6569 4.34315 15 6 15H7.5M11.25 15L12.3277 18.956C12.5561 19.7944 12.0267 20.6508 11.1746 20.8212L10.4161 20.9729C9.62548 21.131 8.85128 20.6358 8.66328 19.8517L7.5 15M11.25 15H7.5" stroke="black" stroke-width="1.5" stroke-linecap="round" stroke-linejoin="round"/>
</svg>
