<svg width="24" height="24" viewBox="0 0 24 24" fill="none" xmlns="http://www.w3.org/2000/svg">
<path d="M9 14.25H11.5458C11.842 14.25 12.1315 14.3377 12.3779 14.5019L16.355 17.1533C16.4495 17.2164 16.5606 17.25 16.6743 17.25C16.9923 17.25 17.25 16.9923 17.25 16.6743V4.32569C17.25 4.00775 16.9923 3.75 16.6743 3.75C16.5606 3.75 16.4495 3.78364 16.355 3.84669L12.3779 6.49808C12.1315 6.66234 11.842 6.75 11.5458 6.75H5.25C3.59315 6.75 2.25 8.09315 2.25 9.75V11.25C2.25 12.9069 3.59315 14.25 5.25 14.25M9 14.25L10.0777 18.206C10.3061 19.0444 9.77666 19.9008 8.92464 20.0712L8.16612 20.2229C7.37548 20.381 6.60128 19.8858 6.41328 19.1017L5.25 14.25M9 14.25H5.25M20.25 10.5H21.75M20.25 6.75L21.226 5.77412M20.25 14.25L21.226 15.226" stroke="black" stroke-width="1.5" stroke-linecap="round" stroke-linejoin="round"/>
</svg>
