<svg width="24" height="24" viewBox="0 0 24 24" fill="none" xmlns="http://www.w3.org/2000/svg">
<path d="M15.75 12.75V11.25M15.75 12.75C15.75 14.8211 14.0711 16.5 12 16.5C9.92893 16.5 8.25 15 8.25 12C8.25 9 9.92893 7.5 12 7.5C14.0711 7.5 15.75 9.17893 15.75 11.25M15.75 12.75V13.5C15.75 13.5 15.75 16.5 18.75 16.5C18.75 16.5 21.75 16.5 21.75 12C21.75 6.61522 17.3848 2.25 12 2.25C6.61522 2.25 2.25 6.61522 2.25 12C2.25 17.3848 6.61522 21.75 12 21.75C13.933 21.75 15.7345 21.1875 17.25 20.2173M15.75 11.25V7.5" stroke="black" stroke-width="1.5" stroke-linecap="round" stroke-linejoin="round"/>
</svg>
