<svg width="24" height="24" viewBox="0 0 24 24" fill="none" xmlns="http://www.w3.org/2000/svg">
<path d="M20.2501 20.25L16.5001 16.5M16.5001 19.5V16.5H19.5001M3.75006 3.75L7.50006 7.5M7.50006 4.5V7.5H4.50006M13.4091 6.09099C13.0019 5.68382 12.7501 5.12132 12.7501 4.5C12.7501 3.25736 13.7574 2.25 15.0001 2.25C16.2427 2.25 17.2501 3.25736 17.2501 4.5C17.2501 5.74264 16.2427 6.75 15.0001 6.75C14.3787 6.75 13.8162 6.49816 13.4091 6.09099ZM13.4091 6.09099L6.09099 13.409M17.9091 10.591C17.5019 10.1838 17.2501 9.62132 17.2501 9C17.2501 7.75736 18.2574 6.75 19.5001 6.75C20.7427 6.75 21.7501 7.75736 21.7501 9C21.7501 10.2426 20.7427 11.25 19.5001 11.25C18.8787 11.25 18.3162 10.9982 17.9091 10.591ZM17.9091 10.591L10.591 17.909M6.09099 13.409C6.49816 13.8162 6.75 14.3787 6.75 15C6.75 16.2426 5.74264 17.25 4.5 17.25C3.25736 17.25 2.25 16.2426 2.25 15C2.25 13.7574 3.25736 12.75 4.5 12.75C5.12132 12.75 5.68382 13.0018 6.09099 13.409ZM10.591 17.909C10.9982 18.3162 11.25 18.8787 11.25 19.5C11.25 20.7426 10.2426 21.75 9 21.75C7.75736 21.75 6.75 20.7426 6.75 19.5C6.75 18.2574 7.75736 17.25 9 17.25C9.62132 17.25 10.1838 17.5018 10.591 17.909Z" stroke="black" stroke-width="1.5" stroke-linecap="round" stroke-linejoin="round"/>
</svg>
