<svg width="24" height="24" viewBox="0 0 24 24" fill="none" xmlns="http://www.w3.org/2000/svg">
<path d="M15 3.75H9C5.27208 3.75 2.25 6.77208 2.25 10.5C2.25 13.0172 3.62786 15.2126 5.67051 16.3731C6.12183 16.6295 6.49283 17.0529 6.46811 17.5714C6.42155 18.5484 6.01478 19.4852 5.30933 20.1907C5.28744 20.2126 5.30304 20.2499 5.334 20.2495C7.41225 20.2263 9.37724 19.3423 10.7707 17.8266C11.0903 17.4791 11.5279 17.25 12 17.25H15C18.7279 17.25 21.75 14.2279 21.75 10.5C21.75 6.77208 18.7279 3.75 15 3.75Z" stroke="black" stroke-width="1.5" stroke-linecap="round" stroke-linejoin="round"/>
</svg>
