<svg width="24" height="24" viewBox="0 0 24 24" fill="none" xmlns="http://www.w3.org/2000/svg">
<path d="M21.5232 12.2413C21.6712 11.6858 21.75 11.1021 21.75 10.5C21.75 6.77208 18.7279 3.75 15 3.75H9C5.27208 3.75 2.25 6.77208 2.25 10.5C2.25 13.3142 3.97221 15.7262 6.42018 16.7395C6.62723 18.0016 6.21374 19.2863 5.30933 20.1907L5.25 20.25C7.61068 20.25 9.83359 19.1385 11.25 17.25M16.5 18V16.875C16.5 15.4253 17.6753 14.25 19.125 14.25C20.5747 14.25 21.75 15.4253 21.75 16.875V18M16.5 18H21.75M16.5 18C16.0858 18 15.75 18.3358 15.75 18.75V21C15.75 21.8284 16.4216 22.5 17.25 22.5H21C21.8284 22.5 22.5 21.8284 22.5 21V18.75C22.5 18.3358 22.1642 18 21.75 18" stroke="black" stroke-width="1.5" stroke-miterlimit="1.78829" stroke-linecap="round" stroke-linejoin="round"/>
</svg>
