<svg width="24" height="24" viewBox="0 0 24 24" fill="none" xmlns="http://www.w3.org/2000/svg">
<path d="M2.25 18.75C2.25 17.9216 2.92157 17.25 3.75 17.25C4.57843 17.25 5.25 17.9216 5.25 18.75C5.25 19.5784 4.57843 20.25 3.75 20.25C2.92157 20.25 2.25 19.5784 2.25 18.75Z" stroke="black" stroke-width="1.5" stroke-linecap="round" stroke-linejoin="round"/>
<path d="M15 3.75H9C5.27208 3.75 2.25 6.77208 2.25 10.5C2.25 12.5038 3.12313 14.3037 4.50968 15.5399C4.50327 15.6091 4.5 15.6792 4.5 15.75C4.5 16.9926 5.50736 18 6.75 18C7.42709 18 8.03433 17.7009 8.44681 17.2277C8.62925 17.2425 8.81375 17.25 9 17.25H15C18.7279 17.25 21.75 14.2279 21.75 10.5C21.75 6.77208 18.7279 3.75 15 3.75Z" stroke="black" stroke-width="1.5" stroke-linecap="round" stroke-linejoin="round"/>
</svg>
