<svg width="24" height="24" viewBox="0 0 24 24" fill="none" xmlns="http://www.w3.org/2000/svg">
<path d="M21.5232 12.2413C21.6712 11.6858 21.75 11.1021 21.75 10.5C21.75 6.77208 18.7279 3.75 15 3.75H9C5.27208 3.75 2.25 6.77208 2.25 10.5C2.25 13.3142 3.97221 15.7262 6.42018 16.7395C6.62723 18.0016 6.21374 19.2863 5.30933 20.1907L5.25 20.25C7.61068 20.25 9.83359 19.1385 11.25 17.25M18.3743 20.85C17.0074 20.85 15.8993 19.7419 15.8993 18.375C15.8993 17.0081 17.0074 15.9 18.3743 15.9M18.3743 20.85C19.7412 20.85 20.8493 19.7419 20.8493 18.375C20.8493 17.0081 19.7412 15.9 18.3743 15.9M18.3743 20.85V22.5M18.3743 15.9V14.25M22.5075 18.3668H20.8575M15.9075 18.3667H14.2575M21.3052 21.2862L20.1384 20.1195M16.6383 16.6193L15.4715 15.4525M15.4715 21.2979L16.6383 20.1312M20.1384 16.631L21.3052 15.4643" stroke="black" stroke-width="1.5" stroke-miterlimit="1.78829" stroke-linecap="round" stroke-linejoin="round"/>
</svg>
