<svg width="24" height="24" viewBox="0 0 24 24" fill="none" xmlns="http://www.w3.org/2000/svg">
<path d="M21.2386 8.87559C20.0908 10.4664 18.685 11.3852 17.3373 12.0198C14.2822 13.4584 13.086 13.2851 11.3035 15.2902C9.54359 17.27 9.26933 19.6482 9.5061 21.4281M3.23266 16.2708C4.46175 18.7892 6.74402 20.6995 9.5061 21.4281C10.3021 21.6381 11.138 21.75 12 21.75C13.1244 21.75 14.2044 21.5597 15.2094 21.2094C16.6109 20.7211 17.8668 19.9218 18.8943 18.8943C19.9218 17.8668 20.7211 16.6109 21.2094 15.2094C21.5597 14.2044 21.75 13.1244 21.75 12C21.75 10.9072 21.5702 9.85643 21.2386 8.87559C20.4254 6.46996 18.6988 4.48512 16.4717 3.33361C15.1323 2.64112 13.6118 2.25 12 2.25C6.61522 2.25 2.25 6.61522 2.25 12C2.25 13.5318 2.60322 14.981 3.23266 16.2708ZM16.4717 3.33361C16.2478 4.14424 15.9975 4.66746 15.774 5.0125C15.4375 5.53219 15.0481 5.83281 14.3663 6.15389C13.1407 6.73101 9.16017 7.6724 6.16416 11.0426C4.67931 12.713 3.75528 14.5025 3.23266 16.2708" stroke="black" stroke-width="1.5" stroke-linecap="round" stroke-linejoin="round"/>
</svg>
