<svg width="24" height="24" viewBox="0 0 24 24" fill="none" xmlns="http://www.w3.org/2000/svg">
<path d="M3.75 17.2501H8.25M8.25 17.2501H12.75M8.25 17.2501V20.2501C8.25 21.0785 8.92157 21.7501 9.75 21.7501H18.75C19.5784 21.7501 20.25 21.0785 20.25 20.2501V17.6581C20.25 13.8036 17.859 10.3535 14.25 9.00007M14.25 9.00007L12 13.5001L11.25 13.1251L10.875 13.8751L7.875 12.3751L8.25 11.6251L7.5 11.2501L11.3292 3.59172C11.6997 2.85075 12.6007 2.55041 13.3416 2.92089L15.1584 3.82925C15.8993 4.19974 16.1997 5.10075 15.8292 5.84171L14.25 9.00007Z" stroke="black" stroke-width="1.5" stroke-linecap="round" stroke-linejoin="round"/>
</svg>
