<svg width="24" height="24" viewBox="0 0 24 24" fill="none" xmlns="http://www.w3.org/2000/svg">
<path d="M18.75 11.25V12C18.75 12.6819 18.6489 13.3403 18.4608 13.9608M5.25 11.25V12C5.25 15.7279 8.27208 18.75 12 18.75M8.25 21.75H12M12 21.75H15.75M12 21.75V18.75M12 18.75C13.864 18.75 15.5515 17.9945 16.773 16.773M15.75 11.25V6C15.75 3.92893 14.0711 2.25 12 2.25C10.5788 2.25 9.34217 3.04065 8.7061 4.2061M2.25 2.25L8.25 8.25M8.25 8.25V12C8.25 14.0711 9.92893 15.75 12 15.75C13.0355 15.75 13.973 15.3303 14.6517 14.6517M8.25 8.25L14.6517 14.6517M14.6517 14.6517L16.773 16.773M16.773 16.773L21.75 21.75" stroke="black" stroke-width="1.5" stroke-linecap="round" stroke-linejoin="round"/>
</svg>
