<svg width="24" height="24" viewBox="0 0 24 24" fill="none" xmlns="http://www.w3.org/2000/svg">
<path d="M15.75 15V13.5M5.25 15V13.5M6.75 6C6.75 5.17157 7.42157 4.5 8.25 4.5H20.25C21.0784 4.5 21.75 5.17157 21.75 6V14.25M18.75 10.5V18C18.75 18.8284 18.0784 19.5 17.25 19.5H3.75C2.92157 19.5 2.25 18.8284 2.25 18V10.5C2.25 9.67157 2.92157 9 3.75 9H17.25C18.0784 9 18.75 9.67157 18.75 10.5ZM12.75 14.25C12.75 13.0074 11.7426 12 10.5 12C9.25736 12 8.25 13.0074 8.25 14.25C8.25 15.4926 9.25736 16.5 10.5 16.5C11.7426 16.5 12.75 15.4926 12.75 14.25Z" stroke="black" stroke-width="1.5" stroke-linecap="round" stroke-linejoin="round"/>
</svg>
