<svg width="24" height="24" viewBox="0 0 24 24" fill="none" xmlns="http://www.w3.org/2000/svg">
<path d="M15.5216 10.2525C15.2111 9.09079 14.5985 8.05251 13.773 7.22703M10.7475 5.47838C10.1901 5.32942 9.60433 5.25 9.00001 5.25C8.39568 5.25 7.80991 5.32942 7.25255 5.47838M2.47839 10.2525C2.7889 9.09079 3.40156 8.05251 4.22704 7.22703M2.47839 13.7475C2.7889 14.9092 3.40156 15.9475 4.22704 16.773M7.25255 18.5216C7.80991 18.6706 8.39568 18.75 9.00001 18.75C9.60433 18.75 10.1901 18.6706 10.7475 18.5216M13.773 16.773C14.5985 15.9475 15.2111 14.9092 15.5216 13.7475M21.75 12C21.75 8.27208 18.7279 5.25 15 5.25C11.2721 5.25 8.25001 8.27208 8.25001 12C8.25001 15.7279 11.2721 18.75 15 18.75C18.7279 18.75 21.75 15.7279 21.75 12Z" stroke="black" stroke-width="1.5" stroke-linecap="round" stroke-linejoin="round"/>
</svg>
