<svg width="24" height="24" viewBox="0 0 24 24" fill="none" xmlns="http://www.w3.org/2000/svg">
<path d="M2.25 10.5H5.25M5.25 10.5H8.07295C9.10076 10.5 10.0404 9.9193 10.5 9C10.9596 8.0807 11.8992 7.5 12.9271 7.5H13.1902C14.3103 7.5 15.3456 8.09683 15.9069 9.06617L16.9046 10.7891M5.25 10.5C6.90685 10.5 8.40685 11.1716 9.49264 12.2574M9.49264 12.2574C10.5784 13.3431 11.25 14.8431 11.25 16.5H12.75C12.75 13.8301 14.4938 11.5676 16.9046 10.7891C17.486 10.6014 18.1061 10.5 18.75 10.5C19.8429 10.5 20.8675 10.7922 21.75 11.3027V10.5C21.75 7.18629 19.0637 4.5 15.75 4.5M18.75 9V16.5M5.25 16.5L9.49264 12.2574M15.75 16.5C15.75 18.1569 17.0931 19.5 18.75 19.5C20.4069 19.5 21.75 18.1569 21.75 16.5C21.75 14.8431 20.4069 13.5 18.75 13.5C17.0931 13.5 15.75 14.8431 15.75 16.5ZM2.25 16.5C2.25 18.1569 3.59315 19.5 5.25 19.5C6.90685 19.5 8.25 18.1569 8.25 16.5C8.25 14.8431 6.90685 13.5 5.25 13.5C3.59315 13.5 2.25 14.8431 2.25 16.5Z" stroke="black" stroke-width="1.5" stroke-miterlimit="1.78829" stroke-linecap="round" stroke-linejoin="round"/>
</svg>
