<svg width="24" height="24" viewBox="0 0 24 24" fill="none" xmlns="http://www.w3.org/2000/svg">
<path d="M16.5 12H21.75M18.75 15L21.75 12L18.75 9M7.5 12H2.25M5.25 15L2.25 12L5.25 9M12 16.5V21.75M9 18.75L12 21.75L15 18.75M12 7.5V2.25M9 5.25L12 2.25L15 5.25M12.75 12C12.75 11.5858 12.4142 11.25 12 11.25C11.5858 11.25 11.25 11.5858 11.25 12C11.25 12.4142 11.5858 12.75 12 12.75C12.4142 12.75 12.75 12.4142 12.75 12Z" stroke="black" stroke-width="1.5" stroke-linecap="round" stroke-linejoin="round"/>
</svg>
