<svg width="24" height="24" viewBox="0 0 24 24" fill="none" xmlns="http://www.w3.org/2000/svg">
<path d="M21 15V17.25C21 18.4926 19.9926 19.5 18.75 19.5C17.5074 19.5 16.5 18.4926 16.5 17.25C16.5 16.0074 17.5074 15 18.75 15H21ZM21 15V6.75M7.5 16.5V18.75C7.5 19.9926 6.49264 21 5.25 21C4.00736 21 3 19.9926 3 18.75C3 17.5074 4.00736 16.5 5.25 16.5H7.5ZM7.5 16.5V8.25M7.5 8.25V4.5C11.9865 4.5 16.4596 4.00898 20.8393 3.03572L21 3V6.75M7.5 8.25C11.9865 8.25 16.4596 7.75898 20.8393 6.78572L21 6.75" stroke="black" stroke-width="1.5" stroke-linecap="round" stroke-linejoin="round"/>
</svg>
