<svg width="24" height="24" viewBox="0 0 24 24" fill="none" xmlns="http://www.w3.org/2000/svg">
<path d="M20.4328 9.99561C20.917 9.51823 21.291 8.93531 21.5224 8.28735C22.8124 4.67527 19.3247 1.18758 15.7126 2.47761C14.7644 2.81624 13.9555 3.46008 13.4128 4.3081L9.09683 11.0518L2.25 21.75L19.6919 10.5872C19.9604 10.4153 20.2084 10.2168 20.4328 9.99561ZM9.09683 11.0518C11.8287 10.8644 14.9389 9.12621 16.7441 7.30369M9.09683 11.0518C7.6131 11.1536 6.24094 10.7979 5.25 9.74976C2.25 6.5767 5.43197 2.84494 6.75 2.24975M16.7441 7.30369C16.5941 7.16656 16.5 6.96925 16.5 6.74997C16.5 6.33576 16.8358 5.99997 17.25 5.99997C17.6642 5.99997 18 6.33576 18 6.74997C18 6.88242 17.9657 7.00684 17.9054 7.11483C17.7773 7.34459 17.5318 7.49997 17.25 7.49997C17.0551 7.49997 16.8775 7.42561 16.7441 7.30369ZM17.9054 7.11483C17.6652 6.95477 17.4429 6.83386 17.25 6.74976C17.0959 6.93425 16.9267 7.11941 16.7441 7.30369M20.4328 9.99561C21.2079 11.422 21.7879 13.3418 21.7879 15.8358C21.7879 19.9217 20.0402 20.9297 18.3967 20.5785M18.3967 20.5785C16.1377 20.3908 14.4694 17.1967 16.6154 16.0708C18.7614 14.9448 20.4328 18.3969 18.3967 20.5785ZM18.3967 20.5785C17.4075 21.9442 15.2004 22.5297 11.2274 20.2611" stroke="black" stroke-width="1.5" stroke-linecap="round" stroke-linejoin="round"/>
</svg>
