<svg width="24" height="24" viewBox="0 0 24 24" fill="none" xmlns="http://www.w3.org/2000/svg">
<path d="M12 9H14.25C15.0784 9 15.75 8.32843 15.75 7.5V4.5C15.75 3.67157 15.0784 3 14.25 3H9.75C8.92157 3 8.25 3.67157 8.25 4.5V7.5C8.25 8.32843 8.92157 9 9.75 9H12ZM12 9V10.5M12 10.5C12 11.3284 12.6716 12 13.5 12H16.5C17.3284 12 18 12.6716 18 13.5V15M12 10.5C12 11.3284 11.3284 12 10.5 12H7.5C6.67157 12 6 12.6716 6 13.5V15M18 15H20.25C21.0784 15 21.75 15.6716 21.75 16.5V19.5C21.75 20.3284 21.0784 21 20.25 21H15.75C14.9216 21 14.25 20.3284 14.25 19.5V16.5C14.25 15.6716 14.9216 15 15.75 15H18ZM6 15H3.75C2.92157 15 2.25 15.6716 2.25 16.5V19.5C2.25 20.3284 2.92157 21 3.75 21H8.25C9.07843 21 9.75 20.3284 9.75 19.5V16.5C9.75 15.6716 9.07843 15 8.25 15H6Z" stroke="black" stroke-width="1.5" stroke-linecap="round" stroke-linejoin="round"/>
</svg>
