<svg width="24" height="24" viewBox="0 0 24 24" fill="none" xmlns="http://www.w3.org/2000/svg">
<path d="M18.75 6.75V5.25C18.75 4.42157 18.0784 3.75 17.25 3.75H3.75C2.92157 3.75 2.25 4.42157 2.25 5.25V18.75C2.25 19.5784 2.92157 20.25 3.75 20.25H20.25M18.75 6.75V18.75C18.75 19.5784 19.4216 20.25 20.25 20.25M18.75 6.75H20.25C21.0784 6.75 21.75 7.42157 21.75 8.25V18.75C21.75 19.5784 21.0784 20.25 20.25 20.25M13.5 7.5H15M13.5 10.5H14.25M6 7.5V12H10.5V7.5H6Z" stroke="black" stroke-width="1.5" stroke-linecap="round" stroke-linejoin="round"/>
</svg>
