<svg width="24" height="24" viewBox="0 0 24 24" fill="none" xmlns="http://www.w3.org/2000/svg">
<path d="M6.42965 7.90779L8.63979 9.23387M6.42965 7.90779C6.03616 8.56219 5.31921 9 4.5 9C3.25736 9 2.25 7.99264 2.25 6.75C2.25 5.50736 3.25736 4.5 4.5 4.5C5.74264 4.5 6.75 5.50736 6.75 6.75C6.75 7.17343 6.63303 7.56954 6.42965 7.90779ZM12.4928 11.5457C12.657 11.2332 12.75 10.8775 12.75 10.5C12.75 10.3992 12.7434 10.2999 12.7305 10.2026C12.6543 9.62526 12.3591 9.11695 11.9312 8.76379C11.8782 8.72002 11.8231 8.67863 11.7661 8.63979C11.4054 8.39381 10.9695 8.25 10.5 8.25C9.72687 8.25 9.04482 8.63994 8.63979 9.23387C8.39381 9.59456 8.25 10.0305 8.25 10.5C8.25 11.3543 8.72613 12.0974 9.42752 12.4784L9.45434 12.4928M12.4928 11.5457L17.5704 14.5922M12.4928 11.5457C12.1982 12.1059 11.6743 12.5267 11.0458 12.6833M17.5704 14.5922C17.367 14.9305 17.25 15.3266 17.25 15.75C17.25 16.9926 18.2574 18 19.5 18C20.7426 18 21.75 16.9926 21.75 15.75C21.75 14.5074 20.7426 13.5 19.5 13.5C18.6808 13.5 17.9638 13.9378 17.5704 14.5922ZM11.7661 8.63979L13.0922 6.42965M9.45434 12.4928C9.76675 12.657 10.1225 12.75 10.5 12.75C10.6882 12.75 10.8711 12.7269 11.0458 12.6833M9.45434 12.4928L6.40779 17.5704M13.0922 6.42965C12.4378 6.03616 12 5.31921 12 4.5C12 3.25736 13.0074 2.25 14.25 2.25C15.4926 2.25 16.5 3.25736 16.5 4.5C16.5 5.74264 15.4926 6.75 14.25 6.75C13.8266 6.75 13.4305 6.63303 13.0922 6.42965ZM6.40779 17.5704C6.06954 17.367 5.67343 17.25 5.25 17.25C4.00736 17.25 3 18.2574 3 19.5C3 20.7426 4.00736 21.75 5.25 21.75C6.49264 21.75 7.5 20.7426 7.5 19.5C7.5 18.6808 7.06219 17.9638 6.40779 17.5704ZM12.7305 10.2026L21.75 9M11.0458 12.6833L12 16.5" stroke="black" stroke-width="1.5" stroke-linecap="round" stroke-linejoin="round"/>
</svg>
