<svg width="24" height="24" viewBox="0 0 24 24" fill="none" xmlns="http://www.w3.org/2000/svg">
<path d="M5.25 18V20.25C5.25 21.0784 5.92157 21.75 6.75 21.75H15.75M5.25 18V12M5.25 18H3.75M5.25 18H7.5M5.25 12V6M5.25 12H3.75M5.25 12H7.5M5.25 6V3.75C5.25 2.92157 5.92157 2.25 6.75 2.25H15.75M5.25 6H3.75M5.25 6H7.5M15.75 2.25H18.75C19.5784 2.25 20.25 2.92157 20.25 3.75V7.5M15.75 2.25V7.5M15.75 21.75H18.75C19.5784 21.75 20.25 21.0784 20.25 20.25V18M15.75 21.75V18M15.75 18H20.25M15.75 18V12.75M20.25 18V12.75M15.75 12.75H20.25M15.75 12.75V7.5M20.25 12.75V7.5M15.75 7.5H20.25" stroke="black" stroke-width="1.5" stroke-linecap="round" stroke-linejoin="round"/>
</svg>
