<svg width="24" height="24" viewBox="0 0 24 24" fill="none" xmlns="http://www.w3.org/2000/svg">
<path d="M7.5 11.25H6.75C5.92157 11.25 5.25 11.9216 5.25 12.75V16.6287C5.25 17.0265 5.40804 17.408 5.68934 17.6893L9.31066 21.3107C9.59196 21.592 9.9735 21.75 10.3713 21.75H13.6287C14.0265 21.75 14.408 21.592 14.6893 21.3107L18.3107 17.6893C18.592 17.408 18.75 17.0265 18.75 16.6287V12.75C18.75 11.9216 18.0784 11.25 17.25 11.25H16.5M7.5 11.25V11.0625M7.5 11.25H16.5M7.5 11.0625V8.0625M7.5 11.0625L16.5 9.9375M7.5 8.0625V5.0625M7.5 8.0625L6 8.25M7.5 8.0625L16.5 6.9375M7.5 5.0625V3.75C7.5 2.92157 8.17157 2.25 9 2.25H15C15.8284 2.25 16.5 2.92157 16.5 3.75V3.9375M7.5 5.0625L6 5.25M7.5 5.0625L16.5 3.9375M16.5 11.25V9.9375M16.5 3.9375V6.9375M16.5 3.9375L18 3.75M16.5 6.9375V9.9375M16.5 6.9375L18 6.75M16.5 9.9375L18 9.75" stroke="black" stroke-width="1.5" stroke-linecap="round" stroke-linejoin="round"/>
</svg>
