<svg width="24" height="24" viewBox="0 0 24 24" fill="none" xmlns="http://www.w3.org/2000/svg">
<path d="M19.5 11.25H21.75M19.5 11.25V15.75M19.5 11.25H17.25M12.75 15.75V18.75C12.75 19.5784 13.4216 20.25 14.25 20.25H18C18.8284 20.25 19.5 19.5784 19.5 18.75V15.75M12.75 15.75V11.25M12.75 15.75H19.5M12.75 11.25H6.75M12.75 11.25H14.25M6.75 11.25V7.5M6.75 11.25H4.5M6.75 7.5H9.75V6C9.75 4.34315 8.40685 3 6.75 3C5.09315 3 3.75 4.34315 3.75 6V7.5H6.75ZM2.25 11.25H4.5M4.5 11.25V20.25M14.25 11.25V7.5H16.5M14.25 11.25H17.25M17.25 11.25V7.5H16.5M16.5 7.5V4.71876" stroke="black" stroke-width="1.5" stroke-linecap="round" stroke-linejoin="round"/>
</svg>
