<svg width="24" height="24" viewBox="0 0 24 24" fill="none" xmlns="http://www.w3.org/2000/svg">
<path d="M2.25 12C2.25 6.61522 6.61522 2.25 12 2.25M2.25 12C2.25 17.3848 6.61522 21.75 12 21.75C9.51472 21.75 7.5 17.3848 7.5 12M2.25 12H7.5M12 2.25C9.51472 2.25 7.5 6.61522 7.5 12M12 2.25C14.3953 2.25 16.3534 6.30473 16.4921 11.419V12H7.5M21.7297 12C21.7297 6.61522 17.3645 2.25 11.9797 2.25M15.75 22.5L19.125 19.125M19.125 19.125L22.5 15.75M19.125 19.125L22.5 22.5M19.125 19.125L15.75 15.75" stroke="black" stroke-width="1.5" stroke-miterlimit="1.78829" stroke-linecap="round" stroke-linejoin="round"/>
</svg>
