<svg width="24" height="24" viewBox="0 0 24 24" fill="none" xmlns="http://www.w3.org/2000/svg">
<path d="M6.91421 6.91446C4.11558 7.96186 2.24829 9.84776 2.24829 12.0002C2.24829 14.1526 4.11558 16.0385 6.91421 17.0859M6.91421 6.91446C8.39495 6.36029 10.1364 6.04084 11.9999 6.04084C13.8635 6.04084 15.6049 6.36029 17.0857 6.91446M6.91421 6.91446C6.36004 8.39519 6.0406 10.1366 6.0406 12.0002L7.49994 10.5M6.91421 6.91446C7.96162 4.11583 9.84752 2.24854 11.9999 2.24854C14.1524 2.24854 16.0383 4.11583 17.0857 6.91446M17.0857 6.91446C19.8843 7.96186 21.7516 9.84776 21.7516 12.0002C21.7516 14.1526 19.8843 16.0385 17.0857 17.0859M6.91421 17.0859C7.96162 19.8845 9.84752 21.7518 11.9999 21.7518C14.1524 21.7518 16.0383 19.8845 17.0857 17.0859C17.6398 15.6052 17.9593 13.8637 17.9593 12.0002C17.9593 10.1366 17.6398 8.39519 17.0857 6.91446M6.91421 17.0859C7.80315 17.4186 8.78604 17.6667 9.83291 17.8119C10.5298 17.9085 11.2551 18 11.9999 18L10.4999 16.5M11.9999 12V12.75H10.4999V11.25H11.9999V12ZM11.9999 12L13.4999 11.25V12.75L11.9999 12Z" stroke="black" stroke-width="1.5" stroke-linecap="round" stroke-linejoin="round"/>
</svg>
