<svg width="24" height="24" viewBox="0 0 24 24" fill="none" xmlns="http://www.w3.org/2000/svg">
<path d="M19.5 21L18.6562 18.75M18.6562 18.75H13.5937M18.6562 18.75H21M18.6562 18.75L17.5312 15.75M13.5937 18.75L12.75 21M13.5937 18.75H11.25M13.5937 18.75L14.7187 15.75M5.99997 21V18.75M5.99997 18.75C4.07551 18.75 2.64598 16.9679 3.06345 15.0893L5.08727 5.98214C5.18233 5.55436 5.56175 5.25 5.99997 5.25C6.43818 5.25 6.8176 5.55436 6.91266 5.98214L8.93648 15.0893C9.35395 16.9679 7.92442 18.75 5.99997 18.75ZM18 10.5V12M12.75 5.25H11.25M14.25 9L13.3004 9.94959M14.7187 15.75H17.5312M14.7187 15.75H13.5M17.5312 15.75H18.75M15.75 5.25C15.75 4.00736 16.7573 3 18 3C19.2426 3 20.25 4.00736 20.25 5.25C20.25 6.49264 19.2426 7.5 18 7.5C16.7573 7.5 15.75 6.49264 15.75 5.25Z" stroke="black" stroke-width="1.5" stroke-linecap="round" stroke-linejoin="round"/>
</svg>
