<svg width="24" height="24" viewBox="0 0 24 24" fill="none" xmlns="http://www.w3.org/2000/svg">
<path d="M12.7501 10.5L5.25012 3M20.25 12L12.6214 19.6287C11.4498 20.8003 9.55029 20.8003 8.37871 19.6287L3.62136 14.8713C2.44978 13.6997 2.44978 11.8003 3.62135 10.6287L11.25 3L20.25 12ZM20.25 15.75L18.5961 19.0579C18.2401 19.7698 18.3797 20.6296 18.9425 21.1924C19.6646 21.9146 20.8355 21.9146 21.5576 21.1924C22.1204 20.6296 22.2599 19.7698 21.904 19.0579L20.25 15.75ZM13.5001 10.5C13.5001 10.0858 13.1643 9.75 12.7501 9.75C12.3359 9.75 12.0001 10.0858 12.0001 10.5C12.0001 10.9142 12.3359 11.25 12.7501 11.25C13.1643 11.25 13.5001 10.9142 13.5001 10.5Z" stroke="black" stroke-width="1.5" stroke-linecap="round" stroke-linejoin="round"/>
</svg>
