<svg width="24" height="24" viewBox="0 0 24 24" fill="none" xmlns="http://www.w3.org/2000/svg">
<path d="M6 10.5V2.25H9.75M6 10.5V12.75C6 13.5784 6.67157 14.25 7.5 14.25H9C9.82843 14.25 10.5 14.9216 10.5 15.75V20.25C10.5 21.0784 11.1716 21.75 12 21.75C12.8284 21.75 13.5 21.0784 13.5 20.25V15.75C13.5 14.9216 14.1716 14.25 15 14.25H16.5C17.3284 14.25 18 13.5784 18 12.75V10.5M6 10.5H18M18 10.5V2.25H14.25M9.75 2.25V5.25M9.75 2.25H14.25M14.25 2.25V5.25" stroke="black" stroke-width="1.5" stroke-linecap="round" stroke-linejoin="round"/>
</svg>
