<svg width="24" height="24" viewBox="0 0 24 24" fill="none" xmlns="http://www.w3.org/2000/svg">
<path d="M11.25 12.75H12C12.8284 12.75 13.5 13.4216 13.5 14.25V20.25C13.5 21.0784 12.8284 21.75 12 21.75H10.5C9.67157 21.75 9 21.0784 9 20.25V14.25C9 13.4216 9.67157 12.75 10.5 12.75H11.25ZM11.25 12.75V11.25C11.25 10.4216 11.9216 9.75 12.75 9.75H18C18.8284 9.75 19.5 9.07843 19.5 8.25V6C19.5 5.17157 18.8284 4.5 18 4.5H17.25M17.25 4.5V5.25C17.25 6.07843 16.5784 6.75 15.75 6.75H6.75C5.92157 6.75 5.25 6.07843 5.25 5.25V3.75C5.25 2.92157 5.92157 2.25 6.75 2.25H15.75C16.5784 2.25 17.25 2.92157 17.25 3.75V4.5Z" stroke="black" stroke-width="1.5" stroke-linecap="round" stroke-linejoin="round"/>
</svg>
