<svg width="24" height="24" viewBox="0 0 24 24" fill="none" xmlns="http://www.w3.org/2000/svg">
<path d="M4.5 10.5164C3.14688 11.3827 2.25 12.8991 2.25 14.625C2.25 17.3174 4.43261 19.5 7.125 19.5H11.625C14.3174 19.5 16.5 17.3174 16.5 14.625C16.5 13.9606 16.3671 13.3272 16.1264 12.75C15.3917 10.9883 13.653 9.75 11.625 9.75H11.25M12.75 14.25H12.375C10.347 14.25 8.60829 13.0117 7.87362 11.25C7.63292 10.6728 7.5 10.0394 7.5 9.375C7.5 6.68261 9.68261 4.5 12.375 4.5H16.875C19.5674 4.5 21.75 6.68261 21.75 9.375C21.75 11.1009 20.8531 12.6173 19.5 13.4836" stroke="black" stroke-width="1.5" stroke-miterlimit="1.78829" stroke-linecap="round" stroke-linejoin="round"/>
</svg>
