<svg width="24" height="24" viewBox="0 0 24 24" fill="none" xmlns="http://www.w3.org/2000/svg">
<path d="M8.9004 17.3498L5.5608 20.6894C4.97501 21.2752 4.02526 21.2752 3.43948 20.6894L3.3108 20.5608C2.72501 19.975 2.72501 19.0252 3.3108 18.4394L6.65036 15.0999M6.65036 15.0999C5.76607 13.7857 5.25 12.2031 5.25 10.5C5.25 5.94365 8.94365 2.25 13.5 2.25C18.0563 2.25 21.75 5.94365 21.75 10.5C21.75 15.0564 18.0563 18.75 13.5 18.75C11.797 18.75 10.2145 18.234 8.9004 17.3498C8.01279 16.7526 7.24759 15.9875 6.65036 15.0999Z" stroke="black" stroke-width="1.5" stroke-linecap="round" stroke-linejoin="round"/>
</svg>
