<svg width="24" height="24" viewBox="0 0 24 24" fill="none" xmlns="http://www.w3.org/2000/svg">
<path d="M16.4771 16.4771L12.8594 20.0636C10.5776 22.3256 6.89647 22.3176 4.62451 20.0456C2.33967 17.7608 2.34642 14.0543 4.63955 11.7778L8.22164 8.22164M21.75 21.75L16.4771 16.4771L14.2168 14.2168M18.7369 14.2369L21.75 11.25M10.4798 5.97983L12.9941 3.48375C14.6522 1.8377 17.3292 1.84257 18.9813 3.49464C20.6426 5.15596 20.6369 7.85125 18.9685 9.50548L16.4764 11.9764M8.22164 8.22164L2.25 2.25M8.22164 8.22164L10.4745 10.4745M14.2168 14.2168L10.6067 17.7964C9.57059 18.8237 7.89901 18.8201 6.86733 17.7885C5.82839 16.7495 5.83316 15.0636 6.87797 14.0306L10.4745 10.4745M14.2168 14.2168L10.4745 10.4745M12.7373 8.23726L15 6" stroke="black" stroke-width="1.5" stroke-linecap="round" stroke-linejoin="round"/>
</svg>
