<svg width="24" height="24" viewBox="0 0 24 24" fill="none" xmlns="http://www.w3.org/2000/svg">
<path d="M6 18V9M6 18C6.82843 18 7.5 18.6716 7.5 19.5C7.5 20.3284 6.82843 21 6 21C5.17157 21 4.5 20.3284 4.5 19.5C4.5 18.6716 5.17157 18 6 18ZM6 9C4.34315 9 3 7.65685 3 6C3 4.34315 4.34315 3 6 3C7.65685 3 9 4.34315 9 6M6 9C6.82843 9 7.57843 8.66421 8.12132 8.12132M9 6H18M9 6C9 6.82843 8.66421 7.57843 8.12132 8.12132M18 6C18 6.82843 18.6716 7.5 19.5 7.5C20.3284 7.5 21 6.82843 21 6C21 5.17157 20.3284 4.5 19.5 4.5C18.6716 4.5 18 5.17157 18 6ZM15.8787 15.8787C15.3358 16.4216 15 17.1716 15 18C15 19.6569 16.3431 21 18 21C19.6569 21 21 19.6569 21 18C21 16.3431 19.6569 15 18 15C17.1716 15 16.4216 15.3358 15.8787 15.8787ZM15.8787 15.8787L8.12132 8.12132" stroke="black" stroke-width="1.5" stroke-linecap="round" stroke-linejoin="round"/>
</svg>
