<svg width="24" height="24" viewBox="0 0 24 24" fill="none" xmlns="http://www.w3.org/2000/svg">
<path d="M7.5 5.25018C7.5 4.42175 8.17157 3.75018 9 3.75018L12 3.75009M19.5 16.5L20.25 16.5002C21.0784 16.5002 21.75 15.8286 21.75 15.0002V5.25C21.75 4.42157 21.0784 3.75 20.25 3.75H18M12 3.75009C12 4.57847 12.6715 5.25 13.4999 5.25H16.5C17.3284 5.25 18 4.57843 18 3.75M12 3.75009C12 2.92166 12.6716 2.25 13.5 2.25H16.5C17.3284 2.25 18 2.92157 18 3.75M2.25 9.75029V20.2503C2.25 21.0787 2.92157 21.7503 3.75 21.7503H15C15.8284 21.7503 16.5 21.0787 16.5 20.2503V14.8714C16.5 14.4736 16.342 14.0921 16.0607 13.8108L10.9394 8.68945C10.658 8.40813 10.2765 8.2501 9.87865 8.25011L3.75 8.25029C2.92157 8.25029 2.25 8.92186 2.25 9.75029Z" stroke="black" stroke-width="1.5" stroke-linecap="round" stroke-linejoin="round"/>
</svg>
