<svg width="24" height="24" viewBox="0 0 24 24" fill="none" xmlns="http://www.w3.org/2000/svg">
<path d="M10.9226 20.5773V18.807C10.9226 18.092 10.4179 17.4764 9.71679 17.3361L8.1532 17.0234C7.55941 16.9047 7.09526 16.4405 6.9765 15.8467L6.66378 14.2831C6.52356 13.582 5.90793 13.0773 5.19291 13.0773H3.42262M12 4.49994L3.42262 13.0773L2.79762 16.8273L2.26786 20.0059C2.09865 21.0211 2.97881 21.9013 3.99405 21.7321L7.17262 21.2023L10.9226 20.5773L19.5 11.9999L21.3141 10.1854C21.8999 9.59965 21.8999 8.6499 21.3141 8.06412L15.9354 2.68543C15.3496 2.09965 14.3999 2.09965 13.8141 2.68543L12 4.49994ZM12 4.49994L19.5 11.9999M7.17262 21.2023L2.79762 16.8273" stroke="black" stroke-width="1.5" stroke-linecap="round" stroke-linejoin="round"/>
</svg>
