<svg width="24" height="24" viewBox="0 0 24 24" fill="none" xmlns="http://www.w3.org/2000/svg">
<path d="M12 3.75C12.4142 3.75 12.75 3.41421 12.75 3C12.75 2.58579 12.4142 2.25 12 2.25C11.5858 2.25 11.25 2.58579 11.25 3C11.25 3.41421 11.5858 3.75 12 3.75ZM12 3.75C13.8603 3.75 15.4042 5.10461 15.6992 6.88125C15.7643 7.27371 15.5919 7.65804 15.3106 7.93934L15 8.25M12 3.75C10.1397 3.75 8.59575 5.10461 8.30078 6.88125C8.23562 7.27371 8.40801 7.65804 8.68931 7.93934L8.99997 8.25M15 8.25H8.99997M15 8.25C15.9736 11.171 15.9736 14.329 15 17.25M8.99997 8.25C8.02631 11.171 8.02631 14.329 8.99997 17.25M8.99997 17.25H15M8.99997 17.25C7.75733 18.4926 7.75733 20.5074 8.99997 21.75H15C16.2426 20.5074 16.2426 18.4926 15 17.25" stroke="black" stroke-width="1.5" stroke-linecap="round" stroke-linejoin="round"/>
</svg>
