<svg width="24" height="24" viewBox="0 0 24 24" fill="none" xmlns="http://www.w3.org/2000/svg">
<path d="M20.25 21.75H15.75M15.75 21.75H11.25M15.75 21.75V6C15.75 3.92893 14.0501 2.25 11.979 2.25C9.931 2.25 8.25 3.91022 8.25 5.9582M8.25 5.9582C8.88026 5.9582 9.51052 5.86945 10.1215 5.69193C10.6569 5.53638 11.25 5.90599 11.25 6.46353V10.3229C11.25 10.8911 10.9331 11.4245 10.3948 11.6062C9.6994 11.8409 8.9747 11.9582 8.25 11.9582M8.25 5.9582C7.61974 5.9582 6.98948 5.86945 6.3785 5.69193C5.8431 5.53638 5.25 5.90599 5.25 6.46353V10.3229C5.25 10.8911 5.56687 11.4245 6.1052 11.6062C6.8006 11.8409 7.5253 11.9582 8.25 11.9582M8.25 11.9582C8.25 14.25 9 15.75 6.75 17.25" stroke="black" stroke-width="1.5" stroke-linecap="round" stroke-linejoin="round"/>
</svg>
