<svg width="24" height="24" viewBox="0 0 24 24" fill="none" xmlns="http://www.w3.org/2000/svg">
<path d="M9.74998 4.5H5.79176C5.04927 4.5 4.4185 5.04321 4.30836 5.77749L3.82498 9L3.03748 14.25L2.50836 17.7775C2.37232 18.6844 3.07471 19.5 3.99176 19.5H8.99998M8.99998 19.5L9.26248 14.25M8.99998 19.5H15M9.74998 4.5L9.52498 9M9.74998 4.5H14.25M9.26248 14.25L9.52498 9M9.26248 14.25H3.03748M9.26248 14.25H14.7375M9.52498 9H3.82498M9.52498 9H14.475M14.25 4.5H18.2082C18.9507 4.5 19.5815 5.04321 19.6916 5.77749L20.175 9M14.25 4.5L14.475 9M20.175 9L20.9625 14.25L21.4916 17.7775C21.6276 18.6844 20.9253 19.5 20.0082 19.5H15M15 19.5L14.7375 14.25M14.475 9L14.7375 14.25M14.475 9H20.175M14.7375 14.25H20.9625" stroke="black" stroke-width="1.5" stroke-linecap="round" stroke-linejoin="round"/>
</svg>
