<svg width="24" height="24" viewBox="0 0 24 24" fill="none" xmlns="http://www.w3.org/2000/svg">
<path d="M9.10351 5.56012C9.4569 6.04716 9.40199 6.71606 8.97381 7.14015L8.1129 7.99284C8.02848 8.07645 8.01402 8.20693 8.07812 8.30669C10.0205 11.3299 12.6093 13.894 15.6617 15.8178C15.7624 15.8813 15.8941 15.867 15.9786 15.7834L16.8372 14.933C17.2664 14.5079 17.9437 14.4544 18.4355 14.8067L21.261 16.831C21.7124 17.1544 21.8882 17.7369 21.6308 18.2264C21.3108 18.8349 20.7974 19.6671 20.0945 20.3633C18.8151 21.6305 16.9196 22.1443 15.2662 21.4167C9.96113 19.082 5.56639 14.7034 2.67857 8.87191C1.82331 7.14484 2.29622 5.09781 3.66954 3.73761C4.4347 2.97975 5.24944 2.55077 5.82098 2.31945C6.26925 2.13803 6.75726 2.32657 7.03986 2.71605L9.10351 5.56012Z" stroke="black" stroke-width="1.5" stroke-linecap="round" stroke-linejoin="round"/>
</svg>
