<svg width="24" height="24" viewBox="0 0 24 24" fill="none" xmlns="http://www.w3.org/2000/svg">
<path d="M15.75 12C15.75 9.92893 14.0711 8.25 12 8.25M18.75 12C18.75 8.27208 15.7279 5.25 12 5.25M12 2.25C17.3848 2.25 21.75 6.61522 21.75 12M2.67857 8.87191C5.56639 14.7034 9.96113 19.082 15.2662 21.4167C16.9196 22.1443 18.8151 21.6305 20.0945 20.3633C20.7974 19.6671 21.3108 18.8349 21.6308 18.2264C21.8882 17.7369 21.7124 17.1544 21.261 16.831L18.4355 14.8067C17.9437 14.4544 17.2664 14.5079 16.8372 14.933L15.9786 15.7834C15.8941 15.867 15.7624 15.8813 15.6617 15.8178C12.6093 13.894 10.0205 11.3299 8.07812 8.30669C8.01402 8.20693 8.02848 8.07645 8.1129 7.99284L8.97381 7.14015C9.40199 6.71606 9.4569 6.04716 9.10351 5.56012L7.03986 2.71605C6.75726 2.32657 6.26925 2.13803 5.82098 2.31945C5.24944 2.55077 4.4347 2.97975 3.66954 3.73761C2.29622 5.09781 1.82331 7.14484 2.67857 8.87191Z" stroke="black" stroke-width="1.5" stroke-linecap="round" stroke-linejoin="round"/>
</svg>
