<svg width="24" height="24" viewBox="0 0 24 24" fill="none" xmlns="http://www.w3.org/2000/svg">
<path d="M9.75 18.75H14.25M20.25 17.25V17.0303C20.25 16.6908 20.3849 16.3651 20.625 16.125L20.7348 16.0152C20.9046 15.8454 21 15.6151 21 15.375C21 15.1349 20.9046 14.9046 20.7348 14.7348L20.5152 14.5152C20.3454 14.3454 20.25 14.1151 20.25 13.875C20.25 13.6349 20.3454 13.4046 20.5152 13.2348L20.7348 13.0152C20.9046 12.8454 21 12.6151 21 12.375C21 12.1349 20.9046 11.9046 20.7348 11.7348L20.5152 11.5152C20.3454 11.3454 20.25 11.1151 20.25 10.875C20.25 10.6349 20.3454 10.4046 20.5152 10.2348L20.7348 10.0152C20.9046 9.84538 21 9.61511 21 9.375C21 9.13489 20.9046 8.90462 20.7348 8.73484L20.5152 8.51517C20.3454 8.34538 20.25 8.11511 20.25 7.875C20.25 7.63489 20.3454 7.40462 20.5152 7.23484L21 6.75M3 17.25V17.0303C3 16.6908 3.13489 16.3651 3.375 16.125L3.48483 16.0152C3.65462 15.8454 3.75 15.6151 3.75 15.375C3.75 15.1349 3.65462 14.9046 3.48484 14.7348L3.26517 14.5152C3.09538 14.3454 3 14.1151 3 13.875C3 13.6349 3.09538 13.4046 3.26516 13.2348L3.48483 13.0152C3.65462 12.8454 3.75 12.6151 3.75 12.375C3.75 12.1349 3.65462 11.9046 3.48484 11.7348L3.26517 11.5152C3.09538 11.3454 3 11.1151 3 10.875C3 10.6349 3.09538 10.4046 3.26516 10.2348L3.48483 10.0152C3.65462 9.84538 3.75 9.61511 3.75 9.375C3.75 9.13489 3.65462 8.90462 3.48484 8.73484L3.26517 8.51517C3.09538 8.34538 3 8.11511 3 7.875C3 7.63489 3.09538 7.40462 3.26516 7.23484L3.75 6.75M6.75 5.25V18.75C6.75 20.4069 8.09315 21.75 9.75 21.75H14.25C15.9069 21.75 17.25 20.4069 17.25 18.75V5.25C17.25 3.59315 15.9069 2.25 14.25 2.25H9.75C8.09315 2.25 6.75 3.59315 6.75 5.25Z" stroke="black" stroke-width="1.5" stroke-linecap="round" stroke-linejoin="round"/>
</svg>
