<svg width="24" height="24" viewBox="0 0 24 24" fill="none" xmlns="http://www.w3.org/2000/svg">
<path d="M9.37051 10.1295C8.91292 9.54278 8.48158 8.93464 8.07812 8.30669C8.01402 8.20693 8.02848 8.07645 8.1129 7.99284L8.97381 7.14015C9.40199 6.71606 9.4569 6.04716 9.10351 5.56012L7.03986 2.71605C6.75726 2.32657 6.26925 2.13803 5.82098 2.31945C5.24944 2.55077 4.4347 2.97975 3.66954 3.73761C2.29622 5.09782 1.82331 7.14484 2.67857 8.87191C3.55824 10.6483 4.57773 12.2898 5.72019 13.7798M11.4898 12.5102C12.7519 13.7551 14.1499 14.865 15.6617 15.8178C15.7624 15.8813 15.8941 15.867 15.9786 15.7834L16.8372 14.933C17.2664 14.5079 17.9437 14.4544 18.4355 14.8067L21.261 16.831C21.7124 17.1544 21.8882 17.7369 21.6308 18.2264C21.3108 18.8349 20.7974 19.6671 20.0945 20.3633C18.8151 21.6305 16.9196 22.1443 15.2662 21.4167C12.505 20.2015 9.99042 18.4327 7.80657 16.1934M7.80657 16.1934L11.4898 12.5102L21.75 2.25M7.80657 16.1934L2.25 21.75" stroke="black" stroke-width="1.5" stroke-linecap="round" stroke-linejoin="round"/>
</svg>
