<svg width="24" height="24" viewBox="0 0 24 24" fill="none" xmlns="http://www.w3.org/2000/svg">
<path d="M21.75 12C21.75 17.3848 17.3848 21.75 12 21.75C6.61522 21.75 2.25 17.3848 2.25 12C2.25 6.61522 6.61522 2.25 12 2.25C13.8775 2.25 15.6311 2.78068 17.1188 3.70022M17.1188 3.70022C16.7353 4.10373 16.5 4.64938 16.5 5.25C16.5 6.49264 17.5074 7.5 18.75 7.5C19.3506 7.5 19.8963 7.26465 20.2998 6.88115C20.7311 6.47123 21 5.89202 21 5.25C21 4.00736 19.9926 3 18.75 3C18.108 3 17.5288 3.2689 17.1188 3.70022ZM12 15.75C9.92893 15.75 8.25 14.0711 8.25 12C8.25 9.92893 9.92893 8.25 12 8.25C14.0711 8.25 15.75 9.92893 15.75 12C15.75 14.0711 14.0711 15.75 12 15.75Z" stroke="black" stroke-width="1.5" stroke-linecap="round" stroke-linejoin="round"/>
</svg>
