<svg width="24" height="24" viewBox="0 0 24 24" fill="none" xmlns="http://www.w3.org/2000/svg">
<path d="M5.24999 12.375C5.24999 17.25 7.49999 18 7.49999 18V18.75C7.49999 19.5784 8.17156 20.25 8.99999 20.25H9.74999C10.5784 20.25 11.25 19.5784 11.25 18.75H14.25C14.25 19.5784 14.9216 20.25 15.75 20.25H16.5C17.3284 20.25 18 19.5784 18 18.75V18C18 18 20.25 18 20.25 15.75C21.0784 15.75 21.75 15.0784 21.75 14.25V12C21.75 11.1716 21.0784 10.5 20.25 10.5C20.25 7.50822 17.9999 6.65744 17.9999 6.65744V3.75L17.6234 3.84414C16.5062 4.12342 15.4846 4.67162 14.6415 5.43009C14.137 5.31531 13.2409 5.23979 12.75 5.23979C11.7676 5.23979 11.48 5.25248 10.5 5.43009C10.253 5.47487 10.0018 5.53974 9.74999 5.62451C7.52743 6.37257 5.24994 8.66985 5.24999 12.375ZM5.24999 12.375C3.56687 12.8842 1.94859 11.4149 2.29346 9.69057L2.43157 9M10.5 8.57693C11.9623 7.87271 14.25 8.36313 14.25 8.36313" stroke="black" stroke-width="1.5" stroke-linecap="round" stroke-linejoin="round"/>
</svg>
