<svg width="24" height="24" viewBox="0 0 24 24" fill="none" xmlns="http://www.w3.org/2000/svg">
<path d="M17.2037 11.2966L18.3107 10.1896C18.592 9.9083 18.9735 9.75026 19.3713 9.75026H19.6287C20.0265 9.75026 20.408 9.59223 20.6893 9.31092C21.2751 8.72514 21.2751 7.77539 20.6893 7.1896L16.8107 3.31092C16.2249 2.72514 15.2751 2.72514 14.6893 3.31092C14.408 3.59223 14.25 3.97376 14.25 4.37158V4.62894C14.25 5.02677 14.092 5.4083 13.8107 5.6896L10.8107 8.6896C10.2249 9.27539 9.27117 9.22847 8.48304 8.97323C7.38184 8.61659 6.12466 8.8756 5.25 9.75026L3.75 11.2501L8.25 15.7503M11.2965 18.7967L8.25 15.7503M8.25 15.7503L3 21.0003M14.25 18.7501L17.1439 21.6441C17.2025 21.7026 17.2975 21.7026 17.3561 21.6441L22.2656 16.7345" stroke="black" stroke-width="1.5" stroke-miterlimit="1.78829" stroke-linecap="round" stroke-linejoin="round"/>
</svg>
