<svg width="24" height="24" viewBox="0 0 24 24" fill="none" xmlns="http://www.w3.org/2000/svg">
<path d="M16.5001 12.0001L18.3107 10.1895C18.592 9.90817 18.9735 9.75014 19.3713 9.75014H19.6287C20.0265 9.75014 20.408 9.5921 20.6893 9.3108C21.2751 8.72501 21.2751 7.77527 20.6893 7.18948L16.8107 3.3108C16.2249 2.72501 15.2751 2.72501 14.6893 3.3108C14.408 3.5921 14.25 3.97364 14.25 4.37146V4.62882C14.25 5.02664 14.092 5.40817 13.8107 5.68948L12.0001 7.50007M8.25 15.7501L12.75 20.25L14.25 18.7501C15.1247 17.8755 15.3837 16.6183 15.027 15.5171C14.9606 15.312 14.9083 15.0957 14.8776 14.8776M8.25 15.7501L3.75 11.25L5.25 9.75014C6.12466 8.87548 7.38184 8.61647 8.48304 8.97311C8.68814 9.03953 8.90445 9.09184 9.12257 9.12257M8.25 15.7501L3 21.0001M9.12257 9.12257L2.25 2.25M9.12257 9.12257L14.8776 14.8776M14.8776 14.8776L21.75 21.75" stroke="black" stroke-width="1.5" stroke-linecap="round" stroke-linejoin="round"/>
</svg>
