<svg width="24" height="24" viewBox="0 0 24 24" fill="none" xmlns="http://www.w3.org/2000/svg">
<path d="M8.25 15.75L12.75 20.2499L14.25 18.75C15.1247 17.8754 15.3837 16.6182 15.027 15.517C14.7718 14.7288 14.7249 13.7751 15.3107 13.1894L18.3107 10.1894C18.592 9.90805 18.9735 9.75002 19.3713 9.75002H19.6287C20.0265 9.75002 20.408 9.59198 20.6893 9.31068C21.2751 8.72489 21.2751 7.77515 20.6893 7.18936L16.8107 3.31068C16.2249 2.72489 15.2751 2.72489 14.6893 3.31068C14.408 3.59198 14.25 3.97351 14.25 4.37134V4.6287C14.25 5.02652 14.092 5.40805 13.8107 5.68936L10.8107 8.68936C10.2249 9.27514 9.27117 9.22823 8.48304 8.97298C7.38184 8.61635 6.12466 8.87536 5.25 9.75002L3.75 11.2499L8.25 15.75ZM8.25 15.75L3 21" stroke="black" stroke-width="1.5" stroke-linecap="round" stroke-linejoin="round"/>
</svg>
