<svg width="24" height="24" viewBox="0 0 24 24" fill="none" xmlns="http://www.w3.org/2000/svg">
<path d="M17.2499 6H14.9999C13.343 6 11.9999 7.34315 11.9999 9V15C11.9999 16.6569 10.6567 18 8.99988 18H6.74988M17.2499 6C17.2499 4.75736 18.2572 3.75 19.4999 3.75C20.7425 3.75 21.7499 4.75736 21.7499 6C21.7499 7.24264 20.7425 8.25 19.4999 8.25C18.2572 8.25 17.2499 7.24264 17.2499 6ZM6.74988 18C6.74988 19.2426 5.74252 20.25 4.49988 20.25C3.25724 20.25 2.24988 19.2426 2.24988 18C2.24988 16.7574 3.25724 15.75 4.49988 15.75C5.74252 15.75 6.74988 16.7574 6.74988 18Z" stroke="black" stroke-width="1.5" stroke-linecap="round" stroke-linejoin="round"/>
</svg>
