<svg width="24" height="24" viewBox="0 0 24 24" fill="none" xmlns="http://www.w3.org/2000/svg">
<path d="M6.91421 6.91421C4.11558 7.96162 2.24829 9.84752 2.24829 11.9999C2.24829 14.1524 4.11558 16.0383 6.91421 17.0857M6.91421 6.91421C8.39495 6.36004 10.1364 6.0406 11.9999 6.0406C13.8635 6.0406 15.6049 6.36004 17.0857 6.91421M6.91421 6.91421C6.36004 8.39495 6.0406 10.1364 6.0406 11.9999L8.24994 10.4998M6.91421 6.91421C7.96162 4.11558 9.84752 2.24829 11.9999 2.24829C14.1524 2.24829 16.0383 4.11558 17.0857 6.91421M17.0857 6.91421C19.8843 7.96162 21.7516 9.84752 21.7516 11.9999C21.7516 14.1524 19.8843 16.0383 17.0857 17.0857M6.91421 17.0857C7.96162 19.8843 9.84752 21.7516 11.9999 21.7516C14.1524 21.7516 16.0383 19.8843 17.0857 17.0857C17.6398 15.6049 17.9593 13.8635 17.9593 11.9999C17.9593 10.1364 17.6398 8.39495 17.0857 6.91421M6.91421 17.0857C7.80315 17.4184 8.78604 17.6664 9.83291 17.8116C10.5298 17.9083 11.2551 17.9998 11.9999 17.9998L10.4999 15.7498M12.7499 11.9998C12.7499 11.5855 12.4142 11.2498 11.9999 11.2498C11.5857 11.2498 11.2499 11.5855 11.2499 11.9998C11.2499 12.414 11.5857 12.7498 11.9999 12.7498C12.4142 12.7498 12.7499 12.414 12.7499 11.9998Z" stroke="black" stroke-width="1.5" stroke-linecap="round" stroke-linejoin="round"/>
</svg>
