<svg width="24" height="24" viewBox="0 0 24 24" fill="none" xmlns="http://www.w3.org/2000/svg">
<path d="M12 14.25H6.74997L7.49997 15.75C6.16664 17.5278 6.16664 19.9722 7.49997 21.75H16.5C17.8333 19.9722 17.8333 17.5278 16.5 15.75L17.25 14.25H12ZM12 14.25V9.75M12 9.75C14.8771 11.8065 18.8376 9.51995 18.4952 6C17.1837 5.06264 15.6473 5.02758 14.3958 5.60034M12 9.75C9.12282 11.8065 5.16239 9.51995 5.5048 6C6.81621 5.06264 8.35268 5.02758 9.60416 5.60034M12 9.75C10.2479 8.9536 9.44929 7.23626 9.60416 5.60034M12 9.75C11.8136 7.83446 12.9016 6.28418 14.3958 5.60034M9.60416 5.60034C9.73388 4.23013 10.5325 2.91704 12 2.25C13.4675 2.91704 14.2661 4.23013 14.3958 5.60034" stroke="black" stroke-width="1.5" stroke-linecap="round" stroke-linejoin="round"/>
</svg>
