<svg width="24" height="24" viewBox="0 0 24 24" fill="none" xmlns="http://www.w3.org/2000/svg">
<path d="M17.25 21V17.25M17.25 17.25V13.5M17.25 17.25H21M17.25 17.25H13.5M7.81065 10.1894L10.1893 7.81068C10.7751 7.22489 10.7751 6.27514 10.1893 5.68936L7.81065 3.31068C7.22486 2.72489 6.27511 2.72489 5.68933 3.31068L3.31065 5.68936C2.72486 6.27514 2.72486 7.22489 3.31065 7.81068L5.68933 10.1894C6.27511 10.7751 7.22486 10.7751 7.81065 10.1894ZM10.5 15V19.5C10.5 20.3284 9.82841 21 8.99999 21H4.49999C3.67156 21 2.99999 20.3284 2.99999 19.5V15C2.99999 14.1716 3.67156 13.5 4.49999 13.5H8.99999C9.82841 13.5 10.5 14.1716 10.5 15ZM21 6.75002C21 8.82109 19.3211 10.5 17.25 10.5C15.1789 10.5 13.5 8.82109 13.5 6.75002C13.5 4.67895 15.1789 3.00002 17.25 3.00002C19.3211 3.00002 21 4.67895 21 6.75002Z" stroke="black" stroke-width="1.5" stroke-miterlimit="1.78829" stroke-linecap="round" stroke-linejoin="round"/>
</svg>
