<svg width="24" height="24" viewBox="0 0 24 24" fill="none" xmlns="http://www.w3.org/2000/svg">
<path d="M14.25 21.75V20.0742C14.25 19.3177 14.8216 18.6968 15.5404 18.4609C18.3034 17.5544 20.25 14.9584 20.25 11.9533V8.3603C20.25 8.29938 20.2006 8.25 20.1397 8.25H17.25M9.75 21.75V20.0742C9.75 19.3177 9.1784 18.6968 8.45961 18.4609C5.69662 17.5544 3.75 14.9584 3.75 11.9533V8.3603C3.75 8.29938 3.79938 8.25 3.8603 8.25H6.75M6.75 8.25V3.75C6.75 2.92157 7.42157 2.25 8.25 2.25C9.07843 2.25 9.75 2.92157 9.75 3.75V8.25M6.75 8.25H9.75M9.75 8.25H14.25M17.25 8.25V3.75C17.25 2.92157 16.5784 2.25 15.75 2.25C14.9216 2.25 14.25 2.92157 14.25 3.75V8.25M17.25 8.25H14.25" stroke="black" stroke-width="1.5" stroke-linecap="round" stroke-linejoin="round"/>
</svg>
