<svg width="24" height="24" viewBox="0 0 24 24" fill="none" xmlns="http://www.w3.org/2000/svg">
<path d="M19.5 9.00014H4.5M4.5 12.0001V9.00014C8.2877 4.07613 15.7123 4.07613 19.5 9.00014V12.0001M19.5 12.0001V16.5001C19.5 18.157 18.1569 19.5001 16.5 19.5001H7.5C5.84315 19.5001 4.5 18.157 4.5 16.5001V12.0001M19.5 12.0001L21.75 10.5001M4.5 12.0001L2.25 10.5001M12.75 4.5C12.75 4.91421 12.4142 5.25 12 5.25C11.5858 5.25 11.25 4.91421 11.25 4.5C11.25 4.08579 11.5858 3.75 12 3.75C12.4142 3.75 12.75 4.08579 12.75 4.5Z" stroke="black" stroke-width="1.5" stroke-linecap="round" stroke-linejoin="round"/>
</svg>
