<svg width="24" height="24" viewBox="0 0 24 24" fill="none" xmlns="http://www.w3.org/2000/svg">
<path d="M2.25 18H3.75M3.75 18V7.5C3.75 6.67157 4.42157 6 5.25 6H10.0962M3.75 18H6.40385M20.25 18H21.75M20.25 18V7.5C20.25 6.67157 19.5784 6 18.75 6H13.9038M20.25 18H17.5962M17.5962 18L18.75 21.75M17.5962 18H6.40385M6.40385 18L5.25 21.75M10.0962 6L11.0294 2.96683C11.1605 2.54075 11.5542 2.25 12 2.25C12.4458 2.25 12.8395 2.54075 12.9706 2.96683L13.9038 6M10.0962 6H13.9038" stroke="black" stroke-width="1.5" stroke-linecap="round" stroke-linejoin="round"/>
</svg>
