<svg width="24" height="24" viewBox="0 0 24 24" fill="none" xmlns="http://www.w3.org/2000/svg">
<path d="M12.0002 18.4167V21.75M12.0002 18.4167L18.0001 15.0834M12.0002 18.4167L6.00024 15.0834M9.75006 13.0002L6.00024 15.0834V18.4168L12.0002 21.75L18.0001 18.4168V15.0834L13.0931 12.3573C12.4186 11.9825 12.0002 11.2716 12.0002 10.4999M12.0001 6.75H12.7501C13.5785 6.75 14.2501 6.07843 14.2501 5.25V3.75C14.2501 2.92157 13.5785 2.25 12.7501 2.25H11.2501C10.4216 2.25 9.75006 2.92157 9.75006 3.75V5.25C9.75006 6.07843 10.4216 6.75 11.2501 6.75H12.0001ZM12.0001 6.75V8.25" stroke="black" stroke-width="1.5" stroke-linecap="round" stroke-linejoin="round"/>
</svg>
