<svg width="24" height="24" viewBox="0 0 24 24" fill="none" xmlns="http://www.w3.org/2000/svg">
<path d="M3 9.75V19.5C3 20.3284 3.67157 21 4.5 21H19.5C20.3284 21 21 20.3284 21 19.5V9.75M3 9.75V4.5C3 3.67157 3.67157 3 4.5 3H19.5C20.3284 3 21 3.67157 21 4.5V9.75M3 9.75H6.75M6.75 9.75V8.25C6.75 7.42157 7.42157 6.75 8.25 6.75H9.75C10.5784 6.75 11.25 7.42157 11.25 8.25V9.75M6.75 9.75C6.75 10.5784 7.42157 11.25 8.25 11.25H9M9 11.25H9.75C10.5784 11.25 11.25 10.5784 11.25 9.75M9 11.25V12.75M11.25 9.75H21M15.75 16.5H18M15.75 16.5V18M15.75 16.5H8.25M6 16.5H8.25M8.25 16.5V18" stroke="black" stroke-width="1.5" stroke-linecap="round" stroke-linejoin="round"/>
</svg>
