<svg width="24" height="24" viewBox="0 0 24 24" fill="none" xmlns="http://www.w3.org/2000/svg">
<path d="M18 18.75V16.5H6V18.75M18 18.75H19.5C20.3284 18.75 21 18.0784 21 17.25V11.25C21 10.4216 20.3284 9.75 19.5 9.75H18M18 18.75V19.5C18 20.3284 17.3284 21 16.5 21H7.5C6.67157 21 6 20.3284 6 19.5V18.75M6 18.75H4.5C3.67157 18.75 3 18.0784 3 17.25V11.25C3 10.4216 3.67157 9.75 4.5 9.75H6M18 9.75V8.25L12.75 3H7.5C6.67157 3 6 3.67157 6 4.5V9.75M6 9.75V12H18V9.75M18 8.25H14.25C13.4216 8.25 12.75 7.57843 12.75 6.75V3" stroke="black" stroke-width="1.5" stroke-linecap="round" stroke-linejoin="round"/>
</svg>
