<svg width="24" height="24" viewBox="0 0 24 24" fill="none" xmlns="http://www.w3.org/2000/svg">
<path d="M5.5731 17.0724C4.41229 15.2966 3.75 13.1838 3.75 10.9487V3.75C3.75 2.92157 4.42157 2.25 5.25 2.25H18.75C19.5784 2.25 20.25 2.92157 20.25 3.75V10.9487C20.25 13.1838 19.5877 15.2966 18.4269 17.0724C17.6089 18.3239 16.5433 19.4081 15.2874 20.25C14.3 20.912 13.1949 21.4241 12 21.75C10.8051 21.4241 9.70004 20.912 8.71257 20.25C7.45672 19.4081 6.39112 18.3239 5.5731 17.0724ZM18.4269 17.0724C17.7618 15.418 16.1423 14.25 14.25 14.25H12M5.5731 17.0724C6.23818 15.418 7.85769 14.25 9.75 14.25H12M12 14.25C14.4853 14.25 16.5 12.2353 16.5 9.75C16.5 7.26472 14.4853 5.25 12 5.25C9.51472 5.25 7.5 7.26472 7.5 9.75C7.5 12.2353 9.51472 14.25 12 14.25Z" stroke="black" stroke-width="1.5" stroke-linecap="round" stroke-linejoin="round"/>
</svg>
