<svg width="24" height="24" viewBox="0 0 24 24" fill="none" xmlns="http://www.w3.org/2000/svg">
<path d="M2.25 2.25L3.75 3.75M3.75 3.75L7.89769 7.89769M17.8612 17.8612C17.1384 18.7821 16.2713 19.5904 15.2874 20.25C14.3 20.912 13.1949 21.4241 12 21.75C10.8051 21.4241 9.70004 20.912 8.71257 20.25C7.45672 19.4081 6.39112 18.3239 5.5731 17.0724C4.41229 15.2966 3.75 13.1838 3.75 10.9487V3.75M7.89769 7.89769L13.8523 13.8523M7.89769 7.89769C7.64222 8.46261 7.5 9.08969 7.5 9.75C7.5 12.2353 9.51472 14.25 12 14.25M13.8523 13.8523L14.25 14.25M13.8523 13.8523C13.2874 14.1078 12.6603 14.25 12 14.25M14.25 14.25L17.8612 17.8612M14.25 14.25H12M17.8612 17.8612L21.75 21.75M6.75 2.25H18.75C19.5784 2.25 20.25 2.92157 20.25 3.75V10.9487C20.25 12.3645 19.9843 13.7313 19.4944 14.9944M5.5731 17.0724C6.23818 15.418 7.85769 14.25 9.75 14.25H12M16.1023 11.6023C16.3578 11.0374 16.5 10.4103 16.5 9.75C16.5 7.26472 14.4853 5.25 12 5.25C11.3397 5.25 10.7126 5.39222 10.1477 5.64769" stroke="black" stroke-width="1.5" stroke-linecap="round" stroke-linejoin="round"/>
</svg>
