<svg width="24" height="24" viewBox="0 0 24 24" fill="none" xmlns="http://www.w3.org/2000/svg">
<path d="M7.38143 17.7239L9.86857 14.5261M7.38143 17.7239C7.91002 18.1356 8.25 18.7781 8.25 19.5C8.25 20.7426 7.24264 21.75 6 21.75C4.75736 21.75 3.75 20.7426 3.75 19.5C3.75 18.2574 4.75736 17.25 6 17.25C6.52073 17.25 7.00015 17.4269 7.38143 17.7239ZM9.47388 11.3686C9.88559 10.84 10.5281 10.5 11.25 10.5C12.4926 10.5 13.5 11.5074 13.5 12.75C13.5 13.9926 12.4926 15 11.25 15C10.7293 15 10.2499 14.8231 9.86857 14.5261C9.33998 14.1144 9 13.4719 9 12.75C9 12.2293 9.1769 11.7499 9.47388 11.3686ZM9.47388 11.3686L6.27612 8.88143M6.66399 6.88172C6.72001 7.07816 6.75 7.28558 6.75 7.5C6.75 8.02073 6.5731 8.50015 6.27612 8.88143C5.86441 9.41002 5.22191 9.75 4.5 9.75C3.25736 9.75 2.25 8.74264 2.25 7.5C2.25 6.25736 3.25736 5.25 4.5 5.25C5.52822 5.25 6.39535 5.93971 6.66399 6.88172ZM6.66399 6.88172L12.836 5.11828M15.8865 6.56861C15.6145 6.68535 15.3148 6.75 15 6.75C13.9718 6.75 13.1047 6.06029 12.836 5.11828C12.78 4.92184 12.75 4.71442 12.75 4.5C12.75 3.25736 13.7574 2.25 15 2.25C16.2426 2.25 17.25 3.25736 17.25 4.5C17.25 5.42784 16.6884 6.22451 15.8865 6.56861ZM15.8865 6.56861L18.6135 12.9314M18.6135 12.9314C17.8116 13.2755 17.25 14.0722 17.25 15C17.25 16.2426 18.2574 17.25 19.5 17.25C20.7426 17.25 21.75 16.2426 21.75 15C21.75 13.7574 20.7426 12.75 19.5 12.75C19.1852 12.75 18.8855 12.8146 18.6135 12.9314Z" stroke="black" stroke-width="1.5" stroke-linecap="round" stroke-linejoin="round"/>
</svg>
