<svg width="24" height="24" viewBox="0 0 24 24" fill="none" xmlns="http://www.w3.org/2000/svg">
<path d="M14.25 19.5H21M14.25 19.5C14.25 20.7426 13.2426 21.75 12 21.75C10.7574 21.75 9.75 20.7426 9.75 19.5M14.25 19.5C14.25 18.2574 13.2426 17.25 12 17.25M9.75 19.5H3M9.75 19.5C9.75 18.2574 10.7574 17.25 12 17.25M12 17.25V12.75M12 12.75H5.25C4.42157 12.75 3.75 12.0784 3.75 11.25V5.25C3.75 4.42157 4.42157 3.75 5.25 3.75H18.75C19.5784 3.75 20.25 4.42157 20.25 5.25V11.25C20.25 12.0784 19.5784 12.75 18.75 12.75H12ZM6.75 7.5V9M10.5 7.5V9" stroke="black" stroke-width="1.5" stroke-linecap="round" stroke-linejoin="round"/>
</svg>
