<svg width="24" height="24" viewBox="0 0 24 24" fill="none" xmlns="http://www.w3.org/2000/svg">
<path d="M14.25 16.5V7.5C14.25 6.67157 13.5784 6 12.75 6H3.75C2.92157 6 2.25 6.67157 2.25 7.5V18C2.25 18.8284 2.92157 19.5 3.75 19.5H12.75C13.5784 19.5 14.25 18.8284 14.25 18V16.5ZM14.25 16.5C18 18.75 21.75 16.5 21.75 13.5C21.75 12.6566 21.506 12.0089 21.1316 11.3036M21.1316 11.3036C19.7043 8.61505 16.3819 9.72138 17.4606 11.9986C18.1649 13.4854 20.1563 12.8391 21.1316 11.3036ZM21.1316 11.3036C22.2314 9.57199 22.0388 6.70944 17.25 4.5M9.75 9.75L6.75 12.75H9.75L6.75 15.75" stroke="black" stroke-width="1.5" stroke-linecap="round" stroke-linejoin="round"/>
</svg>
