<svg width="24" height="24" viewBox="0 0 24 24" fill="none" xmlns="http://www.w3.org/2000/svg">
<path d="M21 7.5V4.5C21 3.67157 20.3284 3 19.5 3H16.5M7.5 3H4.5C3.67157 3 3 3.67157 3 4.5V7.5M3 16.5V19.5C3 20.3284 3.67157 21 4.5 21H7.5M16.5 21H19.5C20.3284 21 21 20.3284 21 19.5V16.5M9 6H7.5C6.67157 6 6 6.67157 6 7.5V9M9 6V9H6M9 6H12M6 9V15M6 15V16.5C6 17.3284 6.67157 18 7.5 18H9M6 15H9M9 15V18M9 15V12.75M9 18H12M15 6H16.5C17.3284 6 18 6.67157 18 7.5V9M15 6V9H18M15 6H12M18 9V14.25M12 6V6.75M9 12.75H12V14.25M9 12.75V12M12 18V17.25M12 18H15M11.25 9.75H12.75M15 18H16.5C17.3284 18 18 17.3284 18 16.5V14.25M15 18V17.25M18 14.25H15V12" stroke="black" stroke-width="1.5" stroke-linecap="round" stroke-linejoin="round"/>
</svg>
