<svg width="24" height="24" viewBox="0 0 24 24" fill="none" xmlns="http://www.w3.org/2000/svg">
<path d="M21 6.75C21 8.82107 19.3211 10.5 17.25 10.5C15.1789 10.5 13.5 8.82107 13.5 6.75C13.5 4.67893 15.1789 3 17.25 3C19.3211 3 21 4.67893 21 6.75ZM21 6.75V8.25C21 8.25 21 18 14.25 21M10.5 6.75C10.5 8.82107 8.82107 10.5 6.75 10.5C4.67893 10.5 3 8.82107 3 6.75C3 4.67893 4.67893 3 6.75 3C8.82107 3 10.5 4.67893 10.5 6.75ZM10.5 6.75V8.25C10.5 8.25 10.5 18 3.75 21" stroke="black" stroke-width="1.5" stroke-linecap="round" stroke-linejoin="round"/>
</svg>
