<svg width="24" height="24" viewBox="0 0 24 24" fill="none" xmlns="http://www.w3.org/2000/svg">
<path d="M12 10.4998C11.5858 10.4998 11.25 10.164 11.25 9.74976C11.25 9.33555 11.5858 8.99976 12 8.99976C12.4142 8.99976 12.75 9.33555 12.75 9.74976C12.75 10.164 12.4142 10.4998 12 10.4998ZM12 10.4998V21.7498M14.6517 12.4014C15.3303 11.7228 15.75 10.7853 15.75 9.74976C15.75 8.71423 15.3303 7.77673 14.6517 7.09811M9.34835 12.4014C8.66973 11.7228 8.25 10.7853 8.25 9.74976C8.25 8.71423 8.66973 7.77673 9.34835 7.09811M18.8943 16.6441C20.6587 14.8796 21.75 12.4421 21.75 9.74976C21.75 7.05737 20.6587 4.61987 18.8943 2.85547M16.773 14.5227C17.9945 13.3012 18.75 11.6137 18.75 9.74976C18.75 7.8858 17.9945 6.1983 16.773 4.97679M5.10571 16.6441C3.34131 14.8796 2.25 12.4421 2.25 9.74976C2.25 7.05737 3.34131 4.61987 5.10571 2.85547M7.22703 14.5227C6.00552 13.3012 5.25 11.6137 5.25 9.74976C5.25 7.8858 6.00552 6.1983 7.22703 4.97679" stroke="black" stroke-width="1.5" stroke-miterlimit="1.78829" stroke-linecap="round" stroke-linejoin="round"/>
</svg>
