<svg width="24" height="24" viewBox="0 0 24 24" fill="none" xmlns="http://www.w3.org/2000/svg">
<path d="M15 15.75H17.25M17.25 15.75H18.75M17.25 15.75V14.25M17.25 15.75V17.25M15.75 6.75H20.25C21.0784 6.75 21.75 7.42157 21.75 8.25V18.75C21.75 19.5784 21.0784 20.25 20.25 20.25H3.75C2.92157 20.25 2.25 19.5784 2.25 18.75V8.25C2.25 7.42157 2.92157 6.75 3.75 6.75H15.75ZM15.75 6.75L18.75 3M15.75 6.75L12.75 3M12.75 13.5C12.75 11.4289 11.0711 9.75 9 9.75C6.92893 9.75 5.25 11.4289 5.25 13.5C5.25 15.5711 6.92893 17.25 9 17.25C11.0711 17.25 12.75 15.5711 12.75 13.5Z" stroke="black" stroke-width="1.5" stroke-linecap="round" stroke-linejoin="round"/>
</svg>
