<svg width="24" height="24" viewBox="0 0 24 24" fill="none" xmlns="http://www.w3.org/2000/svg">
<path d="M15.9399 20.2541C14.7011 20.7962 13.36 21.0787 12 21.0787C10.64 21.0787 9.2988 20.7962 8.05998 20.254C7.50752 20.0122 7.33039 19.3383 7.63188 18.816L9.26946 15.979C9.57121 15.4562 10.2394 15.2931 10.8205 15.4565C11.1956 15.562 11.5911 15.6186 12 15.6186C12.4087 15.6186 12.804 15.5619 13.1789 15.4564C13.7598 15.2929 14.4277 15.456 14.7295 15.9785L16.3679 18.8159C16.6695 19.3382 16.4924 20.0123 15.9399 20.2541Z" stroke="black" stroke-width="1.5" stroke-linecap="round" stroke-linejoin="round"/>
<path d="M12 12.7499C11.1716 12.7499 10.5 12.0783 10.5 11.2499C10.5 10.4215 11.1716 9.7499 12 9.7499C12.8284 9.7499 13.5 10.4215 13.5 11.2499C13.5 12.0783 12.8284 12.7499 12 12.7499Z" stroke="black" stroke-width="1.5" stroke-linecap="round" stroke-linejoin="round"/>
<path d="M8.94909 8.12579C8.38407 8.67725 7.96794 9.38047 7.76688 10.1697C7.61799 10.7541 7.14311 11.2506 6.54001 11.2506H3.264C2.6609 11.2506 2.16572 10.7602 2.23264 10.1608C2.38266 8.81698 2.80901 7.51441 3.48901 6.3366C4.16897 5.15888 5.08381 4.13871 6.17253 3.33701C6.65817 2.97939 7.33047 3.16302 7.63203 3.68532L9.27054 6.52327C9.57188 7.04521 9.38041 7.70484 8.94909 8.12579Z" stroke="black" stroke-width="1.5" stroke-linecap="round" stroke-linejoin="round"/>
<path d="M17.8274 3.3369C18.9162 4.13862 19.8311 5.15883 20.511 6.3366C21.191 7.51441 21.6174 8.81698 21.7674 10.1608C21.8343 10.7602 21.3392 11.2506 20.7361 11.2506H17.46C16.8569 11.2506 16.3821 10.7541 16.2331 10.1697C16.032 9.38042 15.6156 8.67724 15.0504 8.12584C14.6188 7.70488 14.4273 7.04503 14.7288 6.523L16.368 3.68507C16.6696 3.16288 17.3418 2.97933 17.8274 3.3369Z" stroke="black" stroke-width="1.5" stroke-linecap="round" stroke-linejoin="round"/>
</svg>
