<svg width="24" height="24" viewBox="0 0 24 24" fill="none" xmlns="http://www.w3.org/2000/svg">
<path d="M3.75 15.75V17.25C3.75 18.0784 4.42157 18.75 5.25 18.75H6.75C7.57843 18.75 8.25 18.0784 8.25 17.25V15.75M3.75 15.75H8.25M3.75 15.75C2.92157 15.75 2.25 15.0784 2.25 14.25V11.25C2.25 10.4216 2.92157 9.75 3.75 9.75H17.25C18.0784 9.75 18.75 10.4216 18.75 11.25V14.25C18.75 15.0784 18.0784 15.75 17.25 15.75M8.25 15.75H11.25M11.25 15.75V17.25C11.25 18.0784 11.9216 18.75 12.75 18.75H15.75C16.5784 18.75 17.25 18.0784 17.25 17.25V15.75M11.25 15.75H17.25M21.75 10.5V6.75C21.75 5.92157 21.0784 5.25 20.25 5.25H6.75C5.92157 5.25 5.25 5.92157 5.25 6.75" stroke="black" stroke-width="1.5" stroke-linecap="round" stroke-linejoin="round"/>
</svg>
