<svg width="24" height="24" viewBox="0 0 24 24" fill="none" xmlns="http://www.w3.org/2000/svg">
<path d="M3.75 14.25V15.75C3.75 16.5784 4.42157 17.25 5.25 17.25H8.25C9.07843 17.25 9.75 16.5784 9.75 15.75V14.25M3.75 14.25H9.75M3.75 14.25C2.92157 14.25 2.25 13.5784 2.25 12.75V8.25C2.25 7.42157 2.92157 6.75 3.75 6.75H20.25C21.0784 6.75 21.75 7.42157 21.75 8.25V12.75C21.75 13.5784 21.0784 14.25 20.25 14.25M9.75 14.25H12.75M12.75 14.25V15.75C12.75 16.5784 13.4216 17.25 14.25 17.25H18.75C19.5784 17.25 20.25 16.5784 20.25 15.75V14.25M12.75 14.25H20.25" stroke="black" stroke-width="1.5" stroke-linecap="round" stroke-linejoin="round"/>
</svg>
