<svg width="24" height="24" viewBox="0 0 24 24" fill="none" xmlns="http://www.w3.org/2000/svg">
<path d="M7.5 6H12M15 6H16.5M7.5 9H12M15 9H16.5M7.5 12H12M19.5 11.4173V3L18 2.25L16.5 3L15 2.25L13.5 3L12 2.25L10.5 3L9 2.25L7.5 3L6 2.25L4.5 3V21.75L6 21L7.5 21.75L9 21L10.5 21.75L11.9613 21.0194M14.25 18.75L17.1439 21.6439C17.2025 21.7025 17.2975 21.7025 17.3561 21.6439L22.2656 16.7344" stroke="black" stroke-width="1.5" stroke-miterlimit="1.78829" stroke-linecap="round" stroke-linejoin="round"/>
</svg>
