<svg width="24" height="24" viewBox="0 0 24 24" fill="none" xmlns="http://www.w3.org/2000/svg">
<path d="M20.625 15.375L21.3441 16.5735C21.5969 16.9949 21.6169 17.5161 21.3972 17.9556C21.1537 18.4425 20.6561 18.75 20.1118 18.75H9.74997M10.125 4.125L10.8641 2.89312C11.1035 2.49413 11.5347 2.25 12 2.25C12.4653 2.25 12.8964 2.49413 13.1358 2.89312L18.375 11.625M5.24997 18.75H3.88814C3.34381 18.75 2.8462 18.4425 2.60277 17.9556C2.38303 17.5161 2.40305 16.9949 2.65585 16.5735L7.87497 7.875M12.75 21.75L9.74997 18.75L12.75 15.75M14.25 10.5L18.375 11.625L19.5 7.5M3.74997 9L7.87497 7.875L8.99997 12" stroke="black" stroke-width="1.5" stroke-linecap="round" stroke-linejoin="round"/>
</svg>
