<svg width="24" height="24" viewBox="0 0 24 24" fill="none" xmlns="http://www.w3.org/2000/svg">
<path d="M3.75 15V12M3.75 12V10.5C3.75 9.67157 4.42157 9 5.25 9C6.07843 9 6.75 9.67157 6.75 10.5V12M3.75 12H6.75M6.75 12V15M9.75 12V9H11.25C12.0784 9 12.75 9.67157 12.75 10.5C12.75 11.3284 12.0784 12 11.25 12M9.75 12V15H11.25C12.0784 15 12.75 14.3284 12.75 13.5C12.75 12.6716 12.0784 12 11.25 12M9.75 12H11.25M10.5 3H12.75C15.75 3 15.75 5.25 15.75 5.25M21 3H18.75C15.75 3 15.75 5.25 15.75 5.25M15.75 5.25V18.75M15.75 18.75C15.75 18.75 15.75 21 12.75 21H10.5M15.75 18.75C15.75 18.75 15.75 21 18.75 21H21" stroke="black" stroke-width="1.5" stroke-linecap="round" stroke-linejoin="round"/>
</svg>
