<svg width="24" height="24" viewBox="0 0 24 24" fill="none" xmlns="http://www.w3.org/2000/svg">
<path d="M18.75 14.25V9.75L12 6L5.11295 9.75V14.25M18.75 9.75L12 13.5M12 13.5L5.11295 9.75M12 13.5V14.25M18.75 14.25H12M18.75 14.25H20.25C21.0784 14.25 21.75 13.5784 21.75 12.75V4.5C21.75 3.67157 21.0784 3 20.25 3H3.75C2.92157 3 2.25 3.67157 2.25 4.5V12.75C2.25 13.5784 2.92157 14.25 3.75 14.25H5.11295M18.75 14.25V15M12 14.25H5.11295M12 14.25V15M5.11295 14.25V15M12.0001 17.868L12 18.2344M16.2188 19.4062L15.7969 19.6406M18.75 18L18.3282 18.2344M13.6875 20.8125L13.2657 21.0469M10.7087 21.0469L10.2783 20.8125M8.12605 19.6406L7.6956 19.4062M5.54339 18.2344L5.11295 18" stroke="black" stroke-width="1.5" stroke-linecap="round" stroke-linejoin="round"/>
</svg>
