<svg width="24" height="24" viewBox="0 0 24 24" fill="none" xmlns="http://www.w3.org/2000/svg">
<path d="M16.5058 4.8784L20.2558 7.0659C20.4867 7.20058 20.673 7.39161 20.8015 7.61581C20.9294 7.83912 21 8.09535 21 8.36157V12M20.8015 7.61581L16.4007 10.1829M3.19853 7.61581C3.327 7.39161 3.51332 7.20058 3.74419 7.0659L11.2442 2.6909C11.7112 2.41846 12.2888 2.41846 12.7558 2.6909L16.5058 4.8784M12 21.5135C11.7389 21.5135 11.4777 21.4454 11.2442 21.3091L7.59926 19.1829L3.74419 16.9341C3.28337 16.6653 3 16.172 3 15.6385V8.36157C3 8.09535 3.07056 7.83912 3.19853 7.61581M3.19853 7.61581L7.59926 10.1829M16.5058 4.8784L12 7.56194M12 12.75L7.59926 10.1829M12 12.75L16.4007 10.1829M12 12.75V14.9046M7.59926 10.1829V14.6225M7.59926 10.1829L12 7.56194M7.59926 19.1829V14.6225M7.59926 14.6225L11.3622 16.768M12 7.56194L16.4007 10.1829M16.4007 10.1829L16.4155 11.437M22.5 22.5L20.4116 20.4116M20.4116 20.4116C21.0648 19.7584 21.4688 18.8561 21.4688 17.8594C21.4688 15.866 19.8528 14.25 17.8594 14.25C15.866 14.25 14.25 15.866 14.25 17.8594C14.25 19.8528 15.866 21.4688 17.8594 21.4688C18.8561 21.4688 19.7584 21.0648 20.4116 20.4116Z" stroke="black" stroke-width="1.5" stroke-miterlimit="1.78829" stroke-linecap="round" stroke-linejoin="round"/>
</svg>
