<svg width="24" height="24" viewBox="0 0 24 24" fill="none" xmlns="http://www.w3.org/2000/svg">
<path d="M18.8943 18.8943L12 12M18.8943 18.8943C19.9218 17.8668 20.7211 16.6109 21.2094 15.2094M21.2094 15.2094C21.5597 14.2044 21.75 13.1244 21.75 12C21.75 6.61522 17.3848 2.25 12 2.25C6.61522 2.25 2.25 6.61522 2.25 12C2.25 17.3848 6.61522 21.75 12 21.75C13.1244 21.75 14.2044 21.5597 15.2094 21.2094C16.6109 20.7211 17.8668 19.9218 18.8943 18.8943M21.2094 15.2094L15 9M15.2094 21.2094L9 15" stroke="black" stroke-width="1.5" stroke-linecap="round" stroke-linejoin="round"/>
</svg>
