<svg width="24" height="24" viewBox="0 0 24 24" fill="none" xmlns="http://www.w3.org/2000/svg">
<path d="M7.5 18.75H17.625C19.489 18.75 21 17.239 21 15.375C21 13.511 19.489 12 17.625 12H7.125C5.26104 12 3.75 10.489 3.75 8.625C3.75 6.76104 5.26104 5.25 7.125 5.25H15.75M7.5 18.75C7.5 17.5074 6.49264 16.5 5.25 16.5C4.00736 16.5 3 17.5074 3 18.75C3 19.9926 4.00736 21 5.25 21C6.49264 21 7.5 19.9926 7.5 18.75ZM15.75 5.25C15.75 4.00736 16.7574 3 18 3C19.2426 3 20.25 4.00736 20.25 5.25C20.25 6.49264 19.2426 7.5 18 7.5C16.7574 7.5 15.75 6.49264 15.75 5.25Z" stroke="black" stroke-width="1.5" stroke-miterlimit="1.78829" stroke-linecap="round" stroke-linejoin="round"/>
</svg>
