<svg width="24" height="24" viewBox="0 0 24 24" fill="none" xmlns="http://www.w3.org/2000/svg">
<path d="M12 14.2501H20.25C21.0784 14.2501 21.75 14.9216 21.75 15.7501V18.7501C21.75 19.5785 21.0784 20.2501 20.25 20.2501H3.75C2.92157 20.2501 2.25 19.5785 2.25 18.7501V15.7501C2.25 14.9216 2.92157 14.2501 3.75 14.2501H12ZM12 14.2501V6.75007M8.75186 4.12476C8.43268 4.67641 8.25 5.31691 8.25 6.00007C8.25 7.03561 8.66973 7.97311 9.34835 8.65172M12 6.75007C11.7929 6.75007 11.6054 6.66613 11.4697 6.5304C11.3339 6.39468 11.25 6.20718 11.25 6.00007C11.25 5.86344 11.2865 5.73534 11.3504 5.62501C11.4801 5.40087 11.7224 5.25007 12 5.25007C12.2776 5.25007 12.5199 5.40087 12.6496 5.62501C12.7135 5.73534 12.75 5.86344 12.75 6.00007C12.75 6.20718 12.6661 6.39468 12.5303 6.5304C12.3946 6.66613 12.2071 6.75007 12 6.75007ZM14.6517 8.65172C15.3303 7.97311 15.75 7.03561 15.75 6.00007C15.75 5.31691 15.5673 4.67641 15.2481 4.12476M16.773 10.773C17.9945 9.55154 18.75 7.86403 18.75 6.00007C18.75 4.77037 18.4212 3.61747 17.8466 2.62451M6.15336 2.62451C5.57883 3.61747 5.25 4.77037 5.25 6.00007C5.25 7.86403 6.00552 9.55154 7.22703 10.773M5.25 17.2502H6M9 17.2502H9.75" stroke="black" stroke-width="1.5" stroke-linecap="round" stroke-linejoin="round"/>
</svg>
