<svg width="24" height="24" viewBox="0 0 24 24" fill="none" xmlns="http://www.w3.org/2000/svg">
<path d="M18.75 20.25H21.75V17.25M18.75 20.25L15.75 17.25M18.75 20.25H12.75M15.75 17.25L2.25 3.75V9.75M15.75 17.25V3.75H21.75V6.75M5.25 20.25H2.25V17.25M5.25 20.25V18.75M5.25 20.25H9M9 20.25V18.75M9 20.25H12.75M12.75 20.25V18.75M2.25 9.75V13.5M2.25 9.75H3.75M2.25 13.5V17.25M2.25 13.5H3.75M2.25 17.25H3.75M20.25 17.25H21.75M21.75 17.25V13.5M20.25 13.5H21.75M21.75 13.5V9.75M20.25 9.75H21.75M21.75 9.75V6.75M21.75 6.75H20.25M6.75 15.75V13.5L9 15.75H6.75Z" stroke="black" stroke-width="1.5" stroke-linecap="round" stroke-linejoin="round"/>
</svg>
