<svg width="24" height="24" viewBox="0 0 24 24" fill="none" xmlns="http://www.w3.org/2000/svg">
<path d="M6.75 21H4.5C3.67157 21 3 20.3284 3 19.5V4.5C3 3.67157 3.67157 3 4.5 3H14.3787C14.7765 3 15.158 3.15804 15.4393 3.43934L20.5607 8.56066C20.842 8.84197 21 9.2235 21 9.62132V19.5C21 20.3284 20.3284 21 19.5 21H17.25M6.75 21V14.25C6.75 13.4216 7.42157 12.75 8.25 12.75H15.75C16.5784 12.75 17.25 13.4216 17.25 14.25V21M6.75 21H17.25" stroke="black" stroke-width="1.5" stroke-linecap="round" stroke-linejoin="round"/>
</svg>
