<svg width="24" height="24" viewBox="0 0 24 24" fill="none" xmlns="http://www.w3.org/2000/svg">
<path d="M3 6V4.5C3 3.67157 3.67157 3 4.5 3H6M10.5 3H13.5M18 3H19.5C20.3284 3 21 3.67157 21 4.5V6M21 10.5V11.9516M3 10.5V12M11.25 12.75L17.25 6.75M12.75 6.75H17.25V11.25M16.5 18V16.875C16.5 15.4253 17.6753 14.25 19.125 14.25C20.5747 14.25 21.75 15.4253 21.75 16.875V18M16.5 18H21.75M16.5 18C16.0858 18 15.75 18.3358 15.75 18.75V21C15.75 21.8284 16.4216 22.5 17.25 22.5H21C21.8284 22.5 22.5 21.8284 22.5 21V18.75C22.5 18.3358 22.1642 18 21.75 18M3 21V15H9V21H3Z" stroke="black" stroke-width="1.5" stroke-miterlimit="1.78829" stroke-linecap="round" stroke-linejoin="round"/>
</svg>
