<svg width="24" height="24" viewBox="0 0 24 24" fill="none" xmlns="http://www.w3.org/2000/svg">
<path d="M11.8542 11.5572C10.5801 12.5142 9.75603 14.0379 9.75603 15.754C9.75603 16.2101 9.81424 16.6526 9.92363 17.0745M11.8542 11.5572C12.7309 10.8986 13.8208 10.5083 15.0017 10.5083C17.8989 10.5083 20.2474 12.8569 20.2474 15.754C20.2474 18.6511 17.8989 20.9997 15.0017 20.9997C12.5607 20.9997 10.5091 19.3324 9.92363 17.0745M11.8542 11.5572L8.63185 3.5013C8.28012 2.62196 7.03538 2.62196 6.68365 3.5013L2.48708 13.9927C2.43751 14.1166 2.40871 14.2491 2.42405 14.3817C2.55065 15.4759 3.71531 17.3277 7.65775 17.3277C8.54801 17.3277 9.29663 17.2333 9.92363 17.0745M17.25 15.75C17.25 16.9926 16.2426 18 15 18M17.25 5.25C17.25 4.00736 18.2574 3 19.5 3C20.7426 3 21.75 4.00736 21.75 5.25C21.75 6.49264 20.7426 7.5 19.5 7.5C18.2574 7.5 17.25 6.49264 17.25 5.25Z" stroke="black" stroke-width="1.5" stroke-linecap="round" stroke-linejoin="round"/>
</svg>
