<svg width="24" height="24" viewBox="0 0 24 24" fill="none" xmlns="http://www.w3.org/2000/svg">
<path d="M9.40165 15.3483C8.72303 14.6697 7.78553 14.25 6.75 14.25C4.67893 14.25 3 15.9289 3 18C3 20.0711 4.67893 21.75 6.75 21.75C8.82107 21.75 10.5 20.0711 10.5 18C10.5 16.9645 10.0803 16.027 9.40165 15.3483ZM9.40165 15.3483L12.75 12M9.40165 8.65165C10.0803 7.97303 10.5 7.03553 10.5 6C10.5 3.92893 8.82107 2.25 6.75 2.25C4.67893 2.25 3 3.92893 3 6C3 8.07107 4.67893 9.75 6.75 9.75C7.78553 9.75 8.72303 9.33027 9.40165 8.65165ZM9.40165 8.65165L12.75 12M12.75 12L21 3.75M12.75 12L21 20.25" stroke="black" stroke-width="1.5" stroke-linecap="round" stroke-linejoin="round"/>
</svg>
