<svg width="24" height="24" viewBox="0 0 24 24" fill="none" xmlns="http://www.w3.org/2000/svg">
<path d="M3 8.25V7.50001L3.75 7.06251M3 7.50001L4.5 8.37501M7.5 4.87501L6.75 5.31251M10.5 3.125L12 2.25L13.5 3.125M3 11.25V12M3 15V16.5L4.5 17.375M21 15V16.5L19.5 17.375M21 12V11.25M20.25 7.06251L21 7.5V8.25M21 7.5L19.5 8.37503M17.25 5.31251L16.5 4.87501M12 20.25V21.75M11.25 21.3125L12 21.75L12.75 21.3125M15.75 19.5625L16.5 19.125M7.5 19.125L8.25 19.5625M12 15C10.7574 15 9.75 13.9926 9.75 12.75C9.75 11.5074 10.7574 10.5 12 10.5C13.2426 10.5 14.25 11.5074 14.25 12.75C14.25 13.9926 13.2426 15 12 15Z" stroke="black" stroke-width="1.5" stroke-miterlimit="1.78829" stroke-linecap="round" stroke-linejoin="round"/>
</svg>
