<svg width="24" height="24" viewBox="0 0 24 24" fill="none" xmlns="http://www.w3.org/2000/svg">
<path d="M12 14.25H20.25C21.0784 14.25 21.75 14.9216 21.75 15.75V18.75C21.75 19.5784 21.0784 20.25 20.25 20.25H3.75C2.92157 20.25 2.25 19.5784 2.25 18.75V15.75C2.25 14.9216 2.92157 14.25 3.75 14.25H12ZM12 14.25V9.75M12 9.75H3.75C2.92157 9.75 2.25 9.07843 2.25 8.25V5.25C2.25 4.42157 2.92157 3.75 3.75 3.75H20.25C21.0784 3.75 21.75 4.42157 21.75 5.25V8.25C21.75 9.07843 21.0784 9.75 20.25 9.75H12ZM6 6.75H6.75M11.25 6.75H10.5M6.75 17.25H6M11.25 17.25H10.5" stroke="black" stroke-width="1.5" stroke-linecap="round" stroke-linejoin="round"/>
</svg>
