<svg width="24" height="24" viewBox="0 0 24 24" fill="none" xmlns="http://www.w3.org/2000/svg">
<path d="M13.5 6.75H14.25M17.25 6.75H18M14.25 17.25H13.5M18 17.25H17.25M9.75 17.25V15.75C9.75 14.9216 10.4216 14.25 11.25 14.25H20.25C21.0784 14.25 21.75 14.9216 21.75 15.75V18.75C21.75 19.5784 21.0784 20.25 20.25 20.25H11.25C10.4216 20.25 9.75 19.5784 9.75 18.75V17.25ZM9.75 17.25H6.75M6.75 17.25C6.75 16.0074 5.74264 15 4.5 15M6.75 17.25C6.75 18.4926 5.74264 19.5 4.5 19.5M9.75 6.75V5.25C9.75 4.42157 10.4216 3.75 11.25 3.75H20.25C21.0784 3.75 21.75 4.42157 21.75 5.25V8.25C21.75 9.07843 21.0784 9.75 20.25 9.75H11.25C10.4216 9.75 9.75 9.07843 9.75 8.25V6.75ZM9.75 6.75H6.75M6.75 6.75C6.75 5.50736 5.74264 4.5 4.5 4.5M6.75 6.75C6.75 7.99264 5.74264 9 4.5 9M4.5 9V15M4.5 9C3.25736 9 2.25 7.99264 2.25 6.75C2.25 5.50736 3.25736 4.5 4.5 4.5M4.5 15C3.25736 15 2.25 16.0074 2.25 17.25C2.25 18.4926 3.25736 19.5 4.5 19.5M4.5 19.5V21.75M4.5 4.5V2.25" stroke="black" stroke-width="1.5" stroke-linecap="round" stroke-linejoin="round"/>
</svg>
