<svg width="24" height="24" viewBox="0 0 24 24" fill="none" xmlns="http://www.w3.org/2000/svg">
<path d="M12.3818 21.7427C12.2551 21.7475 12.1278 21.75 12 21.75C6.61522 21.75 2.25 17.3848 2.25 12C2.25 6.61522 6.61523 2.25 12 2.25C17.3848 2.25 21.75 6.61523 21.75 12C21.75 12.1278 21.7475 12.2551 21.7427 12.3818M6 12C6 8.68629 8.68629 6 12 6M18.3743 20.85C17.0074 20.85 15.8993 19.7419 15.8993 18.375C15.8993 17.0081 17.0074 15.9 18.3743 15.9M18.3743 20.85C19.7412 20.85 20.8493 19.7419 20.8493 18.375C20.8493 17.0081 19.7412 15.9 18.3743 15.9M18.3743 20.85V22.5M18.3743 15.9V14.25M22.5075 18.3667H20.8575M15.9075 18.3667H14.2575M21.3052 21.2862L20.1384 20.1194M16.6383 16.6193L15.4715 15.4525M15.4715 21.2979L16.6383 20.1312M20.1384 16.631L21.3052 15.4643" stroke="black" stroke-width="1.5" stroke-miterlimit="1.78829" stroke-linecap="round" stroke-linejoin="round"/>
</svg>
