<svg width="24" height="24" viewBox="0 0 24 24" fill="none" xmlns="http://www.w3.org/2000/svg">
<path d="M14.2478 15.7522C12.9947 16.6927 11.4374 17.25 9.75 17.25C9.28056 17.25 8.82119 17.2069 8.37564 17.1244M14.2478 15.7522C14.9736 15.2074 15.5974 14.5341 16.0853 13.7659M14.2478 15.7522L9.28756 20.7124M14.2478 15.7522L14.2501 15.7499M8.37564 17.1244C7.22712 16.9117 6.17043 16.4373 5.26974 15.7653C5.13095 15.6618 4.99586 15.5536 4.86472 15.4409C3.26391 14.0654 2.25 12.0261 2.25 9.75C2.25 5.60786 5.60786 2.25 9.75 2.25C13.8921 2.25 17.25 5.60786 17.25 9.75C17.25 11.2273 16.8229 12.6049 16.0853 13.7659M16.0853 13.7659C17.4817 13.9982 18.7057 14.372 19.6552 14.8448M9.28756 20.7124C7.94401 20.4789 6.7654 20.1136 5.84479 19.6552C4.55368 19.0124 3.76999 18.1866 3.75038 17.2847C3.75013 17.2731 3.75 17.2616 3.75 17.25C3.75 16.594 4.15429 15.9773 4.86472 15.4409M8.37564 17.1244L5.84479 19.6552M21.75 17.25C21.75 16.3346 20.9629 15.4959 19.6552 14.8448M21.75 17.25C21.75 18.2912 20.7316 19.2332 19.0873 19.9127M21.75 17.25L19.0873 19.9127M19.6552 14.8448L13.5133 20.9867M19.0873 19.9127C17.6299 20.5149 15.6809 20.9109 13.5133 20.9867C13.2617 20.9955 13.0071 21 12.75 21C11.523 21 10.3534 20.8977 9.28756 20.7124M3.75038 17.2847L5.26974 15.7653" stroke="black" stroke-width="1.5" stroke-linecap="round" stroke-linejoin="round"/>
</svg>
