<svg width="24" height="24" viewBox="0 0 24 24" fill="none" xmlns="http://www.w3.org/2000/svg">
<path d="M14.2478 15.7522C12.9947 16.6927 11.4374 17.25 9.75 17.25C9.28056 17.25 8.82119 17.2069 8.37564 17.1244M8.37564 17.1244C7.22712 16.9117 6.17043 16.4373 5.26974 15.7653C5.13095 15.6618 4.99586 15.5536 4.86472 15.4409C3.26391 14.0654 2.25 12.0261 2.25 9.75C2.25 5.60786 5.60786 2.25 9.75 2.25C13.8921 2.25 17.25 5.60786 17.25 9.75C17.25 11.2273 16.8229 12.6049 16.0853 13.7659C15.5974 14.5341 14.9736 15.2074 14.2478 15.7522M14.2478 15.7522L9.28756 20.7124M14.2478 15.7522L14.2501 15.7499M8.37564 17.1244L5.84479 19.6552M3.75 17.25L3.75038 17.2847L5.26974 15.7653M13.5133 20.9867L19.6552 14.8448M19.0873 19.9127L21.75 17.25" stroke="black" stroke-width="1.5" stroke-linecap="round" stroke-linejoin="round"/>
</svg>
