<svg width="24" height="24" viewBox="0 0 24 24" fill="none" xmlns="http://www.w3.org/2000/svg">
<path d="M9.16036 7.38798L15.3398 10.612M9.16036 7.38798C9.37735 6.97293 9.50006 6.5008 9.50006 6C9.50006 4.34315 8.15692 3 6.50006 3C4.84321 3 3.50006 4.34315 3.50006 6C3.50006 7.65685 4.84321 9 6.50006 9C7.65612 9 8.65945 8.3461 9.16036 7.38798ZM15.3398 13.388C15.1228 12.9729 15.0001 12.5008 15.0001 12C15.0001 11.4992 15.1228 11.0271 15.3398 10.612C15.8407 9.6539 16.844 9 18.0001 9C19.6569 9 21.0001 10.3431 21.0001 12C21.0001 13.6569 19.6569 15 18.0001 15C16.844 15 15.8407 14.3461 15.3398 13.388ZM15.3398 13.388L9.16036 16.612M9.16036 16.612C8.65945 15.6539 7.65612 15 6.50006 15C4.84321 15 3.50006 16.3431 3.50006 18C3.50006 19.6569 4.84321 21 6.50006 21C8.15692 21 9.50006 19.6569 9.50006 18C9.50006 17.4992 9.37735 17.0271 9.16036 16.612Z" stroke="black" stroke-width="1.5" stroke-linecap="round" stroke-linejoin="round"/>
</svg>
