<svg width="24" height="24" viewBox="0 0 24 24" fill="none" xmlns="http://www.w3.org/2000/svg">
<path d="M6.75 20.25V21.75M6.75 20.25V14.25M6.75 20.25H9M17.25 21.75V20.25M17.25 20.25V14.25M17.25 20.25H13.5M6.75 14.25V8.25M6.75 14.25H11.25M17.25 14.25V8.25M17.25 14.25H14.25M6.75 8.25V3.75C6.75 2.92157 7.42157 2.25 8.25 2.25H15.75C16.5784 2.25 17.25 2.92157 17.25 3.75V8.25M6.75 8.25H11.25M17.25 8.25H11.25M11.25 8.25C12.0784 8.25 12.75 7.57843 12.75 6.75C12.75 5.92157 12.0784 5.25 11.25 5.25C10.4216 5.25 9.75 5.92157 9.75 6.75C9.75 7.57843 10.4216 8.25 11.25 8.25ZM14.25 14.25V11.25H11.25V14.25M14.25 14.25H11.25M9 20.25H13.5M9 20.25V19.5L11.25 16.5L13.5 19.5V20.25" stroke="black" stroke-width="1.5" stroke-linecap="round" stroke-linejoin="round"/>
</svg>
