<svg width="24" height="24" viewBox="0 0 24 24" fill="none" xmlns="http://www.w3.org/2000/svg">
<path d="M18.3741 20.85C17.0072 20.85 15.8991 19.7419 15.8991 18.375C15.8991 17.0081 17.0072 15.9 18.3741 15.9M18.3741 20.85C19.741 20.85 20.8491 19.7419 20.8491 18.375C20.8491 17.0081 19.741 15.9 18.3741 15.9M18.3741 20.85V22.5M18.3741 15.9V14.25M22.5073 18.3668H20.8573M15.9073 18.3667H14.2573M21.305 21.2862L20.1383 20.1195M16.6381 16.6193L15.4713 15.4525M15.4713 21.2979L16.6381 20.1312M20.1383 16.631L21.305 15.4643M12 21.75C7.12914 20.4216 3.75 15.9974 3.75 10.9487V3.75C3.75 2.92157 4.42157 2.25 5.25 2.25H18.75C19.5784 2.25 20.25 2.92157 20.25 3.75V10.9487C20.25 11.1761 20.2431 11.4023 20.2296 11.6269" stroke="black" stroke-width="1.5" stroke-miterlimit="1.78829" stroke-linecap="round" stroke-linejoin="round"/>
</svg>
