<svg width="24" height="24" viewBox="0 0 24 24" fill="none" xmlns="http://www.w3.org/2000/svg">
<path d="M16.5 7.5H18.0768C18.8746 7.5 19.5328 8.12447 19.5748 8.92116L19.7088 11.4682M16.5 7.5V6.75C16.5 4.26472 14.4852 2.25 12 2.25C9.51467 2.25 7.49995 4.26472 7.49995 6.75V7.5M16.5 7.5H7.49995M7.49995 7.5H5.92308C5.12529 7.5 4.46709 8.12447 4.42515 8.92116L3.83305 20.1712C3.78788 21.0294 4.47158 21.75 5.33098 21.75H12.3866M16.4015 11.4404C16.466 11.1371 16.5 10.8225 16.5 10.5M7.49995 10.5C7.49995 12.9692 9.48866 14.9739 11.9517 14.9997M14.25 18.75L17.1439 21.6439C17.2025 21.7025 17.2974 21.7025 17.356 21.6439L22.2656 16.7344" stroke="black" stroke-width="1.5" stroke-miterlimit="1.78829" stroke-linecap="round" stroke-linejoin="round"/>
</svg>
