<svg width="24" height="24" viewBox="0 0 24 24" fill="none" xmlns="http://www.w3.org/2000/svg">
<path d="M16.5 7.5H18.0768C18.8746 7.5 19.5328 8.12447 19.5748 8.92116L20.1669 20.1712C20.212 21.0294 19.5283 21.75 18.6689 21.75H5.33098C4.47158 21.75 3.78788 21.0294 3.83305 20.1712L4.42515 8.92116C4.46709 8.12447 5.12529 7.5 5.92308 7.5H7.49995M16.5 7.5V6.75C16.5 4.26472 14.4852 2.25 12 2.25C9.51467 2.25 7.49995 4.26472 7.49995 6.75V7.5M16.5 7.5H7.49995M16.5 10.5C16.5 12.9853 14.4852 15 12 15C9.51467 15 7.49995 12.9853 7.49995 10.5" stroke="black" stroke-width="1.5" stroke-linecap="round" stroke-linejoin="round"/>
</svg>
