<svg width="24" height="24" viewBox="0 0 24 24" fill="none" xmlns="http://www.w3.org/2000/svg">
<path d="M16.5 7.5H18.0769C18.8747 7.5 19.5329 8.12447 19.5748 8.92116L19.7089 11.4682M16.5 7.5V6.75C16.5 4.26472 14.4853 2.25 12 2.25C9.51473 2.25 7.50001 4.26472 7.50001 6.75V7.5M16.5 7.5H7.50001M7.50001 7.5H5.92314C5.12535 7.5 4.46715 8.12447 4.42522 8.92116L3.83311 20.1712C3.78794 21.0294 4.47164 21.75 5.33104 21.75H12.3867M16.4016 11.4404C16.4661 11.1371 16.5 10.8225 16.5 10.5M7.50001 10.5C7.50001 12.9692 9.48872 14.9739 11.9518 14.9997M15.75 22.5L19.125 19.125M19.125 19.125L22.5 15.75M19.125 19.125L22.5 22.5M19.125 19.125L15.75 15.75" stroke="black" stroke-width="1.5" stroke-miterlimit="1.78829" stroke-linecap="round" stroke-linejoin="round"/>
</svg>
