<svg width="24" height="24" viewBox="0 0 24 24" fill="none" xmlns="http://www.w3.org/2000/svg">
<path d="M12 9.75H17.3787C17.7765 9.75 18.158 9.59196 18.4393 9.31066L19.9393 7.81066C20.5251 7.22487 20.5251 6.27513 19.9393 5.68934L18.4393 4.18934C18.158 3.90804 17.7765 3.75 17.3787 3.75H12M12 9.75H6.74999C5.92156 9.75 5.24999 9.07843 5.24999 8.25V5.25C5.24999 4.42157 5.92156 3.75 6.74999 3.75H12M12 9.75V12.75M12 2.25V3.75M12 12.75H17.25C18.0784 12.75 18.75 13.4216 18.75 14.25V17.25C18.75 18.0784 18.0784 18.75 17.25 18.75H12M12 12.75H6.62131C6.22348 12.75 5.84195 12.908 5.56065 13.1893L4.06065 14.6893C3.47486 15.2751 3.47486 16.2249 4.06065 16.8107L5.56065 18.3107C5.84195 18.592 6.22348 18.75 6.62131 18.75H12M12 18.75V21.75" stroke="black" stroke-width="1.5" stroke-miterlimit="1.78829" stroke-linecap="round" stroke-linejoin="round"/>
</svg>
