<svg width="24" height="24" viewBox="0 0 24 24" fill="none" xmlns="http://www.w3.org/2000/svg">
<path d="M14.6517 14.6514C15.3303 13.9728 15.75 13.0353 15.75 11.9998C15.75 10.9642 15.3303 10.0267 14.6517 9.34811M9.34835 14.6514C8.66973 13.9728 8.25 13.0353 8.25 11.9998C8.25 10.9642 8.66973 10.0267 9.34835 9.34811M18.8943 18.8941C20.6587 17.1296 21.75 14.6921 21.75 11.9998C21.75 9.30737 20.6587 6.86987 18.8943 5.10547M16.773 16.7727C17.9945 15.5512 18.75 13.8637 18.75 11.9998C18.75 10.1358 17.9945 8.4483 16.773 7.22679M5.10571 18.8941C3.34131 17.1296 2.25 14.6921 2.25 11.9998C2.25 9.30737 3.34131 6.86987 5.10571 5.10547M7.22703 16.7727C6.00552 15.5512 5.25 13.8637 5.25 11.9998C5.25 10.1358 6.00552 8.4483 7.22703 7.22679M11.25 11.9998C11.25 11.5855 11.5858 11.2498 12 11.2498C12.4142 11.2498 12.75 11.5855 12.75 11.9998C12.75 12.414 12.4142 12.7498 12 12.7498C11.5858 12.7498 11.25 12.414 11.25 11.9998Z" stroke="black" stroke-width="1.5" stroke-miterlimit="1.78829" stroke-linecap="round" stroke-linejoin="round"/>
</svg>
