<svg width="24" height="24" viewBox="0 0 24 24" fill="none" xmlns="http://www.w3.org/2000/svg">
<path d="M11.25 9H20.25C21.0784 9 21.75 9.67157 21.75 10.5V18.75C21.75 19.5784 21.0784 20.25 20.25 20.25H3.75C2.92157 20.25 2.25 19.5784 2.25 18.75V10.5C2.25 9.67157 2.92157 9 3.75 9H8.25M11.25 9V7.5M11.25 9H9.75M8.25 9V7.5M8.25 9H9.75M9.75 9V6C9.75 4.34315 11.0931 3 12.75 3C14.4069 3 15.75 4.34315 15.75 6M5.25 13.5V14.25C5.25 15.9069 6.59315 17.25 8.25 17.25H15.75C17.4069 17.25 18.75 15.9069 18.75 14.25V13.5M12.75 12.75C12.75 12.3358 12.4142 12 12 12C11.5858 12 11.25 12.3358 11.25 12.75C11.25 13.1642 11.5858 13.5 12 13.5C12.4142 13.5 12.75 13.1642 12.75 12.75Z" stroke="black" stroke-width="1.5" stroke-linecap="round" stroke-linejoin="round"/>
</svg>
