<svg width="24" height="24" viewBox="0 0 24 24" fill="none" xmlns="http://www.w3.org/2000/svg">
<path d="M9 21.75H7.48622C6.81313 21.75 5.94263 21.265 5.94265 20.6667C5.94267 20.0684 5.50448 19.5833 4.83139 19.5833C4.36978 19.5833 3.94777 19.3515 3.74132 18.9845C3.56974 18.6795 3.56973 18.3205 3.74131 18.0155C3.94777 17.6485 3.90323 17.2093 3.62625 16.881L2.89053 16.0091C2.47476 15.5164 2.25 14.4467 2.25 13.8308C2.25 12.9902 2.52991 11.4185 3.05444 10.7191C3.27128 10.355 3.33406 9.91705 3.25458 9.52948C2.25 3.75 7.87692 2.25 12 2.25C16.1231 2.25 21.75 3.75 20.7454 9.5295C20.6795 9.94716 20.7507 10.386 20.9455 10.7191C21.4701 11.4185 21.75 12.9902 21.75 13.8308C21.75 14.4467 21.5252 15.5164 21.1095 16.0091L20.3738 16.881C20.0968 17.2093 20.0523 17.6485 20.2587 18.0155C20.4303 18.3205 20.4303 18.6795 20.2587 18.9845C20.0523 19.3515 19.6303 19.5833 19.1686 19.5833C18.4955 19.5833 18.0574 20.0684 18.0574 20.6667C18.0574 21.265 17.1869 21.75 16.5138 21.75H15M9 21.75V20.125M9 21.75H12M15 21.75V20.125M15 21.75H12M12 21.75V20.125M11.3907 17.4167C11.7272 17.1175 12.2729 17.1175 12.6094 17.4167M18.3601 13.8791C18.3601 12.5877 17.2539 11.5831 15.81 11.7257C14.472 11.8578 13.3513 12.929 13.5 14.1183C13.663 15.4222 15.0819 16.2992 16.5138 15.981C17.5989 15.7399 18.3601 14.8733 18.3601 13.8791ZM10.5 14.1183C10.6487 12.929 9.52796 11.8578 8.19 11.7257C6.74611 11.5831 5.63991 12.5877 5.63991 13.8791C5.63991 14.8733 6.40113 15.7399 7.48622 15.9811C8.91807 16.2992 10.337 15.4222 10.5 14.1183Z" stroke="black" stroke-width="1.5" stroke-linecap="round" stroke-linejoin="round"/>
</svg>
