<svg width="24" height="24" viewBox="0 0 24 24" fill="none" xmlns="http://www.w3.org/2000/svg">
<path d="M6.75 17.25V21.75M6.75 17.25C7.99264 17.25 9 16.2426 9 15C9 13.7574 7.99264 12.75 6.75 12.75M6.75 17.25C5.50736 17.25 4.5 16.2426 4.5 15C4.5 13.7574 5.50736 12.75 6.75 12.75M6.75 12.75V2.25M17.25 6.75V2.25M17.25 6.75C16.0074 6.75 15 7.75736 15 9C15 10.2426 16.0074 11.25 17.25 11.25C18.4926 11.25 19.5 10.2426 19.5 9C19.5 7.75736 18.4926 6.75 17.25 6.75ZM18.3743 20.85C17.0074 20.85 15.8993 19.7419 15.8993 18.375C15.8993 17.0081 17.0074 15.9 18.3743 15.9M18.3743 20.85C19.7412 20.85 20.8493 19.7419 20.8493 18.375C20.8493 17.0081 19.7412 15.9 18.3743 15.9M18.3743 20.85V22.5M18.3743 15.9V14.25M22.5075 18.3668H20.8575M15.9075 18.3667H14.2575M21.3052 21.2862L20.1384 20.1195M16.6383 16.6193L15.4715 15.4525M15.4715 21.2979L16.6383 20.1312M20.1384 16.631L21.3052 15.4643" stroke="black" stroke-width="1.5" stroke-miterlimit="1.78829" stroke-linecap="round" stroke-linejoin="round"/>
</svg>
