<svg width="24" height="24" viewBox="0 0 24 24" fill="none" xmlns="http://www.w3.org/2000/svg">
<path d="M17.25 6.75H21.75M17.25 6.75C17.25 7.99264 16.2426 9 15 9C13.7574 9 12.75 7.99264 12.75 6.75M17.25 6.75C17.25 5.50736 16.2426 4.5 15 4.5C13.7574 4.5 12.75 5.50736 12.75 6.75M12.75 6.75H2.25M6.75 17.25H2.25M6.75 17.25C6.75 16.0074 7.75736 15 9 15C10.2426 15 11.25 16.0074 11.25 17.25C11.25 18.4926 10.2426 19.5 9 19.5C7.75736 19.5 6.75 18.4926 6.75 17.25ZM14.25 18.75L17.1439 21.6439C17.2025 21.7025 17.2975 21.7025 17.3561 21.6439L22.2656 16.7344" stroke="black" stroke-width="1.5" stroke-miterlimit="1.78829" stroke-linecap="round" stroke-linejoin="round"/>
</svg>
