<svg width="24" height="24" viewBox="0 0 24 24" fill="none" xmlns="http://www.w3.org/2000/svg">
<path d="M6.75 17.25V21.75M6.75 17.25C7.99264 17.25 9 16.2426 9 15C9 13.7574 7.99264 12.75 6.75 12.75M6.75 17.25C5.50736 17.25 4.5 16.2426 4.5 15C4.5 13.7574 5.50736 12.75 6.75 12.75M6.75 12.75V2.25M17.25 6.75V2.25M17.25 6.75C16.0074 6.75 15 7.75736 15 9C15 10.2426 16.0074 11.25 17.25 11.25C18.4926 11.25 19.5 10.2426 19.5 9C19.5 7.75736 18.4926 6.75 17.25 6.75ZM15.75 22.5L19.125 19.125M19.125 19.125L22.5 15.75M19.125 19.125L22.5 22.5M19.125 19.125L15.75 15.75" stroke="black" stroke-width="1.5" stroke-miterlimit="1.78829" stroke-linecap="round" stroke-linejoin="round"/>
</svg>
