<svg width="24" height="24" viewBox="0 0 24 24" fill="none" xmlns="http://www.w3.org/2000/svg">
<path d="M6.75 5.65135C7.19126 5.39609 7.70357 5.25 8.25 5.25H15.75C16.2964 5.25 16.8087 5.39609 17.25 5.65135M6.75 5.65135C5.8533 6.17006 5.25 7.13958 5.25 8.25V15.75C5.25 16.8604 5.8533 17.8299 6.75 18.3487M6.75 5.65135V3.75C6.75 2.92157 7.42157 2.25 8.25 2.25H15.75C16.5784 2.25 17.25 2.92157 17.25 3.75V5.65135M6.75 18.3487C7.19126 18.6039 7.70357 18.75 8.25 18.75H15.75C16.2964 18.75 16.8087 18.6039 17.25 18.3487C18.1467 17.8299 18.75 16.8604 18.75 15.75V8.25C18.75 7.13958 18.1467 6.17006 17.25 5.65135M6.75 18.3487V20.25C6.75 21.0784 7.42157 21.75 8.25 21.75H15.75C16.5784 21.75 17.25 21.0784 17.25 20.25L17.25 18.3487M15.77 11.0604C15.77 13.0237 13.1317 14.7817 12.2692 15.304C12.1019 15.4053 11.8981 15.4053 11.7308 15.304C10.8683 14.7817 8.23004 13.0236 8.23004 11.0603C8.23004 8.50638 11.215 8.42303 11.935 10.2791C11.9563 10.334 12.0437 10.334 12.065 10.2791C12.785 8.42303 15.77 8.50643 15.77 11.0604Z" stroke="black" stroke-width="1.5" stroke-miterlimit="1.78829" stroke-linecap="round" stroke-linejoin="round"/>
</svg>
