<svg width="24" height="24" viewBox="0 0 24 24" fill="none" xmlns="http://www.w3.org/2000/svg">
<path d="M16.875 9.375L14.25 12L16.875 14.625L19.5 12M12 4.5L9.375 7.125L12 9.75L14.625 7.125C15.2463 6.50368 16.2537 6.50368 16.875 7.125C17.4963 7.74632 17.4963 8.75368 16.875 9.375M16.875 9.375L19.5 12M14.625 7.125L12 4.5M19.5 12L20.1967 11.3033C21.1913 10.3087 21.75 8.95982 21.75 7.5533C21.75 4.62437 19.3756 2.25 16.4467 2.25C15.0402 2.25 13.6913 2.80874 12.6967 3.8033L12 4.5M11.25 19.5H6.75M11.25 19.5C11.25 20.7426 12.2574 21.75 13.5 21.75C14.7426 21.75 15.75 20.7426 15.75 19.5C15.75 18.2574 14.7426 17.25 13.5 17.25C12.2574 17.25 11.25 18.2574 11.25 19.5ZM6.75 19.5C6.75 18.2574 5.74264 17.25 4.5 17.25M6.75 19.5C6.75 20.7426 5.74264 21.75 4.5 21.75C3.25736 21.75 2.25 20.7426 2.25 19.5C2.25 18.2574 3.25736 17.25 4.5 17.25M4.5 17.25V12.75M4.5 12.75C5.74264 12.75 6.75 11.7426 6.75 10.5C6.75 9.25736 5.74264 8.25 4.5 8.25C3.25736 8.25 2.25 9.25736 2.25 10.5C2.25 11.7426 3.25736 12.75 4.5 12.75Z" stroke="black" stroke-width="1.5" stroke-linecap="round" stroke-linejoin="round"/>
</svg>
