<svg width="24" height="24" viewBox="0 0 24 24" fill="none" xmlns="http://www.w3.org/2000/svg">
<path d="M2.25 17.25V21.75H6.75M2.25 17.25V12.75H6.75M2.25 17.25H6.75M11.25 17.25V12.75H6.75M11.25 17.25V21.75H6.75M11.25 17.25H6.75M6.75 17.25V12.75M6.75 17.25V21.75M16.875 9.375L14.25 12L16.875 14.625L19.5 12M12 4.5L9.375 7.125L12 9.75L14.625 7.125C15.2463 6.50368 16.2537 6.50368 16.875 7.125C17.4963 7.74632 17.4963 8.75368 16.875 9.375M16.875 9.375L19.5 12M14.625 7.125L12 4.5M19.5 12L20.1967 11.3033C21.1913 10.3087 21.75 8.95982 21.75 7.5533C21.75 4.62437 19.3756 2.25 16.4467 2.25C15.0402 2.25 13.6913 2.80874 12.6967 3.8033L12 4.5" stroke="black" stroke-width="1.5" stroke-linecap="round" stroke-linejoin="round"/>
</svg>
