<svg width="24" height="24" viewBox="0 0 24 24" fill="none" xmlns="http://www.w3.org/2000/svg">
<path d="M12 2.25V6.75M12 6.75L8.99996 3.75M12 6.75L15 3.75M12 6.75V12M12 12V17.25M12 12L16.5466 9.375M12 12L7.45332 14.625M12 12L16.5466 14.6252M12 12L7.4533 9.37517M12 17.25V21.75M12 17.25L15 20.25M12 17.25L8.99996 20.25M20.4437 7.125L16.5466 9.375M16.5466 9.375L17.6447 5.27692M16.5466 9.375L20.6447 10.4731M7.45332 14.625L3.55621 16.875M7.45332 14.625L6.35525 18.7231M7.45332 14.625L3.35525 13.5269M20.4437 16.8752L16.5466 14.6252M16.5466 14.6252L20.6446 13.5271M16.5466 14.6252L17.6446 18.7233M7.4533 9.37517L3.55619 7.12517M7.4533 9.37517L3.35522 10.4733M7.4533 9.37517L6.35522 5.2771" stroke="black" stroke-width="1.5" stroke-linecap="round" stroke-linejoin="round"/>
</svg>
