<svg width="24" height="24" viewBox="0 0 24 24" fill="none" xmlns="http://www.w3.org/2000/svg">
<path d="M6 17.25H18M6 17.25V13.5M6 17.25H3.75M18 17.25V13.5M18 17.25H20.25M6 13.5V9.75C6 8.92157 5.32843 8.25 4.5 8.25M6 13.5H18M18 13.5V9.75C18 8.92157 18.6716 8.25 19.5 8.25M3.75 17.25V18.75M3.75 17.25C2.92157 17.25 2.25 16.5784 2.25 15.75V9.75C2.25 8.92157 2.92157 8.25 3.75 8.25H4.5M20.25 17.25V18.75M20.25 17.25C21.0784 17.25 21.75 16.5784 21.75 15.75V9.75C21.75 8.92157 21.0784 8.25 20.25 8.25H19.5M19.5 8.25V6.75C19.5 5.92157 18.8284 5.25 18 5.25H6C5.17157 5.25 4.5 5.92157 4.5 6.75V8.25" stroke="black" stroke-width="1.5" stroke-linecap="round" stroke-linejoin="round"/>
</svg>
