<svg width="24" height="24" viewBox="0 0 24 24" fill="none" xmlns="http://www.w3.org/2000/svg">
<path d="M18 21.75C17.6795 19.8272 16.1728 18.3205 14.25 18C16.1728 17.6795 17.6795 16.1728 18 14.25C18.3205 16.1728 19.8272 17.6795 21.75 18C19.8272 18.3205 18.3205 19.8272 18 21.75Z" stroke="black" stroke-width="1.5" stroke-miterlimit="1.78829" stroke-linecap="round" stroke-linejoin="round"/>
<path d="M10.0288 15.5773L9.75 17.25L9.47121 15.5773C8.99705 12.7323 6.76769 10.5029 3.92275 10.0288L2.25 9.75L3.92274 9.47121C6.76769 8.99705 8.99705 6.76769 9.47121 3.92275L9.75 2.25L10.0288 3.92274C10.5029 6.76769 12.7323 8.99705 15.5773 9.47121L17.25 9.75L15.5773 10.0288C12.7323 10.5029 10.5029 12.7323 10.0288 15.5773Z" stroke="black" stroke-width="1.5" stroke-miterlimit="1.78829" stroke-linecap="round" stroke-linejoin="round"/>
</svg>
