<svg width="24" height="24" viewBox="0 0 24 24" fill="none" xmlns="http://www.w3.org/2000/svg">
<path d="M16.1517 9.34835C16.8304 10.027 17.2501 10.9645 17.2501 12C17.2501 13.0355 16.8304 13.973 16.1517 14.6517M18.2731 7.22703C19.4946 8.44854 20.2501 10.136 20.2501 12C20.2501 13.864 19.4946 15.5515 18.2731 16.773M12.75 5.25V18.75C12.75 19.5784 12.0784 20.25 11.25 20.25H5.25C4.42157 20.25 3.75 19.5784 3.75 18.75V5.25C3.75 4.42157 4.42157 3.75 5.25 3.75H11.25C12.0784 3.75 12.75 4.42157 12.75 5.25ZM6.75 14.25V15.75C6.75 16.5784 7.42157 17.25 8.25 17.25C9.07843 17.25 9.75 16.5784 9.75 15.75V14.25C9.75 13.4216 9.07843 12.75 8.25 12.75C7.42157 12.75 6.75 13.4216 6.75 14.25ZM9.75 8.25C9.75 7.42157 9.07843 6.75 8.25 6.75C7.42157 6.75 6.75 7.42157 6.75 8.25C6.75 9.07843 7.42157 9.75 8.25 9.75C9.07843 9.75 9.75 9.07843 9.75 8.25Z" stroke="black" stroke-width="1.5" stroke-linecap="round" stroke-linejoin="round"/>
</svg>
