<svg width="24" height="24" viewBox="0 0 24 24" fill="none" xmlns="http://www.w3.org/2000/svg">
<path d="M14.25 8.25L18 12M18 12L21.75 15.75M18 12L14.25 15.75M18 12L21.75 8.25M11.25 5.25V18.75C11.25 19.5784 10.5784 20.25 9.75 20.25H3.75C2.92157 20.25 2.25 19.5784 2.25 18.75V5.25C2.25 4.42157 2.92157 3.75 3.75 3.75H9.75C10.5784 3.75 11.25 4.42157 11.25 5.25ZM5.25 14.25V15.75C5.25 16.5784 5.92157 17.25 6.75 17.25C7.57843 17.25 8.25 16.5784 8.25 15.75V14.25C8.25 13.4216 7.57843 12.75 6.75 12.75C5.92157 12.75 5.25 13.4216 5.25 14.25ZM8.25 8.25C8.25 7.42157 7.57843 6.75 6.75 6.75C5.92157 6.75 5.25 7.42157 5.25 8.25C5.25 9.07843 5.92157 9.75 6.75 9.75C7.57843 9.75 8.25 9.07843 8.25 8.25Z" stroke="black" stroke-width="1.5" stroke-linecap="round" stroke-linejoin="round"/>
</svg>
