<svg width="24" height="24" viewBox="0 0 24 24" fill="none" xmlns="http://www.w3.org/2000/svg">
<path d="M17.6517 9.34835C18.3303 10.027 18.7501 10.9645 18.7501 12C18.7501 13.0355 18.3303 13.973 17.6517 14.6517M14.25 5.25V18.75C14.25 19.5784 13.5784 20.25 12.75 20.25H6.75C5.92157 20.25 5.25 19.5784 5.25 18.75V5.25C5.25 4.42157 5.92157 3.75 6.75 3.75H12.75C13.5784 3.75 14.25 4.42157 14.25 5.25ZM8.25 14.25V15.75C8.25 16.5784 8.92157 17.25 9.75 17.25C10.5784 17.25 11.25 16.5784 11.25 15.75V14.25C11.25 13.4216 10.5784 12.75 9.75 12.75C8.92157 12.75 8.25 13.4216 8.25 14.25ZM11.25 8.25C11.25 7.42157 10.5784 6.75 9.75 6.75C8.92157 6.75 8.25 7.42157 8.25 8.25C8.25 9.07843 8.92157 9.75 9.75 9.75C10.5784 9.75 11.25 9.07843 11.25 8.25Z" stroke="black" stroke-width="1.5" stroke-linecap="round" stroke-linejoin="round"/>
</svg>
