<svg width="24" height="24" viewBox="0 0 24 24" fill="none" xmlns="http://www.w3.org/2000/svg">
<path d="M14.6517 9.34835C15.3303 10.027 15.75 10.9645 15.75 12C15.75 13.0355 15.3303 13.973 14.6517 14.6517M16.773 7.22703C17.9945 8.44854 18.75 10.136 18.75 12C18.75 13.864 17.9945 15.5515 16.773 16.773M18.8943 5.10571C20.6587 6.87012 21.75 9.30762 21.75 12C21.75 14.6924 20.6587 17.1299 18.8943 18.8943M11.2499 5.25V18.75C11.2499 19.5784 10.5784 20.25 9.74994 20.25H3.74994C2.92151 20.25 2.24994 19.5784 2.24994 18.75V5.25C2.24994 4.42157 2.92151 3.75 3.74994 3.75H9.74994C10.5784 3.75 11.2499 4.42157 11.2499 5.25ZM5.24994 14.25V15.75C5.24994 16.5784 5.92151 17.25 6.74994 17.25C7.57837 17.25 8.24994 16.5784 8.24994 15.75V14.25C8.24994 13.4216 7.57837 12.75 6.74994 12.75C5.92151 12.75 5.24994 13.4216 5.24994 14.25ZM8.24994 8.25C8.24994 7.42157 7.57837 6.75 6.74994 6.75C5.92151 6.75 5.24994 7.42157 5.24994 8.25C5.24994 9.07843 5.92151 9.75 6.74994 9.75C7.57837 9.75 8.24994 9.07843 8.24994 8.25Z" stroke="black" stroke-width="1.5" stroke-linecap="round" stroke-linejoin="round"/>
</svg>
