<svg width="24" height="24" viewBox="0 0 24 24" fill="none" xmlns="http://www.w3.org/2000/svg">
<path d="M12 15L12.2634 14.2976M12.2634 14.2976L14.25 9M12.2634 14.2976C12.5477 14.4042 12.75 14.6785 12.75 15C12.75 15.4142 12.4142 15.75 12 15.75C11.5858 15.75 11.25 15.4142 11.25 15C11.25 14.5858 11.5858 14.25 12 14.25C12.0927 14.25 12.1815 14.2668 12.2634 14.2976ZM5.04594 6.54594C3.31847 8.27342 2.25 10.6599 2.25 13.2959C2.25 13.364 2.25073 13.4321 2.25218 13.5C2.30467 15.9578 3.30388 18.3039 5.04594 20.0459L5.22 20.22C5.23921 20.2392 5.26526 20.25 5.29243 20.25H18.7076C18.7347 20.25 18.7608 20.2392 18.78 20.22L18.9541 20.0459C20.6961 18.3039 21.6953 15.9578 21.7478 13.5C21.7493 13.4321 21.75 13.364 21.75 13.2959C21.75 10.6599 20.6815 8.27342 18.9541 6.54594C17.2266 4.81847 14.8401 3.75 12.2041 3.75H12M12 3.75H11.7959C9.1599 3.75 6.77342 4.81847 5.04594 6.54594M12 3.75V5.25M5.04594 6.54594L6 7.5M2.25218 13.5H3.75M21.7478 13.5H20.25M18.9541 6.54594L18 7.5" stroke="black" stroke-width="1.5" stroke-linecap="round" stroke-linejoin="round"/>
</svg>
