<svg width="24" height="24" viewBox="0 0 24 24" fill="none" xmlns="http://www.w3.org/2000/svg">
<path d="M21 21.52C20.7235 21.3942 20.469 21.219 20.25 21L20.0303 20.7803C19.6908 20.4408 19.2302 20.25 18.75 20.25C18.2698 20.25 17.8092 20.4408 17.4697 20.7803L17.0303 21.2197C16.6908 21.5592 16.2302 21.75 15.75 21.75C15.2698 21.75 14.8092 21.5592 14.4697 21.2197L14.0303 20.7803C13.6908 20.4408 13.2302 20.25 12.75 20.25C12.2698 20.25 11.8092 20.4408 11.4697 20.7803L11.0303 21.2197C10.6908 21.5592 10.2302 21.75 9.75 21.75C9.26978 21.75 8.80923 21.5592 8.46967 21.2197L8.03033 20.7803C7.69076 20.4408 7.23022 20.25 6.75 20.25C6.26978 20.25 5.80923 20.4408 5.46967 20.7803L5.03033 21.2197C4.69076 21.5592 4.23022 21.75 3.75 21.75C3.48874 21.75 3.2333 21.6935 3 21.5874M7.42103 12L10.0483 3.68037C10.3172 2.82889 11.1071 2.25 12 2.25C12.8929 2.25 13.6828 2.82889 13.9517 3.68038L16.5789 12M7.42103 12L5.99997 16.5M7.42103 12H16.5789M16.5789 12L18 16.5" stroke="black" stroke-width="1.5" stroke-linecap="round" stroke-linejoin="round"/>
</svg>
