<svg width="24" height="24" viewBox="0 0 24 24" fill="none" xmlns="http://www.w3.org/2000/svg">
<path d="M6.75 6.75V3.75C6.75 2.92157 7.42157 2.25 8.25 2.25H17.25C18.0784 2.25 18.75 2.92157 18.75 3.75V6.75M6.75 6.75H18.75M6.75 6.75C5.92157 6.75 5.25 7.42157 5.25 8.25V20.25C5.25 21.0784 5.92157 21.75 6.75 21.75H18.75C19.5784 21.75 20.25 21.0784 20.25 20.25V8.25C20.25 7.42157 19.5784 6.75 18.75 6.75M14.25 13.5C14.25 13.0858 13.9142 12.75 13.5 12.75C13.0858 12.75 12.75 13.0858 12.75 13.5C12.75 13.9142 13.0858 14.25 13.5 14.25C13.9142 14.25 14.25 13.9142 14.25 13.5ZM17.25 18C17.25 17.5858 16.9142 17.25 16.5 17.25C16.0858 17.25 15.75 17.5858 15.75 18C15.75 18.4142 16.0858 18.75 16.5 18.75C16.9142 18.75 17.25 18.4142 17.25 18ZM9 18C9.41421 18 9.75 17.6642 9.75 17.25C9.75 16.8358 9.41421 16.5 9 16.5C8.58579 16.5 8.25 16.8358 8.25 17.25C8.25 17.6642 8.58579 18 9 18Z" stroke="black" stroke-width="1.5" stroke-linecap="round" stroke-linejoin="round"/>
</svg>
