<svg width="24" height="24" viewBox="0 0 24 24" fill="none" xmlns="http://www.w3.org/2000/svg">
<path d="M3.43936 20.6893L3.31068 20.5607C2.72489 19.9749 2.72489 19.0251 3.31068 18.4393L13.1361 8.61392C13.372 8.37806 13.5225 8.0703 13.5639 7.73931L13.7193 6.496C14.0225 4.07031 16.0845 2.25 18.5291 2.25H19.1894C19.8685 2.25 20.5198 2.51978 21 3C21.4802 3.48022 21.75 4.13153 21.75 4.81066V5.47096C21.75 7.91553 19.9297 9.97754 17.504 10.2807L16.2607 10.4362C15.9297 10.4775 15.622 10.6281 15.3861 10.8639L5.56068 20.6893C4.97489 21.2751 4.02514 21.2751 3.43936 20.6893Z" stroke="black" stroke-width="1.5" stroke-linecap="round" stroke-linejoin="round"/>
</svg>
