<svg width="24" height="24" viewBox="0 0 24 24" fill="none" xmlns="http://www.w3.org/2000/svg">
<path d="M10.6299 3.07362C11.1585 1.88789 12.8415 1.88789 13.37 3.07363L15.4885 7.82623C15.5095 7.87338 15.5533 7.90641 15.6044 7.91367L20.294 8.58001C21.5151 8.75353 22.0166 10.2448 21.1484 11.1209L17.7558 14.5447C17.7205 14.5804 17.7053 14.6314 17.7155 14.6806L18.794 19.8931C19.059 21.174 17.6721 22.1567 16.5515 21.4822L12.0773 18.7891C12.0297 18.7604 11.9702 18.7604 11.9227 18.789L7.44057 21.4828C6.31915 22.1567 4.93266 21.1722 5.19938 19.8913L6.28436 14.6807C6.29462 14.6315 6.27948 14.5803 6.24406 14.5446L2.85155 11.1209C1.98338 10.2447 2.48487 8.75353 3.70603 8.58001L8.39556 7.91367C8.44667 7.90641 8.49045 7.87338 8.51147 7.82623L10.6299 3.07362Z" stroke="black" stroke-width="1.5" stroke-linecap="round" stroke-linejoin="round"/>
</svg>
