<svg width="24" height="24" viewBox="0 0 24 24" fill="none" xmlns="http://www.w3.org/2000/svg">
<path d="M9.75 5.2499L11.55 3.8999C12.0444 3.52908 12.75 3.88186 12.75 4.4999V10.4999C12.75 13.3994 10.3995 15.7499 7.5 15.7499M5.25 5.2499L3.45 3.8999C2.95557 3.52908 2.25 3.88186 2.25 4.4999V10.4999C2.25 13.3994 4.60051 15.7499 7.5 15.7499M7.5 15.7499C6.75 20.25 18 24.75 19.5 11.25M19.5 11.25C20.7426 11.25 21.75 10.2426 21.75 9C21.75 7.75736 20.7426 6.75 19.5 6.75C18.2574 6.75 17.25 7.75736 17.25 9C17.25 10.2426 18.2574 11.25 19.5 11.25Z" stroke="black" stroke-width="1.5" stroke-linecap="round" stroke-linejoin="round"/>
</svg>
