<svg width="24" height="24" viewBox="0 0 24 24" fill="none" xmlns="http://www.w3.org/2000/svg">
<path d="M12 15.75L10.35 17.95C9.96053 18.4693 9.75 19.1009 9.75 19.75V21.75M12 15.75V11.25M12 15.75L13.8642 16.4957C15.0031 16.9513 15.75 18.0544 15.75 19.2811V20.25M12 9.75V11.25M12 9.75C14.0711 9.75 15.75 8.07107 15.75 6C15.75 3.92893 14.0711 2.25 12 2.25C9.92893 2.25 8.25 3.92893 8.25 6C8.25 8.07107 9.92893 9.75 12 9.75ZM12 11.25L11.4656 11.5706C9.63852 12.6669 7.27843 12.2046 6 10.5M12 11.25C13.9836 12.4402 16.5615 11.6066 17.4727 9.48038L18 8.25" stroke="black" stroke-width="1.5" stroke-miterlimit="1.78829" stroke-linecap="round" stroke-linejoin="round"/>
</svg>
