<svg width="24" height="24" viewBox="0 0 24 24" fill="none" xmlns="http://www.w3.org/2000/svg">
<path d="M10.8875 15.75L12.6213 17.4838C13.1839 18.0464 13.5 18.8095 13.5 19.6051V21.75M12.2942 10.5L10.8875 15.75L10.2337 18.1901C10.1346 18.56 9.96561 18.9074 9.73589 19.2137L7.83365 21.75M12.5292 9.62312C10.9287 9.19536 9.75 7.73533 9.75 6C9.75 3.92893 11.4289 2.25 13.5 2.25C15.5711 2.25 17.25 3.92893 17.25 6C17.25 8.07107 15.5711 9.75 13.5 9.75C13.1643 9.75 12.8388 9.70588 12.5292 9.62312ZM12.5292 9.62312L12.2942 10.5M12.2942 10.5L9.70508 11.1938C9.24178 11.3179 8.81501 11.5513 8.46054 11.8744L7.5 12.75M12.2942 10.5L13.353 11.7181C13.9228 12.3736 14.7487 12.75 15.6172 12.75H16.5" stroke="black" stroke-width="1.5" stroke-miterlimit="1.78829" stroke-linecap="round" stroke-linejoin="round"/>
</svg>
