<svg width="24" height="24" viewBox="0 0 24 24" fill="none" xmlns="http://www.w3.org/2000/svg">
<path d="M10.1375 15.75L11.8713 17.4838C12.4339 18.0464 12.75 18.8095 12.75 19.6051V21.75M10.5 14.397L10.1375 15.75L9.48366 18.1901C9.38457 18.56 9.2156 18.9074 8.98588 19.2137L7.08365 21.75M11.7792 9.62312C10.1787 9.19536 9 7.73533 9 6C9 3.92893 10.6789 2.25 12.75 2.25C14.8211 2.25 16.5 3.92893 16.5 6C16.5 8.07107 14.8211 9.75 12.75 9.75C12.4143 9.75 12.0888 9.70588 11.7792 9.62312ZM10.5 14.397L11.5442 10.5L11.7792 9.62312M11.7792 9.62312L10.6295 9.17579C9.36675 8.68449 7.95941 9.41249 7.63079 10.727L7.42142 11.5645C7.07518 12.9494 8.08962 14.3025 9.5161 14.3584L10.5 14.397M11.5442 10.5L12.603 11.7181C13.1728 12.3736 13.9987 12.75 14.8672 12.75H15.75M15.4863 11.7181L15.75 12.75L17.25 21.75" stroke="black" stroke-width="1.5" stroke-miterlimit="1.78829" stroke-linecap="round" stroke-linejoin="round"/>
</svg>
