<svg width="24" height="24" viewBox="0 0 24 24" fill="none" xmlns="http://www.w3.org/2000/svg">
<path d="M12 9.75V12M12 9.75C14.0711 9.75 15.75 8.07107 15.75 6C15.75 3.92893 14.0711 2.25 12 2.25C9.92892 2.25 8.24999 3.92893 8.24999 6C8.24999 8.07107 9.92892 9.75 12 9.75ZM12 12V17.25M12 12L12.9185 12.6889C14.1128 13.5846 15.7841 13.4659 16.8398 12.4102L17.25 12M12 12L11.0814 12.6888C9.88706 13.5846 8.21577 13.4658 7.1601 12.4102L6.74991 12M12 17.25L8.95863 18.3559C7.52012 18.879 7.69694 20.9676 9.20292 21.2414L12 21.75L14.7971 21.2414C16.303 20.9676 16.4798 18.879 15.0413 18.3559L12 17.25Z" stroke="black" stroke-width="1.5" stroke-miterlimit="1.78829" stroke-linecap="round" stroke-linejoin="round"/>
</svg>
