<svg width="24" height="24" viewBox="0 0 24 24" fill="none" xmlns="http://www.w3.org/2000/svg">
<path d="M12 15.75L10.35 17.95C9.96053 18.4693 9.75 19.1009 9.75 19.75V21.75M12 15.75L13.65 17.95C14.0395 18.4693 14.25 19.1009 14.25 19.75V21.75M12 15.75V10.5M9 15V13.8541C9 12.7178 9.64201 11.679 10.6584 11.1708L12 10.5M12 9.75V10.5M12 9.75C14.0711 9.75 15.75 8.07107 15.75 6C15.75 3.92893 14.0711 2.25 12 2.25C9.92893 2.25 8.25 3.92893 8.25 6C8.25 8.07107 9.92893 9.75 12 9.75ZM12 10.5L12.9185 11.1889C14.1129 12.0846 15.7841 11.9659 16.8398 10.9102L17.25 10.5" stroke="black" stroke-width="1.5" stroke-miterlimit="1.78829" stroke-linecap="round" stroke-linejoin="round"/>
</svg>
