<svg width="24" height="24" viewBox="0 0 24 24" fill="none" xmlns="http://www.w3.org/2000/svg">
<path d="M9.75 14.25L7.55 12.6C7.03071 12.2105 6.39911 12 5.75 12H3.75M9.75 14.25L11.1213 15.6213C11.6839 16.1839 12 16.947 12 17.7426V21.75M9.75 14.25L13.4318 9.75M13.4318 9.75L10.8671 9.22757C10.1475 9.08097 9.50661 8.67548 9.06595 8.08794L7.5 6M13.4318 9.75L15.5974 11.8674C16.1746 12.4318 16.5 13.2051 16.5 14.0124V15.75M13.4318 9.75L14.1253 8.90243M14.1253 8.90243C13.2857 8.21472 12.75 7.16992 12.75 6C12.75 3.92893 14.4289 2.25 16.5 2.25C18.5711 2.25 20.25 3.92893 20.25 6C20.25 8.07107 18.5711 9.75 16.5 9.75C15.5989 9.75 14.772 9.43214 14.1253 8.90243Z" stroke="black" stroke-width="1.5" stroke-miterlimit="1.78829" stroke-linecap="round" stroke-linejoin="round"/>
</svg>
