<svg width="24" height="24" viewBox="0 0 24 24" fill="none" xmlns="http://www.w3.org/2000/svg">
<path d="M9.68781 16.5H12.75C13.5784 16.5 14.25 17.1716 14.25 18V20.25M9.68781 16.5L4.5 21.6878M9.68781 16.5L13.1519 10.5M13.8747 9.24814C12.754 8.5997 12 7.3879 12 6C12 3.92893 13.6789 2.25 15.75 2.25C17.8211 2.25 19.5 3.92893 19.5 6C19.5 8.07107 17.8211 9.75 15.75 9.75C15.0668 9.75 14.4263 9.56732 13.8747 9.24814ZM13.8747 9.24814L13.1519 10.5M13.1519 10.5H10.6175C10.0119 10.5 9.42051 10.6833 8.92106 11.0257L7.5 12M13.1519 10.5L13.3226 10.9664C13.8499 12.407 15.3791 13.2177 16.8674 12.8456L17.25 12.75" stroke="black" stroke-width="1.5" stroke-miterlimit="1.78829" stroke-linecap="round" stroke-linejoin="round"/>
</svg>
