<svg width="24" height="24" viewBox="0 0 24 24" fill="none" xmlns="http://www.w3.org/2000/svg">
<path d="M3 14.25L9.75 21H15.75C16.5784 21 17.25 20.3284 17.25 19.5V8.25C17.25 7.42157 16.5784 6.75 15.75 6.75H4.5C3.67157 6.75 3 7.42157 3 8.25V14.25ZM9.75 21V15.75C9.75 14.9216 9.07843 14.25 8.25 14.25H3M6.20067 3.75C6.46003 3.30165 6.94479 3 7.5 3H19.5C20.3284 3 21 3.67157 21 4.5V15.75C21 16.3052 20.6984 16.79 20.25 17.0493" stroke="black" stroke-width="1.5" stroke-linecap="round" stroke-linejoin="round"/>
</svg>
