<svg width="24" height="24" viewBox="0 0 24 24" fill="none" xmlns="http://www.w3.org/2000/svg">
<path d="M11.2713 3.0004L11.2642 4.03623C11.2642 4.91109 11.6118 5.75013 12.2304 6.36875C12.8968 7.03517 12.8048 8.14908 11.9551 8.55671C10.391 9.30698 9.17464 9.67712 6.80183 9.55224C3.94159 9.4017 1.6615 12.039 2.31758 14.827L2.41028 15.221C2.58635 15.9692 2.94009 16.6399 3.4214 17.1913C3.62225 17.4214 3.75451 17.7086 3.75451 18.014L3.75451 21.0111M15.0204 3.00024L15.0133 3.39203C15.0133 3.97532 15.245 4.53473 15.6575 4.94715C16.2598 5.5494 17.1451 5.73094 17.9934 5.80732C18.8417 5.88371 20.0181 6.48787 20.7233 7.50649L20.9885 7.8895C22.1956 9.63291 21.9571 12.0161 20.4577 13.5156C17.2232 16.7501 13.1998 18.6516 8.65247 18.7842C8.02987 18.8024 7.51247 19.2975 7.51247 19.9204L7.51247 21.0111" stroke="black" stroke-width="1.5" stroke-linecap="round" stroke-linejoin="round"/>
</svg>
