<svg width="24" height="24" viewBox="0 0 24 24" fill="none" xmlns="http://www.w3.org/2000/svg">
<path d="M21.3838 12.1581C21.9816 10.7919 21.8741 9.16839 20.9885 7.88926L20.7233 7.50625C20.0181 6.48763 18.8417 5.88346 17.9934 5.80708C17.1451 5.73069 16.2598 5.54916 15.6575 4.94691C15.245 4.53448 15.0133 3.97508 15.0133 3.39178L15.0204 3M11.2713 3.00016L11.2642 4.03598C11.2642 4.91085 11.6118 5.74988 12.2304 6.36851C12.8968 7.03493 12.8048 8.14883 11.9551 8.55646C10.391 9.30673 9.17464 9.67688 6.80183 9.55199C3.94159 9.40146 1.6615 12.0387 2.31758 14.8268L2.41028 15.2207C2.58635 15.969 2.94009 16.6396 3.4214 17.191C3.62225 17.4211 3.75451 17.7083 3.75451 18.0137L3.75451 21.0109M11.2686 18.5046C10.4181 18.6637 9.54538 18.7579 8.65247 18.784C8.02987 18.8021 7.51247 19.2972 7.51247 19.9201L7.51247 21.0109M14.25 18.75L17.1439 21.6439C17.2025 21.7025 17.2975 21.7025 17.3561 21.6439L22.2656 16.7344" stroke="black" stroke-width="1.5" stroke-miterlimit="1.78829" stroke-linecap="round" stroke-linejoin="round"/>
</svg>
