<svg width="24" height="24" viewBox="0 0 24 24" fill="none" xmlns="http://www.w3.org/2000/svg">
<path d="M12 5.25V2.25M12 5.25C13.9825 5.25 15.8017 5.94929 17.2244 7.11466M12 5.25C10.0175 5.25 8.19829 5.94929 6.77563 7.11466C4.92864 8.62762 3.75 10.9262 3.75 13.5C3.75 18.0563 7.44365 21.75 12 21.75M12 2.25H9M12 2.25H15M8.25 12L12 15L16.5 11.25M17.2244 7.11466L18.75 5.25M17.2244 7.11466C18.5912 8.2343 19.592 9.78417 20.02 11.5574M18.375 22.5V18.375M18.375 18.375V14.25M18.375 18.375H22.5M18.375 18.375H14.25" stroke="black" stroke-width="1.5" stroke-miterlimit="1.78829" stroke-linecap="round" stroke-linejoin="round"/>
</svg>
