<svg width="24" height="24" viewBox="0 0 24 24" fill="none" xmlns="http://www.w3.org/2000/svg">
<path d="M12 5.25V2.25M12 5.25C13.9825 5.25 15.8017 5.94929 17.2244 7.11466M12 5.25C10.0175 5.25 8.19829 5.94929 6.77563 7.11466C4.92864 8.62762 3.75 10.9262 3.75 13.5C3.75 18.0563 7.44365 21.75 12 21.75C16.5563 21.75 20.25 18.0563 20.25 13.5C20.25 10.9262 19.0714 8.62762 17.2244 7.11466M12 2.25H9M12 2.25H15M8.25 12L12 15L16.5 11.25M17.2244 7.11466L18.75 5.25" stroke="black" stroke-width="1.5" stroke-linecap="round" stroke-linejoin="round"/>
</svg>
