<svg width="24" height="24" viewBox="0 0 24 24" fill="none" xmlns="http://www.w3.org/2000/svg">
<path d="M8.25001 9C8.25001 9 8.25001 11.25 5.25001 11.25C4.97569 11.25 4.72646 11.2312 4.50001 11.197M9.75001 3.75L8.25001 9C8.25001 9 8.25001 11.25 12 11.25C15.75 11.25 15.75 9 15.75 9L14.25 3.75M4.50001 11.197C2.90859 10.9568 2.44278 9.95726 2.30643 9.39274C2.24515 9.13899 2.31813 8.88078 2.44765 8.65414L4.81813 4.50579C5.08519 4.03843 5.58221 3.75 6.12049 3.75H9.75001M4.50001 11.197V18.75C4.50001 19.5784 5.17158 20.25 6.00001 20.25H9.75001V15.75C9.75001 14.9216 10.4216 14.25 11.25 14.25H12.75C13.5784 14.25 14.25 14.9216 14.25 15.75V20.25H18C18.8284 20.25 19.5 19.5784 19.5 18.75V11.197M15.75 9C15.75 9 15.75 11.25 18.75 11.25C19.0243 11.25 19.2736 11.2312 19.5 11.197M9.75001 3.75H14.25M14.25 3.75H17.8795C18.4178 3.75 18.9148 4.03843 19.1819 4.50579L21.5524 8.65414C21.6819 8.88079 21.7548 9.1392 21.6935 9.39294C21.5571 9.9575 21.0912 10.9568 19.5 11.197" stroke="black" stroke-width="1.5" stroke-linecap="round" stroke-linejoin="round"/>
</svg>
