<svg width="24" height="24" viewBox="0 0 24 24" fill="none" xmlns="http://www.w3.org/2000/svg">
<path d="M14.25 11.4374L17.625 9.46869M9.79963 11.4664L6.49908 9.54108M12 15V18.3749M3 9.22307V14.7768C3 15.8438 3.56673 16.8305 4.48837 17.3682L10.4884 20.8682C11.4225 21.4131 12.5775 21.4131 13.5116 20.8682L19.5116 17.3682C20.4333 16.8305 21 15.8438 21 14.7768V9.22307C21 8.15606 20.4333 7.16935 19.5116 6.63172L13.5116 3.13179C12.5775 2.58693 11.4225 2.58693 10.4884 3.13179L4.48841 6.63172C3.56674 7.16935 3 8.15606 3 9.22307Z" stroke="black" stroke-width="1.5" stroke-miterlimit="1.78829" stroke-linecap="round" stroke-linejoin="round"/>
</svg>
