<svg width="24" height="24" viewBox="0 0 24 24" fill="none" xmlns="http://www.w3.org/2000/svg">
<path d="M17.25 7.5H21V3M21 7.5C19.1592 4.2786 15.7102 2.25 12 2.25C6.61522 2.25 2.25 6.61522 2.25 12M3 21V16.5H6.75M3 16.5C4.8408 19.7214 8.28975 21.75 12 21.75C17.3848 21.75 21.75 17.3848 21.75 12M11.25 10.5H9.75M9.75 10.5H9M9.75 10.5V9.75C9.75 8.50736 10.7574 7.5 12 7.5C13.2426 7.5 14.25 8.50736 14.25 9.75V10.5M9.75 10.5V13.5M11.25 13.5H9.75M9.75 13.5H9M9.75 13.5V14.25C9.75 15.4926 10.7574 16.5 12 16.5C13.2426 16.5 14.25 15.4926 14.25 14.25V13.5" stroke="black" stroke-width="1.5" stroke-linecap="round" stroke-linejoin="round"/>
</svg>
