<svg width="24" height="24" viewBox="0 0 24 24" fill="none" xmlns="http://www.w3.org/2000/svg">
<path d="M8.25 3.75H18.75C20.4069 3.75 21.75 5.09315 21.75 6.75V17.25M6 16.5H12M15 16.5H16.5M16.5 16.5L12.75 12.75M16.5 16.5L19.9849 19.9849M18 12.75H17.25M12.75 12.75H12M12.75 12.75L4.01513 4.01513M9 12.75H6M19.9849 19.9849C19.6083 20.1552 19.1902 20.25 18.75 20.25H5.25C3.59315 20.25 2.25 18.9069 2.25 17.25V6.75C2.25 5.53335 2.97425 4.48586 4.01513 4.01513M19.9849 19.9849L21.75 21.75M4.01513 4.01513L2.25 2.25" stroke="black" stroke-width="1.5" stroke-linecap="round" stroke-linejoin="round"/>
</svg>
