<svg width="24" height="24" viewBox="0 0 24 24" fill="none" xmlns="http://www.w3.org/2000/svg">
<path d="M2.25 20.2497H5.25M5.25 20.2497H16.5M5.25 20.2497C4.00736 20.2497 3 19.2423 3 17.9997V17.2497M5.25 20.2497C6.49264 20.2497 7.5 19.2423 7.5 17.9997V17.2497M16.5 20.2497H21.75M16.5 20.2497C17.7426 20.2497 18.75 19.2423 18.75 17.9997V17.2497M16.5 20.2497C15.2574 20.2497 14.25 19.2423 14.25 17.9997V17.2497M18.75 17.2497H20.25C21.0784 17.2497 21.75 16.5781 21.75 15.7497V12.7499M18.75 17.2497H14.25M14.25 17.2497H7.5M7.5 17.2497H3M3 17.2497H2.25M8.25 7.49993L2.25 7.49976M8.25 7.49993L12.75 7.49988M8.25 7.49993V12.7499M12.75 7.49988L17.25 7.49981L20.25 7.49978C21.0784 7.49977 21.75 8.17134 21.75 8.99978V12.7499M21.75 12.7499H17.25M2.25 12.7499H12.75M17.25 12.7499V7.49981M17.25 12.7499H12.75M12.75 12.7499V7.49988M3.75 7.49993V12.7499M2.25 3.74976H21.75" stroke="black" stroke-width="1.5" stroke-miterlimit="1.78829" stroke-linecap="round" stroke-linejoin="round"/>
</svg>
