<svg width="24" height="24" viewBox="0 0 24 24" fill="none" xmlns="http://www.w3.org/2000/svg">
<path d="M6.75 6.75H3.75C2.92157 6.75 2.25 7.42157 2.25 8.25V18.75C2.25 19.5784 2.92157 20.25 3.75 20.25H20.25C21.0784 20.25 21.75 19.5784 21.75 18.75V8.25C21.75 7.42157 21.0784 6.75 20.25 6.75H17.25M6.75 6.75L7.49567 4.88583C7.95126 3.74685 9.05439 3 10.2811 3H13.7189C14.9456 3 16.0487 3.74685 16.5043 4.88583L17.25 6.75M6.75 6.75H17.25M12.5752 13.6214L11.8193 16.5246L14.7225 17.2806L15.4784 14.3774L12.5752 13.6214ZM14.8821 13.201L16.2846 15.853L18.9366 14.4506L17.5341 11.7986L14.8821 13.201ZM8.25 11.25C8.25 10.4216 7.57843 9.75 6.75 9.75C5.92157 9.75 5.25 10.4216 5.25 11.25C5.25 12.0784 5.92157 12.75 6.75 12.75C7.57843 12.75 8.25 12.0784 8.25 11.25Z" stroke="black" stroke-width="1.5" stroke-linecap="round" stroke-linejoin="round"/>
</svg>
