<svg width="24" height="24" viewBox="0 0 24 24" fill="none" xmlns="http://www.w3.org/2000/svg">
<path d="M14.25 21H15C16.6569 21 18 19.6569 18 18V14.25M21 17.25L18 14.25L15 17.25M9.75 3H9C7.34315 3 6 4.34315 6 6V9.75M3 6.75L6 9.75L9 6.75M21 4.5V9C21 9.82843 20.3284 10.5 19.5 10.5H15C14.1716 10.5 13.5 9.82843 13.5 9V4.5C13.5 3.67157 14.1716 3 15 3H19.5C20.3284 3 21 3.67157 21 4.5ZM10.5 15V19.5C10.5 20.3284 9.82843 21 9 21H4.5C3.67157 21 3 20.3284 3 19.5V15C3 14.1716 3.67157 13.5 4.5 13.5H9C9.82843 13.5 10.5 14.1716 10.5 15Z" stroke="black" stroke-width="1.5" stroke-linecap="round" stroke-linejoin="round"/>
</svg>
