<svg width="24" height="24" viewBox="0 0 24 24" fill="none" xmlns="http://www.w3.org/2000/svg">
<path d="M16.5 7.5H21V3M21 7.5C19.1592 4.2786 15.7102 2.25 12 2.25C10.4692 2.25 9.02071 2.6028 7.73154 3.23154M3 21V16.5H7.5M3 16.5C4.8408 19.7214 8.28975 21.75 12 21.75C14.6924 21.75 17.1299 20.6587 18.8943 18.8943M2.25 12C2.25 9.30761 3.34131 6.87011 5.10571 5.10571M5.10571 5.10571L2.25 2.25M5.10571 5.10571L18.8943 18.8943M18.8943 18.8943L21.75 21.75M20.7685 16.2685C21.3972 14.9793 21.75 13.5308 21.75 12" stroke="black" stroke-width="1.5" stroke-linecap="round" stroke-linejoin="round"/>
</svg>
