<svg width="24" height="24" viewBox="0 0 24 24" fill="none" xmlns="http://www.w3.org/2000/svg">
<path d="M17.25 2.25L19.5 4.5M19.5 4.5L21.75 6.75M19.5 4.5L15 9M15 9L17.25 11.25M9.75 4.5C10.7435 4.99675 11.6504 5.65042 12.4359 6.43585L12.75 6.75L15 9M17.25 11.25L17.5641 11.5641C18.3496 12.3496 19.0032 13.2565 19.5 14.25M17.25 11.25L15 13.5M5.25 18.75H9.75L10.5 18M5.25 18.75L2.25 21.75M5.25 18.75V14.25L12.75 6.75M10.5 18L9 16.5M10.5 18L12.75 15.75M12.75 15.75L11.25 14.25M12.75 15.75L15 13.5M15 13.5L13.5 12" stroke="black" stroke-width="1.5" stroke-linecap="round" stroke-linejoin="round"/>
</svg>
