<svg width="24" height="24" viewBox="0 0 24 24" fill="none" xmlns="http://www.w3.org/2000/svg">
<path d="M20.8507 11.8797C20.803 11.813 20.7493 11.7493 20.6893 11.6893L12.4393 3.43934C12.158 3.15803 11.7765 3 11.3787 3H6C4.34315 3 3 4.34315 3 6V11.3787C3 11.7765 3.15804 12.158 3.43934 12.4393L11.6893 20.6893C11.7493 20.7493 11.813 20.803 11.8797 20.8507M18.375 22.5V18.375M18.375 18.375V14.25M18.375 18.375H22.5M18.375 18.375H14.25M9 11.25C7.75736 11.25 6.75 10.2426 6.75 9C6.75 7.75736 7.75736 6.75 9 6.75C10.2426 6.75 11.25 7.75736 11.25 9C11.25 10.2426 10.2426 11.25 9 11.25Z" stroke="black" stroke-width="1.5" stroke-miterlimit="1.78829" stroke-linecap="round" stroke-linejoin="round"/>
</svg>
