<svg width="24" height="24" viewBox="0 0 24 24" fill="none" xmlns="http://www.w3.org/2000/svg">
<path fill-rule="evenodd" clip-rule="evenodd" d="M3 6V11.3787C3 11.7765 3.15804 12.158 3.43934 12.4393L11.6893 20.6893C12.2751 21.2751 13.2249 21.2751 13.8107 20.6893L20.6893 13.8107C21.2751 13.2249 21.2751 12.2751 20.6893 11.6893L12.4393 3.43934C12.158 3.15803 11.7765 3 11.3787 3H6C4.34315 3 3 4.34315 3 6ZM6.75 9C6.75 10.2426 7.75736 11.25 9 11.25C10.2426 11.25 11.25 10.2426 11.25 9C11.25 7.75736 10.2426 6.75 9 6.75C7.75736 6.75 6.75 7.75736 6.75 9Z" stroke="black" stroke-width="1.5" stroke-linecap="round" stroke-linejoin="round"/>
</svg>
