<svg width="24" height="24" viewBox="0 0 24 24" fill="none" xmlns="http://www.w3.org/2000/svg">
<path d="M12 5.25V2.25M12 5.25C8.27208 5.25 5.25 8.27208 5.25 12M12 5.25C15.7279 5.25 18.75 8.27208 18.75 12M18.75 12H21.75M18.75 12C18.75 15.7279 15.7279 18.75 12 18.75M5.25 12H2.25M5.25 12C5.25 15.7279 8.27208 18.75 12 18.75M12 18.75V21.75M15 12C15 10.3431 13.6569 9 12 9C10.3431 9 9 10.3431 9 12C9 13.6569 10.3431 15 12 15C13.6569 15 15 13.6569 15 12Z" stroke="black" stroke-width="1.5" stroke-linecap="round" stroke-linejoin="round"/>
</svg>
