<svg width="24" height="24" viewBox="0 0 24 24" fill="none" xmlns="http://www.w3.org/2000/svg">
<path d="M19.5 18.75H20.25C21.0784 18.75 21.75 18.0784 21.75 17.25V13.6771C21.75 13.1089 21.429 12.5895 20.9208 12.3354L19.1972 11.4736C18.9069 11.3285 18.6715 11.0931 18.5264 10.8028L16.9146 7.57918C16.6605 7.071 16.1411 6.75 15.5729 6.75H7.5M19.5 18.75C19.5 19.9926 18.4926 21 17.25 21C16.0074 21 15 19.9926 15 18.75M19.5 18.75C19.5 17.5074 18.4926 16.5 17.25 16.5C16.0074 16.5 15 17.5074 15 18.75M4.5 18.75H3.75C2.92157 18.75 2.25 18.0784 2.25 17.25V13.1041C2.25 12.8712 2.30422 12.6416 2.40836 12.4333L4.83541 7.57918C5.0895 7.071 5.60889 6.75 6.17705 6.75H7.5M4.5 18.75C4.5 17.5074 5.50736 16.5 6.75 16.5C7.99264 16.5 9 17.5074 9 18.75M4.5 18.75C4.5 19.9926 5.50736 21 6.75 21C7.99264 21 9 19.9926 9 18.75M9 18.75H15M13.5 6.75L13.034 4.8862C12.8671 4.21845 12.2671 3.75 11.5788 3.75H9.42116C8.73286 3.75 8.13289 4.21845 7.96595 4.8862L7.5 6.75" stroke="black" stroke-width="1.5" stroke-linecap="round" stroke-linejoin="round"/>
</svg>
