<svg width="24" height="24" viewBox="0 0 24 24" fill="none" xmlns="http://www.w3.org/2000/svg">
<path d="M3 9V15M3 9H1.5M3 9H4.5M7.5 15V12M7.5 12V10.5C7.5 9.67157 8.17157 9 9 9C9.82843 9 10.5 9.67157 10.5 10.5V12M7.5 12H10.5M10.5 12V15M13.5 9V9.25736C13.5 10.053 13.8161 10.8161 14.3787 11.3787L15 12M15 12L15.6213 12.6213C16.1839 13.1839 16.5 13.947 16.5 14.7426V15M15 12L14.3787 12.6213C13.8161 13.1839 13.5 13.947 13.5 14.7426V15M15 12L15.6213 11.3787C16.1839 10.8161 16.5 10.053 16.5 9.25736V9M19.5 9H21M21 9H22.5M21 9V15M21 15H19.5M21 15H22.5M2.25 5.25H21.75M2.25 18.75H21.75" stroke="black" stroke-width="1.5" stroke-linecap="round" stroke-linejoin="round"/>
</svg>
