<svg width="24" height="24" viewBox="0 0 24 24" fill="none" xmlns="http://www.w3.org/2000/svg">
<path d="M6.75 11.25L6.85728 10.9818C7.69844 8.87891 9.73513 7.5 12 7.5M6.75 15.75C6.75 17.4069 8.09315 18.75 9.75 18.75H15.3959C16.5322 18.75 17.571 18.108 18.0792 17.0916L21.75 9.75H20.25L17.25 11.25H6.75M6.75 11.25L5.16057 10.1904C3.91645 9.36097 2.25 10.2528 2.25 11.7481C2.25 12.374 2.56283 12.9586 3.08365 13.3058L6.75 15.75M6.75 11.25V15.75M17.25 11.25L17.1427 10.9818C16.3016 8.87891 14.2649 7.5 12 7.5M12 7.5C11.5858 7.5 11.25 7.16421 11.25 6.75C11.25 6.33579 11.5858 6 12 6C12.4142 6 12.75 6.33579 12.75 6.75C12.75 7.16421 12.4142 7.5 12 7.5Z" stroke="black" stroke-width="1.5" stroke-linecap="round" stroke-linejoin="round"/>
</svg>
