<svg width="24" height="24" viewBox="0 0 24 24" fill="none" xmlns="http://www.w3.org/2000/svg">
<path d="M13.5 15.7501C13.9801 15.7501 14.4251 15.5998 14.7904 15.3436C15.3707 14.9366 15.75 14.2627 15.75 13.5001C15.75 12.4848 15.0775 11.6265 14.1536 11.3465M11.2713 13.8106C11.5356 13.8053 11.7983 13.7018 12 13.5001L14.1536 11.3465L18.3101 7.19007C18.8959 6.60429 18.8959 5.65454 18.3101 5.06875L15.9314 2.69007C15.3456 2.10429 14.3959 2.10429 13.8101 2.69007L7.50002 9.00011C7.0858 9.41432 7.0858 10.0859 7.50002 10.5001M10.5 13.5001L8.56068 15.4395C7.97489 16.0252 7.02514 16.0252 6.43936 15.4395L5.56068 14.5608C4.97489 13.975 4.97489 13.0252 5.56068 12.4395L7.50002 10.5001M10.5 13.5001L7.50002 10.5001M10.5 13.5001C10.7125 13.7126 10.9928 13.8161 11.2713 13.8106M11.2713 13.8106C11.3586 14.4438 11.7095 14.9928 12.2096 15.3436M13.5 15.7501V21.7503M13.5 15.7501C13.0199 15.7501 12.575 15.5998 12.2096 15.3436M12.2096 15.3436L8.25002 21.0003M14.7904 15.3436L18.75 21.0003" stroke="black" stroke-width="1.5" stroke-linecap="round" stroke-linejoin="round"/>
</svg>
