<svg width="24" height="24" viewBox="0 0 24 24" fill="none" xmlns="http://www.w3.org/2000/svg">
<path d="M9.75 18C9.75 19.2426 8.07107 20.25 6 20.25M9.75 18C9.75 16.7574 8.07107 15.75 6 15.75C3.92893 15.75 2.25 16.7574 2.25 18M9.75 18V6.75M6 20.25C3.92893 20.25 2.25 19.2426 2.25 18M6 20.25H20.25C21.0784 20.25 21.75 19.5784 21.75 18.75V8.25C21.75 7.42157 21.0784 6.75 20.25 6.75H9.75M2.25 18V5.25C2.25 4.00736 3.92893 3 6 3C8.07107 3 9.75 4.00736 9.75 5.25V6.75" stroke="black" stroke-width="1.5" stroke-linecap="round" stroke-linejoin="round"/>
</svg>
