<svg width="24" height="24" viewBox="0 0 24 24" fill="none" xmlns="http://www.w3.org/2000/svg">
<path d="M21 15.7566C21.4831 14.6004 21.75 13.3314 21.75 12C21.75 6.61522 17.3848 2.25 12 2.25C6.86758 2.25 2.66139 6.21566 2.27842 11.25C2.25959 11.4975 2.25 11.7476 2.25 12C2.25 12.7744 2.34028 13.5277 2.5109 14.25M21 15.7566C19.5291 19.2765 16.0534 21.75 12 21.75C7.38963 21.75 3.52664 18.55 2.5109 14.25M21 15.7566C12.75 18 12.75 13.5 8.25 12.75C3.75 12 2.5109 14.25 2.5109 14.25M17.25 9C17.25 7.75736 16.2426 6.75 15 6.75C13.7574 6.75 12.75 7.75736 12.75 9C12.75 10.2426 13.7574 11.25 15 11.25C16.2426 11.25 17.25 10.2426 17.25 9Z" stroke="black" stroke-width="1.5" stroke-linecap="round" stroke-linejoin="round"/>
</svg>
