<svg width="24" height="24" viewBox="0 0 24 24" fill="none" xmlns="http://www.w3.org/2000/svg">
<path d="M9.75 18C9.75 19.2426 8.07107 20.25 6 20.25M9.75 18C9.75 16.7574 8.07107 15.75 6 15.75C3.92893 15.75 2.25 16.7574 2.25 18M9.75 18V6.75M6 20.25C3.92893 20.25 2.25 19.2426 2.25 18M6 20.25H20.25C21.0784 20.25 21.75 19.5784 21.75 18.75V8.25M2.25 18V5.25C2.25 4.00736 3.92893 3 6 3C8.07107 3 9.75 4.00736 9.75 5.25V6.75M9.75 6.75H13.5M18.75 2.25L19.0257 3.07697C19.3243 3.97279 20.0272 4.67574 20.923 4.97434L21.75 5.25L20.923 5.52566C20.0272 5.82426 19.3243 6.52721 19.0257 7.42303L18.75 8.25L18.4743 7.42303C18.1757 6.52721 17.4728 5.82426 16.577 5.52566L15.75 5.25L16.577 4.97434C17.4728 4.67574 18.1757 3.97279 18.4743 3.07697L18.75 2.25ZM15.75 9.75L16.0257 10.577C16.3243 11.4728 17.0272 12.1757 17.923 12.4743L18.75 12.75L17.923 13.0257C17.0272 13.3243 16.3243 14.0272 16.0257 14.923L15.75 15.75L15.4744 14.923C15.1758 14.0272 14.4728 13.3243 13.577 13.0257L12.75 12.75L13.577 12.4743C14.4728 12.1757 15.1758 11.4728 15.4744 10.577L15.75 9.75Z" stroke="black" stroke-width="1.5" stroke-linecap="round" stroke-linejoin="round"/>
</svg>
