<svg width="24" height="24" viewBox="0 0 24 24" fill="none" xmlns="http://www.w3.org/2000/svg">
<path fill-rule="evenodd" clip-rule="evenodd" d="M5.25 21.75V2.25H14.25C14.25 2.25 18.75 2.25001 18.75 7.12488C18.75 9.73207 17.2483 10.945 15.8512 11.5092C17.3954 11.9565 19.5 13.1759 19.5 16.5C19.5 21.75 14.25 21.75 14.25 21.75H5.25ZM14.25 3H6V11.25H14.25C14.25 11.25 18 11.2498 18 7.12488C18 3 14.25 3 14.25 3ZM6 21H14.25C14.25 21 18.75 21 18.75 16.5C18.75 12 14.25 12 14.25 12H6V21Z" stroke="black" stroke-width="1.5" stroke-linecap="round" stroke-linejoin="round"/>
</svg>
