<svg width="24" height="24" viewBox="0 0 24 24" fill="none" xmlns="http://www.w3.org/2000/svg">
<path d="M12 19.5H6.00001V15.75H12M12 19.5H21V15.75H12M12 19.5V15.75M12 19.5V21.75M12 15.75V12.75M12 12.75H3V9H12M12 12.75H18V9H12M12 12.75V9M12 9V7.5M12 7.5L10.1893 5.68934C9.90804 5.40804 9.75 5.0265 9.75 4.62868V3.75C9.75 2.92157 10.4216 2.25 11.25 2.25H12.75C13.5784 2.25 14.25 2.92157 14.25 3.75V4.62868C14.25 5.0265 14.092 5.40804 13.8107 5.68934L12 7.5Z" stroke="black" stroke-width="1.5" stroke-linecap="round" stroke-linejoin="round"/>
</svg>
