<svg width="24" height="24" viewBox="0 0 24 24" fill="none" xmlns="http://www.w3.org/2000/svg">
<path d="M5.25 18.75H3L4.33799 8.9381C4.86047 5.10655 8.13299 2.25 12 2.25C15.867 2.25 19.1395 5.10656 19.662 8.9381L21 18.75H18.75M5.25 18.75V20.25C5.25 21.0784 5.92157 21.75 6.75 21.75H17.25C18.0784 21.75 18.75 21.0784 18.75 20.25V18.75M5.25 18.75H18.75M9.64904 13.5878C10.3332 14.0078 11.1383 14.25 12 14.25C14.4853 14.25 16.5 12.2353 16.5 9.75C16.5 8.88833 16.2578 8.08322 15.8378 7.39904M9.64904 13.5878C10.0892 13.6156 10.5386 13.4614 10.875 13.125L15.375 8.625C15.7114 8.28865 15.8656 7.83917 15.8378 7.39904M15.8378 7.39904C15.8142 7.02615 15.66 6.65997 15.375 6.375C15.09 6.09003 14.7239 5.93576 14.351 5.9122C13.9108 5.88438 13.4614 6.03865 13.125 6.375L8.625 10.875C8.28865 11.2114 8.13438 11.6608 8.1622 12.101C8.18576 12.4739 8.34003 12.84 8.625 13.125C8.90997 13.41 9.27615 13.5642 9.64904 13.5878M8.1622 12.101C7.74218 11.4168 7.5 10.6117 7.5 9.75C7.5 7.26472 9.51472 5.25 12 5.25C12.8617 5.25 13.6668 5.49218 14.351 5.9122" stroke="black" stroke-width="1.5" stroke-linecap="round" stroke-linejoin="round"/>
</svg>
