<svg width="24" height="24" viewBox="0 0 24 24" fill="none" xmlns="http://www.w3.org/2000/svg">
<path d="M18.75 12.75V11.25C18.75 10.1396 18.1467 9.17006 17.25 8.65135M18.75 12.75V20.25H2.25V11.25C2.25 10.1396 2.8533 9.17006 3.75 8.65135M18.75 12.75H21.75M15.75 17.25H15M17.25 8.65135C16.8087 8.39609 16.2964 8.25 15.75 8.25H5.25C4.70357 8.25 4.19126 8.39609 3.75 8.65135M17.25 8.65135V5.25C17.25 4.42157 16.5784 3.75 15.75 3.75H5.25C4.42157 3.75 3.75 4.42157 3.75 5.25V8.65135" stroke="black" stroke-width="1.5" stroke-linecap="round" stroke-linejoin="round"/>
</svg>
