<svg width="24" height="24" viewBox="0 0 24 24" fill="none" xmlns="http://www.w3.org/2000/svg">
<path d="M7.5 15.75C9.57107 15.75 11.25 12.7279 11.25 9C11.25 5.27208 9.57107 2.25 7.5 2.25M7.5 15.75C5.42893 15.75 3.75 12.7279 3.75 9M7.5 15.75H15.75M3.75 9C3.75 5.27208 5.42893 2.25 7.5 2.25M3.75 9V20.25C3.75 21.0784 4.42157 21.75 5.25 21.75H14.25C15.0784 21.75 15.75 21.0784 15.75 20.25V15.75M7.5 2.25H17.25C19.3211 2.25 21 5.27208 21 9C21 12.7279 19.3211 15.75 17.25 15.75H15.75M8.25 9C8.25 9 8.25 7.5 7.5 7.5C6.75 7.5 6.75 9 6.75 9C6.75 9 6.75 10.5 7.5 10.5C8.25 10.5 8.25 9 8.25 9Z" stroke="black" stroke-width="1.5" stroke-linecap="round" stroke-linejoin="round"/>
</svg>
