<svg width="24" height="24" viewBox="0 0 24 24" fill="none" xmlns="http://www.w3.org/2000/svg">
<path d="M6.44922 12.4798C4.53557 14.1326 3.07077 16.2877 2.25 18.75L5.25 21.75C8.4148 20.6951 11.0721 18.5762 12.8075 15.8078C13.4021 14.8593 13.8885 13.8344 14.25 12.75L13.125 11.625M13.125 11.625L12.375 10.875M13.125 11.625L13.8748 10.8752M12.375 10.875L11.25 9.75C9.46309 10.3456 7.83796 11.2805 6.44922 12.4798M12.375 10.875L13.1248 10.1252M12.8075 15.8078L18.1287 21.129C18.5265 21.5268 19.0661 21.7503 19.6287 21.7503C20.8002 21.7503 21.75 20.8006 21.75 19.629C21.75 19.0664 21.5265 18.5268 21.1287 18.129L13.8748 10.8752M6.44922 12.4798C5.57953 12.4223 4.61001 12.1101 3.74997 11.25C1.49969 8.99967 2.99997 6 2.99997 6L5.03031 8.03063C5.17097 8.17131 5.36175 8.25034 5.56068 8.25034H7.49999C7.9142 8.25034 8.24999 7.91455 8.24999 7.50034V5.561C8.24999 5.36208 8.17097 5.17132 8.03032 5.03067L5.99999 3.00034C5.99999 3.00034 8.99999 1.50067 11.25 3.75067C13.5 6.00067 12 9.00034 12 9.00034L13.1248 10.1252M13.1248 10.1252L16.5 6.75V4.5L20.25 2.25L21.75 3.75L19.5 7.5H17.25L13.8748 10.8752" stroke="black" stroke-width="1.5" stroke-linecap="round" stroke-linejoin="round"/>
</svg>
