<svg width="24" height="24" viewBox="0 0 24 24" fill="none" xmlns="http://www.w3.org/2000/svg">
<path d="M13.6631 2.70467C16.5048 1.13416 19.7045 3.97117 18.9339 7.37807L17.7362 11.0316C17.7115 11.107 17.6872 11.1825 17.6634 11.2583M13.6631 2.70467C12.6161 3.28327 11.3838 3.28327 10.3369 2.70467C7.49516 1.13416 4.29549 3.97117 5.06606 7.37807L6.07002 11.8168C6.50672 13.2649 7.05835 17.3986 7.05835 17.3986L7.26821 20.807C7.37789 22.0798 9.04426 22.123 9.20786 20.8573C9.41972 19.2181 10.3679 16.888 11.1619 15.4838C11.3486 15.1535 11.6553 14.9826 11.9661 14.971M13.6631 2.70467C12.6159 3.28337 10.5159 4.96733 10.5159 7.52599M14.25 18.75L17.1439 21.6439C17.2025 21.7025 17.2975 21.7025 17.356 21.6439L22.2656 16.7344" stroke="black" stroke-width="1.5" stroke-miterlimit="1.78829" stroke-linecap="round" stroke-linejoin="round"/>
</svg>
