<svg width="24" height="24" viewBox="0 0 24 24" fill="none" xmlns="http://www.w3.org/2000/svg">
<path d="M13.6631 2.70467C16.5048 1.13416 19.7045 3.97117 18.9339 7.37807L17.7362 11.0316C17.209 12.6397 16.8853 14.3206 16.7744 16.0267L16.5415 19.6074C16.3999 20.6243 15.1092 20.7235 14.8417 19.738C14.5956 18.8309 13.6615 16.94 12.8381 15.4838C12.451 14.7992 11.549 14.7992 11.1619 15.4838C10.3679 16.888 9.41972 19.2181 9.20786 20.8573C9.04426 22.123 7.37789 22.0798 7.26821 20.807L7.05835 17.3986C7.05835 17.3986 6.50672 13.2649 6.07002 11.8168L5.06606 7.37807C4.29549 3.97117 7.49516 1.13416 10.3369 2.70467C11.3838 3.28327 12.6161 3.28327 13.6631 2.70467ZM13.6631 2.70467C12.6159 3.28337 10.5159 4.96733 10.5159 7.52599" stroke="black" stroke-width="1.5" stroke-linecap="round" stroke-linejoin="round"/>
</svg>
