<svg width="24" height="24" viewBox="0 0 24 24" fill="none" xmlns="http://www.w3.org/2000/svg">
<path d="M13.6632 2.70467C16.5049 1.13416 19.7046 3.97117 18.934 7.37807L17.7363 11.0316C17.7116 11.107 17.6873 11.1825 17.6635 11.2583M13.6632 2.70467C12.6163 3.28327 11.384 3.28327 10.337 2.70467C7.49528 1.13416 4.29561 3.97117 5.06618 7.37807L6.07014 11.8168C6.50684 13.2649 7.05847 17.3986 7.05847 17.3986L7.26833 20.807C7.37801 22.0798 9.04439 22.123 9.20798 20.8573C9.41984 19.2181 10.368 16.888 11.162 15.4838C11.3488 15.1535 11.6554 14.9826 11.9662 14.971M13.6632 2.70467C12.6161 3.28337 10.5161 4.96733 10.5161 7.52599M22.5001 22.5L20.4117 20.4116M20.4117 20.4116C21.0648 19.7584 21.4688 18.8561 21.4688 17.8594C21.4688 15.866 19.8529 14.25 17.8595 14.25C15.8661 14.25 14.2501 15.866 14.2501 17.8594C14.2501 19.8528 15.8661 21.4688 17.8595 21.4688C18.8562 21.4688 19.7585 21.0648 20.4117 20.4116Z" stroke="black" stroke-width="1.5" stroke-miterlimit="1.78829" stroke-linecap="round" stroke-linejoin="round"/>
</svg>
