<svg width="24" height="24" viewBox="0 0 24 24" fill="none" xmlns="http://www.w3.org/2000/svg">
<path d="M18.75 12C18.75 8.27208 15.728 5.25 12 5.25M18.75 12C18.75 15.7279 15.728 18.75 12 18.75M18.75 12C18.75 12 19.5 21.75 5.25003 21.75M12 5.25C8.27211 5.25 5.25003 8.27208 5.25003 12M12 5.25C12 5.25 21.75 4.5 21.75 18.75M12 18.75C8.27211 18.75 5.25003 15.7279 5.25003 12M12 18.75C12 18.75 2.25 19.5 2.25 5.25M5.25003 12C5.25003 12 4.5 2.25 18.75 2.25M12.75 12C12.75 11.6149 12.4597 11.2975 12.086 11.2549M12.75 12C12.75 12.0291 12.7484 12.0578 12.7451 12.086M12.75 12C12.75 12 12.75 12.0311 12.7451 12.086M12.086 11.2549C12.0578 11.2517 12.0291 11.25 12 11.25M12.086 11.2549C12.0311 11.25 12 11.25 12 11.25M12.086 11.2549C12.4979 11.2915 14.25 11.6027 14.25 14.25M12 11.25C11.6149 11.25 11.2975 11.5403 11.2549 11.9141M12 12.75C12.3852 12.75 12.7025 12.4597 12.7451 12.086M12 12.75C11.971 12.75 11.9423 12.7483 11.9141 12.7451M12 12.75C12 12.75 11.9689 12.75 11.9141 12.7451M12.7451 12.086C12.7085 12.498 12.3972 14.25 9.75 14.25M11.25 12C11.25 12.3851 11.5403 12.7025 11.9141 12.7451M11.25 12C11.25 11.9709 11.2517 11.9423 11.2549 11.9141M11.25 12C11.25 12 11.25 11.9689 11.2549 11.9141M11.9141 12.7451C11.5021 12.7085 9.75 12.3973 9.75 9.75M11.2549 11.9141C11.2915 11.5022 11.6026 9.75 14.25 9.75" stroke="black" stroke-width="1.5" stroke-linecap="round" stroke-linejoin="round"/>
</svg>
