<svg width="24" height="24" viewBox="0 0 24 24" fill="none" xmlns="http://www.w3.org/2000/svg">
<path d="M7.5 10.875C7.5 11.2695 7.59023 11.6481 7.75606 12C8.37381 13.3108 10.0407 14.25 12 14.25C13.9593 14.25 15.6262 13.3108 16.2439 12M16.2439 12C16.4098 11.6481 16.5 11.2695 16.5 10.875M16.2439 12C15.6262 10.6892 13.9593 9.75 12 9.75C10.0407 9.75 8.37381 10.6892 7.75606 12M21.75 12C21.75 7.44365 17.3848 3.75 12 3.75C6.61522 3.75 2.25 7.44365 2.25 12C2.25 16.5563 6.61522 20.25 12 20.25C17.3848 20.25 21.75 16.5563 21.75 12Z" stroke="black" stroke-width="1.5" stroke-linecap="round" stroke-linejoin="round"/>
</svg>
