<svg width="24" height="24" viewBox="0 0 24 24" fill="none" xmlns="http://www.w3.org/2000/svg">
<path d="M13.6509 16.361C13.2383 16.5831 12.7772 16.5172 12.4474 16.2706C12.1808 16.0712 12 15.7538 12 15.3749C12 14.2201 12.6341 13.1585 13.6509 12.611L18.4483 10.0277C19.16 9.6445 19.9439 9.68991 20.5692 10.0262M12.4474 16.2706L3.42534 11.4257M3.42534 11.4257L2.8538 11.1188C2.50399 10.9367 2.25 10.5739 2.25 10.1249C2.25 8.97006 2.88406 7.90851 3.90084 7.36101L8.69822 4.77744C9.41678 4.39052 10.2089 4.44052 10.8371 4.78561L20.5692 10.0262L20.5716 10.0274C21.2561 10.3966 21.75 11.1144 21.75 11.9999C21.75 14.3095 20.4819 16.4327 18.4483 17.5277L13.6509 20.111C13.2383 20.3331 12.7772 20.2672 12.4474 20.0206C12.1808 19.8212 12 19.5038 12 19.1249C12 17.9701 12.6341 16.9085 13.6509 16.361M13.6509 16.361L18 14.0191M12.4474 20.0206L2.83896 14.8609C2.49685 14.6763 2.25004 14.3174 2.25004 13.8748C2.25004 12.9126 2.69028 12.015 3.42534 11.4257" stroke="black" stroke-width="1.5" stroke-miterlimit="1.78829" stroke-linecap="round" stroke-linejoin="round"/>
</svg>
