<svg width="24" height="24" viewBox="0 0 24 24" fill="none" xmlns="http://www.w3.org/2000/svg">
<path d="M5.25 17.2499H6M11.25 17.2499H10.5M17.25 15.75L18.75 15.7499C18.75 16.5784 19.4216 17.2499 20.25 17.2499C21.0784 17.2499 21.75 16.5784 21.75 15.7499V10.7888C21.75 10.598 21.7136 10.4089 21.6427 10.2317L20.6272 7.69287C20.3994 7.12338 19.8478 6.74995 19.2344 6.74995H12.2656C11.6522 6.74995 11.1006 7.12338 10.8728 7.69287L10.65 8.25M18.75 12.75H18M6.75 8.25H7.5M3.75 8.25V6.28887C3.75 6.09804 3.78641 5.90897 3.85728 5.73179L4.87283 3.19291C5.10063 2.62343 5.65219 2.25 6.26555 2.25H13.2344C13.8478 2.25 14.3994 2.62343 14.6272 3.19291L14.85 3.75M5.25 20.2499H11.25C11.25 21.0784 11.9216 21.7499 12.75 21.7499C13.5784 21.7499 14.25 21.0784 14.25 20.2499V15.2888C14.25 15.098 14.2136 14.9089 14.1427 14.7317L13.1272 12.1929C12.8994 11.6234 12.3478 11.25 11.7345 11.25H4.76555C4.15219 11.25 3.60063 11.6234 3.37283 12.1929L2.35728 14.7317C2.28641 14.9089 2.25 15.098 2.25 15.2888V20.2499C2.25 21.0784 2.92157 21.7499 3.75 21.7499C4.57843 21.7499 5.25 21.0784 5.25 20.2499Z" stroke="black" stroke-width="1.5" stroke-linecap="round" stroke-linejoin="round"/>
</svg>
