<svg width="24" height="24" viewBox="0 0 24 24" fill="none" xmlns="http://www.w3.org/2000/svg">
<path d="M2.25 20.2499H5.25M5.25 20.2499H11.25M5.25 20.2499C4.00736 20.2499 3 19.2426 3 17.9999V17.2499M5.25 20.2499C6.49264 20.2499 7.5 19.2426 7.5 17.9999V17.2499M11.25 20.2499H21.75M11.25 20.2499C12.4926 20.2499 13.5 19.2426 13.5 17.9999V17.2499M11.25 20.2499C10.0074 20.2499 9 19.2426 9 17.9999V17.2499M13.5 17.2499H18.8971C20.4727 17.2499 21.75 16.5 21.75 15C21.75 14.4479 21.75 13.4999 20.3236 12.6764L14.8891 9.53876C12.5051 8.16236 9.80077 7.43774 7.04798 7.43774H6M13.5 17.2499H9M9 17.2499H7.5M7.5 17.2499H3M3 17.2499H2.25M6 7.43774H2.25M6 7.43774V3.75M6 3.75H4.98683C4.66439 3.75 4.34405 3.80198 4.03815 3.90395L2.25 4.5M6 3.75H7.01317C7.33561 3.75 7.65595 3.80198 7.96185 3.90395L9.75 4.5M2.25 10.5H7.68653C9.52967 10.5 11.3403 10.9852 12.9365 11.9067L15.75 13.5311H2.25" stroke="black" stroke-width="1.5" stroke-miterlimit="1.78829" stroke-linecap="round" stroke-linejoin="round"/>
</svg>
