<svg width="24" height="24" viewBox="0 0 24 24" fill="none" xmlns="http://www.w3.org/2000/svg">
<path d="M2.25 20.25H5.25M5.25 20.25H16.5M5.25 20.25C4.00736 20.25 3 19.2426 3 18V17.25M5.25 20.25C6.49264 20.25 7.5 19.2426 7.5 18V17.25M16.5 20.25H21.75M16.5 20.25C17.7426 20.25 18.75 19.2426 18.75 18V17.25M16.5 20.25C15.2574 20.25 14.25 19.2426 14.25 18V17.25M18.75 17.25H20.25C21.0784 17.25 21.75 16.5784 21.75 15.75V12.7502M18.75 17.25H14.25M14.25 17.25H7.5M7.5 17.25H3M3 17.25H2.25M8.25 7.50024L2.25 7.50007M8.25 7.50024V3.75024M8.25 7.50024L12.75 7.5002M8.25 7.50024V12.7502M8.25 3.75024H7.23683C6.91439 3.75024 6.59405 3.80223 6.28815 3.90419L4.5 4.50024M8.25 3.75024H9.26317C9.58561 3.75024 9.90595 3.80223 10.2119 3.90419L12 4.50024M12.75 7.5002L17.25 7.50013L20.25 7.50009C21.0784 7.50008 21.75 8.17165 21.75 9.00009V12.7502M21.75 12.7502H17.25M2.25 12.7502H12.75M17.25 12.7502V7.50013M17.25 12.7502H12.75M12.75 12.7502V7.5002M3.75 7.50024V12.7502" stroke="black" stroke-width="1.5" stroke-miterlimit="1.78829" stroke-linecap="round" stroke-linejoin="round"/>
</svg>
