<svg width="24" height="24" viewBox="0 0 24 24" fill="none" xmlns="http://www.w3.org/2000/svg">
<path d="M18.75 8.25H20.25M18.75 8.25L17.3983 20.4156C17.3139 21.1753 16.6718 21.75 15.9074 21.75H8.09256C7.32824 21.75 6.68614 21.1753 6.60174 20.4156L5.25 8.25M18.75 8.25H16.5M3.75 8.25H5.25M5.25 8.25H7.5M7.5 8.25V6.75C7.5 4.26472 9.51472 2.25 12 2.25C14.4853 2.25 16.5 4.26472 16.5 6.75V8.25M7.5 8.25H16.5M14.625 11.25L13.875 18.75M9.375 11.25L10.125 18.75" stroke="black" stroke-width="1.5" stroke-linecap="round" stroke-linejoin="round"/>
</svg>
