<svg width="24" height="24" viewBox="0 0 24 24" fill="none" xmlns="http://www.w3.org/2000/svg">
<path d="M18.75 8.25H20.25M18.75 8.25L18.4153 11.2626M18.75 8.25H16.5M12.3867 21.75H8.09256C7.32824 21.75 6.68614 21.1753 6.60174 20.4156L5.25 8.25M3.75 8.25H5.25M5.25 8.25H7.5M7.5 8.25V6.75C7.5 4.26472 9.51472 2.25 12 2.25C14.4853 2.25 16.5 4.26472 16.5 6.75V8.25M7.5 8.25H16.5M14.625 11.25L14.529 12.2096M9.375 11.25L10.125 18.75M14.25 18.75L17.1439 21.6439C17.2025 21.7025 17.2975 21.7025 17.3561 21.6439L22.2656 16.7344" stroke="black" stroke-width="1.5" stroke-miterlimit="1.78829" stroke-linecap="round" stroke-linejoin="round"/>
</svg>
