<svg width="24" height="24" viewBox="0 0 24 24" fill="none" xmlns="http://www.w3.org/2000/svg">
<path d="M12 21.75V15.75M12 15.75V12.75M12 15.75C13.6569 15.75 15 14.4069 15 12.75M12 12.75V11.25M12 12.75H9.75M10.5 5.46876C11.5118 4.56318 12.7984 3.95831 14.2193 3.79466C14.4754 3.76516 14.7359 3.75 15 3.75C18.7279 3.75 21.75 6.77208 21.75 10.5C21.75 14.2279 18.7279 17.25 15 17.25C13.6895 17.25 12.4662 16.8765 11.4308 16.2302C10.469 17.3158 9.06439 18 7.5 18C4.60051 18 2.25 15.6495 2.25 12.75C2.25 10.6467 3.48689 8.83224 5.27297 7.99438M5.27297 7.99438C5.94906 7.67723 6.70383 7.5 7.5 7.5M5.27297 7.99438C5.25777 7.83163 5.25 7.66672 5.25 7.5C5.25 4.60051 7.60051 2.25 10.5 2.25C11.9533 2.25 13.2687 2.8405 14.2193 3.79466" stroke="black" stroke-width="1.5" stroke-linecap="round" stroke-linejoin="round"/>
</svg>
