<svg width="24" height="24" viewBox="0 0 24 24" fill="none" xmlns="http://www.w3.org/2000/svg">
<path d="M4.90127 15.7499H2.35611C2.22248 15.7499 2.15555 15.9115 2.25005 16.006L4.18721 17.9431C4.22268 17.9786 4.23807 18.0294 4.22824 18.0786L3.57098 21.3649C3.54397 21.4999 3.69791 21.5969 3.80806 21.5143L6.40398 19.5674C6.45731 19.5274 6.53065 19.5274 6.58398 19.5674L9.1799 21.5143C9.29005 21.5969 9.44399 21.4999 9.41698 21.3649L8.75972 18.0786C8.74989 18.0294 8.76528 17.9786 8.80074 17.9431L10.7379 16.006C10.8324 15.9115 10.7655 15.7499 10.6318 15.7499H8.08668C8.02987 15.7499 7.97793 15.7178 7.95252 15.667L6.62814 13.0182C6.57286 12.9077 6.41509 12.9077 6.35982 13.0182L5.03544 15.667C5.01003 15.7178 4.95809 15.7499 4.90127 15.7499Z" stroke="black" stroke-width="1.5" stroke-miterlimit="1.78829" stroke-linecap="round" stroke-linejoin="round"/>
<path d="M15.9134 15.7499H13.3682C13.2346 15.7499 13.1676 15.9115 13.2621 16.006L15.1993 17.9431C15.2348 17.9786 15.2502 18.0294 15.2403 18.0786L14.5831 21.3649C14.5561 21.4999 14.71 21.5969 14.8201 21.5143L17.4161 19.5674C17.4694 19.5274 17.5427 19.5274 17.5961 19.5674L20.192 21.5143C20.3021 21.5969 20.4561 21.4999 20.4291 21.3649L19.7718 18.0786C19.762 18.0294 19.7774 17.9786 19.8128 17.9431L21.75 16.006C21.8445 15.9115 21.7776 15.7499 21.6439 15.7499H19.0988C19.042 15.7499 18.99 15.7178 18.9646 15.667L17.6402 13.0182C17.5849 12.9077 17.4272 12.9077 17.3719 13.0182L16.0475 15.667C16.0221 15.7178 15.9702 15.7499 15.9134 15.7499Z" stroke="black" stroke-width="1.5" stroke-miterlimit="1.78829" stroke-linecap="round" stroke-linejoin="round"/>
<path d="M10.4073 5.24989H7.86215C7.72852 5.24989 7.66159 5.41146 7.75609 5.50596L9.69326 7.44313C9.72872 7.47859 9.74411 7.52943 9.73428 7.57861L9.07702 10.8649C9.05001 10.9999 9.20395 11.0969 9.3141 11.0143L11.91 9.06739C11.9634 9.02739 12.0367 9.02739 12.09 9.06739L14.6859 11.0143C14.7961 11.0969 14.95 10.9999 14.923 10.8649L14.2658 7.57861C14.2559 7.52943 14.2713 7.47859 14.3068 7.44313L16.244 5.50596C16.3384 5.41146 16.2715 5.24989 16.1379 5.24989H13.5927C13.5359 5.24989 13.484 5.21779 13.4586 5.16697L12.1342 2.51822C12.0789 2.40766 11.9211 2.40766 11.8659 2.51822L10.5415 5.16697C10.5161 5.21779 10.4641 5.24989 10.4073 5.24989Z" stroke="black" stroke-width="1.5" stroke-miterlimit="1.78829" stroke-linecap="round" stroke-linejoin="round"/>
</svg>
