<svg width="24" height="24" viewBox="0 0 24 24" fill="none" xmlns="http://www.w3.org/2000/svg">
<path d="M16.5 7.5H19.5C19.9142 7.5 20.2892 7.66789 20.5607 7.93934M16.5 7.5V4.5C16.5 3.67157 15.8284 3 15 3H12M16.5 7.5L7.5 16.5M12 21H9C8.58579 21 8.21079 20.8321 7.93934 20.5607C7.66789 20.2892 7.5 19.9142 7.5 19.5V16.5M7.5 16.5H4.5C3.67157 16.5 3 15.8284 3 15V12M12 21L21 12M12 21H16.5M21 12V9C21 8.58579 20.8321 8.21079 20.5607 7.93934M21 12V16.5M16.5 21H19.5C20.3284 21 21 20.3284 21 19.5V16.5M16.5 21L21 16.5M20.5607 7.93934L7.93934 20.5607M15.75 3.75L3.75 15.75M12 3L3 12M12 3H7.5M3 12V7.5M7.5 3H4.5C3.67157 3 3 3.67157 3 4.5V7.5M7.5 3L3 7.5" stroke="black" stroke-width="1.5" stroke-linecap="round" stroke-linejoin="round"/>
</svg>
