<svg width="24" height="24" viewBox="0 0 24 24" fill="none" xmlns="http://www.w3.org/2000/svg">
<path d="M10.5 3.75L12 2.25L13.5 3.75M12 2.25V13.5M12 20.25V17.25M12 20.25C12.4142 20.25 12.75 20.5858 12.75 21C12.75 21.4142 12.4142 21.75 12 21.75C11.5858 21.75 11.25 21.4142 11.25 21C11.25 20.5858 11.5858 20.25 12 20.25ZM12 17.25L7.50579 14.6819C7.03843 14.4148 6.75 13.9178 6.75 13.3795V10.5M12 17.25V13.5M6.75 10.5C6.33579 10.5 6 10.1642 6 9.75C6 9.33579 6.33579 9 6.75 9C7.16421 9 7.5 9.33579 7.5 9.75C7.5 10.1642 7.16421 10.5 6.75 10.5ZM12 13.5L16.3409 11.6396C16.8924 11.4033 17.25 10.8609 17.25 10.2609V6.75M17.25 6.75H16.5V5.25H18V6.75H17.25Z" stroke="black" stroke-width="1.5" stroke-linecap="round" stroke-linejoin="round"/>
</svg>
