<svg width="24" height="24" viewBox="0 0 24 24" fill="none" xmlns="http://www.w3.org/2000/svg">
<path d="M9 14.25C6.10051 14.25 3.75 11.8995 3.75 9C3.75 6.10051 6.10051 3.75 9 3.75C10.1154 3.75 11.1496 4.09786 12 4.69102M9 14.25H6.75C4.26472 14.25 2.25 16.2647 2.25 18.75C2.25 19.5784 2.92157 20.25 3.75 20.25H14.25M14.25 20.25C15.0784 20.25 15.75 19.5784 15.75 18.75C15.75 16.5203 14.1283 14.6693 12 14.3122C11.7561 14.2713 11.5055 14.25 11.25 14.25H9M9 14.25C10.1154 14.25 11.1496 13.9021 12 13.309M14.25 20.25H20.25C21.0784 20.25 21.75 19.5784 21.75 18.75C21.75 16.2647 19.7353 14.25 17.25 14.25H15M15 14.25C17.8995 14.25 20.25 11.8995 20.25 9C20.25 6.10051 17.8995 3.75 15 3.75C13.8846 3.75 12.8504 4.09786 12 4.69102M15 14.25H12.75C12.4945 14.25 12.2439 14.2713 12 14.3122M15 14.25C13.8846 14.25 12.8504 13.9021 12 13.309M12 4.69102C13.3601 5.63973 14.25 7.21594 14.25 9C14.25 10.7841 13.3601 12.3603 12 13.309" stroke="black" stroke-width="1.5" stroke-linecap="round" stroke-linejoin="round"/>
</svg>
