<svg width="24" height="24" viewBox="0 0 24 24" fill="none" xmlns="http://www.w3.org/2000/svg">
<path d="M10.0133 10.0133C9.84212 9.45575 9.75 8.86363 9.75 8.25C9.75 4.93629 12.4363 2.25 15.75 2.25C19.0637 2.25 21.75 4.93629 21.75 8.25C21.75 9.56602 21.3263 10.7831 20.6079 11.7722M10.0133 10.0133C11.1427 10.36 12.1301 11.0311 12.8669 11.9178M10.0133 10.0133C9.45575 9.84212 8.86363 9.75 8.25 9.75C4.93629 9.75 2.25 12.4363 2.25 15.75C2.25 17.9708 3.4566 19.9099 5.25 20.9473M12.8669 11.9178C13.2277 10.6658 14.3819 9.75 15.75 9.75M12.8669 11.9178C13.1259 12.2294 13.3539 12.5677 13.5462 12.9278M8.25 17.25C7.00736 17.25 6 16.2426 6 15C6 13.7574 7.00736 12.75 8.25 12.75C9.49264 12.75 10.5 13.7574 10.5 15C10.5 16.2426 9.49264 17.25 8.25 17.25ZM8.25 17.25C6.59315 17.25 5.25 18.5931 5.25 20.25V20.9473M8.25 17.25C9.90685 17.25 11.25 18.5931 11.25 20.25V20.9473C10.3675 21.4578 9.34286 21.75 8.25 21.75C7.15714 21.75 6.13252 21.4578 5.25 20.9473M15.75 9.75C14.5074 9.75 13.5 8.74264 13.5 7.5C13.5 6.25736 14.5074 5.25 15.75 5.25C16.9926 5.25 18 6.25736 18 7.5C18 8.74264 16.9926 9.75 15.75 9.75ZM15.75 9.75C16.8642 9.75 17.8365 10.3574 18.3539 11.2591M19.5 14.25L22.5 17.25L18.4393 21.3107C18.158 21.592 17.7765 21.75 17.3787 21.75H15V19.3713C15 18.9735 15.158 18.592 15.4393 18.3107L19.5 14.25Z" stroke="black" stroke-width="1.5" stroke-linecap="round" stroke-linejoin="round"/>
</svg>
