<svg width="24" height="24" viewBox="0 0 24 24" fill="none" xmlns="http://www.w3.org/2000/svg">
<path d="M9 14.25C6.10051 14.25 3.75 11.8995 3.75 9C3.75 6.10051 6.10051 3.75 9 3.75C10.1154 3.75 11.1496 4.09786 12 4.69102M9 14.25H6.75C4.26472 14.25 2.25 16.2647 2.25 18.75C2.25 19.5784 2.92157 20.25 3.75 20.25H11.6341M9 14.25H11.25C11.5055 14.25 11.7561 14.2713 12 14.3122M9 14.25C10.1154 14.25 11.1496 13.9021 12 13.309M12 4.69102C12.8504 4.09786 13.8846 3.75 15 3.75C17.8995 3.75 20.25 6.10051 20.25 9C20.25 9.88548 20.0308 10.7198 19.6437 11.4515M12 4.69102C13.3601 5.63973 14.25 7.21594 14.25 9C14.25 10.7841 13.3601 12.3603 12 13.309M12 13.309C12.2387 13.4755 12.4918 13.6226 12.7572 13.7482M18.3743 20.85C17.0074 20.85 15.8993 19.7419 15.8993 18.375C15.8993 17.0081 17.0074 15.9 18.3743 15.9M18.3743 20.85C19.7412 20.85 20.8493 19.7419 20.8493 18.375C20.8493 17.0081 19.7412 15.9 18.3743 15.9M18.3743 20.85V22.5M18.3743 15.9V14.25M22.5075 18.3668H20.8575M15.9075 18.3667H14.2575M21.3052 21.2862L20.1384 20.1195M16.6383 16.6193L15.4715 15.4525M15.4715 21.2979L16.6383 20.1312M20.1384 16.631L21.3052 15.4643" stroke="black" stroke-width="1.5" stroke-miterlimit="1.78829" stroke-linecap="round" stroke-linejoin="round"/>
</svg>
