<svg width="24" height="24" viewBox="0 0 24 24" fill="none" xmlns="http://www.w3.org/2000/svg">
<path d="M10.0133 10.0133C9.84212 9.45575 9.75 8.86363 9.75 8.25C9.75 4.93629 12.4363 2.25 15.75 2.25C19.0637 2.25 21.75 4.93629 21.75 8.25C21.75 10.4708 20.5434 12.4099 18.75 13.4473C17.8675 13.9578 16.8429 14.25 15.75 14.25C15.1364 14.25 14.5442 14.1579 13.9867 13.9867M13.9867 13.9867C14.1579 14.5443 14.25 15.1364 14.25 15.75C14.25 17.9708 13.0434 19.9099 11.25 20.9473M13.9867 13.9867C13.7515 13.2204 13.3669 12.5195 12.8669 11.9178M10.0133 10.0133C11.1427 10.36 12.1301 11.0311 12.8669 11.9178M10.0133 10.0133C9.45575 9.84212 8.86363 9.75 8.25 9.75C4.93629 9.75 2.25 12.4363 2.25 15.75C2.25 17.9708 3.4566 19.9099 5.25 20.9473M12.8669 11.9178C13.2277 10.6658 14.3819 9.75 15.75 9.75M8.25 17.25C7.00736 17.25 6 16.2426 6 15C6 13.7574 7.00736 12.75 8.25 12.75C9.49264 12.75 10.5 13.7574 10.5 15C10.5 16.2426 9.49264 17.25 8.25 17.25ZM8.25 17.25C6.59315 17.25 5.25 18.5931 5.25 20.25V20.9473M8.25 17.25C9.90685 17.25 11.25 18.5931 11.25 20.25V20.9473M11.25 20.9473C10.3675 21.4578 9.34286 21.75 8.25 21.75C7.15714 21.75 6.13252 21.4578 5.25 20.9473M15.75 9.75C14.5074 9.75 13.5 8.74264 13.5 7.5C13.5 6.25736 14.5074 5.25 15.75 5.25C16.9926 5.25 18 6.25736 18 7.5C18 8.74264 16.9926 9.75 15.75 9.75ZM15.75 9.75C17.4069 9.75 18.75 11.0931 18.75 12.75V13.4473" stroke="black" stroke-width="1.5" stroke-linecap="round" stroke-linejoin="round"/>
</svg>
