<svg width="24" height="24" viewBox="0 0 24 24" fill="none" xmlns="http://www.w3.org/2000/svg">
<path d="M12 15C9.51472 15 7.5 12.9853 7.5 10.5C7.5 8.01472 9.51472 6 12 6C14.4853 6 16.5 8.01472 16.5 10.5C16.5 12.9853 14.4853 15 12 15ZM12 15H13.3142C15.9021 15 18 17.0979 18 19.6858M12 15H10.6858C8.09789 15 6 17.0979 6 19.6858M6 19.6858C7.65445 20.9792 9.73721 21.75 12 21.75C14.2628 21.75 16.3455 20.9792 18 19.6858C20.2827 17.9013 21.75 15.122 21.75 12C21.75 6.61522 17.3848 2.25 12 2.25C6.61522 2.25 2.25 6.61522 2.25 12C2.25 15.122 3.71735 17.9013 6 19.6858Z" stroke="black" stroke-width="1.5" stroke-linecap="round" stroke-linejoin="round"/>
</svg>
