<svg width="24" height="24" viewBox="0 0 24 24" fill="none" xmlns="http://www.w3.org/2000/svg">
<path d="M12 14.25C8.68629 14.25 6 11.5637 6 8.25C6 4.93629 8.68629 2.25 12 2.25C15.3137 2.25 18 4.93629 18 8.25C18 9.3639 17.6965 10.4069 17.1676 11.3008M12 14.25H9.75C6.43629 14.25 3.75 16.9363 3.75 20.25C3.75 21.0784 4.42157 21.75 5.25 21.75H12.3867M12 14.25C12.1328 14.25 12.2646 14.2457 12.3953 14.2372M15.75 22.5L19.125 19.125M19.125 19.125L22.5 15.75M19.125 19.125L22.5 22.5M19.125 19.125L15.75 15.75" stroke="black" stroke-width="1.5" stroke-miterlimit="1.78829" stroke-linecap="round" stroke-linejoin="round"/>
</svg>
