<svg width="24" height="24" viewBox="0 0 24 24" fill="none" xmlns="http://www.w3.org/2000/svg">
<path d="M12 14.25C8.68629 14.25 6 11.5637 6 8.25C6 4.93629 8.68629 2.25 12 2.25C15.3137 2.25 18 4.93629 18 8.25C18 9.3639 17.6965 10.4069 17.1676 11.3008M12 14.25H9.75C6.43629 14.25 3.75 16.9363 3.75 20.25C3.75 21.0784 4.42157 21.75 5.25 21.75H12.3867M12 14.25C12.1328 14.25 12.2646 14.2457 12.3953 14.2372M18.3743 20.85C17.0074 20.85 15.8993 19.7419 15.8993 18.375C15.8993 17.0081 17.0074 15.9 18.3743 15.9M18.3743 20.85C19.7412 20.85 20.8493 19.7419 20.8493 18.375C20.8493 17.0081 19.7412 15.9 18.3743 15.9M18.3743 20.85V22.5M18.3743 15.9V14.25M22.5075 18.3668H20.8575M15.9075 18.3667H14.2575M21.3052 21.2862L20.1384 20.1195M16.6383 16.6193L15.4715 15.4525M15.4715 21.2979L16.6383 20.1312M20.1384 16.631L21.3052 15.4643" stroke="black" stroke-width="1.5" stroke-miterlimit="1.78829" stroke-linecap="round" stroke-linejoin="round"/>
</svg>
