<svg width="24" height="24" viewBox="0 0 24 24" fill="none" xmlns="http://www.w3.org/2000/svg">
<path d="M21.75 12C21.75 6.61522 17.3848 2.25 12 2.25M21.75 12C21.75 17.3848 17.3848 21.75 12 21.75M21.75 12C21.75 14.4853 17.3848 16.5 12 16.5C10.5407 16.5 9.15618 16.352 7.9132 16.0868M12 2.25C6.61522 2.25 2.25 6.61522 2.25 12M12 2.25C9.51472 2.25 7.5 6.61522 7.5 12C7.5 13.4593 7.64798 14.8438 7.9132 16.0868M12 21.75C6.61522 21.75 2.25 17.3848 2.25 12M12 21.75C10.1883 21.75 8.6266 19.4302 7.9132 16.0868M2.25 12C2.25 13.8117 4.56976 15.3734 7.9132 16.0868" stroke="black" stroke-width="1.5" stroke-linecap="round" stroke-linejoin="round"/>
</svg>
