<svg width="24" height="24" viewBox="0 0 24 24" fill="none" xmlns="http://www.w3.org/2000/svg">
<path d="M16.7656 19.5C17.2945 19.9668 17.9892 20.25 18.75 20.25C20.4069 20.25 21.75 18.9069 21.75 17.25C21.75 16.1396 21.1467 15.1701 20.25 14.6513C19.8087 14.3961 19.2964 14.25 18.75 14.25C17.0931 14.25 15.75 15.5931 15.75 17.25C15.75 18.146 16.1428 18.9503 16.7656 19.5ZM20.25 14.6513V10.95C20.25 10.2873 19.7127 9.75 19.05 9.75H18C12.6152 9.75 8.25 14.1152 8.25 19.5M8.25 19.5H16.7656M8.25 19.5V17.25H5.25M8.25 19.5V20.25H2.25V17.25H5.25M5.25 17.25V3.75" stroke="black" stroke-width="1.5" stroke-linecap="round" stroke-linejoin="round"/>
</svg>
