<svg width="24" height="24" viewBox="0 0 24 24" fill="none" xmlns="http://www.w3.org/2000/svg">
<path d="M14.25 8.25V6.75C14.25 5.92157 13.5784 5.25 12.75 5.25H9.75M14.25 8.25L21.75 5.25V17.25M14.25 8.25V9.75M14.25 15.75V17.25C14.25 18.0784 13.5784 18.75 12.75 18.75H3.75C2.92157 18.75 2.25 18.0784 2.25 17.25V6.75C2.25 5.92157 2.92157 5.25 3.75 5.25H5.25M14.25 15.75V14.25M14.25 15.75L16.75 16.75M5.25 5.25L2.25 2.25M5.25 5.25L7.5 7.5L9.75 9.75L12 12L14.25 14.25M14.25 14.25L16.75 16.75M16.75 16.75L21.75 21.75" stroke="black" stroke-width="1.5" stroke-linecap="round" stroke-linejoin="round"/>
</svg>
