<svg width="24" height="24" viewBox="0 0 24 24" fill="none" xmlns="http://www.w3.org/2000/svg">
<path d="M8.77984 6.48361L7.91409 5.61786L7.40758 5.11134C6.77351 4.47727 5.74547 4.47727 5.1114 5.11134C4.47733 5.74541 4.47733 6.77345 5.1114 7.40752L5.61792 7.91403L6.48367 8.77978M7.91409 5.61786C8.63265 5.15687 9.43417 4.81392 10.2913 4.61636C10.3409 4.60494 10.3763 4.561 10.3763 4.51012V3.8817C10.3763 2.98499 11.1033 2.25806 12 2.25806C12.8967 2.25806 13.6236 2.98499 13.6236 3.8817V4.51012C13.6236 4.561 13.6591 4.60494 13.7087 4.61636C14.5658 4.81392 15.3673 5.15687 16.0859 5.61785M5.61792 7.91403C5.15695 8.63257 4.814 9.43406 4.61645 10.2911C4.60502 10.3407 4.56109 10.3762 4.51021 10.3762H3.8817C2.98499 10.3762 2.25806 11.1031 2.25806 11.9998C2.25806 12.8965 2.98499 13.6235 3.8817 13.6235H4.51017C4.56105 13.6235 4.60498 13.6589 4.61641 13.7085C4.80724 14.5365 5.13375 15.3126 5.57128 16.0122C5.59826 16.0553 5.59227 16.1114 5.55629 16.1474L5.11145 16.5923C4.47737 17.2263 4.47737 18.2544 5.11145 18.8884C5.74552 19.5225 6.77355 19.5225 7.40762 18.8884L7.85247 18.4436C7.88845 18.4076 7.94458 18.4016 7.98772 18.4286C8.68726 18.8661 9.46334 19.1926 10.2913 19.3835C10.3409 19.3949 10.3763 19.4388 10.3763 19.4897V20.1181C10.3763 21.0148 11.1033 21.7418 12 21.7418C12.8967 21.7418 13.6236 21.0148 13.6236 20.1181V19.4897C13.6236 19.4388 13.6591 19.3949 13.7087 19.3835C14.5366 19.1926 15.3127 18.8661 16.0122 18.4286C16.0554 18.4016 16.1115 18.4076 16.1475 18.4436L16.5923 18.8884C17.2264 19.5225 18.2544 19.5225 18.8885 18.8884C19.5225 18.2543 19.5225 17.2263 18.8885 16.5922L18.4437 16.1474C18.4077 16.1114 18.4017 16.0553 18.4287 16.0122C18.8662 15.3126 19.1927 14.5365 19.3835 13.7085C19.395 13.6589 19.4389 13.6235 19.4898 13.6235H20.1181C21.0148 13.6235 21.7418 12.8965 21.7418 11.9998C21.7418 11.1031 21.0148 10.3762 20.1181 10.3762H19.4897C19.4389 10.3762 19.3949 10.3407 19.3835 10.2911C19.1859 9.43406 18.843 8.63257 18.382 7.91403M15.2201 6.48365L16.0859 5.61785L16.5923 5.11138C17.2264 4.47731 18.2544 4.47731 18.8885 5.11138C19.5226 5.74545 19.5226 6.77348 18.8885 7.40755L18.382 7.91403M18.382 7.91403L17.5162 8.77982M10.2839 13.0823C10.061 13.7129 9.45962 14.1647 8.75269 14.1647C7.85596 14.1647 7.12903 13.4378 7.12905 12.5411C7.12906 11.8341 7.58087 11.2327 8.21148 11.0098M13.1477 14.706C13.3706 15.3366 13.972 15.7884 14.6789 15.7884C15.5756 15.7884 16.3025 15.0615 16.3026 14.1648C16.3026 13.468 15.8637 12.8737 15.2473 12.6434" stroke="black" stroke-width="1.5" stroke-linecap="round" stroke-linejoin="round"/>
</svg>
