<svg width="24" height="24" viewBox="0 0 24 24" fill="none" xmlns="http://www.w3.org/2000/svg">
<path d="M14.6517 9.34835C15.3303 10.027 15.75 10.9645 15.75 12C15.75 13.0355 15.3303 13.973 14.6517 14.6517M16.773 7.22703C17.9945 8.44854 18.75 10.136 18.75 12C18.75 13.864 17.9945 15.5515 16.773 16.773M18.8943 5.10571C20.6587 6.87011 21.75 9.30761 21.75 12C21.75 14.6924 20.6587 17.1299 18.8943 18.8943M2.25 9.75V14.25C2.25 15.9069 3.59315 17.25 5.25 17.25H6.75L11.25 20.25V3.75L6.75 6.75H5.25C3.59315 6.75 2.25 8.09315 2.25 9.75Z" stroke="black" stroke-width="1.5" stroke-linecap="round" stroke-linejoin="round"/>
</svg>
