<svg width="24" height="24" viewBox="0 0 24 24" fill="none" xmlns="http://www.w3.org/2000/svg">
<path d="M14.25 19.5H19.5M14.25 19.5C14.25 18.2574 13.2426 17.25 12 17.25M14.25 19.5C14.25 20.7426 13.2426 21.75 12 21.75C10.7574 21.75 9.75 20.7426 9.75 19.5M19.5 19.5L13.9321 13.9321M19.5 19.5L21.75 21.75M9.75 19.5H3M9.75 19.5C9.75 18.2574 10.7574 17.25 12 17.25M12 17.25V14.25M12 14.25C12.676 14.25 13.3258 14.1382 13.9321 13.9321M12 14.25C8.68629 14.25 6 11.5637 6 8.25M12 14.25C12.4609 14.25 12.8895 13.8804 13.2463 13.2463M12 14.25C10.9622 14.25 10.0886 12.3765 9.8287 9.8287M18 8.25C18 4.93629 15.3137 2.25 12 2.25M18 8.25C18 9.71591 17.4743 11.059 16.6011 12.1011M18 8.25H14.25M12 2.25C10.5341 2.25 9.19096 2.7757 8.14886 3.64886M12 2.25C13.2426 2.25 14.25 4.93629 14.25 8.25M12 2.25C11.1291 2.25 10.3737 3.56952 9.99976 5.49976M13.9321 13.9321L13.2463 13.2463M6 8.25C6 7.57403 6.11179 6.92416 6.31788 6.31788M6 8.25H8.25M6.31788 6.31788L2.25 2.25M6.31788 6.31788L8.25 8.25M14.25 8.25C14.25 8.74467 14.2276 9.22536 14.1852 9.68522M13.2463 13.2463L9.8287 9.8287M9.8287 9.8287L8.25 8.25" stroke="black" stroke-width="1.5" stroke-linecap="round" stroke-linejoin="round"/>
</svg>
