<svg width="24" height="24" viewBox="0 0 24 24" fill="none" xmlns="http://www.w3.org/2000/svg">
<path d="M14.25 19.5H21M14.25 19.5C14.25 18.2574 13.2426 17.25 12 17.25M14.25 19.5C14.25 20.7426 13.2426 21.75 12 21.75C10.7574 21.75 9.75 20.7426 9.75 19.5M9.75 19.5H3M9.75 19.5C9.75 18.2574 10.7574 17.25 12 17.25M12 17.25V14.25M12 14.25C15.3137 14.25 18 11.5637 18 8.25M12 14.25C8.68629 14.25 6 11.5637 6 8.25M12 14.25C13.2426 14.25 14.25 11.5637 14.25 8.25M12 14.25C10.7574 14.25 9.75 11.5637 9.75 8.25M18 8.25C18 4.93629 15.3137 2.25 12 2.25M18 8.25H14.25M12 2.25C8.68629 2.25 6 4.93629 6 8.25M12 2.25C13.2426 2.25 14.25 4.93629 14.25 8.25M12 2.25C10.7574 2.25 9.75 4.93629 9.75 8.25M6 8.25H9.75M14.25 8.25H9.75" stroke="black" stroke-width="1.5" stroke-linecap="round" stroke-linejoin="round"/>
</svg>
