<svg width="24" height="24" viewBox="0 0 24 24" fill="none" xmlns="http://www.w3.org/2000/svg">
<path fill-rule="evenodd" clip-rule="evenodd" d="M2.25 6.75V17.25C2.25 18.9069 3.59315 20.25 5.25 20.25H18.75C20.4069 20.25 21.75 18.9069 21.75 17.25V6.75C21.75 5.09315 20.4069 3.75 18.75 3.75H5.25C3.59315 3.75 2.25 5.09315 2.25 6.75ZM5.25 8.25V11.25H9.75C9.75 12.4926 10.7574 13.5 12 13.5C13.2426 13.5 14.25 12.4926 14.25 11.25H18.75V8.25C18.75 7.42157 18.0784 6.75 17.25 6.75H6.75C5.92157 6.75 5.25 7.42157 5.25 8.25Z" stroke="black" stroke-width="1.5" stroke-linecap="round" stroke-linejoin="round"/>
</svg>
