<svg width="24" height="24" viewBox="0 0 24 24" fill="none" xmlns="http://www.w3.org/2000/svg">
<path d="M11.6341 20.25H5.25C3.59315 20.25 2.25 18.9069 2.25 17.25V6.75C2.25 5.09315 3.59315 3.75 5.25 3.75H18.75C20.4069 3.75 21.75 5.09315 21.75 6.75V12.3867M22.5 22.5L20.4116 20.4116M20.4116 20.4116C21.0648 19.7584 21.4688 18.8561 21.4688 17.8594C21.4688 15.866 19.8528 14.25 17.8594 14.25C15.866 14.25 14.25 15.866 14.25 17.8594C14.25 19.8528 15.866 21.4688 17.8594 21.4688C18.8561 21.4688 19.7584 21.0648 20.4116 20.4116ZM5.25 11.25V8.25C5.25 7.42157 5.92157 6.75 6.75 6.75H17.25C18.0784 6.75 18.75 7.42157 18.75 8.25V11.25H14.25C14.25 12.4926 13.2426 13.5 12 13.5C10.7574 13.5 9.75 12.4926 9.75 11.25H5.25Z" stroke="black" stroke-width="1.5" stroke-miterlimit="1.78829" stroke-linecap="round" stroke-linejoin="round"/>
</svg>
