<svg width="24" height="24" viewBox="0 0 24 24" fill="none" xmlns="http://www.w3.org/2000/svg">
<path d="M18.75 12.75H14.25C14.25 13.9926 13.2426 15 12 15C11.3123 15 10.6966 14.6915 10.2839 14.2053M5.34451 12.75C5.28281 12.5103 5.25 12.259 5.25 12C5.25 10.3431 6.59315 9 8.25 9C9.90685 9 11.25 10.3431 11.25 12C11.25 12.872 10.878 13.6571 10.2839 14.2053M5.34451 12.75H9.75C9.75 13.3049 9.9509 13.8129 10.2839 14.2053M5.34451 12.75H5.25M13.1513 5.25C13.6701 4.3533 14.6396 3.75 15.75 3.75C16.8604 3.75 17.8299 4.3533 18.3487 5.25C18.6039 5.69126 18.75 6.20357 18.75 6.75C18.75 8.40685 17.4069 9.75 15.75 9.75C14.0931 9.75 12.75 8.40685 12.75 6.75C12.75 6.20357 12.8961 5.69126 13.1513 5.25ZM18.3487 5.25H18.75C20.4069 5.25 21.75 6.59315 21.75 8.25V17.25C21.75 18.9069 20.4069 20.25 18.75 20.25H5.25C3.59315 20.25 2.25 18.9069 2.25 17.25V8.25C2.25 6.59315 3.59315 5.25 5.25 5.25H13.1513" stroke="black" stroke-width="1.5" stroke-linecap="round" stroke-linejoin="round"/>
</svg>
