<svg width="24" height="24" viewBox="0 0 24 24" fill="none" xmlns="http://www.w3.org/2000/svg">
<path d="M9.87078 13.4789L18.2357 11.2375C19.0359 11.0231 19.5108 10.2006 19.2964 9.40037L18.1842 5.24972L17.7435 3.60482C17.5291 2.80462 16.7066 2.32975 15.9064 2.54416L5.76414 5.26176M5.76414 5.26176C4.96394 5.47617 4.48906 6.29868 4.70348 7.09888L6.21761 12.7497M5.76414 5.26176L5.25 5.24972C3.59315 5.24972 2.25 6.59287 2.25 8.24972V17.2497C2.25 18.9066 3.59315 20.2497 5.25 20.2497H18.75C20.4069 20.2497 21.75 18.9066 21.75 17.2497V8.24972C21.75 6.59287 20.4069 5.24972 18.75 5.24972H18.1842M18.75 12.7497H14.25C14.25 13.9924 13.2426 14.9997 12 14.9997C11.0126 14.9997 10.1737 14.3636 9.87078 13.4789M9.87078 13.4789C9.79249 13.2502 9.75 13.0049 9.75 12.7497H6.21761M6.21761 12.7497H5.25" stroke="black" stroke-width="1.5" stroke-linecap="round" stroke-linejoin="round"/>
</svg>
