<svg width="24" height="24" viewBox="0 0 24 24" fill="none" xmlns="http://www.w3.org/2000/svg">
<path fill-rule="evenodd" clip-rule="evenodd" d="M3 4.5V19.5C3 20.3284 3.67157 21 4.5 21H19.5C20.3284 21 21 20.3284 21 19.5V4.5C21 3.67157 20.3284 3 19.5 3H4.5C3.67157 3 3 3.67157 3 4.5ZM15.4141 7.38802L13.5 6.75C13.5 7.57843 12.8284 8.25 12 8.25C11.1716 8.25 10.5 7.57843 10.5 6.75L8.58593 7.38802C8.36501 7.46166 8.16427 7.58573 7.99961 7.75039L6 9.75L8.25 12L9 11.25V17.25H15V11.25L15.75 12L18 9.75L16.0004 7.75039C15.8357 7.58573 15.635 7.46166 15.4141 7.38802Z" stroke="black" stroke-width="1.5" stroke-linecap="round" stroke-linejoin="round"/>
</svg>
