<svg width="24" height="24" viewBox="0 0 24 24" fill="none" xmlns="http://www.w3.org/2000/svg">
<path d="M6 20.25H3.75C2.92157 20.25 2.25 19.5785 2.25 18.75V9.20979C2.25 8.62472 2.59019 8.09303 3.12141 7.84785L11.3714 4.04016C11.7703 3.85608 12.2297 3.85608 12.6286 4.04016L20.8786 7.84785C21.4098 8.09303 21.75 8.62472 21.75 9.20979V18.75C21.75 19.5785 21.0784 20.25 20.25 20.25H18M6 20.25V15.75M6 20.25H10.5M18 20.25V11.25H6V15.75M18 20.25H14.25M6 15.75H10.5V16.5M10.5 20.25V16.5M10.5 20.25H14.25M10.5 16.5H14.25V20.25M9.75 8.25012H14.25" stroke="black" stroke-width="1.5" stroke-linecap="round" stroke-linejoin="round"/>
</svg>
