<svg width="24" height="24" viewBox="0 0 24 24" fill="none" xmlns="http://www.w3.org/2000/svg">
<path d="M6 6H6.75M6.75 12.75C6.75 15.6495 9.1005 18 12 18C14.3783 18 16.3872 16.4186 17.0326 14.25C17.1049 14.0069 17.1602 13.7564 17.1968 13.5M6.75 12.75C6.75 12.4954 6.76813 12.245 6.80317 12C7.16709 9.45578 9.35515 7.5 12 7.5C14.8995 7.5 17.25 9.8505 17.25 12.75C17.25 13.0046 17.2319 13.255 17.1968 13.5M6.75 12.75C6.75 12.75 9 11.25 11.25 11.25C11.25 11.25 11.25 15.75 17.1968 13.5M3 4.5V19.5C3 20.3284 3.67157 21 4.5 21H19.5C20.3284 21 21 20.3284 21 19.5V4.5C21 3.67157 20.3284 3 19.5 3H4.5C3.67157 3 3 3.67157 3 4.5Z" stroke="black" stroke-width="1.5" stroke-linecap="round" stroke-linejoin="round"/>
</svg>
