<svg width="24" height="24" viewBox="0 0 24 24" fill="none" xmlns="http://www.w3.org/2000/svg">
<path d="M17.25 7.757C18.1881 8.91629 18.75 10.3925 18.75 12C18.75 13.6075 18.1881 15.0837 17.25 16.243M17.25 16.243C16.0125 17.7723 14.1205 18.75 12 18.75C9.87955 18.75 7.98747 17.7722 6.75 16.243C5.8119 15.0837 5.25 13.6075 5.25 12C5.25 10.3925 5.8119 8.91629 6.75 7.757C7.98747 6.22775 9.87955 5.25 12 5.25C14.1205 5.25 16.0125 6.22775 17.25 7.757M17.25 7.757V3.75C17.25 2.92157 16.5784 2.25 15.75 2.25H8.25C7.42157 2.25 6.75 2.92157 6.75 3.75V7.757M6.75 16.243V20.25C6.75 21.0784 7.42157 21.75 8.25 21.75H15.75C16.5784 21.75 17.25 21.0784 17.25 20.25V16.243M9.75 11.25L12 12.75L15 10.5" stroke="black" stroke-width="1.5" stroke-linecap="round" stroke-linejoin="round"/>
</svg>
