<svg width="24" height="24" viewBox="0 0 24 24" fill="none" xmlns="http://www.w3.org/2000/svg">
<path d="M9 8.25033H8.25C7.42157 8.25033 6.75 8.9219 6.75 9.75033V11.2501L2.25 9.75033V12.7501L6.75 15.7503V18.7501C6.75 19.5785 7.42155 20.2501 8.24996 20.2501L16.5 20.2503C17.3284 20.2503 18 19.5787 18 18.7503V17.2503M9 8.25033C10.4574 1.65565 21.7103 2.40334 21.75 9.75033C21.7855 16.3133 18 17.2503 18 17.2503M9 8.25033C10.7444 9.99468 13.4775 10.2653 15.53 8.89677L16.5 8.25003C17.3283 8.2502 18 8.92172 18 9.75003V17.2503" stroke="black" stroke-width="1.5" stroke-linecap="round" stroke-linejoin="round"/>
</svg>
