<svg width="24" height="24" viewBox="0 0 24 24" fill="none" xmlns="http://www.w3.org/2000/svg">
<path d="M15.561 12.75C14.8949 10.1622 12.5458 8.25 9.75 8.25C8.33108 8.25 7.0272 8.74254 6 9.56597C4.62831 10.6656 3.75 12.3552 3.75 14.25C3.75 17.5637 6.43629 20.25 9.75 20.25C13.0637 20.25 15.75 17.5637 15.75 14.25C15.75 13.7321 15.6844 13.2294 15.561 12.75ZM6 9.56597V5.25C6 4.42157 5.32843 3.75 4.5 3.75H2.25M15.561 12.75H18.75C19.5784 12.75 20.25 13.4216 20.25 14.25V17.25M20.25 17.25C21.0784 17.25 21.75 17.9216 21.75 18.75C21.75 19.5784 21.0784 20.25 20.25 20.25C19.4216 20.25 18.75 19.5784 18.75 18.75C18.75 17.9216 19.4216 17.25 20.25 17.25ZM10.5 14.25C10.5 13.8358 10.1642 13.5 9.75 13.5C9.33579 13.5 9 13.8358 9 14.25C9 14.6642 9.33579 15 9.75 15C10.1642 15 10.5 14.6642 10.5 14.25Z" stroke="black" stroke-width="1.5" stroke-linecap="round" stroke-linejoin="round"/>
</svg>
