<svg width="24" height="24" viewBox="0 0 24 24" fill="none" xmlns="http://www.w3.org/2000/svg">
<path d="M22.0762 8.67373C19.4975 6.09499 15.935 4.5 12 4.5C8.06495 4.5 4.50245 6.09499 1.92371 8.67373M8.28767 15.0377C9.23773 14.0876 10.5502 13.5 12 13.5C12.3071 13.5 12.6082 13.5264 12.9009 13.577M5.10569 11.8557C6.87009 10.0913 9.30759 9 12 9C14.3714 9 16.545 9.84659 18.2352 11.254M11.3403 19.1072C11.2827 19.001 11.25 18.8793 11.25 18.75C11.25 18.6858 11.258 18.6235 11.2732 18.564M15.75 22.5L19.125 19.125M19.125 19.125L22.5 15.75M19.125 19.125L22.5 22.5M19.125 19.125L15.75 15.75" stroke="black" stroke-width="1.5" stroke-miterlimit="1.78829" stroke-linecap="round" stroke-linejoin="round"/>
</svg>
