<svg width="24" height="24" viewBox="0 0 24 24" fill="none" xmlns="http://www.w3.org/2000/svg">
<path d="M22.0763 8.67373C19.4975 6.09499 15.935 4.5 12 4.5C8.06498 4.5 4.50248 6.09499 1.92374 8.67373M8.2877 15.0377C9.23776 14.0876 10.5503 13.5 12 13.5C13.4498 13.5 14.7623 14.0876 15.7123 15.0377M5.10572 11.8557C6.87012 10.0913 9.30762 9 12 9C14.6924 9 17.1299 10.0913 18.8943 11.8557M12.75 18.75C12.75 18.3358 12.4142 18 12 18C11.5858 18 11.25 18.3358 11.25 18.75C11.25 19.1642 11.5858 19.5 12 19.5C12.4142 19.5 12.75 19.1642 12.75 18.75Z" stroke="black" stroke-width="1.5" stroke-miterlimit="1.78829" stroke-linecap="round" stroke-linejoin="round"/>
</svg>
