<svg width="24" height="24" viewBox="0 0 24 24" fill="none" xmlns="http://www.w3.org/2000/svg">
<path d="M22.0763 8.67373C19.4975 6.09499 15.935 4.5 12 4.5C11.0637 4.5 10.1485 4.5903 9.26265 4.76266M1.92372 8.67373C3.06645 7.531 4.40236 6.58145 5.87826 5.87826M8.28768 15.0377C9.23775 14.0876 10.5502 13.5 12 13.5C12.6423 13.5 13.2576 13.6153 13.8264 13.8264M5.1057 11.8557C6.27085 10.6906 7.72951 9.81894 9.36127 9.36128M18.8943 11.8557C17.4954 10.4568 15.6734 9.48102 13.6368 9.13676M2.24999 2.25L5.87826 5.87826M5.87826 5.87826L9.36127 9.36128L13.8264 13.8264L21.75 21.75M12.75 18.75C12.75 18.3358 12.4142 18 12 18C11.5858 18 11.25 18.3358 11.25 18.75C11.25 19.1642 11.5858 19.5 12 19.5C12.4142 19.5 12.75 19.1642 12.75 18.75Z" stroke="black" stroke-width="1.5" stroke-miterlimit="1.78829" stroke-linecap="round" stroke-linejoin="round"/>
</svg>
