<svg width="24" height="24" viewBox="0 0 24 24" fill="none" xmlns="http://www.w3.org/2000/svg">
<path d="M19.5 18H12M19.5 18V10.5M19.5 18C20.3284 18 21 18.6716 21 19.5V20.25C21 21.0784 20.3284 21.75 19.5 21.75H4.5C3.67157 21.75 3 21.0784 3 20.25V19.5C3 18.6716 3.67157 18 4.5 18M12 18H4.5M12 18V10.5M4.5 18V10.5M12 2.25V10.5M12 2.25C16.1421 2.25 19.5 5.60786 19.5 9.75V10.5M12 2.25C7.85786 2.25 4.5 5.60786 4.5 9.75V10.5M12 10.5H4.5M12 10.5H19.5" stroke="black" stroke-width="1.5" stroke-linecap="round" stroke-linejoin="round"/>
</svg>
