<svg width="24" height="24" viewBox="0 0 24 24" fill="none" xmlns="http://www.w3.org/2000/svg">
<path d="M4.5 18C3.67157 18 3 18.6716 3 19.5V20.25C3 21.0784 3.67157 21.75 4.5 21.75H19.5C20.3284 21.75 21 21.0784 21 20.25V19.5C21 18.6716 20.3284 18 19.5 18M4.5 18V12.75M4.5 18H8.25M19.5 18H15.75M19.5 18V12.75M12 2.25C16.1421 2.25 19.5 5.60786 19.5 9.75V12.75M12 2.25C7.85786 2.25 4.5 5.60786 4.5 9.75V12.75M12 2.25L11.6463 4.19536C10.9353 8.10567 8.22137 11.3545 4.5 12.75M12 2.25L12.3537 4.19536C13.0647 8.10567 15.7786 11.3545 19.5 12.75M4.5 12.75L5.02614 13.1446C6.62644 14.3448 7.76484 16.0593 8.25 18M8.25 18H15.75M15.75 18C16.2352 16.0593 17.3736 14.3448 18.9739 13.1446L19.5 12.75" stroke="black" stroke-width="1.5" stroke-linecap="round" stroke-linejoin="round"/>
</svg>
