<svg width="24" height="24" viewBox="0 0 24 24" fill="none" xmlns="http://www.w3.org/2000/svg">
<path d="M19.5 20.626L21.75 20.25L21.4227 18M21.75 20.25L17.6586 17.1815M4.5 20.626L2.25 20.25L2.57728 18M2.25 20.25L6.34138 17.1815M10.5 3.75L12 2.25L13.5 3.75M12 2.25V6.75M17.6586 17.1815C18.3489 16.1227 18.75 14.8582 18.75 13.5C18.75 9.77208 15.7279 6.75 12 6.75M17.6586 17.1815C16.4543 19.0288 14.3697 20.25 12 20.25C9.63026 20.25 7.54573 19.0288 6.34138 17.1815M17.6586 17.1815L16.7043 16.4657M12 6.75C8.27208 6.75 5.25 9.77208 5.25 13.5C5.25 14.8582 5.65113 16.1227 6.34138 17.1815M12 6.75V8.625M6.34138 17.1815L7.29569 16.4657" stroke="black" stroke-width="1.5" stroke-linecap="round" stroke-linejoin="round"/>
</svg>
