<svg width="24" height="24" viewBox="0 0 24 24" fill="none" xmlns="http://www.w3.org/2000/svg">
<path d="M8.03034 5.03018L6.00001 2.99985C6.00001 2.99985 9 1.50018 11.25 3.75018C13.5 6.00018 12 8.99985 12 8.99985L21.1287 18.1285C21.5265 18.5263 21.75 19.0659 21.75 19.6285C21.75 20.8001 20.8003 21.7498 19.6287 21.7498C19.0661 21.7498 18.5265 21.5264 18.1287 21.1285L9 11.9999C9 11.9999 6.00027 13.4998 3.74999 11.2495C1.4997 8.99919 2.99999 5.99951 2.99999 5.99951L5.03033 8.03014C5.17098 8.17082 5.36177 8.24985 5.5607 8.24985H7.5C7.91422 8.24985 8.25 7.91406 8.25 7.49985V5.56051C8.25 5.3616 8.17099 5.17083 8.03034 5.03018Z" stroke="black" stroke-width="1.5" stroke-linecap="round" stroke-linejoin="round"/>
</svg>
